<?xml version="1.0" encoding="UTF-8" standalone="no"?>
<!DOCTYPE svg PUBLIC "-//W3C//DTD SVG 1.1//EN"
 "http://www.w3.org/Graphics/SVG/1.1/DTD/svg11.dtd">
<!-- Generated by graphviz version 10.0.1 (0)
 -->
<!-- Title: abstract_controller.h Pages: 1 -->
<svg width="850pt" height="201pt"
 viewBox="0.00 0.00 849.75 200.50" xmlns="http://www.w3.org/2000/svg" xmlns:xlink="http://www.w3.org/1999/xlink">
<g id="graph0" class="graph" transform="scale(1 1) rotate(0) translate(4 196.5)">
<title>abstract_controller.h</title>
<!-- Node1 -->
<g id="Node000001" class="node">
<title>Node1</title>
<g id="a_Node000001"><a xlink:title="Contains the abstract class for coverage control algorithms.">
<polygon fill="#999999" stroke="#666666" points="445.62,-192.5 341.12,-192.5 341.12,-174 445.62,-174 445.62,-192.5"/>
<text text-anchor="middle" x="393.38" y="-179" font-family="Helvetica,sans-Serif" font-size="10.00">abstract_controller.h</text>
</a>
</g>
</g>
<!-- Node2 -->
<g id="Node000002" class="node">
<title>Node2</title>
<g id="a_Node000002"><a xlink:href="centralized__cvt_8h.html" target="_top" xlink:title="Contains the class CentralizedCVT.">
<polygon fill="white" stroke="#666666" points="88.75,-132.75 0,-132.75 0,-114.25 88.75,-114.25 88.75,-132.75"/>
<text text-anchor="middle" x="44.38" y="-119.25" font-family="Helvetica,sans-Serif" font-size="10.00">centralized_cvt.h</text>
</a>
</g>
</g>
<!-- Node1&#45;&gt;Node2 -->
<g id="edge1_Node000001_Node000002" class="edge">
<title>Node1&#45;&gt;Node2</title>
<g id="a_edge1_Node000001_Node000002"><a xlink:title=" ">
<path fill="none" stroke="#63b8ff" d="M329.48,-174.59C269.31,-166.94 176.81,-154.01 97.38,-138 90.58,-136.63 83.35,-134.94 76.49,-133.23"/>
<polygon fill="#63b8ff" stroke="#63b8ff" points="328.84,-178.04 339.19,-175.82 329.71,-171.09 328.84,-178.04"/>
</a>
</g>
</g>
<!-- Node5 -->
<g id="Node000005" class="node">
<title>Node5</title>
<g id="a_Node000005"><a xlink:href="clairvoyant__cvt_8h.html" target="_top" xlink:title="Clairvoyant CVT algorithm.">
<polygon fill="white" stroke="#666666" points="826.75,-132.75 738,-132.75 738,-114.25 826.75,-114.25 826.75,-132.75"/>
<text text-anchor="middle" x="782.38" y="-119.25" font-family="Helvetica,sans-Serif" font-size="10.00">clairvoyant_cvt.h</text>
</a>
</g>
</g>
<!-- Node1&#45;&gt;Node5 -->
<g id="edge4_Node000001_Node000005" class="edge">
<title>Node1&#45;&gt;Node5</title>
<g id="a_edge4_Node000001_Node000005"><a xlink:title=" ">
<path fill="none" stroke="#63b8ff" d="M457.41,-176.1C525.28,-169.05 635.43,-156.08 729.38,-138 736.37,-136.65 743.81,-134.94 750.84,-133.18"/>
<polygon fill="#63b8ff" stroke="#63b8ff" points="457.16,-172.61 447.57,-177.11 457.87,-179.57 457.16,-172.61"/>
</a>
</g>
</g>
<!-- Node7 -->
<g id="Node000007" class="node">
<title>Node7</title>
<g id="a_Node000007"><a xlink:href="decentralized__cvt_8h.html" target="_top" xlink:title="Contains the DecentralizedCVT class.">
<polygon fill="white" stroke="#666666" points="206,-132.75 106.75,-132.75 106.75,-114.25 206,-114.25 206,-132.75"/>
<text text-anchor="middle" x="156.38" y="-119.25" font-family="Helvetica,sans-Serif" font-size="10.00">decentralized_cvt.h</text>
</a>
</g>
</g>
<!-- Node1&#45;&gt;Node7 -->
<g id="edge7_Node000001_Node000007" class="edge">
<title>Node1&#45;&gt;Node7</title>
<g id="a_edge7_Node000001_Node000007"><a xlink:title=" ">
<path fill="none" stroke="#63b8ff" d="M346.6,-170.85C301.18,-159.79 233.22,-143.22 192.02,-133.18"/>
<polygon fill="#63b8ff" stroke="#63b8ff" points="345.62,-174.22 356.17,-173.18 347.28,-167.42 345.62,-174.22"/>
</a>
</g>
</g>
<!-- Node8 -->
<g id="Node000008" class="node">
<title>Node8</title>
<g id="a_Node000008"><a xlink:href="near__optimal__cvt_8h.html" target="_top" xlink:title="NearOptimalCVT class Global offline oracle: has complete information about the environment....">
<polygon fill="white" stroke="#666666" points="322.25,-132.75 224.5,-132.75 224.5,-114.25 322.25,-114.25 322.25,-132.75"/>
<text text-anchor="middle" x="273.38" y="-119.25" font-family="Helvetica,sans-Serif" font-size="10.00">near_optimal_cvt.h</text>
</a>
</g>
</g>
<!-- Node1&#45;&gt;Node8 -->
<g id="edge9_Node000001_Node000008" class="edge">
<title>Node1&#45;&gt;Node8</title>
<g id="a_edge9_Node000001_Node000008"><a xlink:title=" ">
<path fill="none" stroke="#63b8ff" d="M365.31,-168.75C342.52,-157.78 311.04,-142.63 291.46,-133.2"/>
<polygon fill="#63b8ff" stroke="#63b8ff" points="363.52,-171.77 374.05,-172.95 366.55,-165.46 363.52,-171.77"/>
</a>
</g>
</g>
<!-- Node9 -->
<g id="Node000009" class="node">
<title>Node9</title>
<g id="a_Node000009"><a xlink:href="oracle__bang__explore__exploit_8h.html" target="_top" xlink:title="First trial of oracle with exploration and exploitation. The oracle uses complete information about t...">
<polygon fill="white" stroke="#666666" points="446,-138 340.75,-138 340.75,-109 446,-109 446,-138"/>
<text text-anchor="start" x="348.75" y="-124.5" font-family="Helvetica,sans-Serif" font-size="10.00">oracle_bang_explore</text>
<text text-anchor="middle" x="393.38" y="-114" font-family="Helvetica,sans-Serif" font-size="10.00">_exploit.h</text>
</a>
</g>
</g>
<!-- Node1&#45;&gt;Node9 -->
<g id="edge11_Node000001_Node000009" class="edge">
<title>Node1&#45;&gt;Node9</title>
<g id="a_edge11_Node000001_Node000009"><a xlink:title=" ">
<path fill="none" stroke="#63b8ff" d="M393.38,-162.24C393.38,-154.39 393.38,-145.57 393.38,-138.43"/>
<polygon fill="#63b8ff" stroke="#63b8ff" points="389.88,-162.22 393.38,-172.22 396.88,-162.22 389.88,-162.22"/>
</a>
</g>
</g>
<!-- Node10 -->
<g id="Node000010" class="node">
<title>Node10</title>
<g id="a_Node000010"><a xlink:href="oracle__explore__exploit_8h.html" target="_top" xlink:title="Old trial of exploration and exploitation Uses system map for exploration as well.">
<polygon fill="white" stroke="#666666" points="584.5,-132.75 464.25,-132.75 464.25,-114.25 584.5,-114.25 584.5,-132.75"/>
<text text-anchor="middle" x="524.38" y="-119.25" font-family="Helvetica,sans-Serif" font-size="10.00">oracle_explore_exploit.h</text>
</a>
</g>
</g>
<!-- Node1&#45;&gt;Node10 -->
<g id="edge13_Node000001_Node000010" class="edge">
<title>Node1&#45;&gt;Node10</title>
<g id="a_edge13_Node000001_Node000010"><a xlink:title=" ">
<path fill="none" stroke="#63b8ff" d="M423.33,-169.04C448.27,-158.05 483.06,-142.71 504.63,-133.2"/>
<polygon fill="#63b8ff" stroke="#63b8ff" points="422.11,-165.76 414.37,-172.99 424.93,-172.16 422.11,-165.76"/>
</a>
</g>
</g>
<!-- Node11 -->
<g id="Node000011" class="node">
<title>Node11</title>
<g id="a_Node000011"><a xlink:href="simul__explore__exploit_8h.html" target="_top" xlink:title="Simultaneous exploration and exploitation algorithm Uses frontier&#45;based exploration with bias towards...">
<polygon fill="white" stroke="#666666" points="720,-132.75 602.75,-132.75 602.75,-114.25 720,-114.25 720,-132.75"/>
<text text-anchor="middle" x="661.38" y="-119.25" font-family="Helvetica,sans-Serif" font-size="10.00">simul_explore_exploit.h</text>
</a>
</g>
</g>
<!-- Node1&#45;&gt;Node11 -->
<g id="edge15_Node000001_Node000011" class="edge">
<title>Node1&#45;&gt;Node11</title>
<g id="a_edge15_Node000001_Node000011"><a xlink:title=" ">
<path fill="none" stroke="#63b8ff" d="M444.96,-171.13C496.32,-160.07 574.08,-143.31 621.07,-133.18"/>
<polygon fill="#63b8ff" stroke="#63b8ff" points="444.31,-167.69 435.27,-173.22 445.78,-174.54 444.31,-167.69"/>
</a>
</g>
</g>
<!-- Node3 -->
<g id="Node000003" class="node">
<title>Node3</title>
<g id="a_Node000003"><a xlink:href="core__binds_8h.html" target="_top" xlink:title="Provides python bindings for the core CoverageControl library using pybind11.">
<polygon fill="white" stroke="#666666" points="429.12,-73 357.62,-73 357.62,-54.5 429.12,-54.5 429.12,-73"/>
<text text-anchor="middle" x="393.38" y="-59.5" font-family="Helvetica,sans-Serif" font-size="10.00">core_binds.h</text>
</a>
</g>
</g>
<!-- Node2&#45;&gt;Node3 -->
<g id="edge2_Node000002_Node000003" class="edge">
<title>Node2&#45;&gt;Node3</title>
<g id="a_edge2_Node000002_Node000003"><a xlink:title=" ">
<path fill="none" stroke="#63b8ff" d="M87.62,-111.1C90.91,-110.35 94.19,-109.64 97.38,-109 190.33,-90.26 301.18,-75.75 357.17,-68.96"/>
<polygon fill="#63b8ff" stroke="#63b8ff" points="86.87,-107.68 77.96,-113.41 88.5,-114.49 86.87,-107.68"/>
</a>
</g>
</g>
<!-- Node4 -->
<g id="Node000004" class="node">
<title>Node4</title>
<g id="a_Node000004"><a xlink:href="python__binds_8cpp.html" target="_top" xlink:title="Python bindings for the CoverageControl library using pybind11 (core_binds.h)">
<polygon fill="white" stroke="#666666" points="439.62,-18.5 347.12,-18.5 347.12,0 439.62,0 439.62,-18.5"/>
<text text-anchor="middle" x="393.38" y="-5" font-family="Helvetica,sans-Serif" font-size="10.00">python_binds.cpp</text>
</a>
</g>
</g>
<!-- Node3&#45;&gt;Node4 -->
<g id="edge3_Node000003_Node000004" class="edge">
<title>Node3&#45;&gt;Node4</title>
<g id="a_edge3_Node000003_Node000004"><a xlink:title=" ">
<path fill="none" stroke="#63b8ff" d="M393.38,-42.64C393.38,-34.36 393.38,-25.21 393.38,-18.76"/>
<polygon fill="#63b8ff" stroke="#63b8ff" points="389.88,-42.57 393.38,-52.57 396.88,-42.57 389.88,-42.57"/>
</a>
</g>
</g>
<!-- Node5&#45;&gt;Node3 -->
<g id="edge5_Node000005_Node000003" class="edge">
<title>Node5&#45;&gt;Node3</title>
<g id="a_edge5_Node000005_Node000003"><a xlink:title=" ">
<path fill="none" stroke="#63b8ff" d="M739.76,-111.18C736.26,-110.39 732.76,-109.65 729.38,-109 621.04,-88.15 491.16,-74.1 429.4,-68.08"/>
<polygon fill="#63b8ff" stroke="#63b8ff" points="738.83,-114.56 749.37,-113.47 740.45,-107.75 738.83,-114.56"/>
</a>
</g>
</g>
<!-- Node6 -->
<g id="Node000006" class="node">
<title>Node6</title>
<g id="a_Node000006"><a xlink:href="coverage__algorithm_8cpp.html" target="_top" xlink:title="Program to test the CVT&#45;based (Lloyd&#39;s) coverage control algorithms.">
<polygon fill="white" stroke="#666666" points="841.75,-73 723,-73 723,-54.5 841.75,-54.5 841.75,-73"/>
<text text-anchor="middle" x="782.38" y="-59.5" font-family="Helvetica,sans-Serif" font-size="10.00">coverage_algorithm.cpp</text>
</a>
</g>
</g>
<!-- Node5&#45;&gt;Node6 -->
<g id="edge6_Node000005_Node000006" class="edge">
<title>Node5&#45;&gt;Node6</title>
<g id="a_edge6_Node000005_Node000006"><a xlink:title=" ">
<path fill="none" stroke="#63b8ff" d="M782.38,-102.58C782.38,-92.58 782.38,-81 782.38,-73.31"/>
<polygon fill="#63b8ff" stroke="#63b8ff" points="778.88,-102.47 782.38,-112.47 785.88,-102.47 778.88,-102.47"/>
</a>
</g>
</g>
<!-- Node7&#45;&gt;Node3 -->
<g id="edge8_Node000007_Node000003" class="edge">
<title>Node7&#45;&gt;Node3</title>
<g id="a_edge8_Node000007_Node000003"><a xlink:title=" ">
<path fill="none" stroke="#63b8ff" d="M203.15,-111.1C248.57,-100.04 316.53,-83.47 357.73,-73.43"/>
<polygon fill="#63b8ff" stroke="#63b8ff" points="202.47,-107.67 193.58,-113.43 204.13,-114.47 202.47,-107.67"/>
</a>
</g>
</g>
<!-- Node8&#45;&gt;Node3 -->
<g id="edge10_Node000008_Node000003" class="edge">
<title>Node8&#45;&gt;Node3</title>
<g id="a_edge10_Node000008_Node000003"><a xlink:title=" ">
<path fill="none" stroke="#63b8ff" d="M301.44,-109C324.23,-98.03 355.71,-82.88 375.29,-73.45"/>
<polygon fill="#63b8ff" stroke="#63b8ff" points="300.2,-105.71 292.7,-113.2 303.23,-112.02 300.2,-105.71"/>
</a>
</g>
</g>
<!-- Node9&#45;&gt;Node3 -->
<g id="edge12_Node000009_Node000003" class="edge">
<title>Node9&#45;&gt;Node3</title>
<g id="a_edge12_Node000009_Node000003"><a xlink:title=" ">
<path fill="none" stroke="#63b8ff" d="M393.38,-97.1C393.38,-88.61 393.38,-79.71 393.38,-73.4"/>
<polygon fill="#63b8ff" stroke="#63b8ff" points="389.88,-97.01 393.38,-107.01 396.88,-97.01 389.88,-97.01"/>
</a>
</g>
</g>
<!-- Node10&#45;&gt;Node3 -->
<g id="edge14_Node000010_Node000003" class="edge">
<title>Node10&#45;&gt;Node3</title>
<g id="a_edge14_Node000010_Node000003"><a xlink:title=" ">
<path fill="none" stroke="#63b8ff" d="M494.42,-109.29C469.48,-98.3 434.69,-82.96 413.12,-73.45"/>
<polygon fill="#63b8ff" stroke="#63b8ff" points="492.82,-112.41 503.38,-113.24 495.64,-106.01 492.82,-112.41"/>
</a>
</g>
</g>
<!-- Node11&#45;&gt;Node3 -->
<g id="edge16_Node000011_Node000003" class="edge">
<title>Node11&#45;&gt;Node3</title>
<g id="a_edge16_Node000011_Node000003"><a xlink:title=" ">
<path fill="none" stroke="#63b8ff" d="M609.78,-111.38C556.83,-99.97 475.81,-82.51 429.39,-72.51"/>
<polygon fill="#63b8ff" stroke="#63b8ff" points="608.97,-114.79 619.48,-113.47 610.44,-107.94 608.97,-114.79"/>
</a>
</g>
</g>
</g>
</svg>
