<?xml version="1.0" encoding="UTF-8" standalone="no"?>
<!DOCTYPE svg PUBLIC "-//W3C//DTD SVG 1.1//EN"
 "http://www.w3.org/Graphics/SVG/1.1/DTD/svg11.dtd">
<!-- Generated by graphviz version 10.0.1 (0)
 -->
<!-- Title: abstract_controller.h Pages: 1 -->
<svg width="835pt" height="146pt"
 viewBox="0.00 0.00 835.00 146.00" xmlns="http://www.w3.org/2000/svg" xmlns:xlink="http://www.w3.org/1999/xlink">
<g id="graph0" class="graph" transform="scale(1 1) rotate(0) translate(4 142)">
<title>abstract_controller.h</title>
<!-- Node1 -->
<g id="Node000001" class="node">
<title>Node1</title>
<g id="a_Node000001"><a xlink:title="Contains the abstract class for coverage control algorithms.">
<polygon fill="#999999" stroke="#666666" points="432.62,-138 328.12,-138 328.12,-119.5 432.62,-119.5 432.62,-138"/>
<text text-anchor="middle" x="380.38" y="-124.5" font-family="Helvetica,sans-Serif" font-size="10.00">abstract_controller.h</text>
</a>
</g>
</g>
<!-- Node2 -->
<g id="Node000002" class="node">
<title>Node2</title>
<g id="a_Node000002"><a xlink:href="centralized__cvt_8h.html" target="_top" xlink:title="Contains the class CentralizedCVT.">
<polygon fill="white" stroke="#666666" points="88.75,-78.25 0,-78.25 0,-59.75 88.75,-59.75 88.75,-78.25"/>
<text text-anchor="middle" x="44.38" y="-64.75" font-family="Helvetica,sans-Serif" font-size="10.00">centralized_cvt.h</text>
</a>
</g>
</g>
<!-- Node1&#45;&gt;Node2 -->
<g id="edge1_Node000001_Node000002" class="edge">
<title>Node1&#45;&gt;Node2</title>
<g id="a_edge1_Node000001_Node000002"><a xlink:title=" ">
<path fill="none" stroke="#63b8ff" d="M316.56,-119.39C259.21,-111.49 172.82,-98.61 98.38,-83.5 91.46,-82.1 84.1,-80.4 77.11,-78.68"/>
<polygon fill="#63b8ff" stroke="#63b8ff" points="315.75,-122.82 326.13,-120.7 316.7,-115.88 315.75,-122.82"/>
</a>
</g>
</g>
<!-- Node3 -->
<g id="Node000003" class="node">
<title>Node3</title>
<g id="a_Node000003"><a xlink:href="clairvoyant__cvt_8h.html" target="_top" xlink:title="Clairvoyant CVT algorithm.">
<polygon fill="white" stroke="#666666" points="195.75,-78.25 107,-78.25 107,-59.75 195.75,-59.75 195.75,-78.25"/>
<text text-anchor="middle" x="151.38" y="-64.75" font-family="Helvetica,sans-Serif" font-size="10.00">clairvoyant_cvt.h</text>
</a>
</g>
</g>
<!-- Node1&#45;&gt;Node3 -->
<g id="edge2_Node000001_Node000003" class="edge">
<title>Node1&#45;&gt;Node3</title>
<g id="a_edge2_Node000001_Node000003"><a xlink:title=" ">
<path fill="none" stroke="#63b8ff" d="M334.65,-116.3C299.12,-107.39 248.61,-94.69 204.38,-83.5 198.3,-81.96 191.83,-80.32 185.58,-78.73"/>
<polygon fill="#63b8ff" stroke="#63b8ff" points="333.62,-119.64 344.17,-118.68 335.32,-112.85 333.62,-119.64"/>
</a>
</g>
</g>
<!-- Node5 -->
<g id="Node000005" class="node">
<title>Node5</title>
<g id="a_Node000005"><a xlink:href="decentralized__cvt_8h.html" target="_top" xlink:title="Contains the DecentralizedCVT class.">
<polygon fill="white" stroke="#666666" points="313,-78.25 213.75,-78.25 213.75,-59.75 313,-59.75 313,-78.25"/>
<text text-anchor="middle" x="263.38" y="-64.75" font-family="Helvetica,sans-Serif" font-size="10.00">decentralized_cvt.h</text>
</a>
</g>
</g>
<!-- Node1&#45;&gt;Node5 -->
<g id="edge4_Node000001_Node000005" class="edge">
<title>Node1&#45;&gt;Node5</title>
<g id="a_edge4_Node000001_Node000005"><a xlink:title=" ">
<path fill="none" stroke="#63b8ff" d="M352.71,-114.1C330.51,-103.14 300.01,-88.08 281.01,-78.7"/>
<polygon fill="#63b8ff" stroke="#63b8ff" points="350.99,-117.15 361.5,-118.43 354.08,-110.87 350.99,-117.15"/>
</a>
</g>
</g>
<!-- Node6 -->
<g id="Node000006" class="node">
<title>Node6</title>
<g id="a_Node000006"><a xlink:href="near__optimal__cvt_8h.html" target="_top" xlink:title="NearOptimalCVT class Global offline oracle: has complete information about the environment....">
<polygon fill="white" stroke="#666666" points="429.25,-78.25 331.5,-78.25 331.5,-59.75 429.25,-59.75 429.25,-78.25"/>
<text text-anchor="middle" x="380.38" y="-64.75" font-family="Helvetica,sans-Serif" font-size="10.00">near_optimal_cvt.h</text>
</a>
</g>
</g>
<!-- Node1&#45;&gt;Node6 -->
<g id="edge5_Node000001_Node000006" class="edge">
<title>Node1&#45;&gt;Node6</title>
<g id="a_edge5_Node000001_Node000006"><a xlink:title=" ">
<path fill="none" stroke="#63b8ff" d="M380.38,-107.83C380.38,-97.83 380.38,-86.25 380.38,-78.56"/>
<polygon fill="#63b8ff" stroke="#63b8ff" points="376.88,-107.72 380.38,-117.72 383.88,-107.72 376.88,-107.72"/>
</a>
</g>
</g>
<!-- Node7 -->
<g id="Node000007" class="node">
<title>Node7</title>
<g id="a_Node000007"><a xlink:href="oracle__bang__explore__exploit_8h.html" target="_top" xlink:title="First trial of oracle with exploration and exploitation. The oracle uses complete information about t...">
<polygon fill="white" stroke="#666666" points="553,-83.5 447.75,-83.5 447.75,-54.5 553,-54.5 553,-83.5"/>
<text text-anchor="start" x="455.75" y="-70" font-family="Helvetica,sans-Serif" font-size="10.00">oracle_bang_explore</text>
<text text-anchor="middle" x="500.38" y="-59.5" font-family="Helvetica,sans-Serif" font-size="10.00">_exploit.h</text>
</a>
</g>
</g>
<!-- Node1&#45;&gt;Node7 -->
<g id="edge6_Node000001_Node000007" class="edge">
<title>Node1&#45;&gt;Node7</title>
<g id="a_edge6_Node000001_Node000007"><a xlink:title=" ">
<path fill="none" stroke="#63b8ff" d="M408.46,-114.23C427.44,-105.1 452.42,-93.08 471.55,-83.87"/>
<polygon fill="#63b8ff" stroke="#63b8ff" points="407.2,-110.96 399.7,-118.45 410.23,-117.27 407.2,-110.96"/>
</a>
</g>
</g>
<!-- Node8 -->
<g id="Node000008" class="node">
<title>Node8</title>
<g id="a_Node000008"><a xlink:href="oracle__explore__exploit_8h.html" target="_top" xlink:title="Old trial of exploration and exploitation Uses system map for exploration as well.">
<polygon fill="white" stroke="#666666" points="691.5,-78.25 571.25,-78.25 571.25,-59.75 691.5,-59.75 691.5,-78.25"/>
<text text-anchor="middle" x="631.38" y="-64.75" font-family="Helvetica,sans-Serif" font-size="10.00">oracle_explore_exploit.h</text>
</a>
</g>
</g>
<!-- Node1&#45;&gt;Node8 -->
<g id="edge7_Node000001_Node000008" class="edge">
<title>Node1&#45;&gt;Node8</title>
<g id="a_edge7_Node000001_Node000008"><a xlink:title=" ">
<path fill="none" stroke="#63b8ff" d="M429.3,-116.49C477.4,-105.43 549.81,-88.77 593.63,-78.68"/>
<polygon fill="#63b8ff" stroke="#63b8ff" points="428.66,-113.05 419.7,-118.7 430.23,-119.87 428.66,-113.05"/>
</a>
</g>
</g>
<!-- Node9 -->
<g id="Node000009" class="node">
<title>Node9</title>
<g id="a_Node000009"><a xlink:href="simul__explore__exploit_8h.html" target="_top" xlink:title="Simultaneous exploration and exploitation algorithm Uses frontier&#45;based exploration with bias towards...">
<polygon fill="white" stroke="#666666" points="827,-78.25 709.75,-78.25 709.75,-59.75 827,-59.75 827,-78.25"/>
<text text-anchor="middle" x="768.38" y="-64.75" font-family="Helvetica,sans-Serif" font-size="10.00">simul_explore_exploit.h</text>
</a>
</g>
</g>
<!-- Node1&#45;&gt;Node9 -->
<g id="edge8_Node000001_Node000009" class="edge">
<title>Node1&#45;&gt;Node9</title>
<g id="a_edge8_Node000001_Node000009"><a xlink:title=" ">
<path fill="none" stroke="#63b8ff" d="M444.13,-120.05C508.83,-111.97 611.81,-98.4 700.38,-83.5 708.8,-82.08 717.79,-80.41 726.37,-78.74"/>
<polygon fill="#63b8ff" stroke="#63b8ff" points="443.89,-116.55 434.4,-121.26 444.76,-123.5 443.89,-116.55"/>
</a>
</g>
</g>
<!-- Node4 -->
<g id="Node000004" class="node">
<title>Node4</title>
<g id="a_Node000004"><a xlink:href="coverage__algorithm_8cpp.html" target="_top" xlink:title="Program to test the CVT&#45;based (Lloyd&#39;s) coverage control algorithms.">
<polygon fill="white" stroke="#666666" points="210.75,-18.5 92,-18.5 92,0 210.75,0 210.75,-18.5"/>
<text text-anchor="middle" x="151.38" y="-5" font-family="Helvetica,sans-Serif" font-size="10.00">coverage_algorithm.cpp</text>
</a>
</g>
</g>
<!-- Node3&#45;&gt;Node4 -->
<g id="edge3_Node000003_Node000004" class="edge">
<title>Node3&#45;&gt;Node4</title>
<g id="a_edge3_Node000003_Node000004"><a xlink:title=" ">
<path fill="none" stroke="#63b8ff" d="M151.38,-48.08C151.38,-38.08 151.38,-26.5 151.38,-18.81"/>
<polygon fill="#63b8ff" stroke="#63b8ff" points="147.88,-47.97 151.38,-57.97 154.88,-47.97 147.88,-47.97"/>
</a>
</g>
</g>
</g>
</svg>
