<?xml version="1.0" encoding="UTF-8" standalone="no"?>
<!DOCTYPE svg PUBLIC "-//W3C//DTD SVG 1.1//EN"
 "http://www.w3.org/Graphics/SVG/1.1/DTD/svg11.dtd">
<!-- Generated by graphviz version 10.0.1 (0)
 -->
<!-- Title: bivariate_normal_distribution.h Pages: 1 -->
<svg width="1144pt" height="419pt"
 viewBox="0.00 0.00 1144.38 418.50" xmlns="http://www.w3.org/2000/svg" xmlns:xlink="http://www.w3.org/1999/xlink">
<g id="graph0" class="graph" transform="scale(1 1) rotate(0) translate(4 414.5)">
<title>bivariate_normal_distribution.h</title>
<!-- Node1 -->
<g id="Node000001" class="node">
<title>Node1</title>
<g id="a_Node000001"><a xlink:title="Class for Bivariate Normal Distribution.">
<polygon fill="#999999" stroke="#666666" points="569,-410.5 421.75,-410.5 421.75,-392 569,-392 569,-410.5"/>
<text text-anchor="middle" x="495.38" y="-397" font-family="Helvetica,sans-Serif" font-size="10.00">bivariate_normal_distribution.h</text>
</a>
</g>
</g>
<!-- Node2 -->
<g id="Node000002" class="node">
<title>Node2</title>
<g id="a_Node000002"><a xlink:href="core__binds_8h.html" target="_top" xlink:title="Provides python bindings for the core CoverageControl library using pybind11.">
<polygon fill="white" stroke="#666666" points="796.12,-73 724.62,-73 724.62,-54.5 796.12,-54.5 796.12,-73"/>
<text text-anchor="middle" x="760.38" y="-59.5" font-family="Helvetica,sans-Serif" font-size="10.00">core_binds.h</text>
</a>
</g>
</g>
<!-- Node1&#45;&gt;Node2 -->
<g id="edge1_Node000001_Node000002" class="edge">
<title>Node1&#45;&gt;Node2</title>
<g id="a_edge1_Node000001_Node000002"><a xlink:title=" ">
<path fill="none" stroke="#63b8ff" d="M580.66,-394.76C755.09,-382.37 1136.38,-348.94 1136.38,-293.25 1136.38,-293.25 1136.38,-293.25 1136.38,-182.25 1136.38,-139.31 1111.05,-129.6 1073.38,-109 1026.25,-83.23 868.19,-71 796.39,-66.67"/>
<polygon fill="#63b8ff" stroke="#63b8ff" points="580.46,-391.26 570.73,-395.45 580.95,-398.24 580.46,-391.26"/>
</a>
</g>
</g>
<!-- Node4 -->
<g id="Node000004" class="node">
<title>Node4</title>
<g id="a_Node000004"><a xlink:href="coverage__system_8h.html" target="_top" xlink:title="The file contains the CoverageSystem class, which is the main class for the coverage control library.">
<polygon fill="white" stroke="#666666" points="512,-247 412.75,-247 412.75,-228.5 512,-228.5 512,-247"/>
<text text-anchor="middle" x="462.38" y="-233.5" font-family="Helvetica,sans-Serif" font-size="10.00">coverage_system.h</text>
</a>
</g>
</g>
<!-- Node1&#45;&gt;Node4 -->
<g id="edge3_Node000001_Node000004" class="edge">
<title>Node1&#45;&gt;Node4</title>
<g id="a_edge3_Node000001_Node000004"><a xlink:title=" ">
<path fill="none" stroke="#63b8ff" d="M475.27,-383.95C467.49,-376.37 459.48,-366.67 455.38,-356 440.65,-317.75 453.36,-267.28 459.51,-247.36"/>
<polygon fill="#63b8ff" stroke="#63b8ff" points="472.83,-386.46 482.61,-390.54 477.5,-381.25 472.83,-386.46"/>
</a>
</g>
</g>
<!-- Node15 -->
<g id="Node000015" class="node">
<title>Node15</title>
<g id="a_Node000015"><a xlink:href="world__idf_8h.html" target="_top" xlink:title="Contains the class for Importance Density Function (IDF) for the world.">
<polygon fill="white" stroke="#666666" points="526.25,-356 464.5,-356 464.5,-337.5 526.25,-337.5 526.25,-356"/>
<text text-anchor="middle" x="495.38" y="-342.5" font-family="Helvetica,sans-Serif" font-size="10.00">world_idf.h</text>
</a>
</g>
</g>
<!-- Node1&#45;&gt;Node15 -->
<g id="edge31_Node000001_Node000015" class="edge">
<title>Node1&#45;&gt;Node15</title>
<g id="a_edge31_Node000001_Node000015"><a xlink:title=" ">
<path fill="none" stroke="#63b8ff" d="M495.38,-380.14C495.38,-371.86 495.38,-362.71 495.38,-356.26"/>
<polygon fill="#63b8ff" stroke="#63b8ff" points="491.88,-380.07 495.38,-390.07 498.88,-380.07 491.88,-380.07"/>
</a>
</g>
</g>
<!-- Node3 -->
<g id="Node000003" class="node">
<title>Node3</title>
<g id="a_Node000003"><a xlink:href="python__binds_8cpp.html" target="_top" xlink:title="Python bindings for the CoverageControl library using pybind11 (core_binds.h)">
<polygon fill="white" stroke="#666666" points="465.62,-18.5 373.12,-18.5 373.12,0 465.62,0 465.62,-18.5"/>
<text text-anchor="middle" x="419.38" y="-5" font-family="Helvetica,sans-Serif" font-size="10.00">python_binds.cpp</text>
</a>
</g>
</g>
<!-- Node2&#45;&gt;Node3 -->
<g id="edge2_Node000002_Node000003" class="edge">
<title>Node2&#45;&gt;Node3</title>
<g id="a_edge2_Node000002_Node000003"><a xlink:title=" ">
<path fill="none" stroke="#63b8ff" d="M713.03,-55.46C647.76,-45.41 530.87,-27.42 465.99,-17.43"/>
<polygon fill="#63b8ff" stroke="#63b8ff" points="712.29,-58.89 722.71,-56.95 713.36,-51.97 712.29,-58.89"/>
</a>
</g>
</g>
<!-- Node4&#45;&gt;Node2 -->
<g id="edge22_Node000004_Node000002" class="edge">
<title>Node4&#45;&gt;Node2</title>
<g id="a_edge22_Node000004_Node000002"><a xlink:title=" ">
<path fill="none" stroke="#63b8ff" d="M523.38,-235.13C651.88,-230.3 943.51,-211.31 1003.38,-138 1059.53,-69.23 876.74,-63.34 796.36,-63.95"/>
<polygon fill="#63b8ff" stroke="#63b8ff" points="523.58,-231.62 513.71,-235.48 523.83,-238.62 523.58,-231.62"/>
</a>
</g>
</g>
<!-- Node4&#45;&gt;Node3 -->
<g id="edge29_Node000004_Node000003" class="edge">
<title>Node4&#45;&gt;Node3</title>
<g id="a_edge29_Node000004_Node000003"><a xlink:title=" ">
<path fill="none" stroke="#63b8ff" d="M401.09,-231.97C354.18,-226.63 288.68,-215.5 235.38,-192.5 197.21,-176.03 178.36,-174.98 159.38,-138 114.87,-51.32 286.66,-22.67 372.84,-13.86"/>
<polygon fill="#63b8ff" stroke="#63b8ff" points="400.48,-235.42 410.8,-233.01 401.23,-228.46 400.48,-235.42"/>
</a>
</g>
</g>
<!-- Node5 -->
<g id="Node000005" class="node">
<title>Node5</title>
<g id="a_Node000005"><a xlink:href="abstract__controller_8h.html" target="_top" xlink:title="Contains the abstract class for coverage control algorithms.">
<polygon fill="white" stroke="#666666" points="613.62,-192.5 509.12,-192.5 509.12,-174 613.62,-174 613.62,-192.5"/>
<text text-anchor="middle" x="561.38" y="-179" font-family="Helvetica,sans-Serif" font-size="10.00">abstract_controller.h</text>
</a>
</g>
</g>
<!-- Node4&#45;&gt;Node5 -->
<g id="edge4_Node000004_Node000005" class="edge">
<title>Node4&#45;&gt;Node5</title>
<g id="a_edge4_Node000004_Node000005"><a xlink:title=" ">
<path fill="none" stroke="#63b8ff" d="M488.81,-222.73C506.69,-213.25 529.73,-201.03 545,-192.93"/>
<polygon fill="#63b8ff" stroke="#63b8ff" points="487.25,-219.59 480.06,-227.37 490.53,-225.78 487.25,-219.59"/>
</a>
</g>
</g>
<!-- Node6 -->
<g id="Node000006" class="node">
<title>Node6</title>
<g id="a_Node000006"><a xlink:href="centralized__cvt_8h.html" target="_top" xlink:title="Contains the class CentralizedCVT.">
<polygon fill="white" stroke="#666666" points="994.75,-132.75 906,-132.75 906,-114.25 994.75,-114.25 994.75,-132.75"/>
<text text-anchor="middle" x="950.38" y="-119.25" font-family="Helvetica,sans-Serif" font-size="10.00">centralized_cvt.h</text>
</a>
</g>
</g>
<!-- Node4&#45;&gt;Node6 -->
<g id="edge20_Node000004_Node000006" class="edge">
<title>Node4&#45;&gt;Node6</title>
<g id="a_edge20_Node000004_Node000006"><a xlink:title=" ">
<path fill="none" stroke="#63b8ff" d="M521.7,-225.99C566.96,-217.54 630.79,-205.14 686.38,-192.5 771.06,-173.24 869.99,-146.66 919.22,-133.14"/>
<polygon fill="#63b8ff" stroke="#63b8ff" points="521.29,-222.5 512.1,-227.77 522.57,-229.38 521.29,-222.5"/>
</a>
</g>
</g>
<!-- Node7 -->
<g id="Node000007" class="node">
<title>Node7</title>
<g id="a_Node000007"><a xlink:href="clairvoyant__cvt_8h.html" target="_top" xlink:title="Clairvoyant CVT algorithm.">
<polygon fill="white" stroke="#666666" points="256.75,-132.75 168,-132.75 168,-114.25 256.75,-114.25 256.75,-132.75"/>
<text text-anchor="middle" x="212.38" y="-119.25" font-family="Helvetica,sans-Serif" font-size="10.00">clairvoyant_cvt.h</text>
</a>
</g>
</g>
<!-- Node4&#45;&gt;Node7 -->
<g id="edge21_Node000004_Node000007" class="edge">
<title>Node4&#45;&gt;Node7</title>
<g id="a_edge21_Node000004_Node000007"><a xlink:title=" ">
<path fill="none" stroke="#63b8ff" d="M401.4,-235.31C358.21,-231.64 300.67,-221.12 258.38,-192.5 236.18,-177.48 221.78,-147.85 215.69,-133.17"/>
<polygon fill="#63b8ff" stroke="#63b8ff" points="400.87,-238.78 411.1,-236.03 401.39,-231.8 400.87,-238.78"/>
</a>
</g>
</g>
<!-- Node8 -->
<g id="Node000008" class="node">
<title>Node8</title>
<g id="a_Node000008"><a xlink:href="coverage__algorithm_8cpp.html" target="_top" xlink:title="Program to test the CVT&#45;based (Lloyd&#39;s) coverage control algorithms.">
<polygon fill="white" stroke="#666666" points="118.75,-73 0,-73 0,-54.5 118.75,-54.5 118.75,-73"/>
<text text-anchor="middle" x="59.38" y="-59.5" font-family="Helvetica,sans-Serif" font-size="10.00">coverage_algorithm.cpp</text>
</a>
</g>
</g>
<!-- Node4&#45;&gt;Node8 -->
<g id="edge23_Node000004_Node000008" class="edge">
<title>Node4&#45;&gt;Node8</title>
<g id="a_edge23_Node000004_Node000008"><a xlink:title=" ">
<path fill="none" stroke="#63b8ff" d="M401.22,-235.33C316.66,-232.27 169.56,-222.64 126.38,-192.5 115.39,-184.83 75.95,-100.71 63.31,-73.32"/>
<polygon fill="#63b8ff" stroke="#63b8ff" points="400.84,-238.82 410.95,-235.66 401.08,-231.82 400.84,-238.82"/>
</a>
</g>
</g>
<!-- Node9 -->
<g id="Node000009" class="node">
<title>Node9</title>
<g id="a_Node000009"><a xlink:href="decentralized__cvt_8h.html" target="_top" xlink:title="Contains the DecentralizedCVT class.">
<polygon fill="white" stroke="#666666" points="374,-132.75 274.75,-132.75 274.75,-114.25 374,-114.25 374,-132.75"/>
<text text-anchor="middle" x="324.38" y="-119.25" font-family="Helvetica,sans-Serif" font-size="10.00">decentralized_cvt.h</text>
</a>
</g>
</g>
<!-- Node4&#45;&gt;Node9 -->
<g id="edge25_Node000004_Node000009" class="edge">
<title>Node4&#45;&gt;Node9</title>
<g id="a_edge25_Node000004_Node000009"><a xlink:title=" ">
<path fill="none" stroke="#63b8ff" d="M443.52,-221.04C428.19,-208.29 405.96,-189.9 386.38,-174 368.62,-159.59 347.83,-143.05 335.39,-133.21"/>
<polygon fill="#63b8ff" stroke="#63b8ff" points="441,-223.5 450.93,-227.2 445.48,-218.12 441,-223.5"/>
</a>
</g>
</g>
<!-- Node10 -->
<g id="Node000010" class="node">
<title>Node10</title>
<g id="a_Node000010"><a xlink:href="near__optimal__cvt_8h.html" target="_top" xlink:title="NearOptimalCVT class Global offline oracle: has complete information about the environment....">
<polygon fill="white" stroke="#666666" points="490.25,-132.75 392.5,-132.75 392.5,-114.25 490.25,-114.25 490.25,-132.75"/>
<text text-anchor="middle" x="441.38" y="-119.25" font-family="Helvetica,sans-Serif" font-size="10.00">near_optimal_cvt.h</text>
</a>
</g>
</g>
<!-- Node4&#45;&gt;Node10 -->
<g id="edge26_Node000004_Node000010" class="edge">
<title>Node4&#45;&gt;Node10</title>
<g id="a_edge26_Node000004_Node000010"><a xlink:title=" ">
<path fill="none" stroke="#63b8ff" d="M458.7,-217.1C454.06,-192.33 446.3,-150.84 442.97,-133.03"/>
<polygon fill="#63b8ff" stroke="#63b8ff" points="455.24,-217.64 460.52,-226.83 462.12,-216.35 455.24,-217.64"/>
</a>
</g>
</g>
<!-- Node11 -->
<g id="Node000011" class="node">
<title>Node11</title>
<g id="a_Node000011"><a xlink:href="oracle__bang__explore__exploit_8h.html" target="_top" xlink:title="First trial of oracle with exploration and exploitation. The oracle uses complete information about t...">
<polygon fill="white" stroke="#666666" points="614,-138 508.75,-138 508.75,-109 614,-109 614,-138"/>
<text text-anchor="start" x="516.75" y="-124.5" font-family="Helvetica,sans-Serif" font-size="10.00">oracle_bang_explore</text>
<text text-anchor="middle" x="561.38" y="-114" font-family="Helvetica,sans-Serif" font-size="10.00">_exploit.h</text>
</a>
</g>
</g>
<!-- Node4&#45;&gt;Node11 -->
<g id="edge27_Node000004_Node000011" class="edge">
<title>Node4&#45;&gt;Node11</title>
<g id="a_edge27_Node000004_Node000011"><a xlink:title=" ">
<path fill="none" stroke="#63b8ff" d="M471.61,-217.83C478.51,-204.75 488.73,-187.37 500.38,-174 512.29,-160.32 528.29,-147.5 540.91,-138.33"/>
<polygon fill="#63b8ff" stroke="#63b8ff" points="468.54,-216.16 467.14,-226.66 474.78,-219.33 468.54,-216.16"/>
</a>
</g>
</g>
<!-- Node12 -->
<g id="Node000012" class="node">
<title>Node12</title>
<g id="a_Node000012"><a xlink:href="oracle__explore__exploit_8h.html" target="_top" xlink:title="Old trial of exploration and exploitation Uses system map for exploration as well.">
<polygon fill="white" stroke="#666666" points="752.5,-132.75 632.25,-132.75 632.25,-114.25 752.5,-114.25 752.5,-132.75"/>
<text text-anchor="middle" x="692.38" y="-119.25" font-family="Helvetica,sans-Serif" font-size="10.00">oracle_explore_exploit.h</text>
</a>
</g>
</g>
<!-- Node4&#45;&gt;Node12 -->
<g id="edge28_Node000004_Node000012" class="edge">
<title>Node4&#45;&gt;Node12</title>
<g id="a_edge28_Node000004_Node000012"><a xlink:title=" ">
<path fill="none" stroke="#63b8ff" d="M523.59,-227.3C554.64,-220.69 592.09,-209.86 622.38,-192.5 650.01,-176.66 674.81,-147.41 686.03,-132.99"/>
<polygon fill="#63b8ff" stroke="#63b8ff" points="523.06,-223.83 513.95,-229.24 524.45,-230.7 523.06,-223.83"/>
</a>
</g>
</g>
<!-- Node13 -->
<g id="Node000013" class="node">
<title>Node13</title>
<g id="a_Node000013"><a xlink:href="simul__explore__exploit_8h.html" target="_top" xlink:title="Simultaneous exploration and exploitation algorithm Uses frontier&#45;based exploration with bias towards...">
<polygon fill="white" stroke="#666666" points="888,-132.75 770.75,-132.75 770.75,-114.25 888,-114.25 888,-132.75"/>
<text text-anchor="middle" x="829.38" y="-119.25" font-family="Helvetica,sans-Serif" font-size="10.00">simul_explore_exploit.h</text>
</a>
</g>
</g>
<!-- Node4&#45;&gt;Node13 -->
<g id="edge30_Node000004_Node000013" class="edge">
<title>Node4&#45;&gt;Node13</title>
<g id="a_edge30_Node000004_Node000013"><a xlink:title=" ">
<path fill="none" stroke="#63b8ff" d="M516.48,-225.65C553.62,-217.58 603.87,-205.78 647.38,-192.5 706.9,-174.34 775.16,-147.03 808.64,-133.2"/>
<polygon fill="#63b8ff" stroke="#63b8ff" points="515.91,-222.19 506.87,-227.71 517.39,-229.03 515.91,-222.19"/>
</a>
</g>
</g>
<!-- Node14 -->
<g id="Node000014" class="node">
<title>Node14</title>
<g id="a_Node000014"><a xlink:href="coverage__system_8cpp.html" target="_top" xlink:title="Contains the implementation of the CoverageSystem class.">
<polygon fill="white" stroke="#666666" points="377.25,-192.5 267.5,-192.5 267.5,-174 377.25,-174 377.25,-192.5"/>
<text text-anchor="middle" x="322.38" y="-179" font-family="Helvetica,sans-Serif" font-size="10.00">coverage_system.cpp</text>
</a>
</g>
</g>
<!-- Node4&#45;&gt;Node14 -->
<g id="edge24_Node000004_Node000014" class="edge">
<title>Node4&#45;&gt;Node14</title>
<g id="a_edge24_Node000004_Node000014"><a xlink:title=" ">
<path fill="none" stroke="#63b8ff" d="M428.5,-224.05C402.8,-214.41 368.14,-201.41 345.53,-192.93"/>
<polygon fill="#63b8ff" stroke="#63b8ff" points="427.25,-227.32 437.84,-227.55 429.71,-220.76 427.25,-227.32"/>
</a>
</g>
</g>
<!-- Node5&#45;&gt;Node6 -->
<g id="edge5_Node000005_Node000006" class="edge">
<title>Node5&#45;&gt;Node6</title>
<g id="a_edge5_Node000005_Node000006"><a xlink:title=" ">
<path fill="none" stroke="#63b8ff" d="M625.41,-176.1C693.28,-169.05 803.43,-156.08 897.38,-138 904.37,-136.65 911.81,-134.94 918.84,-133.18"/>
<polygon fill="#63b8ff" stroke="#63b8ff" points="625.16,-172.61 615.57,-177.11 625.87,-179.57 625.16,-172.61"/>
</a>
</g>
</g>
<!-- Node5&#45;&gt;Node7 -->
<g id="edge7_Node000005_Node000007" class="edge">
<title>Node5&#45;&gt;Node7</title>
<g id="a_edge7_Node000005_Node000007"><a xlink:title=" ">
<path fill="none" stroke="#63b8ff" d="M497.48,-174.59C437.31,-166.94 344.81,-154.01 265.38,-138 258.58,-136.63 251.35,-134.94 244.49,-133.23"/>
<polygon fill="#63b8ff" stroke="#63b8ff" points="496.84,-178.04 507.19,-175.82 497.71,-171.09 496.84,-178.04"/>
</a>
</g>
</g>
<!-- Node5&#45;&gt;Node9 -->
<g id="edge10_Node000005_Node000009" class="edge">
<title>Node5&#45;&gt;Node9</title>
<g id="a_edge10_Node000005_Node000009"><a xlink:title=" ">
<path fill="none" stroke="#63b8ff" d="M514.6,-170.85C469.18,-159.79 401.22,-143.22 360.02,-133.18"/>
<polygon fill="#63b8ff" stroke="#63b8ff" points="513.62,-174.22 524.17,-173.18 515.28,-167.42 513.62,-174.22"/>
</a>
</g>
</g>
<!-- Node5&#45;&gt;Node10 -->
<g id="edge12_Node000005_Node000010" class="edge">
<title>Node5&#45;&gt;Node10</title>
<g id="a_edge12_Node000005_Node000010"><a xlink:title=" ">
<path fill="none" stroke="#63b8ff" d="M533.31,-168.75C510.52,-157.78 479.04,-142.63 459.46,-133.2"/>
<polygon fill="#63b8ff" stroke="#63b8ff" points="531.52,-171.77 542.05,-172.95 534.55,-165.46 531.52,-171.77"/>
</a>
</g>
</g>
<!-- Node5&#45;&gt;Node11 -->
<g id="edge14_Node000005_Node000011" class="edge">
<title>Node5&#45;&gt;Node11</title>
<g id="a_edge14_Node000005_Node000011"><a xlink:title=" ">
<path fill="none" stroke="#63b8ff" d="M561.38,-162.24C561.38,-154.39 561.38,-145.57 561.38,-138.43"/>
<polygon fill="#63b8ff" stroke="#63b8ff" points="557.88,-162.22 561.38,-172.22 564.88,-162.22 557.88,-162.22"/>
</a>
</g>
</g>
<!-- Node5&#45;&gt;Node12 -->
<g id="edge16_Node000005_Node000012" class="edge">
<title>Node5&#45;&gt;Node12</title>
<g id="a_edge16_Node000005_Node000012"><a xlink:title=" ">
<path fill="none" stroke="#63b8ff" d="M591.33,-169.04C616.27,-158.05 651.06,-142.71 672.63,-133.2"/>
<polygon fill="#63b8ff" stroke="#63b8ff" points="590.11,-165.76 582.37,-172.99 592.93,-172.16 590.11,-165.76"/>
</a>
</g>
</g>
<!-- Node5&#45;&gt;Node13 -->
<g id="edge18_Node000005_Node000013" class="edge">
<title>Node5&#45;&gt;Node13</title>
<g id="a_edge18_Node000005_Node000013"><a xlink:title=" ">
<path fill="none" stroke="#63b8ff" d="M612.96,-171.13C664.32,-160.07 742.08,-143.31 789.07,-133.18"/>
<polygon fill="#63b8ff" stroke="#63b8ff" points="612.31,-167.69 603.27,-173.22 613.78,-174.54 612.31,-167.69"/>
</a>
</g>
</g>
<!-- Node6&#45;&gt;Node2 -->
<g id="edge6_Node000006_Node000002" class="edge">
<title>Node6&#45;&gt;Node2</title>
<g id="a_edge6_Node000006_Node000002"><a xlink:title=" ">
<path fill="none" stroke="#63b8ff" d="M911.23,-110.6C874.86,-99.55 821.56,-83.35 789.01,-73.45"/>
<polygon fill="#63b8ff" stroke="#63b8ff" points="909.9,-113.85 920.48,-113.41 911.93,-107.16 909.9,-113.85"/>
</a>
</g>
</g>
<!-- Node7&#45;&gt;Node2 -->
<g id="edge8_Node000007_Node000002" class="edge">
<title>Node7&#45;&gt;Node2</title>
<g id="a_edge8_Node000007_Node000002"><a xlink:title=" ">
<path fill="none" stroke="#63b8ff" d="M254.19,-111.19C257.96,-110.37 261.72,-109.62 265.38,-109 435.68,-79.89 642.43,-69.25 724.4,-65.99"/>
<polygon fill="#63b8ff" stroke="#63b8ff" points="253.44,-107.77 244.5,-113.46 255.03,-114.59 253.44,-107.77"/>
</a>
</g>
</g>
<!-- Node7&#45;&gt;Node8 -->
<g id="edge9_Node000007_Node000008" class="edge">
<title>Node7&#45;&gt;Node8</title>
<g id="a_edge9_Node000007_Node000008"><a xlink:title=" ">
<path fill="none" stroke="#63b8ff" d="M178.94,-109.88C149.72,-98.85 108.08,-83.13 82.44,-73.45"/>
<polygon fill="#63b8ff" stroke="#63b8ff" points="177.46,-113.06 188.05,-113.32 179.93,-106.51 177.46,-113.06"/>
</a>
</g>
</g>
<!-- Node9&#45;&gt;Node2 -->
<g id="edge11_Node000009_Node000002" class="edge">
<title>Node9&#45;&gt;Node2</title>
<g id="a_edge11_Node000009_Node000002"><a xlink:title=" ">
<path fill="none" stroke="#63b8ff" d="M370.71,-111.4C374.98,-110.53 379.25,-109.71 383.38,-109 507.74,-87.54 657,-73.42 724.32,-67.67"/>
<polygon fill="#63b8ff" stroke="#63b8ff" points="370.03,-107.97 360.98,-113.49 371.5,-114.81 370.03,-107.97"/>
</a>
</g>
</g>
<!-- Node10&#45;&gt;Node2 -->
<g id="edge13_Node000010_Node000002" class="edge">
<title>Node10&#45;&gt;Node2</title>
<g id="a_edge13_Node000010_Node000002"><a xlink:title=" ">
<path fill="none" stroke="#63b8ff" d="M488.33,-111.32C492.06,-110.51 495.78,-109.72 499.38,-109 579.35,-92.93 673.9,-77.87 724.36,-70.15"/>
<polygon fill="#63b8ff" stroke="#63b8ff" points="487.66,-107.88 478.67,-113.47 489.19,-114.71 487.66,-107.88"/>
</a>
</g>
</g>
<!-- Node11&#45;&gt;Node2 -->
<g id="edge15_Node000011_Node000002" class="edge">
<title>Node11&#45;&gt;Node2</title>
<g id="a_edge15_Node000011_Node000002"><a xlink:title=" ">
<path fill="none" stroke="#63b8ff" d="M620.45,-105.35C656.57,-94.87 701.25,-81.91 730.26,-73.49"/>
<polygon fill="#63b8ff" stroke="#63b8ff" points="619.63,-101.95 611,-108.1 621.58,-108.67 619.63,-101.95"/>
</a>
</g>
</g>
<!-- Node12&#45;&gt;Node2 -->
<g id="edge17_Node000012_Node000002" class="edge">
<title>Node12&#45;&gt;Node2</title>
<g id="a_edge17_Node000012_Node000002"><a xlink:title=" ">
<path fill="none" stroke="#63b8ff" d="M710.87,-106.79C723.57,-96.01 739.94,-82.11 750.3,-73.31"/>
<polygon fill="#63b8ff" stroke="#63b8ff" points="708.92,-103.86 703.56,-113 713.45,-109.19 708.92,-103.86"/>
</a>
</g>
</g>
<!-- Node13&#45;&gt;Node2 -->
<g id="edge19_Node000013_Node000002" class="edge">
<title>Node13&#45;&gt;Node2</title>
<g id="a_edge19_Node000013_Node000002"><a xlink:title=" ">
<path fill="none" stroke="#63b8ff" d="M810.61,-106.79C797.72,-96.01 781.11,-82.11 770.6,-73.31"/>
<polygon fill="#63b8ff" stroke="#63b8ff" points="808.12,-109.27 818.03,-113.01 812.61,-103.91 808.12,-109.27"/>
</a>
</g>
</g>
<!-- Node15&#45;&gt;Node2 -->
<g id="edge32_Node000015_Node000002" class="edge">
<title>Node15&#45;&gt;Node2</title>
<g id="a_edge32_Node000015_Node000002"><a xlink:title=" ">
<path fill="none" stroke="#63b8ff" d="M537.78,-342.72C675.04,-332.36 1098.38,-295.77 1098.38,-238.75 1098.38,-238.75 1098.38,-238.75 1098.38,-182.25 1098.38,-140.17 1074.87,-129.95 1038.38,-109 997.74,-85.67 862.01,-72.46 796.44,-67.3"/>
<polygon fill="#63b8ff" stroke="#63b8ff" points="537.75,-339.21 528.03,-343.45 538.27,-346.19 537.75,-339.21"/>
</a>
</g>
</g>
<!-- Node15&#45;&gt;Node4 -->
<g id="edge34_Node000015_Node000004" class="edge">
<title>Node15&#45;&gt;Node4</title>
<g id="a_edge34_Node000015_Node000004"><a xlink:title=" ">
<path fill="none" stroke="#63b8ff" d="M489.21,-326.45C486.75,-318.7 483.91,-309.68 481.38,-301.5 475.38,-282.15 468.54,-259.37 464.92,-247.29"/>
<polygon fill="#63b8ff" stroke="#63b8ff" points="485.83,-327.37 492.2,-335.83 492.5,-325.24 485.83,-327.37"/>
</a>
</g>
</g>
<!-- Node15&#45;&gt;Node8 -->
<g id="edge33_Node000015_Node000008" class="edge">
<title>Node15&#45;&gt;Node8</title>
<g id="a_edge33_Node000015_Node000008"><a xlink:title=" ">
<path fill="none" stroke="#63b8ff" d="M452.85,-344.2C344.1,-339.1 64.38,-318.25 64.38,-238.75 64.38,-238.75 64.38,-238.75 64.38,-182.25 64.38,-141.41 61.32,-92.67 59.99,-73.3"/>
<polygon fill="#63b8ff" stroke="#63b8ff" points="452.37,-347.69 462.52,-344.63 452.68,-340.69 452.37,-347.69"/>
</a>
</g>
</g>
<!-- Node16 -->
<g id="Node000016" class="node">
<title>Node16</title>
<g id="a_Node000016"><a xlink:href="robot__model_8h.html" target="_top" xlink:title="Class for handling the robot model.">
<polygon fill="white" stroke="#666666" points="568.12,-301.5 490.62,-301.5 490.62,-283 568.12,-283 568.12,-301.5"/>
<text text-anchor="middle" x="529.38" y="-288" font-family="Helvetica,sans-Serif" font-size="10.00">robot_model.h</text>
</a>
</g>
</g>
<!-- Node15&#45;&gt;Node16 -->
<g id="edge35_Node000015_Node000016" class="edge">
<title>Node15&#45;&gt;Node16</title>
<g id="a_edge35_Node000015_Node000016"><a xlink:title=" ">
<path fill="none" stroke="#63b8ff" d="M507.09,-327.66C512.78,-318.88 519.34,-308.74 523.87,-301.76"/>
<polygon fill="#63b8ff" stroke="#63b8ff" points="504.31,-325.51 501.81,-335.81 510.19,-329.32 504.31,-325.51"/>
</a>
</g>
</g>
<!-- Node16&#45;&gt;Node2 -->
<g id="edge36_Node000016_Node000002" class="edge">
<title>Node16&#45;&gt;Node2</title>
<g id="a_edge36_Node000016_Node000002"><a xlink:title=" ">
<path fill="none" stroke="#63b8ff" d="M579.46,-284.22C695.7,-266.68 977.31,-216.65 1022.38,-138 1028.78,-126.82 1030.7,-118.84 1022.38,-109 993.86,-75.27 861.4,-67.24 796.46,-65.34"/>
<polygon fill="#63b8ff" stroke="#63b8ff" points="579.29,-280.71 569.91,-285.64 580.32,-287.63 579.29,-280.71"/>
</a>
</g>
</g>
<!-- Node16&#45;&gt;Node4 -->
<g id="edge37_Node000016_Node000004" class="edge">
<title>Node16&#45;&gt;Node4</title>
<g id="a_edge37_Node000016_Node000004"><a xlink:title=" ">
<path fill="none" stroke="#63b8ff" d="M509.53,-275.7C497.65,-266.39 483.02,-254.93 473.23,-247.26"/>
<polygon fill="#63b8ff" stroke="#63b8ff" points="507.09,-278.23 517.12,-281.65 511.41,-272.72 507.09,-278.23"/>
</a>
</g>
</g>
</g>
</svg>
