<?xml version="1.0" encoding="UTF-8" standalone="no"?>
<!DOCTYPE svg PUBLIC "-//W3C//DTD SVG 1.1//EN"
 "http://www.w3.org/Graphics/SVG/1.1/DTD/svg11.dtd">
<!-- Generated by graphviz version 10.0.1 (0)
 -->
<!-- Title: bivariate_normal_distribution.h Pages: 1 -->
<!--zoomable 136 -->

<svg id="main" version="1.1" xmlns="http://www.w3.org/2000/svg" xmlns:xlink="http://www.w3.org/1999/xlink" xml:space="preserve" onload="init(evt)">
<style type="text/css"><![CDATA[
.node, .edge {opacity: 0.7;}
.node.selected, .edge.selected {opacity: 1;}
.edge:hover path { stroke: red; }
.edge:hover polygon { stroke: red; fill: red; }
]]></style>

<defs>
  <circle id="rim" cx="0" cy="0" r="7"/>
  <circle id="rim2" cx="0" cy="0" r="3.5"/>
  <g id="zoomPlus">
    <use xlink:href="#rim" fill="#404040"><set attributeName="fill" to="#808080" begin="zoomplus.mouseover" end="zoomplus.mouseout"/></use>
    <path d="M-4,0h8M0,-4v8" fill="none" stroke="white" stroke-width="1.5" pointer-events="none"/>
  </g>
  <g id="zoomMin">
    <use xlink:href="#rim" fill="#404040"><set attributeName="fill" to="#808080" begin="zoomminus.mouseover" end="zoomminus.mouseout"/></use>
    <path d="M-4,0h8" fill="none" stroke="white" stroke-width="1.5" pointer-events="none"/>
  </g>
  <g id="arrowUp" transform="translate(30 24)">
    <use xlink:href="#rim"/>
    <path pointer-events="none" fill="none" stroke="white" stroke-width="1.5" d="M0,-3.0v7 M-2.5,-0.5L0,-3.0L2.5,-0.5"/>
  </g>
  <g id="arrowRight" transform="rotate(90) translate(36 -43)">
    <use xlink:href="#rim"/>
    <path pointer-events="none" fill="none" stroke="white" stroke-width="1.5" d="M0,-3.0v7 M-2.5,-0.5L0,-3.0L2.5,-0.5"/>
  </g>
  <g id="arrowDown" transform="rotate(180) translate(-30 -48)">
    <use xlink:href="#rim"/>
    <path pointer-events="none" fill="none" stroke="white" stroke-width="1.5" d="M0,-3.0v7 M-2.5,-0.5L0,-3.0L2.5,-0.5"/>
  </g>
  <g id="arrowLeft" transform="rotate(270) translate(-36 17)">
    <use xlink:href="#rim"/>
    <path pointer-events="none" fill="none" stroke="white" stroke-width="1.5" d="M0,-3.0v7 M-2.5,-0.5L0,-3.0L2.5,-0.5"/>
  </g>
  <g id="resetDef">
    <use xlink:href="#rim2" fill="#404040"><set attributeName="fill" to="#808080" begin="reset.mouseover" end="reset.mouseout"/></use>
  </g>
</defs>
<script type="application/ecmascript">
var viewWidth = 678;
var viewHeight = 136;
var sectionId = 'dynsection-0';
</script>
<script type="application/ecmascript" xlink:href="svg.min.js"/>
<svg id="graph" class="graph">
<g id="viewport">
<title>bivariate_normal_distribution.h</title>
<!-- Node1 -->
<g id="Node000001" class="node">
<title>Node1</title>
<g id="a_Node000001"><a xlink:title="Class for Bivariate Normal Distribution.">
<polygon fill="#999999" stroke="#666666" points="438.38,-127.5 291.12,-127.5 291.12,-109 438.38,-109 438.38,-127.5"/>
<text text-anchor="middle" x="364.75" y="-114" font-family="Helvetica,sans-Serif" font-size="10.00">bivariate_normal_distribution.h</text>
</a>
</g>
</g>
<!-- Node2 -->
<g id="Node000002" class="node">
<title>Node2</title>
<g id="a_Node000002"><a xlink:title=" ">
<polygon fill="#e0e0e0" stroke="#999999" points="302.25,-18.5 259.25,-18.5 259.25,0 302.25,0 302.25,-18.5"/>
<text text-anchor="middle" x="280.75" y="-5" font-family="Helvetica,sans-Serif" font-size="10.00">cmath</text>
</a>
</g>
</g>
<!-- Node1&#45;&gt;Node2 -->
<g id="edge1_Node000001_Node000002" class="edge">
<title>Node1&#45;&gt;Node2</title>
<g id="a_edge1_Node000001_Node000002"><a xlink:title=" ">
<path fill="none" stroke="#63b8ff" d="M330.5,-108.52C312.32,-101.95 291.57,-90.92 280.75,-73 272.99,-60.14 273.59,-42.92 275.8,-29.77"/>
<polygon fill="#63b8ff" stroke="#63b8ff" points="279.18,-30.69 277.86,-20.17 272.34,-29.21 279.18,-30.69"/>
</a>
</g>
</g>
<!-- Node3 -->
<g id="Node000003" class="node">
<title>Node3</title>
<g id="a_Node000003"><a xlink:title=" ">
<polygon fill="#e0e0e0" stroke="#999999" points="459.5,-18.5 406,-18.5 406,0 459.5,0 459.5,-18.5"/>
<text text-anchor="middle" x="432.75" y="-5" font-family="Helvetica,sans-Serif" font-size="10.00">iostream</text>
</a>
</g>
</g>
<!-- Node1&#45;&gt;Node3 -->
<g id="edge2_Node000001_Node000003" class="edge">
<title>Node1&#45;&gt;Node3</title>
<g id="a_edge2_Node000001_Node000003"><a xlink:title=" ">
<path fill="none" stroke="#63b8ff" d="M399,-108.52C417.18,-101.95 437.93,-90.92 448.75,-73 456.92,-59.46 451.29,-41.86 444.55,-28.75"/>
<polygon fill="#63b8ff" stroke="#63b8ff" points="447.69,-27.2 439.66,-20.29 441.63,-30.7 447.69,-27.2"/>
</a>
</g>
</g>
<!-- Node4 -->
<g id="Node000004" class="node">
<title>Node4</title>
<g id="a_Node000004"><a xlink:href="constants_8h.html" target="_top" xlink:title="Constants for the CoverageControl library.">
<polygon fill="white" stroke="#666666" points="234.12,-73 91.38,-73 91.38,-54.5 234.12,-54.5 234.12,-73"/>
<text text-anchor="middle" x="162.75" y="-59.5" font-family="Helvetica,sans-Serif" font-size="10.00">CoverageControl/constants.h</text>
</a>
</g>
</g>
<!-- Node1&#45;&gt;Node4 -->
<g id="edge3_Node000001_Node000004" class="edge">
<title>Node1&#45;&gt;Node4</title>
<g id="a_edge3_Node000001_Node000004"><a xlink:title=" ">
<path fill="none" stroke="#63b8ff" d="M331.39,-108.58C297.48,-99.77 244.72,-86.05 207.25,-76.32"/>
<polygon fill="#63b8ff" stroke="#63b8ff" points="208.18,-72.94 197.62,-73.81 206.42,-79.72 208.18,-72.94"/>
</a>
</g>
</g>
<!-- Node8 -->
<g id="Node000008" class="node">
<title>Node8</title>
<g id="a_Node000008"><a xlink:href="parameters_8h.html" target="_top" xlink:title="Contains parameters.">
<polygon fill="white" stroke="#666666" points="439.5,-73 290,-73 290,-54.5 439.5,-54.5 439.5,-73"/>
<text text-anchor="middle" x="364.75" y="-59.5" font-family="Helvetica,sans-Serif" font-size="10.00">CoverageControl/parameters.h</text>
</a>
</g>
</g>
<!-- Node1&#45;&gt;Node8 -->
<g id="edge8_Node000001_Node000008" class="edge">
<title>Node1&#45;&gt;Node8</title>
<g id="a_edge8_Node000001_Node000008"><a xlink:title=" ">
<path fill="none" stroke="#63b8ff" d="M364.75,-108.58C364.75,-102.08 364.75,-92.92 364.75,-84.66"/>
<polygon fill="#63b8ff" stroke="#63b8ff" points="368.25,-84.77 364.75,-74.77 361.25,-84.77 368.25,-84.77"/>
</a>
</g>
</g>
<!-- Node10 -->
<g id="Node000010" class="node">
<title>Node10</title>
<g id="a_Node000010"><a xlink:href="typedefs_8h.html" target="_top" xlink:title="Contains typedefs for the library.">
<polygon fill="white" stroke="#666666" points="648.5,-73 511,-73 511,-54.5 648.5,-54.5 648.5,-73"/>
<text text-anchor="middle" x="579.75" y="-59.5" font-family="Helvetica,sans-Serif" font-size="10.00">CoverageControl/typedefs.h</text>
</a>
</g>
</g>
<!-- Node1&#45;&gt;Node10 -->
<g id="edge13_Node000001_Node000010" class="edge">
<title>Node1&#45;&gt;Node10</title>
<g id="a_edge13_Node000001_Node000010"><a xlink:title=" ">
<path fill="none" stroke="#63b8ff" d="M400.25,-108.58C436.59,-99.71 493.23,-85.88 533.15,-76.13"/>
<polygon fill="#63b8ff" stroke="#63b8ff" points="533.84,-79.56 542.72,-73.79 532.18,-72.76 533.84,-79.56"/>
</a>
</g>
</g>
<!-- Node4&#45;&gt;Node2 -->
<g id="edge5_Node000004_Node000002" class="edge">
<title>Node4&#45;&gt;Node2</title>
<g id="a_edge5_Node000004_Node000002"><a xlink:title=" ">
<path fill="none" stroke="#63b8ff" d="M182.24,-54.08C200.94,-45.76 229.45,-33.08 250.99,-23.49"/>
<polygon fill="#63b8ff" stroke="#63b8ff" points="252.14,-26.81 259.85,-19.55 249.29,-20.41 252.14,-26.81"/>
</a>
</g>
</g>
<!-- Node5 -->
<g id="Node000005" class="node">
<title>Node5</title>
<g id="a_Node000005"><a xlink:title=" ">
<polygon fill="#e0e0e0" stroke="#999999" points="125.5,-18.5 0,-18.5 0,0 125.5,0 125.5,-18.5"/>
<text text-anchor="middle" x="62.75" y="-5" font-family="Helvetica,sans-Serif" font-size="10.00">CoverageControlConfig.h</text>
</a>
</g>
</g>
<!-- Node4&#45;&gt;Node5 -->
<g id="edge4_Node000004_Node000005" class="edge">
<title>Node4&#45;&gt;Node5</title>
<g id="a_edge4_Node000004_Node000005"><a xlink:title=" ">
<path fill="none" stroke="#63b8ff" d="M146.24,-54.08C130.75,-45.95 107.33,-33.65 89.23,-24.15"/>
<polygon fill="#63b8ff" stroke="#63b8ff" points="91.11,-21.19 80.63,-19.64 87.85,-27.38 91.11,-21.19"/>
</a>
</g>
</g>
<!-- Node6 -->
<g id="Node000006" class="node">
<title>Node6</title>
<g id="a_Node000006"><a xlink:title=" ">
<polygon fill="#e0e0e0" stroke="#999999" points="182.38,-18.5 143.12,-18.5 143.12,0 182.38,0 182.38,-18.5"/>
<text text-anchor="middle" x="162.75" y="-5" font-family="Helvetica,sans-Serif" font-size="10.00">limits</text>
</a>
</g>
</g>
<!-- Node4&#45;&gt;Node6 -->
<g id="edge6_Node000004_Node000006" class="edge">
<title>Node4&#45;&gt;Node6</title>
<g id="a_edge6_Node000004_Node000006"><a xlink:title=" ">
<path fill="none" stroke="#63b8ff" d="M162.75,-54.08C162.75,-47.58 162.75,-38.42 162.75,-30.16"/>
<polygon fill="#63b8ff" stroke="#63b8ff" points="166.25,-30.27 162.75,-20.27 159.25,-30.27 166.25,-30.27"/>
</a>
</g>
</g>
<!-- Node7 -->
<g id="Node000007" class="node">
<title>Node7</title>
<g id="a_Node000007"><a xlink:title=" ">
<polygon fill="#e0e0e0" stroke="#999999" points="240.75,-18.5 200.75,-18.5 200.75,0 240.75,0 240.75,-18.5"/>
<text text-anchor="middle" x="220.75" y="-5" font-family="Helvetica,sans-Serif" font-size="10.00">string</text>
</a>
</g>
</g>
<!-- Node4&#45;&gt;Node7 -->
<g id="edge7_Node000004_Node000007" class="edge">
<title>Node4&#45;&gt;Node7</title>
<g id="a_edge7_Node000004_Node000007"><a xlink:title=" ">
<path fill="none" stroke="#63b8ff" d="M172.33,-54.08C180.6,-46.59 192.79,-35.56 202.86,-26.44"/>
<polygon fill="#63b8ff" stroke="#63b8ff" points="205.16,-29.08 210.23,-19.77 200.47,-23.89 205.16,-29.08"/>
</a>
</g>
</g>
<!-- Node8&#45;&gt;Node2 -->
<g id="edge9_Node000008_Node000002" class="edge">
<title>Node8&#45;&gt;Node2</title>
<g id="a_edge9_Node000008_Node000002"><a xlink:title=" ">
<path fill="none" stroke="#63b8ff" d="M350.88,-54.08C338.23,-46.18 319.29,-34.34 304.28,-24.96"/>
<polygon fill="#63b8ff" stroke="#63b8ff" points="306.26,-22.07 295.92,-19.73 302.55,-28 306.26,-22.07"/>
</a>
</g>
</g>
<!-- Node8&#45;&gt;Node3 -->
<g id="edge11_Node000008_Node000003" class="edge">
<title>Node8&#45;&gt;Node3</title>
<g id="a_edge11_Node000008_Node000003"><a xlink:title=" ">
<path fill="none" stroke="#63b8ff" d="M375.98,-54.08C385.98,-46.36 400.85,-34.88 412.86,-25.61"/>
<polygon fill="#63b8ff" stroke="#63b8ff" points="414.76,-28.56 420.53,-19.68 410.48,-23.02 414.76,-28.56"/>
</a>
</g>
</g>
<!-- Node8&#45;&gt;Node7 -->
<g id="edge12_Node000008_Node000007" class="edge">
<title>Node8&#45;&gt;Node7</title>
<g id="a_edge12_Node000008_Node000007"><a xlink:title=" ">
<path fill="none" stroke="#63b8ff" d="M340.97,-54.08C316.51,-45.16 278.3,-31.23 251.54,-21.47"/>
<polygon fill="#63b8ff" stroke="#63b8ff" points="252.86,-18.23 242.27,-18.09 250.46,-24.81 252.86,-18.23"/>
</a>
</g>
</g>
<!-- Node9 -->
<g id="Node000009" class="node">
<title>Node9</title>
<g id="a_Node000009"><a xlink:title=" ">
<polygon fill="#e0e0e0" stroke="#999999" points="387.5,-18.5 328,-18.5 328,0 387.5,0 387.5,-18.5"/>
<text text-anchor="middle" x="357.75" y="-5" font-family="Helvetica,sans-Serif" font-size="10.00">filesystem</text>
</a>
</g>
</g>
<!-- Node8&#45;&gt;Node9 -->
<g id="edge10_Node000008_Node000009" class="edge">
<title>Node8&#45;&gt;Node9</title>
<g id="a_edge10_Node000008_Node000009"><a xlink:title=" ">
<path fill="none" stroke="#63b8ff" d="M363.59,-54.08C362.73,-47.58 361.51,-38.42 360.4,-30.16"/>
<polygon fill="#63b8ff" stroke="#63b8ff" points="363.88,-29.71 359.08,-20.26 356.94,-30.63 363.88,-29.71"/>
</a>
</g>
</g>
<!-- Node11 -->
<g id="Node000011" class="node">
<title>Node11</title>
<g id="a_Node000011"><a xlink:title=" ">
<polygon fill="#e0e0e0" stroke="#999999" points="549.88,-18.5 477.62,-18.5 477.62,0 549.88,0 549.88,-18.5"/>
<text text-anchor="middle" x="513.75" y="-5" font-family="Helvetica,sans-Serif" font-size="10.00">Eigen/Dense</text>
</a>
</g>
</g>
<!-- Node10&#45;&gt;Node11 -->
<g id="edge14_Node000010_Node000011" class="edge">
<title>Node10&#45;&gt;Node11</title>
<g id="a_edge14_Node000010_Node000011"><a xlink:title=" ">
<path fill="none" stroke="#63b8ff" d="M568.85,-54.08C559.24,-46.44 545,-35.11 533.4,-25.88"/>
<polygon fill="#63b8ff" stroke="#63b8ff" points="535.64,-23.19 525.63,-19.7 531.28,-28.66 535.64,-23.19"/>
</a>
</g>
</g>
<!-- Node12 -->
<g id="Node000012" class="node">
<title>Node12</title>
<g id="a_Node000012"><a xlink:title=" ">
<polygon fill="#e0e0e0" stroke="#999999" points="609.88,-18.5 567.62,-18.5 567.62,0 609.88,0 609.88,-18.5"/>
<text text-anchor="middle" x="588.75" y="-5" font-family="Helvetica,sans-Serif" font-size="10.00">queue</text>
</a>
</g>
</g>
<!-- Node10&#45;&gt;Node12 -->
<g id="edge15_Node000010_Node000012" class="edge">
<title>Node10&#45;&gt;Node12</title>
<g id="a_edge15_Node000010_Node000012"><a xlink:title=" ">
<path fill="none" stroke="#63b8ff" d="M581.24,-54.08C582.36,-47.51 583.96,-38.21 585.39,-29.87"/>
<polygon fill="#63b8ff" stroke="#63b8ff" points="588.8,-30.7 587.04,-20.25 581.9,-29.51 588.8,-30.7"/>
</a>
</g>
</g>
<!-- Node13 -->
<g id="Node000013" class="node">
<title>Node13</title>
<g id="a_Node000013"><a xlink:title=" ">
<polygon fill="#e0e0e0" stroke="#999999" points="669.88,-18.5 627.62,-18.5 627.62,0 669.88,0 669.88,-18.5"/>
<text text-anchor="middle" x="648.75" y="-5" font-family="Helvetica,sans-Serif" font-size="10.00">vector</text>
</a>
</g>
</g>
<!-- Node10&#45;&gt;Node13 -->
<g id="edge16_Node000010_Node000013" class="edge">
<title>Node10&#45;&gt;Node13</title>
<g id="a_edge16_Node000010_Node000013"><a xlink:title=" ">
<path fill="none" stroke="#63b8ff" d="M591.14,-54.08C601.29,-46.36 616.38,-34.88 628.56,-25.61"/>
<polygon fill="#63b8ff" stroke="#63b8ff" points="630.52,-28.52 636.36,-19.67 626.29,-22.94 630.52,-28.52"/>
</a>
</g>
</g>
</g>
</svg>

<g id="navigator" transform="translate(0 0)" fill="#404254">
  <rect fill="#f2f5e9" fill-opacity="0.5" stroke="#606060" stroke-width=".5" x="0" y="0" width="60" height="60"/>
  <use id="zoomplus" xlink:href="#zoomPlus" x="17" y="9" onmousedown="handleZoom(evt,'in')"/>
  <use id="zoomminus" xlink:href="#zoomMin" x="42" y="9" onmousedown="handleZoom(evt,'out')"/>
  <use id="reset" xlink:href="#resetDef" x="30" y="36" onmousedown="handleReset()"/>
   <use id="arrowup" xlink:href="#arrowUp" x="0" y="0" onmousedown="handlePan(0,-1)"/>
  <use id="arrowright" xlink:href="#arrowRight" x="0" y="0" onmousedown="handlePan(1,0)"/>
  <use id="arrowdown" xlink:href="#arrowDown" x="0" y="0" onmousedown="handlePan(0,1)"/>
  <use id="arrowleft" xlink:href="#arrowLeft" x="0" y="0" onmousedown="handlePan(-1,0)"/>
</g>
<svg viewBox="0 0 15 15" width="100%" height="30px" preserveAspectRatio="xMaxYMin meet">
 <g id="arrow_out" transform="scale(0.3 0.3)">
  <a xlink:href="bivariate__normal__distribution_8h__incl_org.svg" target="_base">
   <rect id="button" ry="5" rx="5" y="6" x="6" height="38" width="38"
        fill="#f2f5e9" fill-opacity="0.5" stroke="#606060" stroke-width="1.0"/>
   <path id="arrow"
     d="M 11.500037,31.436501 C 11.940474,20.09759 22.043105,11.32322 32.158766,21.979434 L 37.068811,17.246167 C 37.068811,17.246167 37.088388,32 37.088388,32 L 22.160133,31.978069 C 22.160133,31.978069 26.997745,27.140456 26.997745,27.140456 C 18.528582,18.264221 13.291696,25.230495 11.500037,31.436501 z"
     style="fill:#404040;"/>
  </a>
 </g>
</svg>

<style type='text/css'>
<![CDATA[
[data-mouse-over-selected='false'] { opacity: 0.7; }
[data-mouse-over-selected='true']  { opacity: 1.0; }
]]>
</style>
<script type="application/ecmascript"><![CDATA[
document.addEventListener('DOMContentLoaded', (event) => {
  highlightEdges();
  highlightAdjacentNodes();
});
]]></script>
</svg>
