<?xml version="1.0" encoding="UTF-8" standalone="no"?>
<!DOCTYPE svg PUBLIC "-//W3C//DTD SVG 1.1//EN"
 "http://www.w3.org/Graphics/SVG/1.1/DTD/svg11.dtd">
<!-- Generated by graphviz version 10.0.1 (0)
 -->
<!-- Title: bivariate_normal_distribution.h Pages: 1 -->
<!--zoomable 364 -->

<svg id="main" version="1.1" xmlns="http://www.w3.org/2000/svg" xmlns:xlink="http://www.w3.org/1999/xlink" xml:space="preserve" onload="init(evt)">
<style type="text/css"><![CDATA[
.node, .edge {opacity: 0.7;}
.node.selected, .edge.selected {opacity: 1;}
.edge:hover path { stroke: red; }
.edge:hover polygon { stroke: red; fill: red; }
]]></style>

<defs>
  <circle id="rim" cx="0" cy="0" r="7"/>
  <circle id="rim2" cx="0" cy="0" r="3.5"/>
  <g id="zoomPlus">
    <use xlink:href="#rim" fill="#404040"><set attributeName="fill" to="#808080" begin="zoomplus.mouseover" end="zoomplus.mouseout"/></use>
    <path d="M-4,0h8M0,-4v8" fill="none" stroke="white" stroke-width="1.5" pointer-events="none"/>
  </g>
  <g id="zoomMin">
    <use xlink:href="#rim" fill="#404040"><set attributeName="fill" to="#808080" begin="zoomminus.mouseover" end="zoomminus.mouseout"/></use>
    <path d="M-4,0h8" fill="none" stroke="white" stroke-width="1.5" pointer-events="none"/>
  </g>
  <g id="arrowUp" transform="translate(30 24)">
    <use xlink:href="#rim"/>
    <path pointer-events="none" fill="none" stroke="white" stroke-width="1.5" d="M0,-3.0v7 M-2.5,-0.5L0,-3.0L2.5,-0.5"/>
  </g>
  <g id="arrowRight" transform="rotate(90) translate(36 -43)">
    <use xlink:href="#rim"/>
    <path pointer-events="none" fill="none" stroke="white" stroke-width="1.5" d="M0,-3.0v7 M-2.5,-0.5L0,-3.0L2.5,-0.5"/>
  </g>
  <g id="arrowDown" transform="rotate(180) translate(-30 -48)">
    <use xlink:href="#rim"/>
    <path pointer-events="none" fill="none" stroke="white" stroke-width="1.5" d="M0,-3.0v7 M-2.5,-0.5L0,-3.0L2.5,-0.5"/>
  </g>
  <g id="arrowLeft" transform="rotate(270) translate(-36 17)">
    <use xlink:href="#rim"/>
    <path pointer-events="none" fill="none" stroke="white" stroke-width="1.5" d="M0,-3.0v7 M-2.5,-0.5L0,-3.0L2.5,-0.5"/>
  </g>
  <g id="resetDef">
    <use xlink:href="#rim2" fill="#404040"><set attributeName="fill" to="#808080" begin="reset.mouseover" end="reset.mouseout"/></use>
  </g>
</defs>
<script type="application/ecmascript">
var viewWidth = 879;
var viewHeight = 364;
var sectionId = 'dynsection-1';
</script>
<script type="application/ecmascript" xlink:href="svg.min.js"/>
<svg id="graph" class="graph">
<g id="viewport">
<title>bivariate_normal_distribution.h</title>
<!-- Node1 -->
<g id="Node000001" class="node">
<title>Node1</title>
<g id="a_Node000001"><a xlink:title="Class for Bivariate Normal Distribution.">
<polygon fill="#999999" stroke="#666666" points="487.38,-356 340.13,-356 340.13,-337.5 487.38,-337.5 487.38,-356"/>
<text text-anchor="middle" x="413.75" y="-342.5" font-family="Helvetica,sans-Serif" font-size="10.00">bivariate_normal_distribution.h</text>
</a>
</g>
</g>
<!-- Node2 -->
<g id="Node000002" class="node">
<title>Node2</title>
<g id="a_Node000002"><a xlink:href="coverage__system_8h.html" target="_top" xlink:title="The file contains the CoverageSystem class, which is the main class for the coverage control library.">
<polygon fill="white" stroke="#666666" points="497.38,-192.5 398.13,-192.5 398.13,-174 497.38,-174 497.38,-192.5"/>
<text text-anchor="middle" x="447.75" y="-179" font-family="Helvetica,sans-Serif" font-size="10.00">coverage_system.h</text>
</a>
</g>
</g>
<!-- Node1&#45;&gt;Node2 -->
<g id="edge1_Node000001_Node000002" class="edge">
<title>Node1&#45;&gt;Node2</title>
<g id="a_edge1_Node000001_Node000002"><a xlink:title=" ">
<path fill="none" stroke="#63b8ff" d="M418.84,-326.21C420.77,-318.52 422.95,-309.62 424.75,-301.5 433.75,-261 442.73,-212.22 446.23,-192.81"/>
<polygon fill="#63b8ff" stroke="#63b8ff" points="415.46,-325.27 416.36,-335.83 422.24,-327.01 415.46,-325.27"/>
</a>
</g>
</g>
<!-- Node13 -->
<g id="Node000013" class="node">
<title>Node13</title>
<g id="a_Node000013"><a xlink:href="world__idf_8h.html" target="_top" xlink:title="Contains the class for Importance Density Function (IDF) for the world.">
<polygon fill="white" stroke="#666666" points="415.63,-301.5 353.88,-301.5 353.88,-283 415.63,-283 415.63,-301.5"/>
<text text-anchor="middle" x="384.75" y="-288" font-family="Helvetica,sans-Serif" font-size="10.00">world_idf.h</text>
</a>
</g>
</g>
<!-- Node1&#45;&gt;Node13 -->
<g id="edge20_Node000001_Node000013" class="edge">
<title>Node1&#45;&gt;Node13</title>
<g id="a_edge20_Node000001_Node000013"><a xlink:title=" ">
<path fill="none" stroke="#63b8ff" d="M403.45,-327.09C398.67,-318.44 393.23,-308.59 389.45,-301.76"/>
<polygon fill="#63b8ff" stroke="#63b8ff" points="400.33,-328.69 408.23,-335.76 406.46,-325.31 400.33,-328.69"/>
</a>
</g>
</g>
<!-- Node3 -->
<g id="Node000003" class="node">
<title>Node3</title>
<g id="a_Node000003"><a xlink:href="abstract__controller_8h.html" target="_top" xlink:title="Contains the abstract class for coverage control algorithms.">
<polygon fill="white" stroke="#666666" points="500,-138 395.5,-138 395.5,-119.5 500,-119.5 500,-138"/>
<text text-anchor="middle" x="447.75" y="-124.5" font-family="Helvetica,sans-Serif" font-size="10.00">abstract_controller.h</text>
</a>
</g>
</g>
<!-- Node2&#45;&gt;Node3 -->
<g id="edge2_Node000002_Node000003" class="edge">
<title>Node2&#45;&gt;Node3</title>
<g id="a_edge2_Node000002_Node000003"><a xlink:title=" ">
<path fill="none" stroke="#63b8ff" d="M447.75,-162.14C447.75,-153.86 447.75,-144.71 447.75,-138.26"/>
<polygon fill="#63b8ff" stroke="#63b8ff" points="444.25,-162.07 447.75,-172.07 451.25,-162.07 444.25,-162.07"/>
</a>
</g>
</g>
<!-- Node4 -->
<g id="Node000004" class="node">
<title>Node4</title>
<g id="a_Node000004"><a xlink:href="centralized__cvt_8h.html" target="_top" xlink:title="Contains the class CentralizedCVT.">
<polygon fill="white" stroke="#666666" points="118.13,-78.25 29.38,-78.25 29.38,-59.75 118.13,-59.75 118.13,-78.25"/>
<text text-anchor="middle" x="73.75" y="-64.75" font-family="Helvetica,sans-Serif" font-size="10.00">centralized_cvt.h</text>
</a>
</g>
</g>
<!-- Node2&#45;&gt;Node4 -->
<g id="edge11_Node000002_Node000004" class="edge">
<title>Node2&#45;&gt;Node4</title>
<g id="a_edge11_Node000002_Node000004"><a xlink:title=" ">
<path fill="none" stroke="#63b8ff" d="M407.76,-170.25C331.98,-147.5 169.11,-98.62 102.77,-78.71"/>
<polygon fill="#63b8ff" stroke="#63b8ff" points="406.68,-173.58 417.27,-173.1 408.7,-166.87 406.68,-173.58"/>
</a>
</g>
</g>
<!-- Node5 -->
<g id="Node000005" class="node">
<title>Node5</title>
<g id="a_Node000005"><a xlink:href="clairvoyant__cvt_8h.html" target="_top" xlink:title="Clairvoyant CVT algorithm.">
<polygon fill="white" stroke="#666666" points="856.13,-78.25 767.38,-78.25 767.38,-59.75 856.13,-59.75 856.13,-78.25"/>
<text text-anchor="middle" x="811.75" y="-64.75" font-family="Helvetica,sans-Serif" font-size="10.00">clairvoyant_cvt.h</text>
</a>
</g>
</g>
<!-- Node2&#45;&gt;Node5 -->
<g id="edge12_Node000002_Node000005" class="edge">
<title>Node2&#45;&gt;Node5</title>
<g id="a_edge12_Node000002_Node000005"><a xlink:title=" ">
<path fill="none" stroke="#63b8ff" d="M509.17,-179.54C564.23,-175.38 646.33,-164.81 712.75,-138 749.1,-123.33 785.46,-93.53 802.2,-78.74"/>
<polygon fill="#63b8ff" stroke="#63b8ff" points="509.09,-176.04 499.36,-180.23 509.58,-183.02 509.09,-176.04"/>
</a>
</g>
</g>
<!-- Node6 -->
<g id="Node000006" class="node">
<title>Node6</title>
<g id="a_Node000006"><a xlink:href="coverage__algorithm_8cpp.html" target="_top" xlink:title="Program to test the CVT&#45;based (Lloyd&#39;s) coverage control algorithms.">
<polygon fill="white" stroke="#666666" points="871.13,-18.5 752.38,-18.5 752.38,0 871.13,0 871.13,-18.5"/>
<text text-anchor="middle" x="811.75" y="-5" font-family="Helvetica,sans-Serif" font-size="10.00">coverage_algorithm.cpp</text>
</a>
</g>
</g>
<!-- Node2&#45;&gt;Node6 -->
<g id="edge13_Node000002_Node000006" class="edge">
<title>Node2&#45;&gt;Node6</title>
<g id="a_edge13_Node000002_Node000006"><a xlink:title=" ">
<path fill="none" stroke="#63b8ff" d="M508.84,-177.79C615.11,-168.52 826.37,-142.88 864.75,-83.5 871.75,-72.68 870.22,-66.17 864.75,-54.5 857.34,-38.65 841.14,-26.48 828.59,-18.96"/>
<polygon fill="#63b8ff" stroke="#63b8ff" points="508.83,-174.28 499.16,-178.61 509.42,-181.25 508.83,-174.28"/>
</a>
</g>
</g>
<!-- Node7 -->
<g id="Node000007" class="node">
<title>Node7</title>
<g id="a_Node000007"><a xlink:href="decentralized__cvt_8h.html" target="_top" xlink:title="Contains the DecentralizedCVT class.">
<polygon fill="white" stroke="#666666" points="235.38,-78.25 136.13,-78.25 136.13,-59.75 235.38,-59.75 235.38,-78.25"/>
<text text-anchor="middle" x="185.75" y="-64.75" font-family="Helvetica,sans-Serif" font-size="10.00">decentralized_cvt.h</text>
</a>
</g>
</g>
<!-- Node2&#45;&gt;Node7 -->
<g id="edge15_Node000002_Node000007" class="edge">
<title>Node2&#45;&gt;Node7</title>
<g id="a_edge15_Node000002_Node000007"><a xlink:title=" ">
<path fill="none" stroke="#63b8ff" d="M417.3,-169.2C363.18,-146.02 251.64,-98.23 205.95,-78.65"/>
<polygon fill="#63b8ff" stroke="#63b8ff" points="415.67,-172.31 426.24,-173.03 418.43,-165.88 415.67,-172.31"/>
</a>
</g>
</g>
<!-- Node8 -->
<g id="Node000008" class="node">
<title>Node8</title>
<g id="a_Node000008"><a xlink:href="near__optimal__cvt_8h.html" target="_top" xlink:title="NearOptimalCVT class Global offline oracle: has complete information about the environment....">
<polygon fill="white" stroke="#666666" points="351.63,-78.25 253.88,-78.25 253.88,-59.75 351.63,-59.75 351.63,-78.25"/>
<text text-anchor="middle" x="302.75" y="-64.75" font-family="Helvetica,sans-Serif" font-size="10.00">near_optimal_cvt.h</text>
</a>
</g>
</g>
<!-- Node2&#45;&gt;Node8 -->
<g id="edge16_Node000002_Node000008" class="edge">
<title>Node2&#45;&gt;Node8</title>
<g id="a_edge16_Node000002_Node000008"><a xlink:title=" ">
<path fill="none" stroke="#63b8ff" d="M423.87,-167.57C410.84,-159.29 394.59,-148.52 380.75,-138 354.45,-117.99 325.66,-91.61 311.55,-78.36"/>
<polygon fill="#63b8ff" stroke="#63b8ff" points="421.91,-170.47 432.24,-172.82 425.63,-164.54 421.91,-170.47"/>
</a>
</g>
</g>
<!-- Node9 -->
<g id="Node000009" class="node">
<title>Node9</title>
<g id="a_Node000009"><a xlink:href="oracle__bang__explore__exploit_8h.html" target="_top" xlink:title="First trial of oracle with exploration and exploitation. The oracle uses complete information about t...">
<polygon fill="white" stroke="#666666" points="475.38,-83.5 370.13,-83.5 370.13,-54.5 475.38,-54.5 475.38,-83.5"/>
<text text-anchor="start" x="378.13" y="-70" font-family="Helvetica,sans-Serif" font-size="10.00">oracle_bang_explore</text>
<text text-anchor="middle" x="422.75" y="-59.5" font-family="Helvetica,sans-Serif" font-size="10.00">_exploit.h</text>
</a>
</g>
</g>
<!-- Node2&#45;&gt;Node9 -->
<g id="edge17_Node000002_Node000009" class="edge">
<title>Node2&#45;&gt;Node9</title>
<g id="a_edge17_Node000002_Node000009"><a xlink:title=" ">
<path fill="none" stroke="#63b8ff" d="M417.54,-168.18C405.68,-160.96 393.35,-150.93 386.75,-138 377.17,-119.2 393.13,-97.7 406.75,-84"/>
<polygon fill="#63b8ff" stroke="#63b8ff" points="415.5,-171.05 425.94,-172.85 418.9,-164.93 415.5,-171.05"/>
</a>
</g>
</g>
<!-- Node10 -->
<g id="Node000010" class="node">
<title>Node10</title>
<g id="a_Node000010"><a xlink:href="oracle__explore__exploit_8h.html" target="_top" xlink:title="Old trial of exploration and exploitation Uses system map for exploration as well.">
<polygon fill="white" stroke="#666666" points="613.88,-78.25 493.63,-78.25 493.63,-59.75 613.88,-59.75 613.88,-78.25"/>
<text text-anchor="middle" x="553.75" y="-64.75" font-family="Helvetica,sans-Serif" font-size="10.00">oracle_explore_exploit.h</text>
</a>
</g>
</g>
<!-- Node2&#45;&gt;Node10 -->
<g id="edge18_Node000002_Node000010" class="edge">
<title>Node2&#45;&gt;Node10</title>
<g id="a_edge18_Node000002_Node000010"><a xlink:title=" ">
<path fill="none" stroke="#63b8ff" d="M472.05,-167.56C483.92,-159.69 497.94,-149.29 508.75,-138 526.77,-119.19 542.14,-92.29 549.35,-78.65"/>
<polygon fill="#63b8ff" stroke="#63b8ff" points="470.52,-164.39 463.98,-172.73 474.29,-170.28 470.52,-164.39"/>
</a>
</g>
</g>
<!-- Node11 -->
<g id="Node000011" class="node">
<title>Node11</title>
<g id="a_Node000011"><a xlink:href="simul__explore__exploit_8h.html" target="_top" xlink:title="Simultaneous exploration and exploitation algorithm Uses frontier&#45;based exploration with bias towards...">
<polygon fill="white" stroke="#666666" points="749.38,-78.25 632.13,-78.25 632.13,-59.75 749.38,-59.75 749.38,-78.25"/>
<text text-anchor="middle" x="690.75" y="-64.75" font-family="Helvetica,sans-Serif" font-size="10.00">simul_explore_exploit.h</text>
</a>
</g>
</g>
<!-- Node2&#45;&gt;Node11 -->
<g id="edge19_Node000002_Node000011" class="edge">
<title>Node2&#45;&gt;Node11</title>
<g id="a_edge19_Node000002_Node000011"><a xlink:title=" ">
<path fill="none" stroke="#63b8ff" d="M476.63,-168.91C527.06,-145.62 629.82,-98.15 672.03,-78.65"/>
<polygon fill="#63b8ff" stroke="#63b8ff" points="475.4,-165.62 467.79,-172.99 478.34,-171.98 475.4,-165.62"/>
</a>
</g>
</g>
<!-- Node12 -->
<g id="Node000012" class="node">
<title>Node12</title>
<g id="a_Node000012"><a xlink:href="coverage__system_8cpp.html" target="_top" xlink:title="Contains the implementation of the CoverageSystem class.">
<polygon fill="white" stroke="#666666" points="703.63,-138 593.88,-138 593.88,-119.5 703.63,-119.5 703.63,-138"/>
<text text-anchor="middle" x="648.75" y="-124.5" font-family="Helvetica,sans-Serif" font-size="10.00">coverage_system.cpp</text>
</a>
</g>
</g>
<!-- Node2&#45;&gt;Node12 -->
<g id="edge14_Node000002_Node000012" class="edge">
<title>Node2&#45;&gt;Node12</title>
<g id="a_edge14_Node000002_Node000012"><a xlink:title=" ">
<path fill="none" stroke="#63b8ff" d="M491.98,-170.7C529.25,-160.96 581.74,-147.25 615.51,-138.43"/>
<polygon fill="#63b8ff" stroke="#63b8ff" points="491.2,-167.28 482.41,-173.2 492.97,-174.06 491.2,-167.28"/>
</a>
</g>
</g>
<!-- Node3&#45;&gt;Node4 -->
<g id="edge3_Node000003_Node000004" class="edge">
<title>Node3&#45;&gt;Node4</title>
<g id="a_edge3_Node000003_Node000004"><a xlink:title=" ">
<path fill="none" stroke="#63b8ff" d="M383.91,-121.09C318.88,-113.81 215.29,-100.82 126.75,-83.5 119.86,-82.15 112.52,-80.45 105.57,-78.72"/>
<polygon fill="#63b8ff" stroke="#63b8ff" points="383.36,-124.55 393.69,-122.17 384.13,-117.59 383.36,-124.55"/>
</a>
</g>
</g>
<!-- Node3&#45;&gt;Node5 -->
<g id="edge4_Node000003_Node000005" class="edge">
<title>Node3&#45;&gt;Node5</title>
<g id="a_edge4_Node000003_Node000005"><a xlink:title=" ">
<path fill="none" stroke="#63b8ff" d="M511.67,-120.7C574.79,-113.27 673.89,-100.29 758.75,-83.5 765.65,-82.14 772.98,-80.43 779.93,-78.7"/>
<polygon fill="#63b8ff" stroke="#63b8ff" points="511.35,-117.22 501.82,-121.85 512.16,-124.17 511.35,-117.22"/>
</a>
</g>
</g>
<!-- Node3&#45;&gt;Node7 -->
<g id="edge6_Node000003_Node000007" class="edge">
<title>Node3&#45;&gt;Node7</title>
<g id="a_edge6_Node000003_Node000007"><a xlink:title=" ">
<path fill="none" stroke="#63b8ff" d="M396.2,-116.67C355.15,-107.8 296.24,-95 244.75,-83.5 237.88,-81.97 230.57,-80.31 223.51,-78.7"/>
<polygon fill="#63b8ff" stroke="#63b8ff" points="395.29,-120.05 405.81,-118.74 396.77,-113.21 395.29,-120.05"/>
</a>
</g>
</g>
<!-- Node3&#45;&gt;Node8 -->
<g id="edge7_Node000003_Node000008" class="edge">
<title>Node3&#45;&gt;Node8</title>
<g id="a_edge7_Node000003_Node000008"><a xlink:title=" ">
<path fill="none" stroke="#63b8ff" d="M415.7,-114.98C388.03,-103.96 348.8,-88.34 324.61,-78.7"/>
<polygon fill="#63b8ff" stroke="#63b8ff" points="414.05,-118.1 424.64,-118.54 416.64,-111.59 414.05,-118.1"/>
</a>
</g>
</g>
<!-- Node3&#45;&gt;Node9 -->
<g id="edge8_Node000003_Node000009" class="edge">
<title>Node3&#45;&gt;Node9</title>
<g id="a_edge8_Node000003_Node000009"><a xlink:title=" ">
<path fill="none" stroke="#63b8ff" d="M439.58,-108.86C436.06,-100.74 432.02,-91.41 428.79,-83.93"/>
<polygon fill="#63b8ff" stroke="#63b8ff" points="436.28,-110.05 443.46,-117.84 442.7,-107.27 436.28,-110.05"/>
</a>
</g>
</g>
<!-- Node3&#45;&gt;Node10 -->
<g id="edge9_Node000003_Node000010" class="edge">
<title>Node3&#45;&gt;Node10</title>
<g id="a_edge9_Node000003_Node000010"><a xlink:title=" ">
<path fill="none" stroke="#63b8ff" d="M473.4,-113.78C493.43,-102.86 520.65,-88.04 537.7,-78.75"/>
<polygon fill="#63b8ff" stroke="#63b8ff" points="471.83,-110.65 464.72,-118.5 475.18,-116.79 471.83,-110.65"/>
</a>
</g>
</g>
<!-- Node3&#45;&gt;Node11 -->
<g id="edge10_Node000003_Node000011" class="edge">
<title>Node3&#45;&gt;Node11</title>
<g id="a_edge10_Node000003_Node000011"><a xlink:title=" ">
<path fill="none" stroke="#63b8ff" d="M495.41,-116.42C541.98,-105.36 611.87,-88.75 654.21,-78.68"/>
<polygon fill="#63b8ff" stroke="#63b8ff" points="494.79,-112.97 485.87,-118.69 496.41,-119.78 494.79,-112.97"/>
</a>
</g>
</g>
<!-- Node5&#45;&gt;Node6 -->
<g id="edge5_Node000005_Node000006" class="edge">
<title>Node5&#45;&gt;Node6</title>
<g id="a_edge5_Node000005_Node000006"><a xlink:title=" ">
<path fill="none" stroke="#63b8ff" d="M811.75,-48.08C811.75,-38.08 811.75,-26.5 811.75,-18.81"/>
<polygon fill="#63b8ff" stroke="#63b8ff" points="808.25,-47.97 811.75,-57.97 815.25,-47.97 808.25,-47.97"/>
</a>
</g>
</g>
<!-- Node13&#45;&gt;Node2 -->
<g id="edge22_Node000013_Node000002" class="edge">
<title>Node13&#45;&gt;Node2</title>
<g id="a_edge22_Node000013_Node000002"><a xlink:title=" ">
<path fill="none" stroke="#63b8ff" d="M395.4,-273.16C409.12,-249.87 432.41,-210.31 442.66,-192.9"/>
<polygon fill="#63b8ff" stroke="#63b8ff" points="392.52,-271.16 390.47,-281.55 398.56,-274.71 392.52,-271.16"/>
</a>
</g>
</g>
<!-- Node13&#45;&gt;Node6 -->
<g id="edge21_Node000013_Node000006" class="edge">
<title>Node13&#45;&gt;Node6</title>
<g id="a_edge21_Node000013_Node000006"><a xlink:title=" ">
<path fill="none" stroke="#63b8ff" d="M341.95,-288.37C242.01,-280.48 1.75,-254.24 1.75,-184.25 1.75,-184.25 1.75,-184.25 1.75,-127.75 1.75,-94.12 -5.26,-75.82 20.75,-54.5 76.84,-8.54 577.25,-8.27 751.91,-9.61"/>
<polygon fill="#63b8ff" stroke="#63b8ff" points="341.67,-291.86 351.9,-289.13 342.2,-284.88 341.67,-291.86"/>
</a>
</g>
</g>
<!-- Node14 -->
<g id="Node000014" class="node">
<title>Node14</title>
<g id="a_Node000014"><a xlink:href="robot__model_8h.html" target="_top" xlink:title="Class for handling the robot model.">
<polygon fill="white" stroke="#666666" points="400.5,-247 323,-247 323,-228.5 400.5,-228.5 400.5,-247"/>
<text text-anchor="middle" x="361.75" y="-233.5" font-family="Helvetica,sans-Serif" font-size="10.00">robot_model.h</text>
</a>
</g>
</g>
<!-- Node13&#45;&gt;Node14 -->
<g id="edge23_Node000013_Node000014" class="edge">
<title>Node13&#45;&gt;Node14</title>
<g id="a_edge23_Node000013_Node000014"><a xlink:title=" ">
<path fill="none" stroke="#63b8ff" d="M376.45,-272.3C372.69,-263.72 368.44,-254.02 365.48,-247.26"/>
<polygon fill="#63b8ff" stroke="#63b8ff" points="373.13,-273.44 380.35,-281.19 379.54,-270.63 373.13,-273.44"/>
</a>
</g>
</g>
<!-- Node14&#45;&gt;Node2 -->
<g id="edge24_Node000014_Node000002" class="edge">
<title>Node14&#45;&gt;Node2</title>
<g id="a_edge24_Node000014_Node000002"><a xlink:title=" ">
<path fill="none" stroke="#63b8ff" d="M385.38,-222.33C400.81,-212.91 420.45,-200.92 433.53,-192.93"/>
<polygon fill="#63b8ff" stroke="#63b8ff" points="383.96,-219.09 377.25,-227.29 387.61,-225.07 383.96,-219.09"/>
</a>
</g>
</g>
</g>
</svg>

<g id="navigator" transform="translate(0 0)" fill="#404254">
  <rect fill="#f2f5e9" fill-opacity="0.5" stroke="#606060" stroke-width=".5" x="0" y="0" width="60" height="60"/>
  <use id="zoomplus" xlink:href="#zoomPlus" x="17" y="9" onmousedown="handleZoom(evt,'in')"/>
  <use id="zoomminus" xlink:href="#zoomMin" x="42" y="9" onmousedown="handleZoom(evt,'out')"/>
  <use id="reset" xlink:href="#resetDef" x="30" y="36" onmousedown="handleReset()"/>
   <use id="arrowup" xlink:href="#arrowUp" x="0" y="0" onmousedown="handlePan(0,-1)"/>
  <use id="arrowright" xlink:href="#arrowRight" x="0" y="0" onmousedown="handlePan(1,0)"/>
  <use id="arrowdown" xlink:href="#arrowDown" x="0" y="0" onmousedown="handlePan(0,1)"/>
  <use id="arrowleft" xlink:href="#arrowLeft" x="0" y="0" onmousedown="handlePan(-1,0)"/>
</g>
<svg viewBox="0 0 15 15" width="100%" height="30px" preserveAspectRatio="xMaxYMin meet">
 <g id="arrow_out" transform="scale(0.3 0.3)">
  <a xlink:href="bivariate__normal__distribution_8h__dep__incl_org.svg" target="_base">
   <rect id="button" ry="5" rx="5" y="6" x="6" height="38" width="38"
        fill="#f2f5e9" fill-opacity="0.5" stroke="#606060" stroke-width="1.0"/>
   <path id="arrow"
     d="M 11.500037,31.436501 C 11.940474,20.09759 22.043105,11.32322 32.158766,21.979434 L 37.068811,17.246167 C 37.068811,17.246167 37.088388,32 37.088388,32 L 22.160133,31.978069 C 22.160133,31.978069 26.997745,27.140456 26.997745,27.140456 C 18.528582,18.264221 13.291696,25.230495 11.500037,31.436501 z"
     style="fill:#404040;"/>
  </a>
 </g>
</svg>

<style type='text/css'>
<![CDATA[
[data-mouse-over-selected='false'] { opacity: 0.7; }
[data-mouse-over-selected='true']  { opacity: 1.0; }
]]>
</style>
<script type="application/ecmascript"><![CDATA[
document.addEventListener('DOMContentLoaded', (event) => {
  highlightEdges();
  highlightAdjacentNodes();
});
]]></script>
</svg>
