<?xml version="1.0" encoding="UTF-8" standalone="no"?>
<!DOCTYPE svg PUBLIC "-//W3C//DTD SVG 1.1//EN"
 "http://www.w3.org/Graphics/SVG/1.1/DTD/svg11.dtd">
<!-- Generated by graphviz version 10.0.1 (0)
 -->
<!-- Title: clairvoyant_cvt.h Pages: 1 -->
<svg width="227pt" height="136pt"
 viewBox="0.00 0.00 226.62 135.50" xmlns="http://www.w3.org/2000/svg" xmlns:xlink="http://www.w3.org/1999/xlink">
<g id="graph0" class="graph" transform="scale(1 1) rotate(0) translate(4 131.5)">
<title>clairvoyant_cvt.h</title>
<!-- Node1 -->
<g id="Node000001" class="node">
<title>Node1</title>
<g id="a_Node000001"><a xlink:title="Clairvoyant CVT algorithm.">
<polygon fill="#999999" stroke="#666666" points="146.62,-127.5 57.88,-127.5 57.88,-109 146.62,-109 146.62,-127.5"/>
<text text-anchor="middle" x="102.25" y="-114" font-family="Helvetica,sans-Serif" font-size="10.00">clairvoyant_cvt.h</text>
</a>
</g>
</g>
<!-- Node2 -->
<g id="Node000002" class="node">
<title>Node2</title>
<g id="a_Node000002"><a xlink:href="core__binds_8h.html" target="_top" xlink:title="Provides python bindings for the core CoverageControl library using pybind11.">
<polygon fill="white" stroke="#666666" points="82,-73 10.5,-73 10.5,-54.5 82,-54.5 82,-73"/>
<text text-anchor="middle" x="46.25" y="-59.5" font-family="Helvetica,sans-Serif" font-size="10.00">core_binds.h</text>
</a>
</g>
</g>
<!-- Node1&#45;&gt;Node2 -->
<g id="edge1_Node000001_Node000002" class="edge">
<title>Node1&#45;&gt;Node2</title>
<g id="a_edge1_Node000001_Node000002"><a xlink:title=" ">
<path fill="none" stroke="#63b8ff" d="M84.77,-100.86C75.01,-91.72 63.26,-80.7 55.33,-73.26"/>
<polygon fill="#63b8ff" stroke="#63b8ff" points="82.21,-103.26 91.9,-107.55 87,-98.15 82.21,-103.26"/>
</a>
</g>
</g>
<!-- Node4 -->
<g id="Node000004" class="node">
<title>Node4</title>
<g id="a_Node000004"><a xlink:href="coverage__algorithm_8cpp.html" target="_top" xlink:title="Program to test the CVT&#45;based (Lloyd&#39;s) coverage control algorithms.">
<polygon fill="white" stroke="#666666" points="218.62,-73 99.88,-73 99.88,-54.5 218.62,-54.5 218.62,-73"/>
<text text-anchor="middle" x="159.25" y="-59.5" font-family="Helvetica,sans-Serif" font-size="10.00">coverage_algorithm.cpp</text>
</a>
</g>
</g>
<!-- Node1&#45;&gt;Node4 -->
<g id="edge3_Node000001_Node000004" class="edge">
<title>Node1&#45;&gt;Node4</title>
<g id="a_edge3_Node000001_Node000004"><a xlink:title=" ">
<path fill="none" stroke="#63b8ff" d="M120.04,-100.86C129.97,-91.72 141.93,-80.7 150.01,-73.26"/>
<polygon fill="#63b8ff" stroke="#63b8ff" points="117.76,-98.21 112.78,-107.56 122.5,-103.35 117.76,-98.21"/>
</a>
</g>
</g>
<!-- Node3 -->
<g id="Node000003" class="node">
<title>Node3</title>
<g id="a_Node000003"><a xlink:href="python__binds_8cpp.html" target="_top" xlink:title="Python bindings for the CoverageControl library using pybind11 (core_binds.h)">
<polygon fill="white" stroke="#666666" points="92.5,-18.5 0,-18.5 0,0 92.5,0 92.5,-18.5"/>
<text text-anchor="middle" x="46.25" y="-5" font-family="Helvetica,sans-Serif" font-size="10.00">python_binds.cpp</text>
</a>
</g>
</g>
<!-- Node2&#45;&gt;Node3 -->
<g id="edge2_Node000002_Node000003" class="edge">
<title>Node2&#45;&gt;Node3</title>
<g id="a_edge2_Node000002_Node000003"><a xlink:title=" ">
<path fill="none" stroke="#63b8ff" d="M46.25,-42.64C46.25,-34.36 46.25,-25.21 46.25,-18.76"/>
<polygon fill="#63b8ff" stroke="#63b8ff" points="42.75,-42.57 46.25,-52.57 49.75,-42.57 42.75,-42.57"/>
</a>
</g>
</g>
</g>
</svg>
