<?xml version="1.0" encoding="UTF-8" standalone="no"?>
<!DOCTYPE svg PUBLIC "-//W3C//DTD SVG 1.1//EN"
 "http://www.w3.org/Graphics/SVG/1.1/DTD/svg11.dtd">
<!-- Generated by graphviz version 10.0.1 (0)
 -->
<!-- Title: AbstractController Pages: 1 -->
<svg width="269pt" height="212pt"
 viewBox="0.00 0.00 268.75 211.50" xmlns="http://www.w3.org/2000/svg" xmlns:xlink="http://www.w3.org/1999/xlink">

<svg id="main" version="1.1" xmlns="http://www.w3.org/2000/svg" xmlns:xlink="http://www.w3.org/1999/xlink" xml:space="preserve" onload="init(evt)">
<style type="text/css"><![CDATA[
.node, .edge {opacity: 0.7;}
.node.selected, .edge.selected {opacity: 1;}
.edge:hover path { stroke: red; }
.edge:hover polygon { stroke: red; fill: red; }
]]></style>
<script type="application/ecmascript" xlink:href="svg.min.js"/>
<svg id="graph" class="graph">
<g id="graph0" class="graph" transform="scale(1 1) rotate(0) translate(4 207.5)">
<title>AbstractController</title>
<!-- Node1 -->
<g id="Node000001" class="node">
<title>Node1</title>
<g id="a_Node000001"><a xlink:title=" ">
<polygon fill="#999999" stroke="#666666" points="94.75,-110.5 0,-110.5 0,-92 94.75,-92 94.75,-110.5"/>
<text text-anchor="middle" x="47.38" y="-97" font-family="Helvetica,sans-Serif" font-size="10.00">AbstractController</text>
</a>
</g>
</g>
<!-- Node2 -->
<g id="Node000002" class="node">
<title>Node2</title>
<g id="a_Node000002"><a xlink:href="classCoverageControl_1_1CentralizedCVT.html" target="_top" xlink:title=" ">
<polygon fill="white" stroke="#666666" points="237.88,-203.5 153.62,-203.5 153.62,-185 237.88,-185 237.88,-203.5"/>
<text text-anchor="middle" x="195.75" y="-190" font-family="Helvetica,sans-Serif" font-size="10.00">CentralizedCVT</text>
</a>
</g>
</g>
<!-- Node1&#45;&gt;Node2 -->
<g id="edge1_Node000001_Node000002" class="edge">
<title>Node1&#45;&gt;Node2</title>
<g id="a_edge1_Node000001_Node000002"><a xlink:title=" ">
<path fill="none" stroke="#63b8ff" d="M64.01,-119.3C79.42,-136.04 104.42,-160.52 130.75,-175.25 137.73,-179.16 145.59,-182.34 153.36,-184.9"/>
<polygon fill="#63b8ff" stroke="#63b8ff" points="66.78,-117.14 57.5,-112.03 61.56,-121.82 66.78,-117.14"/>
</a>
</g>
</g>
<!-- Node3 -->
<g id="Node000003" class="node">
<title>Node3</title>
<g id="a_Node000003"><a xlink:href="classCoverageControl_1_1ClairvoyantCVT.html" target="_top" xlink:title=" ">
<polygon fill="white" stroke="#666666" points="237.88,-166.5 153.62,-166.5 153.62,-148 237.88,-148 237.88,-166.5"/>
<text text-anchor="middle" x="195.75" y="-153" font-family="Helvetica,sans-Serif" font-size="10.00">ClairvoyantCVT</text>
</a>
</g>
</g>
<!-- Node1&#45;&gt;Node3 -->
<g id="edge2_Node000001_Node000003" class="edge">
<title>Node1&#45;&gt;Node3</title>
<g id="a_edge2_Node000001_Node000003"><a xlink:title=" ">
<path fill="none" stroke="#63b8ff" d="M78.08,-115.75C93.57,-123.01 112.96,-131.65 130.75,-138.25 139.77,-141.6 149.67,-144.77 158.93,-147.53"/>
<polygon fill="#63b8ff" stroke="#63b8ff" points="79.94,-112.76 69.41,-111.63 76.94,-119.08 79.94,-112.76"/>
</a>
</g>
</g>
<!-- Node4 -->
<g id="Node000004" class="node">
<title>Node4</title>
<g id="a_Node000004"><a xlink:href="classCoverageControl_1_1DecentralizedCVT.html" target="_top" xlink:title=" ">
<polygon fill="white" stroke="#666666" points="243.12,-129.5 148.38,-129.5 148.38,-111 243.12,-111 243.12,-129.5"/>
<text text-anchor="middle" x="195.75" y="-116" font-family="Helvetica,sans-Serif" font-size="10.00">DecentralizedCVT</text>
</a>
</g>
</g>
<!-- Node1&#45;&gt;Node4 -->
<g id="edge3_Node000001_Node000004" class="edge">
<title>Node1&#45;&gt;Node4</title>
<g id="a_edge3_Node000001_Node000004"><a xlink:title=" ">
<path fill="none" stroke="#63b8ff" d="M106.45,-108.79C120.23,-110.58 134.77,-112.46 147.98,-114.18"/>
<polygon fill="#63b8ff" stroke="#63b8ff" points="106.96,-105.33 96.59,-107.51 106.06,-112.27 106.96,-105.33"/>
</a>
</g>
</g>
<!-- Node5 -->
<g id="Node000005" class="node">
<title>Node5</title>
<g id="a_Node000005"><a xlink:href="classCoverageControl_1_1NearOptimalCVT.html" target="_top" xlink:title=" ">
<polygon fill="white" stroke="#666666" points="240.88,-92.5 150.62,-92.5 150.62,-74 240.88,-74 240.88,-92.5"/>
<text text-anchor="middle" x="195.75" y="-79" font-family="Helvetica,sans-Serif" font-size="10.00">NearOptimalCVT</text>
</a>
</g>
</g>
<!-- Node1&#45;&gt;Node5 -->
<g id="edge4_Node000001_Node000005" class="edge">
<title>Node1&#45;&gt;Node5</title>
<g id="a_edge4_Node000001_Node000005"><a xlink:title=" ">
<path fill="none" stroke="#63b8ff" d="M106.15,-94.14C120.9,-92.33 136.52,-90.41 150.47,-88.7"/>
<polygon fill="#63b8ff" stroke="#63b8ff" points="106.09,-90.63 96.59,-95.32 106.95,-97.57 106.09,-90.63"/>
</a>
</g>
</g>
<!-- Node6 -->
<g id="Node000006" class="node">
<title>Node6</title>
<g id="a_Node000006"><a xlink:href="classCoverageControl_1_1OracleBangExploreExploit.html" target="_top" xlink:title=" ">
<polygon fill="white" stroke="#bfbfbf" points="260.75,-55.5 130.75,-55.5 130.75,-37 260.75,-37 260.75,-55.5"/>
<text text-anchor="middle" x="195.75" y="-42" font-family="Helvetica,sans-Serif" font-size="10.00">OracleBangExploreExploit</text>
</a>
</g>
</g>
<!-- Node1&#45;&gt;Node6 -->
<g id="edge5_Node000001_Node000006" class="edge">
<title>Node1&#45;&gt;Node6</title>
<g id="a_edge5_Node000001_Node000006"><a xlink:title=" ">
<path fill="none" stroke="#63b8ff" d="M79.19,-86.71C94.51,-79.75 113.41,-71.59 130.75,-65.25 139.89,-61.91 149.93,-58.71 159.28,-55.93"/>
<polygon fill="#63b8ff" stroke="#63b8ff" points="77.74,-83.52 70.11,-90.88 80.66,-89.88 77.74,-83.52"/>
</a>
</g>
</g>
<!-- Node7 -->
<g id="Node000007" class="node">
<title>Node7</title>
<g id="a_Node000007"><a xlink:href="classCoverageControl_1_1OracleExploreExploit.html" target="_top" xlink:title=" ">
<polygon fill="white" stroke="#bfbfbf" points="249.5,-18.5 142,-18.5 142,0 249.5,0 249.5,-18.5"/>
<text text-anchor="middle" x="195.75" y="-5" font-family="Helvetica,sans-Serif" font-size="10.00">OracleExploreExploit</text>
</a>
</g>
</g>
<!-- Node1&#45;&gt;Node7 -->
<g id="edge6_Node000001_Node000007" class="edge">
<title>Node1&#45;&gt;Node7</title>
<g id="a_edge6_Node000001_Node000007"><a xlink:title=" ">
<path fill="none" stroke="#63b8ff" d="M64.06,-83.46C79.5,-66.95 104.53,-42.81 130.75,-28.25 137.44,-24.54 144.93,-21.48 152.37,-18.98"/>
<polygon fill="#63b8ff" stroke="#63b8ff" points="61.68,-80.86 57.53,-90.61 66.86,-85.58 61.68,-80.86"/>
</a>
</g>
</g>
</g>
</svg>
</svg>

<style type='text/css'>
<![CDATA[
[data-mouse-over-selected='false'] { opacity: 0.7; }
[data-mouse-over-selected='true']  { opacity: 1.0; }
]]>
</style>
<script type="application/ecmascript"><![CDATA[
document.addEventListener('DOMContentLoaded', (event) => {
  highlightEdges();
  highlightAdjacentNodes();
});
]]></script>
</svg>
