<?xml version="1.0" encoding="UTF-8" standalone="no"?>
<!DOCTYPE svg PUBLIC "-//W3C//DTD SVG 1.1//EN"
 "http://www.w3.org/Graphics/SVG/1.1/DTD/svg11.dtd">
<!-- Generated by graphviz version 10.0.1 (0)
 -->
<!-- Title: CNNConfigParser Pages: 1 -->
<svg width="148pt" height="81pt"
 viewBox="0.00 0.00 148.00 81.00" xmlns="http://www.w3.org/2000/svg" xmlns:xlink="http://www.w3.org/1999/xlink">
<g id="graph0" class="graph" transform="scale(1 1) rotate(0) translate(4 77)">
<title>CNNConfigParser</title>
<!-- Node1 -->
<g id="Node000001" class="node">
<title>Node1</title>
<g id="a_Node000001"><a xlink:title="This file contains the configuration parser for the models.">
<polygon fill="#999999" stroke="#666666" points="106.38,-73 10.12,-73 10.12,-54.5 106.38,-54.5 106.38,-73"/>
<text text-anchor="middle" x="58.25" y="-59.5" font-family="Helvetica,sans-Serif" font-size="10.00">CNNConfigParser</text>
</a>
</g>
</g>
<!-- Node2 -->
<g id="Node000002" class="node">
<title>Node2</title>
<g id="a_Node000002"><a xlink:href="classcoverage__control_1_1nn_1_1models_1_1cnn_1_1CNN.html" target="_top" xlink:title="Implements an architecture consisting of a multi&#45;layer CNN followed by an MLP, according to parameter...">
<polygon fill="white" stroke="#666666" points="38.5,-18.5 0,-18.5 0,0 38.5,0 38.5,-18.5"/>
<text text-anchor="middle" x="19.25" y="-5" font-family="Helvetica,sans-Serif" font-size="10.00">CNN</text>
</a>
</g>
</g>
<!-- Node1&#45;&gt;Node2 -->
<g id="edge1_Node000001_Node000002" class="edge">
<title>Node1&#45;&gt;Node2</title>
<g id="a_edge1_Node000001_Node000002"><a xlink:title=" ">
<path fill="none" stroke="#63b8ff" d="M45.03,-44.95C38.45,-36.1 30.82,-25.82 25.57,-18.76"/>
<polygon fill="#63b8ff" stroke="#63b8ff" points="42.13,-46.93 50.91,-52.87 47.75,-42.75 42.13,-46.93"/>
</a>
</g>
</g>
<!-- Node3 -->
<g id="Node000003" class="node">
<title>Node3</title>
<g id="a_Node000003"><a xlink:href="classcoverage__control_1_1nn_1_1models_1_1cnn__backbone_1_1CNNBackBone.html" target="_top" xlink:title="Implements a multi&#45;layer convolutional neural network, with leaky&#45;ReLU non&#45;linearities between layers...">
<polygon fill="white" stroke="#666666" points="140,-18.5 56.5,-18.5 56.5,0 140,0 140,-18.5"/>
<text text-anchor="middle" x="98.25" y="-5" font-family="Helvetica,sans-Serif" font-size="10.00">CNNBackBone</text>
</a>
</g>
</g>
<!-- Node1&#45;&gt;Node3 -->
<g id="edge2_Node000001_Node000003" class="edge">
<title>Node1&#45;&gt;Node3</title>
<g id="a_edge2_Node000001_Node000003"><a xlink:title=" ">
<path fill="none" stroke="#63b8ff" d="M71.81,-44.95C78.55,-36.1 86.39,-25.82 91.77,-18.76"/>
<polygon fill="#63b8ff" stroke="#63b8ff" points="69.05,-42.8 65.77,-52.88 74.62,-47.04 69.05,-42.8"/>
</a>
</g>
</g>
</g>
</svg>
