<?xml version="1.0" encoding="UTF-8" standalone="no"?>
<!DOCTYPE svg PUBLIC "-//W3C//DTD SVG 1.1//EN"
 "http://www.w3.org/Graphics/SVG/1.1/DTD/svg11.dtd">
<!-- Generated by graphviz version 10.0.1 (0)
 -->
<!-- Title: GNNConfigParser Pages: 1 -->
<svg width="170pt" height="81pt"
 viewBox="0.00 0.00 170.25 81.00" xmlns="http://www.w3.org/2000/svg" xmlns:xlink="http://www.w3.org/1999/xlink">
<g id="graph0" class="graph" transform="scale(1 1) rotate(0) translate(4 77)">
<title>GNNConfigParser</title>
<!-- Node1 -->
<g id="Node000001" class="node">
<title>Node1</title>
<g id="a_Node000001"><a xlink:title=" ">
<polygon fill="#999999" stroke="#666666" points="123.62,-73 27.38,-73 27.38,-54.5 123.62,-54.5 123.62,-73"/>
<text text-anchor="middle" x="75.5" y="-59.5" font-family="Helvetica,sans-Serif" font-size="10.00">GNNConfigParser</text>
</a>
</g>
</g>
<!-- Node2 -->
<g id="Node000002" class="node">
<title>Node2</title>
<g id="a_Node000002"><a xlink:href="classCoverageControlTorch_1_1models_1_1gnn_1_1CNNGNN.html" target="_top" xlink:title=" ">
<polygon fill="white" stroke="#bfbfbf" points="61,-18.5 0,-18.5 0,0 61,0 61,-18.5"/>
<text text-anchor="middle" x="30.5" y="-5" font-family="Helvetica,sans-Serif" font-size="10.00">CNNGNN</text>
</a>
</g>
</g>
<!-- Node1&#45;&gt;Node2 -->
<g id="edge1_Node000001_Node000002" class="edge">
<title>Node1&#45;&gt;Node2</title>
<g id="a_edge1_Node000001_Node000002"><a xlink:title=" ">
<path fill="none" stroke="#63b8ff" d="M60.73,-45.52C53.04,-36.54 43.98,-25.97 37.79,-18.76"/>
<polygon fill="#63b8ff" stroke="#63b8ff" points="57.92,-47.62 67.08,-52.93 63.23,-43.06 57.92,-47.62"/>
</a>
</g>
</g>
<!-- Node3 -->
<g id="Node000003" class="node">
<title>Node3</title>
<g id="a_Node000003"><a xlink:href="classCoverageControlTorch_1_1models_1_1gnn__backbone_1_1GNNBackBone.html" target="_top" xlink:title=" ">
<polygon fill="white" stroke="#666666" points="162.25,-18.5 78.75,-18.5 78.75,0 162.25,0 162.25,-18.5"/>
<text text-anchor="middle" x="120.5" y="-5" font-family="Helvetica,sans-Serif" font-size="10.00">GNNBackBone</text>
</a>
</g>
</g>
<!-- Node1&#45;&gt;Node3 -->
<g id="edge2_Node000001_Node000003" class="edge">
<title>Node1&#45;&gt;Node3</title>
<g id="a_edge2_Node000001_Node000003"><a xlink:title=" ">
<path fill="none" stroke="#63b8ff" d="M90.27,-45.52C97.96,-36.54 107.02,-25.97 113.21,-18.76"/>
<polygon fill="#63b8ff" stroke="#63b8ff" points="87.77,-43.06 83.92,-52.93 93.08,-47.62 87.77,-43.06"/>
</a>
</g>
</g>
</g>
</svg>
