<?xml version="1.0" encoding="UTF-8" standalone="no"?>
<!DOCTYPE svg PUBLIC "-//W3C//DTD SVG 1.1//EN"
 "http://www.w3.org/Graphics/SVG/1.1/DTD/svg11.dtd">
<!-- Generated by graphviz version 12.1.2 (0)
 -->
<!-- Title: config.h Pages: 1 -->
<svg width="1945pt" height="102pt"
 viewBox="0.00 0.00 1945.12 102.00" xmlns="http://www.w3.org/2000/svg" xmlns:xlink="http://www.w3.org/1999/xlink">
<g id="graph0" class="graph" transform="scale(1 1) rotate(0) translate(4 98)">
<title>config.h</title>
<!-- Node1 -->
<g id="Node000001" class="node">
<title>Node1</title>
<g id="a_Node000001"><a xlink:title="Contains the configuration for the CGAL library.">
<polygon fill="#999999" stroke="#666666" points="1045.38,-94 994.88,-94 994.88,-75.5 1045.38,-75.5 1045.38,-94"/>
<text text-anchor="middle" x="1020.12" y="-80.5" font-family="Helvetica,sans-Serif" font-size="10.00">config.h</text>
</a>
</g>
</g>
<!-- Node2 -->
<g id="Node000002" class="node">
<title>Node2</title>
<g id="a_Node000002"><a xlink:title=" ">
<polygon fill="#e0e0e0" stroke="#999999" points="132.25,-29 0,-29 0,-10.5 132.25,-10.5 132.25,-29"/>
<text text-anchor="middle" x="66.12" y="-15.5" font-family="Helvetica,sans-Serif" font-size="10.00">CGAL/Arr_linear_traits_2.h</text>
</a>
</g>
</g>
<!-- Node1&#45;&gt;Node2 -->
<g id="edge1_Node000001_Node000002" class="edge">
<title>Node1&#45;&gt;Node2</title>
<g id="a_edge1_Node000001_Node000002"><a xlink:title=" ">
<path fill="none" stroke="#63b8ff" d="M994.62,-83.14C868.66,-80.01 312.29,-64.96 141.12,-39.5 129.67,-37.8 117.43,-35.11 106.22,-32.3"/>
<polygon fill="#63b8ff" stroke="#63b8ff" points="107.45,-29.01 96.89,-29.86 105.68,-35.78 107.45,-29.01"/>
</a>
</g>
</g>
<!-- Node3 -->
<g id="Node000003" class="node">
<title>Node3</title>
<g id="a_Node000003"><a xlink:title=" ">
<polygon fill="#e0e0e0" stroke="#999999" points="269.88,-29 150.38,-29 150.38,-10.5 269.88,-10.5 269.88,-29"/>
<text text-anchor="middle" x="210.12" y="-15.5" font-family="Helvetica,sans-Serif" font-size="10.00">CGAL/Arrangement_2.h</text>
</a>
</g>
</g>
<!-- Node1&#45;&gt;Node3 -->
<g id="edge2_Node000001_Node000003" class="edge">
<title>Node1&#45;&gt;Node3</title>
<g id="a_edge2_Node000001_Node000003"><a xlink:title=" ">
<path fill="none" stroke="#63b8ff" d="M994.61,-84.15C899.37,-85.25 555.98,-85.57 278.12,-39.5 268.14,-37.84 257.51,-35.3 247.7,-32.62"/>
<polygon fill="#63b8ff" stroke="#63b8ff" points="248.68,-29.26 238.1,-29.87 246.75,-35.99 248.68,-29.26"/>
</a>
</g>
</g>
<!-- Node4 -->
<g id="Node000004" class="node">
<title>Node4</title>
<g id="a_Node000004"><a xlink:title=" ">
<polygon fill="#e0e0e0" stroke="#999999" points="450.62,-29 287.62,-29 287.62,-10.5 450.62,-10.5 450.62,-29"/>
<text text-anchor="middle" x="369.12" y="-15.5" font-family="Helvetica,sans-Serif" font-size="10.00">CGAL/Delaunay_triangulation_2.h</text>
</a>
</g>
</g>
<!-- Node1&#45;&gt;Node4 -->
<g id="edge3_Node000001_Node000004" class="edge">
<title>Node1&#45;&gt;Node4</title>
<g id="a_edge3_Node000001_Node000004"><a xlink:title=" ">
<path fill="none" stroke="#63b8ff" d="M994.61,-82.86C915.12,-79.86 665.07,-68.6 460.12,-39.5 446.15,-37.52 431.1,-34.7 417.34,-31.85"/>
<polygon fill="#63b8ff" stroke="#63b8ff" points="418.12,-28.44 407.61,-29.78 416.67,-35.28 418.12,-28.44"/>
</a>
</g>
</g>
<!-- Node5 -->
<g id="Node000005" class="node">
<title>Node5</title>
<g id="a_Node000005"><a xlink:title=" ">
<polygon fill="#e0e0e0" stroke="#999999" points="589.25,-39.5 469,-39.5 469,0 589.25,0 589.25,-39.5"/>
<text text-anchor="start" x="477" y="-26" font-family="Helvetica,sans-Serif" font-size="10.00">CGAL/Exact_predicates</text>
<text text-anchor="start" x="477" y="-15.5" font-family="Helvetica,sans-Serif" font-size="10.00">_exact_constructions</text>
<text text-anchor="middle" x="529.12" y="-5" font-family="Helvetica,sans-Serif" font-size="10.00">_kernel.h</text>
</a>
</g>
</g>
<!-- Node1&#45;&gt;Node5 -->
<g id="edge4_Node000001_Node000005" class="edge">
<title>Node1&#45;&gt;Node5</title>
<g id="a_edge4_Node000001_Node000005"><a xlink:title=" ">
<path fill="none" stroke="#63b8ff" d="M994.71,-82.51C930.31,-79.08 755.39,-67.87 600.68,-39.82"/>
<polygon fill="#63b8ff" stroke="#63b8ff" points="601.54,-36.42 591.07,-38.04 600.27,-43.3 601.54,-36.42"/>
</a>
</g>
</g>
<!-- Node6 -->
<g id="Node000006" class="node">
<title>Node6</title>
<g id="a_Node000006"><a xlink:title=" ">
<polygon fill="#e0e0e0" stroke="#999999" points="735,-29 607.25,-29 607.25,-10.5 735,-10.5 735,-29"/>
<text text-anchor="middle" x="671.12" y="-15.5" font-family="Helvetica,sans-Serif" font-size="10.00">CGAL/Partition_traits_2.h</text>
</a>
</g>
</g>
<!-- Node1&#45;&gt;Node6 -->
<g id="edge5_Node000001_Node000006" class="edge">
<title>Node1&#45;&gt;Node6</title>
<g id="a_edge5_Node000001_Node000006"><a xlink:title=" ">
<path fill="none" stroke="#63b8ff" d="M994.49,-80.45C945.56,-73.96 835.58,-58.53 744.12,-39.5 734.07,-37.41 723.32,-34.84 713.25,-32.28"/>
<polygon fill="#63b8ff" stroke="#63b8ff" points="714.26,-28.92 703.7,-29.8 712.5,-35.7 714.26,-28.92"/>
</a>
</g>
</g>
<!-- Node7 -->
<g id="Node000007" class="node">
<title>Node7</title>
<g id="a_Node000007"><a xlink:title=" ">
<polygon fill="#e0e0e0" stroke="#999999" points="903.25,-29 753,-29 753,-10.5 903.25,-10.5 903.25,-29"/>
<text text-anchor="middle" x="828.12" y="-15.5" font-family="Helvetica,sans-Serif" font-size="10.00">CGAL/Polygon_with_holes_2.h</text>
</a>
</g>
</g>
<!-- Node1&#45;&gt;Node7 -->
<g id="edge6_Node000001_Node000007" class="edge">
<title>Node1&#45;&gt;Node7</title>
<g id="a_edge6_Node000001_Node000007"><a xlink:title=" ">
<path fill="none" stroke="#63b8ff" d="M994.63,-75.38C961.48,-64.51 903.35,-45.43 865.29,-32.95"/>
<polygon fill="#63b8ff" stroke="#63b8ff" points="866.68,-29.72 856.09,-29.93 864.5,-36.37 866.68,-29.72"/>
</a>
</g>
</g>
<!-- Node8 -->
<g id="Node000008" class="node">
<title>Node8</title>
<g id="a_Node000008"><a xlink:title=" ">
<polygon fill="#e0e0e0" stroke="#999999" points="1010.88,-29 921.38,-29 921.38,-10.5 1010.88,-10.5 1010.88,-29"/>
<text text-anchor="middle" x="966.12" y="-15.5" font-family="Helvetica,sans-Serif" font-size="10.00">CGAL/Random.h</text>
</a>
</g>
</g>
<!-- Node1&#45;&gt;Node8 -->
<g id="edge7_Node000001_Node000008" class="edge">
<title>Node1&#45;&gt;Node8</title>
<g id="a_edge7_Node000001_Node000008"><a xlink:title=" ">
<path fill="none" stroke="#63b8ff" d="M1012.84,-75.25C1004.58,-65.62 990.91,-49.67 980.49,-37.51"/>
<polygon fill="#63b8ff" stroke="#63b8ff" points="983.44,-35.58 974.28,-30.26 978.13,-40.13 983.44,-35.58"/>
</a>
</g>
</g>
<!-- Node9 -->
<g id="Node000009" class="node">
<title>Node9</title>
<g id="a_Node000009"><a xlink:title=" ">
<polygon fill="#e0e0e0" stroke="#999999" points="1121.75,-29 1028.5,-29 1028.5,-10.5 1121.75,-10.5 1121.75,-29"/>
<text text-anchor="middle" x="1075.12" y="-15.5" font-family="Helvetica,sans-Serif" font-size="10.00">CGAL/algorithm.h</text>
</a>
</g>
</g>
<!-- Node1&#45;&gt;Node9 -->
<g id="edge8_Node000001_Node000009" class="edge">
<title>Node1&#45;&gt;Node9</title>
<g id="a_edge8_Node000001_Node000009"><a xlink:title=" ">
<path fill="none" stroke="#63b8ff" d="M1027.54,-75.25C1035.95,-65.62 1049.88,-49.67 1060.5,-37.51"/>
<polygon fill="#63b8ff" stroke="#63b8ff" points="1062.89,-40.09 1066.83,-30.25 1057.62,-35.48 1062.89,-40.09"/>
</a>
</g>
</g>
<!-- Node10 -->
<g id="Node000010" class="node">
<title>Node10</title>
<g id="a_Node000010"><a xlink:title=" ">
<polygon fill="#e0e0e0" stroke="#999999" points="1228.12,-29 1140.12,-29 1140.12,-10.5 1228.12,-10.5 1228.12,-29"/>
<text text-anchor="middle" x="1184.12" y="-15.5" font-family="Helvetica,sans-Serif" font-size="10.00">CGAL/centroid.h</text>
</a>
</g>
</g>
<!-- Node1&#45;&gt;Node10 -->
<g id="edge9_Node000001_Node000010" class="edge">
<title>Node1&#45;&gt;Node10</title>
<g id="a_edge9_Node000001_Node000010"><a xlink:title=" ">
<path fill="none" stroke="#63b8ff" d="M1042.58,-75.12C1070.52,-64.39 1118.46,-45.97 1150.71,-33.58"/>
<polygon fill="#63b8ff" stroke="#63b8ff" points="1151.92,-36.87 1160,-30.02 1149.41,-30.34 1151.92,-36.87"/>
</a>
</g>
</g>
<!-- Node11 -->
<g id="Node000011" class="node">
<title>Node11</title>
<g id="a_Node000011"><a xlink:title=" ">
<polygon fill="#e0e0e0" stroke="#999999" points="1345.75,-29 1246.5,-29 1246.5,-10.5 1345.75,-10.5 1345.75,-29"/>
<text text-anchor="middle" x="1296.12" y="-15.5" font-family="Helvetica,sans-Serif" font-size="10.00">CGAL/partition_2.h</text>
</a>
</g>
</g>
<!-- Node1&#45;&gt;Node11 -->
<g id="edge10_Node000001_Node000011" class="edge">
<title>Node1&#45;&gt;Node11</title>
<g id="a_edge10_Node000001_Node000011"><a xlink:title=" ">
<path fill="none" stroke="#63b8ff" d="M1045.72,-79.44C1086.51,-72.38 1168.66,-57.31 1237.12,-39.5 1244.52,-37.58 1252.35,-35.28 1259.81,-32.96"/>
<polygon fill="#63b8ff" stroke="#63b8ff" points="1260.84,-36.3 1269.3,-29.93 1258.71,-29.64 1260.84,-36.3"/>
</a>
</g>
</g>
<!-- Node12 -->
<g id="Node000012" class="node">
<title>Node12</title>
<g id="a_Node000012"><a xlink:title=" ">
<polygon fill="#e0e0e0" stroke="#999999" points="1500.5,-29 1363.75,-29 1363.75,-10.5 1500.5,-10.5 1500.5,-29"/>
<text text-anchor="middle" x="1432.12" y="-15.5" font-family="Helvetica,sans-Serif" font-size="10.00">CGAL/point_generators_2.h</text>
</a>
</g>
</g>
<!-- Node1&#45;&gt;Node12 -->
<g id="edge11_Node000001_Node000012" class="edge">
<title>Node1&#45;&gt;Node12</title>
<g id="a_edge11_Node000001_Node000012"><a xlink:title=" ">
<path fill="none" stroke="#63b8ff" d="M1045.49,-81.34C1101.6,-75.81 1240.38,-60.99 1355.12,-39.5 1366.07,-37.45 1377.78,-34.83 1388.69,-32.19"/>
<polygon fill="#63b8ff" stroke="#63b8ff" points="1389.36,-35.63 1398.23,-29.83 1387.68,-28.84 1389.36,-35.63"/>
</a>
</g>
</g>
<!-- Node13 -->
<g id="Node000013" class="node">
<title>Node13</title>
<g id="a_Node000013"><a xlink:title=" ">
<polygon fill="#e0e0e0" stroke="#999999" points="1653.38,-29 1518.88,-29 1518.88,-10.5 1653.38,-10.5 1653.38,-29"/>
<text text-anchor="middle" x="1586.12" y="-15.5" font-family="Helvetica,sans-Serif" font-size="10.00">CGAL/random_polygon_2.h</text>
</a>
</g>
</g>
<!-- Node1&#45;&gt;Node13 -->
<g id="edge12_Node000001_Node000013" class="edge">
<title>Node1&#45;&gt;Node13</title>
<g id="a_edge12_Node000001_Node000013"><a xlink:title=" ">
<path fill="none" stroke="#63b8ff" d="M1045.75,-82.77C1118.66,-79.71 1333.37,-68.68 1509.12,-39.5 1520.53,-37.61 1532.74,-34.94 1544,-32.2"/>
<polygon fill="#63b8ff" stroke="#63b8ff" points="1544.56,-35.67 1553.41,-29.85 1542.85,-28.88 1544.56,-35.67"/>
</a>
</g>
</g>
<!-- Node14 -->
<g id="Node000014" class="node">
<title>Node14</title>
<g id="a_Node000014"><a xlink:title=" ">
<polygon fill="#e0e0e0" stroke="#999999" points="1794.75,-34.25 1671.5,-34.25 1671.5,-5.25 1794.75,-5.25 1794.75,-34.25"/>
<text text-anchor="start" x="1679.5" y="-20.75" font-family="Helvetica,sans-Serif" font-size="10.00">CGAL/Arr_point_location</text>
<text text-anchor="middle" x="1733.12" y="-10.25" font-family="Helvetica,sans-Serif" font-size="10.00">_result.h</text>
</a>
</g>
</g>
<!-- Node1&#45;&gt;Node14 -->
<g id="edge13_Node000001_Node000014" class="edge">
<title>Node1&#45;&gt;Node14</title>
<g id="a_edge13_Node000001_Node000014"><a xlink:title=" ">
<path fill="none" stroke="#63b8ff" d="M1045.71,-83.72C1132.71,-83.25 1424.85,-78.64 1662.12,-39.5 1666.13,-38.84 1670.25,-38.05 1674.37,-37.18"/>
<polygon fill="#63b8ff" stroke="#63b8ff" points="1674.82,-40.67 1683.79,-35.04 1673.27,-33.84 1674.82,-40.67"/>
</a>
</g>
</g>
<!-- Node15 -->
<g id="Node000015" class="node">
<title>Node15</title>
<g id="a_Node000015"><a xlink:title=" ">
<polygon fill="#e0e0e0" stroke="#999999" points="1937.12,-34.25 1813.12,-34.25 1813.12,-5.25 1937.12,-5.25 1937.12,-34.25"/>
<text text-anchor="start" x="1821.12" y="-20.75" font-family="Helvetica,sans-Serif" font-size="10.00">CGAL/Arr_batched_point</text>
<text text-anchor="middle" x="1875.12" y="-10.25" font-family="Helvetica,sans-Serif" font-size="10.00">_location.h</text>
</a>
</g>
</g>
<!-- Node1&#45;&gt;Node15 -->
<g id="edge14_Node000001_Node000015" class="edge">
<title>Node1&#45;&gt;Node15</title>
<g id="a_edge14_Node000001_Node000015"><a xlink:title=" ">
<path fill="none" stroke="#63b8ff" d="M1045.71,-84.17C1144.3,-85.4 1508.92,-86.32 1804.12,-39.5 1808.21,-38.85 1812.39,-38.07 1816.59,-37.19"/>
<polygon fill="#63b8ff" stroke="#63b8ff" points="1817.21,-40.64 1826.19,-35.03 1815.67,-33.81 1817.21,-40.64"/>
</a>
</g>
</g>
</g>
</svg>
