<?xml version="1.0" encoding="UTF-8" standalone="no"?>
<!DOCTYPE svg PUBLIC "-//W3C//DTD SVG 1.1//EN"
 "http://www.w3.org/Graphics/SVG/1.1/DTD/svg11.dtd">
<!-- Generated by graphviz version 10.0.1 (0)
 -->
<!-- Title: config.h Pages: 1 -->
<svg width="1328pt" height="102pt"
 viewBox="0.00 0.00 1328.12 102.00" xmlns="http://www.w3.org/2000/svg" xmlns:xlink="http://www.w3.org/1999/xlink">
<g id="graph0" class="graph" transform="scale(1 1) rotate(0) translate(4 98)">
<title>config.h</title>
<!-- Node1 -->
<g id="Node000001" class="node">
<title>Node1</title>
<g id="a_Node000001"><a xlink:title="Contains the configuration for the CGAL library.">
<polygon fill="#999999" stroke="#666666" points="754.38,-94 703.88,-94 703.88,-75.5 754.38,-75.5 754.38,-94"/>
<text text-anchor="middle" x="729.12" y="-80.5" font-family="Helvetica,sans-Serif" font-size="10.00">config.h</text>
</a>
</g>
</g>
<!-- Node2 -->
<g id="Node000002" class="node">
<title>Node2</title>
<g id="a_Node000002"><a xlink:title=" ">
<polygon fill="#e0e0e0" stroke="#999999" points="132.25,-29 0,-29 0,-10.5 132.25,-10.5 132.25,-29"/>
<text text-anchor="middle" x="66.12" y="-15.5" font-family="Helvetica,sans-Serif" font-size="10.00">CGAL/Arr_linear_traits_2.h</text>
</a>
</g>
</g>
<!-- Node1&#45;&gt;Node2 -->
<g id="edge1_Node000001_Node000002" class="edge">
<title>Node1&#45;&gt;Node2</title>
<g id="a_edge1_Node000001_Node000002"><a xlink:title=" ">
<path fill="none" stroke="#63b8ff" d="M703.44,-83.37C621.12,-81.82 356.64,-74.29 141.12,-39.5 129.91,-37.69 117.92,-35.03 106.89,-32.28"/>
<polygon fill="#63b8ff" stroke="#63b8ff" points="107.83,-28.91 97.28,-29.79 106.08,-35.68 107.83,-28.91"/>
</a>
</g>
</g>
<!-- Node3 -->
<g id="Node000003" class="node">
<title>Node3</title>
<g id="a_Node000003"><a xlink:title=" ">
<polygon fill="#e0e0e0" stroke="#999999" points="261.75,-34.25 150.5,-34.25 150.5,-5.25 261.75,-5.25 261.75,-34.25"/>
<text text-anchor="start" x="158.5" y="-20.75" font-family="Helvetica,sans-Serif" font-size="10.00">CGAL/Arr_walk_along</text>
<text text-anchor="middle" x="206.12" y="-10.25" font-family="Helvetica,sans-Serif" font-size="10.00">_line_point_location.h</text>
</a>
</g>
</g>
<!-- Node1&#45;&gt;Node3 -->
<g id="edge2_Node000001_Node000003" class="edge">
<title>Node1&#45;&gt;Node3</title>
<g id="a_edge2_Node000001_Node000003"><a xlink:title=" ">
<path fill="none" stroke="#63b8ff" d="M703.51,-82.97C633.49,-80.49 433.24,-70.96 270.12,-39.5 266.98,-38.89 263.77,-38.2 260.54,-37.44"/>
<polygon fill="#63b8ff" stroke="#63b8ff" points="261.6,-34.1 251.05,-35.04 259.88,-40.89 261.6,-34.1"/>
</a>
</g>
</g>
<!-- Node4 -->
<g id="Node000004" class="node">
<title>Node4</title>
<g id="a_Node000004"><a xlink:title=" ">
<polygon fill="#e0e0e0" stroke="#999999" points="398.88,-29 279.38,-29 279.38,-10.5 398.88,-10.5 398.88,-29"/>
<text text-anchor="middle" x="339.12" y="-15.5" font-family="Helvetica,sans-Serif" font-size="10.00">CGAL/Arrangement_2.h</text>
</a>
</g>
</g>
<!-- Node1&#45;&gt;Node4 -->
<g id="edge3_Node000001_Node000004" class="edge">
<title>Node1&#45;&gt;Node4</title>
<g id="a_edge3_Node000001_Node000004"><a xlink:title=" ">
<path fill="none" stroke="#63b8ff" d="M703.47,-81.39C648.67,-76.1 516.29,-61.95 407.12,-39.5 397.74,-37.57 387.75,-35.07 378.39,-32.53"/>
<polygon fill="#63b8ff" stroke="#63b8ff" points="379.41,-29.18 368.83,-29.85 377.52,-35.92 379.41,-29.18"/>
</a>
</g>
</g>
<!-- Node5 -->
<g id="Node000005" class="node">
<title>Node5</title>
<g id="a_Node000005"><a xlink:title=" ">
<polygon fill="#e0e0e0" stroke="#999999" points="579.62,-29 416.62,-29 416.62,-10.5 579.62,-10.5 579.62,-29"/>
<text text-anchor="middle" x="498.12" y="-15.5" font-family="Helvetica,sans-Serif" font-size="10.00">CGAL/Delaunay_triangulation_2.h</text>
</a>
</g>
</g>
<!-- Node1&#45;&gt;Node5 -->
<g id="edge4_Node000001_Node000005" class="edge">
<title>Node1&#45;&gt;Node5</title>
<g id="a_edge4_Node000001_Node000005"><a xlink:title=" ">
<path fill="none" stroke="#63b8ff" d="M703.52,-76.77C664.26,-66.06 588.74,-45.46 541.02,-32.45"/>
<polygon fill="#63b8ff" stroke="#63b8ff" points="542.15,-29.13 531.58,-29.87 540.3,-35.88 542.15,-29.13"/>
</a>
</g>
</g>
<!-- Node6 -->
<g id="Node000006" class="node">
<title>Node6</title>
<g id="a_Node000006"><a xlink:title=" ">
<polygon fill="#e0e0e0" stroke="#999999" points="718.25,-39.5 598,-39.5 598,0 718.25,0 718.25,-39.5"/>
<text text-anchor="start" x="606" y="-26" font-family="Helvetica,sans-Serif" font-size="10.00">CGAL/Exact_predicates</text>
<text text-anchor="start" x="606" y="-15.5" font-family="Helvetica,sans-Serif" font-size="10.00">_exact_constructions</text>
<text text-anchor="middle" x="658.12" y="-5" font-family="Helvetica,sans-Serif" font-size="10.00">_kernel.h</text>
</a>
</g>
</g>
<!-- Node1&#45;&gt;Node6 -->
<g id="edge5_Node000001_Node000006" class="edge">
<title>Node1&#45;&gt;Node6</title>
<g id="a_edge5_Node000001_Node000006"><a xlink:title=" ">
<path fill="none" stroke="#63b8ff" d="M719.55,-75.25C711.47,-68.08 699.44,-57.41 688.16,-47.41"/>
<polygon fill="#63b8ff" stroke="#63b8ff" points="690.7,-44.98 680.9,-40.96 686.06,-50.21 690.7,-44.98"/>
</a>
</g>
</g>
<!-- Node7 -->
<g id="Node000007" class="node">
<title>Node7</title>
<g id="a_Node000007"><a xlink:title=" ">
<polygon fill="#e0e0e0" stroke="#999999" points="864,-29 736.25,-29 736.25,-10.5 864,-10.5 864,-29"/>
<text text-anchor="middle" x="800.12" y="-15.5" font-family="Helvetica,sans-Serif" font-size="10.00">CGAL/Partition_traits_2.h</text>
</a>
</g>
</g>
<!-- Node1&#45;&gt;Node7 -->
<g id="edge6_Node000001_Node000007" class="edge">
<title>Node1&#45;&gt;Node7</title>
<g id="a_edge6_Node000001_Node000007"><a xlink:title=" ">
<path fill="none" stroke="#63b8ff" d="M738.7,-75.25C749.88,-65.34 768.6,-48.73 782.44,-36.44"/>
<polygon fill="#63b8ff" stroke="#63b8ff" points="784.41,-39.37 789.57,-30.12 779.77,-34.14 784.41,-39.37"/>
</a>
</g>
</g>
<!-- Node8 -->
<g id="Node000008" class="node">
<title>Node8</title>
<g id="a_Node000008"><a xlink:title=" ">
<polygon fill="#e0e0e0" stroke="#999999" points="1032.25,-29 882,-29 882,-10.5 1032.25,-10.5 1032.25,-29"/>
<text text-anchor="middle" x="957.12" y="-15.5" font-family="Helvetica,sans-Serif" font-size="10.00">CGAL/Polygon_with_holes_2.h</text>
</a>
</g>
</g>
<!-- Node1&#45;&gt;Node8 -->
<g id="edge7_Node000001_Node000008" class="edge">
<title>Node1&#45;&gt;Node8</title>
<g id="a_edge7_Node000001_Node000008"><a xlink:title=" ">
<path fill="none" stroke="#63b8ff" d="M754.84,-76.65C793.68,-65.91 867.75,-45.45 914.67,-32.48"/>
<polygon fill="#63b8ff" stroke="#63b8ff" points="915.52,-35.88 924.23,-29.84 913.66,-29.13 915.52,-35.88"/>
</a>
</g>
</g>
<!-- Node9 -->
<g id="Node000009" class="node">
<title>Node9</title>
<g id="a_Node000009"><a xlink:title=" ">
<polygon fill="#e0e0e0" stroke="#999999" points="1138.12,-29 1050.12,-29 1050.12,-10.5 1138.12,-10.5 1138.12,-29"/>
<text text-anchor="middle" x="1094.12" y="-15.5" font-family="Helvetica,sans-Serif" font-size="10.00">CGAL/centroid.h</text>
</a>
</g>
</g>
<!-- Node1&#45;&gt;Node9 -->
<g id="edge8_Node000001_Node000009" class="edge">
<title>Node1&#45;&gt;Node9</title>
<g id="a_edge8_Node000001_Node000009"><a xlink:title=" ">
<path fill="none" stroke="#63b8ff" d="M754.52,-81.87C808.12,-77.53 936.45,-65.17 1041.12,-39.5 1047.87,-37.85 1054.95,-35.67 1061.67,-33.38"/>
<polygon fill="#63b8ff" stroke="#63b8ff" points="1062.84,-36.67 1071.08,-30.01 1060.48,-30.08 1062.84,-36.67"/>
</a>
</g>
</g>
<!-- Node10 -->
<g id="Node000010" class="node">
<title>Node10</title>
<g id="a_Node000010"><a xlink:title=" ">
<polygon fill="#e0e0e0" stroke="#999999" points="1255.75,-29 1156.5,-29 1156.5,-10.5 1255.75,-10.5 1255.75,-29"/>
<text text-anchor="middle" x="1206.12" y="-15.5" font-family="Helvetica,sans-Serif" font-size="10.00">CGAL/partition_2.h</text>
</a>
</g>
</g>
<!-- Node1&#45;&gt;Node10 -->
<g id="edge9_Node000001_Node000010" class="edge">
<title>Node1&#45;&gt;Node10</title>
<g id="a_edge9_Node000001_Node000010"><a xlink:title=" ">
<path fill="none" stroke="#63b8ff" d="M754.85,-82.83C820.74,-80.1 1000.71,-70.19 1147.12,-39.5 1155.2,-37.81 1163.75,-35.44 1171.75,-32.96"/>
<polygon fill="#63b8ff" stroke="#63b8ff" points="1172.72,-36.32 1181.15,-29.9 1170.56,-29.67 1172.72,-36.32"/>
</a>
</g>
</g>
<!-- Node11 -->
<g id="Node000011" class="node">
<title>Node11</title>
<g id="a_Node000011"><a xlink:title=" ">
<polygon fill="#e0e0e0" stroke="#999999" points="1320.12,-29 1274.12,-29 1274.12,-10.5 1320.12,-10.5 1320.12,-29"/>
<text text-anchor="middle" x="1297.12" y="-15.5" font-family="Helvetica,sans-Serif" font-size="10.00">iterator</text>
</a>
</g>
</g>
<!-- Node1&#45;&gt;Node11 -->
<g id="edge10_Node000001_Node000011" class="edge">
<title>Node1&#45;&gt;Node11</title>
<g id="a_edge10_Node000001_Node000011"><a xlink:title=" ">
<path fill="none" stroke="#63b8ff" d="M754.63,-83.14C847.63,-80.7 1168.08,-70.18 1265.12,-39.5 1268.57,-38.41 1272.05,-36.89 1275.38,-35.19"/>
<polygon fill="#63b8ff" stroke="#63b8ff" points="1277.09,-38.25 1283.96,-30.18 1273.56,-32.2 1277.09,-38.25"/>
</a>
</g>
</g>
</g>
</svg>
