<?xml version="1.0" encoding="UTF-8" standalone="no"?>
<!DOCTYPE svg PUBLIC "-//W3C//DTD SVG 1.1//EN"
 "http://www.w3.org/Graphics/SVG/1.1/DTD/svg11.dtd">
<!-- Generated by graphviz version 10.0.1 (0)
 -->
<!-- Title: config.h Pages: 1 -->
<svg width="258pt" height="136pt"
 viewBox="0.00 0.00 257.62 135.50" xmlns="http://www.w3.org/2000/svg" xmlns:xlink="http://www.w3.org/1999/xlink">
<g id="graph0" class="graph" transform="scale(1 1) rotate(0) translate(4 131.5)">
<title>config.h</title>
<!-- Node1 -->
<g id="Node000001" class="node">
<title>Node1</title>
<g id="a_Node000001"><a xlink:title="Contains the configuration for the CGAL library.">
<polygon fill="#999999" stroke="#666666" points="146.75,-127.5 96.25,-127.5 96.25,-109 146.75,-109 146.75,-127.5"/>
<text text-anchor="middle" x="121.5" y="-114" font-family="Helvetica,sans-Serif" font-size="10.00">config.h</text>
</a>
</g>
</g>
<!-- Node2 -->
<g id="Node000002" class="node">
<title>Node2</title>
<g id="a_Node000002"><a xlink:href="polygon__utils_8cpp.html" target="_top" xlink:title="Helper functions for polygon operations using CGAL.">
<polygon fill="white" stroke="#666666" points="91,-18.5 0,-18.5 0,0 91,0 91,-18.5"/>
<text text-anchor="middle" x="45.5" y="-5" font-family="Helvetica,sans-Serif" font-size="10.00">polygon_utils.cpp</text>
</a>
</g>
</g>
<!-- Node1&#45;&gt;Node2 -->
<g id="edge1_Node000001_Node000002" class="edge">
<title>Node1&#45;&gt;Node2</title>
<g id="a_edge1_Node000001_Node000002"><a xlink:title=" ">
<path fill="none" stroke="#63b8ff" d="M91.09,-103.35C78.47,-96.07 64.86,-85.94 56.5,-73 45.58,-56.09 44.63,-31.51 44.99,-18.71"/>
<polygon fill="#63b8ff" stroke="#63b8ff" points="89.07,-106.24 99.54,-107.87 92.37,-100.07 89.07,-106.24"/>
</a>
</g>
</g>
<!-- Node3 -->
<g id="Node000003" class="node">
<title>Node3</title>
<g id="a_Node000003"><a xlink:href="utilities_8h.html" target="_top" xlink:title="Contains utility functions for CGAL.">
<polygon fill="white" stroke="#666666" points="121,-73 66,-73 66,-54.5 121,-54.5 121,-73"/>
<text text-anchor="middle" x="93.5" y="-59.5" font-family="Helvetica,sans-Serif" font-size="10.00">utilities.h</text>
</a>
</g>
</g>
<!-- Node1&#45;&gt;Node3 -->
<g id="edge2_Node000001_Node000003" class="edge">
<title>Node1&#45;&gt;Node3</title>
<g id="a_edge2_Node000001_Node000003"><a xlink:title=" ">
<path fill="none" stroke="#63b8ff" d="M111.55,-98.59C106.93,-89.94 101.68,-80.09 98.04,-73.26"/>
<polygon fill="#63b8ff" stroke="#63b8ff" points="108.37,-100.07 116.16,-107.25 114.55,-96.77 108.37,-100.07"/>
</a>
</g>
</g>
<!-- Node4 -->
<g id="Node000004" class="node">
<title>Node4</title>
<g id="a_Node000004"><a xlink:href="voronoi_8cpp.html" target="_top" xlink:title="Functions to compute Centroidal Voronoi Tessellation.">
<polygon fill="white" stroke="#666666" points="178.25,-18.5 112.75,-18.5 112.75,0 178.25,0 178.25,-18.5"/>
<text text-anchor="middle" x="145.5" y="-5" font-family="Helvetica,sans-Serif" font-size="10.00">voronoi.cpp</text>
</a>
</g>
</g>
<!-- Node1&#45;&gt;Node4 -->
<g id="edge5_Node000001_Node000004" class="edge">
<title>Node1&#45;&gt;Node4</title>
<g id="a_edge5_Node000001_Node000004"><a xlink:title=" ">
<path fill="none" stroke="#63b8ff" d="M125.84,-97.88C131.1,-74.44 139.73,-35.99 143.56,-18.9"/>
<polygon fill="#63b8ff" stroke="#63b8ff" points="122.49,-96.85 123.71,-107.38 129.32,-98.39 122.49,-96.85"/>
</a>
</g>
</g>
<!-- Node5 -->
<g id="Node000005" class="node">
<title>Node5</title>
<g id="a_Node000005"><a xlink:href="world__idf_8cpp.html" target="_top" xlink:title="Contains the implementation of the WorldIDF class.">
<polygon fill="white" stroke="#666666" points="249.62,-73 177.38,-73 177.38,-54.5 249.62,-54.5 249.62,-73"/>
<text text-anchor="middle" x="213.5" y="-59.5" font-family="Helvetica,sans-Serif" font-size="10.00">world_idf.cpp</text>
</a>
</g>
</g>
<!-- Node1&#45;&gt;Node5 -->
<g id="edge6_Node000001_Node000005" class="edge">
<title>Node1&#45;&gt;Node5</title>
<g id="a_edge6_Node000001_Node000005"><a xlink:title=" ">
<path fill="none" stroke="#63b8ff" d="M146.3,-103.1C162.88,-93.64 184.16,-81.49 198.29,-73.43"/>
<polygon fill="#63b8ff" stroke="#63b8ff" points="144.96,-99.83 138.01,-107.83 148.43,-105.91 144.96,-99.83"/>
</a>
</g>
</g>
<!-- Node3&#45;&gt;Node2 -->
<g id="edge3_Node000003_Node000002" class="edge">
<title>Node3&#45;&gt;Node2</title>
<g id="a_edge3_Node000003_Node000002"><a xlink:title=" ">
<path fill="none" stroke="#63b8ff" d="M78,-45.8C69.74,-36.77 59.94,-26.05 53.28,-18.76"/>
<polygon fill="#63b8ff" stroke="#63b8ff" points="75.22,-47.95 84.55,-52.96 80.39,-43.22 75.22,-47.95"/>
</a>
</g>
</g>
<!-- Node3&#45;&gt;Node4 -->
<g id="edge4_Node000003_Node000004" class="edge">
<title>Node3&#45;&gt;Node4</title>
<g id="a_edge4_Node000003_Node000004"><a xlink:title=" ">
<path fill="none" stroke="#63b8ff" d="M110.01,-46.08C119.01,-36.99 129.78,-26.12 137.07,-18.76"/>
<polygon fill="#63b8ff" stroke="#63b8ff" points="107.7,-43.44 103.15,-53.01 112.68,-48.36 107.7,-43.44"/>
</a>
</g>
</g>
</g>
</svg>
