<?xml version="1.0" encoding="UTF-8" standalone="no"?>
<!DOCTYPE svg PUBLIC "-//W3C//DTD SVG 1.1//EN"
 "http://www.w3.org/Graphics/SVG/1.1/DTD/svg11.dtd">
<!-- Generated by graphviz version 10.0.1 (0)
 -->
<!-- Title: config.h Pages: 1 -->
<!--zoomable 102 -->

<svg id="main" version="1.1" xmlns="http://www.w3.org/2000/svg" xmlns:xlink="http://www.w3.org/1999/xlink" xml:space="preserve" onload="init(evt)">
<style type="text/css"><![CDATA[
.node, .edge {opacity: 0.7;}
.node.selected, .edge.selected {opacity: 1;}
.edge:hover path { stroke: red; }
.edge:hover polygon { stroke: red; fill: red; }
]]></style>

<defs>
  <circle id="rim" cx="0" cy="0" r="7"/>
  <circle id="rim2" cx="0" cy="0" r="3.5"/>
  <g id="zoomPlus">
    <use xlink:href="#rim" fill="#404040"><set attributeName="fill" to="#808080" begin="zoomplus.mouseover" end="zoomplus.mouseout"/></use>
    <path d="M-4,0h8M0,-4v8" fill="none" stroke="white" stroke-width="1.5" pointer-events="none"/>
  </g>
  <g id="zoomMin">
    <use xlink:href="#rim" fill="#404040"><set attributeName="fill" to="#808080" begin="zoomminus.mouseover" end="zoomminus.mouseout"/></use>
    <path d="M-4,0h8" fill="none" stroke="white" stroke-width="1.5" pointer-events="none"/>
  </g>
  <g id="arrowUp" transform="translate(30 24)">
    <use xlink:href="#rim"/>
    <path pointer-events="none" fill="none" stroke="white" stroke-width="1.5" d="M0,-3.0v7 M-2.5,-0.5L0,-3.0L2.5,-0.5"/>
  </g>
  <g id="arrowRight" transform="rotate(90) translate(36 -43)">
    <use xlink:href="#rim"/>
    <path pointer-events="none" fill="none" stroke="white" stroke-width="1.5" d="M0,-3.0v7 M-2.5,-0.5L0,-3.0L2.5,-0.5"/>
  </g>
  <g id="arrowDown" transform="rotate(180) translate(-30 -48)">
    <use xlink:href="#rim"/>
    <path pointer-events="none" fill="none" stroke="white" stroke-width="1.5" d="M0,-3.0v7 M-2.5,-0.5L0,-3.0L2.5,-0.5"/>
  </g>
  <g id="arrowLeft" transform="rotate(270) translate(-36 17)">
    <use xlink:href="#rim"/>
    <path pointer-events="none" fill="none" stroke="white" stroke-width="1.5" d="M0,-3.0v7 M-2.5,-0.5L0,-3.0L2.5,-0.5"/>
  </g>
  <g id="resetDef">
    <use xlink:href="#rim2" fill="#404040"><set attributeName="fill" to="#808080" begin="reset.mouseover" end="reset.mouseout"/></use>
  </g>
</defs>
<script type="application/ecmascript">
var viewWidth = 1854;
var viewHeight = 102;
var sectionId = 'dynsection-0';
</script>
<script type="application/ecmascript" xlink:href="svg.min.js"/>
<svg id="graph" class="graph">
<g id="viewport">
<title>config.h</title>
<!-- Node1 -->
<g id="Node000001" class="node">
<title>Node1</title>
<g id="a_Node000001"><a xlink:title="Contains the configuration for the CGAL library.">
<polygon fill="#999999" stroke="#666666" points="1051.38,-94 1000.88,-94 1000.88,-75.5 1051.38,-75.5 1051.38,-94"/>
<text text-anchor="middle" x="1026.12" y="-80.5" font-family="Helvetica,sans-Serif" font-size="10.00">config.h</text>
</a>
</g>
</g>
<!-- Node2 -->
<g id="Node000002" class="node">
<title>Node2</title>
<g id="a_Node000002"><a xlink:title=" ">
<polygon fill="#e0e0e0" stroke="#999999" points="132.25,-29 0,-29 0,-10.5 132.25,-10.5 132.25,-29"/>
<text text-anchor="middle" x="66.12" y="-15.5" font-family="Helvetica,sans-Serif" font-size="10.00">CGAL/Arr_linear_traits_2.h</text>
</a>
</g>
</g>
<!-- Node1&#45;&gt;Node2 -->
<g id="edge1_Node000001_Node000002" class="edge">
<title>Node1&#45;&gt;Node2</title>
<g id="a_edge1_Node000001_Node000002"><a xlink:title=" ">
<path fill="none" stroke="#63b8ff" d="M1000.44,-83.14C873.63,-80.04 313.46,-65.1 141.12,-39.5 129.67,-37.8 117.43,-35.12 106.22,-32.31"/>
<polygon fill="#63b8ff" stroke="#63b8ff" points="107.45,-29.01 96.89,-29.87 105.68,-35.78 107.45,-29.01"/>
</a>
</g>
</g>
<!-- Node3 -->
<g id="Node000003" class="node">
<title>Node3</title>
<g id="a_Node000003"><a xlink:title=" ">
<polygon fill="#e0e0e0" stroke="#999999" points="261.75,-34.25 150.5,-34.25 150.5,-5.25 261.75,-5.25 261.75,-34.25"/>
<text text-anchor="start" x="158.5" y="-20.75" font-family="Helvetica,sans-Serif" font-size="10.00">CGAL/Arr_walk_along</text>
<text text-anchor="middle" x="206.12" y="-10.25" font-family="Helvetica,sans-Serif" font-size="10.00">_line_point_location.h</text>
</a>
</g>
</g>
<!-- Node1&#45;&gt;Node3 -->
<g id="edge2_Node000001_Node000003" class="edge">
<title>Node1&#45;&gt;Node3</title>
<g id="a_edge2_Node000001_Node000003"><a xlink:title=" ">
<path fill="none" stroke="#63b8ff" d="M1000.44,-83.03C885.21,-79.67 415.21,-64.66 270.12,-39.5 266.75,-38.92 263.31,-38.22 259.85,-37.44"/>
<polygon fill="#63b8ff" stroke="#63b8ff" points="260.86,-34.08 250.31,-35.08 259.18,-40.88 260.86,-34.08"/>
</a>
</g>
</g>
<!-- Node4 -->
<g id="Node000004" class="node">
<title>Node4</title>
<g id="a_Node000004"><a xlink:title=" ">
<polygon fill="#e0e0e0" stroke="#999999" points="398.88,-29 279.38,-29 279.38,-10.5 398.88,-10.5 398.88,-29"/>
<text text-anchor="middle" x="339.12" y="-15.5" font-family="Helvetica,sans-Serif" font-size="10.00">CGAL/Arrangement_2.h</text>
</a>
</g>
</g>
<!-- Node1&#45;&gt;Node4 -->
<g id="edge3_Node000001_Node000004" class="edge">
<title>Node1&#45;&gt;Node4</title>
<g id="a_edge3_Node000001_Node000004"><a xlink:title=" ">
<path fill="none" stroke="#63b8ff" d="M1000.55,-83.72C915.55,-83.26 634.89,-78.65 407.12,-39.5 397.24,-37.8 386.71,-35.27 376.97,-32.61"/>
<polygon fill="#63b8ff" stroke="#63b8ff" points="378.01,-29.27 367.44,-29.89 376.09,-36 378.01,-29.27"/>
</a>
</g>
</g>
<!-- Node5 -->
<g id="Node000005" class="node">
<title>Node5</title>
<g id="a_Node000005"><a xlink:title=" ">
<polygon fill="#e0e0e0" stroke="#999999" points="579.62,-29 416.62,-29 416.62,-10.5 579.62,-10.5 579.62,-29"/>
<text text-anchor="middle" x="498.12" y="-15.5" font-family="Helvetica,sans-Serif" font-size="10.00">CGAL/Delaunay_triangulation_2.h</text>
</a>
</g>
</g>
<!-- Node1&#45;&gt;Node5 -->
<g id="edge4_Node000001_Node000005" class="edge">
<title>Node1&#45;&gt;Node5</title>
<g id="a_edge4_Node000001_Node000005"><a xlink:title=" ">
<path fill="none" stroke="#63b8ff" d="M1000.4,-82.07C932.75,-77.45 744.4,-63.29 589.12,-39.5 575.42,-37.4 560.67,-34.6 547.11,-31.8"/>
<polygon fill="#63b8ff" stroke="#63b8ff" points="548.03,-28.42 537.53,-29.78 546.59,-35.27 548.03,-28.42"/>
</a>
</g>
</g>
<!-- Node6 -->
<g id="Node000006" class="node">
<title>Node6</title>
<g id="a_Node000006"><a xlink:title=" ">
<polygon fill="#e0e0e0" stroke="#999999" points="718.25,-39.5 598,-39.5 598,0 718.25,0 718.25,-39.5"/>
<text text-anchor="start" x="606" y="-26" font-family="Helvetica,sans-Serif" font-size="10.00">CGAL/Exact_predicates</text>
<text text-anchor="start" x="606" y="-15.5" font-family="Helvetica,sans-Serif" font-size="10.00">_exact_constructions</text>
<text text-anchor="middle" x="658.12" y="-5" font-family="Helvetica,sans-Serif" font-size="10.00">_kernel.h</text>
</a>
</g>
</g>
<!-- Node1&#45;&gt;Node6 -->
<g id="edge5_Node000001_Node000006" class="edge">
<title>Node1&#45;&gt;Node6</title>
<g id="a_edge5_Node000001_Node000006"><a xlink:title=" ">
<path fill="none" stroke="#63b8ff" d="M1000.74,-81.02C950.73,-75.43 835.76,-61.49 729.82,-39.94"/>
<polygon fill="#63b8ff" stroke="#63b8ff" points="730.59,-36.52 720.09,-37.93 729.18,-43.38 730.59,-36.52"/>
</a>
</g>
</g>
<!-- Node7 -->
<g id="Node000007" class="node">
<title>Node7</title>
<g id="a_Node000007"><a xlink:title=" ">
<polygon fill="#e0e0e0" stroke="#999999" points="864,-29 736.25,-29 736.25,-10.5 864,-10.5 864,-29"/>
<text text-anchor="middle" x="800.12" y="-15.5" font-family="Helvetica,sans-Serif" font-size="10.00">CGAL/Partition_traits_2.h</text>
</a>
</g>
</g>
<!-- Node1&#45;&gt;Node7 -->
<g id="edge6_Node000001_Node000007" class="edge">
<title>Node1&#45;&gt;Node7</title>
<g id="a_edge6_Node000001_Node000007"><a xlink:title=" ">
<path fill="none" stroke="#63b8ff" d="M1000.64,-76.65C962.14,-65.91 888.72,-45.45 842.21,-32.48"/>
<polygon fill="#63b8ff" stroke="#63b8ff" points="843.32,-29.16 832.74,-29.84 841.44,-35.9 843.32,-29.16"/>
</a>
</g>
</g>
<!-- Node8 -->
<g id="Node000008" class="node">
<title>Node8</title>
<g id="a_Node000008"><a xlink:title=" ">
<polygon fill="#e0e0e0" stroke="#999999" points="1032.25,-29 882,-29 882,-10.5 1032.25,-10.5 1032.25,-29"/>
<text text-anchor="middle" x="957.12" y="-15.5" font-family="Helvetica,sans-Serif" font-size="10.00">CGAL/Polygon_with_holes_2.h</text>
</a>
</g>
</g>
<!-- Node1&#45;&gt;Node8 -->
<g id="edge7_Node000001_Node000008" class="edge">
<title>Node1&#45;&gt;Node8</title>
<g id="a_edge7_Node000001_Node000008"><a xlink:title=" ">
<path fill="none" stroke="#63b8ff" d="M1016.82,-75.25C1006.06,-65.43 988.11,-49.04 974.7,-36.8"/>
<polygon fill="#63b8ff" stroke="#63b8ff" points="977.15,-34.29 967.4,-30.13 972.43,-39.46 977.15,-34.29"/>
</a>
</g>
</g>
<!-- Node9 -->
<g id="Node000009" class="node">
<title>Node9</title>
<g id="a_Node000009"><a xlink:title=" ">
<polygon fill="#e0e0e0" stroke="#999999" points="1139.88,-29 1050.38,-29 1050.38,-10.5 1139.88,-10.5 1139.88,-29"/>
<text text-anchor="middle" x="1095.12" y="-15.5" font-family="Helvetica,sans-Serif" font-size="10.00">CGAL/Random.h</text>
</a>
</g>
</g>
<!-- Node1&#45;&gt;Node9 -->
<g id="edge8_Node000001_Node000009" class="edge">
<title>Node1&#45;&gt;Node9</title>
<g id="a_edge8_Node000001_Node000009"><a xlink:title=" ">
<path fill="none" stroke="#63b8ff" d="M1035.43,-75.25C1046.19,-65.43 1064.14,-49.04 1077.55,-36.8"/>
<polygon fill="#63b8ff" stroke="#63b8ff" points="1079.82,-39.46 1084.85,-30.13 1075.1,-34.29 1079.82,-39.46"/>
</a>
</g>
</g>
<!-- Node10 -->
<g id="Node000010" class="node">
<title>Node10</title>
<g id="a_Node000010"><a xlink:title=" ">
<polygon fill="#e0e0e0" stroke="#999999" points="1250.75,-29 1157.5,-29 1157.5,-10.5 1250.75,-10.5 1250.75,-29"/>
<text text-anchor="middle" x="1204.12" y="-15.5" font-family="Helvetica,sans-Serif" font-size="10.00">CGAL/algorithm.h</text>
</a>
</g>
</g>
<!-- Node1&#45;&gt;Node10 -->
<g id="edge9_Node000001_Node000010" class="edge">
<title>Node1&#45;&gt;Node10</title>
<g id="a_edge9_Node000001_Node000010"><a xlink:title=" ">
<path fill="none" stroke="#63b8ff" d="M1050.5,-75.12C1081.09,-64.3 1133.77,-45.65 1168.78,-33.26"/>
<polygon fill="#63b8ff" stroke="#63b8ff" points="1169.79,-36.62 1178.04,-29.98 1167.45,-30.02 1169.79,-36.62"/>
</a>
</g>
</g>
<!-- Node11 -->
<g id="Node000011" class="node">
<title>Node11</title>
<g id="a_Node000011"><a xlink:title=" ">
<polygon fill="#e0e0e0" stroke="#999999" points="1357.12,-29 1269.12,-29 1269.12,-10.5 1357.12,-10.5 1357.12,-29"/>
<text text-anchor="middle" x="1313.12" y="-15.5" font-family="Helvetica,sans-Serif" font-size="10.00">CGAL/centroid.h</text>
</a>
</g>
</g>
<!-- Node1&#45;&gt;Node11 -->
<g id="edge10_Node000001_Node000011" class="edge">
<title>Node1&#45;&gt;Node11</title>
<g id="a_edge10_Node000001_Node000011"><a xlink:title=" ">
<path fill="none" stroke="#63b8ff" d="M1051.69,-80.23C1095.03,-73.97 1185.48,-59.63 1260.12,-39.5 1266.71,-37.73 1273.64,-35.52 1280.24,-33.26"/>
<polygon fill="#63b8ff" stroke="#63b8ff" points="1281.26,-36.62 1289.5,-29.96 1278.91,-30.02 1281.26,-36.62"/>
</a>
</g>
</g>
<!-- Node12 -->
<g id="Node000012" class="node">
<title>Node12</title>
<g id="a_Node000012"><a xlink:title=" ">
<polygon fill="#e0e0e0" stroke="#999999" points="1474.75,-29 1375.5,-29 1375.5,-10.5 1474.75,-10.5 1474.75,-29"/>
<text text-anchor="middle" x="1425.12" y="-15.5" font-family="Helvetica,sans-Serif" font-size="10.00">CGAL/partition_2.h</text>
</a>
</g>
</g>
<!-- Node1&#45;&gt;Node12 -->
<g id="edge11_Node000001_Node000012" class="edge">
<title>Node1&#45;&gt;Node12</title>
<g id="a_edge11_Node000001_Node000012"><a xlink:title=" ">
<path fill="none" stroke="#63b8ff" d="M1051.56,-82C1108.47,-77.74 1250.2,-65.25 1366.12,-39.5 1374.04,-37.74 1382.42,-35.39 1390.29,-32.95"/>
<polygon fill="#63b8ff" stroke="#63b8ff" points="1391.11,-36.36 1399.55,-29.96 1388.96,-29.7 1391.11,-36.36"/>
</a>
</g>
</g>
<!-- Node13 -->
<g id="Node000013" class="node">
<title>Node13</title>
<g id="a_Node000013"><a xlink:title=" ">
<polygon fill="#e0e0e0" stroke="#999999" points="1629.5,-29 1492.75,-29 1492.75,-10.5 1629.5,-10.5 1629.5,-29"/>
<text text-anchor="middle" x="1561.12" y="-15.5" font-family="Helvetica,sans-Serif" font-size="10.00">CGAL/point_generators_2.h</text>
</a>
</g>
</g>
<!-- Node1&#45;&gt;Node13 -->
<g id="edge12_Node000001_Node000013" class="edge">
<title>Node1&#45;&gt;Node13</title>
<g id="a_edge12_Node000001_Node000013"><a xlink:title=" ">
<path fill="none" stroke="#63b8ff" d="M1051.87,-82.55C1121.78,-79.02 1320.88,-67.12 1484.12,-39.5 1495.52,-37.57 1507.73,-34.89 1518.99,-32.16"/>
<polygon fill="#63b8ff" stroke="#63b8ff" points="1519.55,-35.63 1528.4,-29.8 1517.85,-28.84 1519.55,-35.63"/>
</a>
</g>
</g>
<!-- Node14 -->
<g id="Node000014" class="node">
<title>Node14</title>
<g id="a_Node000014"><a xlink:title=" ">
<polygon fill="#e0e0e0" stroke="#999999" points="1782.38,-29 1647.88,-29 1647.88,-10.5 1782.38,-10.5 1782.38,-29"/>
<text text-anchor="middle" x="1715.12" y="-15.5" font-family="Helvetica,sans-Serif" font-size="10.00">CGAL/random_polygon_2.h</text>
</a>
</g>
</g>
<!-- Node1&#45;&gt;Node14 -->
<g id="edge13_Node000001_Node000014" class="edge">
<title>Node1&#45;&gt;Node14</title>
<g id="a_edge13_Node000001_Node000014"><a xlink:title=" ">
<path fill="none" stroke="#63b8ff" d="M1051.66,-83.42C1135.92,-82.02 1412.64,-74.85 1638.12,-39.5 1649.75,-37.68 1662.19,-34.98 1673.62,-32.2"/>
<polygon fill="#63b8ff" stroke="#63b8ff" points="1674.33,-35.63 1683.17,-29.79 1672.62,-28.84 1674.33,-35.63"/>
</a>
</g>
</g>
<!-- Node15 -->
<g id="Node000015" class="node">
<title>Node15</title>
<g id="a_Node000015"><a xlink:title=" ">
<polygon fill="#e0e0e0" stroke="#999999" points="1846.12,-29 1800.12,-29 1800.12,-10.5 1846.12,-10.5 1846.12,-29"/>
<text text-anchor="middle" x="1823.12" y="-15.5" font-family="Helvetica,sans-Serif" font-size="10.00">iterator</text>
</a>
</g>
</g>
<!-- Node1&#45;&gt;Node15 -->
<g id="edge14_Node000001_Node000015" class="edge">
<title>Node1&#45;&gt;Node15</title>
<g id="a_edge14_Node000001_Node000015"><a xlink:title=" ">
<path fill="none" stroke="#63b8ff" d="M1051.53,-83.87C1167.63,-84.18 1648.2,-82.76 1791.12,-39.5 1794.59,-38.45 1798.07,-36.96 1801.4,-35.27"/>
<polygon fill="#63b8ff" stroke="#63b8ff" points="1803.12,-38.32 1809.99,-30.26 1799.59,-32.28 1803.12,-38.32"/>
</a>
</g>
</g>
</g>
</svg>

<g id="navigator" transform="translate(0 0)" fill="#404254">
  <rect fill="#f2f5e9" fill-opacity="0.5" stroke="#606060" stroke-width=".5" x="0" y="0" width="60" height="60"/>
  <use id="zoomplus" xlink:href="#zoomPlus" x="17" y="9" onmousedown="handleZoom(evt,'in')"/>
  <use id="zoomminus" xlink:href="#zoomMin" x="42" y="9" onmousedown="handleZoom(evt,'out')"/>
  <use id="reset" xlink:href="#resetDef" x="30" y="36" onmousedown="handleReset()"/>
   <use id="arrowup" xlink:href="#arrowUp" x="0" y="0" onmousedown="handlePan(0,-1)"/>
  <use id="arrowright" xlink:href="#arrowRight" x="0" y="0" onmousedown="handlePan(1,0)"/>
  <use id="arrowdown" xlink:href="#arrowDown" x="0" y="0" onmousedown="handlePan(0,1)"/>
  <use id="arrowleft" xlink:href="#arrowLeft" x="0" y="0" onmousedown="handlePan(-1,0)"/>
</g>
<svg viewBox="0 0 15 15" width="100%" height="30px" preserveAspectRatio="xMaxYMin meet">
 <g id="arrow_out" transform="scale(0.3 0.3)">
  <a xlink:href="config_8h__incl_org.svg" target="_base">
   <rect id="button" ry="5" rx="5" y="6" x="6" height="38" width="38"
        fill="#f2f5e9" fill-opacity="0.5" stroke="#606060" stroke-width="1.0"/>
   <path id="arrow"
     d="M 11.500037,31.436501 C 11.940474,20.09759 22.043105,11.32322 32.158766,21.979434 L 37.068811,17.246167 C 37.068811,17.246167 37.088388,32 37.088388,32 L 22.160133,31.978069 C 22.160133,31.978069 26.997745,27.140456 26.997745,27.140456 C 18.528582,18.264221 13.291696,25.230495 11.500037,31.436501 z"
     style="fill:#404040;"/>
  </a>
 </g>
</svg>

<style type='text/css'>
<![CDATA[
[data-mouse-over-selected='false'] { opacity: 0.7; }
[data-mouse-over-selected='true']  { opacity: 1.0; }
]]>
</style>
<script type="application/ecmascript"><![CDATA[
document.addEventListener('DOMContentLoaded', (event) => {
  highlightEdges();
  highlightAdjacentNodes();
});
]]></script>
</svg>
