<?xml version="1.0" encoding="UTF-8" standalone="no"?>
<!DOCTYPE svg PUBLIC "-//W3C//DTD SVG 1.1//EN"
 "http://www.w3.org/Graphics/SVG/1.1/DTD/svg11.dtd">
<!-- Generated by graphviz version 10.0.1 (0)
 -->
<!-- Title: constants.h Pages: 1 -->
<!--zoomable 419 -->

<svg id="main" version="1.1" xmlns="http://www.w3.org/2000/svg" xmlns:xlink="http://www.w3.org/1999/xlink" xml:space="preserve" onload="init(evt)">
<style type="text/css"><![CDATA[
.node, .edge {opacity: 0.7;}
.node.selected, .edge.selected {opacity: 1;}
.edge:hover path { stroke: red; }
.edge:hover polygon { stroke: red; fill: red; }
]]></style>

<defs>
  <circle id="rim" cx="0" cy="0" r="7"/>
  <circle id="rim2" cx="0" cy="0" r="3.5"/>
  <g id="zoomPlus">
    <use xlink:href="#rim" fill="#404040"><set attributeName="fill" to="#808080" begin="zoomplus.mouseover" end="zoomplus.mouseout"/></use>
    <path d="M-4,0h8M0,-4v8" fill="none" stroke="white" stroke-width="1.5" pointer-events="none"/>
  </g>
  <g id="zoomMin">
    <use xlink:href="#rim" fill="#404040"><set attributeName="fill" to="#808080" begin="zoomminus.mouseover" end="zoomminus.mouseout"/></use>
    <path d="M-4,0h8" fill="none" stroke="white" stroke-width="1.5" pointer-events="none"/>
  </g>
  <g id="arrowUp" transform="translate(30 24)">
    <use xlink:href="#rim"/>
    <path pointer-events="none" fill="none" stroke="white" stroke-width="1.5" d="M0,-3.0v7 M-2.5,-0.5L0,-3.0L2.5,-0.5"/>
  </g>
  <g id="arrowRight" transform="rotate(90) translate(36 -43)">
    <use xlink:href="#rim"/>
    <path pointer-events="none" fill="none" stroke="white" stroke-width="1.5" d="M0,-3.0v7 M-2.5,-0.5L0,-3.0L2.5,-0.5"/>
  </g>
  <g id="arrowDown" transform="rotate(180) translate(-30 -48)">
    <use xlink:href="#rim"/>
    <path pointer-events="none" fill="none" stroke="white" stroke-width="1.5" d="M0,-3.0v7 M-2.5,-0.5L0,-3.0L2.5,-0.5"/>
  </g>
  <g id="arrowLeft" transform="rotate(270) translate(-36 17)">
    <use xlink:href="#rim"/>
    <path pointer-events="none" fill="none" stroke="white" stroke-width="1.5" d="M0,-3.0v7 M-2.5,-0.5L0,-3.0L2.5,-0.5"/>
  </g>
  <g id="resetDef">
    <use xlink:href="#rim2" fill="#404040"><set attributeName="fill" to="#808080" begin="reset.mouseover" end="reset.mouseout"/></use>
  </g>
</defs>
<script type="application/ecmascript">
var viewWidth = 1129;
var viewHeight = 419;
var sectionId = 'dynsection-1';
</script>
<script type="application/ecmascript" xlink:href="svg.min.js"/>
<svg id="graph" class="graph">
<g id="viewport">
<title>constants.h</title>
<!-- Node1 -->
<g id="Node000001" class="node">
<title>Node1</title>
<g id="a_Node000001"><a xlink:title="Constants for the CoverageControl library.">
<polygon fill="#999999" stroke="#666666" points="512.62,-410.5 445.62,-410.5 445.62,-392 512.62,-392 512.62,-410.5"/>
<text text-anchor="middle" x="479.12" y="-397" font-family="Helvetica,sans-Serif" font-size="10.00">constants.h</text>
</a>
</g>
</g>
<!-- Node2 -->
<g id="Node000002" class="node">
<title>Node2</title>
<g id="a_Node000002"><a xlink:href="bivariate__normal__distribution_8h.html" target="_top" xlink:title="Class for Bivariate Normal Distribution.">
<polygon fill="white" stroke="#666666" points="412.75,-356 265.5,-356 265.5,-337.5 412.75,-337.5 412.75,-356"/>
<text text-anchor="middle" x="339.12" y="-342.5" font-family="Helvetica,sans-Serif" font-size="10.00">bivariate_normal_distribution.h</text>
</a>
</g>
</g>
<!-- Node1&#45;&gt;Node2 -->
<g id="edge1_Node000001_Node000002" class="edge">
<title>Node1&#45;&gt;Node2</title>
<g id="a_edge1_Node000001_Node000002"><a xlink:title=" ">
<path fill="none" stroke="#63b8ff" d="M445.25,-387.55C419.55,-377.91 384.89,-364.91 362.28,-356.43"/>
<polygon fill="#63b8ff" stroke="#63b8ff" points="444,-390.82 454.59,-391.05 446.46,-384.26 444,-390.82"/>
</a>
</g>
</g>
<!-- Node3 -->
<g id="Node000003" class="node">
<title>Node3</title>
<g id="a_Node000003"><a xlink:href="coverage__system_8h.html" target="_top" xlink:title="The file contains the CoverageSystem class, which is the main class for the coverage control library.">
<polygon fill="white" stroke="#666666" points="579.75,-192.5 480.5,-192.5 480.5,-174 579.75,-174 579.75,-192.5"/>
<text text-anchor="middle" x="530.12" y="-179" font-family="Helvetica,sans-Serif" font-size="10.00">coverage_system.h</text>
</a>
</g>
</g>
<!-- Node1&#45;&gt;Node3 -->
<g id="edge27_Node000001_Node000003" class="edge">
<title>Node1&#45;&gt;Node3</title>
<g id="a_edge27_Node000001_Node000003"><a xlink:title=" ">
<path fill="none" stroke="#63b8ff" d="M470.24,-381.22C456.11,-347.97 432.79,-278.11 460.12,-228.5 469.63,-211.25 489.01,-199.79 504.97,-192.86"/>
<polygon fill="#63b8ff" stroke="#63b8ff" points="467.03,-382.62 474.3,-390.33 473.42,-379.77 467.03,-382.62"/>
</a>
</g>
</g>
<!-- Node14 -->
<g id="Node000014" class="node">
<title>Node14</title>
<g id="a_Node000014"><a xlink:href="world__idf_8h.html" target="_top" xlink:title="Contains the class for Importance Density Function (IDF) for the world.">
<polygon fill="white" stroke="#666666" points="284,-301.5 222.25,-301.5 222.25,-283 284,-283 284,-301.5"/>
<text text-anchor="middle" x="253.12" y="-288" font-family="Helvetica,sans-Serif" font-size="10.00">world_idf.h</text>
</a>
</g>
</g>
<!-- Node1&#45;&gt;Node14 -->
<g id="edge41_Node000001_Node000014" class="edge">
<title>Node1&#45;&gt;Node14</title>
<g id="a_edge41_Node000001_Node000014"><a xlink:title=" ">
<path fill="none" stroke="#63b8ff" d="M433.93,-397.69C375.57,-393.34 278.79,-382.29 256.12,-356 243.02,-340.8 247.21,-315.03 250.59,-301.74"/>
<polygon fill="#63b8ff" stroke="#63b8ff" points="433.68,-401.18 443.9,-398.39 434.17,-394.19 433.68,-401.18"/>
</a>
</g>
</g>
<!-- Node15 -->
<g id="Node000015" class="node">
<title>Node15</title>
<g id="a_Node000015"><a xlink:href="robot__model_8h.html" target="_top" xlink:title="Class for handling the robot model.">
<polygon fill="white" stroke="#666666" points="546.88,-247 469.38,-247 469.38,-228.5 546.88,-228.5 546.88,-247"/>
<text text-anchor="middle" x="508.12" y="-233.5" font-family="Helvetica,sans-Serif" font-size="10.00">robot_model.h</text>
</a>
</g>
</g>
<!-- Node1&#45;&gt;Node15 -->
<g id="edge30_Node000001_Node000015" class="edge">
<title>Node1&#45;&gt;Node15</title>
<g id="a_edge30_Node000001_Node000015"><a xlink:title=" ">
<path fill="none" stroke="#63b8ff" d="M482.69,-380.37C489.05,-345 502.06,-272.5 506.56,-247.48"/>
<polygon fill="#63b8ff" stroke="#63b8ff" points="479.27,-379.62 480.95,-390.08 486.16,-380.85 479.27,-379.62"/>
</a>
</g>
</g>
<!-- Node16 -->
<g id="Node000016" class="node">
<title>Node16</title>
<g id="a_Node000016"><a xlink:href="world__idf_8cpp.html" target="_top" xlink:title="Contains the implementation of the WorldIDF class.">
<polygon fill="white" stroke="#666666" points="72.25,-247 0,-247 0,-228.5 72.25,-228.5 72.25,-247"/>
<text text-anchor="middle" x="36.12" y="-233.5" font-family="Helvetica,sans-Serif" font-size="10.00">world_idf.cpp</text>
</a>
</g>
</g>
<!-- Node1&#45;&gt;Node16 -->
<g id="edge40_Node000001_Node000016" class="edge">
<title>Node1&#45;&gt;Node16</title>
<g id="a_edge40_Node000001_Node000016"><a xlink:title=" ">
<path fill="none" stroke="#63b8ff" d="M433.84,-396.16C385.64,-390.79 307.72,-379.19 244.12,-356 164.29,-326.88 78.94,-269.21 48.1,-247.39"/>
<polygon fill="#63b8ff" stroke="#63b8ff" points="433.31,-399.62 443.62,-397.2 434.05,-392.66 433.31,-399.62"/>
</a>
</g>
</g>
<!-- Node17 -->
<g id="Node000017" class="node">
<title>Node17</title>
<g id="a_Node000017"><a xlink:href="generate__world__map_8cu.html" target="_top" xlink:title="File for generating the world map IDF using CUDA.">
<polygon fill="white" stroke="#666666" points="663.5,-356 544.75,-356 544.75,-337.5 663.5,-337.5 663.5,-356"/>
<text text-anchor="middle" x="604.12" y="-342.5" font-family="Helvetica,sans-Serif" font-size="10.00">generate_world_map.cu</text>
</a>
</g>
</g>
<!-- Node1&#45;&gt;Node17 -->
<g id="edge28_Node000001_Node000017" class="edge">
<title>Node1&#45;&gt;Node17</title>
<g id="a_edge28_Node000001_Node000017"><a xlink:title=" ">
<path fill="none" stroke="#63b8ff" d="M510.3,-387.16C533.15,-377.56 563.54,-364.8 583.45,-356.43"/>
<polygon fill="#63b8ff" stroke="#63b8ff" points="509.03,-383.9 501.16,-390.99 511.74,-390.35 509.03,-383.9"/>
</a>
</g>
</g>
<!-- Node18 -->
<g id="Node000018" class="node">
<title>Node18</title>
<g id="a_Node000018"><a xlink:href="polygon__utils_8cpp.html" target="_top" xlink:title="Helper functions for polygon operations using CGAL.">
<polygon fill="white" stroke="#666666" points="772.62,-356 681.62,-356 681.62,-337.5 772.62,-337.5 772.62,-356"/>
<text text-anchor="middle" x="727.12" y="-342.5" font-family="Helvetica,sans-Serif" font-size="10.00">polygon_utils.cpp</text>
</a>
</g>
</g>
<!-- Node1&#45;&gt;Node18 -->
<g id="edge29_Node000001_Node000018" class="edge">
<title>Node1&#45;&gt;Node18</title>
<g id="a_edge29_Node000001_Node000018"><a xlink:title=" ">
<path fill="none" stroke="#63b8ff" d="M524.26,-390.7C570.44,-380.92 641.56,-365.86 686.16,-356.42"/>
<polygon fill="#63b8ff" stroke="#63b8ff" points="523.63,-387.25 514.57,-392.75 525.08,-394.1 523.63,-387.25"/>
</a>
</g>
</g>
<!-- Node19 -->
<g id="Node000019" class="node">
<title>Node19</title>
<g id="a_Node000019"><a xlink:href="vec2d_8h.html" target="_top" xlink:title="Contains Vec2d class for 2D vector.">
<polygon fill="white" stroke="#666666" points="840,-356 790.25,-356 790.25,-337.5 840,-337.5 840,-356"/>
<text text-anchor="middle" x="815.12" y="-342.5" font-family="Helvetica,sans-Serif" font-size="10.00">vec2d.h</text>
</a>
</g>
</g>
<!-- Node1&#45;&gt;Node19 -->
<g id="edge31_Node000001_Node000019" class="edge">
<title>Node1&#45;&gt;Node19</title>
<g id="a_edge31_Node000001_Node000019"><a xlink:title=" ">
<path fill="none" stroke="#63b8ff" d="M524.16,-395.1C583.55,-387.98 691.18,-373.96 782.12,-356 784.67,-355.5 787.32,-354.92 789.96,-354.32"/>
<polygon fill="#63b8ff" stroke="#63b8ff" points="523.96,-391.6 514.44,-396.25 524.79,-398.55 523.96,-391.6"/>
</a>
</g>
</g>
<!-- Node20 -->
<g id="Node000020" class="node">
<title>Node20</title>
<g id="a_Node000020"><a xlink:href="voronoi_8h.html" target="_top" xlink:title="Class for computing Voronoi cells.">
<polygon fill="white" stroke="#666666" points="602.62,-301.5 547.62,-301.5 547.62,-283 602.62,-283 602.62,-301.5"/>
<text text-anchor="middle" x="575.12" y="-288" font-family="Helvetica,sans-Serif" font-size="10.00">voronoi.h</text>
</a>
</g>
</g>
<!-- Node1&#45;&gt;Node20 -->
<g id="edge32_Node000001_Node000020" class="edge">
<title>Node1&#45;&gt;Node20</title>
<g id="a_edge32_Node000001_Node000020"><a xlink:title=" ">
<path fill="none" stroke="#63b8ff" d="M494.23,-383.41C514.96,-360.3 551.46,-319.62 567.36,-301.9"/>
<polygon fill="#63b8ff" stroke="#63b8ff" points="491.74,-380.95 487.67,-390.73 496.95,-385.62 491.74,-380.95"/>
</a>
</g>
</g>
<!-- Node2&#45;&gt;Node3 -->
<g id="edge2_Node000002_Node000003" class="edge">
<title>Node2&#45;&gt;Node3</title>
<g id="a_edge2_Node000002_Node000003"><a xlink:title=" ">
<path fill="none" stroke="#63b8ff" d="M348.81,-327.4C362.98,-302.1 391.57,-256.46 427.12,-228.5 448.54,-211.66 477.34,-200 499.04,-192.9"/>
<polygon fill="#63b8ff" stroke="#63b8ff" points="345.92,-325.39 344.21,-335.85 352.07,-328.73 345.92,-325.39"/>
</a>
</g>
</g>
<!-- Node2&#45;&gt;Node14 -->
<g id="edge21_Node000002_Node000014" class="edge">
<title>Node2&#45;&gt;Node14</title>
<g id="a_edge21_Node000002_Node000014"><a xlink:title=" ">
<path fill="none" stroke="#63b8ff" d="M315.5,-331.33C300.07,-321.91 280.43,-309.92 267.35,-301.93"/>
<polygon fill="#63b8ff" stroke="#63b8ff" points="313.27,-334.07 323.63,-336.29 316.92,-328.09 313.27,-334.07"/>
</a>
</g>
</g>
<!-- Node4 -->
<g id="Node000004" class="node">
<title>Node4</title>
<g id="a_Node000004"><a xlink:href="abstract__controller_8h.html" target="_top" xlink:title="Contains the abstract class for coverage control algorithms.">
<polygon fill="white" stroke="#666666" points="542.38,-138 437.88,-138 437.88,-119.5 542.38,-119.5 542.38,-138"/>
<text text-anchor="middle" x="490.12" y="-124.5" font-family="Helvetica,sans-Serif" font-size="10.00">abstract_controller.h</text>
</a>
</g>
</g>
<!-- Node3&#45;&gt;Node4 -->
<g id="edge3_Node000003_Node000004" class="edge">
<title>Node3&#45;&gt;Node4</title>
<g id="a_edge3_Node000003_Node000004"><a xlink:title=" ">
<path fill="none" stroke="#63b8ff" d="M516.56,-164.45C509.82,-155.6 501.99,-145.32 496.61,-138.26"/>
<polygon fill="#63b8ff" stroke="#63b8ff" points="513.76,-166.54 522.6,-172.38 519.33,-162.3 513.76,-166.54"/>
</a>
</g>
</g>
<!-- Node5 -->
<g id="Node000005" class="node">
<title>Node5</title>
<g id="a_Node000005"><a xlink:href="centralized__cvt_8h.html" target="_top" xlink:title="Contains the class CentralizedCVT.">
<polygon fill="white" stroke="#666666" points="216.5,-78.25 127.75,-78.25 127.75,-59.75 216.5,-59.75 216.5,-78.25"/>
<text text-anchor="middle" x="172.12" y="-64.75" font-family="Helvetica,sans-Serif" font-size="10.00">centralized_cvt.h</text>
</a>
</g>
</g>
<!-- Node3&#45;&gt;Node5 -->
<g id="edge12_Node000003_Node000005" class="edge">
<title>Node3&#45;&gt;Node5</title>
<g id="a_edge12_Node000003_Node000005"><a xlink:title=" ">
<path fill="none" stroke="#63b8ff" d="M485.39,-170.66C453.19,-162.13 408.79,-149.97 370.12,-138 306.76,-118.38 233.12,-92.17 196.05,-78.74"/>
<polygon fill="#63b8ff" stroke="#63b8ff" points="484.21,-173.97 494.78,-173.13 486,-167.2 484.21,-173.97"/>
</a>
</g>
</g>
<!-- Node6 -->
<g id="Node000006" class="node">
<title>Node6</title>
<g id="a_Node000006"><a xlink:href="clairvoyant__cvt_8h.html" target="_top" xlink:title="Clairvoyant CVT algorithm.">
<polygon fill="white" stroke="#666666" points="323.5,-78.25 234.75,-78.25 234.75,-59.75 323.5,-59.75 323.5,-78.25"/>
<text text-anchor="middle" x="279.12" y="-64.75" font-family="Helvetica,sans-Serif" font-size="10.00">clairvoyant_cvt.h</text>
</a>
</g>
</g>
<!-- Node3&#45;&gt;Node6 -->
<g id="edge13_Node000003_Node000006" class="edge">
<title>Node3&#45;&gt;Node6</title>
<g id="a_edge13_Node000003_Node000006"><a xlink:title=" ">
<path fill="none" stroke="#63b8ff" d="M492.78,-169.84C468.85,-161.55 437.3,-150.01 410.12,-138 367,-118.95 318.19,-92.15 294.15,-78.59"/>
<polygon fill="#63b8ff" stroke="#63b8ff" points="491.5,-173.1 502.1,-173.03 493.77,-166.48 491.5,-173.1"/>
</a>
</g>
</g>
<!-- Node7 -->
<g id="Node000007" class="node">
<title>Node7</title>
<g id="a_Node000007"><a xlink:href="coverage__algorithm_8cpp.html" target="_top" xlink:title="Program to test the CVT&#45;based (Lloyd&#39;s) coverage control algorithms.">
<polygon fill="white" stroke="#666666" points="338.5,-18.5 219.75,-18.5 219.75,0 338.5,0 338.5,-18.5"/>
<text text-anchor="middle" x="279.12" y="-5" font-family="Helvetica,sans-Serif" font-size="10.00">coverage_algorithm.cpp</text>
</a>
</g>
</g>
<!-- Node3&#45;&gt;Node7 -->
<g id="edge14_Node000003_Node000007" class="edge">
<title>Node3&#45;&gt;Node7</title>
<g id="a_edge14_Node000003_Node000007"><a xlink:title=" ">
<path fill="none" stroke="#63b8ff" d="M591.3,-177.51C699.62,-167.7 918.14,-141.12 964.12,-83.5 972.16,-73.43 972.94,-63.9 964.12,-54.5 921.82,-9.37 497.56,-8.34 338.73,-9.56"/>
<polygon fill="#63b8ff" stroke="#63b8ff" points="591.07,-174.02 581.41,-178.38 591.68,-180.99 591.07,-174.02"/>
</a>
</g>
</g>
<!-- Node8 -->
<g id="Node000008" class="node">
<title>Node8</title>
<g id="a_Node000008"><a xlink:href="decentralized__cvt_8h.html" target="_top" xlink:title="Contains the DecentralizedCVT class.">
<polygon fill="white" stroke="#666666" points="440.75,-78.25 341.5,-78.25 341.5,-59.75 440.75,-59.75 440.75,-78.25"/>
<text text-anchor="middle" x="391.12" y="-64.75" font-family="Helvetica,sans-Serif" font-size="10.00">decentralized_cvt.h</text>
</a>
</g>
</g>
<!-- Node3&#45;&gt;Node8 -->
<g id="edge16_Node000003_Node000008" class="edge">
<title>Node3&#45;&gt;Node8</title>
<g id="a_edge16_Node000003_Node000008"><a xlink:title=" ">
<path fill="none" stroke="#63b8ff" d="M485.71,-169.84C466.64,-162.84 445.12,-152.52 429.12,-138 410.5,-121.09 398.88,-92.86 393.92,-78.68"/>
<polygon fill="#63b8ff" stroke="#63b8ff" points="484.56,-173.14 495.16,-173.09 486.84,-166.52 484.56,-173.14"/>
</a>
</g>
</g>
<!-- Node9 -->
<g id="Node000009" class="node">
<title>Node9</title>
<g id="a_Node000009"><a xlink:href="near__optimal__cvt_8h.html" target="_top" xlink:title="NearOptimalCVT class Global offline oracle: has complete information about the environment....">
<polygon fill="white" stroke="#666666" points="557,-78.25 459.25,-78.25 459.25,-59.75 557,-59.75 557,-78.25"/>
<text text-anchor="middle" x="508.12" y="-64.75" font-family="Helvetica,sans-Serif" font-size="10.00">near_optimal_cvt.h</text>
</a>
</g>
</g>
<!-- Node3&#45;&gt;Node9 -->
<g id="edge17_Node000003_Node000009" class="edge">
<title>Node3&#45;&gt;Node9</title>
<g id="a_edge17_Node000003_Node000009"><a xlink:title=" ">
<path fill="none" stroke="#63b8ff" d="M542.77,-164.3C550.04,-151.69 556.72,-134.46 551.12,-119.5 544.75,-102.44 529.55,-87.37 519.04,-78.46"/>
<polygon fill="#63b8ff" stroke="#63b8ff" points="540.04,-162.07 537.59,-172.38 545.93,-165.85 540.04,-162.07"/>
</a>
</g>
</g>
<!-- Node10 -->
<g id="Node000010" class="node">
<title>Node10</title>
<g id="a_Node000010"><a xlink:href="oracle__bang__explore__exploit_8h.html" target="_top" xlink:title="First trial of oracle with exploration and exploitation. The oracle uses complete information about t...">
<polygon fill="white" stroke="#666666" points="680.75,-83.5 575.5,-83.5 575.5,-54.5 680.75,-54.5 680.75,-83.5"/>
<text text-anchor="start" x="583.5" y="-70" font-family="Helvetica,sans-Serif" font-size="10.00">oracle_bang_explore</text>
<text text-anchor="middle" x="628.12" y="-59.5" font-family="Helvetica,sans-Serif" font-size="10.00">_exploit.h</text>
</a>
</g>
</g>
<!-- Node3&#45;&gt;Node10 -->
<g id="edge18_Node000003_Node000010" class="edge">
<title>Node3&#45;&gt;Node10</title>
<g id="a_edge18_Node000003_Node000010"><a xlink:title=" ">
<path fill="none" stroke="#63b8ff" d="M544.86,-165.37C564.34,-143.06 598.26,-104.2 616.21,-83.65"/>
<polygon fill="#63b8ff" stroke="#63b8ff" points="542.43,-162.84 538.49,-172.67 547.7,-167.44 542.43,-162.84"/>
</a>
</g>
</g>
<!-- Node11 -->
<g id="Node000011" class="node">
<title>Node11</title>
<g id="a_Node000011"><a xlink:href="oracle__explore__exploit_8h.html" target="_top" xlink:title="Old trial of exploration and exploitation Uses system map for exploration as well.">
<polygon fill="white" stroke="#666666" points="819.25,-78.25 699,-78.25 699,-59.75 819.25,-59.75 819.25,-78.25"/>
<text text-anchor="middle" x="759.12" y="-64.75" font-family="Helvetica,sans-Serif" font-size="10.00">oracle_explore_exploit.h</text>
</a>
</g>
</g>
<!-- Node3&#45;&gt;Node11 -->
<g id="edge19_Node000003_Node000011" class="edge">
<title>Node3&#45;&gt;Node11</title>
<g id="a_edge19_Node000003_Node000011"><a xlink:title=" ">
<path fill="none" stroke="#63b8ff" d="M557.94,-168.62C605.67,-145.22 701.87,-98.06 741.48,-78.65"/>
<polygon fill="#63b8ff" stroke="#63b8ff" points="556.51,-165.42 549.07,-172.96 559.59,-171.7 556.51,-165.42"/>
</a>
</g>
</g>
<!-- Node12 -->
<g id="Node000012" class="node">
<title>Node12</title>
<g id="a_Node000012"><a xlink:href="simul__explore__exploit_8h.html" target="_top" xlink:title="Simultaneous exploration and exploitation algorithm Uses frontier&#45;based exploration with bias towards...">
<polygon fill="white" stroke="#666666" points="954.75,-78.25 837.5,-78.25 837.5,-59.75 954.75,-59.75 954.75,-78.25"/>
<text text-anchor="middle" x="896.12" y="-64.75" font-family="Helvetica,sans-Serif" font-size="10.00">simul_explore_exploit.h</text>
</a>
</g>
</g>
<!-- Node3&#45;&gt;Node12 -->
<g id="edge20_Node000003_Node000012" class="edge">
<title>Node3&#45;&gt;Node12</title>
<g id="a_edge20_Node000003_Node000012"><a xlink:title=" ">
<path fill="none" stroke="#63b8ff" d="M569.26,-170.25C643.43,-147.5 802.81,-98.62 867.73,-78.71"/>
<polygon fill="#63b8ff" stroke="#63b8ff" points="568.52,-166.81 559.99,-173.09 570.57,-173.51 568.52,-166.81"/>
</a>
</g>
</g>
<!-- Node13 -->
<g id="Node000013" class="node">
<title>Node13</title>
<g id="a_Node000013"><a xlink:href="coverage__system_8cpp.html" target="_top" xlink:title="Contains the implementation of the CoverageSystem class.">
<polygon fill="white" stroke="#666666" points="1121,-138 1011.25,-138 1011.25,-119.5 1121,-119.5 1121,-138"/>
<text text-anchor="middle" x="1066.12" y="-124.5" font-family="Helvetica,sans-Serif" font-size="10.00">coverage_system.cpp</text>
</a>
</g>
</g>
<!-- Node3&#45;&gt;Node13 -->
<g id="edge15_Node000003_Node000013" class="edge">
<title>Node3&#45;&gt;Node13</title>
<g id="a_edge15_Node000003_Node000013"><a xlink:title=" ">
<path fill="none" stroke="#63b8ff" d="M591.25,-176.3C599.28,-175.52 607.4,-174.74 615.12,-174 784.88,-157.76 827.56,-156.12 997.12,-138 1001.56,-137.53 1006.16,-137.02 1010.78,-136.49"/>
<polygon fill="#63b8ff" stroke="#63b8ff" points="591.14,-172.79 581.52,-177.24 591.81,-179.76 591.14,-172.79"/>
</a>
</g>
</g>
<!-- Node4&#45;&gt;Node5 -->
<g id="edge4_Node000004_Node000005" class="edge">
<title>Node4&#45;&gt;Node5</title>
<g id="a_edge4_Node000004_Node000005"><a xlink:title=" ">
<path fill="none" stroke="#63b8ff" d="M426.75,-118.56C373.11,-110.45 294.29,-97.71 226.12,-83.5 219.31,-82.08 212.06,-80.39 205.16,-78.7"/>
<polygon fill="#63b8ff" stroke="#63b8ff" points="425.9,-121.98 436.31,-120 426.94,-115.05 425.9,-121.98"/>
</a>
</g>
</g>
<!-- Node4&#45;&gt;Node6 -->
<g id="edge5_Node000004_Node000006" class="edge">
<title>Node4&#45;&gt;Node6</title>
<g id="a_edge5_Node000004_Node000006"><a xlink:title=" ">
<path fill="none" stroke="#63b8ff" d="M447.43,-116.07C407.03,-105.01 347.3,-88.66 310.93,-78.7"/>
<polygon fill="#63b8ff" stroke="#63b8ff" points="446.51,-119.44 457.08,-118.7 448.36,-112.69 446.51,-119.44"/>
</a>
</g>
</g>
<!-- Node4&#45;&gt;Node8 -->
<g id="edge7_Node000004_Node000008" class="edge">
<title>Node4&#45;&gt;Node8</title>
<g id="a_edge7_Node000004_Node000008"><a xlink:title=" ">
<path fill="none" stroke="#63b8ff" d="M465.65,-113.48C447,-102.59 421.9,-87.95 406.12,-78.75"/>
<polygon fill="#63b8ff" stroke="#63b8ff" points="463.81,-116.45 474.21,-118.47 467.34,-110.4 463.81,-116.45"/>
</a>
</g>
</g>
<!-- Node4&#45;&gt;Node9 -->
<g id="edge8_Node000004_Node000009" class="edge">
<title>Node4&#45;&gt;Node9</title>
<g id="a_edge8_Node000004_Node000009"><a xlink:title=" ">
<path fill="none" stroke="#63b8ff" d="M496.13,-108.49C499.29,-98.35 503.01,-86.42 505.46,-78.56"/>
<polygon fill="#63b8ff" stroke="#63b8ff" points="492.87,-107.2 493.23,-117.78 499.55,-109.28 492.87,-107.2"/>
</a>
</g>
</g>
<!-- Node4&#45;&gt;Node10 -->
<g id="edge9_Node000004_Node000010" class="edge">
<title>Node4&#45;&gt;Node10</title>
<g id="a_edge9_Node000004_Node000010"><a xlink:title=" ">
<path fill="none" stroke="#63b8ff" d="M521.17,-114.76C543.05,-105.6 572.32,-93.35 594.71,-83.98"/>
<polygon fill="#63b8ff" stroke="#63b8ff" points="520.05,-111.43 512.18,-118.52 522.76,-117.89 520.05,-111.43"/>
</a>
</g>
</g>
<!-- Node4&#45;&gt;Node11 -->
<g id="edge10_Node000004_Node000011" class="edge">
<title>Node4&#45;&gt;Node11</title>
<g id="a_edge10_Node000004_Node000011"><a xlink:title=" ">
<path fill="none" stroke="#63b8ff" d="M541.9,-116.63C593.45,-105.57 671.51,-88.81 718.67,-78.68"/>
<polygon fill="#63b8ff" stroke="#63b8ff" points="541.21,-113.2 532.17,-118.72 542.68,-120.05 541.21,-113.2"/>
</a>
</g>
</g>
<!-- Node4&#45;&gt;Node12 -->
<g id="edge11_Node000004_Node000012" class="edge">
<title>Node4&#45;&gt;Node12</title>
<g id="a_edge11_Node000004_Node000012"><a xlink:title=" ">
<path fill="none" stroke="#63b8ff" d="M554.06,-120.65C622.17,-112.79 733.04,-99.15 828.12,-83.5 836.68,-82.09 845.8,-80.41 854.49,-78.72"/>
<polygon fill="#63b8ff" stroke="#63b8ff" points="553.72,-117.17 544.19,-121.78 554.52,-124.12 553.72,-117.17"/>
</a>
</g>
</g>
<!-- Node6&#45;&gt;Node7 -->
<g id="edge6_Node000006_Node000007" class="edge">
<title>Node6&#45;&gt;Node7</title>
<g id="a_edge6_Node000006_Node000007"><a xlink:title=" ">
<path fill="none" stroke="#63b8ff" d="M279.12,-48.08C279.12,-38.08 279.12,-26.5 279.12,-18.81"/>
<polygon fill="#63b8ff" stroke="#63b8ff" points="275.63,-47.97 279.13,-57.97 282.63,-47.97 275.63,-47.97"/>
</a>
</g>
</g>
<!-- Node14&#45;&gt;Node3 -->
<g id="edge23_Node000014_Node000003" class="edge">
<title>Node14&#45;&gt;Node3</title>
<g id="a_edge23_Node000014_Node000003"><a xlink:title=" ">
<path fill="none" stroke="#63b8ff" d="M273.9,-276.2C294.22,-262.1 326.51,-241.32 357.12,-228.5 397.16,-211.73 445.14,-200.07 480.41,-192.94"/>
<polygon fill="#63b8ff" stroke="#63b8ff" points="272.07,-273.21 265.92,-281.84 276.11,-278.93 272.07,-273.21"/>
</a>
</g>
</g>
<!-- Node14&#45;&gt;Node7 -->
<g id="edge22_Node000014_Node000007" class="edge">
<title>Node14&#45;&gt;Node7</title>
<g id="a_edge22_Node000014_Node000007"><a xlink:title=" ">
<path fill="none" stroke="#63b8ff" d="M210.77,-281.15C165.48,-267.53 100.12,-238.48 100.12,-184.25 100.12,-184.25 100.12,-184.25 100.12,-127.75 100.12,-94.12 95.53,-78.47 119.12,-54.5 145.2,-28 185.63,-16.97 219.32,-12.55"/>
<polygon fill="#63b8ff" stroke="#63b8ff" points="209.76,-284.5 220.34,-283.87 211.68,-277.77 209.76,-284.5"/>
</a>
</g>
</g>
<!-- Node14&#45;&gt;Node15 -->
<g id="edge24_Node000014_Node000015" class="edge">
<title>Node14&#45;&gt;Node15</title>
<g id="a_edge24_Node000014_Node000015"><a xlink:title=" ">
<path fill="none" stroke="#63b8ff" d="M295.4,-282.55C343.72,-272.6 422.16,-256.45 469.08,-246.79"/>
<polygon fill="#63b8ff" stroke="#63b8ff" points="294.96,-279.06 285.88,-284.51 296.38,-285.92 294.96,-279.06"/>
</a>
</g>
</g>
<!-- Node14&#45;&gt;Node16 -->
<g id="edge26_Node000014_Node000016" class="edge">
<title>Node14&#45;&gt;Node16</title>
<g id="a_edge26_Node000014_Node000016"><a xlink:title=" ">
<path fill="none" stroke="#63b8ff" d="M210.96,-281.05C170.62,-271.29 110.41,-256.72 72.22,-247.48"/>
<polygon fill="#63b8ff" stroke="#63b8ff" points="210.02,-284.42 220.56,-283.37 211.67,-277.62 210.02,-284.42"/>
</a>
</g>
</g>
<!-- Node15&#45;&gt;Node3 -->
<g id="edge25_Node000015_Node000003" class="edge">
<title>Node15&#45;&gt;Node3</title>
<g id="a_edge25_Node000015_Node000003"><a xlink:title=" ">
<path fill="none" stroke="#63b8ff" d="M516.19,-217.51C519.75,-209 523.76,-199.44 526.56,-192.76"/>
<polygon fill="#63b8ff" stroke="#63b8ff" points="512.98,-216.11 512.34,-226.68 519.44,-218.81 512.98,-216.11"/>
</a>
</g>
</g>
<!-- Node20&#45;&gt;Node3 -->
<g id="edge33_Node000020_Node000003" class="edge">
<title>Node20&#45;&gt;Node3</title>
<g id="a_edge33_Node000020_Node000003"><a xlink:title=" ">
<path fill="none" stroke="#63b8ff" d="M570.53,-271.88C567.23,-259.26 562.29,-242.58 556.12,-228.5 550.41,-215.44 541.68,-201.42 535.94,-192.74"/>
<polygon fill="#63b8ff" stroke="#63b8ff" points="567.1,-272.57 572.9,-281.44 573.89,-270.89 567.1,-272.57"/>
</a>
</g>
</g>
<!-- Node20&#45;&gt;Node15 -->
<g id="edge38_Node000020_Node000015" class="edge">
<title>Node20&#45;&gt;Node15</title>
<g id="a_edge38_Node000020_Node000015"><a xlink:title=" ">
<path fill="none" stroke="#63b8ff" d="M555.28,-275.7C543.4,-266.39 528.77,-254.93 518.98,-247.26"/>
<polygon fill="#63b8ff" stroke="#63b8ff" points="552.84,-278.23 562.87,-281.65 557.16,-272.72 552.84,-278.23"/>
</a>
</g>
</g>
<!-- Node21 -->
<g id="Node000021" class="node">
<title>Node21</title>
<g id="a_Node000021"><a xlink:href="plotter_8h.html" target="_top" xlink:title="Class to plot the map.">
<polygon fill="white" stroke="#666666" points="654.75,-247 603.5,-247 603.5,-228.5 654.75,-228.5 654.75,-247"/>
<text text-anchor="middle" x="629.12" y="-233.5" font-family="Helvetica,sans-Serif" font-size="10.00">plotter.h</text>
</a>
</g>
</g>
<!-- Node20&#45;&gt;Node21 -->
<g id="edge34_Node000020_Node000021" class="edge">
<title>Node20&#45;&gt;Node21</title>
<g id="a_edge34_Node000020_Node000021"><a xlink:title=" ">
<path fill="none" stroke="#63b8ff" d="M592.27,-274.58C601.62,-265.49 612.8,-254.62 620.37,-247.26"/>
<polygon fill="#63b8ff" stroke="#63b8ff" points="589.86,-272.05 585.13,-281.53 594.74,-277.06 589.86,-272.05"/>
</a>
</g>
</g>
<!-- Node23 -->
<g id="Node000023" class="node">
<title>Node23</title>
<g id="a_Node000023"><a xlink:href="voronoi_8cpp.html" target="_top" xlink:title="Functions to compute Centroidal Voronoi Tessellation.">
<polygon fill="white" stroke="#666666" points="737.88,-247 672.38,-247 672.38,-228.5 737.88,-228.5 737.88,-247"/>
<text text-anchor="middle" x="705.12" y="-233.5" font-family="Helvetica,sans-Serif" font-size="10.00">voronoi.cpp</text>
</a>
</g>
</g>
<!-- Node20&#45;&gt;Node23 -->
<g id="edge39_Node000020_Node000023" class="edge">
<title>Node20&#45;&gt;Node23</title>
<g id="a_edge39_Node000020_Node000023"><a xlink:title=" ">
<path fill="none" stroke="#63b8ff" d="M607.22,-278.29C631.03,-268.67 662.82,-255.83 683.63,-247.43"/>
<polygon fill="#63b8ff" stroke="#63b8ff" points="605.96,-275.02 598,-282.01 608.58,-281.51 605.96,-275.02"/>
</a>
</g>
</g>
<!-- Node21&#45;&gt;Node3 -->
<g id="edge36_Node000021_Node000003" class="edge">
<title>Node21&#45;&gt;Node3</title>
<g id="a_edge36_Node000021_Node000003"><a xlink:title=" ">
<path fill="none" stroke="#63b8ff" d="M602.69,-222.73C584.81,-213.25 561.77,-201.03 546.5,-192.93"/>
<polygon fill="#63b8ff" stroke="#63b8ff" points="600.97,-225.78 611.44,-227.37 604.25,-219.59 600.97,-225.78"/>
</a>
</g>
</g>
<!-- Node21&#45;&gt;Node13 -->
<g id="edge35_Node000021_Node000013" class="edge">
<title>Node21&#45;&gt;Node13</title>
<g id="a_edge35_Node000021_Node000013"><a xlink:title=" ">
<path fill="none" stroke="#63b8ff" d="M629.6,-217.17C631.06,-202.95 635.49,-184.42 648.12,-174 708.27,-124.38 919.64,-146.63 997.12,-138 1001.56,-137.51 1006.16,-136.98 1010.77,-136.45"/>
<polygon fill="#63b8ff" stroke="#63b8ff" points="626.13,-216.56 629.04,-226.75 633.12,-216.97 626.13,-216.56"/>
</a>
</g>
</g>
<!-- Node22 -->
<g id="Node000022" class="node">
<title>Node22</title>
<g id="a_Node000022"><a xlink:href="plotter_8cpp.html" target="_top" xlink:title="Helper function to plot maps.">
<polygon fill="white" stroke="#666666" points="719,-192.5 657.25,-192.5 657.25,-174 719,-174 719,-192.5"/>
<text text-anchor="middle" x="688.12" y="-179" font-family="Helvetica,sans-Serif" font-size="10.00">plotter.cpp</text>
</a>
</g>
</g>
<!-- Node21&#45;&gt;Node22 -->
<g id="edge37_Node000021_Node000022" class="edge">
<title>Node21&#45;&gt;Node22</title>
<g id="a_edge37_Node000021_Node000022"><a xlink:title=" ">
<path fill="none" stroke="#63b8ff" d="M647.23,-220.64C657.57,-211.44 670.12,-200.27 678.56,-192.76"/>
<polygon fill="#63b8ff" stroke="#63b8ff" points="645.14,-217.81 640,-227.07 649.8,-223.04 645.14,-217.81"/>
</a>
</g>
</g>
</g>
</svg>

<g id="navigator" transform="translate(0 0)" fill="#404254">
  <rect fill="#f2f5e9" fill-opacity="0.5" stroke="#606060" stroke-width=".5" x="0" y="0" width="60" height="60"/>
  <use id="zoomplus" xlink:href="#zoomPlus" x="17" y="9" onmousedown="handleZoom(evt,'in')"/>
  <use id="zoomminus" xlink:href="#zoomMin" x="42" y="9" onmousedown="handleZoom(evt,'out')"/>
  <use id="reset" xlink:href="#resetDef" x="30" y="36" onmousedown="handleReset()"/>
   <use id="arrowup" xlink:href="#arrowUp" x="0" y="0" onmousedown="handlePan(0,-1)"/>
  <use id="arrowright" xlink:href="#arrowRight" x="0" y="0" onmousedown="handlePan(1,0)"/>
  <use id="arrowdown" xlink:href="#arrowDown" x="0" y="0" onmousedown="handlePan(0,1)"/>
  <use id="arrowleft" xlink:href="#arrowLeft" x="0" y="0" onmousedown="handlePan(-1,0)"/>
</g>
<svg viewBox="0 0 15 15" width="100%" height="30px" preserveAspectRatio="xMaxYMin meet">
 <g id="arrow_out" transform="scale(0.3 0.3)">
  <a xlink:href="constants_8h__dep__incl_org.svg" target="_base">
   <rect id="button" ry="5" rx="5" y="6" x="6" height="38" width="38"
        fill="#f2f5e9" fill-opacity="0.5" stroke="#606060" stroke-width="1.0"/>
   <path id="arrow"
     d="M 11.500037,31.436501 C 11.940474,20.09759 22.043105,11.32322 32.158766,21.979434 L 37.068811,17.246167 C 37.068811,17.246167 37.088388,32 37.088388,32 L 22.160133,31.978069 C 22.160133,31.978069 26.997745,27.140456 26.997745,27.140456 C 18.528582,18.264221 13.291696,25.230495 11.500037,31.436501 z"
     style="fill:#404040;"/>
  </a>
 </g>
</svg>

<style type='text/css'>
<![CDATA[
[data-mouse-over-selected='false'] { opacity: 0.7; }
[data-mouse-over-selected='true']  { opacity: 1.0; }
]]>
</style>
<script type="application/ecmascript"><![CDATA[
document.addEventListener('DOMContentLoaded', (event) => {
  highlightEdges();
  highlightAdjacentNodes();
});
]]></script>
</svg>
