<?xml version="1.0" encoding="UTF-8" standalone="no"?>
<!DOCTYPE svg PUBLIC "-//W3C//DTD SVG 1.1//EN"
 "http://www.w3.org/Graphics/SVG/1.1/DTD/svg11.dtd">
<!-- Generated by graphviz version 10.0.1 (0)
 -->
<!-- Title: constants.h Pages: 1 -->
<!--zoomable 473 -->

<svg id="main" version="1.1" xmlns="http://www.w3.org/2000/svg" xmlns:xlink="http://www.w3.org/1999/xlink" xml:space="preserve" onload="init(evt)">
<style type="text/css"><![CDATA[
.node, .edge {opacity: 0.7;}
.node.selected, .edge.selected {opacity: 1;}
.edge:hover path { stroke: red; }
.edge:hover polygon { stroke: red; fill: red; }
]]></style>

<defs>
  <circle id="rim" cx="0" cy="0" r="7"/>
  <circle id="rim2" cx="0" cy="0" r="3.5"/>
  <g id="zoomPlus">
    <use xlink:href="#rim" fill="#404040"><set attributeName="fill" to="#808080" begin="zoomplus.mouseover" end="zoomplus.mouseout"/></use>
    <path d="M-4,0h8M0,-4v8" fill="none" stroke="white" stroke-width="1.5" pointer-events="none"/>
  </g>
  <g id="zoomMin">
    <use xlink:href="#rim" fill="#404040"><set attributeName="fill" to="#808080" begin="zoomminus.mouseover" end="zoomminus.mouseout"/></use>
    <path d="M-4,0h8" fill="none" stroke="white" stroke-width="1.5" pointer-events="none"/>
  </g>
  <g id="arrowUp" transform="translate(30 24)">
    <use xlink:href="#rim"/>
    <path pointer-events="none" fill="none" stroke="white" stroke-width="1.5" d="M0,-3.0v7 M-2.5,-0.5L0,-3.0L2.5,-0.5"/>
  </g>
  <g id="arrowRight" transform="rotate(90) translate(36 -43)">
    <use xlink:href="#rim"/>
    <path pointer-events="none" fill="none" stroke="white" stroke-width="1.5" d="M0,-3.0v7 M-2.5,-0.5L0,-3.0L2.5,-0.5"/>
  </g>
  <g id="arrowDown" transform="rotate(180) translate(-30 -48)">
    <use xlink:href="#rim"/>
    <path pointer-events="none" fill="none" stroke="white" stroke-width="1.5" d="M0,-3.0v7 M-2.5,-0.5L0,-3.0L2.5,-0.5"/>
  </g>
  <g id="arrowLeft" transform="rotate(270) translate(-36 17)">
    <use xlink:href="#rim"/>
    <path pointer-events="none" fill="none" stroke="white" stroke-width="1.5" d="M0,-3.0v7 M-2.5,-0.5L0,-3.0L2.5,-0.5"/>
  </g>
  <g id="resetDef">
    <use xlink:href="#rim2" fill="#404040"><set attributeName="fill" to="#808080" begin="reset.mouseover" end="reset.mouseout"/></use>
  </g>
</defs>
<script type="application/ecmascript">
var viewWidth = 1272;
var viewHeight = 473;
var sectionId = 'dynsection-1';
</script>
<script type="application/ecmascript" xlink:href="svg.min.js"/>
<svg id="graph" class="graph">
<g id="viewport">
<title>constants.h</title>
<!-- Node1 -->
<g id="Node000001" class="node">
<title>Node1</title>
<g id="a_Node000001"><a xlink:title="Constants for the CoverageControl library.">
<polygon fill="#999999" stroke="#666666" points="753.88,-465 686.88,-465 686.88,-446.5 753.88,-446.5 753.88,-465"/>
<text text-anchor="middle" x="720.38" y="-451.5" font-family="Helvetica,sans-Serif" font-size="10.00">constants.h</text>
</a>
</g>
</g>
<!-- Node2 -->
<g id="Node000002" class="node">
<title>Node2</title>
<g id="a_Node000002"><a xlink:href="bivariate__normal__distribution_8h.html" target="_top" xlink:title="Class for Bivariate Normal Distribution.">
<polygon fill="white" stroke="#666666" points="567,-410.5 419.75,-410.5 419.75,-392 567,-392 567,-410.5"/>
<text text-anchor="middle" x="493.38" y="-397" font-family="Helvetica,sans-Serif" font-size="10.00">bivariate_normal_distribution.h</text>
</a>
</g>
</g>
<!-- Node1&#45;&gt;Node2 -->
<g id="edge1_Node000001_Node000002" class="edge">
<title>Node1&#45;&gt;Node2</title>
<g id="a_edge1_Node000001_Node000002"><a xlink:title=" ">
<path fill="none" stroke="#63b8ff" d="M675.31,-444.33C633.07,-434.56 570.64,-420.12 531,-410.95"/>
<polygon fill="#63b8ff" stroke="#63b8ff" points="674.38,-447.71 684.92,-446.55 675.96,-440.89 674.38,-447.71"/>
</a>
</g>
</g>
<!-- Node5 -->
<g id="Node000005" class="node">
<title>Node5</title>
<g id="a_Node000005"><a xlink:href="coverage__system_8h.html" target="_top" xlink:title="The file contains the CoverageSystem class, which is the main class for the coverage control library.">
<polygon fill="white" stroke="#666666" points="737,-247 637.75,-247 637.75,-228.5 737,-228.5 737,-247"/>
<text text-anchor="middle" x="687.38" y="-233.5" font-family="Helvetica,sans-Serif" font-size="10.00">coverage_system.h</text>
</a>
</g>
</g>
<!-- Node1&#45;&gt;Node5 -->
<g id="edge39_Node000001_Node000005" class="edge">
<title>Node1&#45;&gt;Node5</title>
<g id="a_edge39_Node000001_Node000005"><a xlink:title=" ">
<path fill="none" stroke="#63b8ff" d="M717.32,-434.76C710.35,-389.16 693.52,-278.97 688.69,-247.36"/>
<polygon fill="#63b8ff" stroke="#63b8ff" points="713.84,-435.16 718.81,-444.52 720.76,-434.1 713.84,-435.16"/>
</a>
</g>
</g>
<!-- Node16 -->
<g id="Node000016" class="node">
<title>Node16</title>
<g id="a_Node000016"><a xlink:href="world__idf_8h.html" target="_top" xlink:title="Contains the class for Importance Density Function (IDF) for the world.">
<polygon fill="white" stroke="#666666" points="145.25,-356 83.5,-356 83.5,-337.5 145.25,-337.5 145.25,-356"/>
<text text-anchor="middle" x="114.38" y="-342.5" font-family="Helvetica,sans-Serif" font-size="10.00">world_idf.h</text>
</a>
</g>
</g>
<!-- Node1&#45;&gt;Node16 -->
<g id="edge52_Node000001_Node000016" class="edge">
<title>Node1&#45;&gt;Node16</title>
<g id="a_edge52_Node000001_Node000016"><a xlink:title=" ">
<path fill="none" stroke="#63b8ff" d="M675.37,-449.29C614.91,-441.73 504.22,-427.13 410.38,-410.5 313.13,-393.27 199.08,-367.51 145.35,-355.03"/>
<polygon fill="#63b8ff" stroke="#63b8ff" points="674.91,-452.76 685.27,-450.52 675.78,-445.81 674.91,-452.76"/>
</a>
</g>
</g>
<!-- Node17 -->
<g id="Node000017" class="node">
<title>Node17</title>
<g id="a_Node000017"><a xlink:href="robot__model_8h.html" target="_top" xlink:title="Class for handling the robot model.">
<polygon fill="white" stroke="#666666" points="793.12,-301.5 715.62,-301.5 715.62,-283 793.12,-283 793.12,-301.5"/>
<text text-anchor="middle" x="754.38" y="-288" font-family="Helvetica,sans-Serif" font-size="10.00">robot_model.h</text>
</a>
</g>
</g>
<!-- Node1&#45;&gt;Node17 -->
<g id="edge40_Node000001_Node000017" class="edge">
<title>Node1&#45;&gt;Node17</title>
<g id="a_edge40_Node000001_Node000017"><a xlink:title=" ">
<path fill="none" stroke="#63b8ff" d="M724.56,-434.87C732.01,-399.5 747.27,-327 752.54,-301.98"/>
<polygon fill="#63b8ff" stroke="#63b8ff" points="721.15,-434.08 722.51,-444.59 728,-435.52 721.15,-434.08"/>
</a>
</g>
</g>
<!-- Node18 -->
<g id="Node000018" class="node">
<title>Node18</title>
<g id="a_Node000018"><a xlink:href="vec2d_8h.html" target="_top" xlink:title="Contains Vec2d class for 2D vector.">
<polygon fill="white" stroke="#666666" points="1149.25,-410.5 1099.5,-410.5 1099.5,-392 1149.25,-392 1149.25,-410.5"/>
<text text-anchor="middle" x="1124.38" y="-397" font-family="Helvetica,sans-Serif" font-size="10.00">vec2d.h</text>
</a>
</g>
</g>
<!-- Node1&#45;&gt;Node18 -->
<g id="edge41_Node000001_Node000018" class="edge">
<title>Node1&#45;&gt;Node18</title>
<g id="a_edge41_Node000001_Node000018"><a xlink:title=" ">
<path fill="none" stroke="#63b8ff" d="M765.47,-448.89C850.55,-437.83 1032.21,-414.23 1099.03,-405.54"/>
<polygon fill="#63b8ff" stroke="#63b8ff" points="765.09,-445.41 755.63,-450.17 765.99,-452.35 765.09,-445.41"/>
</a>
</g>
</g>
<!-- Node19 -->
<g id="Node000019" class="node">
<title>Node19</title>
<g id="a_Node000019"><a xlink:href="voronoi_8h.html" target="_top" xlink:title="Class for computing Voronoi cells.">
<polygon fill="white" stroke="#666666" points="1010.88,-356 955.88,-356 955.88,-337.5 1010.88,-337.5 1010.88,-356"/>
<text text-anchor="middle" x="983.38" y="-342.5" font-family="Helvetica,sans-Serif" font-size="10.00">voronoi.h</text>
</a>
</g>
</g>
<!-- Node1&#45;&gt;Node19 -->
<g id="edge43_Node000001_Node000019" class="edge">
<title>Node1&#45;&gt;Node19</title>
<g id="a_edge43_Node000001_Node000019"><a xlink:title=" ">
<path fill="none" stroke="#63b8ff" d="M751.84,-441.95C806.14,-419.86 916.03,-375.15 962.2,-356.37"/>
<polygon fill="#63b8ff" stroke="#63b8ff" points="750.8,-438.59 742.85,-445.6 753.44,-445.08 750.8,-438.59"/>
</a>
</g>
</g>
<!-- Node3 -->
<g id="Node000003" class="node">
<title>Node3</title>
<g id="a_Node000003"><a xlink:href="core__binds_8h.html" target="_top" xlink:title="Provides python bindings for the core CoverageControl library using pybind11.">
<polygon fill="white" stroke="#666666" points="792.12,-73 720.62,-73 720.62,-54.5 792.12,-54.5 792.12,-73"/>
<text text-anchor="middle" x="756.38" y="-59.5" font-family="Helvetica,sans-Serif" font-size="10.00">core_binds.h</text>
</a>
</g>
</g>
<!-- Node2&#45;&gt;Node3 -->
<g id="edge2_Node000002_Node000003" class="edge">
<title>Node2&#45;&gt;Node3</title>
<g id="a_edge2_Node000002_Node000003"><a xlink:title=" ">
<path fill="none" stroke="#63b8ff" d="M456.1,-387.81C346.97,-349.61 42.66,-229.23 154.38,-109 192.94,-67.5 595.92,-64.54 720.13,-64.62"/>
<polygon fill="#63b8ff" stroke="#63b8ff" points="454.9,-391.1 465.5,-391.06 457.19,-384.49 454.9,-391.1"/>
</a>
</g>
</g>
<!-- Node2&#45;&gt;Node5 -->
<g id="edge4_Node000002_Node000005" class="edge">
<title>Node2&#45;&gt;Node5</title>
<g id="a_edge4_Node000002_Node000005"><a xlink:title=" ">
<path fill="none" stroke="#63b8ff" d="M512.44,-384.38C552.78,-350.8 645.64,-273.49 676.89,-247.48"/>
<polygon fill="#63b8ff" stroke="#63b8ff" points="510.41,-381.51 504.97,-390.6 514.89,-386.89 510.41,-381.51"/>
</a>
</g>
</g>
<!-- Node2&#45;&gt;Node16 -->
<g id="edge32_Node000002_Node000016" class="edge">
<title>Node2&#45;&gt;Node16</title>
<g id="a_edge32_Node000002_Node000016"><a xlink:title=" ">
<path fill="none" stroke="#63b8ff" d="M408.25,-390.15C340.66,-381.85 243.8,-369.32 159.38,-356 154.82,-355.28 150.03,-354.47 145.33,-353.63"/>
<polygon fill="#63b8ff" stroke="#63b8ff" points="407.41,-393.58 417.76,-391.32 408.26,-386.63 407.41,-393.58"/>
</a>
</g>
</g>
<!-- Node4 -->
<g id="Node000004" class="node">
<title>Node4</title>
<g id="a_Node000004"><a xlink:href="python__binds_8cpp.html" target="_top" xlink:title="Python bindings for the CoverageControl library using pybind11 (core_binds.h)">
<polygon fill="white" stroke="#666666" points="936.62,-18.5 844.12,-18.5 844.12,0 936.62,0 936.62,-18.5"/>
<text text-anchor="middle" x="890.38" y="-5" font-family="Helvetica,sans-Serif" font-size="10.00">python_binds.cpp</text>
</a>
</g>
</g>
<!-- Node3&#45;&gt;Node4 -->
<g id="edge3_Node000003_Node000004" class="edge">
<title>Node3&#45;&gt;Node4</title>
<g id="a_edge3_Node000003_Node000004"><a xlink:title=" ">
<path fill="none" stroke="#63b8ff" d="M789.13,-49.92C813.7,-40.29 846.67,-27.37 868.21,-18.93"/>
<polygon fill="#63b8ff" stroke="#63b8ff" points="787.95,-46.62 779.91,-53.53 790.5,-53.14 787.95,-46.62"/>
</a>
</g>
</g>
<!-- Node5&#45;&gt;Node3 -->
<g id="edge23_Node000005_Node000003" class="edge">
<title>Node5&#45;&gt;Node3</title>
<g id="a_edge23_Node000005_Node000003"><a xlink:title=" ">
<path fill="none" stroke="#63b8ff" d="M748.6,-226.07C830.43,-210.41 968.66,-178.61 998.38,-138 1005.99,-127.6 1006.63,-118.9 998.38,-109 972.6,-78.08 853.57,-68.7 792.6,-65.91"/>
<polygon fill="#63b8ff" stroke="#63b8ff" points="748.11,-222.6 738.93,-227.89 749.4,-229.48 748.11,-222.6"/>
</a>
</g>
</g>
<!-- Node5&#45;&gt;Node4 -->
<g id="edge30_Node000005_Node000004" class="edge">
<title>Node5&#45;&gt;Node4</title>
<g id="a_edge30_Node000005_Node000004"><a xlink:title=" ">
<path fill="none" stroke="#63b8ff" d="M748.47,-232.4C798.97,-227.24 871.78,-216.13 931.38,-192.5 972.74,-176.1 994.13,-177.11 1015.38,-138 1044.55,-84.29 954.8,-37.59 911.88,-18.92"/>
<polygon fill="#63b8ff" stroke="#63b8ff" points="748.21,-228.91 738.6,-233.36 748.89,-235.88 748.21,-228.91"/>
</a>
</g>
</g>
<!-- Node6 -->
<g id="Node000006" class="node">
<title>Node6</title>
<g id="a_Node000006"><a xlink:href="abstract__controller_8h.html" target="_top" xlink:title="Contains the abstract class for coverage control algorithms.">
<polygon fill="white" stroke="#666666" points="612.62,-192.5 508.12,-192.5 508.12,-174 612.62,-174 612.62,-192.5"/>
<text text-anchor="middle" x="560.38" y="-179" font-family="Helvetica,sans-Serif" font-size="10.00">abstract_controller.h</text>
</a>
</g>
</g>
<!-- Node5&#45;&gt;Node6 -->
<g id="edge5_Node000005_Node000006" class="edge">
<title>Node5&#45;&gt;Node6</title>
<g id="a_edge5_Node000005_Node000006"><a xlink:title=" ">
<path fill="none" stroke="#63b8ff" d="M656.02,-223.79C632.76,-214.17 601.7,-201.33 581.38,-192.93"/>
<polygon fill="#63b8ff" stroke="#63b8ff" points="654.43,-226.92 665,-227.5 657.1,-220.45 654.43,-226.92"/>
</a>
</g>
</g>
<!-- Node7 -->
<g id="Node000007" class="node">
<title>Node7</title>
<g id="a_Node000007"><a xlink:href="centralized__cvt_8h.html" target="_top" xlink:title="Contains the class CentralizedCVT.">
<polygon fill="white" stroke="#666666" points="989.75,-132.75 901,-132.75 901,-114.25 989.75,-114.25 989.75,-132.75"/>
<text text-anchor="middle" x="945.38" y="-119.25" font-family="Helvetica,sans-Serif" font-size="10.00">centralized_cvt.h</text>
</a>
</g>
</g>
<!-- Node5&#45;&gt;Node7 -->
<g id="edge21_Node000005_Node000007" class="edge">
<title>Node5&#45;&gt;Node7</title>
<g id="a_edge21_Node000005_Node000007"><a xlink:title=" ">
<path fill="none" stroke="#63b8ff" d="M717.7,-223.56C771.12,-200.32 880.59,-152.69 925.49,-133.15"/>
<polygon fill="#63b8ff" stroke="#63b8ff" points="716.35,-220.33 708.58,-227.52 719.15,-226.74 716.35,-220.33"/>
</a>
</g>
</g>
<!-- Node8 -->
<g id="Node000008" class="node">
<title>Node8</title>
<g id="a_Node000008"><a xlink:href="clairvoyant__cvt_8h.html" target="_top" xlink:title="Clairvoyant CVT algorithm.">
<polygon fill="white" stroke="#666666" points="251.75,-132.75 163,-132.75 163,-114.25 251.75,-114.25 251.75,-132.75"/>
<text text-anchor="middle" x="207.38" y="-119.25" font-family="Helvetica,sans-Serif" font-size="10.00">clairvoyant_cvt.h</text>
</a>
</g>
</g>
<!-- Node5&#45;&gt;Node8 -->
<g id="edge22_Node000005_Node000008" class="edge">
<title>Node5&#45;&gt;Node8</title>
<g id="a_edge22_Node000005_Node000008"><a xlink:title=" ">
<path fill="none" stroke="#63b8ff" d="M626.28,-229.11C572.04,-221.74 490.85,-209.23 421.38,-192.5 350.88,-175.53 269.85,-147.32 230.81,-133.17"/>
<polygon fill="#63b8ff" stroke="#63b8ff" points="625.56,-232.55 635.93,-230.41 626.49,-225.61 625.56,-232.55"/>
</a>
</g>
</g>
<!-- Node9 -->
<g id="Node000009" class="node">
<title>Node9</title>
<g id="a_Node000009"><a xlink:href="coverage__algorithm_8cpp.html" target="_top" xlink:title="Program to test the CVT&#45;based (Lloyd&#39;s) coverage control algorithms.">
<polygon fill="white" stroke="#666666" points="118.75,-73 0,-73 0,-54.5 118.75,-54.5 118.75,-73"/>
<text text-anchor="middle" x="59.38" y="-59.5" font-family="Helvetica,sans-Serif" font-size="10.00">coverage_algorithm.cpp</text>
</a>
</g>
</g>
<!-- Node5&#45;&gt;Node9 -->
<g id="edge24_Node000005_Node000009" class="edge">
<title>Node5&#45;&gt;Node9</title>
<g id="a_edge24_Node000005_Node000009"><a xlink:title=" ">
<path fill="none" stroke="#63b8ff" d="M626.08,-236.21C523.22,-233 311.69,-216.47 154.38,-138 118.97,-120.34 83.79,-88.54 68,-73.32"/>
<polygon fill="#63b8ff" stroke="#63b8ff" points="625.87,-239.7 635.96,-236.48 626.06,-232.7 625.87,-239.7"/>
</a>
</g>
</g>
<!-- Node10 -->
<g id="Node000010" class="node">
<title>Node10</title>
<g id="a_Node000010"><a xlink:href="decentralized__cvt_8h.html" target="_top" xlink:title="Contains the DecentralizedCVT class.">
<polygon fill="white" stroke="#666666" points="369,-132.75 269.75,-132.75 269.75,-114.25 369,-114.25 369,-132.75"/>
<text text-anchor="middle" x="319.38" y="-119.25" font-family="Helvetica,sans-Serif" font-size="10.00">decentralized_cvt.h</text>
</a>
</g>
</g>
<!-- Node5&#45;&gt;Node10 -->
<g id="edge26_Node000005_Node000010" class="edge">
<title>Node5&#45;&gt;Node10</title>
<g id="a_edge26_Node000005_Node000010"><a xlink:title=" ">
<path fill="none" stroke="#63b8ff" d="M626.23,-227.77C582.7,-220.51 523.17,-208.81 472.38,-192.5 420.62,-175.89 362.84,-147.26 335.45,-133.04"/>
<polygon fill="#63b8ff" stroke="#63b8ff" points="625.57,-231.21 636,-229.37 626.7,-224.3 625.57,-231.21"/>
</a>
</g>
</g>
<!-- Node11 -->
<g id="Node000011" class="node">
<title>Node11</title>
<g id="a_Node000011"><a xlink:href="near__optimal__cvt_8h.html" target="_top" xlink:title="NearOptimalCVT class Global offline oracle: has complete information about the environment....">
<polygon fill="white" stroke="#666666" points="485.25,-132.75 387.5,-132.75 387.5,-114.25 485.25,-114.25 485.25,-132.75"/>
<text text-anchor="middle" x="436.38" y="-119.25" font-family="Helvetica,sans-Serif" font-size="10.00">near_optimal_cvt.h</text>
</a>
</g>
</g>
<!-- Node5&#45;&gt;Node11 -->
<g id="edge27_Node000005_Node000011" class="edge">
<title>Node5&#45;&gt;Node11</title>
<g id="a_edge27_Node000005_Node000011"><a xlink:title=" ">
<path fill="none" stroke="#63b8ff" d="M626.25,-231.56C587.74,-226.14 538.14,-215.08 499.38,-192.5 473.23,-177.27 451.51,-147.74 441.81,-133.12"/>
<polygon fill="#63b8ff" stroke="#63b8ff" points="625.45,-234.98 635.82,-232.81 626.35,-228.04 625.45,-234.98"/>
</a>
</g>
</g>
<!-- Node12 -->
<g id="Node000012" class="node">
<title>Node12</title>
<g id="a_Node000012"><a xlink:href="oracle__bang__explore__exploit_8h.html" target="_top" xlink:title="First trial of oracle with exploration and exploitation. The oracle uses complete information about t...">
<polygon fill="white" stroke="#666666" points="609,-138 503.75,-138 503.75,-109 609,-109 609,-138"/>
<text text-anchor="start" x="511.75" y="-124.5" font-family="Helvetica,sans-Serif" font-size="10.00">oracle_bang_explore</text>
<text text-anchor="middle" x="556.38" y="-114" font-family="Helvetica,sans-Serif" font-size="10.00">_exploit.h</text>
</a>
</g>
</g>
<!-- Node5&#45;&gt;Node12 -->
<g id="edge28_Node000005_Node000012" class="edge">
<title>Node5&#45;&gt;Node12</title>
<g id="a_edge28_Node000005_Node000012"><a xlink:title=" ">
<path fill="none" stroke="#63b8ff" d="M671.09,-220.31C658.01,-207.34 638.98,-188.99 621.38,-174 606.58,-161.4 589.01,-148.11 575.86,-138.48"/>
<polygon fill="#63b8ff" stroke="#63b8ff" points="668.49,-222.66 678.04,-227.25 673.44,-217.71 668.49,-222.66"/>
</a>
</g>
</g>
<!-- Node13 -->
<g id="Node000013" class="node">
<title>Node13</title>
<g id="a_Node000013"><a xlink:href="oracle__explore__exploit_8h.html" target="_top" xlink:title="Old trial of exploration and exploitation Uses system map for exploration as well.">
<polygon fill="white" stroke="#666666" points="747.5,-132.75 627.25,-132.75 627.25,-114.25 747.5,-114.25 747.5,-132.75"/>
<text text-anchor="middle" x="687.38" y="-119.25" font-family="Helvetica,sans-Serif" font-size="10.00">oracle_explore_exploit.h</text>
</a>
</g>
</g>
<!-- Node5&#45;&gt;Node13 -->
<g id="edge29_Node000005_Node000013" class="edge">
<title>Node5&#45;&gt;Node13</title>
<g id="a_edge29_Node000005_Node000013"><a xlink:title=" ">
<path fill="none" stroke="#63b8ff" d="M687.38,-217.1C687.38,-192.33 687.38,-150.84 687.38,-133.03"/>
<polygon fill="#63b8ff" stroke="#63b8ff" points="683.88,-216.8 687.38,-226.8 690.88,-216.8 683.88,-216.8"/>
</a>
</g>
</g>
<!-- Node14 -->
<g id="Node000014" class="node">
<title>Node14</title>
<g id="a_Node000014"><a xlink:href="simul__explore__exploit_8h.html" target="_top" xlink:title="Simultaneous exploration and exploitation algorithm Uses frontier&#45;based exploration with bias towards...">
<polygon fill="white" stroke="#666666" points="883,-132.75 765.75,-132.75 765.75,-114.25 883,-114.25 883,-132.75"/>
<text text-anchor="middle" x="824.38" y="-119.25" font-family="Helvetica,sans-Serif" font-size="10.00">simul_explore_exploit.h</text>
</a>
</g>
</g>
<!-- Node5&#45;&gt;Node14 -->
<g id="edge31_Node000005_Node000014" class="edge">
<title>Node5&#45;&gt;Node14</title>
<g id="a_edge31_Node000005_Node000014"><a xlink:title=" ">
<path fill="none" stroke="#63b8ff" d="M706.56,-221.03C735.93,-196.97 791.04,-151.82 813.96,-133.03"/>
<polygon fill="#63b8ff" stroke="#63b8ff" points="704.36,-218.31 698.84,-227.35 708.8,-223.72 704.36,-218.31"/>
</a>
</g>
</g>
<!-- Node15 -->
<g id="Node000015" class="node">
<title>Node15</title>
<g id="a_Node000015"><a xlink:href="coverage__system_8cpp.html" target="_top" xlink:title="Contains the implementation of the CoverageSystem class.">
<polygon fill="white" stroke="#666666" points="1193.25,-192.5 1083.5,-192.5 1083.5,-174 1193.25,-174 1193.25,-192.5"/>
<text text-anchor="middle" x="1138.38" y="-179" font-family="Helvetica,sans-Serif" font-size="10.00">coverage_system.cpp</text>
</a>
</g>
</g>
<!-- Node5&#45;&gt;Node15 -->
<g id="edge25_Node000005_Node000015" class="edge">
<title>Node5&#45;&gt;Node15</title>
<g id="a_edge25_Node000005_Node000015"><a xlink:title=" ">
<path fill="none" stroke="#63b8ff" d="M748.53,-229.63C836.77,-219.36 998.5,-200.53 1083.25,-190.67"/>
<polygon fill="#63b8ff" stroke="#63b8ff" points="748.39,-226.12 738.87,-230.76 749.2,-233.08 748.39,-226.12"/>
</a>
</g>
</g>
<!-- Node6&#45;&gt;Node7 -->
<g id="edge6_Node000006_Node000007" class="edge">
<title>Node6&#45;&gt;Node7</title>
<g id="a_edge6_Node000006_Node000007"><a xlink:title=" ">
<path fill="none" stroke="#63b8ff" d="M624.23,-175.98C691.34,-168.87 799.82,-155.89 892.38,-138 899.27,-136.67 906.61,-134.98 913.56,-133.25"/>
<polygon fill="#63b8ff" stroke="#63b8ff" points="624.09,-172.48 614.51,-177 624.82,-179.44 624.09,-172.48"/>
</a>
</g>
</g>
<!-- Node6&#45;&gt;Node8 -->
<g id="edge8_Node000006_Node000008" class="edge">
<title>Node6&#45;&gt;Node8</title>
<g id="a_edge8_Node000006_Node000008"><a xlink:title=" ">
<path fill="none" stroke="#63b8ff" d="M496.44,-174.76C435.47,-167.16 341.24,-154.22 260.38,-138 253.58,-136.64 246.35,-134.95 239.49,-133.24"/>
<polygon fill="#63b8ff" stroke="#63b8ff" points="495.94,-178.22 506.29,-175.97 496.8,-171.28 495.94,-178.22"/>
</a>
</g>
</g>
<!-- Node6&#45;&gt;Node10 -->
<g id="edge11_Node000006_Node000010" class="edge">
<title>Node6&#45;&gt;Node10</title>
<g id="a_edge11_Node000006_Node000010"><a xlink:title=" ">
<path fill="none" stroke="#63b8ff" d="M513.11,-170.92C466.92,-159.86 397.61,-143.25 355.62,-133.18"/>
<polygon fill="#63b8ff" stroke="#63b8ff" points="512.02,-174.26 522.56,-173.19 513.65,-167.45 512.02,-174.26"/>
</a>
</g>
</g>
<!-- Node6&#45;&gt;Node11 -->
<g id="edge13_Node000006_Node000011" class="edge">
<title>Node6&#45;&gt;Node11</title>
<g id="a_edge13_Node000006_Node000011"><a xlink:title=" ">
<path fill="none" stroke="#63b8ff" d="M531.38,-168.75C507.82,-157.78 475.3,-142.63 455.07,-133.2"/>
<polygon fill="#63b8ff" stroke="#63b8ff" points="529.9,-171.92 540.44,-172.97 532.85,-165.57 529.9,-171.92"/>
</a>
</g>
</g>
<!-- Node6&#45;&gt;Node12 -->
<g id="edge15_Node000006_Node000012" class="edge">
<title>Node6&#45;&gt;Node12</title>
<g id="a_edge15_Node000006_Node000012"><a xlink:title=" ">
<path fill="none" stroke="#63b8ff" d="M559.01,-162.52C558.46,-154.6 557.84,-145.66 557.34,-138.43"/>
<polygon fill="#63b8ff" stroke="#63b8ff" points="555.5,-162.48 559.68,-172.22 562.48,-162 555.5,-162.48"/>
</a>
</g>
</g>
<!-- Node6&#45;&gt;Node13 -->
<g id="edge17_Node000006_Node000013" class="edge">
<title>Node6&#45;&gt;Node13</title>
<g id="a_edge17_Node000006_Node000013"><a xlink:title=" ">
<path fill="none" stroke="#63b8ff" d="M589.75,-168.89C613.9,-157.91 647.42,-142.67 668.23,-133.2"/>
<polygon fill="#63b8ff" stroke="#63b8ff" points="588.42,-165.65 580.77,-172.98 591.32,-172.02 588.42,-165.65"/>
</a>
</g>
</g>
<!-- Node6&#45;&gt;Node14 -->
<g id="edge19_Node000006_Node000014" class="edge">
<title>Node6&#45;&gt;Node14</title>
<g id="a_edge19_Node000006_Node000014"><a xlink:title=" ">
<path fill="none" stroke="#63b8ff" d="M611.19,-171.13C661.78,-160.07 738.39,-143.31 784.67,-133.18"/>
<polygon fill="#63b8ff" stroke="#63b8ff" points="610.68,-167.66 601.66,-173.22 612.18,-174.5 610.68,-167.66"/>
</a>
</g>
</g>
<!-- Node7&#45;&gt;Node3 -->
<g id="edge7_Node000007_Node000003" class="edge">
<title>Node7&#45;&gt;Node3</title>
<g id="a_edge7_Node000007_Node000003"><a xlink:title=" ">
<path fill="none" stroke="#63b8ff" d="M906.43,-110.6C870.26,-99.55 817.24,-83.35 784.86,-73.45"/>
<polygon fill="#63b8ff" stroke="#63b8ff" points="905.05,-113.84 915.63,-113.41 907.09,-107.14 905.05,-113.84"/>
</a>
</g>
</g>
<!-- Node8&#45;&gt;Node3 -->
<g id="edge9_Node000008_Node000003" class="edge">
<title>Node8&#45;&gt;Node3</title>
<g id="a_edge9_Node000008_Node000003"><a xlink:title=" ">
<path fill="none" stroke="#63b8ff" d="M249.19,-111.19C252.96,-110.37 256.72,-109.62 260.38,-109 431.03,-79.85 638.19,-69.23 720.33,-65.98"/>
<polygon fill="#63b8ff" stroke="#63b8ff" points="248.44,-107.77 239.5,-113.46 250.03,-114.59 248.44,-107.77"/>
</a>
</g>
</g>
<!-- Node8&#45;&gt;Node9 -->
<g id="edge10_Node000008_Node000009" class="edge">
<title>Node8&#45;&gt;Node9</title>
<g id="a_edge10_Node000008_Node000009"><a xlink:title=" ">
<path fill="none" stroke="#63b8ff" d="M174.66,-109.73C146.42,-98.71 106.38,-83.09 81.68,-73.45"/>
<polygon fill="#63b8ff" stroke="#63b8ff" points="173.22,-112.93 183.81,-113.3 175.76,-106.41 173.22,-112.93"/>
</a>
</g>
</g>
<!-- Node10&#45;&gt;Node3 -->
<g id="edge12_Node000010_Node000003" class="edge">
<title>Node10&#45;&gt;Node3</title>
<g id="a_edge12_Node000010_Node000003"><a xlink:title=" ">
<path fill="none" stroke="#63b8ff" d="M365.71,-111.4C369.98,-110.53 374.25,-109.71 378.38,-109 503.07,-87.5 652.73,-73.41 720.23,-67.67"/>
<polygon fill="#63b8ff" stroke="#63b8ff" points="365.03,-107.97 355.98,-113.49 366.49,-114.81 365.03,-107.97"/>
</a>
</g>
</g>
<!-- Node11&#45;&gt;Node3 -->
<g id="edge14_Node000011_Node000003" class="edge">
<title>Node11&#45;&gt;Node3</title>
<g id="a_edge14_Node000011_Node000003"><a xlink:title=" ">
<path fill="none" stroke="#63b8ff" d="M483.33,-111.31C487.06,-110.5 490.78,-109.72 494.38,-109 574.66,-92.89 669.57,-77.85 720.22,-70.14"/>
<polygon fill="#63b8ff" stroke="#63b8ff" points="482.66,-107.88 473.67,-113.47 484.19,-114.71 482.66,-107.88"/>
</a>
</g>
</g>
<!-- Node12&#45;&gt;Node3 -->
<g id="edge16_Node000012_Node000003" class="edge">
<title>Node12&#45;&gt;Node3</title>
<g id="a_edge16_Node000012_Node000003"><a xlink:title=" ">
<path fill="none" stroke="#63b8ff" d="M615.75,-105.35C652.05,-94.87 696.96,-81.91 726.11,-73.49"/>
<polygon fill="#63b8ff" stroke="#63b8ff" points="614.88,-101.96 606.24,-108.1 616.82,-108.69 614.88,-101.96"/>
</a>
</g>
</g>
<!-- Node13&#45;&gt;Node3 -->
<g id="edge18_Node000013_Node000003" class="edge">
<title>Node13&#45;&gt;Node3</title>
<g id="a_edge18_Node000013_Node000003"><a xlink:title=" ">
<path fill="none" stroke="#63b8ff" d="M706.14,-106.79C719.03,-96.01 735.64,-82.11 746.15,-73.31"/>
<polygon fill="#63b8ff" stroke="#63b8ff" points="704.14,-103.91 698.72,-113.01 708.63,-109.27 704.14,-103.91"/>
</a>
</g>
</g>
<!-- Node14&#45;&gt;Node3 -->
<g id="edge20_Node000014_Node000003" class="edge">
<title>Node14&#45;&gt;Node3</title>
<g id="a_edge20_Node000014_Node000003"><a xlink:title=" ">
<path fill="none" stroke="#63b8ff" d="M805.88,-106.79C793.18,-96.01 776.81,-82.11 766.45,-73.31"/>
<polygon fill="#63b8ff" stroke="#63b8ff" points="803.3,-109.19 813.19,-113 807.83,-103.86 803.3,-109.19"/>
</a>
</g>
</g>
<!-- Node16&#45;&gt;Node3 -->
<g id="edge33_Node000016_Node000003" class="edge">
<title>Node16&#45;&gt;Node3</title>
<g id="a_edge33_Node000016_Node000003"><a xlink:title=" ">
<path fill="none" stroke="#63b8ff" d="M109.36,-326.14C104.34,-304.8 97.38,-269.58 97.38,-238.75 97.38,-238.75 97.38,-238.75 97.38,-182.25 97.38,-147.99 94.35,-130.06 121.38,-109 168.72,-72.11 593.02,-65.96 720.39,-64.95"/>
<polygon fill="#63b8ff" stroke="#63b8ff" points="105.94,-326.88 111.72,-335.75 112.73,-325.21 105.94,-326.88"/>
</a>
</g>
</g>
<!-- Node16&#45;&gt;Node5 -->
<g id="edge35_Node000016_Node000005" class="edge">
<title>Node16&#45;&gt;Node5</title>
<g id="a_edge35_Node000016_Node000005"><a xlink:title=" ">
<path fill="none" stroke="#63b8ff" d="M156.64,-337.86C261.26,-318.32 531.72,-267.82 640.77,-247.45"/>
<polygon fill="#63b8ff" stroke="#63b8ff" points="156.26,-334.37 147.08,-339.64 157.55,-341.25 156.26,-334.37"/>
</a>
</g>
</g>
<!-- Node16&#45;&gt;Node9 -->
<g id="edge34_Node000016_Node000009" class="edge">
<title>Node16&#45;&gt;Node9</title>
<g id="a_edge34_Node000016_Node000009"><a xlink:title=" ">
<path fill="none" stroke="#63b8ff" d="M89.12,-331.27C61.58,-313.39 21.38,-280.18 21.38,-238.75 21.38,-238.75 21.38,-238.75 21.38,-182.25 21.38,-139.59 44.34,-92.25 54.56,-73.29"/>
<polygon fill="#63b8ff" stroke="#63b8ff" points="86.97,-334.06 97.31,-336.36 90.66,-328.11 86.97,-334.06"/>
</a>
</g>
</g>
<!-- Node16&#45;&gt;Node17 -->
<g id="edge36_Node000016_Node000017" class="edge">
<title>Node16&#45;&gt;Node17</title>
<g id="a_edge36_Node000016_Node000017"><a xlink:title=" ">
<path fill="none" stroke="#63b8ff" d="M157.03,-342.25C274.57,-332.61 601.95,-305.75 715.21,-296.46"/>
<polygon fill="#63b8ff" stroke="#63b8ff" points="156.87,-338.75 147.19,-343.06 157.44,-345.73 156.87,-338.75"/>
</a>
</g>
</g>
<!-- Node17&#45;&gt;Node3 -->
<g id="edge37_Node000017_Node000003" class="edge">
<title>Node17&#45;&gt;Node3</title>
<g id="a_edge37_Node000017_Node000003"><a xlink:title=" ">
<path fill="none" stroke="#63b8ff" d="M801.73,-279.67C894.52,-254.84 1085.33,-191.93 1015.38,-109 987.28,-75.7 856.94,-67.46 792.55,-65.42"/>
<polygon fill="#63b8ff" stroke="#63b8ff" points="800.91,-276.27 792.13,-282.19 802.69,-283.04 800.91,-276.27"/>
</a>
</g>
</g>
<!-- Node17&#45;&gt;Node5 -->
<g id="edge38_Node000017_Node000005" class="edge">
<title>Node17&#45;&gt;Node5</title>
<g id="a_edge38_Node000017_Node000005"><a xlink:title=" ">
<path fill="none" stroke="#63b8ff" d="M734.53,-275.7C722.65,-266.39 708.02,-254.93 698.23,-247.26"/>
<polygon fill="#63b8ff" stroke="#63b8ff" points="732.09,-278.23 742.12,-281.65 736.41,-272.72 732.09,-278.23"/>
</a>
</g>
</g>
<!-- Node18&#45;&gt;Node3 -->
<g id="edge42_Node000018_Node000003" class="edge">
<title>Node18&#45;&gt;Node3</title>
<g id="a_edge42_Node000018_Node000003"><a xlink:title=" ">
<path fill="none" stroke="#63b8ff" d="M1160.55,-389.96C1202.03,-375.67 1264.38,-345.51 1264.38,-293.25 1264.38,-293.25 1264.38,-293.25 1264.38,-182.25 1264.38,-85.28 908.56,-68.32 792.5,-65.37"/>
<polygon fill="#63b8ff" stroke="#63b8ff" points="1159.59,-386.59 1151.17,-393.02 1161.76,-393.24 1159.59,-386.59"/>
</a>
</g>
</g>
<!-- Node19&#45;&gt;Node3 -->
<g id="edge44_Node000019_Node000003" class="edge">
<title>Node19&#45;&gt;Node3</title>
<g id="a_edge44_Node000019_Node000003"><a xlink:title=" ">
<path fill="none" stroke="#63b8ff" d="M1021.93,-334.98C1098.05,-311.72 1255.83,-252.51 1202.38,-174 1155.71,-105.47 890.45,-76.18 792.61,-67.6"/>
<polygon fill="#63b8ff" stroke="#63b8ff" points="1021.36,-331.5 1012.78,-337.71 1023.36,-338.2 1021.36,-331.5"/>
</a>
</g>
</g>
<!-- Node19&#45;&gt;Node5 -->
<g id="edge45_Node000019_Node000005" class="edge">
<title>Node19&#45;&gt;Node5</title>
<g id="a_edge45_Node000019_Node000005"><a xlink:title=" ">
<path fill="none" stroke="#63b8ff" d="M948.85,-333.27C888.2,-311.34 763.99,-266.45 711.57,-247.5"/>
<polygon fill="#63b8ff" stroke="#63b8ff" points="947.39,-336.46 957.98,-336.57 949.76,-329.88 947.39,-336.46"/>
</a>
</g>
</g>
<!-- Node19&#45;&gt;Node17 -->
<g id="edge50_Node000019_Node000017" class="edge">
<title>Node19&#45;&gt;Node17</title>
<g id="a_edge50_Node000019_Node000017"><a xlink:title=" ">
<path fill="none" stroke="#63b8ff" d="M944.76,-336.9C902.31,-327.17 834.57,-311.64 792.38,-301.96"/>
<polygon fill="#63b8ff" stroke="#63b8ff" points="943.75,-340.26 954.28,-339.08 945.31,-333.43 943.75,-340.26"/>
</a>
</g>
</g>
<!-- Node20 -->
<g id="Node000020" class="node">
<title>Node20</title>
<g id="a_Node000020"><a xlink:href="plotter_8h.html" target="_top" xlink:title="Class to plot the map.">
<polygon fill="white" stroke="#666666" points="1061,-301.5 1009.75,-301.5 1009.75,-283 1061,-283 1061,-301.5"/>
<text text-anchor="middle" x="1035.38" y="-288" font-family="Helvetica,sans-Serif" font-size="10.00">plotter.h</text>
</a>
</g>
</g>
<!-- Node19&#45;&gt;Node20 -->
<g id="edge46_Node000019_Node000020" class="edge">
<title>Node19&#45;&gt;Node20</title>
<g id="a_edge46_Node000019_Node000020"><a xlink:title=" ">
<path fill="none" stroke="#63b8ff" d="M999.88,-329.08C1008.89,-319.99 1019.65,-309.12 1026.95,-301.76"/>
<polygon fill="#63b8ff" stroke="#63b8ff" points="997.58,-326.44 993.03,-336.01 1002.55,-331.36 997.58,-326.44"/>
</a>
</g>
</g>
<!-- Node22 -->
<g id="Node000022" class="node">
<title>Node22</title>
<g id="a_Node000022"><a xlink:href="voronoi_8cpp.html" target="_top" xlink:title="Functions to compute Centroidal Voronoi Tessellation.">
<polygon fill="white" stroke="#666666" points="1236.12,-301.5 1170.62,-301.5 1170.62,-283 1236.12,-283 1236.12,-301.5"/>
<text text-anchor="middle" x="1203.38" y="-288" font-family="Helvetica,sans-Serif" font-size="10.00">voronoi.cpp</text>
</a>
</g>
</g>
<!-- Node19&#45;&gt;Node22 -->
<g id="edge51_Node000019_Node000022" class="edge">
<title>Node19&#45;&gt;Node22</title>
<g id="a_edge51_Node000019_Node000022"><a xlink:title=" ">
<path fill="none" stroke="#63b8ff" d="M1022.43,-336.43C1064.52,-326.39 1130.78,-310.57 1170.37,-301.13"/>
<polygon fill="#63b8ff" stroke="#63b8ff" points="1021.62,-333.02 1012.71,-338.75 1023.25,-339.83 1021.62,-333.02"/>
</a>
</g>
</g>
<!-- Node20&#45;&gt;Node5 -->
<g id="edge48_Node000020_Node000005" class="edge">
<title>Node20&#45;&gt;Node5</title>
<g id="a_edge48_Node000020_Node000005"><a xlink:title=" ">
<path fill="none" stroke="#63b8ff" d="M998.18,-285.64C935.27,-276.15 807.85,-256.92 737.26,-246.28"/>
<polygon fill="#63b8ff" stroke="#63b8ff" points="997.6,-289.09 1008.01,-287.12 998.64,-282.17 997.6,-289.09"/>
</a>
</g>
</g>
<!-- Node20&#45;&gt;Node15 -->
<g id="edge47_Node000020_Node000015" class="edge">
<title>Node20&#45;&gt;Node15</title>
<g id="a_edge47_Node000020_Node000015"><a xlink:title=" ">
<path fill="none" stroke="#63b8ff" d="M1051.29,-274.72C1073.48,-251.67 1112.91,-210.7 1130.04,-192.9"/>
<polygon fill="#63b8ff" stroke="#63b8ff" points="1048.92,-272.13 1044.51,-281.76 1053.96,-276.99 1048.92,-272.13"/>
</a>
</g>
</g>
<!-- Node21 -->
<g id="Node000021" class="node">
<title>Node21</title>
<g id="a_Node000021"><a xlink:href="plotter_8cpp.html" target="_top" xlink:title="Helper function to plot maps.">
<polygon fill="white" stroke="#666666" points="1183.25,-247 1121.5,-247 1121.5,-228.5 1183.25,-228.5 1183.25,-247"/>
<text text-anchor="middle" x="1152.38" y="-233.5" font-family="Helvetica,sans-Serif" font-size="10.00">plotter.cpp</text>
</a>
</g>
</g>
<!-- Node20&#45;&gt;Node21 -->
<g id="edge49_Node000020_Node000021" class="edge">
<title>Node20&#45;&gt;Node21</title>
<g id="a_edge49_Node000020_Node000021"><a xlink:title=" ">
<path fill="none" stroke="#63b8ff" d="M1065.14,-277.89C1086.46,-268.33 1114.56,-255.72 1133.03,-247.43"/>
<polygon fill="#63b8ff" stroke="#63b8ff" points="1063.77,-274.67 1056.08,-281.96 1066.63,-281.06 1063.77,-274.67"/>
</a>
</g>
</g>
</g>
</svg>

<g id="navigator" transform="translate(0 0)" fill="#404254">
  <rect fill="#f2f5e9" fill-opacity="0.5" stroke="#606060" stroke-width=".5" x="0" y="0" width="60" height="60"/>
  <use id="zoomplus" xlink:href="#zoomPlus" x="17" y="9" onmousedown="handleZoom(evt,'in')"/>
  <use id="zoomminus" xlink:href="#zoomMin" x="42" y="9" onmousedown="handleZoom(evt,'out')"/>
  <use id="reset" xlink:href="#resetDef" x="30" y="36" onmousedown="handleReset()"/>
   <use id="arrowup" xlink:href="#arrowUp" x="0" y="0" onmousedown="handlePan(0,-1)"/>
  <use id="arrowright" xlink:href="#arrowRight" x="0" y="0" onmousedown="handlePan(1,0)"/>
  <use id="arrowdown" xlink:href="#arrowDown" x="0" y="0" onmousedown="handlePan(0,1)"/>
  <use id="arrowleft" xlink:href="#arrowLeft" x="0" y="0" onmousedown="handlePan(-1,0)"/>
</g>
<svg viewBox="0 0 15 15" width="100%" height="30px" preserveAspectRatio="xMaxYMin meet">
 <g id="arrow_out" transform="scale(0.3 0.3)">
  <a xlink:href="constants_8h__dep__incl_org.svg" target="_base">
   <rect id="button" ry="5" rx="5" y="6" x="6" height="38" width="38"
        fill="#f2f5e9" fill-opacity="0.5" stroke="#606060" stroke-width="1.0"/>
   <path id="arrow"
     d="M 11.500037,31.436501 C 11.940474,20.09759 22.043105,11.32322 32.158766,21.979434 L 37.068811,17.246167 C 37.068811,17.246167 37.088388,32 37.088388,32 L 22.160133,31.978069 C 22.160133,31.978069 26.997745,27.140456 26.997745,27.140456 C 18.528582,18.264221 13.291696,25.230495 11.500037,31.436501 z"
     style="fill:#404040;"/>
  </a>
 </g>
</svg>

<style type='text/css'>
<![CDATA[
[data-mouse-over-selected='false'] { opacity: 0.7; }
[data-mouse-over-selected='true']  { opacity: 1.0; }
]]>
</style>
<script type="application/ecmascript"><![CDATA[
document.addEventListener('DOMContentLoaded', (event) => {
  highlightEdges();
  highlightAdjacentNodes();
});
]]></script>
</svg>
