<?xml version="1.0" encoding="UTF-8" standalone="no"?>
<!DOCTYPE svg PUBLIC "-//W3C//DTD SVG 1.1//EN"
 "http://www.w3.org/Graphics/SVG/1.1/DTD/svg11.dtd">
<!-- Generated by graphviz version 12.1.2 (0)
 -->
<!-- Title: constants.h Pages: 1 -->
<!--zoomable 364 -->

<svg id="main" version="1.1" xmlns="http://www.w3.org/2000/svg" xmlns:xlink="http://www.w3.org/1999/xlink" xml:space="preserve" onload="init(evt)">

<style type="text/css"><![CDATA[
.node, .edge {opacity: 0.7;}
.node.selected, .edge.selected {opacity: 1;}
.edge:hover path { stroke: red; }
.edge:hover polygon { stroke: red; fill: red; }
]]></style>

<defs>
  <circle id="rim" cx="0" cy="0" r="7"/>
  <circle id="rim2" cx="0" cy="0" r="3.5"/>
  <g id="zoomPlus">
    <use xlink:href="#rim" fill="#404040"><set attributeName="fill" to="#808080" begin="zoomplus.mouseover" end="zoomplus.mouseout"/></use>
    <path d="M-4,0h8M0,-4v8" fill="none" stroke="white" stroke-width="1.5" pointer-events="none"/>
  </g>
  <g id="zoomMin">
    <use xlink:href="#rim" fill="#404040"><set attributeName="fill" to="#808080" begin="zoomminus.mouseover" end="zoomminus.mouseout"/></use>
    <path d="M-4,0h8" fill="none" stroke="white" stroke-width="1.5" pointer-events="none"/>
  </g>
  <g id="arrowUp" transform="translate(30 24)">
    <use xlink:href="#rim"/>
    <path pointer-events="none" fill="none" stroke="white" stroke-width="1.5" d="M0,-3.0v7 M-2.5,-0.5L0,-3.0L2.5,-0.5"/>
  </g>
  <g id="arrowRight" transform="rotate(90) translate(36 -43)">
    <use xlink:href="#rim"/>
    <path pointer-events="none" fill="none" stroke="white" stroke-width="1.5" d="M0,-3.0v7 M-2.5,-0.5L0,-3.0L2.5,-0.5"/>
  </g>
  <g id="arrowDown" transform="rotate(180) translate(-30 -48)">
    <use xlink:href="#rim"/>
    <path pointer-events="none" fill="none" stroke="white" stroke-width="1.5" d="M0,-3.0v7 M-2.5,-0.5L0,-3.0L2.5,-0.5"/>
  </g>
  <g id="arrowLeft" transform="rotate(270) translate(-36 17)">
    <use xlink:href="#rim"/>
    <path pointer-events="none" fill="none" stroke="white" stroke-width="1.5" d="M0,-3.0v7 M-2.5,-0.5L0,-3.0L2.5,-0.5"/>
  </g>
  <g id="resetDef">
    <use xlink:href="#rim2" fill="#404040"><set attributeName="fill" to="#808080" begin="reset.mouseover" end="reset.mouseout"/></use>
  </g>
</defs>
<script type="application/ecmascript">
var viewWidth = 1439;
var viewHeight = 364;
var sectionId = 'dynsection-1';
</script>
<script type="application/ecmascript" xlink:href="svg.min.js"/>
<svg id="graph" class="graph">
<g id="viewport">
<title>constants.h</title>
<!-- Node1 -->
<g id="Node000001" class="node">
<title>Node1</title>
<g id="a_Node000001"><a xlink:title="Constants for the CoverageControl library.">
<polygon fill="#999999" stroke="#666666" points="1100.38,-356 1033.38,-356 1033.38,-337.5 1100.38,-337.5 1100.38,-356"/>
<text text-anchor="middle" x="1066.88" y="-342.5" font-family="Helvetica,sans-Serif" font-size="10.00">constants.h</text>
</a>
</g>
</g>
<!-- Node2 -->
<g id="Node000002" class="node">
<title>Node2</title>
<g id="a_Node000002"><a xlink:href="bivariate__normal__distribution_8h.html" target="_top" xlink:title="Class for Bivariate Normal Distribution.">
<polygon fill="white" stroke="#666666" points="877.5,-301.5 730.25,-301.5 730.25,-283 877.5,-283 877.5,-301.5"/>
<text text-anchor="middle" x="803.88" y="-288" font-family="Helvetica,sans-Serif" font-size="10.00">bivariate_normal_distribution.h</text>
</a>
</g>
</g>
<!-- Node1&#45;&gt;Node2 -->
<g id="edge1_Node000001_Node000002" class="edge">
<title>Node1&#45;&gt;Node2</title>
<g id="a_edge1_Node000001_Node000002"><a xlink:title=" ">
<path fill="none" stroke="#63b8ff" d="M1021.89,-336.77C973.15,-327.04 895.91,-311.62 847.65,-301.99"/>
<polygon fill="#63b8ff" stroke="#63b8ff" points="1021.05,-340.17 1031.55,-338.7 1022.43,-333.31 1021.05,-340.17"/>
</a>
</g>
</g>
<!-- Node3 -->
<g id="Node000003" class="node">
<title>Node3</title>
<g id="a_Node000003"><a xlink:href="coverage__system_8h.html" target="_top" xlink:title="The file contains the CoverageSystem class, which is the main class for the coverage control library.">
<polygon fill="white" stroke="#666666" points="751.5,-138 652.25,-138 652.25,-119.5 751.5,-119.5 751.5,-138"/>
<text text-anchor="middle" x="701.88" y="-124.5" font-family="Helvetica,sans-Serif" font-size="10.00">coverage_system.h</text>
</a>
</g>
</g>
<!-- Node1&#45;&gt;Node3 -->
<g id="edge19_Node000001_Node000003" class="edge">
<title>Node1&#45;&gt;Node3</title>
<g id="a_edge19_Node000001_Node000003"><a xlink:title=" ">
<path fill="none" stroke="#63b8ff" d="M1021.41,-346.6C937.2,-347.15 761.79,-343.11 720.88,-301.5 675.87,-255.72 692.83,-166.46 699.61,-138.41"/>
<polygon fill="#63b8ff" stroke="#63b8ff" points="1021.43,-350.1 1031.39,-346.51 1021.36,-343.1 1021.43,-350.1"/>
</a>
</g>
</g>
<!-- Node14 -->
<g id="Node000014" class="node">
<title>Node14</title>
<g id="a_Node000014"><a xlink:href="robot__model_8h.html" target="_top" xlink:title="Class for handling the robot model.">
<polygon fill="white" stroke="#666666" points="936.62,-192.5 859.12,-192.5 859.12,-174 936.62,-174 936.62,-192.5"/>
<text text-anchor="middle" x="897.88" y="-179" font-family="Helvetica,sans-Serif" font-size="10.00">robot_model.h</text>
</a>
</g>
</g>
<!-- Node1&#45;&gt;Node14 -->
<g id="edge22_Node000001_Node000014" class="edge">
<title>Node1&#45;&gt;Node14</title>
<g id="a_edge22_Node000001_Node000014"><a xlink:title=" ">
<path fill="none" stroke="#63b8ff" d="M1038.37,-332.09C1006.88,-315.75 956.44,-285.66 924.88,-247 911.22,-230.28 903.34,-205.62 899.92,-192.76"/>
<polygon fill="#63b8ff" stroke="#63b8ff" points="1036.42,-335.03 1046.92,-336.42 1039.58,-328.78 1036.42,-335.03"/>
</a>
</g>
</g>
<!-- Node15 -->
<g id="Node000015" class="node">
<title>Node15</title>
<g id="a_Node000015"><a xlink:href="world__idf_8cpp.html" target="_top" xlink:title="Contains the implementation of the WorldIDF class.">
<polygon fill="white" stroke="#666666" points="1121,-192.5 1048.75,-192.5 1048.75,-174 1121,-174 1121,-192.5"/>
<text text-anchor="middle" x="1084.88" y="-179" font-family="Helvetica,sans-Serif" font-size="10.00">world_idf.cpp</text>
</a>
</g>
</g>
<!-- Node1&#45;&gt;Node15 -->
<g id="edge25_Node000001_Node000015" class="edge">
<title>Node1&#45;&gt;Node15</title>
<g id="a_edge25_Node000001_Node000015"><a xlink:title=" ">
<path fill="none" stroke="#63b8ff" d="M1054.34,-327.52C1049.78,-319.85 1045.18,-310.6 1042.88,-301.5 1040.85,-293.53 1041.23,-291.06 1042.88,-283 1050.06,-247.77 1070.28,-209.53 1079.8,-192.85"/>
<polygon fill="#63b8ff" stroke="#63b8ff" points="1051.35,-329.35 1059.69,-335.87 1057.24,-325.56 1051.35,-329.35"/>
</a>
</g>
</g>
<!-- Node16 -->
<g id="Node000016" class="node">
<title>Node16</title>
<g id="a_Node000016"><a xlink:href="generate__world__map_8cu.html" target="_top" xlink:title="File for generating the world map IDF using CUDA.">
<polygon fill="white" stroke="#666666" points="1170.25,-301.5 1051.5,-301.5 1051.5,-283 1170.25,-283 1170.25,-301.5"/>
<text text-anchor="middle" x="1110.88" y="-288" font-family="Helvetica,sans-Serif" font-size="10.00">generate_world_map.cu</text>
</a>
</g>
</g>
<!-- Node1&#45;&gt;Node16 -->
<g id="edge20_Node000001_Node000016" class="edge">
<title>Node1&#45;&gt;Node16</title>
<g id="a_edge20_Node000001_Node000016"><a xlink:title=" ">
<path fill="none" stroke="#63b8ff" d="M1081.32,-328.52C1088.84,-319.54 1097.7,-308.97 1103.74,-301.76"/>
<polygon fill="#63b8ff" stroke="#63b8ff" points="1078.85,-326.01 1075.11,-335.92 1084.22,-330.5 1078.85,-326.01"/>
</a>
</g>
</g>
<!-- Node17 -->
<g id="Node000017" class="node">
<title>Node17</title>
<g id="a_Node000017"><a xlink:href="polygon__utils_8cpp.html" target="_top" xlink:title="Helper functions for polygon operations using CGAL.">
<polygon fill="white" stroke="#666666" points="1279.38,-301.5 1188.38,-301.5 1188.38,-283 1279.38,-283 1279.38,-301.5"/>
<text text-anchor="middle" x="1233.88" y="-288" font-family="Helvetica,sans-Serif" font-size="10.00">polygon_utils.cpp</text>
</a>
</g>
</g>
<!-- Node1&#45;&gt;Node17 -->
<g id="edge21_Node000001_Node000017" class="edge">
<title>Node1&#45;&gt;Node17</title>
<g id="a_edge21_Node000001_Node000017"><a xlink:title=" ">
<path fill="none" stroke="#63b8ff" d="M1105.24,-333.69C1136.08,-323.99 1178.68,-310.6 1206.26,-301.93"/>
<polygon fill="#63b8ff" stroke="#63b8ff" points="1104.39,-330.29 1095.9,-336.63 1106.48,-336.97 1104.39,-330.29"/>
</a>
</g>
</g>
<!-- Node18 -->
<g id="Node000018" class="node">
<title>Node18</title>
<g id="a_Node000018"><a xlink:href="vec2d_8h.html" target="_top" xlink:title="Contains Vec2d class for 2D vector.">
<polygon fill="white" stroke="#666666" points="1346.75,-301.5 1297,-301.5 1297,-283 1346.75,-283 1346.75,-301.5"/>
<text text-anchor="middle" x="1321.88" y="-288" font-family="Helvetica,sans-Serif" font-size="10.00">vec2d.h</text>
</a>
</g>
</g>
<!-- Node1&#45;&gt;Node18 -->
<g id="edge23_Node000001_Node000018" class="edge">
<title>Node1&#45;&gt;Node18</title>
<g id="a_edge23_Node000001_Node000018"><a xlink:title=" ">
<path fill="none" stroke="#63b8ff" d="M1111.96,-337.42C1156.9,-328.97 1227.85,-315.2 1288.88,-301.5 1291.41,-300.93 1294.05,-300.31 1296.68,-299.68"/>
<polygon fill="#63b8ff" stroke="#63b8ff" points="1111.5,-333.95 1102.32,-339.23 1112.79,-340.83 1111.5,-333.95"/>
</a>
</g>
</g>
<!-- Node19 -->
<g id="Node000019" class="node">
<title>Node19</title>
<g id="a_Node000019"><a xlink:href="voronoi_8cpp.html" target="_top" xlink:title="Functions to compute Centroidal Voronoi Tessellation.">
<polygon fill="white" stroke="#666666" points="1430.62,-301.5 1365.12,-301.5 1365.12,-283 1430.62,-283 1430.62,-301.5"/>
<text text-anchor="middle" x="1397.88" y="-288" font-family="Helvetica,sans-Serif" font-size="10.00">voronoi.cpp</text>
</a>
</g>
</g>
<!-- Node1&#45;&gt;Node19 -->
<g id="edge24_Node000001_Node000019" class="edge">
<title>Node1&#45;&gt;Node19</title>
<g id="a_edge24_Node000001_Node000019"><a xlink:title=" ">
<path fill="none" stroke="#63b8ff" d="M1111.88,-339.46C1168.81,-331.36 1269.8,-316.54 1355.88,-301.5 1358.8,-300.99 1361.84,-300.44 1364.88,-299.87"/>
<polygon fill="#63b8ff" stroke="#63b8ff" points="1111.67,-335.95 1102.26,-340.82 1112.66,-342.88 1111.67,-335.95"/>
</a>
</g>
</g>
<!-- Node2&#45;&gt;Node3 -->
<g id="edge2_Node000002_Node000003" class="edge">
<title>Node2&#45;&gt;Node3</title>
<g id="a_edge2_Node000002_Node000003"><a xlink:title=" ">
<path fill="none" stroke="#63b8ff" d="M792.47,-273.2C770.6,-238.56 723.47,-163.94 707.39,-138.48"/>
<polygon fill="#63b8ff" stroke="#63b8ff" points="789.28,-274.7 797.58,-281.29 795.2,-270.96 789.28,-274.7"/>
</a>
</g>
</g>
<!-- Node13 -->
<g id="Node000013" class="node">
<title>Node13</title>
<g id="a_Node000013"><a xlink:href="world__idf_8h.html" target="_top" xlink:title="Contains the class for Importance Density Function (IDF) for the world.">
<polygon fill="white" stroke="#666666" points="995.75,-247 934,-247 934,-228.5 995.75,-228.5 995.75,-247"/>
<text text-anchor="middle" x="964.88" y="-233.5" font-family="Helvetica,sans-Serif" font-size="10.00">world_idf.h</text>
</a>
</g>
</g>
<!-- Node2&#45;&gt;Node13 -->
<g id="edge13_Node000002_Node000013" class="edge">
<title>Node2&#45;&gt;Node13</title>
<g id="a_edge13_Node000002_Node000013"><a xlink:title=" ">
<path fill="none" stroke="#63b8ff" d="M841.25,-279.06C870.96,-269.38 911.78,-256.06 938.25,-247.43"/>
<polygon fill="#63b8ff" stroke="#63b8ff" points="840.32,-275.68 831.9,-282.11 842.49,-282.34 840.32,-275.68"/>
</a>
</g>
</g>
<!-- Node4 -->
<g id="Node000004" class="node">
<title>Node4</title>
<g id="a_Node000004"><a xlink:href="centralized__cvt_8h.html" target="_top" xlink:title="Contains the class CentralizedCVT.">
<polygon fill="white" stroke="#666666" points="848.25,-78.25 759.5,-78.25 759.5,-59.75 848.25,-59.75 848.25,-78.25"/>
<text text-anchor="middle" x="803.88" y="-64.75" font-family="Helvetica,sans-Serif" font-size="10.00">centralized_cvt.h</text>
</a>
</g>
</g>
<!-- Node3&#45;&gt;Node4 -->
<g id="edge3_Node000003_Node000004" class="edge">
<title>Node3&#45;&gt;Node4</title>
<g id="a_edge3_Node000003_Node000004"><a xlink:title=" ">
<path fill="none" stroke="#63b8ff" d="M726.82,-113.63C746.07,-102.73 772.09,-87.99 788.43,-78.75"/>
<polygon fill="#63b8ff" stroke="#63b8ff" points="725.22,-110.51 718.24,-118.48 728.67,-116.6 725.22,-110.51"/>
</a>
</g>
</g>
<!-- Node5 -->
<g id="Node000005" class="node">
<title>Node5</title>
<g id="a_Node000005"><a xlink:href="clairvoyant__cvt_8h.html" target="_top" xlink:title="Clairvoyant CVT algorithm.">
<polygon fill="white" stroke="#666666" points="955.25,-78.25 866.5,-78.25 866.5,-59.75 955.25,-59.75 955.25,-78.25"/>
<text text-anchor="middle" x="910.88" y="-64.75" font-family="Helvetica,sans-Serif" font-size="10.00">clairvoyant_cvt.h</text>
</a>
</g>
</g>
<!-- Node3&#45;&gt;Node5 -->
<g id="edge4_Node000003_Node000005" class="edge">
<title>Node3&#45;&gt;Node5</title>
<g id="a_edge4_Node000003_Node000005"><a xlink:title=" ">
<path fill="none" stroke="#63b8ff" d="M744.16,-116.07C784.18,-105.01 843.34,-88.66 879.37,-78.7"/>
<polygon fill="#63b8ff" stroke="#63b8ff" points="743.33,-112.66 734.62,-118.7 745.19,-119.41 743.33,-112.66"/>
</a>
</g>
</g>
<!-- Node6 -->
<g id="Node000006" class="node">
<title>Node6</title>
<g id="a_Node000006"><a xlink:href="coverage__algorithm_8cpp.html" target="_top" xlink:title="Program to test the CVT&#45;based (Lloyd&#39;s) coverage control algorithms.">
<polygon fill="white" stroke="#666666" points="1042.25,-18.5 923.5,-18.5 923.5,0 1042.25,0 1042.25,-18.5"/>
<text text-anchor="middle" x="982.88" y="-5" font-family="Helvetica,sans-Serif" font-size="10.00">coverage_algorithm.cpp</text>
</a>
</g>
</g>
<!-- Node3&#45;&gt;Node6 -->
<g id="edge6_Node000003_Node000006" class="edge">
<title>Node3&#45;&gt;Node6</title>
<g id="a_edge6_Node000003_Node000006"><a xlink:title=" ">
<path fill="none" stroke="#63b8ff" d="M763.31,-124.94C831.37,-120.57 935.31,-109.69 963.88,-83.5 982.27,-66.63 983.83,-34.45 983.41,-18.98"/>
<polygon fill="#63b8ff" stroke="#63b8ff" points="763.16,-121.45 753.39,-125.55 763.58,-128.43 763.16,-121.45"/>
</a>
</g>
</g>
<!-- Node7 -->
<g id="Node000007" class="node">
<title>Node7</title>
<g id="a_Node000007"><a xlink:href="coverage__system_8cpp.html" target="_top" xlink:title="Contains the implementation of the CoverageSystem class.">
<polygon fill="white" stroke="#666666" points="109.75,-78.25 0,-78.25 0,-59.75 109.75,-59.75 109.75,-78.25"/>
<text text-anchor="middle" x="54.88" y="-64.75" font-family="Helvetica,sans-Serif" font-size="10.00">coverage_system.cpp</text>
</a>
</g>
</g>
<!-- Node3&#45;&gt;Node7 -->
<g id="edge7_Node000003_Node000007" class="edge">
<title>Node3&#45;&gt;Node7</title>
<g id="a_edge7_Node000003_Node000007"><a xlink:title=" ">
<path fill="none" stroke="#63b8ff" d="M640.64,-125.76C534.12,-121.72 307.99,-110.5 118.88,-83.5 110.11,-82.25 100.74,-80.51 91.95,-78.69"/>
<polygon fill="#63b8ff" stroke="#63b8ff" points="640.48,-129.26 650.6,-126.13 640.73,-122.27 640.48,-129.26"/>
</a>
</g>
</g>
<!-- Node8 -->
<g id="Node000008" class="node">
<title>Node8</title>
<g id="a_Node000008"><a xlink:href="decentralized__cvt_8h.html" target="_top" xlink:title="Contains the DecentralizedCVT class.">
<polygon fill="white" stroke="#666666" points="227.5,-78.25 128.25,-78.25 128.25,-59.75 227.5,-59.75 227.5,-78.25"/>
<text text-anchor="middle" x="177.88" y="-64.75" font-family="Helvetica,sans-Serif" font-size="10.00">decentralized_cvt.h</text>
</a>
</g>
</g>
<!-- Node3&#45;&gt;Node8 -->
<g id="edge8_Node000003_Node000008" class="edge">
<title>Node3&#45;&gt;Node8</title>
<g id="a_edge8_Node000003_Node000008"><a xlink:title=" ">
<path fill="none" stroke="#63b8ff" d="M640.81,-124.48C551.62,-119.12 380.68,-106.69 236.88,-83.5 228.89,-82.21 220.37,-80.48 212.36,-78.68"/>
<polygon fill="#63b8ff" stroke="#63b8ff" points="640.36,-127.96 650.54,-125.05 640.77,-120.97 640.36,-127.96"/>
</a>
</g>
</g>
<!-- Node9 -->
<g id="Node000009" class="node">
<title>Node9</title>
<g id="a_Node000009"><a xlink:href="near__optimal__cvt_8h.html" target="_top" xlink:title="NearOptimalCVT class Global offline oracle: has complete information about the environment....">
<polygon fill="white" stroke="#666666" points="343.75,-78.25 246,-78.25 246,-59.75 343.75,-59.75 343.75,-78.25"/>
<text text-anchor="middle" x="294.88" y="-64.75" font-family="Helvetica,sans-Serif" font-size="10.00">near_optimal_cvt.h</text>
</a>
</g>
</g>
<!-- Node3&#45;&gt;Node9 -->
<g id="edge9_Node000003_Node000009" class="edge">
<title>Node3&#45;&gt;Node9</title>
<g id="a_edge9_Node000003_Node000009"><a xlink:title=" ">
<path fill="none" stroke="#63b8ff" d="M640.71,-121.91C570.8,-114.8 453.1,-101.47 352.88,-83.5 345.34,-82.15 337.32,-80.45 329.72,-78.72"/>
<polygon fill="#63b8ff" stroke="#63b8ff" points="640.12,-125.37 650.42,-122.89 640.82,-118.41 640.12,-125.37"/>
</a>
</g>
</g>
<!-- Node10 -->
<g id="Node000010" class="node">
<title>Node10</title>
<g id="a_Node000010"><a xlink:href="oracle__bang__explore__exploit_8h.html" target="_top" xlink:title="First trial of oracle with exploration and exploitation. The oracle uses complete information about t...">
<polygon fill="white" stroke="#666666" points="467.5,-83.5 362.25,-83.5 362.25,-54.5 467.5,-54.5 467.5,-83.5"/>
<text text-anchor="start" x="370.25" y="-70" font-family="Helvetica,sans-Serif" font-size="10.00">oracle_bang_explore</text>
<text text-anchor="middle" x="414.88" y="-59.5" font-family="Helvetica,sans-Serif" font-size="10.00">_exploit.h</text>
</a>
</g>
</g>
<!-- Node3&#45;&gt;Node10 -->
<g id="edge10_Node000003_Node000010" class="edge">
<title>Node3&#45;&gt;Node10</title>
<g id="a_edge10_Node000003_Node000010"><a xlink:title=" ">
<path fill="none" stroke="#63b8ff" d="M645.01,-116.9C599.49,-108.13 534.02,-95.34 476.88,-83.5 473.96,-82.9 470.97,-82.27 467.96,-81.63"/>
<polygon fill="#63b8ff" stroke="#63b8ff" points="644.17,-120.3 654.66,-118.75 645.5,-113.43 644.17,-120.3"/>
</a>
</g>
</g>
<!-- Node11 -->
<g id="Node000011" class="node">
<title>Node11</title>
<g id="a_Node000011"><a xlink:href="oracle__explore__exploit_8h.html" target="_top" xlink:title="Old trial of exploration and exploitation Uses system map for exploration as well.">
<polygon fill="white" stroke="#666666" points="606,-78.25 485.75,-78.25 485.75,-59.75 606,-59.75 606,-78.25"/>
<text text-anchor="middle" x="545.88" y="-64.75" font-family="Helvetica,sans-Serif" font-size="10.00">oracle_explore_exploit.h</text>
</a>
</g>
</g>
<!-- Node3&#45;&gt;Node11 -->
<g id="edge11_Node000003_Node000011" class="edge">
<title>Node3&#45;&gt;Node11</title>
<g id="a_edge11_Node000003_Node000011"><a xlink:title=" ">
<path fill="none" stroke="#63b8ff" d="M667.78,-115.13C638,-104.1 595.53,-88.38 569.39,-78.7"/>
<polygon fill="#63b8ff" stroke="#63b8ff" points="666.51,-118.39 677.1,-118.58 668.94,-111.82 666.51,-118.39"/>
</a>
</g>
</g>
<!-- Node12 -->
<g id="Node000012" class="node">
<title>Node12</title>
<g id="a_Node000012"><a xlink:href="simul__explore__exploit_8h.html" target="_top" xlink:title="Simultaneous exploration and exploitation algorithm Uses frontier&#45;based exploration with bias towards...">
<polygon fill="white" stroke="#666666" points="741.5,-78.25 624.25,-78.25 624.25,-59.75 741.5,-59.75 741.5,-78.25"/>
<text text-anchor="middle" x="682.88" y="-64.75" font-family="Helvetica,sans-Serif" font-size="10.00">simul_explore_exploit.h</text>
</a>
</g>
</g>
<!-- Node3&#45;&gt;Node12 -->
<g id="edge12_Node000003_Node000012" class="edge">
<title>Node3&#45;&gt;Node12</title>
<g id="a_edge12_Node000003_Node000012"><a xlink:title=" ">
<path fill="none" stroke="#63b8ff" d="M695.54,-108.49C692.2,-98.35 688.28,-86.42 685.69,-78.56"/>
<polygon fill="#63b8ff" stroke="#63b8ff" points="692.15,-109.39 698.6,-117.79 698.8,-107.2 692.15,-109.39"/>
</a>
</g>
</g>
<!-- Node5&#45;&gt;Node6 -->
<g id="edge5_Node000005_Node000006" class="edge">
<title>Node5&#45;&gt;Node6</title>
<g id="a_edge5_Node000005_Node000006"><a xlink:title=" ">
<path fill="none" stroke="#63b8ff" d="M930.46,-52.29C943.9,-41.51 961.24,-27.61 972.21,-18.81"/>
<polygon fill="#63b8ff" stroke="#63b8ff" points="928.29,-49.54 922.68,-58.53 932.67,-55.01 928.29,-49.54"/>
</a>
</g>
</g>
<!-- Node13&#45;&gt;Node3 -->
<g id="edge15_Node000013_Node000003" class="edge">
<title>Node13&#45;&gt;Node3</title>
<g id="a_edge15_Node000013_Node000003"><a xlink:title=" ">
<path fill="none" stroke="#63b8ff" d="M964.12,-217.02C962.49,-202.99 957.97,-184.79 945.88,-174 917.84,-149 814.65,-137.52 751.79,-132.75"/>
<polygon fill="#63b8ff" stroke="#63b8ff" points="960.62,-217.17 964.83,-226.89 967.6,-216.67 960.62,-217.17"/>
</a>
</g>
</g>
<!-- Node13&#45;&gt;Node6 -->
<g id="edge14_Node000013_Node000006" class="edge">
<title>Node13&#45;&gt;Node6</title>
<g id="a_edge14_Node000013_Node000006"><a xlink:title=" ">
<path fill="none" stroke="#63b8ff" d="M968.43,-217.15C973.51,-188.1 982.58,-131.81 985.88,-83.5 986.75,-70.64 986.31,-67.38 985.88,-54.5 985.45,-42.03 984.36,-27.62 983.62,-18.72"/>
<polygon fill="#63b8ff" stroke="#63b8ff" points="965.05,-216.2 966.74,-226.66 971.94,-217.43 965.05,-216.2"/>
</a>
</g>
</g>
<!-- Node13&#45;&gt;Node14 -->
<g id="edge16_Node000013_Node000014" class="edge">
<title>Node13&#45;&gt;Node14</title>
<g id="a_edge16_Node000013_Node000014"><a xlink:title=" ">
<path fill="none" stroke="#63b8ff" d="M945.03,-221.2C933.15,-211.89 918.52,-200.43 908.73,-192.76"/>
<polygon fill="#63b8ff" stroke="#63b8ff" points="942.59,-223.73 952.62,-227.15 946.91,-218.22 942.59,-223.73"/>
</a>
</g>
</g>
<!-- Node13&#45;&gt;Node15 -->
<g id="edge18_Node000013_Node000015" class="edge">
<title>Node13&#45;&gt;Node15</title>
<g id="a_edge18_Node000013_Node000015"><a xlink:title=" ">
<path fill="none" stroke="#63b8ff" d="M995.1,-223.53C1017.01,-213.94 1046,-201.26 1065.03,-192.93"/>
<polygon fill="#63b8ff" stroke="#63b8ff" points="993.84,-220.26 986.08,-227.47 996.64,-226.67 993.84,-220.26"/>
</a>
</g>
</g>
<!-- Node14&#45;&gt;Node3 -->
<g id="edge17_Node000014_Node000003" class="edge">
<title>Node14&#45;&gt;Node3</title>
<g id="a_edge17_Node000014_Node000003"><a xlink:title=" ">
<path fill="none" stroke="#63b8ff" d="M854.75,-170.7C818.41,-160.96 767.22,-147.25 734.29,-138.43"/>
<polygon fill="#63b8ff" stroke="#63b8ff" points="853.48,-173.98 864.05,-173.19 855.29,-167.22 853.48,-173.98"/>
</a>
</g>
</g>
</g>
</svg>

<g id="navigator" transform="translate(0 0)" fill="#404254">
  <rect fill="#f2f5e9" fill-opacity="0.5" stroke="#606060" stroke-width=".5" x="0" y="0" width="60" height="60"/>
  <use id="zoomplus" xlink:href="#zoomPlus" x="17" y="9" onmousedown="handleZoom(evt,'in')"/>
  <use id="zoomminus" xlink:href="#zoomMin" x="42" y="9" onmousedown="handleZoom(evt,'out')"/>
  <use id="reset" xlink:href="#resetDef" x="30" y="36" onmousedown="handleReset()"/>
   <use id="arrowup" xlink:href="#arrowUp" x="0" y="0" onmousedown="handlePan(0,-1)"/>
  <use id="arrowright" xlink:href="#arrowRight" x="0" y="0" onmousedown="handlePan(1,0)"/>
  <use id="arrowdown" xlink:href="#arrowDown" x="0" y="0" onmousedown="handlePan(0,1)"/>
  <use id="arrowleft" xlink:href="#arrowLeft" x="0" y="0" onmousedown="handlePan(-1,0)"/>
</g>
<svg viewBox="0 0 15 15" width="100%" height="30px" preserveAspectRatio="xMaxYMin meet">
 <g id="arrow_out" transform="scale(0.3 0.3)">
  <a xlink:href="constants_8h__dep__incl_org.svg" target="_base">
   <rect id="button" ry="5" rx="5" y="6" x="6" height="38" width="38"
        fill="#f2f5e9" fill-opacity="0.5" stroke="#606060" stroke-width="1.0"/>
   <path id="arrow"
     d="M 11.500037,31.436501 C 11.940474,20.09759 22.043105,11.32322 32.158766,21.979434 L 37.068811,17.246167 C 37.068811,17.246167 37.088388,32 37.088388,32 L 22.160133,31.978069 C 22.160133,31.978069 26.997745,27.140456 26.997745,27.140456 C 18.528582,18.264221 13.291696,25.230495 11.500037,31.436501 z"
     style="fill:#404040;"/>
  </a>
 </g>
</svg>

<style type='text/css'>
<![CDATA[
[data-mouse-over-selected='false'] { opacity: 0.7; }
[data-mouse-over-selected='true']  { opacity: 1.0; }
]]>
</style>
<script type="application/ecmascript"><![CDATA[
document.addEventListener('DOMContentLoaded', (event) => {
  highlightEdges();
  highlightAdjacentNodes();
});
]]></script>
</svg>
