<?xml version="1.0" encoding="UTF-8" standalone="no"?>
<!DOCTYPE svg PUBLIC "-//W3C//DTD SVG 1.1//EN"
 "http://www.w3.org/Graphics/SVG/1.1/DTD/svg11.dtd">
<!-- Generated by graphviz version 10.0.1 (0)
 -->
<!-- Title: constants.h Pages: 1 -->
<!--zoomable 419 -->

<svg id="main" version="1.1" xmlns="http://www.w3.org/2000/svg" xmlns:xlink="http://www.w3.org/1999/xlink" xml:space="preserve" onload="init(evt)">
<style type="text/css"><![CDATA[
.node, .edge {opacity: 0.7;}
.node.selected, .edge.selected {opacity: 1;}
.edge:hover path { stroke: red; }
.edge:hover polygon { stroke: red; fill: red; }
]]></style>

<defs>
  <circle id="rim" cx="0" cy="0" r="7"/>
  <circle id="rim2" cx="0" cy="0" r="3.5"/>
  <g id="zoomPlus">
    <use xlink:href="#rim" fill="#404040"><set attributeName="fill" to="#808080" begin="zoomplus.mouseover" end="zoomplus.mouseout"/></use>
    <path d="M-4,0h8M0,-4v8" fill="none" stroke="white" stroke-width="1.5" pointer-events="none"/>
  </g>
  <g id="zoomMin">
    <use xlink:href="#rim" fill="#404040"><set attributeName="fill" to="#808080" begin="zoomminus.mouseover" end="zoomminus.mouseout"/></use>
    <path d="M-4,0h8" fill="none" stroke="white" stroke-width="1.5" pointer-events="none"/>
  </g>
  <g id="arrowUp" transform="translate(30 24)">
    <use xlink:href="#rim"/>
    <path pointer-events="none" fill="none" stroke="white" stroke-width="1.5" d="M0,-3.0v7 M-2.5,-0.5L0,-3.0L2.5,-0.5"/>
  </g>
  <g id="arrowRight" transform="rotate(90) translate(36 -43)">
    <use xlink:href="#rim"/>
    <path pointer-events="none" fill="none" stroke="white" stroke-width="1.5" d="M0,-3.0v7 M-2.5,-0.5L0,-3.0L2.5,-0.5"/>
  </g>
  <g id="arrowDown" transform="rotate(180) translate(-30 -48)">
    <use xlink:href="#rim"/>
    <path pointer-events="none" fill="none" stroke="white" stroke-width="1.5" d="M0,-3.0v7 M-2.5,-0.5L0,-3.0L2.5,-0.5"/>
  </g>
  <g id="arrowLeft" transform="rotate(270) translate(-36 17)">
    <use xlink:href="#rim"/>
    <path pointer-events="none" fill="none" stroke="white" stroke-width="1.5" d="M0,-3.0v7 M-2.5,-0.5L0,-3.0L2.5,-0.5"/>
  </g>
  <g id="resetDef">
    <use xlink:href="#rim2" fill="#404040"><set attributeName="fill" to="#808080" begin="reset.mouseover" end="reset.mouseout"/></use>
  </g>
</defs>
<script type="application/ecmascript">
var viewWidth = 1030;
var viewHeight = 419;
var sectionId = 'dynsection-1';
</script>
<script type="application/ecmascript" xlink:href="svg.min.js"/>
<svg id="graph" class="graph">
<g id="viewport">
<title>constants.h</title>
<!-- Node1 -->
<g id="Node000001" class="node">
<title>Node1</title>
<g id="a_Node000001"><a xlink:title="Constants for the CoverageControl library.">
<polygon fill="#999999" stroke="#666666" points="593,-410.5 526,-410.5 526,-392 593,-392 593,-410.5"/>
<text text-anchor="middle" x="559.5" y="-397" font-family="Helvetica,sans-Serif" font-size="10.00">constants.h</text>
</a>
</g>
</g>
<!-- Node2 -->
<g id="Node000002" class="node">
<title>Node2</title>
<g id="a_Node000002"><a xlink:href="bivariate__normal__distribution_8h.html" target="_top" xlink:title="Class for Bivariate Normal Distribution.">
<polygon fill="white" stroke="#666666" points="493.13,-356 345.88,-356 345.88,-337.5 493.13,-337.5 493.13,-356"/>
<text text-anchor="middle" x="419.5" y="-342.5" font-family="Helvetica,sans-Serif" font-size="10.00">bivariate_normal_distribution.h</text>
</a>
</g>
</g>
<!-- Node1&#45;&gt;Node2 -->
<g id="edge1_Node000001_Node000002" class="edge">
<title>Node1&#45;&gt;Node2</title>
<g id="a_edge1_Node000001_Node000002"><a xlink:title=" ">
<path fill="none" stroke="#63b8ff" d="M525.63,-387.55C499.92,-377.91 465.26,-364.91 442.65,-356.43"/>
<polygon fill="#63b8ff" stroke="#63b8ff" points="524.37,-390.82 534.97,-391.05 526.83,-384.26 524.37,-390.82"/>
</a>
</g>
</g>
<!-- Node3 -->
<g id="Node000003" class="node">
<title>Node3</title>
<g id="a_Node000003"><a xlink:href="coverage__system_8h.html" target="_top" xlink:title="The file contains the CoverageSystem class, which is the main class for the coverage control library.">
<polygon fill="white" stroke="#666666" points="576.13,-192.5 476.88,-192.5 476.88,-174 576.13,-174 576.13,-192.5"/>
<text text-anchor="middle" x="526.5" y="-179" font-family="Helvetica,sans-Serif" font-size="10.00">coverage_system.h</text>
</a>
</g>
</g>
<!-- Node1&#45;&gt;Node3 -->
<g id="edge26_Node000001_Node000003" class="edge">
<title>Node1&#45;&gt;Node3</title>
<g id="a_edge26_Node000001_Node000003"><a xlink:title=" ">
<path fill="none" stroke="#63b8ff" d="M558.56,-380.25C556.77,-348.01 551.95,-282.67 540.5,-228.5 537.83,-215.89 533.03,-201.75 529.81,-192.93"/>
<polygon fill="#63b8ff" stroke="#63b8ff" points="555.06,-380.26 559.07,-390.07 562.05,-379.9 555.06,-380.26"/>
</a>
</g>
</g>
<!-- Node14 -->
<g id="Node000014" class="node">
<title>Node14</title>
<g id="a_Node000014"><a xlink:href="world__idf_8h.html" target="_top" xlink:title="Contains the class for Importance Density Function (IDF) for the world.">
<polygon fill="white" stroke="#666666" points="397.38,-301.5 335.63,-301.5 335.63,-283 397.38,-283 397.38,-301.5"/>
<text text-anchor="middle" x="366.5" y="-288" font-family="Helvetica,sans-Serif" font-size="10.00">world_idf.h</text>
</a>
</g>
</g>
<!-- Node1&#45;&gt;Node14 -->
<g id="edge38_Node000001_Node000014" class="edge">
<title>Node1&#45;&gt;Node14</title>
<g id="a_edge38_Node000001_Node000014"><a xlink:title=" ">
<path fill="none" stroke="#63b8ff" d="M514.49,-397.87C455.95,-393.72 358.57,-382.88 336.5,-356 322.55,-339.02 343.6,-314.46 356.93,-301.69"/>
<polygon fill="#63b8ff" stroke="#63b8ff" points="513.92,-401.34 524.13,-398.51 514.38,-394.35 513.92,-401.34"/>
</a>
</g>
</g>
<!-- Node15 -->
<g id="Node000015" class="node">
<title>Node15</title>
<g id="a_Node000015"><a xlink:href="robot__model_8h.html" target="_top" xlink:title="Class for handling the robot model.">
<polygon fill="white" stroke="#666666" points="531.25,-247 453.75,-247 453.75,-228.5 531.25,-228.5 531.25,-247"/>
<text text-anchor="middle" x="492.5" y="-233.5" font-family="Helvetica,sans-Serif" font-size="10.00">robot_model.h</text>
</a>
</g>
</g>
<!-- Node1&#45;&gt;Node15 -->
<g id="edge28_Node000001_Node000015" class="edge">
<title>Node1&#45;&gt;Node15</title>
<g id="a_edge28_Node000001_Node000015"><a xlink:title=" ">
<path fill="none" stroke="#63b8ff" d="M551.64,-381.29C537.11,-346.28 506.6,-272.72 496.12,-247.48"/>
<polygon fill="#63b8ff" stroke="#63b8ff" points="548.25,-382.27 555.32,-390.17 554.72,-379.59 548.25,-382.27"/>
</a>
</g>
</g>
<!-- Node16 -->
<g id="Node000016" class="node">
<title>Node16</title>
<g id="a_Node000016"><a xlink:href="generate__world__map_8cu.html" target="_top" xlink:title="File for generating the world map IDF using CUDA.">
<polygon fill="white" stroke="#666666" points="705.88,-356 587.13,-356 587.13,-337.5 705.88,-337.5 705.88,-356"/>
<text text-anchor="middle" x="646.5" y="-342.5" font-family="Helvetica,sans-Serif" font-size="10.00">generate_world_map.cu</text>
</a>
</g>
</g>
<!-- Node1&#45;&gt;Node16 -->
<g id="edge27_Node000001_Node000016" class="edge">
<title>Node1&#45;&gt;Node16</title>
<g id="a_edge27_Node000001_Node000016"><a xlink:title=" ">
<path fill="none" stroke="#63b8ff" d="M583.4,-385.83C599.01,-376.41 618.88,-364.42 632.11,-356.43"/>
<polygon fill="#63b8ff" stroke="#63b8ff" points="581.92,-382.64 575.16,-390.8 585.53,-388.63 581.92,-382.64"/>
</a>
</g>
</g>
<!-- Node17 -->
<g id="Node000017" class="node">
<title>Node17</title>
<g id="a_Node000017"><a xlink:href="vec2d_8h.html" target="_top" xlink:title="Contains Vec2d class for 2D vector.">
<polygon fill="white" stroke="#666666" points="773.38,-356 723.63,-356 723.63,-337.5 773.38,-337.5 773.38,-356"/>
<text text-anchor="middle" x="748.5" y="-342.5" font-family="Helvetica,sans-Serif" font-size="10.00">vec2d.h</text>
</a>
</g>
</g>
<!-- Node1&#45;&gt;Node17 -->
<g id="edge29_Node000001_Node000017" class="edge">
<title>Node1&#45;&gt;Node17</title>
<g id="a_edge29_Node000001_Node000017"><a xlink:title=" ">
<path fill="none" stroke="#63b8ff" d="M601.74,-388.52C639.07,-378.15 692.26,-363.37 723.3,-354.75"/>
<polygon fill="#63b8ff" stroke="#63b8ff" points="600.87,-385.13 592.17,-391.18 602.74,-391.87 600.87,-385.13"/>
</a>
</g>
</g>
<!-- Node18 -->
<g id="Node000018" class="node">
<title>Node18</title>
<g id="a_Node000018"><a xlink:href="voronoi_8h.html" target="_top" xlink:title="Class for computing Voronoi cells.">
<polygon fill="white" stroke="#666666" points="686,-301.5 631,-301.5 631,-283 686,-283 686,-301.5"/>
<text text-anchor="middle" x="658.5" y="-288" font-family="Helvetica,sans-Serif" font-size="10.00">voronoi.h</text>
</a>
</g>
</g>
<!-- Node1&#45;&gt;Node18 -->
<g id="edge30_Node000001_Node000018" class="edge">
<title>Node1&#45;&gt;Node18</title>
<g id="a_edge30_Node000001_Node000018"><a xlink:title=" ">
<path fill="none" stroke="#63b8ff" d="M604.51,-397.87C663.05,-393.72 760.43,-382.88 782.5,-356 811.28,-320.94 730.92,-303.53 686.19,-296.76"/>
<polygon fill="#63b8ff" stroke="#63b8ff" points="604.62,-394.35 594.87,-398.51 605.08,-401.34 604.62,-394.35"/>
</a>
</g>
</g>
<!-- Node2&#45;&gt;Node3 -->
<g id="edge2_Node000002_Node000003" class="edge">
<title>Node2&#45;&gt;Node3</title>
<g id="a_edge2_Node000002_Node000003"><a xlink:title=" ">
<path fill="none" stroke="#63b8ff" d="M418.87,-325.8C419.09,-300.66 422.93,-257.29 444.5,-228.5 457.59,-211.02 479.68,-199.67 497.64,-192.85"/>
<polygon fill="#63b8ff" stroke="#63b8ff" points="415.37,-325.63 418.99,-335.59 422.37,-325.55 415.37,-325.63"/>
</a>
</g>
</g>
<!-- Node2&#45;&gt;Node14 -->
<g id="edge21_Node000002_Node000014" class="edge">
<title>Node2&#45;&gt;Node14</title>
<g id="a_edge21_Node000002_Node000014"><a xlink:title=" ">
<path fill="none" stroke="#63b8ff" d="M402.67,-329.08C393.5,-319.99 382.52,-309.12 375.09,-301.76"/>
<polygon fill="#63b8ff" stroke="#63b8ff" points="400.11,-331.46 409.67,-336.02 405.03,-326.49 400.11,-331.46"/>
</a>
</g>
</g>
<!-- Node4 -->
<g id="Node000004" class="node">
<title>Node4</title>
<g id="a_Node000004"><a xlink:href="abstract__controller_8h.html" target="_top" xlink:title="Contains the abstract class for coverage control algorithms.">
<polygon fill="white" stroke="#666666" points="479.75,-138 375.25,-138 375.25,-119.5 479.75,-119.5 479.75,-138"/>
<text text-anchor="middle" x="427.5" y="-124.5" font-family="Helvetica,sans-Serif" font-size="10.00">abstract_controller.h</text>
</a>
</g>
</g>
<!-- Node3&#45;&gt;Node4 -->
<g id="edge3_Node000003_Node000004" class="edge">
<title>Node3&#45;&gt;Node4</title>
<g id="a_edge3_Node000003_Node000004"><a xlink:title=" ">
<path fill="none" stroke="#63b8ff" d="M500.06,-168.23C482.19,-158.75 459.14,-146.53 443.87,-138.43"/>
<polygon fill="#63b8ff" stroke="#63b8ff" points="498.34,-171.28 508.82,-172.87 501.62,-165.09 498.34,-171.28"/>
</a>
</g>
</g>
<!-- Node5 -->
<g id="Node000005" class="node">
<title>Node5</title>
<g id="a_Node000005"><a xlink:href="centralized__cvt_8h.html" target="_top" xlink:title="Contains the class CentralizedCVT.">
<polygon fill="white" stroke="#666666" points="253.88,-78.25 165.13,-78.25 165.13,-59.75 253.88,-59.75 253.88,-78.25"/>
<text text-anchor="middle" x="209.5" y="-64.75" font-family="Helvetica,sans-Serif" font-size="10.00">centralized_cvt.h</text>
</a>
</g>
</g>
<!-- Node3&#45;&gt;Node5 -->
<g id="edge12_Node000003_Node000005" class="edge">
<title>Node3&#45;&gt;Node5</title>
<g id="a_edge12_Node000003_Node000005"><a xlink:title=" ">
<path fill="none" stroke="#63b8ff" d="M466.88,-171.34C430.84,-163.87 384.33,-152.65 344.5,-138 298.69,-121.15 248.18,-92.89 223.99,-78.69"/>
<polygon fill="#63b8ff" stroke="#63b8ff" points="465.73,-174.68 476.23,-173.24 467.12,-167.82 465.73,-174.68"/>
</a>
</g>
</g>
<!-- Node6 -->
<g id="Node000006" class="node">
<title>Node6</title>
<g id="a_Node000006"><a xlink:href="clairvoyant__cvt_8h.html" target="_top" xlink:title="Clairvoyant CVT algorithm.">
<polygon fill="white" stroke="#666666" points="360.88,-78.25 272.13,-78.25 272.13,-59.75 360.88,-59.75 360.88,-78.25"/>
<text text-anchor="middle" x="316.5" y="-64.75" font-family="Helvetica,sans-Serif" font-size="10.00">clairvoyant_cvt.h</text>
</a>
</g>
</g>
<!-- Node3&#45;&gt;Node6 -->
<g id="edge13_Node000003_Node000006" class="edge">
<title>Node3&#45;&gt;Node6</title>
<g id="a_edge13_Node000003_Node000006"><a xlink:title=" ">
<path fill="none" stroke="#63b8ff" d="M465.8,-175.18C434.04,-169.19 395.8,-158.19 366.5,-138 343.82,-122.37 327.48,-93.02 320.41,-78.54"/>
<polygon fill="#63b8ff" stroke="#63b8ff" points="464.79,-178.56 475.24,-176.83 465.99,-171.66 464.79,-178.56"/>
</a>
</g>
</g>
<!-- Node7 -->
<g id="Node000007" class="node">
<title>Node7</title>
<g id="a_Node000007"><a xlink:href="coverage__algorithm_8cpp.html" target="_top" xlink:title="Program to test the CVT&#45;based (Lloyd&#39;s) coverage control algorithms.">
<polygon fill="white" stroke="#666666" points="375.88,-18.5 257.13,-18.5 257.13,0 375.88,0 375.88,-18.5"/>
<text text-anchor="middle" x="316.5" y="-5" font-family="Helvetica,sans-Serif" font-size="10.00">coverage_algorithm.cpp</text>
</a>
</g>
</g>
<!-- Node3&#45;&gt;Node7 -->
<g id="edge14_Node000003_Node000007" class="edge">
<title>Node3&#45;&gt;Node7</title>
<g id="a_edge14_Node000003_Node000007"><a xlink:title=" ">
<path fill="none" stroke="#63b8ff" d="M587.9,-179.39C706.63,-171.78 948.98,-144.98 865.5,-54.5 832.86,-19.12 511.86,-12.02 376.36,-10.6"/>
<polygon fill="#63b8ff" stroke="#63b8ff" points="587.74,-175.89 577.98,-179.99 588.17,-182.88 587.74,-175.89"/>
</a>
</g>
</g>
<!-- Node8 -->
<g id="Node000008" class="node">
<title>Node8</title>
<g id="a_Node000008"><a xlink:href="decentralized__cvt_8h.html" target="_top" xlink:title="Contains the DecentralizedCVT class.">
<polygon fill="white" stroke="#666666" points="478.13,-78.25 378.88,-78.25 378.88,-59.75 478.13,-59.75 478.13,-78.25"/>
<text text-anchor="middle" x="428.5" y="-64.75" font-family="Helvetica,sans-Serif" font-size="10.00">decentralized_cvt.h</text>
</a>
</g>
</g>
<!-- Node3&#45;&gt;Node8 -->
<g id="edge16_Node000003_Node000008" class="edge">
<title>Node3&#45;&gt;Node8</title>
<g id="a_edge16_Node000003_Node000008"><a xlink:title=" ">
<path fill="none" stroke="#63b8ff" d="M517.23,-163.36C510.32,-150.3 500.09,-132.91 488.5,-119.5 474.19,-102.95 453.97,-87.52 441.04,-78.43"/>
<polygon fill="#63b8ff" stroke="#63b8ff" points="514.06,-164.86 521.72,-172.18 520.3,-161.68 514.06,-164.86"/>
</a>
</g>
</g>
<!-- Node9 -->
<g id="Node000009" class="node">
<title>Node9</title>
<g id="a_Node000009"><a xlink:href="near__optimal__cvt_8h.html" target="_top" xlink:title="NearOptimalCVT class Global offline oracle: has complete information about the environment....">
<polygon fill="white" stroke="#666666" points="594.38,-78.25 496.63,-78.25 496.63,-59.75 594.38,-59.75 594.38,-78.25"/>
<text text-anchor="middle" x="545.5" y="-64.75" font-family="Helvetica,sans-Serif" font-size="10.00">near_optimal_cvt.h</text>
</a>
</g>
</g>
<!-- Node3&#45;&gt;Node9 -->
<g id="edge17_Node000003_Node000009" class="edge">
<title>Node3&#45;&gt;Node9</title>
<g id="a_edge17_Node000003_Node000009"><a xlink:title=" ">
<path fill="none" stroke="#63b8ff" d="M529.83,-162.6C534.02,-137.83 541.04,-96.34 544.06,-78.53"/>
<polygon fill="#63b8ff" stroke="#63b8ff" points="526.4,-161.88 528.18,-172.32 533.3,-163.05 526.4,-161.88"/>
</a>
</g>
</g>
<!-- Node10 -->
<g id="Node000010" class="node">
<title>Node10</title>
<g id="a_Node000010"><a xlink:href="oracle__bang__explore__exploit_8h.html" target="_top" xlink:title="First trial of oracle with exploration and exploitation. The oracle uses complete information about t...">
<polygon fill="white" stroke="#666666" points="718.13,-83.5 612.88,-83.5 612.88,-54.5 718.13,-54.5 718.13,-83.5"/>
<text text-anchor="start" x="620.88" y="-70" font-family="Helvetica,sans-Serif" font-size="10.00">oracle_bang_explore</text>
<text text-anchor="middle" x="665.5" y="-59.5" font-family="Helvetica,sans-Serif" font-size="10.00">_exploit.h</text>
</a>
</g>
</g>
<!-- Node3&#45;&gt;Node10 -->
<g id="edge18_Node000003_Node000010" class="edge">
<title>Node3&#45;&gt;Node10</title>
<g id="a_edge18_Node000003_Node000010"><a xlink:title=" ">
<path fill="none" stroke="#63b8ff" d="M545.59,-166.84C572.87,-144.81 622.58,-104.66 648.6,-83.65"/>
<polygon fill="#63b8ff" stroke="#63b8ff" points="543.71,-163.86 538.13,-172.86 548.1,-169.3 543.71,-163.86"/>
</a>
</g>
</g>
<!-- Node11 -->
<g id="Node000011" class="node">
<title>Node11</title>
<g id="a_Node000011"><a xlink:href="oracle__explore__exploit_8h.html" target="_top" xlink:title="Old trial of exploration and exploitation Uses system map for exploration as well.">
<polygon fill="white" stroke="#666666" points="856.63,-78.25 736.38,-78.25 736.38,-59.75 856.63,-59.75 856.63,-78.25"/>
<text text-anchor="middle" x="796.5" y="-64.75" font-family="Helvetica,sans-Serif" font-size="10.00">oracle_explore_exploit.h</text>
</a>
</g>
</g>
<!-- Node3&#45;&gt;Node11 -->
<g id="edge19_Node000003_Node000011" class="edge">
<title>Node3&#45;&gt;Node11</title>
<g id="a_edge19_Node000003_Node000011"><a xlink:title=" ">
<path fill="none" stroke="#63b8ff" d="M557.53,-169.35C613.18,-146.22 728.51,-98.27 775.69,-78.65"/>
<polygon fill="#63b8ff" stroke="#63b8ff" points="556.53,-165.98 548.64,-173.05 559.21,-172.44 556.53,-165.98"/>
</a>
</g>
</g>
<!-- Node12 -->
<g id="Node000012" class="node">
<title>Node12</title>
<g id="a_Node000012"><a xlink:href="simul__explore__exploit_8h.html" target="_top" xlink:title="Simultaneous exploration and exploitation algorithm Uses frontier&#45;based exploration with bias towards...">
<polygon fill="white" stroke="#666666" points="147.13,-78.25 29.88,-78.25 29.88,-59.75 147.13,-59.75 147.13,-78.25"/>
<text text-anchor="middle" x="88.5" y="-64.75" font-family="Helvetica,sans-Serif" font-size="10.00">simul_explore_exploit.h</text>
</a>
</g>
</g>
<!-- Node3&#45;&gt;Node12 -->
<g id="edge20_Node000003_Node000012" class="edge">
<title>Node3&#45;&gt;Node12</title>
<g id="a_edge20_Node000003_Node000012"><a xlink:title=" ">
<path fill="none" stroke="#63b8ff" d="M465.42,-172.47C419.25,-164.58 354.47,-152.44 298.5,-138 229.85,-120.29 150.75,-92.67 112.16,-78.7"/>
<polygon fill="#63b8ff" stroke="#63b8ff" points="464.81,-175.92 475.25,-174.13 465.98,-169.02 464.81,-175.92"/>
</a>
</g>
</g>
<!-- Node13 -->
<g id="Node000013" class="node">
<title>Node13</title>
<g id="a_Node000013"><a xlink:href="coverage__system_8cpp.html" target="_top" xlink:title="Contains the implementation of the CoverageSystem class.">
<polygon fill="white" stroke="#666666" points="1022.38,-138 912.63,-138 912.63,-119.5 1022.38,-119.5 1022.38,-138"/>
<text text-anchor="middle" x="967.5" y="-124.5" font-family="Helvetica,sans-Serif" font-size="10.00">coverage_system.cpp</text>
</a>
</g>
</g>
<!-- Node3&#45;&gt;Node13 -->
<g id="edge15_Node000003_Node000013" class="edge">
<title>Node3&#45;&gt;Node13</title>
<g id="a_edge15_Node000003_Node000013"><a xlink:title=" ">
<path fill="none" stroke="#63b8ff" d="M587.8,-174.97C661.54,-166.21 789.08,-151.05 898.5,-138 902.93,-137.47 907.53,-136.92 912.14,-136.37"/>
<polygon fill="#63b8ff" stroke="#63b8ff" points="587.46,-171.49 577.95,-176.14 588.29,-178.44 587.46,-171.49"/>
</a>
</g>
</g>
<!-- Node4&#45;&gt;Node5 -->
<g id="edge4_Node000004_Node000005" class="edge">
<title>Node4&#45;&gt;Node5</title>
<g id="a_edge4_Node000004_Node000005"><a xlink:title=" ">
<path fill="none" stroke="#63b8ff" d="M383.93,-116.21C342.18,-105.15 280.1,-88.7 242.36,-78.7"/>
<polygon fill="#63b8ff" stroke="#63b8ff" points="382.84,-119.54 393.4,-118.72 384.63,-112.77 382.84,-119.54"/>
</a>
</g>
</g>
<!-- Node4&#45;&gt;Node6 -->
<g id="edge5_Node000004_Node000006" class="edge">
<title>Node4&#45;&gt;Node6</title>
<g id="a_edge5_Node000004_Node000006"><a xlink:title=" ">
<path fill="none" stroke="#63b8ff" d="M400.94,-113.93C379.93,-103 351.25,-88.08 333.31,-78.75"/>
<polygon fill="#63b8ff" stroke="#63b8ff" points="399.29,-117.02 409.78,-118.53 402.52,-110.81 399.29,-117.02"/>
</a>
</g>
</g>
<!-- Node4&#45;&gt;Node8 -->
<g id="edge7_Node000004_Node000008" class="edge">
<title>Node4&#45;&gt;Node8</title>
<g id="a_edge7_Node000004_Node000008"><a xlink:title=" ">
<path fill="none" stroke="#63b8ff" d="M427.85,-107.83C428.02,-97.83 428.22,-86.25 428.35,-78.56"/>
<polygon fill="#63b8ff" stroke="#63b8ff" points="424.35,-107.66 427.67,-117.72 431.35,-107.78 424.35,-107.66"/>
</a>
</g>
</g>
<!-- Node4&#45;&gt;Node9 -->
<g id="edge8_Node000004_Node000009" class="edge">
<title>Node4&#45;&gt;Node9</title>
<g id="a_edge8_Node000004_Node000009"><a xlink:title=" ">
<path fill="none" stroke="#63b8ff" d="M455.4,-114.1C477.79,-103.14 508.55,-88.08 527.71,-78.7"/>
<polygon fill="#63b8ff" stroke="#63b8ff" points="453.97,-110.9 446.53,-118.44 457.05,-117.19 453.97,-110.9"/>
</a>
</g>
</g>
<!-- Node4&#45;&gt;Node10 -->
<g id="edge9_Node000004_Node000010" class="edge">
<title>Node4&#45;&gt;Node10</title>
<g id="a_edge9_Node000004_Node000010"><a xlink:title=" ">
<path fill="none" stroke="#63b8ff" d="M474.37,-116.38C514.13,-106.73 571.13,-92.9 612.53,-82.85"/>
<polygon fill="#63b8ff" stroke="#63b8ff" points="473.75,-112.93 464.86,-118.68 475.4,-119.73 473.75,-112.93"/>
</a>
</g>
</g>
<!-- Node4&#45;&gt;Node11 -->
<g id="edge10_Node000004_Node000011" class="edge">
<title>Node4&#45;&gt;Node11</title>
<g id="a_edge10_Node000004_Node000011"><a xlink:title=" ">
<path fill="none" stroke="#63b8ff" d="M491.52,-119.19C552.36,-110.85 646.34,-97.42 727.5,-83.5 735.92,-82.06 744.9,-80.39 753.49,-78.74"/>
<polygon fill="#63b8ff" stroke="#63b8ff" points="491.12,-115.71 481.69,-120.53 492.07,-122.65 491.12,-115.71"/>
</a>
</g>
</g>
<!-- Node4&#45;&gt;Node12 -->
<g id="edge11_Node000004_Node000012" class="edge">
<title>Node4&#45;&gt;Node12</title>
<g id="a_edge11_Node000004_Node000012"><a xlink:title=" ">
<path fill="none" stroke="#63b8ff" d="M363.63,-117.95C308.65,-109.37 227.23,-96.29 156.5,-83.5 148.33,-82.02 139.62,-80.36 131.26,-78.72"/>
<polygon fill="#63b8ff" stroke="#63b8ff" points="363.04,-121.4 373.46,-119.48 364.11,-114.48 363.04,-121.4"/>
</a>
</g>
</g>
<!-- Node6&#45;&gt;Node7 -->
<g id="edge6_Node000006_Node000007" class="edge">
<title>Node6&#45;&gt;Node7</title>
<g id="a_edge6_Node000006_Node000007"><a xlink:title=" ">
<path fill="none" stroke="#63b8ff" d="M316.5,-48.08C316.5,-38.08 316.5,-26.5 316.5,-18.81"/>
<polygon fill="#63b8ff" stroke="#63b8ff" points="313,-47.97 316.5,-57.97 320,-47.97 313,-47.97"/>
</a>
</g>
</g>
<!-- Node14&#45;&gt;Node3 -->
<g id="edge23_Node000014_Node000003" class="edge">
<title>Node14&#45;&gt;Node3</title>
<g id="a_edge23_Node000014_Node000003"><a xlink:title=" ">
<path fill="none" stroke="#63b8ff" d="M375.84,-272.85C383.69,-258.99 396.1,-240.4 411.5,-228.5 434.1,-211.04 464.4,-199.75 488.23,-192.95"/>
<polygon fill="#63b8ff" stroke="#63b8ff" points="372.9,-270.93 371.26,-281.4 379.07,-274.23 372.9,-270.93"/>
</a>
</g>
</g>
<!-- Node14&#45;&gt;Node7 -->
<g id="edge22_Node000014_Node000007" class="edge">
<title>Node14&#45;&gt;Node7</title>
<g id="a_edge22_Node000014_Node000007"><a xlink:title=" ">
<path fill="none" stroke="#63b8ff" d="M324.05,-287.82C227.84,-278.89 1.5,-250.81 1.5,-184.25 1.5,-184.25 1.5,-184.25 1.5,-127.75 1.5,-94.12 -4.5,-77 20.5,-54.5 54.35,-24.05 180.57,-14.55 256.83,-11.59"/>
<polygon fill="#63b8ff" stroke="#63b8ff" points="323.6,-291.3 333.87,-288.71 324.23,-284.33 323.6,-291.3"/>
</a>
</g>
</g>
<!-- Node14&#45;&gt;Node15 -->
<g id="edge24_Node000014_Node000015" class="edge">
<title>Node14&#45;&gt;Node15</title>
<g id="a_edge24_Node000014_Node000015"><a xlink:title=" ">
<path fill="none" stroke="#63b8ff" d="M397.92,-278.16C420.96,-268.56 451.59,-255.8 471.66,-247.43"/>
<polygon fill="#63b8ff" stroke="#63b8ff" points="396.59,-274.92 388.7,-282 399.28,-281.38 396.59,-274.92"/>
</a>
</g>
</g>
<!-- Node15&#45;&gt;Node3 -->
<g id="edge25_Node000015_Node000003" class="edge">
<title>Node15&#45;&gt;Node3</title>
<g id="a_edge25_Node000015_Node000003"><a xlink:title=" ">
<path fill="none" stroke="#63b8ff" d="M504.21,-218.66C509.9,-209.88 516.47,-199.74 520.99,-192.76"/>
<polygon fill="#63b8ff" stroke="#63b8ff" points="501.44,-216.51 498.94,-226.81 507.31,-220.32 501.44,-216.51"/>
</a>
</g>
</g>
<!-- Node18&#45;&gt;Node3 -->
<g id="edge31_Node000018_Node000003" class="edge">
<title>Node18&#45;&gt;Node3</title>
<g id="a_edge31_Node000018_Node000003"><a xlink:title=" ">
<path fill="none" stroke="#63b8ff" d="M639.23,-275.63C611.02,-252.76 559.42,-210.94 537.18,-192.9"/>
<polygon fill="#63b8ff" stroke="#63b8ff" points="636.99,-278.32 646.97,-281.9 641.4,-272.88 636.99,-278.32"/>
</a>
</g>
</g>
<!-- Node18&#45;&gt;Node15 -->
<g id="edge36_Node000018_Node000015" class="edge">
<title>Node18&#45;&gt;Node15</title>
<g id="a_edge36_Node000018_Node000015"><a xlink:title=" ">
<path fill="none" stroke="#63b8ff" d="M620.37,-279.19C589.71,-269.49 547.36,-256.1 519.95,-247.43"/>
<polygon fill="#63b8ff" stroke="#63b8ff" points="619.06,-282.45 629.65,-282.12 621.17,-275.77 619.06,-282.45"/>
</a>
</g>
</g>
<!-- Node19 -->
<g id="Node000019" class="node">
<title>Node19</title>
<g id="a_Node000019"><a xlink:href="plotter_8h.html" target="_top" xlink:title="Class to plot the map.">
<polygon fill="white" stroke="#666666" points="760.13,-247 708.88,-247 708.88,-228.5 760.13,-228.5 760.13,-247"/>
<text text-anchor="middle" x="734.5" y="-233.5" font-family="Helvetica,sans-Serif" font-size="10.00">plotter.h</text>
</a>
</g>
</g>
<!-- Node18&#45;&gt;Node19 -->
<g id="edge32_Node000018_Node000019" class="edge">
<title>Node18&#45;&gt;Node19</title>
<g id="a_edge32_Node000018_Node000019"><a xlink:title=" ">
<path fill="none" stroke="#63b8ff" d="M680.16,-276.29C693.67,-266.95 710.59,-255.26 721.93,-247.43"/>
<polygon fill="#63b8ff" stroke="#63b8ff" points="678.53,-273.16 672.3,-281.72 682.51,-278.92 678.53,-273.16"/>
</a>
</g>
</g>
<!-- Node21 -->
<g id="Node000021" class="node">
<title>Node21</title>
<g id="a_Node000021"><a xlink:href="voronoi_8cpp.html" target="_top" xlink:title="Functions to compute Centroidal Voronoi Tessellation.">
<polygon fill="white" stroke="#666666" points="691.25,-247 625.75,-247 625.75,-228.5 691.25,-228.5 691.25,-247"/>
<text text-anchor="middle" x="658.5" y="-233.5" font-family="Helvetica,sans-Serif" font-size="10.00">voronoi.cpp</text>
</a>
</g>
</g>
<!-- Node18&#45;&gt;Node21 -->
<g id="edge37_Node000018_Node000021" class="edge">
<title>Node18&#45;&gt;Node21</title>
<g id="a_edge37_Node000018_Node000021"><a xlink:title=" ">
<path fill="none" stroke="#63b8ff" d="M658.5,-271.14C658.5,-262.86 658.5,-253.71 658.5,-247.26"/>
<polygon fill="#63b8ff" stroke="#63b8ff" points="655,-271.07 658.5,-281.07 662,-271.07 655,-271.07"/>
</a>
</g>
</g>
<!-- Node19&#45;&gt;Node3 -->
<g id="edge34_Node000019_Node000003" class="edge">
<title>Node19&#45;&gt;Node3</title>
<g id="a_edge34_Node000019_Node000003"><a xlink:title=" ">
<path fill="none" stroke="#63b8ff" d="M697.82,-227.49C659.2,-217.74 598.87,-202.52 561.07,-192.98"/>
<polygon fill="#63b8ff" stroke="#63b8ff" points="696.56,-230.78 707.11,-229.84 698.27,-224 696.56,-230.78"/>
</a>
</g>
</g>
<!-- Node19&#45;&gt;Node13 -->
<g id="edge33_Node000019_Node000013" class="edge">
<title>Node19&#45;&gt;Node13</title>
<g id="a_edge33_Node000019_Node000013"><a xlink:title=" ">
<path fill="none" stroke="#63b8ff" d="M735.39,-216.66C737.1,-202.73 741.66,-184.82 753.5,-174 765.19,-163.32 852.7,-147.74 912.13,-138.2"/>
<polygon fill="#63b8ff" stroke="#63b8ff" points="731.91,-216.25 734.61,-226.49 738.89,-216.8 731.91,-216.25"/>
</a>
</g>
</g>
<!-- Node20 -->
<g id="Node000020" class="node">
<title>Node20</title>
<g id="a_Node000020"><a xlink:href="plotter_8cpp.html" target="_top" xlink:title="Helper function to plot maps.">
<polygon fill="white" stroke="#666666" points="824.38,-192.5 762.63,-192.5 762.63,-174 824.38,-174 824.38,-192.5"/>
<text text-anchor="middle" x="793.5" y="-179" font-family="Helvetica,sans-Serif" font-size="10.00">plotter.cpp</text>
</a>
</g>
</g>
<!-- Node19&#45;&gt;Node20 -->
<g id="edge35_Node000019_Node000020" class="edge">
<title>Node19&#45;&gt;Node20</title>
<g id="a_edge35_Node000019_Node000020"><a xlink:title=" ">
<path fill="none" stroke="#63b8ff" d="M752.6,-220.64C762.94,-211.44 775.49,-200.27 783.94,-192.76"/>
<polygon fill="#63b8ff" stroke="#63b8ff" points="750.52,-217.81 745.37,-227.07 755.17,-223.04 750.52,-217.81"/>
</a>
</g>
</g>
</g>
</svg>

<g id="navigator" transform="translate(0 0)" fill="#404254">
  <rect fill="#f2f5e9" fill-opacity="0.5" stroke="#606060" stroke-width=".5" x="0" y="0" width="60" height="60"/>
  <use id="zoomplus" xlink:href="#zoomPlus" x="17" y="9" onmousedown="handleZoom(evt,'in')"/>
  <use id="zoomminus" xlink:href="#zoomMin" x="42" y="9" onmousedown="handleZoom(evt,'out')"/>
  <use id="reset" xlink:href="#resetDef" x="30" y="36" onmousedown="handleReset()"/>
   <use id="arrowup" xlink:href="#arrowUp" x="0" y="0" onmousedown="handlePan(0,-1)"/>
  <use id="arrowright" xlink:href="#arrowRight" x="0" y="0" onmousedown="handlePan(1,0)"/>
  <use id="arrowdown" xlink:href="#arrowDown" x="0" y="0" onmousedown="handlePan(0,1)"/>
  <use id="arrowleft" xlink:href="#arrowLeft" x="0" y="0" onmousedown="handlePan(-1,0)"/>
</g>
<svg viewBox="0 0 15 15" width="100%" height="30px" preserveAspectRatio="xMaxYMin meet">
 <g id="arrow_out" transform="scale(0.3 0.3)">
  <a xlink:href="constants_8h__dep__incl_org.svg" target="_base">
   <rect id="button" ry="5" rx="5" y="6" x="6" height="38" width="38"
        fill="#f2f5e9" fill-opacity="0.5" stroke="#606060" stroke-width="1.0"/>
   <path id="arrow"
     d="M 11.500037,31.436501 C 11.940474,20.09759 22.043105,11.32322 32.158766,21.979434 L 37.068811,17.246167 C 37.068811,17.246167 37.088388,32 37.088388,32 L 22.160133,31.978069 C 22.160133,31.978069 26.997745,27.140456 26.997745,27.140456 C 18.528582,18.264221 13.291696,25.230495 11.500037,31.436501 z"
     style="fill:#404040;"/>
  </a>
 </g>
</svg>

<style type='text/css'>
<![CDATA[
[data-mouse-over-selected='false'] { opacity: 0.7; }
[data-mouse-over-selected='true']  { opacity: 1.0; }
]]>
</style>
<script type="application/ecmascript"><![CDATA[
document.addEventListener('DOMContentLoaded', (event) => {
  highlightEdges();
  highlightAdjacentNodes();
});
]]></script>
</svg>
