<?xml version="1.0" encoding="UTF-8" standalone="no"?>
<!DOCTYPE svg PUBLIC "-//W3C//DTD SVG 1.1//EN"
 "http://www.w3.org/Graphics/SVG/1.1/DTD/svg11.dtd">
<!-- Generated by graphviz version 10.0.1 (0)
 -->
<!-- Title: coverage_system.h Pages: 1 -->
<svg width="1791pt" height="331pt"
 viewBox="0.00 0.00 1791.25 330.50" xmlns="http://www.w3.org/2000/svg" xmlns:xlink="http://www.w3.org/1999/xlink">
<g id="graph0" class="graph" transform="scale(1 1) rotate(0) translate(4 326.5)">
<title>coverage_system.h</title>
<!-- Node1 -->
<g id="Node000001" class="node">
<title>Node1</title>
<g id="a_Node000001"><a xlink:title="The file contains the CoverageSystem class, which is the main class for the coverage control library.">
<polygon fill="#999999" stroke="#666666" points="636.12,-322.5 536.88,-322.5 536.88,-304 636.12,-304 636.12,-322.5"/>
<text text-anchor="middle" x="586.5" y="-309" font-family="Helvetica,sans-Serif" font-size="10.00">coverage_system.h</text>
</a>
</g>
</g>
<!-- Node2 -->
<g id="Node000002" class="node">
<title>Node2</title>
<g id="a_Node000002"><a xlink:title=" ">
<polygon fill="#e0e0e0" stroke="#999999" points="43,-262.75 0,-262.75 0,-244.25 43,-244.25 43,-262.75"/>
<text text-anchor="middle" x="21.5" y="-249.25" font-family="Helvetica,sans-Serif" font-size="10.00">omp.h</text>
</a>
</g>
</g>
<!-- Node1&#45;&gt;Node2 -->
<g id="edge1_Node000001_Node000002" class="edge">
<title>Node1&#45;&gt;Node2</title>
<g id="a_edge1_Node000001_Node000002"><a xlink:title=" ">
<path fill="none" stroke="#63b8ff" d="M536.58,-312.61C441.93,-312.31 230.37,-306.86 57.5,-268 55.87,-267.63 54.22,-267.21 52.56,-266.74"/>
<polygon fill="#63b8ff" stroke="#63b8ff" points="53.79,-263.47 43.2,-263.68 51.61,-270.12 53.79,-263.47"/>
</a>
</g>
</g>
<!-- Node3 -->
<g id="Node000003" class="node">
<title>Node3</title>
<g id="a_Node000003"><a xlink:title=" ">
<polygon fill="#e0e0e0" stroke="#999999" points="1067.62,-18.5 995.38,-18.5 995.38,0 1067.62,0 1067.62,-18.5"/>
<text text-anchor="middle" x="1031.5" y="-5" font-family="Helvetica,sans-Serif" font-size="10.00">Eigen/Dense</text>
</a>
</g>
</g>
<!-- Node1&#45;&gt;Node3 -->
<g id="edge2_Node000001_Node000003" class="edge">
<title>Node1&#45;&gt;Node3</title>
<g id="a_edge2_Node000001_Node000003"><a xlink:title=" ">
<path fill="none" stroke="#63b8ff" d="M636.56,-311.14C796.26,-307.34 1286.97,-293.69 1353.5,-268 1439.3,-234.88 1474.85,-220.98 1514.5,-138 1520.06,-126.37 1522.65,-118.98 1514.5,-109 1459.8,-41.99 1190.36,-19.23 1079.39,-12.63"/>
<polygon fill="#63b8ff" stroke="#63b8ff" points="1079.6,-9.13 1069.42,-12.05 1079.2,-16.12 1079.6,-9.13"/>
</a>
</g>
</g>
<!-- Node4 -->
<g id="Node000004" class="node">
<title>Node4</title>
<g id="a_Node000004"><a xlink:title=" ">
<polygon fill="#e0e0e0" stroke="#999999" points="647.38,-197.75 591.62,-197.75 591.62,-179.25 647.38,-179.25 647.38,-197.75"/>
<text text-anchor="middle" x="619.5" y="-184.25" font-family="Helvetica,sans-Serif" font-size="10.00">algorithm</text>
</a>
</g>
</g>
<!-- Node1&#45;&gt;Node4 -->
<g id="edge3_Node000001_Node000004" class="edge">
<title>Node1&#45;&gt;Node4</title>
<g id="a_edge3_Node000001_Node000004"><a xlink:title=" ">
<path fill="none" stroke="#63b8ff" d="M588.77,-303.81C594,-284.37 607,-235.99 614.31,-208.81"/>
<polygon fill="#63b8ff" stroke="#63b8ff" points="617.61,-210.02 616.82,-199.46 610.85,-208.21 617.61,-210.02"/>
</a>
</g>
</g>
<!-- Node5 -->
<g id="Node000005" class="node">
<title>Node5</title>
<g id="a_Node000005"><a xlink:title=" ">
<polygon fill="#e0e0e0" stroke="#999999" points="685,-132.75 636,-132.75 636,-114.25 685,-114.25 685,-132.75"/>
<text text-anchor="middle" x="660.5" y="-119.25" font-family="Helvetica,sans-Serif" font-size="10.00">fstream</text>
</a>
</g>
</g>
<!-- Node1&#45;&gt;Node5 -->
<g id="edge4_Node000001_Node000005" class="edge">
<title>Node1&#45;&gt;Node5</title>
<g id="a_edge4_Node000001_Node000005"><a xlink:title=" ">
<path fill="none" stroke="#63b8ff" d="M583.48,-303.78C575.95,-281.07 558.55,-217.56 582.5,-174 591.69,-157.28 609.18,-145.41 625.27,-137.5"/>
<polygon fill="#63b8ff" stroke="#63b8ff" points="626.49,-140.79 634.16,-133.48 623.61,-134.41 626.49,-140.79"/>
</a>
</g>
</g>
<!-- Node6 -->
<g id="Node000006" class="node">
<title>Node6</title>
<g id="a_Node000006"><a xlink:title=" ">
<polygon fill="#e0e0e0" stroke="#999999" points="712.25,-18.5 658.75,-18.5 658.75,0 712.25,0 712.25,-18.5"/>
<text text-anchor="middle" x="685.5" y="-5" font-family="Helvetica,sans-Serif" font-size="10.00">iostream</text>
</a>
</g>
</g>
<!-- Node1&#45;&gt;Node6 -->
<g id="edge5_Node000001_Node000006" class="edge">
<title>Node1&#45;&gt;Node6</title>
<g id="a_edge5_Node000001_Node000006"><a xlink:title=" ">
<path fill="none" stroke="#63b8ff" d="M536.76,-305.96C489.07,-298.96 421.59,-286.19 402.5,-268 376.2,-242.94 343.65,-138.75 364.5,-109 397.4,-62.05 569.18,-28.96 647.05,-16.14"/>
<polygon fill="#63b8ff" stroke="#63b8ff" points="647.46,-19.62 656.78,-14.57 646.35,-12.71 647.46,-19.62"/>
</a>
</g>
</g>
<!-- Node7 -->
<g id="Node000007" class="node">
<title>Node7</title>
<g id="a_Node000007"><a xlink:title=" ">
<polygon fill="#e0e0e0" stroke="#999999" points="203.9,-132.75 175.1,-132.75 175.1,-114.25 203.9,-114.25 203.9,-132.75"/>
<text text-anchor="middle" x="189.5" y="-119.25" font-family="Helvetica,sans-Serif" font-size="10.00">list</text>
</a>
</g>
</g>
<!-- Node1&#45;&gt;Node7 -->
<g id="edge6_Node000001_Node000007" class="edge">
<title>Node1&#45;&gt;Node7</title>
<g id="a_edge6_Node000001_Node000007"><a xlink:title=" ">
<path fill="none" stroke="#63b8ff" d="M536.62,-309.49C481.39,-305.21 390.39,-294.48 316.5,-268 262.32,-248.58 237.79,-249.95 204.5,-203 192.35,-185.86 189.32,-161.54 188.88,-144.52"/>
<polygon fill="#63b8ff" stroke="#63b8ff" points="192.38,-144.71 188.93,-134.69 185.38,-144.67 192.38,-144.71"/>
</a>
</g>
</g>
<!-- Node8 -->
<g id="Node000008" class="node">
<title>Node8</title>
<g id="a_Node000008"><a xlink:title=" ">
<polygon fill="#e0e0e0" stroke="#999999" points="459.62,-262.75 411.38,-262.75 411.38,-244.25 459.62,-244.25 459.62,-262.75"/>
<text text-anchor="middle" x="435.5" y="-249.25" font-family="Helvetica,sans-Serif" font-size="10.00">random</text>
</a>
</g>
</g>
<!-- Node1&#45;&gt;Node8 -->
<g id="edge7_Node000001_Node000008" class="edge">
<title>Node1&#45;&gt;Node8</title>
<g id="a_edge7_Node000001_Node000008"><a xlink:title=" ">
<path fill="none" stroke="#63b8ff" d="M563.89,-303.6C538.65,-293.95 497.56,-278.23 468.67,-267.19"/>
<polygon fill="#63b8ff" stroke="#63b8ff" points="470.26,-264.05 459.67,-263.75 467.76,-270.59 470.26,-264.05"/>
</a>
</g>
</g>
<!-- Node9 -->
<g id="Node000009" class="node">
<title>Node9</title>
<g id="a_Node000009"><a xlink:title=" ">
<polygon fill="#e0e0e0" stroke="#999999" points="1504.5,-18.5 1464.5,-18.5 1464.5,0 1504.5,0 1504.5,-18.5"/>
<text text-anchor="middle" x="1484.5" y="-5" font-family="Helvetica,sans-Serif" font-size="10.00">string</text>
</a>
</g>
</g>
<!-- Node1&#45;&gt;Node9 -->
<g id="edge8_Node000001_Node000009" class="edge">
<title>Node1&#45;&gt;Node9</title>
<g id="a_edge8_Node000001_Node000009"><a xlink:title=" ">
<path fill="none" stroke="#63b8ff" d="M636.6,-311.86C846.21,-310.04 1643.93,-300.96 1685.5,-268 1759.86,-209.04 1748.05,-123.13 1682.5,-54.5 1659.97,-30.91 1566.39,-18.29 1516.36,-13.12"/>
<polygon fill="#63b8ff" stroke="#63b8ff" points="1516.75,-9.64 1506.45,-12.14 1516.06,-16.6 1516.75,-9.64"/>
</a>
</g>
</g>
<!-- Node10 -->
<g id="Node000010" class="node">
<title>Node10</title>
<g id="a_Node000010"><a xlink:title=" ">
<polygon fill="#e0e0e0" stroke="#999999" points="337.12,-73 297.88,-73 297.88,-54.5 337.12,-54.5 337.12,-73"/>
<text text-anchor="middle" x="317.5" y="-59.5" font-family="Helvetica,sans-Serif" font-size="10.00">utility</text>
</a>
</g>
</g>
<!-- Node1&#45;&gt;Node10 -->
<g id="edge9_Node000001_Node000010" class="edge">
<title>Node1&#45;&gt;Node10</title>
<g id="a_edge9_Node000001_Node000010"><a xlink:title=" ">
<path fill="none" stroke="#63b8ff" d="M536.53,-310.7C452.47,-307.32 287.09,-297.08 237.5,-268 170.74,-228.85 120.1,-170.94 166.5,-109 180.85,-89.84 246.34,-76.17 286.21,-69.46"/>
<polygon fill="#63b8ff" stroke="#63b8ff" points="286.63,-72.94 295.94,-67.88 285.51,-66.03 286.63,-72.94"/>
</a>
</g>
</g>
<!-- Node11 -->
<g id="Node000011" class="node">
<title>Node11</title>
<g id="a_Node000011"><a xlink:title=" ">
<polygon fill="#e0e0e0" stroke="#999999" points="462.62,-18.5 420.38,-18.5 420.38,0 462.62,0 462.62,-18.5"/>
<text text-anchor="middle" x="441.5" y="-5" font-family="Helvetica,sans-Serif" font-size="10.00">vector</text>
</a>
</g>
</g>
<!-- Node1&#45;&gt;Node11 -->
<g id="edge10_Node000001_Node000011" class="edge">
<title>Node1&#45;&gt;Node11</title>
<g id="a_edge10_Node000001_Node000011"><a xlink:title=" ">
<path fill="none" stroke="#63b8ff" d="M536.65,-310.92C407.41,-306.12 71.5,-284.52 71.5,-189.5 71.5,-189.5 71.5,-189.5 71.5,-122.5 71.5,-52.31 318.37,-21.89 408.81,-13.1"/>
<polygon fill="#63b8ff" stroke="#63b8ff" points="408.87,-16.61 418.5,-12.19 408.22,-9.64 408.87,-16.61"/>
</a>
</g>
</g>
<!-- Node12 -->
<g id="Node000012" class="node">
<title>Node12</title>
<g id="a_Node000012"><a xlink:href="bivariate__normal__distribution_8h.html" target="_top" xlink:title="Class for Bivariate Normal Distribution.">
<polygon fill="white" stroke="#666666" points="1301.38,-138 1173.62,-138 1173.62,-109 1301.38,-109 1301.38,-138"/>
<text text-anchor="start" x="1181.62" y="-124.5" font-family="Helvetica,sans-Serif" font-size="10.00">CoverageControl/bivariate</text>
<text text-anchor="middle" x="1237.5" y="-114" font-family="Helvetica,sans-Serif" font-size="10.00">_normal_distribution.h</text>
</a>
</g>
</g>
<!-- Node1&#45;&gt;Node12 -->
<g id="edge11_Node000001_Node000012" class="edge">
<title>Node1&#45;&gt;Node12</title>
<g id="a_edge11_Node000001_Node000012"><a xlink:title=" ">
<path fill="none" stroke="#63b8ff" d="M636.57,-311.01C795.23,-306.83 1277.77,-292.18 1300.5,-268 1333.71,-232.66 1290.14,-176.97 1260.6,-146.39"/>
<polygon fill="#63b8ff" stroke="#63b8ff" points="1263.32,-144.17 1253.78,-139.55 1258.36,-149.1 1263.32,-144.17"/>
</a>
</g>
</g>
<!-- Node14 -->
<g id="Node000014" class="node">
<title>Node14</title>
<g id="a_Node000014"><a xlink:href="constants_8h.html" target="_top" xlink:title="Constants for the CoverageControl library.">
<polygon fill="white" stroke="#666666" points="1673.88,-73 1531.12,-73 1531.12,-54.5 1673.88,-54.5 1673.88,-73"/>
<text text-anchor="middle" x="1602.5" y="-59.5" font-family="Helvetica,sans-Serif" font-size="10.00">CoverageControl/constants.h</text>
</a>
</g>
</g>
<!-- Node1&#45;&gt;Node14 -->
<g id="edge28_Node000001_Node000014" class="edge">
<title>Node1&#45;&gt;Node14</title>
<g id="a_edge28_Node000001_Node000014"><a xlink:title=" ">
<path fill="none" stroke="#63b8ff" d="M636.45,-312.09C843.55,-311.21 1625.61,-305.4 1661.5,-268 1710.43,-217.01 1693.1,-172.21 1661.5,-109 1655.17,-96.33 1643.29,-86.35 1631.85,-79.1"/>
<polygon fill="#63b8ff" stroke="#63b8ff" points="1633.77,-76.17 1623.36,-74.19 1630.26,-82.23 1633.77,-76.17"/>
</a>
</g>
</g>
<!-- Node17 -->
<g id="Node000017" class="node">
<title>Node17</title>
<g id="a_Node000017"><a xlink:href="parameters_8h.html" target="_top" xlink:title="Contains parameters.">
<polygon fill="white" stroke="#666666" points="1209.25,-73 1059.75,-73 1059.75,-54.5 1209.25,-54.5 1209.25,-73"/>
<text text-anchor="middle" x="1134.5" y="-59.5" font-family="Helvetica,sans-Serif" font-size="10.00">CoverageControl/parameters.h</text>
</a>
</g>
</g>
<!-- Node1&#45;&gt;Node17 -->
<g id="edge34_Node000001_Node000017" class="edge">
<title>Node1&#45;&gt;Node17</title>
<g id="a_edge34_Node000001_Node000017"><a xlink:title=" ">
<path fill="none" stroke="#63b8ff" d="M636.28,-310C758.03,-303.34 1065.34,-279.16 1126.5,-203 1153.77,-169.03 1146.45,-113.89 1139.84,-84.57"/>
<polygon fill="#63b8ff" stroke="#63b8ff" points="1143.24,-83.73 1137.43,-74.87 1136.44,-85.41 1143.24,-83.73"/>
</a>
</g>
</g>
<!-- Node19 -->
<g id="Node000019" class="node">
<title>Node19</title>
<g id="a_Node000019"><a xlink:href="typedefs_8h.html" target="_top" xlink:title="Contains typedefs for the library.">
<polygon fill="white" stroke="#666666" points="927.25,-73 789.75,-73 789.75,-54.5 927.25,-54.5 927.25,-73"/>
<text text-anchor="middle" x="858.5" y="-59.5" font-family="Helvetica,sans-Serif" font-size="10.00">CoverageControl/typedefs.h</text>
</a>
</g>
</g>
<!-- Node1&#45;&gt;Node19 -->
<g id="edge76_Node000001_Node000019" class="edge">
<title>Node1&#45;&gt;Node19</title>
<g id="a_edge76_Node000001_Node000019"><a xlink:title=" ">
<path fill="none" stroke="#63b8ff" d="M581.37,-303.81C576.44,-295.17 569.34,-281.19 566.5,-268 562.77,-250.68 563.19,-187.13 568.5,-174 583.11,-137.82 593.48,-128.1 627.5,-109 652.94,-94.72 721.96,-82.59 777.98,-74.67"/>
<polygon fill="#63b8ff" stroke="#63b8ff" points="778.43,-78.14 787.85,-73.3 777.47,-71.2 778.43,-78.14"/>
</a>
</g>
</g>
<!-- Node21 -->
<g id="Node000021" class="node">
<title>Node21</title>
<g id="a_Node000021"><a xlink:title=" ">
<polygon fill="#e0e0e0" stroke="#999999" points="1291.88,-268 1173.12,-268 1173.12,-239 1291.88,-239 1291.88,-268"/>
<text text-anchor="start" x="1181.12" y="-254.5" font-family="Helvetica,sans-Serif" font-size="10.00">CoverageControl/extern</text>
<text text-anchor="middle" x="1232.5" y="-244" font-family="Helvetica,sans-Serif" font-size="10.00">/lsap/Hungarian.h</text>
</a>
</g>
</g>
<!-- Node1&#45;&gt;Node21 -->
<g id="edge29_Node000001_Node000021" class="edge">
<title>Node1&#45;&gt;Node21</title>
<g id="a_edge29_Node000001_Node000021"><a xlink:title=" ">
<path fill="none" stroke="#63b8ff" d="M636.5,-310.17C736.28,-305.63 967.07,-293.15 1159.5,-268 1160.18,-267.91 1160.86,-267.82 1161.55,-267.73"/>
<polygon fill="#63b8ff" stroke="#63b8ff" points="1161.94,-271.21 1171.33,-266.29 1160.92,-264.28 1161.94,-271.21"/>
</a>
</g>
</g>
<!-- Node22 -->
<g id="Node000022" class="node">
<title>Node22</title>
<g id="a_Node000022"><a xlink:href="map__utils_8h.html" target="_top" xlink:title="Utility functions for transforming maps.">
<polygon fill="white" stroke="#666666" points="1505.75,-138 1395.25,-138 1395.25,-109 1505.75,-109 1505.75,-138"/>
<text text-anchor="start" x="1403.25" y="-124.5" font-family="Helvetica,sans-Serif" font-size="10.00">CoverageControl/map</text>
<text text-anchor="middle" x="1450.5" y="-114" font-family="Helvetica,sans-Serif" font-size="10.00">_utils.h</text>
</a>
</g>
</g>
<!-- Node1&#45;&gt;Node22 -->
<g id="edge30_Node000001_Node000022" class="edge">
<title>Node1&#45;&gt;Node22</title>
<g id="a_edge30_Node000001_Node000022"><a xlink:title=" ">
<path fill="none" stroke="#63b8ff" d="M636.41,-311.4C791.48,-308.46 1258.24,-297.26 1319.5,-268 1374.16,-241.89 1416.59,-181.81 1437.06,-148.26"/>
<polygon fill="#63b8ff" stroke="#63b8ff" points="1440.06,-150.06 1442.15,-139.67 1434.04,-146.49 1440.06,-150.06"/>
</a>
</g>
</g>
<!-- Node23 -->
<g id="Node000023" class="node">
<title>Node23</title>
<g id="a_Node000023"><a xlink:href="plotter_8h.html" target="_top" xlink:title="Class to plot the map.">
<polygon fill="white" stroke="#666666" points="341,-197.75 214,-197.75 214,-179.25 341,-179.25 341,-197.75"/>
<text text-anchor="middle" x="277.5" y="-184.25" font-family="Helvetica,sans-Serif" font-size="10.00">CoverageControl/plotter.h</text>
</a>
</g>
</g>
<!-- Node1&#45;&gt;Node23 -->
<g id="edge35_Node000001_Node000023" class="edge">
<title>Node1&#45;&gt;Node23</title>
<g id="a_edge35_Node000001_Node000023"><a xlink:title=" ">
<path fill="none" stroke="#63b8ff" d="M536.83,-311.14C488.05,-308.18 412.82,-298.49 355.5,-268 327.87,-253.3 303.81,-225.51 289.97,-207.25"/>
<polygon fill="#63b8ff" stroke="#63b8ff" points="292.84,-205.24 284.11,-199.22 287.18,-209.36 292.84,-205.24"/>
</a>
</g>
</g>
<!-- Node24 -->
<g id="Node000024" class="node">
<title>Node24</title>
<g id="a_Node000024"><a xlink:href="voronoi_8h.html" target="_top" xlink:title="Class for computing Voronoi cells.">
<polygon fill="white" stroke="#666666" points="503.88,-132.75 373.12,-132.75 373.12,-114.25 503.88,-114.25 503.88,-132.75"/>
<text text-anchor="middle" x="438.5" y="-119.25" font-family="Helvetica,sans-Serif" font-size="10.00">CoverageControl/voronoi.h</text>
</a>
</g>
</g>
<!-- Node1&#45;&gt;Node24 -->
<g id="edge77_Node000001_Node000024" class="edge">
<title>Node1&#45;&gt;Node24</title>
<g id="a_edge77_Node000001_Node000024"><a xlink:title=" ">
<path fill="none" stroke="#63b8ff" d="M564.89,-303.52C548.58,-296.05 526.51,-283.98 511.5,-268 476.5,-230.74 454.25,-173.49 444.4,-143.82"/>
<polygon fill="#63b8ff" stroke="#63b8ff" points="447.76,-142.84 441.39,-134.37 441.09,-144.96 447.76,-142.84"/>
</a>
</g>
</g>
<!-- Node26 -->
<g id="Node000026" class="node">
<title>Node26</title>
<g id="a_Node000026"><a xlink:href="robot__model_8h.html" target="_top" xlink:title="Class for handling the robot model.">
<polygon fill="white" stroke="#666666" points="827.25,-268 713.75,-268 713.75,-239 827.25,-239 827.25,-268"/>
<text text-anchor="start" x="721.75" y="-254.5" font-family="Helvetica,sans-Serif" font-size="10.00">CoverageControl/robot</text>
<text text-anchor="middle" x="770.5" y="-244" font-family="Helvetica,sans-Serif" font-size="10.00">_model.h</text>
</a>
</g>
</g>
<!-- Node1&#45;&gt;Node26 -->
<g id="edge50_Node000001_Node000026" class="edge">
<title>Node1&#45;&gt;Node26</title>
<g id="a_edge50_Node000001_Node000026"><a xlink:title=" ">
<path fill="none" stroke="#63b8ff" d="M614.05,-303.6C640.73,-295.23 681.96,-282.29 715.4,-271.8"/>
<polygon fill="#63b8ff" stroke="#63b8ff" points="716.01,-275.27 724.5,-268.94 713.92,-268.59 716.01,-275.27"/>
</a>
</g>
</g>
<!-- Node27 -->
<g id="Node000027" class="node">
<title>Node27</title>
<g id="a_Node000027"><a xlink:href="world__idf_8h.html" target="_top" xlink:title="Contains the class for Importance Density Function (IDF) for the world.">
<polygon fill="white" stroke="#666666" points="1117.62,-203 1003.38,-203 1003.38,-174 1117.62,-174 1117.62,-203"/>
<text text-anchor="start" x="1011.38" y="-189.5" font-family="Helvetica,sans-Serif" font-size="10.00">CoverageControl/world</text>
<text text-anchor="middle" x="1060.5" y="-179" font-family="Helvetica,sans-Serif" font-size="10.00">_idf.h</text>
</a>
</g>
</g>
<!-- Node1&#45;&gt;Node27 -->
<g id="edge78_Node000001_Node000027" class="edge">
<title>Node1&#45;&gt;Node27</title>
<g id="a_edge78_Node000001_Node000027"><a xlink:title=" ">
<path fill="none" stroke="#63b8ff" d="M636.34,-305.85C687.17,-298.76 768.06,-285.92 836.5,-268 900.03,-251.36 971.26,-225.02 1016,-207.5"/>
<polygon fill="#63b8ff" stroke="#63b8ff" points="1017.07,-210.84 1025.09,-203.91 1014.51,-204.33 1017.07,-210.84"/>
</a>
</g>
</g>
<!-- Node12&#45;&gt;Node6 -->
<g id="edge13_Node000012_Node000006" class="edge">
<title>Node12&#45;&gt;Node6</title>
<g id="a_edge13_Node000012_Node000006"><a xlink:title=" ">
<path fill="none" stroke="#63b8ff" d="M1237.94,-108.57C1237.6,-92.8 1234.37,-67.62 1218.5,-54.5 1208.94,-46.6 844.15,-21.07 723.67,-12.84"/>
<polygon fill="#63b8ff" stroke="#63b8ff" points="724.2,-9.36 713.98,-12.17 723.72,-16.35 724.2,-9.36"/>
</a>
</g>
</g>
<!-- Node13 -->
<g id="Node000013" class="node">
<title>Node13</title>
<g id="a_Node000013"><a xlink:title=" ">
<polygon fill="#e0e0e0" stroke="#999999" points="1354,-18.5 1311,-18.5 1311,0 1354,0 1354,-18.5"/>
<text text-anchor="middle" x="1332.5" y="-5" font-family="Helvetica,sans-Serif" font-size="10.00">cmath</text>
</a>
</g>
</g>
<!-- Node12&#45;&gt;Node13 -->
<g id="edge12_Node000012_Node000013" class="edge">
<title>Node12&#45;&gt;Node13</title>
<g id="a_edge12_Node000012_Node000013"><a xlink:title=" ">
<path fill="none" stroke="#63b8ff" d="M1249.15,-108.74C1266.41,-88.34 1298.78,-50.09 1317.7,-27.74"/>
<polygon fill="#63b8ff" stroke="#63b8ff" points="1320.36,-30.01 1324.15,-20.12 1315.01,-25.49 1320.36,-30.01"/>
</a>
</g>
</g>
<!-- Node12&#45;&gt;Node14 -->
<g id="edge14_Node000012_Node000014" class="edge">
<title>Node12&#45;&gt;Node14</title>
<g id="a_edge14_Node000012_Node000014"><a xlink:title=" ">
<path fill="none" stroke="#63b8ff" d="M1301.5,-112.37C1367.31,-101.96 1469.33,-85.82 1536.03,-75.27"/>
<polygon fill="#63b8ff" stroke="#63b8ff" points="1536.42,-78.75 1545.75,-73.73 1535.32,-71.84 1536.42,-78.75"/>
</a>
</g>
</g>
<!-- Node12&#45;&gt;Node17 -->
<g id="edge19_Node000012_Node000017" class="edge">
<title>Node12&#45;&gt;Node17</title>
<g id="a_edge19_Node000012_Node000017"><a xlink:title=" ">
<path fill="none" stroke="#63b8ff" d="M1212.57,-108.52C1196.55,-99.54 1175.81,-87.91 1159.73,-78.9"/>
<polygon fill="#63b8ff" stroke="#63b8ff" points="1161.69,-75.98 1151.25,-74.14 1158.27,-82.09 1161.69,-75.98"/>
</a>
</g>
</g>
<!-- Node12&#45;&gt;Node19 -->
<g id="edge24_Node000012_Node000019" class="edge">
<title>Node12&#45;&gt;Node19</title>
<g id="a_edge24_Node000012_Node000019"><a xlink:title=" ">
<path fill="none" stroke="#63b8ff" d="M1173.21,-112.7C1104.79,-102.28 996.96,-85.85 926.98,-75.18"/>
<polygon fill="#63b8ff" stroke="#63b8ff" points="927.57,-71.73 917.15,-73.69 926.51,-78.65 927.57,-71.73"/>
</a>
</g>
</g>
<!-- Node14&#45;&gt;Node9 -->
<g id="edge18_Node000014_Node000009" class="edge">
<title>Node14&#45;&gt;Node9</title>
<g id="a_edge18_Node000014_Node000009"><a xlink:title=" ">
<path fill="none" stroke="#63b8ff" d="M1583.01,-54.08C1564.31,-45.76 1535.8,-33.08 1514.26,-23.49"/>
<polygon fill="#63b8ff" stroke="#63b8ff" points="1515.96,-20.41 1505.4,-19.55 1513.11,-26.81 1515.96,-20.41"/>
</a>
</g>
</g>
<!-- Node14&#45;&gt;Node13 -->
<g id="edge16_Node000014_Node000013" class="edge">
<title>Node14&#45;&gt;Node13</title>
<g id="a_edge16_Node000014_Node000013"><a xlink:title=" ">
<path fill="none" stroke="#63b8ff" d="M1557.61,-54.02C1503.45,-43.49 1413.66,-26.03 1365.48,-16.66"/>
<polygon fill="#63b8ff" stroke="#63b8ff" points="1366.42,-13.28 1355.94,-14.81 1365.09,-20.15 1366.42,-13.28"/>
</a>
</g>
</g>
<!-- Node15 -->
<g id="Node000015" class="node">
<title>Node15</title>
<g id="a_Node000015"><a xlink:title=" ">
<polygon fill="#e0e0e0" stroke="#999999" points="1783.25,-18.5 1657.75,-18.5 1657.75,0 1783.25,0 1783.25,-18.5"/>
<text text-anchor="middle" x="1720.5" y="-5" font-family="Helvetica,sans-Serif" font-size="10.00">CoverageControlConfig.h</text>
</a>
</g>
</g>
<!-- Node14&#45;&gt;Node15 -->
<g id="edge15_Node000014_Node000015" class="edge">
<title>Node14&#45;&gt;Node15</title>
<g id="a_edge15_Node000014_Node000015"><a xlink:title=" ">
<path fill="none" stroke="#63b8ff" d="M1621.99,-54.08C1640.69,-45.76 1669.2,-33.08 1690.74,-23.49"/>
<polygon fill="#63b8ff" stroke="#63b8ff" points="1691.89,-26.81 1699.6,-19.55 1689.04,-20.41 1691.89,-26.81"/>
</a>
</g>
</g>
<!-- Node16 -->
<g id="Node000016" class="node">
<title>Node16</title>
<g id="a_Node000016"><a xlink:title=" ">
<polygon fill="#e0e0e0" stroke="#999999" points="1622.12,-18.5 1582.88,-18.5 1582.88,0 1622.12,0 1622.12,-18.5"/>
<text text-anchor="middle" x="1602.5" y="-5" font-family="Helvetica,sans-Serif" font-size="10.00">limits</text>
</a>
</g>
</g>
<!-- Node14&#45;&gt;Node16 -->
<g id="edge17_Node000014_Node000016" class="edge">
<title>Node14&#45;&gt;Node16</title>
<g id="a_edge17_Node000014_Node000016"><a xlink:title=" ">
<path fill="none" stroke="#63b8ff" d="M1602.5,-54.08C1602.5,-47.58 1602.5,-38.42 1602.5,-30.16"/>
<polygon fill="#63b8ff" stroke="#63b8ff" points="1606,-30.27 1602.5,-20.27 1599,-30.27 1606,-30.27"/>
</a>
</g>
</g>
<!-- Node17&#45;&gt;Node6 -->
<g id="edge22_Node000017_Node000006" class="edge">
<title>Node17&#45;&gt;Node6</title>
<g id="a_edge22_Node000017_Node000006"><a xlink:title=" ">
<path fill="none" stroke="#63b8ff" d="M1059.85,-54.02C963.04,-42.7 797.81,-23.38 723.58,-14.7"/>
<polygon fill="#63b8ff" stroke="#63b8ff" points="724.31,-11.26 713.98,-13.58 723.5,-18.22 724.31,-11.26"/>
</a>
</g>
</g>
<!-- Node17&#45;&gt;Node9 -->
<g id="edge23_Node000017_Node000009" class="edge">
<title>Node17&#45;&gt;Node9</title>
<g id="a_edge23_Node000017_Node000009"><a xlink:title=" ">
<path fill="none" stroke="#63b8ff" d="M1192.69,-54.02C1267.43,-42.81 1394.49,-23.75 1453.13,-14.95"/>
<polygon fill="#63b8ff" stroke="#63b8ff" points="1453.37,-18.46 1462.74,-13.51 1452.33,-11.54 1453.37,-18.46"/>
</a>
</g>
</g>
<!-- Node17&#45;&gt;Node13 -->
<g id="edge20_Node000017_Node000013" class="edge">
<title>Node17&#45;&gt;Node13</title>
<g id="a_edge20_Node000017_Node000013"><a xlink:title=" ">
<path fill="none" stroke="#63b8ff" d="M1167.2,-54.08C1203.77,-44.38 1262.68,-28.76 1299.41,-19.02"/>
<polygon fill="#63b8ff" stroke="#63b8ff" points="1300.27,-22.42 1309.04,-16.47 1298.48,-15.65 1300.27,-22.42"/>
</a>
</g>
</g>
<!-- Node18 -->
<g id="Node000018" class="node">
<title>Node18</title>
<g id="a_Node000018"><a xlink:title=" ">
<polygon fill="#e0e0e0" stroke="#999999" points="590.25,-18.5 530.75,-18.5 530.75,0 590.25,0 590.25,-18.5"/>
<text text-anchor="middle" x="560.5" y="-5" font-family="Helvetica,sans-Serif" font-size="10.00">filesystem</text>
</a>
</g>
</g>
<!-- Node17&#45;&gt;Node18 -->
<g id="edge21_Node000017_Node000018" class="edge">
<title>Node17&#45;&gt;Node18</title>
<g id="a_edge21_Node000017_Node000018"><a xlink:title=" ">
<path fill="none" stroke="#63b8ff" d="M1059.31,-55.92C963.96,-47.26 794.53,-31.84 649.5,-18.5 633.86,-17.06 616.68,-15.47 601.62,-14.07"/>
<polygon fill="#63b8ff" stroke="#63b8ff" points="602.36,-10.63 592.08,-13.19 601.71,-17.6 602.36,-10.63"/>
</a>
</g>
</g>
<!-- Node19&#45;&gt;Node3 -->
<g id="edge25_Node000019_Node000003" class="edge">
<title>Node19&#45;&gt;Node3</title>
<g id="a_edge25_Node000019_Node000003"><a xlink:title=" ">
<path fill="none" stroke="#63b8ff" d="M887.07,-54.08C915.74,-45.38 960.13,-31.91 992.13,-22.2"/>
<polygon fill="#63b8ff" stroke="#63b8ff" points="992.89,-25.62 1001.44,-19.37 990.86,-18.93 992.89,-25.62"/>
</a>
</g>
</g>
<!-- Node19&#45;&gt;Node11 -->
<g id="edge27_Node000019_Node000011" class="edge">
<title>Node19&#45;&gt;Node11</title>
<g id="a_edge27_Node000019_Node000011"><a xlink:title=" ">
<path fill="none" stroke="#63b8ff" d="M789.64,-54.08C698.64,-42.62 541.96,-22.9 474.25,-14.37"/>
<polygon fill="#63b8ff" stroke="#63b8ff" points="474.91,-10.93 464.55,-13.15 474.03,-17.87 474.91,-10.93"/>
</a>
</g>
</g>
<!-- Node20 -->
<g id="Node000020" class="node">
<title>Node20</title>
<g id="a_Node000020"><a xlink:title=" ">
<polygon fill="#e0e0e0" stroke="#999999" points="879.62,-18.5 837.38,-18.5 837.38,0 879.62,0 879.62,-18.5"/>
<text text-anchor="middle" x="858.5" y="-5" font-family="Helvetica,sans-Serif" font-size="10.00">queue</text>
</a>
</g>
</g>
<!-- Node19&#45;&gt;Node20 -->
<g id="edge26_Node000019_Node000020" class="edge">
<title>Node19&#45;&gt;Node20</title>
<g id="a_edge26_Node000019_Node000020"><a xlink:title=" ">
<path fill="none" stroke="#63b8ff" d="M858.5,-54.08C858.5,-47.58 858.5,-38.42 858.5,-30.16"/>
<polygon fill="#63b8ff" stroke="#63b8ff" points="862,-30.27 858.5,-20.27 855,-30.27 862,-30.27"/>
</a>
</g>
</g>
<!-- Node22&#45;&gt;Node9 -->
<g id="edge32_Node000022_Node000009" class="edge">
<title>Node22&#45;&gt;Node9</title>
<g id="a_edge32_Node000022_Node000009"><a xlink:title=" ">
<path fill="none" stroke="#63b8ff" d="M1454.67,-108.74C1460.65,-88.98 1471.71,-52.47 1478.55,-29.89"/>
<polygon fill="#63b8ff" stroke="#63b8ff" points="1481.87,-31 1481.42,-20.41 1475.17,-28.97 1481.87,-31"/>
</a>
</g>
</g>
<!-- Node22&#45;&gt;Node13 -->
<g id="edge31_Node000022_Node000013" class="edge">
<title>Node22&#45;&gt;Node13</title>
<g id="a_edge31_Node000022_Node000013"><a xlink:title=" ">
<path fill="none" stroke="#63b8ff" d="M1443.25,-108.76C1435.03,-94.08 1420.53,-70.74 1403.5,-54.5 1390.94,-42.52 1374.63,-32.08 1360.81,-24.35"/>
<polygon fill="#63b8ff" stroke="#63b8ff" points="1362.63,-21.36 1352.16,-19.71 1359.32,-27.52 1362.63,-21.36"/>
</a>
</g>
</g>
<!-- Node22&#45;&gt;Node17 -->
<g id="edge33_Node000022_Node000017" class="edge">
<title>Node22&#45;&gt;Node17</title>
<g id="a_edge33_Node000022_Node000017"><a xlink:title=" ">
<path fill="none" stroke="#63b8ff" d="M1395.1,-112.37C1338.59,-102.05 1251.25,-86.09 1193.48,-75.53"/>
<polygon fill="#63b8ff" stroke="#63b8ff" points="1194.3,-72.12 1183.83,-73.77 1193.04,-79.01 1194.3,-72.12"/>
</a>
</g>
</g>
<!-- Node23&#45;&gt;Node6 -->
<g id="edge37_Node000023_Node000006" class="edge">
<title>Node23&#45;&gt;Node6</title>
<g id="a_edge37_Node000023_Node000006"><a xlink:title=" ">
<path fill="none" stroke="#63b8ff" d="M281.52,-178.84C293.63,-153.93 332.46,-82.15 389.5,-54.5 412.3,-43.45 572.21,-23.55 647.05,-14.7"/>
<polygon fill="#63b8ff" stroke="#63b8ff" points="647.27,-18.2 656.79,-13.55 646.45,-11.25 647.27,-18.2"/>
</a>
</g>
</g>
<!-- Node23&#45;&gt;Node7 -->
<g id="edge38_Node000023_Node000007" class="edge">
<title>Node23&#45;&gt;Node7</title>
<g id="a_edge38_Node000023_Node000007"><a xlink:title=" ">
<path fill="none" stroke="#63b8ff" d="M265.63,-179C251.59,-168.95 227.95,-152.03 210.74,-139.7"/>
<polygon fill="#63b8ff" stroke="#63b8ff" points="212.86,-136.92 202.69,-133.94 208.79,-142.61 212.86,-136.92"/>
</a>
</g>
</g>
<!-- Node23&#45;&gt;Node9 -->
<g id="edge40_Node000023_Node000009" class="edge">
<title>Node23&#45;&gt;Node9</title>
<g id="a_edge40_Node000023_Node000009"><a xlink:title=" ">
<path fill="none" stroke="#63b8ff" d="M341.32,-184.69C564.77,-174.81 1299.02,-142.07 1310.5,-138 1377.4,-114.29 1440.56,-55.73 1468.88,-26.87"/>
<polygon fill="#63b8ff" stroke="#63b8ff" points="1471.06,-29.66 1475.47,-20.03 1466.02,-24.81 1471.06,-29.66"/>
</a>
</g>
</g>
<!-- Node23&#45;&gt;Node11 -->
<g id="edge39_Node000023_Node000011" class="edge">
<title>Node23&#45;&gt;Node11</title>
<g id="a_edge39_Node000023_Node000011"><a xlink:title=" ">
<path fill="none" stroke="#63b8ff" d="M272.09,-178.93C258.39,-156.01 225.47,-92.51 255.5,-54.5 274.23,-30.79 360.4,-18.42 408.61,-13.26"/>
<polygon fill="#63b8ff" stroke="#63b8ff" points="408.89,-16.75 418.48,-12.25 408.17,-9.78 408.89,-16.75"/>
</a>
</g>
</g>
<!-- Node23&#45;&gt;Node18 -->
<g id="edge36_Node000023_Node000018" class="edge">
<title>Node23&#45;&gt;Node18</title>
<g id="a_edge36_Node000023_Node000018"><a xlink:title=" ">
<path fill="none" stroke="#63b8ff" d="M275.07,-178.96C268.97,-155.57 255.79,-89.89 288.5,-54.5 303.96,-37.78 446.88,-21.45 519.12,-14.18"/>
<polygon fill="#63b8ff" stroke="#63b8ff" points="519.38,-17.67 528.98,-13.2 518.69,-10.71 519.38,-17.67"/>
</a>
</g>
</g>
<!-- Node23&#45;&gt;Node19 -->
<g id="edge41_Node000023_Node000019" class="edge">
<title>Node23&#45;&gt;Node19</title>
<g id="a_edge41_Node000023_Node000019"><a xlink:title=" ">
<path fill="none" stroke="#63b8ff" d="M341.34,-180.81C389.77,-174.14 457.21,-161.41 512.5,-138 533.73,-129.01 534,-117.32 555.5,-109 575.89,-101.11 695.2,-85.09 777.88,-74.64"/>
<polygon fill="#63b8ff" stroke="#63b8ff" points="778.3,-78.12 787.78,-73.4 777.43,-71.17 778.3,-78.12"/>
</a>
</g>
</g>
<!-- Node23&#45;&gt;Node24 -->
<g id="edge42_Node000023_Node000024" class="edge">
<title>Node23&#45;&gt;Node24</title>
<g id="a_edge42_Node000023_Node000024"><a xlink:title=" ">
<path fill="none" stroke="#63b8ff" d="M299.55,-178.87C326.97,-168.14 374.04,-149.72 405.7,-137.33"/>
<polygon fill="#63b8ff" stroke="#63b8ff" points="406.75,-140.68 414.79,-133.78 404.2,-134.16 406.75,-140.68"/>
</a>
</g>
</g>
<!-- Node24&#45;&gt;Node6 -->
<g id="edge44_Node000024_Node000006" class="edge">
<title>Node24&#45;&gt;Node6</title>
<g id="a_edge44_Node000024_Node000006"><a xlink:title=" ">
<path fill="none" stroke="#63b8ff" d="M451.25,-113.85C472.13,-99.95 515.21,-72.42 554.5,-54.5 584.89,-40.64 620.93,-28.77 647.52,-20.83"/>
<polygon fill="#63b8ff" stroke="#63b8ff" points="648.22,-24.27 656.83,-18.1 646.25,-17.55 648.22,-24.27"/>
</a>
</g>
</g>
<!-- Node24&#45;&gt;Node10 -->
<g id="edge46_Node000024_Node000010" class="edge">
<title>Node24&#45;&gt;Node10</title>
<g id="a_edge46_Node000024_Node000010"><a xlink:title=" ">
<path fill="none" stroke="#63b8ff" d="M420.39,-113.85C400.69,-104.46 368.96,-89.31 345.94,-78.32"/>
<polygon fill="#63b8ff" stroke="#63b8ff" points="347.64,-75.26 337.1,-74.11 344.62,-81.57 347.64,-75.26"/>
</a>
</g>
</g>
<!-- Node24&#45;&gt;Node11 -->
<g id="edge47_Node000024_Node000011" class="edge">
<title>Node24&#45;&gt;Node11</title>
<g id="a_edge47_Node000024_Node000011"><a xlink:title=" ">
<path fill="none" stroke="#63b8ff" d="M438.73,-114.06C439.2,-96.35 440.31,-54.87 440.97,-30.04"/>
<polygon fill="#63b8ff" stroke="#63b8ff" points="444.46,-30.39 441.23,-20.3 437.47,-30.2 444.46,-30.39"/>
</a>
</g>
</g>
<!-- Node24&#45;&gt;Node13 -->
<g id="edge43_Node000024_Node000013" class="edge">
<title>Node24&#45;&gt;Node13</title>
<g id="a_edge43_Node000024_Node000013"><a xlink:title=" ">
<path fill="none" stroke="#63b8ff" d="M474.71,-113.86C536.87,-99.34 668.07,-70.13 780.5,-54.5 976.06,-27.31 1213.1,-15.27 1299.22,-11.57"/>
<polygon fill="#63b8ff" stroke="#63b8ff" points="1299.22,-15.07 1309.06,-11.15 1298.92,-8.08 1299.22,-15.07"/>
</a>
</g>
</g>
<!-- Node24&#45;&gt;Node14 -->
<g id="edge48_Node000024_Node000014" class="edge">
<title>Node24&#45;&gt;Node14</title>
<g id="a_edge48_Node000024_Node000014"><a xlink:title=" ">
<path fill="none" stroke="#63b8ff" d="M504.07,-117.4C540.43,-114.67 586.45,-111.4 627.5,-109 957.64,-89.72 1351.08,-74.12 1519.42,-67.79"/>
<polygon fill="#63b8ff" stroke="#63b8ff" points="1519.53,-71.29 1529.4,-67.42 1519.27,-64.3 1519.53,-71.29"/>
</a>
</g>
</g>
<!-- Node24&#45;&gt;Node19 -->
<g id="edge49_Node000024_Node000019" class="edge">
<title>Node24&#45;&gt;Node19</title>
<g id="a_edge49_Node000024_Node000019"><a xlink:title=" ">
<path fill="none" stroke="#63b8ff" d="M487.76,-113.77C497.6,-112.11 507.87,-110.45 517.5,-109 606.56,-95.62 709.06,-82.64 778.25,-74.24"/>
<polygon fill="#63b8ff" stroke="#63b8ff" points="778.47,-77.74 787.98,-73.06 777.63,-70.79 778.47,-77.74"/>
</a>
</g>
</g>
<!-- Node25 -->
<g id="Node000025" class="node">
<title>Node25</title>
<g id="a_Node000025"><a xlink:title=" ">
<polygon fill="#e0e0e0" stroke="#999999" points="615.5,-73 563.5,-73 563.5,-54.5 615.5,-54.5 615.5,-73"/>
<text text-anchor="middle" x="589.5" y="-59.5" font-family="Helvetica,sans-Serif" font-size="10.00">memory</text>
</a>
</g>
</g>
<!-- Node24&#45;&gt;Node25 -->
<g id="edge45_Node000024_Node000025" class="edge">
<title>Node24&#45;&gt;Node25</title>
<g id="a_edge45_Node000024_Node000025"><a xlink:title=" ">
<path fill="none" stroke="#63b8ff" d="M461.11,-113.85C486.35,-104.2 527.44,-88.48 556.33,-77.44"/>
<polygon fill="#63b8ff" stroke="#63b8ff" points="557.24,-80.84 565.33,-74 554.74,-74.3 557.24,-80.84"/>
</a>
</g>
</g>
<!-- Node26&#45;&gt;Node4 -->
<g id="edge54_Node000026_Node000004" class="edge">
<title>Node26&#45;&gt;Node4</title>
<g id="a_edge54_Node000026_Node000004"><a xlink:title=" ">
<path fill="none" stroke="#63b8ff" d="M736.99,-238.52C711.25,-227.78 675.98,-213.06 650.81,-202.56"/>
<polygon fill="#63b8ff" stroke="#63b8ff" points="652.34,-199.41 641.76,-198.79 649.65,-205.87 652.34,-199.41"/>
</a>
</g>
</g>
<!-- Node26&#45;&gt;Node6 -->
<g id="edge52_Node000026_Node000006" class="edge">
<title>Node26&#45;&gt;Node6</title>
<g id="a_edge52_Node000026_Node000006"><a xlink:title=" ">
<path fill="none" stroke="#63b8ff" d="M765.69,-238.78C751.34,-197.9 708.85,-76.81 692.25,-29.5"/>
<polygon fill="#63b8ff" stroke="#63b8ff" points="695.66,-28.63 689.04,-20.35 689.05,-30.94 695.66,-28.63"/>
</a>
</g>
</g>
<!-- Node26&#45;&gt;Node11 -->
<g id="edge55_Node000026_Node000011" class="edge">
<title>Node26&#45;&gt;Node11</title>
<g id="a_edge55_Node000026_Node000011"><a xlink:title=" ">
<path fill="none" stroke="#63b8ff" d="M713.7,-250.48C578.73,-245.25 246.84,-229.81 204.5,-203 166.43,-178.89 145.92,-149.09 166.5,-109 211.45,-21.45 346.2,-9.88 408.83,-9.42"/>
<polygon fill="#63b8ff" stroke="#63b8ff" points="408.47,-12.91 418.48,-9.44 408.49,-5.91 408.47,-12.91"/>
</a>
</g>
</g>
<!-- Node26&#45;&gt;Node13 -->
<g id="edge51_Node000026_Node000013" class="edge">
<title>Node26&#45;&gt;Node13</title>
<g id="a_edge51_Node000026_Node000013"><a xlink:title=" ">
<path fill="none" stroke="#63b8ff" d="M827.37,-249.01C953.13,-240 1248.62,-211.34 1310.5,-138 1336.31,-107.41 1336.88,-57.67 1334.82,-30.15"/>
<polygon fill="#63b8ff" stroke="#63b8ff" points="1338.32,-30.03 1333.88,-20.42 1331.36,-30.71 1338.32,-30.03"/>
</a>
</g>
</g>
<!-- Node26&#45;&gt;Node14 -->
<g id="edge56_Node000026_Node000014" class="edge">
<title>Node26&#45;&gt;Node14</title>
<g id="a_edge56_Node000026_Node000014"><a xlink:title=" ">
<path fill="none" stroke="#63b8ff" d="M827.69,-250.29C963.45,-244.69 1302.02,-228.54 1412.5,-203 1488.89,-185.34 1522.07,-194.44 1576.5,-138 1590.68,-123.29 1597.18,-100.36 1600.13,-84.08"/>
<polygon fill="#63b8ff" stroke="#63b8ff" points="1603.52,-85.07 1601.53,-74.66 1596.6,-84.04 1603.52,-85.07"/>
</a>
</g>
</g>
<!-- Node26&#45;&gt;Node17 -->
<g id="edge58_Node000026_Node000017" class="edge">
<title>Node26&#45;&gt;Node17</title>
<g id="a_edge58_Node000026_Node000017"><a xlink:title=" ">
<path fill="none" stroke="#63b8ff" d="M797.56,-238.54C865.12,-203.69 1040.59,-113.19 1107.78,-78.53"/>
<polygon fill="#63b8ff" stroke="#63b8ff" points="1108.98,-81.85 1116.26,-74.16 1105.77,-75.63 1108.98,-81.85"/>
</a>
</g>
</g>
<!-- Node26&#45;&gt;Node19 -->
<g id="edge59_Node000026_Node000019" class="edge">
<title>Node26&#45;&gt;Node19</title>
<g id="a_edge59_Node000026_Node000019"><a xlink:title=" ">
<path fill="none" stroke="#63b8ff" d="M776.53,-238.53C787.72,-212.74 812.67,-155.98 835.5,-109 839.62,-100.53 844.38,-91.27 848.51,-83.42"/>
<polygon fill="#63b8ff" stroke="#63b8ff" points="851.47,-85.31 853.07,-74.83 845.29,-82.03 851.47,-85.31"/>
</a>
</g>
</g>
<!-- Node26&#45;&gt;Node22 -->
<g id="edge57_Node000026_Node000022" class="edge">
<title>Node26&#45;&gt;Node22</title>
<g id="a_edge57_Node000026_Node000022"><a xlink:title=" ">
<path fill="none" stroke="#63b8ff" d="M827.52,-250.31C969.83,-244.51 1332.73,-227.49 1381.5,-203 1405.61,-190.9 1424.98,-166.38 1436.99,-147.95"/>
<polygon fill="#63b8ff" stroke="#63b8ff" points="1439.95,-149.83 1442.24,-139.48 1434,-146.14 1439.95,-149.83"/>
</a>
</g>
</g>
<!-- Node26&#45;&gt;Node24 -->
<g id="edge60_Node000026_Node000024" class="edge">
<title>Node26&#45;&gt;Node24</title>
<g id="a_edge60_Node000026_Node000024"><a xlink:title=" ">
<path fill="none" stroke="#63b8ff" d="M750.42,-238.53C718.4,-216.27 659.07,-175.12 656.5,-174 611.63,-154.33 558.02,-142.02 515.18,-134.6"/>
<polygon fill="#63b8ff" stroke="#63b8ff" points="515.9,-131.17 505.46,-132.98 514.75,-138.08 515.9,-131.17"/>
</a>
</g>
</g>
<!-- Node26&#45;&gt;Node25 -->
<g id="edge53_Node000026_Node000025" class="edge">
<title>Node26&#45;&gt;Node25</title>
<g id="a_edge53_Node000026_Node000025"><a xlink:title=" ">
<path fill="none" stroke="#63b8ff" d="M758.41,-238.63C743.5,-222.02 716.88,-193.95 690.5,-174 664.78,-154.55 649.84,-161.26 627.5,-138 612.63,-122.52 602.15,-100.07 596.02,-84.11"/>
<polygon fill="#63b8ff" stroke="#63b8ff" points="599.35,-83.05 592.68,-74.82 592.77,-85.42 599.35,-83.05"/>
</a>
</g>
</g>
<!-- Node26&#45;&gt;Node27 -->
<g id="edge61_Node000026_Node000027" class="edge">
<title>Node26&#45;&gt;Node27</title>
<g id="a_edge61_Node000026_Node000027"><a xlink:title=" ">
<path fill="none" stroke="#63b8ff" d="M827.45,-240.13C874.68,-229.87 941.98,-215.25 992.12,-204.36"/>
<polygon fill="#63b8ff" stroke="#63b8ff" points="992.68,-207.82 1001.71,-202.27 991.19,-200.97 992.68,-207.82"/>
</a>
</g>
</g>
<!-- Node27&#45;&gt;Node3 -->
<g id="edge62_Node000027_Node000003" class="edge">
<title>Node27&#45;&gt;Node3</title>
<g id="a_edge62_Node000027_Node000003"><a xlink:title=" ">
<path fill="none" stroke="#63b8ff" d="M1058.22,-173.59C1053.09,-142.2 1040.59,-65.79 1034.68,-29.71"/>
<polygon fill="#63b8ff" stroke="#63b8ff" points="1038.21,-29.57 1033.14,-20.27 1031.3,-30.7 1038.21,-29.57"/>
</a>
</g>
</g>
<!-- Node27&#45;&gt;Node5 -->
<g id="edge63_Node000027_Node000005" class="edge">
<title>Node27&#45;&gt;Node5</title>
<g id="a_edge63_Node000027_Node000005"><a xlink:title=" ">
<path fill="none" stroke="#63b8ff" d="M1002.97,-179.06C938.33,-169.5 830.29,-153.24 737.5,-138 724.17,-135.81 709.57,-133.28 696.69,-131.01"/>
<polygon fill="#63b8ff" stroke="#63b8ff" points="697.39,-127.58 686.94,-129.28 696.17,-134.47 697.39,-127.58"/>
</a>
</g>
</g>
<!-- Node27&#45;&gt;Node6 -->
<g id="edge64_Node000027_Node000006" class="edge">
<title>Node27&#45;&gt;Node6</title>
<g id="a_edge64_Node000027_Node000006"><a xlink:title=" ">
<path fill="none" stroke="#63b8ff" d="M1053.79,-173.83C1039.43,-146.19 1002.9,-83.8 952.5,-54.5 914.26,-32.27 787.84,-18.8 723.64,-13.23"/>
<polygon fill="#63b8ff" stroke="#63b8ff" points="724.18,-9.77 713.92,-12.41 723.59,-16.74 724.18,-9.77"/>
</a>
</g>
</g>
<!-- Node27&#45;&gt;Node9 -->
<g id="edge65_Node000027_Node000009" class="edge">
<title>Node27&#45;&gt;Node9</title>
<g id="a_edge65_Node000027_Node000009"><a xlink:title=" ">
<path fill="none" stroke="#63b8ff" d="M1118.02,-185.44C1234.28,-180.68 1488.46,-167.03 1514.5,-138 1542.16,-107.16 1515.38,-55.67 1497.55,-28.43"/>
<polygon fill="#63b8ff" stroke="#63b8ff" points="1500.47,-26.49 1491.93,-20.22 1494.69,-30.44 1500.47,-26.49"/>
</a>
</g>
</g>
<!-- Node27&#45;&gt;Node11 -->
<g id="edge66_Node000027_Node000011" class="edge">
<title>Node27&#45;&gt;Node11</title>
<g id="a_edge66_Node000027_Node000011"><a xlink:title=" ">
<path fill="none" stroke="#63b8ff" d="M1002.98,-177.48C957.12,-168.87 891.54,-155.13 835.5,-138 739.05,-108.51 720.64,-84.98 624.5,-54.5 572.63,-38.05 510.83,-24.28 473.95,-16.66"/>
<polygon fill="#63b8ff" stroke="#63b8ff" points="474.88,-13.28 464.38,-14.71 473.48,-20.14 474.88,-13.28"/>
</a>
</g>
</g>
<!-- Node27&#45;&gt;Node12 -->
<g id="edge68_Node000027_Node000012" class="edge">
<title>Node27&#45;&gt;Node12</title>
<g id="a_edge68_Node000027_Node000012"><a xlink:title=" ">
<path fill="none" stroke="#63b8ff" d="M1099.78,-173.52C1125.68,-164.3 1159.81,-152.15 1187.62,-142.25"/>
<polygon fill="#63b8ff" stroke="#63b8ff" points="1188.65,-145.6 1196.9,-138.95 1186.31,-139.01 1188.65,-145.6"/>
</a>
</g>
</g>
<!-- Node27&#45;&gt;Node14 -->
<g id="edge72_Node000027_Node000014" class="edge">
<title>Node27&#45;&gt;Node14</title>
<g id="a_edge72_Node000027_Node000014"><a xlink:title=" ">
<path fill="none" stroke="#63b8ff" d="M1117.99,-187.35C1230.55,-186.14 1475.35,-178.74 1547.5,-138 1569.31,-125.68 1585.1,-100.8 1594.03,-83.47"/>
<polygon fill="#63b8ff" stroke="#63b8ff" points="1597.04,-85.27 1598.23,-74.74 1590.74,-82.23 1597.04,-85.27"/>
</a>
</g>
</g>
<!-- Node27&#45;&gt;Node15 -->
<g id="edge67_Node000027_Node000015" class="edge">
<title>Node27&#45;&gt;Node15</title>
<g id="a_edge67_Node000027_Node000015"><a xlink:title=" ">
<path fill="none" stroke="#63b8ff" d="M1118.02,-185.25C1234.17,-180.17 1492.76,-166.02 1576.5,-138 1628.91,-120.47 1643.53,-112.19 1682.5,-73 1695.14,-60.29 1705.37,-42.58 1712.02,-29.22"/>
<polygon fill="#63b8ff" stroke="#63b8ff" points="1715.17,-30.74 1716.26,-20.2 1708.84,-27.76 1715.17,-30.74"/>
</a>
</g>
</g>
<!-- Node27&#45;&gt;Node17 -->
<g id="edge74_Node000027_Node000017" class="edge">
<title>Node27&#45;&gt;Node17</title>
<g id="a_edge74_Node000027_Node000017"><a xlink:title=" ">
<path fill="none" stroke="#63b8ff" d="M1068.7,-173.89C1082.08,-151.71 1108.59,-107.73 1123.55,-82.91"/>
<polygon fill="#63b8ff" stroke="#63b8ff" points="1126.41,-84.95 1128.58,-74.57 1120.42,-81.33 1126.41,-84.95"/>
</a>
</g>
</g>
<!-- Node27&#45;&gt;Node19 -->
<g id="edge75_Node000027_Node000019" class="edge">
<title>Node27&#45;&gt;Node19</title>
<g id="a_edge75_Node000027_Node000019"><a xlink:title=" ">
<path fill="none" stroke="#63b8ff" d="M1002.91,-182.16C946.31,-175.58 865.72,-162.18 846.5,-138 834.25,-122.59 840.89,-99.49 848.24,-83.37"/>
<polygon fill="#63b8ff" stroke="#63b8ff" points="851.16,-85.35 852.54,-74.85 844.91,-82.2 851.16,-85.35"/>
</a>
</g>
</g>
<!-- Node27&#45;&gt;Node22 -->
<g id="edge73_Node000027_Node000022" class="edge">
<title>Node27&#45;&gt;Node22</title>
<g id="a_edge73_Node000027_Node000022"><a xlink:title=" ">
<path fill="none" stroke="#63b8ff" d="M1118.05,-178.2C1188.89,-166.76 1308.97,-147.36 1383.78,-135.28"/>
<polygon fill="#63b8ff" stroke="#63b8ff" points="1384.12,-138.77 1393.44,-133.72 1383.01,-131.86 1384.12,-138.77"/>
</a>
</g>
</g>
<!-- Node28 -->
<g id="Node000028" class="node">
<title>Node28</title>
<g id="a_Node000028"><a xlink:href="polygon__utils_8h.html" target="_top" xlink:title="Provides utilities for polygon manipulation using CGAL.">
<polygon fill="white" stroke="#666666" points="965.38,-138 855.62,-138 855.62,-109 965.38,-109 965.38,-138"/>
<text text-anchor="start" x="863.62" y="-124.5" font-family="Helvetica,sans-Serif" font-size="10.00">CoverageControl/cgal</text>
<text text-anchor="middle" x="910.5" y="-114" font-family="Helvetica,sans-Serif" font-size="10.00">/polygon_utils.h</text>
</a>
</g>
</g>
<!-- Node27&#45;&gt;Node28 -->
<g id="edge69_Node000027_Node000028" class="edge">
<title>Node27&#45;&gt;Node28</title>
<g id="a_edge69_Node000027_Node000028"><a xlink:title=" ">
<path fill="none" stroke="#63b8ff" d="M1027.21,-173.52C1005.65,-164.46 977.36,-152.58 954.03,-142.78"/>
<polygon fill="#63b8ff" stroke="#63b8ff" points="955.67,-139.67 945.09,-139.03 952.96,-146.13 955.67,-139.67"/>
</a>
</g>
</g>
<!-- Node28&#45;&gt;Node11 -->
<g id="edge70_Node000028_Node000011" class="edge">
<title>Node28&#45;&gt;Node11</title>
<g id="a_edge70_Node000028_Node000011"><a xlink:title=" ">
<path fill="none" stroke="#63b8ff" d="M923.36,-108.66C935.72,-93.68 950.59,-69.87 936.5,-54.5 905.22,-20.39 567.58,-22.87 521.5,-18.5 505.97,-17.03 488.76,-15.27 474.29,-13.75"/>
<polygon fill="#63b8ff" stroke="#63b8ff" points="474.7,-10.28 464.39,-12.71 473.97,-17.24 474.7,-10.28"/>
</a>
</g>
</g>
<!-- Node28&#45;&gt;Node19 -->
<g id="edge71_Node000028_Node000019" class="edge">
<title>Node28&#45;&gt;Node19</title>
<g id="a_edge71_Node000028_Node000019"><a xlink:title=" ">
<path fill="none" stroke="#63b8ff" d="M897.91,-108.52C890.67,-100.48 881.52,-90.32 873.86,-81.81"/>
<polygon fill="#63b8ff" stroke="#63b8ff" points="876.6,-79.62 867.3,-74.53 871.4,-84.3 876.6,-79.62"/>
</a>
</g>
</g>
</g>
</svg>
