<?xml version="1.0" encoding="UTF-8" standalone="no"?>
<!DOCTYPE svg PUBLIC "-//W3C//DTD SVG 1.1//EN"
 "http://www.w3.org/Graphics/SVG/1.1/DTD/svg11.dtd">
<!-- Generated by graphviz version 12.1.2 (0)
 -->
<!-- Title: coverage_system.h Pages: 1 -->
<svg width="1001pt" height="146pt"
 viewBox="0.00 0.00 1001.00 146.00" xmlns="http://www.w3.org/2000/svg" xmlns:xlink="http://www.w3.org/1999/xlink">
<g id="graph0" class="graph" transform="scale(1 1) rotate(0) translate(4 142)">
<title>coverage_system.h</title>
<!-- Node1 -->
<g id="Node000001" class="node">
<title>Node1</title>
<g id="a_Node000001"><a xlink:title="The file contains the CoverageSystem class, which is the main class for the coverage control library.">
<polygon fill="#999999" stroke="#666666" points="479,-138 379.75,-138 379.75,-119.5 479,-119.5 479,-138"/>
<text text-anchor="middle" x="429.38" y="-124.5" font-family="Helvetica,sans-Serif" font-size="10.00">coverage_system.h</text>
</a>
</g>
</g>
<!-- Node2 -->
<g id="Node000002" class="node">
<title>Node2</title>
<g id="a_Node000002"><a xlink:href="centralized__cvt_8h.html" target="_top" xlink:title="Contains the class CentralizedCVT.">
<polygon fill="white" stroke="#666666" points="88.75,-78.25 0,-78.25 0,-59.75 88.75,-59.75 88.75,-78.25"/>
<text text-anchor="middle" x="44.38" y="-64.75" font-family="Helvetica,sans-Serif" font-size="10.00">centralized_cvt.h</text>
</a>
</g>
</g>
<!-- Node1&#45;&gt;Node2 -->
<g id="edge1_Node000001_Node000002" class="edge">
<title>Node1&#45;&gt;Node2</title>
<g id="a_edge1_Node000001_Node000002"><a xlink:title=" ">
<path fill="none" stroke="#63b8ff" d="M368.34,-121.66C301.67,-114.54 191.91,-101.38 98.38,-83.5 91.35,-82.16 83.88,-80.46 76.8,-78.73"/>
<polygon fill="#63b8ff" stroke="#63b8ff" points="367.65,-125.11 377.96,-122.68 368.39,-118.15 367.65,-125.11"/>
</a>
</g>
</g>
<!-- Node3 -->
<g id="Node000003" class="node">
<title>Node3</title>
<g id="a_Node000003"><a xlink:href="clairvoyant__cvt_8h.html" target="_top" xlink:title="Clairvoyant CVT algorithm.">
<polygon fill="white" stroke="#666666" points="195.75,-78.25 107,-78.25 107,-59.75 195.75,-59.75 195.75,-78.25"/>
<text text-anchor="middle" x="151.38" y="-64.75" font-family="Helvetica,sans-Serif" font-size="10.00">clairvoyant_cvt.h</text>
</a>
</g>
</g>
<!-- Node1&#45;&gt;Node3 -->
<g id="edge2_Node000001_Node000003" class="edge">
<title>Node1&#45;&gt;Node3</title>
<g id="a_edge2_Node000001_Node000003"><a xlink:title=" ">
<path fill="none" stroke="#63b8ff" d="M373.04,-116.91C328.53,-108.22 264.89,-95.54 209.38,-83.5 202.5,-82.01 195.19,-80.36 188.16,-78.74"/>
<polygon fill="#63b8ff" stroke="#63b8ff" points="372.24,-120.31 382.72,-118.79 373.58,-113.44 372.24,-120.31"/>
</a>
</g>
</g>
<!-- Node4 -->
<g id="Node000004" class="node">
<title>Node4</title>
<g id="a_Node000004"><a xlink:href="coverage__algorithm_8cpp.html" target="_top" xlink:title="Program to test the CVT&#45;based (Lloyd&#39;s) coverage control algorithms.">
<polygon fill="white" stroke="#666666" points="246.75,-18.5 128,-18.5 128,0 246.75,0 246.75,-18.5"/>
<text text-anchor="middle" x="187.38" y="-5" font-family="Helvetica,sans-Serif" font-size="10.00">coverage_algorithm.cpp</text>
</a>
</g>
</g>
<!-- Node1&#45;&gt;Node4 -->
<g id="edge4_Node000001_Node000004" class="edge">
<title>Node1&#45;&gt;Node4</title>
<g id="a_edge4_Node000001_Node000004"><a xlink:title=" ">
<path fill="none" stroke="#63b8ff" d="M368.14,-123.89C329.45,-119 279.85,-108.03 242.38,-83.5 216.83,-66.78 198.66,-33.94 191.18,-18.56"/>
<polygon fill="#63b8ff" stroke="#63b8ff" points="367.43,-127.33 377.76,-124.99 368.22,-120.37 367.43,-127.33"/>
</a>
</g>
</g>
<!-- Node5 -->
<g id="Node000005" class="node">
<title>Node5</title>
<g id="a_Node000005"><a xlink:href="coverage__system_8cpp.html" target="_top" xlink:title="Contains the implementation of the CoverageSystem class.">
<polygon fill="white" stroke="#666666" points="361.25,-78.25 251.5,-78.25 251.5,-59.75 361.25,-59.75 361.25,-78.25"/>
<text text-anchor="middle" x="306.38" y="-64.75" font-family="Helvetica,sans-Serif" font-size="10.00">coverage_system.cpp</text>
</a>
</g>
</g>
<!-- Node1&#45;&gt;Node5 -->
<g id="edge5_Node000001_Node000005" class="edge">
<title>Node1&#45;&gt;Node5</title>
<g id="a_edge5_Node000001_Node000005"><a xlink:title=" ">
<path fill="none" stroke="#63b8ff" d="M400.61,-114.25C377.25,-103.28 344.98,-88.13 324.92,-78.7"/>
<polygon fill="#63b8ff" stroke="#63b8ff" points="399.05,-117.38 409.59,-118.46 402.03,-111.04 399.05,-117.38"/>
</a>
</g>
</g>
<!-- Node6 -->
<g id="Node000006" class="node">
<title>Node6</title>
<g id="a_Node000006"><a xlink:href="decentralized__cvt_8h.html" target="_top" xlink:title="Contains the DecentralizedCVT class.">
<polygon fill="white" stroke="#666666" points="479,-78.25 379.75,-78.25 379.75,-59.75 479,-59.75 479,-78.25"/>
<text text-anchor="middle" x="429.38" y="-64.75" font-family="Helvetica,sans-Serif" font-size="10.00">decentralized_cvt.h</text>
</a>
</g>
</g>
<!-- Node1&#45;&gt;Node6 -->
<g id="edge6_Node000001_Node000006" class="edge">
<title>Node1&#45;&gt;Node6</title>
<g id="a_edge6_Node000001_Node000006"><a xlink:title=" ">
<path fill="none" stroke="#63b8ff" d="M429.38,-107.83C429.38,-97.83 429.38,-86.25 429.38,-78.56"/>
<polygon fill="#63b8ff" stroke="#63b8ff" points="425.88,-107.72 429.38,-117.72 432.88,-107.72 425.88,-107.72"/>
</a>
</g>
</g>
<!-- Node7 -->
<g id="Node000007" class="node">
<title>Node7</title>
<g id="a_Node000007"><a xlink:href="near__optimal__cvt_8h.html" target="_top" xlink:title="NearOptimalCVT class Global offline oracle: has complete information about the environment....">
<polygon fill="white" stroke="#666666" points="595.25,-78.25 497.5,-78.25 497.5,-59.75 595.25,-59.75 595.25,-78.25"/>
<text text-anchor="middle" x="546.38" y="-64.75" font-family="Helvetica,sans-Serif" font-size="10.00">near_optimal_cvt.h</text>
</a>
</g>
</g>
<!-- Node1&#45;&gt;Node7 -->
<g id="edge7_Node000001_Node000007" class="edge">
<title>Node1&#45;&gt;Node7</title>
<g id="a_edge7_Node000001_Node000007"><a xlink:title=" ">
<path fill="none" stroke="#63b8ff" d="M457.04,-114.1C479.24,-103.14 509.74,-88.08 528.74,-78.7"/>
<polygon fill="#63b8ff" stroke="#63b8ff" points="455.67,-110.87 448.25,-118.43 458.76,-117.15 455.67,-110.87"/>
</a>
</g>
</g>
<!-- Node8 -->
<g id="Node000008" class="node">
<title>Node8</title>
<g id="a_Node000008"><a xlink:href="oracle__bang__explore__exploit_8h.html" target="_top" xlink:title="First trial of oracle with exploration and exploitation. The oracle uses complete information about t...">
<polygon fill="white" stroke="#666666" points="719,-83.5 613.75,-83.5 613.75,-54.5 719,-54.5 719,-83.5"/>
<text text-anchor="start" x="621.75" y="-70" font-family="Helvetica,sans-Serif" font-size="10.00">oracle_bang_explore</text>
<text text-anchor="middle" x="666.38" y="-59.5" font-family="Helvetica,sans-Serif" font-size="10.00">_exploit.h</text>
</a>
</g>
</g>
<!-- Node1&#45;&gt;Node8 -->
<g id="edge8_Node000001_Node000008" class="edge">
<title>Node1&#45;&gt;Node8</title>
<g id="a_edge8_Node000001_Node000008"><a xlink:title=" ">
<path fill="none" stroke="#63b8ff" d="M476.05,-116.38C515.64,-106.73 572.4,-92.9 613.62,-82.85"/>
<polygon fill="#63b8ff" stroke="#63b8ff" points="475.47,-112.92 466.58,-118.68 477.13,-119.72 475.47,-112.92"/>
</a>
</g>
</g>
<!-- Node9 -->
<g id="Node000009" class="node">
<title>Node9</title>
<g id="a_Node000009"><a xlink:href="oracle__explore__exploit_8h.html" target="_top" xlink:title="Old trial of exploration and exploitation Uses system map for exploration as well.">
<polygon fill="white" stroke="#666666" points="857.5,-78.25 737.25,-78.25 737.25,-59.75 857.5,-59.75 857.5,-78.25"/>
<text text-anchor="middle" x="797.38" y="-64.75" font-family="Helvetica,sans-Serif" font-size="10.00">oracle_explore_exploit.h</text>
</a>
</g>
</g>
<!-- Node1&#45;&gt;Node9 -->
<g id="edge9_Node000001_Node000009" class="edge">
<title>Node1&#45;&gt;Node9</title>
<g id="a_edge9_Node000001_Node000009"><a xlink:title=" ">
<path fill="none" stroke="#63b8ff" d="M490.74,-119.51C551.28,-111.19 646.38,-97.58 728.38,-83.5 736.8,-82.05 745.77,-80.39 754.37,-78.73"/>
<polygon fill="#63b8ff" stroke="#63b8ff" points="490.41,-116.03 480.98,-120.85 491.36,-122.96 490.41,-116.03"/>
</a>
</g>
</g>
<!-- Node10 -->
<g id="Node000010" class="node">
<title>Node10</title>
<g id="a_Node000010"><a xlink:href="simul__explore__exploit_8h.html" target="_top" xlink:title="Simultaneous exploration and exploitation algorithm Uses frontier&#45;based exploration with bias towards...">
<polygon fill="white" stroke="#666666" points="993,-78.25 875.75,-78.25 875.75,-59.75 993,-59.75 993,-78.25"/>
<text text-anchor="middle" x="934.38" y="-64.75" font-family="Helvetica,sans-Serif" font-size="10.00">simul_explore_exploit.h</text>
</a>
</g>
</g>
<!-- Node1&#45;&gt;Node10 -->
<g id="edge10_Node000001_Node000010" class="edge">
<title>Node1&#45;&gt;Node10</title>
<g id="a_edge10_Node000001_Node000010"><a xlink:title=" ">
<path fill="none" stroke="#63b8ff" d="M490.85,-123.38C575.64,-116.93 733.12,-103.43 866.38,-83.5 875.3,-82.16 884.84,-80.45 893.85,-78.7"/>
<polygon fill="#63b8ff" stroke="#63b8ff" points="490.59,-119.89 480.88,-124.13 491.12,-126.87 490.59,-119.89"/>
</a>
</g>
</g>
<!-- Node3&#45;&gt;Node4 -->
<g id="edge3_Node000003_Node000004" class="edge">
<title>Node3&#45;&gt;Node4</title>
<g id="a_edge3_Node000003_Node000004"><a xlink:title=" ">
<path fill="none" stroke="#63b8ff" d="M162.76,-49.73C169.22,-39.38 176.98,-26.92 182.04,-18.81"/>
<polygon fill="#63b8ff" stroke="#63b8ff" points="159.81,-47.86 157.49,-58.19 165.75,-51.56 159.81,-47.86"/>
</a>
</g>
</g>
</g>
</svg>
