<?xml version="1.0" encoding="UTF-8" standalone="no"?>
<!DOCTYPE svg PUBLIC "-//W3C//DTD SVG 1.1//EN"
 "http://www.w3.org/Graphics/SVG/1.1/DTD/svg11.dtd">
<!-- Generated by graphviz version 10.0.1 (0)
 -->
<!-- Title: coverage_system.cpp Pages: 1 -->
<svg width="1889pt" height="396pt"
 viewBox="0.00 0.00 1888.50 395.50" xmlns="http://www.w3.org/2000/svg" xmlns:xlink="http://www.w3.org/1999/xlink">
<g id="graph0" class="graph" transform="scale(1 1) rotate(0) translate(4 391.5)">
<title>coverage_system.cpp</title>
<!-- Node1 -->
<g id="Node000001" class="node">
<title>Node1</title>
<g id="a_Node000001"><a xlink:title="Contains the implementation of the CoverageSystem class.">
<polygon fill="#999999" stroke="#666666" points="661.88,-387.5 552.12,-387.5 552.12,-369 661.88,-369 661.88,-387.5"/>
<text text-anchor="middle" x="607" y="-374" font-family="Helvetica,sans-Serif" font-size="10.00">coverage_system.cpp</text>
</a>
</g>
</g>
<!-- Node2 -->
<g id="Node000002" class="node">
<title>Node2</title>
<g id="a_Node000002"><a xlink:href="coverage__system_8h.html" target="_top" xlink:title="The file contains the CoverageSystem class, which is the main class for the coverage control library.">
<polygon fill="white" stroke="#666666" points="1318.38,-333 1187.62,-333 1187.62,-304 1318.38,-304 1318.38,-333"/>
<text text-anchor="start" x="1195.62" y="-319.5" font-family="Helvetica,sans-Serif" font-size="10.00">CoverageControl/coverage</text>
<text text-anchor="middle" x="1253" y="-309" font-family="Helvetica,sans-Serif" font-size="10.00">_system.h</text>
</a>
</g>
</g>
<!-- Node1&#45;&gt;Node2 -->
<g id="edge1_Node000001_Node000002" class="edge">
<title>Node1&#45;&gt;Node2</title>
<g id="a_edge1_Node000001_Node000002"><a xlink:title=" ">
<path fill="none" stroke="#63b8ff" d="M662.36,-372.3C777.71,-361.99 1044.05,-338.18 1176.02,-326.38"/>
<polygon fill="#63b8ff" stroke="#63b8ff" points="1176.05,-329.89 1185.7,-325.52 1175.43,-322.92 1176.05,-329.89"/>
</a>
</g>
</g>
<!-- Node24 -->
<g id="Node000024" class="node">
<title>Node24</title>
<g id="a_Node000024"><a xlink:href="plotter_8h.html" target="_top" xlink:title="Class to plot the map.">
<polygon fill="white" stroke="#666666" points="237.5,-197.75 110.5,-197.75 110.5,-179.25 237.5,-179.25 237.5,-197.75"/>
<text text-anchor="middle" x="174" y="-184.25" font-family="Helvetica,sans-Serif" font-size="10.00">CoverageControl/plotter.h</text>
</a>
</g>
</g>
<!-- Node1&#45;&gt;Node24 -->
<g id="edge80_Node000001_Node000024" class="edge">
<title>Node1&#45;&gt;Node24</title>
<g id="a_edge80_Node000001_Node000024"><a xlink:title=" ">
<path fill="none" stroke="#63b8ff" d="M551.85,-376.29C468.39,-372 309.25,-352.4 210,-268 192.08,-252.76 182.61,-226.73 177.95,-208.84"/>
<polygon fill="#63b8ff" stroke="#63b8ff" points="181.4,-208.21 175.75,-199.24 174.58,-209.77 181.4,-208.21"/>
</a>
</g>
</g>
<!-- Node3 -->
<g id="Node000003" class="node">
<title>Node3</title>
<g id="a_Node000003"><a xlink:title=" ">
<polygon fill="#e0e0e0" stroke="#999999" points="1880.5,-262.75 1837.5,-262.75 1837.5,-244.25 1880.5,-244.25 1880.5,-262.75"/>
<text text-anchor="middle" x="1859" y="-249.25" font-family="Helvetica,sans-Serif" font-size="10.00">omp.h</text>
</a>
</g>
</g>
<!-- Node2&#45;&gt;Node3 -->
<g id="edge2_Node000002_Node000003" class="edge">
<title>Node2&#45;&gt;Node3</title>
<g id="a_edge2_Node000002_Node000003"><a xlink:title=" ">
<path fill="none" stroke="#63b8ff" d="M1318.75,-314.52C1448.52,-308.2 1733.18,-292.04 1828,-268 1829,-267.75 1830,-267.47 1831.01,-267.16"/>
<polygon fill="#63b8ff" stroke="#63b8ff" points="1832.06,-270.51 1840.22,-263.76 1829.63,-263.94 1832.06,-270.51"/>
</a>
</g>
</g>
<!-- Node4 -->
<g id="Node000004" class="node">
<title>Node4</title>
<g id="a_Node000004"><a xlink:title=" ">
<polygon fill="#e0e0e0" stroke="#999999" points="226.12,-18.5 153.88,-18.5 153.88,0 226.12,0 226.12,-18.5"/>
<text text-anchor="middle" x="190" y="-5" font-family="Helvetica,sans-Serif" font-size="10.00">Eigen/Dense</text>
</a>
</g>
</g>
<!-- Node2&#45;&gt;Node4 -->
<g id="edge3_Node000002_Node000004" class="edge">
<title>Node2&#45;&gt;Node4</title>
<g id="a_edge3_Node000002_Node000004"><a xlink:title=" ">
<path fill="none" stroke="#63b8ff" d="M1187.52,-316.38C944.55,-312.02 106.01,-295.08 56,-268 18.31,-247.6 0,-232.36 0,-189.5 0,-189.5 0,-189.5 0,-122.5 0,-56.37 86.38,-28.39 142.65,-17.17"/>
<polygon fill="#63b8ff" stroke="#63b8ff" points="143.14,-20.64 152.33,-15.36 141.85,-13.76 143.14,-20.64"/>
</a>
</g>
</g>
<!-- Node5 -->
<g id="Node000005" class="node">
<title>Node5</title>
<g id="a_Node000005"><a xlink:title=" ">
<polygon fill="#e0e0e0" stroke="#999999" points="1280.88,-197.75 1225.12,-197.75 1225.12,-179.25 1280.88,-179.25 1280.88,-197.75"/>
<text text-anchor="middle" x="1253" y="-184.25" font-family="Helvetica,sans-Serif" font-size="10.00">algorithm</text>
</a>
</g>
</g>
<!-- Node2&#45;&gt;Node5 -->
<g id="edge4_Node000002_Node000005" class="edge">
<title>Node2&#45;&gt;Node5</title>
<g id="a_edge4_Node000002_Node000005"><a xlink:title=" ">
<path fill="none" stroke="#63b8ff" d="M1253,-303.8C1253,-281.18 1253,-235.91 1253,-209.64"/>
<polygon fill="#63b8ff" stroke="#63b8ff" points="1256.5,-209.67 1253,-199.67 1249.5,-209.67 1256.5,-209.67"/>
</a>
</g>
</g>
<!-- Node6 -->
<g id="Node000006" class="node">
<title>Node6</title>
<g id="a_Node000006"><a xlink:title=" ">
<polygon fill="#e0e0e0" stroke="#999999" points="1344.5,-132.75 1295.5,-132.75 1295.5,-114.25 1344.5,-114.25 1344.5,-132.75"/>
<text text-anchor="middle" x="1320" y="-119.25" font-family="Helvetica,sans-Serif" font-size="10.00">fstream</text>
</a>
</g>
</g>
<!-- Node2&#45;&gt;Node6 -->
<g id="edge5_Node000002_Node000006" class="edge">
<title>Node2&#45;&gt;Node6</title>
<g id="a_edge5_Node000002_Node000006"><a xlink:title=" ">
<path fill="none" stroke="#63b8ff" d="M1284.69,-303.66C1299.16,-295.53 1314.86,-283.73 1323,-268 1343.65,-228.1 1333.72,-173.21 1326.05,-144.25"/>
<polygon fill="#63b8ff" stroke="#63b8ff" points="1329.43,-143.33 1323.31,-134.68 1322.7,-145.26 1329.43,-143.33"/>
</a>
</g>
</g>
<!-- Node7 -->
<g id="Node000007" class="node">
<title>Node7</title>
<g id="a_Node000007"><a xlink:title=" ">
<polygon fill="#e0e0e0" stroke="#999999" points="855.75,-18.5 802.25,-18.5 802.25,0 855.75,0 855.75,-18.5"/>
<text text-anchor="middle" x="829" y="-5" font-family="Helvetica,sans-Serif" font-size="10.00">iostream</text>
</a>
</g>
</g>
<!-- Node2&#45;&gt;Node7 -->
<g id="edge6_Node000002_Node000007" class="edge">
<title>Node2&#45;&gt;Node7</title>
<g id="a_edge6_Node000002_Node000007"><a xlink:title=" ">
<path fill="none" stroke="#63b8ff" d="M1187.48,-315.91C967.03,-309.72 266,-282.7 266,-189.5 266,-189.5 266,-189.5 266,-122.5 266,-80.07 294.63,-72.61 333,-54.5 353.65,-44.76 678.04,-20.96 790.76,-12.94"/>
<polygon fill="#63b8ff" stroke="#63b8ff" points="790.67,-16.45 800.4,-12.25 790.18,-9.47 790.67,-16.45"/>
</a>
</g>
</g>
<!-- Node8 -->
<g id="Node000008" class="node">
<title>Node8</title>
<g id="a_Node000008"><a xlink:title=" ">
<polygon fill="#e0e0e0" stroke="#999999" points="941.4,-132.75 912.6,-132.75 912.6,-114.25 941.4,-114.25 941.4,-132.75"/>
<text text-anchor="middle" x="927" y="-119.25" font-family="Helvetica,sans-Serif" font-size="10.00">list</text>
</a>
</g>
</g>
<!-- Node2&#45;&gt;Node8 -->
<g id="edge7_Node000002_Node000008" class="edge">
<title>Node2&#45;&gt;Node8</title>
<g id="a_edge7_Node000002_Node000008"><a xlink:title=" ">
<path fill="none" stroke="#63b8ff" d="M1187.16,-311.37C1121.74,-304.13 1027.09,-290.19 998,-268 957.01,-236.74 938.15,-175.47 930.87,-144.07"/>
<polygon fill="#63b8ff" stroke="#63b8ff" points="934.32,-143.47 928.8,-134.43 927.47,-144.94 934.32,-143.47"/>
</a>
</g>
</g>
<!-- Node9 -->
<g id="Node000009" class="node">
<title>Node9</title>
<g id="a_Node000009"><a xlink:title=" ">
<polygon fill="#e0e0e0" stroke="#999999" points="1682.12,-262.75 1633.88,-262.75 1633.88,-244.25 1682.12,-244.25 1682.12,-262.75"/>
<text text-anchor="middle" x="1658" y="-249.25" font-family="Helvetica,sans-Serif" font-size="10.00">random</text>
</a>
</g>
</g>
<!-- Node2&#45;&gt;Node9 -->
<g id="edge8_Node000002_Node000009" class="edge">
<title>Node2&#45;&gt;Node9</title>
<g id="a_edge8_Node000002_Node000009"><a xlink:title=" ">
<path fill="none" stroke="#63b8ff" d="M1318.73,-312.77C1392.76,-306.48 1516.28,-293.13 1620,-268 1621.74,-267.58 1623.51,-267.11 1625.3,-266.6"/>
<polygon fill="#63b8ff" stroke="#63b8ff" points="1626.23,-269.97 1634.69,-263.6 1624.1,-263.3 1626.23,-269.97"/>
</a>
</g>
</g>
<!-- Node10 -->
<g id="Node000010" class="node">
<title>Node10</title>
<g id="a_Node000010"><a xlink:title=" ">
<polygon fill="#e0e0e0" stroke="#999999" points="1295,-18.5 1255,-18.5 1255,0 1295,0 1295,-18.5"/>
<text text-anchor="middle" x="1275" y="-5" font-family="Helvetica,sans-Serif" font-size="10.00">string</text>
</a>
</g>
</g>
<!-- Node2&#45;&gt;Node10 -->
<g id="edge9_Node000002_Node000010" class="edge">
<title>Node2&#45;&gt;Node10</title>
<g id="a_edge9_Node000002_Node000010"><a xlink:title=" ">
<path fill="none" stroke="#63b8ff" d="M1318.58,-310.9C1388.09,-303 1492.5,-288.24 1527,-268 1591.55,-230.14 1608.74,-208.44 1634,-138 1655.44,-78.21 1578.5,-73.86 1518,-54.5 1507.98,-51.29 1370.38,-26.98 1306.8,-15.82"/>
<polygon fill="#63b8ff" stroke="#63b8ff" points="1307.43,-12.37 1296.98,-14.09 1306.22,-19.27 1307.43,-12.37"/>
</a>
</g>
</g>
<!-- Node11 -->
<g id="Node000011" class="node">
<title>Node11</title>
<g id="a_Node000011"><a xlink:title=" ">
<polygon fill="#e0e0e0" stroke="#999999" points="1274.62,-73 1235.38,-73 1235.38,-54.5 1274.62,-54.5 1274.62,-73"/>
<text text-anchor="middle" x="1255" y="-59.5" font-family="Helvetica,sans-Serif" font-size="10.00">utility</text>
</a>
</g>
</g>
<!-- Node2&#45;&gt;Node11 -->
<g id="edge10_Node000002_Node000011" class="edge">
<title>Node2&#45;&gt;Node11</title>
<g id="a_edge10_Node000002_Node000011"><a xlink:title=" ">
<path fill="none" stroke="#63b8ff" d="M1318.87,-312.15C1348.42,-306.08 1380.68,-293.56 1399,-268 1440.29,-210.4 1433.46,-162.51 1387,-109 1373.65,-93.63 1320.71,-79.33 1286.07,-71.34"/>
<polygon fill="#63b8ff" stroke="#63b8ff" points="1287.1,-67.99 1276.58,-69.21 1285.57,-74.82 1287.1,-67.99"/>
</a>
</g>
</g>
<!-- Node12 -->
<g id="Node000012" class="node">
<title>Node12</title>
<g id="a_Node000012"><a xlink:title=" ">
<polygon fill="#e0e0e0" stroke="#999999" points="529.12,-18.5 486.88,-18.5 486.88,0 529.12,0 529.12,-18.5"/>
<text text-anchor="middle" x="508" y="-5" font-family="Helvetica,sans-Serif" font-size="10.00">vector</text>
</a>
</g>
</g>
<!-- Node2&#45;&gt;Node12 -->
<g id="edge11_Node000002_Node000012" class="edge">
<title>Node2&#45;&gt;Node12</title>
<g id="a_edge11_Node000002_Node000012"><a xlink:title=" ">
<path fill="none" stroke="#63b8ff" d="M1187.36,-317.63C988.78,-317.5 396.64,-313.24 210,-268 128.33,-248.21 38,-273.53 38,-189.5 38,-189.5 38,-189.5 38,-122.5 38,-86.01 52.67,-73.21 84,-54.5 152.46,-13.62 361.76,-27.37 441,-18.5 452.2,-17.25 464.45,-15.77 475.37,-14.41"/>
<polygon fill="#63b8ff" stroke="#63b8ff" points="475.6,-17.91 485.09,-13.2 474.73,-10.97 475.6,-17.91"/>
</a>
</g>
</g>
<!-- Node13 -->
<g id="Node000013" class="node">
<title>Node13</title>
<g id="a_Node000013"><a xlink:href="bivariate__normal__distribution_8h.html" target="_top" xlink:title="Class for Bivariate Normal Distribution.">
<polygon fill="white" stroke="#666666" points="1200.88,-138 1073.12,-138 1073.12,-109 1200.88,-109 1200.88,-138"/>
<text text-anchor="start" x="1081.12" y="-124.5" font-family="Helvetica,sans-Serif" font-size="10.00">CoverageControl/bivariate</text>
<text text-anchor="middle" x="1137" y="-114" font-family="Helvetica,sans-Serif" font-size="10.00">_normal_distribution.h</text>
</a>
</g>
</g>
<!-- Node2&#45;&gt;Node13 -->
<g id="edge12_Node000002_Node000013" class="edge">
<title>Node2&#45;&gt;Node13</title>
<g id="a_edge12_Node000002_Node000013"><a xlink:title=" ">
<path fill="none" stroke="#63b8ff" d="M1263.33,-303.85C1282.6,-276.59 1319.51,-214.57 1290,-174 1272.01,-149.28 1241.42,-136.65 1212.29,-130.29"/>
<polygon fill="#63b8ff" stroke="#63b8ff" points="1213.2,-126.9 1202.72,-128.44 1211.87,-133.77 1213.2,-126.9"/>
</a>
</g>
</g>
<!-- Node15 -->
<g id="Node000015" class="node">
<title>Node15</title>
<g id="a_Node000015"><a xlink:href="constants_8h.html" target="_top" xlink:title="Constants for the CoverageControl library.">
<polygon fill="white" stroke="#666666" points="1217.38,-73 1074.62,-73 1074.62,-54.5 1217.38,-54.5 1217.38,-73"/>
<text text-anchor="middle" x="1146" y="-59.5" font-family="Helvetica,sans-Serif" font-size="10.00">CoverageControl/constants.h</text>
</a>
</g>
</g>
<!-- Node2&#45;&gt;Node15 -->
<g id="edge29_Node000002_Node000015" class="edge">
<title>Node2&#45;&gt;Node15</title>
<g id="a_edge29_Node000002_Node000015"><a xlink:title=" ">
<path fill="none" stroke="#63b8ff" d="M1295.47,-303.52C1312.39,-295.75 1330.35,-284.29 1341,-268 1379.8,-208.66 1398.62,-164.11 1354,-109 1345.15,-98.07 1273.17,-84.48 1216.34,-75.26"/>
<polygon fill="#63b8ff" stroke="#63b8ff" points="1217.12,-71.84 1206.69,-73.72 1216.01,-78.76 1217.12,-71.84"/>
</a>
</g>
</g>
<!-- Node18 -->
<g id="Node000018" class="node">
<title>Node18</title>
<g id="a_Node000018"><a xlink:href="parameters_8h.html" target="_top" xlink:title="Contains parameters.">
<polygon fill="white" stroke="#666666" points="1480.75,-73 1331.25,-73 1331.25,-54.5 1480.75,-54.5 1480.75,-73"/>
<text text-anchor="middle" x="1406" y="-59.5" font-family="Helvetica,sans-Serif" font-size="10.00">CoverageControl/parameters.h</text>
</a>
</g>
</g>
<!-- Node2&#45;&gt;Node18 -->
<g id="edge35_Node000002_Node000018" class="edge">
<title>Node2&#45;&gt;Node18</title>
<g id="a_edge35_Node000002_Node000018"><a xlink:title=" ">
<path fill="none" stroke="#63b8ff" d="M1318.6,-313.23C1353.34,-307.63 1394.24,-295.2 1421,-268 1470.23,-217.95 1434.14,-123.39 1415.41,-83.38"/>
<polygon fill="#63b8ff" stroke="#63b8ff" points="1418.65,-82.04 1411.13,-74.58 1412.36,-85.11 1418.65,-82.04"/>
</a>
</g>
</g>
<!-- Node20 -->
<g id="Node000020" class="node">
<title>Node20</title>
<g id="a_Node000020"><a xlink:href="typedefs_8h.html" target="_top" xlink:title="Contains typedefs for the library.">
<polygon fill="white" stroke="#666666" points="479.75,-73 342.25,-73 342.25,-54.5 479.75,-54.5 479.75,-73"/>
<text text-anchor="middle" x="411" y="-59.5" font-family="Helvetica,sans-Serif" font-size="10.00">CoverageControl/typedefs.h</text>
</a>
</g>
</g>
<!-- Node2&#45;&gt;Node20 -->
<g id="edge77_Node000002_Node000020" class="edge">
<title>Node2&#45;&gt;Node20</title>
<g id="a_edge77_Node000002_Node000020"><a xlink:title=" ">
<path fill="none" stroke="#63b8ff" d="M1187.25,-315.26C1017.28,-308.37 568.12,-282.89 446,-203 416.6,-183.77 411.48,-171.54 401,-138 395.38,-120.02 399.49,-98.58 404.02,-83.56"/>
<polygon fill="#63b8ff" stroke="#63b8ff" points="407.2,-85.1 407.08,-74.51 400.57,-82.86 407.2,-85.1"/>
</a>
</g>
</g>
<!-- Node22 -->
<g id="Node000022" class="node">
<title>Node22</title>
<g id="a_Node000022"><a xlink:title=" ">
<polygon fill="#e0e0e0" stroke="#999999" points="1819.38,-268 1700.62,-268 1700.62,-239 1819.38,-239 1819.38,-268"/>
<text text-anchor="start" x="1708.62" y="-254.5" font-family="Helvetica,sans-Serif" font-size="10.00">CoverageControl/extern</text>
<text text-anchor="middle" x="1760" y="-244" font-family="Helvetica,sans-Serif" font-size="10.00">/lsap/Hungarian.h</text>
</a>
</g>
</g>
<!-- Node2&#45;&gt;Node22 -->
<g id="edge30_Node000002_Node000022" class="edge">
<title>Node2&#45;&gt;Node22</title>
<g id="a_edge30_Node000002_Node000022"><a xlink:title=" ">
<path fill="none" stroke="#63b8ff" d="M1318.52,-311.76C1402.08,-304.07 1551.27,-289.09 1689.05,-268.21"/>
<polygon fill="#63b8ff" stroke="#63b8ff" points="1689.36,-271.71 1698.72,-266.73 1688.3,-264.79 1689.36,-271.71"/>
</a>
</g>
</g>
<!-- Node23 -->
<g id="Node000023" class="node">
<title>Node23</title>
<g id="a_Node000023"><a xlink:href="map__utils_8h.html" target="_top" xlink:title="Utility functions for transforming maps.">
<polygon fill="white" stroke="#666666" points="1625.25,-138 1514.75,-138 1514.75,-109 1625.25,-109 1625.25,-138"/>
<text text-anchor="start" x="1522.75" y="-124.5" font-family="Helvetica,sans-Serif" font-size="10.00">CoverageControl/map</text>
<text text-anchor="middle" x="1570" y="-114" font-family="Helvetica,sans-Serif" font-size="10.00">_utils.h</text>
</a>
</g>
</g>
<!-- Node2&#45;&gt;Node23 -->
<g id="edge31_Node000002_Node000023" class="edge">
<title>Node2&#45;&gt;Node23</title>
<g id="a_edge31_Node000002_Node000023"><a xlink:title=" ">
<path fill="none" stroke="#63b8ff" d="M1318.87,-311.02C1382.47,-303.61 1473.12,-289.63 1501,-268 1539.35,-238.25 1557.55,-181.81 1565.2,-149.28"/>
<polygon fill="#63b8ff" stroke="#63b8ff" points="1568.61,-150.09 1567.32,-139.57 1561.77,-148.6 1568.61,-150.09"/>
</a>
</g>
</g>
<!-- Node2&#45;&gt;Node24 -->
<g id="edge36_Node000002_Node000024" class="edge">
<title>Node2&#45;&gt;Node24</title>
<g id="a_edge36_Node000002_Node000024"><a xlink:title=" ">
<path fill="none" stroke="#63b8ff" d="M1187.14,-316.99C977.89,-315 336.94,-305.83 252,-268 223.12,-255.14 199.15,-226.38 185.7,-207.48"/>
<polygon fill="#63b8ff" stroke="#63b8ff" points="188.72,-205.7 180.2,-199.4 182.93,-209.64 188.72,-205.7"/>
</a>
</g>
</g>
<!-- Node25 -->
<g id="Node000025" class="node">
<title>Node25</title>
<g id="a_Node000025"><a xlink:href="voronoi_8h.html" target="_top" xlink:title="Class for computing Voronoi cells.">
<polygon fill="white" stroke="#666666" points="894.38,-132.75 763.62,-132.75 763.62,-114.25 894.38,-114.25 894.38,-132.75"/>
<text text-anchor="middle" x="829" y="-119.25" font-family="Helvetica,sans-Serif" font-size="10.00">CoverageControl/voronoi.h</text>
</a>
</g>
</g>
<!-- Node2&#45;&gt;Node25 -->
<g id="edge78_Node000002_Node000025" class="edge">
<title>Node2&#45;&gt;Node25</title>
<g id="a_edge78_Node000002_Node000025"><a xlink:title=" ">
<path fill="none" stroke="#63b8ff" d="M1187.41,-317.71C1126.66,-315.33 1035.5,-305.04 966,-268 908.63,-237.42 861.38,-173.93 840.52,-142.68"/>
<polygon fill="#63b8ff" stroke="#63b8ff" points="843.48,-140.81 835.09,-134.34 837.62,-144.63 843.48,-140.81"/>
</a>
</g>
</g>
<!-- Node27 -->
<g id="Node000027" class="node">
<title>Node27</title>
<g id="a_Node000027"><a xlink:href="robot__model_8h.html" target="_top" xlink:title="Class for handling the robot model.">
<polygon fill="white" stroke="#666666" points="1120.75,-268 1007.25,-268 1007.25,-239 1120.75,-239 1120.75,-268"/>
<text text-anchor="start" x="1015.25" y="-254.5" font-family="Helvetica,sans-Serif" font-size="10.00">CoverageControl/robot</text>
<text text-anchor="middle" x="1064" y="-244" font-family="Helvetica,sans-Serif" font-size="10.00">_model.h</text>
</a>
</g>
</g>
<!-- Node2&#45;&gt;Node27 -->
<g id="edge51_Node000002_Node000027" class="edge">
<title>Node2&#45;&gt;Node27</title>
<g id="a_edge51_Node000002_Node000027"><a xlink:title=" ">
<path fill="none" stroke="#63b8ff" d="M1211.05,-303.52C1183.16,-294.22 1146.31,-281.94 1116.47,-271.99"/>
<polygon fill="#63b8ff" stroke="#63b8ff" points="1117.86,-268.76 1107.26,-268.92 1115.64,-275.4 1117.86,-268.76"/>
</a>
</g>
</g>
<!-- Node28 -->
<g id="Node000028" class="node">
<title>Node28</title>
<g id="a_Node000028"><a xlink:href="world__idf_8h.html" target="_top" xlink:title="Contains the class for Importance Density Function (IDF) for the world.">
<polygon fill="white" stroke="#666666" points="802.12,-203 687.88,-203 687.88,-174 802.12,-174 802.12,-203"/>
<text text-anchor="start" x="695.88" y="-189.5" font-family="Helvetica,sans-Serif" font-size="10.00">CoverageControl/world</text>
<text text-anchor="middle" x="745" y="-179" font-family="Helvetica,sans-Serif" font-size="10.00">_idf.h</text>
</a>
</g>
</g>
<!-- Node2&#45;&gt;Node28 -->
<g id="edge79_Node000002_Node000028" class="edge">
<title>Node2&#45;&gt;Node28</title>
<g id="a_edge79_Node000002_Node000028"><a xlink:title=" ">
<path fill="none" stroke="#63b8ff" d="M1187.29,-315.43C1082.5,-311.22 882.94,-299.26 820,-268 794.82,-255.49 773.51,-230.9 760.12,-212.56"/>
<polygon fill="#63b8ff" stroke="#63b8ff" points="763.16,-210.8 754.56,-204.62 757.43,-214.82 763.16,-210.8"/>
</a>
</g>
</g>
<!-- Node13&#45;&gt;Node7 -->
<g id="edge14_Node000013_Node000007" class="edge">
<title>Node13&#45;&gt;Node7</title>
<g id="a_edge14_Node000013_Node000007"><a xlink:title=" ">
<path fill="none" stroke="#63b8ff" d="M1118.2,-108.75C1096.35,-93.39 1058.73,-68.81 1023,-54.5 971.16,-33.73 907.43,-21.55 867.5,-15.39"/>
<polygon fill="#63b8ff" stroke="#63b8ff" points="868.06,-11.93 857.65,-13.92 867.03,-18.86 868.06,-11.93"/>
</a>
</g>
</g>
<!-- Node14 -->
<g id="Node000014" class="node">
<title>Node14</title>
<g id="a_Node000014"><a xlink:title=" ">
<polygon fill="#e0e0e0" stroke="#999999" points="1375.5,-18.5 1332.5,-18.5 1332.5,0 1375.5,0 1375.5,-18.5"/>
<text text-anchor="middle" x="1354" y="-5" font-family="Helvetica,sans-Serif" font-size="10.00">cmath</text>
</a>
</g>
</g>
<!-- Node13&#45;&gt;Node14 -->
<g id="edge13_Node000013_Node000014" class="edge">
<title>Node13&#45;&gt;Node14</title>
<g id="a_edge13_Node000013_Node000014"><a xlink:title=" ">
<path fill="none" stroke="#63b8ff" d="M1195.88,-108.6C1223.74,-100.57 1256.78,-88.87 1284,-73 1305.28,-60.59 1325.8,-41 1339.06,-27.01"/>
<polygon fill="#63b8ff" stroke="#63b8ff" points="1341.44,-29.6 1345.63,-19.87 1336.29,-24.86 1341.44,-29.6"/>
</a>
</g>
</g>
<!-- Node13&#45;&gt;Node15 -->
<g id="edge15_Node000013_Node000015" class="edge">
<title>Node13&#45;&gt;Node15</title>
<g id="a_edge15_Node000013_Node000015"><a xlink:title=" ">
<path fill="none" stroke="#63b8ff" d="M1139.18,-108.52C1140.3,-101.33 1141.68,-92.46 1142.91,-84.58"/>
<polygon fill="#63b8ff" stroke="#63b8ff" points="1146.34,-85.32 1144.42,-74.9 1139.42,-84.24 1146.34,-85.32"/>
</a>
</g>
</g>
<!-- Node13&#45;&gt;Node18 -->
<g id="edge20_Node000013_Node000018" class="edge">
<title>Node13&#45;&gt;Node18</title>
<g id="a_edge20_Node000013_Node000018"><a xlink:title=" ">
<path fill="none" stroke="#63b8ff" d="M1201.09,-108.74C1247.88,-98.7 1310.5,-85.25 1354.15,-75.88"/>
<polygon fill="#63b8ff" stroke="#63b8ff" points="1354.86,-79.31 1363.9,-73.79 1353.39,-72.47 1354.86,-79.31"/>
</a>
</g>
</g>
<!-- Node13&#45;&gt;Node20 -->
<g id="edge25_Node000013_Node000020" class="edge">
<title>Node13&#45;&gt;Node20</title>
<g id="a_edge25_Node000013_Node000020"><a xlink:title=" ">
<path fill="none" stroke="#63b8ff" d="M1072.89,-117.4C940.47,-106.87 636.99,-82.73 491.57,-71.16"/>
<polygon fill="#63b8ff" stroke="#63b8ff" points="491.87,-67.67 481.62,-70.37 491.31,-74.65 491.87,-67.67"/>
</a>
</g>
</g>
<!-- Node15&#45;&gt;Node10 -->
<g id="edge19_Node000015_Node000010" class="edge">
<title>Node15&#45;&gt;Node10</title>
<g id="a_edge19_Node000015_Node000010"><a xlink:title=" ">
<path fill="none" stroke="#63b8ff" d="M1167.3,-54.08C1188.18,-45.58 1220.24,-32.54 1243.96,-22.88"/>
<polygon fill="#63b8ff" stroke="#63b8ff" points="1245.17,-26.17 1253.12,-19.16 1242.54,-19.68 1245.17,-26.17"/>
</a>
</g>
</g>
<!-- Node15&#45;&gt;Node14 -->
<g id="edge17_Node000015_Node000014" class="edge">
<title>Node15&#45;&gt;Node14</title>
<g id="a_edge17_Node000015_Node000014"><a xlink:title=" ">
<path fill="none" stroke="#63b8ff" d="M1180.35,-54.08C1219.35,-44.24 1282.55,-28.29 1320.99,-18.58"/>
<polygon fill="#63b8ff" stroke="#63b8ff" points="1321.76,-22 1330.6,-16.16 1320.05,-15.21 1321.76,-22"/>
</a>
</g>
</g>
<!-- Node16 -->
<g id="Node000016" class="node">
<title>Node16</title>
<g id="a_Node000016"><a xlink:title=" ">
<polygon fill="#e0e0e0" stroke="#999999" points="1051.75,-18.5 926.25,-18.5 926.25,0 1051.75,0 1051.75,-18.5"/>
<text text-anchor="middle" x="989" y="-5" font-family="Helvetica,sans-Serif" font-size="10.00">CoverageControlConfig.h</text>
</a>
</g>
</g>
<!-- Node15&#45;&gt;Node16 -->
<g id="edge16_Node000015_Node000016" class="edge">
<title>Node15&#45;&gt;Node16</title>
<g id="a_edge16_Node000015_Node000016"><a xlink:title=" ">
<path fill="none" stroke="#63b8ff" d="M1120.07,-54.08C1094.39,-45.49 1054.82,-32.26 1025.87,-22.58"/>
<polygon fill="#63b8ff" stroke="#63b8ff" points="1026.99,-19.26 1016.4,-19.41 1024.77,-25.9 1026.99,-19.26"/>
</a>
</g>
</g>
<!-- Node17 -->
<g id="Node000017" class="node">
<title>Node17</title>
<g id="a_Node000017"><a xlink:title=" ">
<polygon fill="#e0e0e0" stroke="#999999" points="1165.62,-18.5 1126.38,-18.5 1126.38,0 1165.62,0 1165.62,-18.5"/>
<text text-anchor="middle" x="1146" y="-5" font-family="Helvetica,sans-Serif" font-size="10.00">limits</text>
</a>
</g>
</g>
<!-- Node15&#45;&gt;Node17 -->
<g id="edge18_Node000015_Node000017" class="edge">
<title>Node15&#45;&gt;Node17</title>
<g id="a_edge18_Node000015_Node000017"><a xlink:title=" ">
<path fill="none" stroke="#63b8ff" d="M1146,-54.08C1146,-47.58 1146,-38.42 1146,-30.16"/>
<polygon fill="#63b8ff" stroke="#63b8ff" points="1149.5,-30.27 1146,-20.27 1142.5,-30.27 1149.5,-30.27"/>
</a>
</g>
</g>
<!-- Node18&#45;&gt;Node7 -->
<g id="edge23_Node000018_Node000007" class="edge">
<title>Node18&#45;&gt;Node7</title>
<g id="a_edge23_Node000018_Node000007"><a xlink:title=" ">
<path fill="none" stroke="#63b8ff" d="M1331.02,-56.04C1235.04,-47.44 1063.64,-32.01 917,-18.5 900.68,-17 882.67,-15.31 867.21,-13.86"/>
<polygon fill="#63b8ff" stroke="#63b8ff" points="867.75,-10.39 857.46,-12.94 867.09,-17.36 867.75,-10.39"/>
</a>
</g>
</g>
<!-- Node18&#45;&gt;Node10 -->
<g id="edge24_Node000018_Node000010" class="edge">
<title>Node18&#45;&gt;Node10</title>
<g id="a_edge24_Node000018_Node000010"><a xlink:title=" ">
<path fill="none" stroke="#63b8ff" d="M1384.37,-54.08C1362.94,-45.49 1329.92,-32.26 1305.77,-22.58"/>
<polygon fill="#63b8ff" stroke="#63b8ff" points="1307.36,-19.45 1296.77,-18.98 1304.76,-25.95 1307.36,-19.45"/>
</a>
</g>
</g>
<!-- Node18&#45;&gt;Node14 -->
<g id="edge21_Node000018_Node000014" class="edge">
<title>Node18&#45;&gt;Node14</title>
<g id="a_edge21_Node000018_Node000014"><a xlink:title=" ">
<path fill="none" stroke="#63b8ff" d="M1397.41,-54.08C1390.07,-46.67 1379.29,-35.78 1370.31,-26.72"/>
<polygon fill="#63b8ff" stroke="#63b8ff" points="1373.02,-24.48 1363.49,-19.83 1368.04,-29.4 1373.02,-24.48"/>
</a>
</g>
</g>
<!-- Node19 -->
<g id="Node000019" class="node">
<title>Node19</title>
<g id="a_Node000019"><a xlink:title=" ">
<polygon fill="#e0e0e0" stroke="#999999" points="691.75,-18.5 632.25,-18.5 632.25,0 691.75,0 691.75,-18.5"/>
<text text-anchor="middle" x="662" y="-5" font-family="Helvetica,sans-Serif" font-size="10.00">filesystem</text>
</a>
</g>
</g>
<!-- Node18&#45;&gt;Node19 -->
<g id="edge22_Node000018_Node000019" class="edge">
<title>Node18&#45;&gt;Node19</title>
<g id="a_edge22_Node000018_Node000019"><a xlink:title=" ">
<path fill="none" stroke="#63b8ff" d="M1330.91,-57.45C1175.59,-46.49 823.46,-21.64 703.18,-13.16"/>
<polygon fill="#63b8ff" stroke="#63b8ff" points="703.68,-9.68 693.46,-12.47 703.18,-16.66 703.68,-9.68"/>
</a>
</g>
</g>
<!-- Node20&#45;&gt;Node4 -->
<g id="edge26_Node000020_Node000004" class="edge">
<title>Node20&#45;&gt;Node4</title>
<g id="a_edge26_Node000020_Node000004"><a xlink:title=" ">
<path fill="none" stroke="#63b8ff" d="M374.51,-54.08C337.08,-45.19 278.68,-31.32 237.63,-21.57"/>
<polygon fill="#63b8ff" stroke="#63b8ff" points="238.56,-18.19 228.02,-19.28 236.94,-25 238.56,-18.19"/>
</a>
</g>
</g>
<!-- Node20&#45;&gt;Node12 -->
<g id="edge28_Node000020_Node000012" class="edge">
<title>Node20&#45;&gt;Node12</title>
<g id="a_edge28_Node000020_Node000012"><a xlink:title=" ">
<path fill="none" stroke="#63b8ff" d="M427.02,-54.08C442.04,-45.95 464.76,-33.65 482.32,-24.15"/>
<polygon fill="#63b8ff" stroke="#63b8ff" points="483.5,-27.49 490.63,-19.65 480.17,-21.33 483.5,-27.49"/>
</a>
</g>
</g>
<!-- Node21 -->
<g id="Node000021" class="node">
<title>Node21</title>
<g id="a_Node000021"><a xlink:title=" ">
<polygon fill="#e0e0e0" stroke="#999999" points="432.12,-18.5 389.88,-18.5 389.88,0 432.12,0 432.12,-18.5"/>
<text text-anchor="middle" x="411" y="-5" font-family="Helvetica,sans-Serif" font-size="10.00">queue</text>
</a>
</g>
</g>
<!-- Node20&#45;&gt;Node21 -->
<g id="edge27_Node000020_Node000021" class="edge">
<title>Node20&#45;&gt;Node21</title>
<g id="a_edge27_Node000020_Node000021"><a xlink:title=" ">
<path fill="none" stroke="#63b8ff" d="M411,-54.08C411,-47.58 411,-38.42 411,-30.16"/>
<polygon fill="#63b8ff" stroke="#63b8ff" points="414.5,-30.27 411,-20.27 407.5,-30.27 414.5,-30.27"/>
</a>
</g>
</g>
<!-- Node23&#45;&gt;Node10 -->
<g id="edge33_Node000023_Node000010" class="edge">
<title>Node23&#45;&gt;Node10</title>
<g id="a_edge33_Node000023_Node000010"><a xlink:title=" ">
<path fill="none" stroke="#63b8ff" d="M1557.9,-108.68C1543.38,-93.01 1517.52,-67.92 1490,-54.5 1473.69,-46.54 1362.57,-25.92 1306.8,-15.89"/>
<polygon fill="#63b8ff" stroke="#63b8ff" points="1307.43,-12.45 1296.97,-14.13 1306.19,-19.34 1307.43,-12.45"/>
</a>
</g>
</g>
<!-- Node23&#45;&gt;Node14 -->
<g id="edge32_Node000023_Node000014" class="edge">
<title>Node23&#45;&gt;Node14</title>
<g id="a_edge32_Node000023_Node000014"><a xlink:title=" ">
<path fill="none" stroke="#63b8ff" d="M1565.92,-108.53C1560.65,-92.97 1549.95,-68.21 1532,-54.5 1489.33,-21.9 1425.63,-13.05 1387.12,-10.8"/>
<polygon fill="#63b8ff" stroke="#63b8ff" points="1387.46,-7.31 1377.31,-10.36 1387.14,-14.31 1387.46,-7.31"/>
</a>
</g>
</g>
<!-- Node23&#45;&gt;Node18 -->
<g id="edge34_Node000023_Node000018" class="edge">
<title>Node23&#45;&gt;Node18</title>
<g id="a_edge34_Node000023_Node000018"><a xlink:title=" ">
<path fill="none" stroke="#63b8ff" d="M1530.3,-108.52C1503.09,-98.94 1467.33,-86.35 1441.15,-77.13"/>
<polygon fill="#63b8ff" stroke="#63b8ff" points="1442.6,-73.93 1432,-73.91 1440.27,-80.53 1442.6,-73.93"/>
</a>
</g>
</g>
<!-- Node24&#45;&gt;Node7 -->
<g id="edge38_Node000024_Node000007" class="edge">
<title>Node24&#45;&gt;Node7</title>
<g id="a_edge38_Node000024_Node000007"><a xlink:title=" ">
<path fill="none" stroke="#63b8ff" d="M171.91,-179.1C168.65,-164.04 163.88,-131.89 176,-109 195.45,-72.27 212.95,-68.73 252,-54.5 264.69,-49.88 663.27,-21.79 790.43,-12.93"/>
<polygon fill="#63b8ff" stroke="#63b8ff" points="790.62,-16.42 800.35,-12.24 790.13,-9.44 790.62,-16.42"/>
</a>
</g>
</g>
<!-- Node24&#45;&gt;Node8 -->
<g id="edge39_Node000024_Node000008" class="edge">
<title>Node24&#45;&gt;Node8</title>
<g id="a_edge39_Node000024_Node000008"><a xlink:title=" ">
<path fill="none" stroke="#63b8ff" d="M237.8,-186.77C391.62,-184.42 779.32,-174.92 903,-138 903.36,-137.89 903.72,-137.78 904.08,-137.66"/>
<polygon fill="#63b8ff" stroke="#63b8ff" points="905.23,-140.98 912.89,-133.66 902.34,-134.61 905.23,-140.98"/>
</a>
</g>
</g>
<!-- Node24&#45;&gt;Node10 -->
<g id="edge41_Node000024_Node000010" class="edge">
<title>Node24&#45;&gt;Node10</title>
<g id="a_edge41_Node000024_Node000010"><a xlink:title=" ">
<path fill="none" stroke="#63b8ff" d="M179.74,-178.89C190.31,-163.49 214.14,-130.82 240,-109 276.61,-78.1 287.04,-68.03 333,-54.5 512.65,-1.59 988.08,-30.2 1175,-18.5 1197.89,-17.07 1223.69,-14.93 1243.35,-13.18"/>
<polygon fill="#63b8ff" stroke="#63b8ff" points="1243.56,-16.68 1253.21,-12.3 1242.93,-9.71 1243.56,-16.68"/>
</a>
</g>
</g>
<!-- Node24&#45;&gt;Node12 -->
<g id="edge40_Node000024_Node000012" class="edge">
<title>Node24&#45;&gt;Node12</title>
<g id="a_edge40_Node000024_Node000012"><a xlink:title=" ">
<path fill="none" stroke="#63b8ff" d="M150.28,-178.8C132.9,-171.02 110.56,-157.77 100,-138 82.51,-105.27 75.17,-82.08 100,-54.5 125.49,-26.18 403.15,-22.83 441,-18.5 452.2,-17.22 464.45,-15.74 475.37,-14.38"/>
<polygon fill="#63b8ff" stroke="#63b8ff" points="475.6,-17.88 485.09,-13.17 474.73,-10.94 475.6,-17.88"/>
</a>
</g>
</g>
<!-- Node24&#45;&gt;Node19 -->
<g id="edge37_Node000024_Node000019" class="edge">
<title>Node24&#45;&gt;Node19</title>
<g id="a_edge37_Node000024_Node000019"><a xlink:title=" ">
<path fill="none" stroke="#63b8ff" d="M165,-179.13C150.58,-164.66 125.13,-134.08 138,-109 156.98,-72.02 175.1,-69.15 214,-54.5 251.54,-40.36 517.08,-20.43 620.72,-13.1"/>
<polygon fill="#63b8ff" stroke="#63b8ff" points="620.72,-16.61 630.45,-12.42 620.22,-9.63 620.72,-16.61"/>
</a>
</g>
</g>
<!-- Node24&#45;&gt;Node20 -->
<g id="edge42_Node000024_Node000020" class="edge">
<title>Node24&#45;&gt;Node20</title>
<g id="a_edge42_Node000024_Node000020"><a xlink:title=" ">
<path fill="none" stroke="#63b8ff" d="M184.64,-178.98C204.43,-163.44 248.65,-130.15 290,-109 315.7,-95.86 346.24,-84.72 370.21,-76.9"/>
<polygon fill="#63b8ff" stroke="#63b8ff" points="371.15,-80.28 379.62,-73.91 369.02,-73.61 371.15,-80.28"/>
</a>
</g>
</g>
<!-- Node24&#45;&gt;Node25 -->
<g id="edge43_Node000024_Node000025" class="edge">
<title>Node24&#45;&gt;Node25</title>
<g id="a_edge43_Node000024_Node000025"><a xlink:title=" ">
<path fill="none" stroke="#63b8ff" d="M238,-181.34C359.08,-169.7 621.23,-144.48 751.83,-131.92"/>
<polygon fill="#63b8ff" stroke="#63b8ff" points="752.16,-135.41 761.78,-130.97 751.49,-128.44 752.16,-135.41"/>
</a>
</g>
</g>
<!-- Node25&#45;&gt;Node7 -->
<g id="edge45_Node000025_Node000007" class="edge">
<title>Node25&#45;&gt;Node7</title>
<g id="a_edge45_Node000025_Node000007"><a xlink:title=" ">
<path fill="none" stroke="#63b8ff" d="M829,-114.06C829,-96.35 829,-54.87 829,-30.04"/>
<polygon fill="#63b8ff" stroke="#63b8ff" points="832.5,-30.3 829,-20.3 825.5,-30.3 832.5,-30.3"/>
</a>
</g>
</g>
<!-- Node25&#45;&gt;Node11 -->
<g id="edge47_Node000025_Node000011" class="edge">
<title>Node25&#45;&gt;Node11</title>
<g id="a_edge47_Node000025_Node000011"><a xlink:title=" ">
<path fill="none" stroke="#63b8ff" d="M874.53,-113.8C884.24,-112.09 894.44,-110.39 904,-109 1042.88,-88.76 1082.7,-100.18 1223.89,-73.07"/>
<polygon fill="#63b8ff" stroke="#63b8ff" points="1224.51,-76.51 1233.65,-71.16 1223.17,-69.64 1224.51,-76.51"/>
</a>
</g>
</g>
<!-- Node25&#45;&gt;Node12 -->
<g id="edge48_Node000025_Node000012" class="edge">
<title>Node25&#45;&gt;Node12</title>
<g id="a_edge48_Node000025_Node000012"><a xlink:title=" ">
<path fill="none" stroke="#63b8ff" d="M804.34,-113.76C767.66,-100.77 696.54,-75.63 636,-54.5 603.32,-43.09 565.9,-30.17 539.99,-21.25"/>
<polygon fill="#63b8ff" stroke="#63b8ff" points="541.33,-18.01 530.73,-18.06 539.05,-24.63 541.33,-18.01"/>
</a>
</g>
</g>
<!-- Node25&#45;&gt;Node14 -->
<g id="edge44_Node000025_Node000014" class="edge">
<title>Node25&#45;&gt;Node14</title>
<g id="a_edge44_Node000025_Node000014"><a xlink:title=" ">
<path fill="none" stroke="#63b8ff" d="M835.95,-113.95C848.78,-98.87 877.8,-67.92 910,-54.5 1072.32,13.12 1129.58,-40.83 1304,-18.5 1309.49,-17.8 1315.31,-16.94 1320.95,-16.05"/>
<polygon fill="#63b8ff" stroke="#63b8ff" points="1321.35,-19.53 1330.65,-14.45 1320.22,-12.62 1321.35,-19.53"/>
</a>
</g>
</g>
<!-- Node25&#45;&gt;Node15 -->
<g id="edge49_Node000025_Node000015" class="edge">
<title>Node25&#45;&gt;Node15</title>
<g id="a_edge49_Node000025_Node000015"><a xlink:title=" ">
<path fill="none" stroke="#63b8ff" d="M876.8,-113.79C932.94,-103.56 1026.09,-86.59 1086.76,-75.54"/>
<polygon fill="#63b8ff" stroke="#63b8ff" points="1087.37,-78.99 1096.58,-73.75 1086.11,-72.1 1087.37,-78.99"/>
</a>
</g>
</g>
<!-- Node25&#45;&gt;Node20 -->
<g id="edge50_Node000025_Node000020" class="edge">
<title>Node25&#45;&gt;Node20</title>
<g id="a_edge50_Node000025_Node000020"><a xlink:title=" ">
<path fill="none" stroke="#63b8ff" d="M765.97,-113.79C690.71,-103.39 565.02,-86.03 485.16,-75"/>
<polygon fill="#63b8ff" stroke="#63b8ff" points="486.09,-71.59 475.7,-73.69 485.13,-78.52 486.09,-71.59"/>
</a>
</g>
</g>
<!-- Node26 -->
<g id="Node000026" class="node">
<title>Node26</title>
<g id="a_Node000026"><a xlink:title=" ">
<polygon fill="#e0e0e0" stroke="#999999" points="971,-73 919,-73 919,-54.5 971,-54.5 971,-73"/>
<text text-anchor="middle" x="945" y="-59.5" font-family="Helvetica,sans-Serif" font-size="10.00">memory</text>
</a>
</g>
</g>
<!-- Node25&#45;&gt;Node26 -->
<g id="edge46_Node000025_Node000026" class="edge">
<title>Node25&#45;&gt;Node26</title>
<g id="a_edge46_Node000025_Node000026"><a xlink:title=" ">
<path fill="none" stroke="#63b8ff" d="M846.37,-113.85C865.16,-104.5 895.39,-89.45 917.44,-78.47"/>
<polygon fill="#63b8ff" stroke="#63b8ff" points="918.77,-81.72 926.16,-74.13 915.65,-75.45 918.77,-81.72"/>
</a>
</g>
</g>
<!-- Node27&#45;&gt;Node5 -->
<g id="edge55_Node000027_Node000005" class="edge">
<title>Node27&#45;&gt;Node5</title>
<g id="a_edge55_Node000027_Node000005"><a xlink:title=" ">
<path fill="none" stroke="#63b8ff" d="M1105.95,-238.52C1139.02,-227.49 1184.69,-212.27 1216.32,-201.73"/>
<polygon fill="#63b8ff" stroke="#63b8ff" points="1217.07,-205.17 1225.45,-198.68 1214.85,-198.53 1217.07,-205.17"/>
</a>
</g>
</g>
<!-- Node27&#45;&gt;Node7 -->
<g id="edge53_Node000027_Node000007" class="edge">
<title>Node27&#45;&gt;Node7</title>
<g id="a_edge53_Node000027_Node000007"><a xlink:title=" ">
<path fill="none" stroke="#63b8ff" d="M1062.22,-238.64C1056.86,-202.66 1037.51,-105.58 980,-54.5 948.67,-26.67 900.66,-16.3 867.22,-12.47"/>
<polygon fill="#63b8ff" stroke="#63b8ff" points="867.85,-9.01 857.55,-11.51 867.16,-15.98 867.85,-9.01"/>
</a>
</g>
</g>
<!-- Node27&#45;&gt;Node12 -->
<g id="edge56_Node000027_Node000012" class="edge">
<title>Node27&#45;&gt;Node12</title>
<g id="a_edge56_Node000027_Node000012"><a xlink:title=" ">
<path fill="none" stroke="#63b8ff" d="M1006.94,-250.05C913.98,-245.26 734.62,-232.42 679,-203 600.37,-161.41 540.72,-68.14 518.01,-28.57"/>
<polygon fill="#63b8ff" stroke="#63b8ff" points="521.17,-27.05 513.23,-20.04 515.06,-30.47 521.17,-27.05"/>
</a>
</g>
</g>
<!-- Node27&#45;&gt;Node14 -->
<g id="edge52_Node000027_Node000014" class="edge">
<title>Node27&#45;&gt;Node14</title>
<g id="a_edge52_Node000027_Node000014"><a xlink:title=" ">
<path fill="none" stroke="#63b8ff" d="M1098.98,-238.68C1121,-229.51 1149.74,-216.68 1174,-203 1193.76,-191.86 1194.65,-181.67 1216,-174 1303.74,-142.46 1570.97,-206.7 1634,-138 1709.29,-55.95 1476.4,-22.82 1387.22,-13.35"/>
<polygon fill="#63b8ff" stroke="#63b8ff" points="1387.69,-9.87 1377.39,-12.34 1386.98,-16.84 1387.69,-9.87"/>
</a>
</g>
</g>
<!-- Node27&#45;&gt;Node15 -->
<g id="edge57_Node000027_Node000015" class="edge">
<title>Node27&#45;&gt;Node15</title>
<g id="a_edge57_Node000027_Node000015"><a xlink:title=" ">
<path fill="none" stroke="#63b8ff" d="M1068.16,-238.58C1074.06,-221.12 1086.49,-191.38 1107,-174 1144,-142.65 1181.93,-177.54 1210,-138 1217.46,-127.49 1215.99,-120.41 1210,-109 1203.14,-95.91 1190.46,-85.93 1178.18,-78.79"/>
<polygon fill="#63b8ff" stroke="#63b8ff" points="1179.92,-75.75 1169.44,-74.16 1176.64,-81.94 1179.92,-75.75"/>
</a>
</g>
</g>
<!-- Node27&#45;&gt;Node18 -->
<g id="edge59_Node000027_Node000018" class="edge">
<title>Node27&#45;&gt;Node18</title>
<g id="a_edge59_Node000027_Node000018"><a xlink:title=" ">
<path fill="none" stroke="#63b8ff" d="M1076.18,-238.56C1095.47,-216.56 1131.25,-176.05 1135,-174 1221.6,-126.78 1270.33,-190.24 1354,-138 1374.53,-125.18 1389.28,-100.99 1397.71,-83.92"/>
<polygon fill="#63b8ff" stroke="#63b8ff" points="1400.89,-85.39 1401.9,-74.84 1394.53,-82.46 1400.89,-85.39"/>
</a>
</g>
</g>
<!-- Node27&#45;&gt;Node20 -->
<g id="edge60_Node000027_Node000020" class="edge">
<title>Node27&#45;&gt;Node20</title>
<g id="a_edge60_Node000027_Node000020"><a xlink:title=" ">
<path fill="none" stroke="#63b8ff" d="M1006.76,-252.2C913.74,-250.5 724.61,-242.04 570,-203 497.17,-184.61 456.93,-199.63 414,-138 403.21,-122.51 403.92,-100.37 406.42,-84.5"/>
<polygon fill="#63b8ff" stroke="#63b8ff" points="409.82,-85.33 408.33,-74.84 402.96,-83.97 409.82,-85.33"/>
</a>
</g>
</g>
<!-- Node27&#45;&gt;Node23 -->
<g id="edge58_Node000027_Node000023" class="edge">
<title>Node27&#45;&gt;Node23</title>
<g id="a_edge58_Node000027_Node000023"><a xlink:title=" ">
<path fill="none" stroke="#63b8ff" d="M1083.91,-238.65C1114.9,-217.2 1172.27,-177.98 1183,-174 1212.31,-163.13 1400.54,-142.2 1503.29,-131.37"/>
<polygon fill="#63b8ff" stroke="#63b8ff" points="1503.38,-134.88 1512.96,-130.35 1502.65,-127.92 1503.38,-134.88"/>
</a>
</g>
</g>
<!-- Node27&#45;&gt;Node25 -->
<g id="edge61_Node000027_Node000025" class="edge">
<title>Node27&#45;&gt;Node25</title>
<g id="a_edge61_Node000027_Node000025"><a xlink:title=" ">
<path fill="none" stroke="#63b8ff" d="M1038.4,-238.56C993.25,-213.96 899.96,-163.15 854.72,-138.51"/>
<polygon fill="#63b8ff" stroke="#63b8ff" points="856.6,-135.55 846.14,-133.84 853.25,-141.69 856.6,-135.55"/>
</a>
</g>
</g>
<!-- Node27&#45;&gt;Node26 -->
<g id="edge54_Node000027_Node000026" class="edge">
<title>Node27&#45;&gt;Node26</title>
<g id="a_edge54_Node000027_Node000026"><a xlink:title=" ">
<path fill="none" stroke="#63b8ff" d="M1054.64,-238.71C1047.97,-228.82 1038.83,-215.16 1031,-203 1003.54,-160.37 972.34,-109.61 956.12,-83.04"/>
<polygon fill="#63b8ff" stroke="#63b8ff" points="959.12,-81.24 950.93,-74.52 953.15,-84.88 959.12,-81.24"/>
</a>
</g>
</g>
<!-- Node27&#45;&gt;Node28 -->
<g id="edge62_Node000027_Node000028" class="edge">
<title>Node27&#45;&gt;Node28</title>
<g id="a_edge62_Node000027_Node000028"><a xlink:title=" ">
<path fill="none" stroke="#63b8ff" d="M1006.97,-241.24C952.87,-230.55 871.5,-214.48 813.82,-203.09"/>
<polygon fill="#63b8ff" stroke="#63b8ff" points="814.59,-199.68 804.1,-201.17 813.23,-206.54 814.59,-199.68"/>
</a>
</g>
</g>
<!-- Node28&#45;&gt;Node4 -->
<g id="edge63_Node000028_Node000004" class="edge">
<title>Node28&#45;&gt;Node4</title>
<g id="a_edge63_Node000028_Node000004"><a xlink:title=" ">
<path fill="none" stroke="#63b8ff" d="M687.55,-185.32C620.3,-181.31 506.38,-169.99 414,-138 333.23,-110.03 248.33,-52.72 210.4,-25.39"/>
<polygon fill="#63b8ff" stroke="#63b8ff" points="212.76,-22.78 202.61,-19.72 208.63,-28.44 212.76,-22.78"/>
</a>
</g>
</g>
<!-- Node28&#45;&gt;Node6 -->
<g id="edge64_Node000028_Node000006" class="edge">
<title>Node28&#45;&gt;Node6</title>
<g id="a_edge64_Node000028_Node000006"><a xlink:title=" ">
<path fill="none" stroke="#63b8ff" d="M802.3,-183.2C895.11,-175.92 1083.97,-159.81 1243,-138 1256.38,-136.16 1271,-133.72 1283.87,-131.41"/>
<polygon fill="#63b8ff" stroke="#63b8ff" points="1284.41,-134.87 1293.62,-129.62 1283.15,-127.98 1284.41,-134.87"/>
</a>
</g>
</g>
<!-- Node28&#45;&gt;Node7 -->
<g id="edge65_Node000028_Node000007" class="edge">
<title>Node28&#45;&gt;Node7</title>
<g id="a_edge65_Node000028_Node000007"><a xlink:title=" ">
<path fill="none" stroke="#63b8ff" d="M718.56,-173.56C705.58,-165.16 691.21,-153.14 684,-138 668.04,-104.5 661.92,-84.33 684,-54.5 708.31,-21.67 756.43,-12.38 790.57,-10.16"/>
<polygon fill="#63b8ff" stroke="#63b8ff" points="790.65,-13.66 800.48,-9.71 790.33,-6.67 790.65,-13.66"/>
</a>
</g>
</g>
<!-- Node28&#45;&gt;Node10 -->
<g id="edge66_Node000028_Node000010" class="edge">
<title>Node28&#45;&gt;Node10</title>
<g id="a_edge66_Node000028_Node000010"><a xlink:title=" ">
<path fill="none" stroke="#63b8ff" d="M742.95,-173.53C741.26,-156.57 741.02,-127.88 755,-109 790.09,-61.59 819.11,-70.05 876,-54.5 911.15,-44.89 1155.22,-21.44 1243.35,-13.19"/>
<polygon fill="#63b8ff" stroke="#63b8ff" points="1243.57,-16.68 1253.2,-12.27 1242.92,-9.71 1243.57,-16.68"/>
</a>
</g>
</g>
<!-- Node28&#45;&gt;Node12 -->
<g id="edge67_Node000028_Node000012" class="edge">
<title>Node28&#45;&gt;Node12</title>
<g id="a_edge67_Node000028_Node000012"><a xlink:title=" ">
<path fill="none" stroke="#63b8ff" d="M719.38,-173.67C703.72,-164.59 683.74,-151.87 668,-138 631.66,-105.99 636.11,-84.38 598,-54.5 580.53,-40.8 558.13,-29.77 540.05,-22.14"/>
<polygon fill="#63b8ff" stroke="#63b8ff" points="541.41,-18.92 530.83,-18.41 538.79,-25.41 541.41,-18.92"/>
</a>
</g>
</g>
<!-- Node28&#45;&gt;Node13 -->
<g id="edge69_Node000028_Node000013" class="edge">
<title>Node28&#45;&gt;Node13</title>
<g id="a_edge69_Node000028_Node000013"><a xlink:title=" ">
<path fill="none" stroke="#63b8ff" d="M802.42,-178.27C870.99,-167.25 985.9,-148.78 1061.58,-136.62"/>
<polygon fill="#63b8ff" stroke="#63b8ff" points="1062.1,-140.08 1071.41,-135.04 1060.99,-133.17 1062.1,-140.08"/>
</a>
</g>
</g>
<!-- Node28&#45;&gt;Node15 -->
<g id="edge73_Node000028_Node000015" class="edge">
<title>Node28&#45;&gt;Node15</title>
<g id="a_edge73_Node000028_Node000015"><a xlink:title=" ">
<path fill="none" stroke="#63b8ff" d="M802.5,-175.57C843.87,-166.51 900.82,-153.07 950,-138 1009.27,-119.84 1076.62,-93.34 1114.94,-77.69"/>
<polygon fill="#63b8ff" stroke="#63b8ff" points="1116.08,-81 1124,-73.97 1113.42,-74.53 1116.08,-81"/>
</a>
</g>
</g>
<!-- Node28&#45;&gt;Node16 -->
<g id="edge68_Node000028_Node000016" class="edge">
<title>Node28&#45;&gt;Node16</title>
<g id="a_edge68_Node000028_Node000016"><a xlink:title=" ">
<path fill="none" stroke="#63b8ff" d="M736.19,-173.57C720.68,-147.07 692.75,-88.99 722,-54.5 734.43,-39.84 840.02,-25.85 914.62,-17.65"/>
<polygon fill="#63b8ff" stroke="#63b8ff" points="914.78,-21.16 924.34,-16.6 914.02,-14.2 914.78,-21.16"/>
</a>
</g>
</g>
<!-- Node28&#45;&gt;Node18 -->
<g id="edge75_Node000028_Node000018" class="edge">
<title>Node28&#45;&gt;Node18</title>
<g id="a_edge75_Node000028_Node000018"><a xlink:title=" ">
<path fill="none" stroke="#63b8ff" d="M802.33,-186.07C890.9,-182.81 1065.84,-172.23 1210,-138 1245.58,-129.55 1252.75,-121.82 1287,-109 1315.69,-98.26 1348.31,-86.14 1372.13,-77.3"/>
<polygon fill="#63b8ff" stroke="#63b8ff" points="1373.15,-80.66 1381.31,-73.9 1370.72,-74.09 1373.15,-80.66"/>
</a>
</g>
</g>
<!-- Node28&#45;&gt;Node20 -->
<g id="edge76_Node000028_Node000020" class="edge">
<title>Node28&#45;&gt;Node20</title>
<g id="a_edge76_Node000028_Node000020"><a xlink:title=" ">
<path fill="none" stroke="#63b8ff" d="M687.62,-185.14C609.23,-180.8 474.14,-168.94 437,-138 421.14,-124.79 414.95,-101.2 412.54,-84.36"/>
<polygon fill="#63b8ff" stroke="#63b8ff" points="416.03,-84.16 411.49,-74.59 409.07,-84.91 416.03,-84.16"/>
</a>
</g>
</g>
<!-- Node28&#45;&gt;Node23 -->
<g id="edge74_Node000028_Node000023" class="edge">
<title>Node28&#45;&gt;Node23</title>
<g id="a_edge74_Node000028_Node000023"><a xlink:title=" ">
<path fill="none" stroke="#63b8ff" d="M802.36,-183.12C950.39,-171.82 1344.75,-141.7 1502.96,-129.62"/>
<polygon fill="#63b8ff" stroke="#63b8ff" points="1503.17,-133.11 1512.87,-128.86 1502.64,-126.13 1503.17,-133.11"/>
</a>
</g>
</g>
<!-- Node29 -->
<g id="Node000029" class="node">
<title>Node29</title>
<g id="a_Node000029"><a xlink:href="polygon__utils_8h.html" target="_top" xlink:title="Provides utilities for polygon manipulation using CGAL.">
<polygon fill="white" stroke="#666666" points="555.88,-138 446.12,-138 446.12,-109 555.88,-109 555.88,-138"/>
<text text-anchor="start" x="454.12" y="-124.5" font-family="Helvetica,sans-Serif" font-size="10.00">CoverageControl/cgal</text>
<text text-anchor="middle" x="501" y="-114" font-family="Helvetica,sans-Serif" font-size="10.00">/polygon_utils.h</text>
</a>
</g>
</g>
<!-- Node28&#45;&gt;Node29 -->
<g id="edge70_Node000028_Node000029" class="edge">
<title>Node28&#45;&gt;Node29</title>
<g id="a_edge70_Node000028_Node000029"><a xlink:title=" ">
<path fill="none" stroke="#63b8ff" d="M690.85,-173.52C653.97,-164 604.96,-151.34 565.97,-141.28"/>
<polygon fill="#63b8ff" stroke="#63b8ff" points="567.02,-137.93 556.47,-138.82 565.27,-144.71 567.02,-137.93"/>
</a>
</g>
</g>
<!-- Node29&#45;&gt;Node12 -->
<g id="edge71_Node000029_Node000012" class="edge">
<title>Node29&#45;&gt;Node12</title>
<g id="a_edge71_Node000029_Node000012"><a xlink:title=" ">
<path fill="none" stroke="#63b8ff" d="M501.86,-108.74C503.08,-89.07 505.35,-52.81 506.76,-30.2"/>
<polygon fill="#63b8ff" stroke="#63b8ff" points="510.23,-30.67 507.36,-20.48 503.25,-30.24 510.23,-30.67"/>
</a>
</g>
</g>
<!-- Node29&#45;&gt;Node20 -->
<g id="edge72_Node000029_Node000020" class="edge">
<title>Node29&#45;&gt;Node20</title>
<g id="a_edge72_Node000029_Node000020"><a xlink:title=" ">
<path fill="none" stroke="#63b8ff" d="M479.21,-108.52C465.48,-99.71 447.78,-88.35 433.85,-79.41"/>
<polygon fill="#63b8ff" stroke="#63b8ff" points="436.07,-76.68 425.76,-74.22 432.29,-82.57 436.07,-76.68"/>
</a>
</g>
</g>
</g>
</svg>
