<?xml version="1.0" encoding="UTF-8" standalone="no"?>
<!DOCTYPE svg PUBLIC "-//W3C//DTD SVG 1.1//EN"
 "http://www.w3.org/Graphics/SVG/1.1/DTD/svg11.dtd">
<!-- Generated by graphviz version 12.1.2 (0)
 -->
<!-- Title: coverage_system.h Pages: 1 -->
<svg width="1907pt" height="331pt"
 viewBox="0.00 0.00 1907.12 330.50" xmlns="http://www.w3.org/2000/svg" xmlns:xlink="http://www.w3.org/1999/xlink">
<g id="graph0" class="graph" transform="scale(1 1) rotate(0) translate(4 326.5)">
<title>coverage_system.h</title>
<!-- Node1 -->
<g id="Node000001" class="node">
<title>Node1</title>
<g id="a_Node000001"><a xlink:title="The file contains the CoverageSystem class, which is the main class for the coverage control library.">
<polygon fill="#999999" stroke="#666666" points="1128.12,-322.5 1028.88,-322.5 1028.88,-304 1128.12,-304 1128.12,-322.5"/>
<text text-anchor="middle" x="1078.5" y="-309" font-family="Helvetica,sans-Serif" font-size="10.00">coverage_system.h</text>
</a>
</g>
</g>
<!-- Node2 -->
<g id="Node000002" class="node">
<title>Node2</title>
<g id="a_Node000002"><a xlink:title=" ">
<polygon fill="#e0e0e0" stroke="#999999" points="43,-262.75 0,-262.75 0,-244.25 43,-244.25 43,-262.75"/>
<text text-anchor="middle" x="21.5" y="-249.25" font-family="Helvetica,sans-Serif" font-size="10.00">omp.h</text>
</a>
</g>
</g>
<!-- Node1&#45;&gt;Node2 -->
<g id="edge1_Node000001_Node000002" class="edge">
<title>Node1&#45;&gt;Node2</title>
<g id="a_edge1_Node000001_Node000002"><a xlink:title=" ">
<path fill="none" stroke="#63b8ff" d="M1028.38,-312.16C849.97,-311.52 246.34,-306.49 57.5,-268 55.74,-267.64 53.95,-267.21 52.16,-266.72"/>
<polygon fill="#63b8ff" stroke="#63b8ff" points="53.38,-263.44 42.79,-263.68 51.23,-270.1 53.38,-263.44"/>
</a>
</g>
</g>
<!-- Node3 -->
<g id="Node000003" class="node">
<title>Node3</title>
<g id="a_Node000003"><a xlink:title=" ">
<polygon fill="#e0e0e0" stroke="#999999" points="373.62,-18.5 301.38,-18.5 301.38,0 373.62,0 373.62,-18.5"/>
<text text-anchor="middle" x="337.5" y="-5" font-family="Helvetica,sans-Serif" font-size="10.00">Eigen/Dense</text>
</a>
</g>
</g>
<!-- Node1&#45;&gt;Node3 -->
<g id="edge2_Node000001_Node000003" class="edge">
<title>Node1&#45;&gt;Node3</title>
<g id="a_edge2_Node000001_Node000003"><a xlink:title=" ">
<path fill="none" stroke="#63b8ff" d="M1028.4,-311.63C849.54,-309.16 248.86,-298.66 168.5,-268 116.68,-248.23 71.5,-244.96 71.5,-189.5 71.5,-189.5 71.5,-189.5 71.5,-122.5 71.5,-28.82 213.29,-12.09 289.83,-9.89"/>
<polygon fill="#63b8ff" stroke="#63b8ff" points="289.63,-13.4 299.56,-9.69 289.49,-6.4 289.63,-13.4"/>
</a>
</g>
</g>
<!-- Node4 -->
<g id="Node000004" class="node">
<title>Node4</title>
<g id="a_Node000004"><a xlink:title=" ">
<polygon fill="#e0e0e0" stroke="#999999" points="1599.38,-197.75 1543.62,-197.75 1543.62,-179.25 1599.38,-179.25 1599.38,-197.75"/>
<text text-anchor="middle" x="1571.5" y="-184.25" font-family="Helvetica,sans-Serif" font-size="10.00">algorithm</text>
</a>
</g>
</g>
<!-- Node1&#45;&gt;Node4 -->
<g id="edge3_Node000001_Node000004" class="edge">
<title>Node1&#45;&gt;Node4</title>
<g id="a_edge3_Node000001_Node000004"><a xlink:title=" ">
<path fill="none" stroke="#63b8ff" d="M1128.59,-305.71C1180.15,-298.47 1262.58,-285.47 1332.5,-268 1407.11,-249.35 1492.15,-219.22 1537.98,-202.22"/>
<polygon fill="#63b8ff" stroke="#63b8ff" points="1539.19,-205.51 1547.33,-198.73 1536.74,-198.95 1539.19,-205.51"/>
</a>
</g>
</g>
<!-- Node5 -->
<g id="Node000005" class="node">
<title>Node5</title>
<g id="a_Node000005"><a xlink:title=" ">
<polygon fill="#e0e0e0" stroke="#999999" points="989.25,-73 935.75,-73 935.75,-54.5 989.25,-54.5 989.25,-73"/>
<text text-anchor="middle" x="962.5" y="-59.5" font-family="Helvetica,sans-Serif" font-size="10.00">iostream</text>
</a>
</g>
</g>
<!-- Node1&#45;&gt;Node5 -->
<g id="edge4_Node000001_Node000005" class="edge">
<title>Node1&#45;&gt;Node5</title>
<g id="a_edge4_Node000001_Node000005"><a xlink:title=" ">
<path fill="none" stroke="#63b8ff" d="M1087.79,-303.62C1118.83,-273.79 1214.13,-173.31 1162.5,-109 1142.63,-84.25 1053.23,-72.5 1000.93,-67.66"/>
<polygon fill="#63b8ff" stroke="#63b8ff" points="1001.52,-64.19 991.25,-66.81 1000.9,-71.17 1001.52,-64.19"/>
</a>
</g>
</g>
<!-- Node6 -->
<g id="Node000006" class="node">
<title>Node6</title>
<g id="a_Node000006"><a xlink:title=" ">
<polygon fill="#e0e0e0" stroke="#999999" points="165.9,-132.75 137.1,-132.75 137.1,-114.25 165.9,-114.25 165.9,-132.75"/>
<text text-anchor="middle" x="151.5" y="-119.25" font-family="Helvetica,sans-Serif" font-size="10.00">list</text>
</a>
</g>
</g>
<!-- Node1&#45;&gt;Node6 -->
<g id="edge5_Node000001_Node000006" class="edge">
<title>Node1&#45;&gt;Node6</title>
<g id="a_edge5_Node000001_Node000006"><a xlink:title=" ">
<path fill="none" stroke="#63b8ff" d="M1028.55,-312.59C878.04,-313.11 430.7,-310.91 292.5,-268 239.36,-251.5 222.06,-244.95 185.5,-203 170.58,-185.88 161.36,-161.21 156.34,-144.11"/>
<polygon fill="#63b8ff" stroke="#63b8ff" points="159.78,-143.43 153.81,-134.68 153.02,-145.25 159.78,-143.43"/>
</a>
</g>
</g>
<!-- Node7 -->
<g id="Node000007" class="node">
<title>Node7</title>
<g id="a_Node000007"><a xlink:title=" ">
<polygon fill="#e0e0e0" stroke="#999999" points="1775,-262.75 1732,-262.75 1732,-244.25 1775,-244.25 1775,-262.75"/>
<text text-anchor="middle" x="1753.5" y="-249.25" font-family="Helvetica,sans-Serif" font-size="10.00">mutex</text>
</a>
</g>
</g>
<!-- Node1&#45;&gt;Node7 -->
<g id="edge6_Node000001_Node000007" class="edge">
<title>Node1&#45;&gt;Node7</title>
<g id="a_edge6_Node000001_Node000007"><a xlink:title=" ">
<path fill="none" stroke="#63b8ff" d="M1128.35,-310.66C1258.33,-306.22 1605.3,-292.38 1717.5,-268 1719.26,-267.62 1721.04,-267.17 1722.83,-266.67"/>
<polygon fill="#63b8ff" stroke="#63b8ff" points="1723.78,-270.04 1732.19,-263.59 1721.6,-263.39 1723.78,-270.04"/>
</a>
</g>
</g>
<!-- Node8 -->
<g id="Node000008" class="node">
<title>Node8</title>
<g id="a_Node000008"><a xlink:title=" ">
<polygon fill="#e0e0e0" stroke="#999999" points="1841.62,-262.75 1793.38,-262.75 1793.38,-244.25 1841.62,-244.25 1841.62,-262.75"/>
<text text-anchor="middle" x="1817.5" y="-249.25" font-family="Helvetica,sans-Serif" font-size="10.00">random</text>
</a>
</g>
</g>
<!-- Node1&#45;&gt;Node8 -->
<g id="edge7_Node000001_Node000008" class="edge">
<title>Node1&#45;&gt;Node8</title>
<g id="a_edge7_Node000001_Node000008"><a xlink:title=" ">
<path fill="none" stroke="#63b8ff" d="M1128.5,-311.22C1268.01,-308.03 1659.41,-296.69 1784.5,-268 1785.89,-267.68 1787.3,-267.31 1788.71,-266.9"/>
<polygon fill="#63b8ff" stroke="#63b8ff" points="1789.64,-270.28 1797.92,-263.66 1787.32,-263.68 1789.64,-270.28"/>
</a>
</g>
</g>
<!-- Node9 -->
<g id="Node000009" class="node">
<title>Node9</title>
<g id="a_Node000009"><a xlink:title=" ">
<polygon fill="#e0e0e0" stroke="#999999" points="627.5,-73 587.5,-73 587.5,-54.5 627.5,-54.5 627.5,-73"/>
<text text-anchor="middle" x="607.5" y="-59.5" font-family="Helvetica,sans-Serif" font-size="10.00">string</text>
</a>
</g>
</g>
<!-- Node1&#45;&gt;Node9 -->
<g id="edge8_Node000001_Node000009" class="edge">
<title>Node1&#45;&gt;Node9</title>
<g id="a_edge8_Node000001_Node000009"><a xlink:title=" ">
<path fill="none" stroke="#63b8ff" d="M1028.45,-310.69C969.08,-307.49 867.89,-297.73 786.5,-268 682.68,-230.08 628.49,-234.44 574.5,-138 564.01,-119.25 578.09,-96.55 590.97,-81.43"/>
<polygon fill="#63b8ff" stroke="#63b8ff" points="593.4,-83.96 597.58,-74.22 588.24,-79.23 593.4,-83.96"/>
</a>
</g>
</g>
<!-- Node10 -->
<g id="Node000010" class="node">
<title>Node10</title>
<g id="a_Node000010"><a xlink:title=" ">
<polygon fill="#e0e0e0" stroke="#999999" points="1899.12,-262.75 1859.88,-262.75 1859.88,-244.25 1899.12,-244.25 1899.12,-262.75"/>
<text text-anchor="middle" x="1879.5" y="-249.25" font-family="Helvetica,sans-Serif" font-size="10.00">utility</text>
</a>
</g>
</g>
<!-- Node1&#45;&gt;Node10 -->
<g id="edge9_Node000001_Node000010" class="edge">
<title>Node1&#45;&gt;Node10</title>
<g id="a_edge9_Node000001_Node000010"><a xlink:title=" ">
<path fill="none" stroke="#63b8ff" d="M1128.42,-311.84C1276.73,-310.23 1712.99,-302.6 1850.5,-268 1851.33,-267.79 1852.16,-267.56 1853,-267.31"/>
<polygon fill="#63b8ff" stroke="#63b8ff" points="1854.16,-270.61 1862.23,-263.74 1851.64,-264.08 1854.16,-270.61"/>
</a>
</g>
</g>
<!-- Node11 -->
<g id="Node000011" class="node">
<title>Node11</title>
<g id="a_Node000011"><a xlink:title=" ">
<polygon fill="#e0e0e0" stroke="#999999" points="744.62,-18.5 702.38,-18.5 702.38,0 744.62,0 744.62,-18.5"/>
<text text-anchor="middle" x="723.5" y="-5" font-family="Helvetica,sans-Serif" font-size="10.00">vector</text>
</a>
</g>
</g>
<!-- Node1&#45;&gt;Node11 -->
<g id="edge10_Node000001_Node000011" class="edge">
<title>Node1&#45;&gt;Node11</title>
<g id="a_edge10_Node000001_Node000011"><a xlink:title=" ">
<path fill="none" stroke="#63b8ff" d="M1028.6,-309.33C939.24,-303.63 755.64,-289.66 695.5,-268 633.92,-245.82 425.96,-79.93 422.5,-73 418.83,-65.64 417.13,-60.72 422.5,-54.5 456.93,-14.64 620.44,-10.03 690.98,-9.94"/>
<polygon fill="#63b8ff" stroke="#63b8ff" points="690.72,-13.44 700.73,-9.96 690.74,-6.44 690.72,-13.44"/>
</a>
</g>
</g>
<!-- Node12 -->
<g id="Node000012" class="node">
<title>Node12</title>
<g id="a_Node000012"><a xlink:href="bivariate__normal__distribution_8h.html" target="_top" xlink:title="Class for Bivariate Normal Distribution.">
<polygon fill="white" stroke="#666666" points="1599.38,-138 1471.62,-138 1471.62,-109 1599.38,-109 1599.38,-138"/>
<text text-anchor="start" x="1479.62" y="-124.5" font-family="Helvetica,sans-Serif" font-size="10.00">CoverageControl/bivariate</text>
<text text-anchor="middle" x="1535.5" y="-114" font-family="Helvetica,sans-Serif" font-size="10.00">_normal_distribution.h</text>
</a>
</g>
</g>
<!-- Node1&#45;&gt;Node12 -->
<g id="edge11_Node000001_Node000012" class="edge">
<title>Node1&#45;&gt;Node12</title>
<g id="a_edge11_Node000001_Node000012"><a xlink:title=" ">
<path fill="none" stroke="#63b8ff" d="M1128.36,-310.41C1229.62,-306.17 1455.9,-294.03 1528.5,-268 1585.01,-247.74 1656.05,-225.68 1625.5,-174 1617.61,-160.66 1604.71,-150.67 1591.1,-143.3"/>
<polygon fill="#63b8ff" stroke="#63b8ff" points="1593.01,-140.34 1582.49,-139.05 1589.91,-146.61 1593.01,-140.34"/>
</a>
</g>
</g>
<!-- Node14 -->
<g id="Node000014" class="node">
<title>Node14</title>
<g id="a_Node000014"><a xlink:href="constants_8h.html" target="_top" xlink:title="Constants for the CoverageControl library.">
<polygon fill="white" stroke="#666666" points="1637.88,-73 1495.12,-73 1495.12,-54.5 1637.88,-54.5 1637.88,-73"/>
<text text-anchor="middle" x="1566.5" y="-59.5" font-family="Helvetica,sans-Serif" font-size="10.00">CoverageControl/constants.h</text>
</a>
</g>
</g>
<!-- Node1&#45;&gt;Node14 -->
<g id="edge21_Node000001_Node000014" class="edge">
<title>Node1&#45;&gt;Node14</title>
<g id="a_edge21_Node000001_Node000014"><a xlink:title=" ">
<path fill="none" stroke="#63b8ff" d="M1128.35,-312.06C1238.4,-310.98 1498.56,-304.5 1577.5,-268 1623.83,-246.58 1650.73,-224.53 1643.5,-174 1639.23,-144.21 1641.54,-133.81 1624.5,-109 1616.29,-97.05 1603.83,-86.94 1592.56,-79.41"/>
<polygon fill="#63b8ff" stroke="#63b8ff" points="1594.71,-76.63 1584.38,-74.28 1590.99,-82.56 1594.71,-76.63"/>
</a>
</g>
</g>
<!-- Node17 -->
<g id="Node000017" class="node">
<title>Node17</title>
<g id="a_Node000017"><a xlink:href="typedefs_8h.html" target="_top" xlink:title="Contains typedefs for the library.">
<polygon fill="white" stroke="#666666" points="569.25,-73 431.75,-73 431.75,-54.5 569.25,-54.5 569.25,-73"/>
<text text-anchor="middle" x="500.5" y="-59.5" font-family="Helvetica,sans-Serif" font-size="10.00">CoverageControl/typedefs.h</text>
</a>
</g>
</g>
<!-- Node1&#45;&gt;Node17 -->
<g id="edge70_Node000001_Node000017" class="edge">
<title>Node1&#45;&gt;Node17</title>
<g id="a_edge70_Node000001_Node000017"><a xlink:title=" ">
<path fill="none" stroke="#63b8ff" d="M1028.64,-311.95C856.27,-310.62 292.08,-303.56 219.5,-268 146.38,-232.18 74.43,-169.88 128.5,-109 147.52,-87.59 316.49,-74.69 420.05,-68.73"/>
<polygon fill="#63b8ff" stroke="#63b8ff" points="420.11,-72.23 429.9,-68.17 419.71,-65.24 420.11,-72.23"/>
</a>
</g>
</g>
<!-- Node19 -->
<g id="Node000019" class="node">
<title>Node19</title>
<g id="a_Node000019"><a xlink:href="map__utils_8h.html" target="_top" xlink:title="Utility functions for transforming maps.">
<polygon fill="white" stroke="#666666" points="703.75,-138 593.25,-138 593.25,-109 703.75,-109 703.75,-138"/>
<text text-anchor="start" x="601.25" y="-124.5" font-family="Helvetica,sans-Serif" font-size="10.00">CoverageControl/map</text>
<text text-anchor="middle" x="648.5" y="-114" font-family="Helvetica,sans-Serif" font-size="10.00">_utils.h</text>
</a>
</g>
</g>
<!-- Node1&#45;&gt;Node19 -->
<g id="edge22_Node000001_Node000019" class="edge">
<title>Node1&#45;&gt;Node19</title>
<g id="a_edge22_Node000001_Node000019"><a xlink:title=" ">
<path fill="none" stroke="#63b8ff" d="M1028.54,-305.69C955.77,-294.32 818.51,-265.83 719.5,-203 696.72,-188.54 676.72,-164.85 663.8,-147.27"/>
<polygon fill="#63b8ff" stroke="#63b8ff" points="666.9,-145.59 658.25,-139.46 661.19,-149.64 666.9,-145.59"/>
</a>
</g>
</g>
<!-- Node21 -->
<g id="Node000021" class="node">
<title>Node21</title>
<g id="a_Node000021"><a xlink:href="parameters_8h.html" target="_top" xlink:title="Contains parameters.">
<polygon fill="white" stroke="#666666" points="1153.25,-132.75 1003.75,-132.75 1003.75,-114.25 1153.25,-114.25 1153.25,-132.75"/>
<text text-anchor="middle" x="1078.5" y="-119.25" font-family="Helvetica,sans-Serif" font-size="10.00">CoverageControl/parameters.h</text>
</a>
</g>
</g>
<!-- Node1&#45;&gt;Node21 -->
<g id="edge28_Node000001_Node000021" class="edge">
<title>Node1&#45;&gt;Node21</title>
<g id="a_edge28_Node000001_Node000021"><a xlink:title=" ">
<path fill="none" stroke="#63b8ff" d="M1078.5,-303.69C1078.5,-275.53 1078.5,-185.21 1078.5,-144.6"/>
<polygon fill="#63b8ff" stroke="#63b8ff" points="1082,-144.62 1078.5,-134.62 1075,-144.62 1082,-144.62"/>
</a>
</g>
</g>
<!-- Node22 -->
<g id="Node000022" class="node">
<title>Node22</title>
<g id="a_Node000022"><a xlink:href="plotter_8h.html" target="_top" xlink:title="Class to plot the map.">
<polygon fill="white" stroke="#666666" points="321,-197.75 194,-197.75 194,-179.25 321,-179.25 321,-197.75"/>
<text text-anchor="middle" x="257.5" y="-184.25" font-family="Helvetica,sans-Serif" font-size="10.00">CoverageControl/plotter.h</text>
</a>
</g>
</g>
<!-- Node1&#45;&gt;Node22 -->
<g id="edge31_Node000001_Node000022" class="edge">
<title>Node1&#45;&gt;Node22</title>
<g id="a_edge31_Node000001_Node000022"><a xlink:title=" ">
<path fill="none" stroke="#63b8ff" d="M1028.51,-311.33C872.04,-308.17 398.29,-296.34 335.5,-268 306.69,-254.99 282.69,-226.28 269.22,-207.42"/>
<polygon fill="#63b8ff" stroke="#63b8ff" points="272.25,-205.65 263.71,-199.37 266.47,-209.6 272.25,-205.65"/>
</a>
</g>
</g>
<!-- Node24 -->
<g id="Node000024" class="node">
<title>Node24</title>
<g id="a_Node000024"><a xlink:href="voronoi_8h.html" target="_top" xlink:title="Class for computing Voronoi cells.">
<polygon fill="white" stroke="#666666" points="1415.88,-132.75 1285.12,-132.75 1285.12,-114.25 1415.88,-114.25 1415.88,-132.75"/>
<text text-anchor="middle" x="1350.5" y="-119.25" font-family="Helvetica,sans-Serif" font-size="10.00">CoverageControl/voronoi.h</text>
</a>
</g>
</g>
<!-- Node1&#45;&gt;Node24 -->
<g id="edge71_Node000001_Node000024" class="edge">
<title>Node1&#45;&gt;Node24</title>
<g id="a_edge71_Node000001_Node000024"><a xlink:title=" ">
<path fill="none" stroke="#63b8ff" d="M1128.61,-310.07C1249.54,-303.62 1551.6,-279.96 1608.5,-203 1616.16,-192.64 1616.71,-183.94 1608.5,-174 1596.9,-159.96 1499.36,-144.17 1427.63,-134.28"/>
<polygon fill="#63b8ff" stroke="#63b8ff" points="1428.23,-130.83 1417.85,-132.95 1427.29,-137.77 1428.23,-130.83"/>
</a>
</g>
</g>
<!-- Node26 -->
<g id="Node000026" class="node">
<title>Node26</title>
<g id="a_Node000026"><a xlink:href="robot__model_8h.html" target="_top" xlink:title="Class for handling the robot model.">
<polygon fill="white" stroke="#666666" points="1323.25,-268 1209.75,-268 1209.75,-239 1323.25,-239 1323.25,-268"/>
<text text-anchor="start" x="1217.75" y="-254.5" font-family="Helvetica,sans-Serif" font-size="10.00">CoverageControl/robot</text>
<text text-anchor="middle" x="1266.5" y="-244" font-family="Helvetica,sans-Serif" font-size="10.00">_model.h</text>
</a>
</g>
</g>
<!-- Node1&#45;&gt;Node26 -->
<g id="edge42_Node000001_Node000026" class="edge">
<title>Node1&#45;&gt;Node26</title>
<g id="a_edge42_Node000001_Node000026"><a xlink:title=" ">
<path fill="none" stroke="#63b8ff" d="M1106.65,-303.6C1133.91,-295.23 1176.04,-282.29 1210.2,-271.8"/>
<polygon fill="#63b8ff" stroke="#63b8ff" points="1211,-275.21 1219.53,-268.93 1208.95,-268.52 1211,-275.21"/>
</a>
</g>
</g>
<!-- Node27 -->
<g id="Node000027" class="node">
<title>Node27</title>
<g id="a_Node000027"><a xlink:href="world__idf_8h.html" target="_top" xlink:title="Contains the class for Importance Density Function (IDF) for the world.">
<polygon fill="white" stroke="#666666" points="910.62,-203 796.38,-203 796.38,-174 910.62,-174 910.62,-203"/>
<text text-anchor="start" x="804.38" y="-189.5" font-family="Helvetica,sans-Serif" font-size="10.00">CoverageControl/world</text>
<text text-anchor="middle" x="853.5" y="-179" font-family="Helvetica,sans-Serif" font-size="10.00">_idf.h</text>
</a>
</g>
</g>
<!-- Node1&#45;&gt;Node27 -->
<g id="edge72_Node000001_Node000027" class="edge">
<title>Node1&#45;&gt;Node27</title>
<g id="a_edge72_Node000001_Node000027"><a xlink:title=" ">
<path fill="none" stroke="#63b8ff" d="M1062.68,-303.62C1026.82,-284.05 938.62,-235.94 888.96,-208.85"/>
<polygon fill="#63b8ff" stroke="#63b8ff" points="890.77,-205.84 880.31,-204.13 887.41,-211.99 890.77,-205.84"/>
</a>
</g>
</g>
<!-- Node13 -->
<g id="Node000013" class="node">
<title>Node13</title>
<g id="a_Node000013"><a xlink:title=" ">
<polygon fill="#e0e0e0" stroke="#999999" points="1435,-18.5 1392,-18.5 1392,0 1435,0 1435,-18.5"/>
<text text-anchor="middle" x="1413.5" y="-5" font-family="Helvetica,sans-Serif" font-size="10.00">cmath</text>
</a>
</g>
</g>
<!-- Node12&#45;&gt;Node13 -->
<g id="edge12_Node000012_Node000013" class="edge">
<title>Node12&#45;&gt;Node13</title>
<g id="a_edge12_Node000012_Node000013"><a xlink:title=" ">
<path fill="none" stroke="#63b8ff" d="M1520.54,-108.74C1497.97,-87.97 1455.3,-48.71 1431.21,-26.55"/>
<polygon fill="#63b8ff" stroke="#63b8ff" points="1433.81,-24.18 1424.09,-19.99 1429.07,-29.34 1433.81,-24.18"/>
</a>
</g>
</g>
<!-- Node12&#45;&gt;Node14 -->
<g id="edge13_Node000012_Node000014" class="edge">
<title>Node12&#45;&gt;Node14</title>
<g id="a_edge13_Node000012_Node000014"><a xlink:title=" ">
<path fill="none" stroke="#63b8ff" d="M1543,-108.52C1547.04,-100.99 1552.08,-91.61 1556.46,-83.46"/>
<polygon fill="#63b8ff" stroke="#63b8ff" points="1559.49,-85.2 1561.14,-74.74 1553.33,-81.89 1559.49,-85.2"/>
</a>
</g>
</g>
<!-- Node12&#45;&gt;Node17 -->
<g id="edge17_Node000012_Node000017" class="edge">
<title>Node12&#45;&gt;Node17</title>
<g id="a_edge17_Node000012_Node000017"><a xlink:title=" ">
<path fill="none" stroke="#63b8ff" d="M1471.32,-113.82C1456,-112 1439.69,-110.24 1424.5,-109 1053.17,-78.57 955.75,-100.36 580.84,-73.11"/>
<polygon fill="#63b8ff" stroke="#63b8ff" points="581.12,-69.63 570.89,-72.38 580.61,-76.61 581.12,-69.63"/>
</a>
</g>
</g>
<!-- Node14&#45;&gt;Node13 -->
<g id="edge14_Node000014_Node000013" class="edge">
<title>Node14&#45;&gt;Node13</title>
<g id="a_edge14_Node000014_Node000013"><a xlink:title=" ">
<path fill="none" stroke="#63b8ff" d="M1541.24,-54.08C1515.16,-45.13 1474.39,-31.14 1445.94,-21.38"/>
<polygon fill="#63b8ff" stroke="#63b8ff" points="1447.36,-18.17 1436.76,-18.23 1445.08,-24.79 1447.36,-18.17"/>
</a>
</g>
</g>
<!-- Node15 -->
<g id="Node000015" class="node">
<title>Node15</title>
<g id="a_Node000015"><a xlink:title=" ">
<polygon fill="#e0e0e0" stroke="#999999" points="1586.12,-18.5 1546.88,-18.5 1546.88,0 1586.12,0 1586.12,-18.5"/>
<text text-anchor="middle" x="1566.5" y="-5" font-family="Helvetica,sans-Serif" font-size="10.00">limits</text>
</a>
</g>
</g>
<!-- Node14&#45;&gt;Node15 -->
<g id="edge15_Node000014_Node000015" class="edge">
<title>Node14&#45;&gt;Node15</title>
<g id="a_edge15_Node000014_Node000015"><a xlink:title=" ">
<path fill="none" stroke="#63b8ff" d="M1566.5,-54.08C1566.5,-47.58 1566.5,-38.42 1566.5,-30.16"/>
<polygon fill="#63b8ff" stroke="#63b8ff" points="1570,-30.27 1566.5,-20.27 1563,-30.27 1570,-30.27"/>
</a>
</g>
</g>
<!-- Node16 -->
<g id="Node000016" class="node">
<title>Node16</title>
<g id="a_Node000016"><a xlink:title=" ">
<polygon fill="#e0e0e0" stroke="#999999" points="1081.75,-18.5 953.25,-18.5 953.25,0 1081.75,0 1081.75,-18.5"/>
<text text-anchor="middle" x="1017.5" y="-5" font-family="Helvetica,sans-Serif" font-size="10.00">CoverageControl/Config.h</text>
</a>
</g>
</g>
<!-- Node14&#45;&gt;Node16 -->
<g id="edge16_Node000014_Node000016" class="edge">
<title>Node14&#45;&gt;Node16</title>
<g id="a_edge16_Node000014_Node000016"><a xlink:title=" ">
<path fill="none" stroke="#63b8ff" d="M1494.73,-55.89C1390.83,-45.95 1199.38,-27.64 1093.28,-17.5"/>
<polygon fill="#63b8ff" stroke="#63b8ff" points="1093.82,-14.03 1083.53,-16.56 1093.16,-21 1093.82,-14.03"/>
</a>
</g>
</g>
<!-- Node17&#45;&gt;Node3 -->
<g id="edge18_Node000017_Node000003" class="edge">
<title>Node17&#45;&gt;Node3</title>
<g id="a_edge18_Node000017_Node000003"><a xlink:title=" ">
<path fill="none" stroke="#63b8ff" d="M473.58,-54.08C446.8,-45.46 405.47,-32.14 375.38,-22.45"/>
<polygon fill="#63b8ff" stroke="#63b8ff" points="376.49,-19.13 365.9,-19.4 374.34,-25.79 376.49,-19.13"/>
</a>
</g>
</g>
<!-- Node17&#45;&gt;Node11 -->
<g id="edge20_Node000017_Node000011" class="edge">
<title>Node17&#45;&gt;Node11</title>
<g id="a_edge20_Node000017_Node000011"><a xlink:title=" ">
<path fill="none" stroke="#63b8ff" d="M537.57,-54.02C580.3,-43.96 649.85,-27.59 690.68,-17.98"/>
<polygon fill="#63b8ff" stroke="#63b8ff" points="691.48,-21.38 700.41,-15.69 689.87,-14.57 691.48,-21.38"/>
</a>
</g>
</g>
<!-- Node18 -->
<g id="Node000018" class="node">
<title>Node18</title>
<g id="a_Node000018"><a xlink:title=" ">
<polygon fill="#e0e0e0" stroke="#999999" points="521.62,-18.5 479.38,-18.5 479.38,0 521.62,0 521.62,-18.5"/>
<text text-anchor="middle" x="500.5" y="-5" font-family="Helvetica,sans-Serif" font-size="10.00">queue</text>
</a>
</g>
</g>
<!-- Node17&#45;&gt;Node18 -->
<g id="edge19_Node000017_Node000018" class="edge">
<title>Node17&#45;&gt;Node18</title>
<g id="a_edge19_Node000017_Node000018"><a xlink:title=" ">
<path fill="none" stroke="#63b8ff" d="M500.5,-54.08C500.5,-47.58 500.5,-38.42 500.5,-30.16"/>
<polygon fill="#63b8ff" stroke="#63b8ff" points="504,-30.27 500.5,-20.27 497,-30.27 504,-30.27"/>
</a>
</g>
</g>
<!-- Node19&#45;&gt;Node5 -->
<g id="edge25_Node000019_Node000005" class="edge">
<title>Node19&#45;&gt;Node5</title>
<g id="a_edge25_Node000019_Node000005"><a xlink:title=" ">
<path fill="none" stroke="#63b8ff" d="M703.91,-112.31C767.36,-100.64 869.6,-81.84 924.59,-71.72"/>
<polygon fill="#63b8ff" stroke="#63b8ff" points="924.88,-75.23 934.09,-69.98 923.62,-68.34 924.88,-75.23"/>
</a>
</g>
</g>
<!-- Node19&#45;&gt;Node9 -->
<g id="edge26_Node000019_Node000009" class="edge">
<title>Node19&#45;&gt;Node9</title>
<g id="a_edge26_Node000019_Node000009"><a xlink:title=" ">
<path fill="none" stroke="#63b8ff" d="M638.58,-108.52C633.05,-100.74 626.11,-90.96 620.19,-82.63"/>
<polygon fill="#63b8ff" stroke="#63b8ff" points="623.16,-80.77 614.52,-74.64 617.45,-84.82 623.16,-80.77"/>
</a>
</g>
</g>
<!-- Node19&#45;&gt;Node13 -->
<g id="edge23_Node000019_Node000013" class="edge">
<title>Node19&#45;&gt;Node13</title>
<g id="a_edge23_Node000019_Node000013"><a xlink:title=" ">
<path fill="none" stroke="#63b8ff" d="M675.63,-108.62C708.5,-92.52 766.01,-66.65 818.5,-54.5 926.84,-29.43 1271.97,-15.29 1380.5,-11.38"/>
<polygon fill="#63b8ff" stroke="#63b8ff" points="1380.3,-14.89 1390.17,-11.03 1380.05,-7.89 1380.3,-14.89"/>
</a>
</g>
</g>
<!-- Node19&#45;&gt;Node17 -->
<g id="edge27_Node000019_Node000017" class="edge">
<title>Node19&#45;&gt;Node17</title>
<g id="a_edge27_Node000019_Node000017"><a xlink:title=" ">
<path fill="none" stroke="#63b8ff" d="M612.67,-108.52C588.45,-99.07 556.71,-86.68 533.18,-77.5"/>
<polygon fill="#63b8ff" stroke="#63b8ff" points="534.68,-74.33 524.09,-73.95 532.13,-80.85 534.68,-74.33"/>
</a>
</g>
</g>
<!-- Node20 -->
<g id="Node000020" class="node">
<title>Node20</title>
<g id="a_Node000020"><a xlink:title=" ">
<polygon fill="#e0e0e0" stroke="#999999" points="695,-73 646,-73 646,-54.5 695,-54.5 695,-73"/>
<text text-anchor="middle" x="670.5" y="-59.5" font-family="Helvetica,sans-Serif" font-size="10.00">fstream</text>
</a>
</g>
</g>
<!-- Node19&#45;&gt;Node20 -->
<g id="edge24_Node000019_Node000020" class="edge">
<title>Node19&#45;&gt;Node20</title>
<g id="a_edge24_Node000019_Node000020"><a xlink:title=" ">
<path fill="none" stroke="#63b8ff" d="M653.83,-108.52C656.63,-101.16 660.11,-92.03 663.16,-84.01"/>
<polygon fill="#63b8ff" stroke="#63b8ff" points="666.38,-85.41 666.66,-74.82 659.83,-82.92 666.38,-85.41"/>
</a>
</g>
</g>
<!-- Node21&#45;&gt;Node9 -->
<g id="edge30_Node000021_Node000009" class="edge">
<title>Node21&#45;&gt;Node9</title>
<g id="a_edge30_Node000021_Node000009"><a xlink:title=" ">
<path fill="none" stroke="#63b8ff" d="M1003.42,-115.51C901.29,-105.76 722.66,-87.82 638.9,-72.87"/>
<polygon fill="#63b8ff" stroke="#63b8ff" points="639.69,-69.45 629.22,-71.05 638.41,-76.33 639.69,-69.45"/>
</a>
</g>
</g>
<!-- Node21&#45;&gt;Node13 -->
<g id="edge29_Node000021_Node000013" class="edge">
<title>Node21&#45;&gt;Node13</title>
<g id="a_edge29_Node000021_Node000013"><a xlink:title=" ">
<path fill="none" stroke="#63b8ff" d="M1104.51,-113.79C1164.96,-93.53 1314.83,-43.31 1381.1,-21.11"/>
<polygon fill="#63b8ff" stroke="#63b8ff" points="1381.92,-24.52 1390.29,-18.03 1379.7,-17.88 1381.92,-24.52"/>
</a>
</g>
</g>
<!-- Node22&#45;&gt;Node6 -->
<g id="edge33_Node000022_Node000006" class="edge">
<title>Node22&#45;&gt;Node6</title>
<g id="a_edge33_Node000022_Node000006"><a xlink:title=" ">
<path fill="none" stroke="#63b8ff" d="M243.2,-179C225.9,-168.72 196.48,-151.24 175.64,-138.85"/>
<polygon fill="#63b8ff" stroke="#63b8ff" points="177.59,-135.94 167.21,-133.84 174.02,-141.95 177.59,-135.94"/>
</a>
</g>
</g>
<!-- Node22&#45;&gt;Node9 -->
<g id="edge34_Node000022_Node000009" class="edge">
<title>Node22&#45;&gt;Node9</title>
<g id="a_edge34_Node000022_Node000009"><a xlink:title=" ">
<path fill="none" stroke="#63b8ff" d="M280.99,-178.85C320.88,-164.2 404.45,-133.7 475.5,-109 510.06,-96.99 549.9,-83.71 576.7,-74.86"/>
<polygon fill="#63b8ff" stroke="#63b8ff" points="577.49,-78.29 585.89,-71.83 575.3,-71.64 577.49,-78.29"/>
</a>
</g>
</g>
<!-- Node22&#45;&gt;Node11 -->
<g id="edge35_Node000022_Node000011" class="edge">
<title>Node22&#45;&gt;Node11</title>
<g id="a_edge35_Node000022_Node000011"><a xlink:title=" ">
<path fill="none" stroke="#63b8ff" d="M258.83,-178.92C261.55,-163.56 268.96,-130.96 285.5,-109 310.51,-75.8 322.78,-69.6 361.5,-54.5 421.27,-31.19 613.27,-17.05 690.68,-12.18"/>
<polygon fill="#63b8ff" stroke="#63b8ff" points="690.81,-15.68 700.58,-11.57 690.38,-8.69 690.81,-15.68"/>
</a>
</g>
</g>
<!-- Node22&#45;&gt;Node17 -->
<g id="edge36_Node000022_Node000017" class="edge">
<title>Node22&#45;&gt;Node17</title>
<g id="a_edge36_Node000022_Node000017"><a xlink:title=" ">
<path fill="none" stroke="#63b8ff" d="M272.19,-178.79C297.7,-163.8 352.02,-132.46 399.5,-109 422.38,-97.69 448.82,-86.16 468.91,-77.71"/>
<polygon fill="#63b8ff" stroke="#63b8ff" points="470.07,-81.01 477.95,-73.93 467.38,-74.55 470.07,-81.01"/>
</a>
</g>
</g>
<!-- Node23 -->
<g id="Node000023" class="node">
<title>Node23</title>
<g id="a_Node000023"><a xlink:title=" ">
<polygon fill="#e0e0e0" stroke="#999999" points="233.38,-132.75 183.62,-132.75 183.62,-114.25 233.38,-114.25 233.38,-132.75"/>
<text text-anchor="middle" x="208.5" y="-119.25" font-family="Helvetica,sans-Serif" font-size="10.00">iomanip</text>
</a>
</g>
</g>
<!-- Node22&#45;&gt;Node23 -->
<g id="edge32_Node000022_Node000023" class="edge">
<title>Node22&#45;&gt;Node23</title>
<g id="a_edge32_Node000022_Node000023"><a xlink:title=" ">
<path fill="none" stroke="#63b8ff" d="M250.89,-179C243.47,-169.46 231.24,-153.73 221.81,-141.62"/>
<polygon fill="#63b8ff" stroke="#63b8ff" points="224.84,-139.8 215.93,-134.06 219.31,-144.1 224.84,-139.8"/>
</a>
</g>
</g>
<!-- Node22&#45;&gt;Node24 -->
<g id="edge37_Node000022_Node000024" class="edge">
<title>Node22&#45;&gt;Node24</title>
<g id="a_edge37_Node000022_Node000024"><a xlink:title=" ">
<path fill="none" stroke="#63b8ff" d="M321.44,-184.38C469.43,-177.07 847.05,-157.95 1162.5,-138 1199.03,-135.69 1239.53,-132.82 1273.55,-130.32"/>
<polygon fill="#63b8ff" stroke="#63b8ff" points="1273.61,-133.83 1283.32,-129.6 1273.09,-126.85 1273.61,-133.83"/>
</a>
</g>
</g>
<!-- Node24&#45;&gt;Node11 -->
<g id="edge40_Node000024_Node000011" class="edge">
<title>Node24&#45;&gt;Node11</title>
<g id="a_edge40_Node000024_Node000011"><a xlink:title=" ">
<path fill="none" stroke="#63b8ff" d="M1342.46,-113.92C1327.7,-98.8 1294.54,-67.77 1259.5,-54.5 1212.47,-36.69 865.04,-17.52 756.08,-11.89"/>
<polygon fill="#63b8ff" stroke="#63b8ff" points="756.54,-8.41 746.38,-11.39 756.18,-15.4 756.54,-8.41"/>
</a>
</g>
</g>
<!-- Node24&#45;&gt;Node13 -->
<g id="edge38_Node000024_Node000013" class="edge">
<title>Node24&#45;&gt;Node13</title>
<g id="a_edge38_Node000024_Node000013"><a xlink:title=" ">
<path fill="none" stroke="#63b8ff" d="M1353.22,-113.77C1357.56,-100.46 1366.76,-74.55 1378.5,-54.5 1384.06,-45.01 1391.48,-35.32 1398.06,-27.45"/>
<polygon fill="#63b8ff" stroke="#63b8ff" points="1400.59,-29.87 1404.49,-20.01 1395.3,-25.29 1400.59,-29.87"/>
</a>
</g>
</g>
<!-- Node24&#45;&gt;Node17 -->
<g id="edge41_Node000024_Node000017" class="edge">
<title>Node24&#45;&gt;Node17</title>
<g id="a_edge41_Node000024_Node000017"><a xlink:title=" ">
<path fill="none" stroke="#63b8ff" d="M1284.82,-117.62C1248.73,-114.98 1203.15,-111.71 1162.5,-109 906.7,-91.93 839.53,-94.6 580.66,-73.14"/>
<polygon fill="#63b8ff" stroke="#63b8ff" points="581.15,-69.67 570.9,-72.33 580.57,-76.65 581.15,-69.67"/>
</a>
</g>
</g>
<!-- Node25 -->
<g id="Node000025" class="node">
<title>Node25</title>
<g id="a_Node000025"><a xlink:title=" ">
<polygon fill="#e0e0e0" stroke="#999999" points="1439.5,-73 1387.5,-73 1387.5,-54.5 1439.5,-54.5 1439.5,-73"/>
<text text-anchor="middle" x="1413.5" y="-59.5" font-family="Helvetica,sans-Serif" font-size="10.00">memory</text>
</a>
</g>
</g>
<!-- Node24&#45;&gt;Node25 -->
<g id="edge39_Node000024_Node000025" class="edge">
<title>Node24&#45;&gt;Node25</title>
<g id="a_edge39_Node000024_Node000025"><a xlink:title=" ">
<path fill="none" stroke="#63b8ff" d="M1359.8,-113.98C1369.29,-105.28 1384.25,-91.56 1395.98,-80.81"/>
<polygon fill="#63b8ff" stroke="#63b8ff" points="1398.04,-83.67 1403.05,-74.33 1393.31,-78.51 1398.04,-83.67"/>
</a>
</g>
</g>
<!-- Node26&#45;&gt;Node4 -->
<g id="edge43_Node000026_Node000004" class="edge">
<title>Node26&#45;&gt;Node4</title>
<g id="a_edge43_Node000026_Node000004"><a xlink:title=" ">
<path fill="none" stroke="#63b8ff" d="M1323.64,-243.86C1377.22,-235.26 1459.36,-220.8 1529.5,-203 1531.47,-202.5 1533.49,-201.96 1535.52,-201.39"/>
<polygon fill="#63b8ff" stroke="#63b8ff" points="1536.3,-204.81 1544.88,-198.59 1534.3,-198.1 1536.3,-204.81"/>
</a>
</g>
</g>
<!-- Node26&#45;&gt;Node5 -->
<g id="edge45_Node000026_Node000005" class="edge">
<title>Node26&#45;&gt;Node5</title>
<g id="a_edge45_Node000026_Node000005"><a xlink:title=" ">
<path fill="none" stroke="#63b8ff" d="M1260.08,-238.71C1243.7,-203.61 1201.2,-113.33 1195.5,-109 1165.44,-86.17 1058.9,-73.34 1000.87,-67.9"/>
<polygon fill="#63b8ff" stroke="#63b8ff" points="1001.38,-64.43 991.11,-67.02 1000.75,-71.41 1001.38,-64.43"/>
</a>
</g>
</g>
<!-- Node26&#45;&gt;Node11 -->
<g id="edge47_Node000026_Node000011" class="edge">
<title>Node26&#45;&gt;Node11</title>
<g id="a_edge47_Node000026_Node000011"><a xlink:title=" ">
<path fill="none" stroke="#63b8ff" d="M1266.12,-238.58C1264.53,-209.69 1256.59,-143.08 1217.5,-109 1147.65,-48.1 854.94,-20.36 756.19,-12.61"/>
<polygon fill="#63b8ff" stroke="#63b8ff" points="756.63,-9.13 746.39,-11.86 756.09,-16.11 756.63,-9.13"/>
</a>
</g>
</g>
<!-- Node26&#45;&gt;Node13 -->
<g id="edge44_Node000026_Node000013" class="edge">
<title>Node26&#45;&gt;Node13</title>
<g id="a_edge44_Node000026_Node000013"><a xlink:title=" ">
<path fill="none" stroke="#63b8ff" d="M1323.45,-239.82C1373.65,-228.43 1442.81,-212.12 1469.5,-203 1499.43,-192.77 1505.36,-186.32 1534.5,-174 1574.18,-157.22 1594.87,-169.28 1624.5,-138 1645.47,-115.86 1641.55,-103.09 1646.5,-73 1647.84,-64.89 1651.74,-60.83 1646.5,-54.5 1621.49,-24.3 1504.74,-14.54 1446.58,-11.53"/>
<polygon fill="#63b8ff" stroke="#63b8ff" points="1446.79,-8.03 1436.63,-11.05 1446.45,-15.03 1446.79,-8.03"/>
</a>
</g>
</g>
<!-- Node26&#45;&gt;Node14 -->
<g id="edge48_Node000026_Node000014" class="edge">
<title>Node26&#45;&gt;Node14</title>
<g id="a_edge48_Node000026_Node000014"><a xlink:title=" ">
<path fill="none" stroke="#63b8ff" d="M1308.39,-238.52C1399.63,-208.06 1608.21,-138.4 1608.5,-138 1621.99,-119.26 1602.97,-95.84 1586.35,-80.6"/>
<polygon fill="#63b8ff" stroke="#63b8ff" points="1589.06,-78.32 1579.2,-74.44 1584.49,-83.62 1589.06,-78.32"/>
</a>
</g>
</g>
<!-- Node26&#45;&gt;Node17 -->
<g id="edge51_Node000026_Node000017" class="edge">
<title>Node26&#45;&gt;Node17</title>
<g id="a_edge51_Node000026_Node000017"><a xlink:title=" ">
<path fill="none" stroke="#63b8ff" d="M1209.5,-251.96C1109.26,-250 895.37,-241.23 719.5,-203 634.34,-184.49 599.03,-196.57 534.5,-138 518.78,-123.73 509.76,-100.72 505.02,-84.3"/>
<polygon fill="#63b8ff" stroke="#63b8ff" points="508.44,-83.55 502.56,-74.74 501.66,-85.3 508.44,-83.55"/>
</a>
</g>
</g>
<!-- Node26&#45;&gt;Node19 -->
<g id="edge49_Node000026_Node000019" class="edge">
<title>Node26&#45;&gt;Node19</title>
<g id="a_edge49_Node000026_Node000019"><a xlink:title=" ">
<path fill="none" stroke="#63b8ff" d="M1209.42,-249.53C1100.01,-243.35 864.77,-227.63 787.5,-203 746.11,-189.81 703.29,-163.34 676.31,-144.8"/>
<polygon fill="#63b8ff" stroke="#63b8ff" points="678.56,-142.1 668.36,-139.24 674.55,-147.84 678.56,-142.1"/>
</a>
</g>
</g>
<!-- Node26&#45;&gt;Node21 -->
<g id="edge50_Node000026_Node000021" class="edge">
<title>Node26&#45;&gt;Node21</title>
<g id="a_edge50_Node000026_Node000021"><a xlink:title=" ">
<path fill="none" stroke="#63b8ff" d="M1246.02,-238.56C1210.36,-214.28 1137.15,-164.43 1100.47,-139.46"/>
<polygon fill="#63b8ff" stroke="#63b8ff" points="1102.64,-136.7 1092.4,-133.97 1098.7,-142.49 1102.64,-136.7"/>
</a>
</g>
</g>
<!-- Node26&#45;&gt;Node24 -->
<g id="edge52_Node000026_Node000024" class="edge">
<title>Node26&#45;&gt;Node24</title>
<g id="a_edge52_Node000026_Node000024"><a xlink:title=" ">
<path fill="none" stroke="#63b8ff" d="M1275.49,-238.8C1290.74,-215.56 1321.68,-168.42 1338.67,-142.53"/>
<polygon fill="#63b8ff" stroke="#63b8ff" points="1341.43,-144.7 1343.99,-134.42 1335.58,-140.86 1341.43,-144.7"/>
</a>
</g>
</g>
<!-- Node26&#45;&gt;Node25 -->
<g id="edge46_Node000026_Node000025" class="edge">
<title>Node26&#45;&gt;Node25</title>
<g id="a_edge46_Node000026_Node000025"><a xlink:title=" ">
<path fill="none" stroke="#63b8ff" d="M1301.88,-238.57C1340.09,-221.36 1398.94,-188.09 1424.5,-138 1433.16,-121.02 1428.11,-99.15 1422.31,-83.74"/>
<polygon fill="#63b8ff" stroke="#63b8ff" points="1425.66,-82.65 1418.54,-74.8 1419.21,-85.38 1425.66,-82.65"/>
</a>
</g>
</g>
<!-- Node26&#45;&gt;Node27 -->
<g id="edge53_Node000026_Node000027" class="edge">
<title>Node26&#45;&gt;Node27</title>
<g id="a_edge53_Node000026_Node000027"><a xlink:title=" ">
<path fill="none" stroke="#63b8ff" d="M1209.51,-243.81C1134.38,-232.35 1002.33,-212.2 921.9,-199.93"/>
<polygon fill="#63b8ff" stroke="#63b8ff" points="922.81,-196.53 912.4,-198.48 921.76,-203.45 922.81,-196.53"/>
</a>
</g>
</g>
<!-- Node27&#45;&gt;Node3 -->
<g id="edge54_Node000027_Node000003" class="edge">
<title>Node27&#45;&gt;Node3</title>
<g id="a_edge54_Node000027_Node000003"><a xlink:title=" ">
<path fill="none" stroke="#63b8ff" d="M796.05,-184.99C730.95,-180.69 622.48,-169.11 534.5,-138 461.4,-112.15 388.16,-54.18 355.36,-26.1"/>
<polygon fill="#63b8ff" stroke="#63b8ff" points="357.85,-23.63 348,-19.71 353.25,-28.91 357.85,-23.63"/>
</a>
</g>
</g>
<!-- Node27&#45;&gt;Node5 -->
<g id="edge56_Node000027_Node000005" class="edge">
<title>Node27&#45;&gt;Node5</title>
<g id="a_edge56_Node000027_Node000005"><a xlink:title=" ">
<path fill="none" stroke="#63b8ff" d="M875.99,-173.52C889.37,-164.48 906.1,-151.84 918.5,-138 933.47,-121.28 946.12,-98.74 953.95,-83.1"/>
<polygon fill="#63b8ff" stroke="#63b8ff" points="956.92,-85 958.12,-74.47 950.62,-81.96 956.92,-85"/>
</a>
</g>
</g>
<!-- Node27&#45;&gt;Node9 -->
<g id="edge57_Node000027_Node000009" class="edge">
<title>Node27&#45;&gt;Node9</title>
<g id="a_edge57_Node000027_Node000009"><a xlink:title=" ">
<path fill="none" stroke="#63b8ff" d="M795.91,-185.25C725.05,-181.14 610.86,-169.65 584.5,-138 571.22,-122.05 582.6,-98.41 593.56,-82.33"/>
<polygon fill="#63b8ff" stroke="#63b8ff" points="596.1,-84.78 599.2,-74.65 590.46,-80.64 596.1,-84.78"/>
</a>
</g>
</g>
<!-- Node27&#45;&gt;Node11 -->
<g id="edge58_Node000027_Node000011" class="edge">
<title>Node27&#45;&gt;Node11</title>
<g id="a_edge58_Node000027_Node000011"><a xlink:title=" ">
<path fill="none" stroke="#63b8ff" d="M830.35,-173.62C816.89,-164.7 800.31,-152.16 788.5,-138 760.29,-104.18 740.02,-56.07 730.19,-29.59"/>
<polygon fill="#63b8ff" stroke="#63b8ff" points="733.5,-28.44 726.83,-20.2 726.91,-30.8 733.5,-28.44"/>
</a>
</g>
</g>
<!-- Node27&#45;&gt;Node12 -->
<g id="edge60_Node000027_Node000012" class="edge">
<title>Node27&#45;&gt;Node12</title>
<g id="a_edge60_Node000027_Node000012"><a xlink:title=" ">
<path fill="none" stroke="#63b8ff" d="M911.11,-183.17C1014.19,-175.27 1236.95,-157.53 1424.5,-138 1435.99,-136.8 1448.13,-135.43 1460,-134.04"/>
<polygon fill="#63b8ff" stroke="#63b8ff" points="1460.25,-137.53 1469.77,-132.87 1459.42,-130.58 1460.25,-137.53"/>
</a>
</g>
</g>
<!-- Node27&#45;&gt;Node16 -->
<g id="edge59_Node000027_Node000016" class="edge">
<title>Node27&#45;&gt;Node16</title>
<g id="a_edge59_Node000027_Node000016"><a xlink:title=" ">
<path fill="none" stroke="#63b8ff" d="M884.42,-173.68C902.36,-164.86 924.82,-152.41 942.5,-138 972.06,-113.92 980.13,-106.42 998.5,-73 1005.9,-59.53 1010.78,-42.82 1013.74,-30.03"/>
<polygon fill="#63b8ff" stroke="#63b8ff" points="1017.15,-30.8 1015.77,-20.29 1010.3,-29.37 1017.15,-30.8"/>
</a>
</g>
</g>
<!-- Node27&#45;&gt;Node17 -->
<g id="edge69_Node000027_Node000017" class="edge">
<title>Node27&#45;&gt;Node17</title>
<g id="a_edge69_Node000027_Node000017"><a xlink:title=" ">
<path fill="none" stroke="#63b8ff" d="M796.08,-187.17C737.33,-184.65 644.94,-174.49 574.5,-138 548.87,-124.72 526.43,-99.52 513.16,-82.42"/>
<polygon fill="#63b8ff" stroke="#63b8ff" points="516.15,-80.58 507.37,-74.66 510.55,-84.77 516.15,-80.58"/>
</a>
</g>
</g>
<!-- Node27&#45;&gt;Node19 -->
<g id="edge67_Node000027_Node000019" class="edge">
<title>Node27&#45;&gt;Node19</title>
<g id="a_edge67_Node000027_Node000019"><a xlink:title=" ">
<path fill="none" stroke="#63b8ff" d="M808,-173.52C777.48,-164.14 737.07,-151.72 704.56,-141.73"/>
<polygon fill="#63b8ff" stroke="#63b8ff" points="705.9,-138.48 695.32,-138.89 703.85,-145.17 705.9,-138.48"/>
</a>
</g>
</g>
<!-- Node27&#45;&gt;Node20 -->
<g id="edge55_Node000027_Node000020" class="edge">
<title>Node27&#45;&gt;Node20</title>
<g id="a_edge55_Node000027_Node000020"><a xlink:title=" ">
<path fill="none" stroke="#63b8ff" d="M821.07,-173.55C801.43,-164.52 776.26,-151.88 755.5,-138 729.81,-120.82 703.33,-96.81 686.89,-81.02"/>
<polygon fill="#63b8ff" stroke="#63b8ff" points="689.55,-78.73 679.95,-74.26 684.66,-83.74 689.55,-78.73"/>
</a>
</g>
</g>
<!-- Node27&#45;&gt;Node21 -->
<g id="edge68_Node000027_Node000021" class="edge">
<title>Node27&#45;&gt;Node21</title>
<g id="a_edge68_Node000027_Node000021"><a xlink:title=" ">
<path fill="none" stroke="#63b8ff" d="M903.43,-173.52C943.5,-162.3 999.08,-146.74 1036.79,-136.18"/>
<polygon fill="#63b8ff" stroke="#63b8ff" points="1037.26,-139.68 1045.95,-133.61 1035.38,-132.94 1037.26,-139.68"/>
</a>
</g>
</g>
<!-- Node28 -->
<g id="Node000028" class="node">
<title>Node28</title>
<g id="a_Node000028"><a xlink:href="cuda__utils_8h.html" target="_top" xlink:title="Utility functions for CUDA.">
<polygon fill="white" stroke="#666666" points="909.88,-138 797.12,-138 797.12,-109 909.88,-109 909.88,-138"/>
<text text-anchor="start" x="805.12" y="-124.5" font-family="Helvetica,sans-Serif" font-size="10.00">CoverageControl/cuda</text>
<text text-anchor="middle" x="853.5" y="-114" font-family="Helvetica,sans-Serif" font-size="10.00">_utils.h</text>
</a>
</g>
</g>
<!-- Node27&#45;&gt;Node28 -->
<g id="edge61_Node000027_Node000028" class="edge">
<title>Node27&#45;&gt;Node28</title>
<g id="a_edge61_Node000027_Node000028"><a xlink:title=" ">
<path fill="none" stroke="#63b8ff" d="M853.5,-173.52C853.5,-166.59 853.5,-157.99 853.5,-149.95"/>
<polygon fill="#63b8ff" stroke="#63b8ff" points="857,-149.96 853.5,-139.96 850,-149.96 857,-149.96"/>
</a>
</g>
</g>
<!-- Node28&#45;&gt;Node5 -->
<g id="edge62_Node000028_Node000005" class="edge">
<title>Node28&#45;&gt;Node5</title>
<g id="a_edge62_Node000028_Node000005"><a xlink:title=" ">
<path fill="none" stroke="#63b8ff" d="M879.89,-108.52C897,-99.45 919.21,-87.69 936.29,-78.64"/>
<polygon fill="#63b8ff" stroke="#63b8ff" points="937.63,-81.89 944.83,-74.11 934.35,-75.7 937.63,-81.89"/>
</a>
</g>
</g>
<!-- Node28&#45;&gt;Node9 -->
<g id="edge64_Node000028_Node000009" class="edge">
<title>Node28&#45;&gt;Node9</title>
<g id="a_edge64_Node000028_Node000009"><a xlink:title=" ">
<path fill="none" stroke="#63b8ff" d="M796.95,-110.24C755.84,-101.17 698.6,-88.21 638.96,-73.27"/>
<polygon fill="#63b8ff" stroke="#63b8ff" points="639.82,-69.88 629.27,-70.83 638.11,-76.67 639.82,-69.88"/>
</a>
</g>
</g>
<!-- Node28&#45;&gt;Node11 -->
<g id="edge65_Node000028_Node000011" class="edge">
<title>Node28&#45;&gt;Node11</title>
<g id="a_edge65_Node000028_Node000011"><a xlink:title=" ">
<path fill="none" stroke="#63b8ff" d="M837.3,-108.51C813.05,-87.57 767.45,-48.2 741.95,-26.18"/>
<polygon fill="#63b8ff" stroke="#63b8ff" points="744.55,-23.8 734.69,-19.91 739.97,-29.1 744.55,-23.8"/>
</a>
</g>
</g>
<!-- Node28&#45;&gt;Node16 -->
<g id="edge66_Node000028_Node000016" class="edge">
<title>Node28&#45;&gt;Node16</title>
<g id="a_edge66_Node000028_Node000016"><a xlink:title=" ">
<path fill="none" stroke="#63b8ff" d="M865.93,-108.69C879.71,-93.96 903.08,-70.57 926.5,-54.5 944.61,-42.07 966.75,-31.23 984.65,-23.39"/>
<polygon fill="#63b8ff" stroke="#63b8ff" points="985.95,-26.63 993.78,-19.5 983.21,-20.19 985.95,-26.63"/>
</a>
</g>
</g>
<!-- Node29 -->
<g id="Node000029" class="node">
<title>Node29</title>
<g id="a_Node000029"><a xlink:title=" ">
<polygon fill="#e0e0e0" stroke="#999999" points="879.12,-73 827.88,-73 827.88,-54.5 879.12,-54.5 879.12,-73"/>
<text text-anchor="middle" x="853.5" y="-59.5" font-family="Helvetica,sans-Serif" font-size="10.00">sstream</text>
</a>
</g>
</g>
<!-- Node28&#45;&gt;Node29 -->
<g id="edge63_Node000028_Node000029" class="edge">
<title>Node28&#45;&gt;Node29</title>
<g id="a_edge63_Node000028_Node000029"><a xlink:title=" ">
<path fill="none" stroke="#63b8ff" d="M853.5,-108.52C853.5,-101.42 853.5,-92.67 853.5,-84.86"/>
<polygon fill="#63b8ff" stroke="#63b8ff" points="857,-84.92 853.5,-74.92 850,-84.92 857,-84.92"/>
</a>
</g>
</g>
</g>
</svg>
