<?xml version="1.0" encoding="UTF-8" standalone="no"?>
<!DOCTYPE svg PUBLIC "-//W3C//DTD SVG 1.1//EN"
 "http://www.w3.org/Graphics/SVG/1.1/DTD/svg11.dtd">
<!-- Generated by graphviz version 10.0.1 (0)
 -->
<!-- Title: coverage_system.h Pages: 1 -->
<svg width="1046pt" height="255pt"
 viewBox="0.00 0.00 1046.03 255.00" xmlns="http://www.w3.org/2000/svg" xmlns:xlink="http://www.w3.org/1999/xlink">
<g id="graph0" class="graph" transform="scale(1 1) rotate(0) translate(4 251)">
<title>coverage_system.h</title>
<!-- Node1 -->
<g id="Node000001" class="node">
<title>Node1</title>
<g id="a_Node000001"><a xlink:title="The file contains the CoverageSystem class, which is the main class for the coverage control library.">
<polygon fill="#999999" stroke="#666666" points="492.78,-247 393.53,-247 393.53,-228.5 492.78,-228.5 492.78,-247"/>
<text text-anchor="middle" x="443.15" y="-233.5" font-family="Helvetica,sans-Serif" font-size="10.00">coverage_system.h</text>
</a>
</g>
</g>
<!-- Node2 -->
<g id="Node000002" class="node">
<title>Node2</title>
<g id="a_Node000002"><a xlink:href="abstract__controller_8h.html" target="_top" xlink:title="Contains the abstract class for coverage control algorithms.">
<polygon fill="white" stroke="#666666" points="535.4,-192.5 430.9,-192.5 430.9,-174 535.4,-174 535.4,-192.5"/>
<text text-anchor="middle" x="483.15" y="-179" font-family="Helvetica,sans-Serif" font-size="10.00">abstract_controller.h</text>
</a>
</g>
</g>
<!-- Node1&#45;&gt;Node2 -->
<g id="edge1_Node000001_Node000002" class="edge">
<title>Node1&#45;&gt;Node2</title>
<g id="a_edge1_Node000001_Node000002"><a xlink:title=" ">
<path fill="none" stroke="#63b8ff" d="M456.72,-218.95C463.46,-210.1 471.29,-199.82 476.67,-192.76"/>
<polygon fill="#63b8ff" stroke="#63b8ff" points="453.95,-216.8 450.68,-226.88 459.52,-221.04 453.95,-216.8"/>
</a>
</g>
</g>
<!-- Node3 -->
<g id="Node000003" class="node">
<title>Node3</title>
<g id="a_Node000003"><a xlink:href="centralized__cvt_8h.html" target="_top" xlink:title="Contains the class CentralizedCVT.">
<polygon fill="white" stroke="#666666" points="638.53,-132.75 549.78,-132.75 549.78,-114.25 638.53,-114.25 638.53,-132.75"/>
<text text-anchor="middle" x="594.15" y="-119.25" font-family="Helvetica,sans-Serif" font-size="10.00">centralized_cvt.h</text>
</a>
</g>
</g>
<!-- Node1&#45;&gt;Node3 -->
<g id="edge18_Node000001_Node000003" class="edge">
<title>Node1&#45;&gt;Node3</title>
<g id="a_edge18_Node000001_Node000003"><a xlink:title=" ">
<path fill="none" stroke="#63b8ff" d="M484.39,-224.26C503.84,-217.04 526.58,-206.56 544.15,-192.5 565.44,-175.47 582.19,-147.29 589.76,-133.15"/>
<polygon fill="#63b8ff" stroke="#63b8ff" points="483.38,-220.91 475.11,-227.54 485.71,-227.51 483.38,-220.91"/>
</a>
</g>
</g>
<!-- Node4 -->
<g id="Node000004" class="node">
<title>Node4</title>
<g id="a_Node000004"><a xlink:href="core__binds_8h.html" target="_top" xlink:title="Provides python bindings for the core CoverageControl library using pybind11.">
<polygon fill="white" stroke="#666666" points="508.9,-73 437.4,-73 437.4,-54.5 508.9,-54.5 508.9,-73"/>
<text text-anchor="middle" x="473.15" y="-59.5" font-family="Helvetica,sans-Serif" font-size="10.00">core_binds.h</text>
</a>
</g>
</g>
<!-- Node1&#45;&gt;Node4 -->
<g id="edge20_Node000001_Node000004" class="edge">
<title>Node1&#45;&gt;Node4</title>
<g id="a_edge20_Node000001_Node000004"><a xlink:title=" ">
<path fill="none" stroke="#63b8ff" d="M504.16,-232.18C613.24,-222.6 834.7,-196.29 881.15,-138 889.19,-127.92 889.76,-118.59 881.15,-109 856.5,-81.53 604.36,-69.53 509.22,-65.96"/>
<polygon fill="#63b8ff" stroke="#63b8ff" points="504.18,-228.66 494.52,-233 504.78,-235.64 504.18,-228.66"/>
</a>
</g>
</g>
<!-- Node5 -->
<g id="Node000005" class="node">
<title>Node5</title>
<g id="a_Node000005"><a xlink:href="python__binds_8cpp.html" target="_top" xlink:title="Python bindings for the CoverageControl library using pybind11 (core_binds.h)">
<polygon fill="white" stroke="#666666" points="272.4,-18.5 179.9,-18.5 179.9,0 272.4,0 272.4,-18.5"/>
<text text-anchor="middle" x="226.15" y="-5" font-family="Helvetica,sans-Serif" font-size="10.00">python_binds.cpp</text>
</a>
</g>
</g>
<!-- Node1&#45;&gt;Node5 -->
<g id="edge27_Node000001_Node000005" class="edge">
<title>Node1&#45;&gt;Node5</title>
<g id="a_edge27_Node000001_Node000005"><a xlink:title=" ">
<path fill="none" stroke="#63b8ff" d="M382.1,-233.4C295.46,-227.91 141.74,-215.28 91.15,-192.5 57.7,-177.44 48.64,-169.09 29.15,-138 8.99,-105.83 -12.83,-83.93 11.15,-54.5 31.98,-28.95 122.85,-17.72 179.58,-13.13"/>
<polygon fill="#63b8ff" stroke="#63b8ff" points="381.64,-236.88 391.84,-234 382.07,-229.89 381.64,-236.88"/>
</a>
</g>
</g>
<!-- Node6 -->
<g id="Node000006" class="node">
<title>Node6</title>
<g id="a_Node000006"><a xlink:href="clairvoyant__cvt_8h.html" target="_top" xlink:title="Clairvoyant CVT algorithm.">
<polygon fill="white" stroke="#666666" points="134.53,-132.75 45.78,-132.75 45.78,-114.25 134.53,-114.25 134.53,-132.75"/>
<text text-anchor="middle" x="90.15" y="-119.25" font-family="Helvetica,sans-Serif" font-size="10.00">clairvoyant_cvt.h</text>
</a>
</g>
</g>
<!-- Node1&#45;&gt;Node6 -->
<g id="edge19_Node000001_Node000006" class="edge">
<title>Node1&#45;&gt;Node6</title>
<g id="a_edge19_Node000001_Node000006"><a xlink:title=" ">
<path fill="none" stroke="#63b8ff" d="M404.95,-224.6C333.13,-201.76 179.63,-152.95 117.3,-133.13"/>
<polygon fill="#63b8ff" stroke="#63b8ff" points="403.72,-227.88 414.31,-227.58 405.84,-221.21 403.72,-227.88"/>
</a>
</g>
</g>
<!-- Node7 -->
<g id="Node000007" class="node">
<title>Node7</title>
<g id="a_Node000007"><a xlink:href="coverage__algorithm_8cpp.html" target="_top" xlink:title="Program to test the CVT&#45;based (Lloyd&#39;s) coverage control algorithms.">
<polygon fill="white" stroke="#666666" points="138.53,-73 19.78,-73 19.78,-54.5 138.53,-54.5 138.53,-73"/>
<text text-anchor="middle" x="79.15" y="-59.5" font-family="Helvetica,sans-Serif" font-size="10.00">coverage_algorithm.cpp</text>
</a>
</g>
</g>
<!-- Node1&#45;&gt;Node7 -->
<g id="edge21_Node000001_Node000007" class="edge">
<title>Node1&#45;&gt;Node7</title>
<g id="a_edge21_Node000001_Node000007"><a xlink:title=" ">
<path fill="none" stroke="#63b8ff" d="M381.7,-230.98C278.88,-219.92 79.08,-191.89 37.15,-138 20.41,-116.48 50.17,-87.56 67.7,-73.36"/>
<polygon fill="#63b8ff" stroke="#63b8ff" points="381.33,-234.46 391.64,-232.03 382.06,-227.5 381.33,-234.46"/>
</a>
</g>
</g>
<!-- Node8 -->
<g id="Node000008" class="node">
<title>Node8</title>
<g id="a_Node000008"><a xlink:href="decentralized__cvt_8h.html" target="_top" xlink:title="Contains the DecentralizedCVT class.">
<polygon fill="white" stroke="#666666" points="755.78,-132.75 656.53,-132.75 656.53,-114.25 755.78,-114.25 755.78,-132.75"/>
<text text-anchor="middle" x="706.15" y="-119.25" font-family="Helvetica,sans-Serif" font-size="10.00">decentralized_cvt.h</text>
</a>
</g>
</g>
<!-- Node1&#45;&gt;Node8 -->
<g id="edge23_Node000001_Node000008" class="edge">
<title>Node1&#45;&gt;Node8</title>
<g id="a_edge23_Node000001_Node000008"><a xlink:title=" ">
<path fill="none" stroke="#63b8ff" d="M480.54,-224.46C505.12,-216.1 537.86,-204.42 566.15,-192.5 611.97,-173.2 664.25,-146.51 690.03,-133.03"/>
<polygon fill="#63b8ff" stroke="#63b8ff" points="479.65,-221.07 471.3,-227.58 481.89,-227.7 479.65,-221.07"/>
</a>
</g>
</g>
<!-- Node9 -->
<g id="Node000009" class="node">
<title>Node9</title>
<g id="a_Node000009"><a xlink:href="near__optimal__cvt_8h.html" target="_top" xlink:title="NearOptimalCVT class Global offline oracle: has complete information about the environment....">
<polygon fill="white" stroke="#666666" points="872.03,-132.75 774.28,-132.75 774.28,-114.25 872.03,-114.25 872.03,-132.75"/>
<text text-anchor="middle" x="823.15" y="-119.25" font-family="Helvetica,sans-Serif" font-size="10.00">near_optimal_cvt.h</text>
</a>
</g>
</g>
<!-- Node1&#45;&gt;Node9 -->
<g id="edge24_Node000001_Node000009" class="edge">
<title>Node1&#45;&gt;Node9</title>
<g id="a_edge24_Node000001_Node000009"><a xlink:title=" ">
<path fill="none" stroke="#63b8ff" d="M485.55,-224.95C516.96,-216.15 560.78,-203.77 599.15,-192.5 669.93,-171.72 752.94,-146.23 795.27,-133.15"/>
<polygon fill="#63b8ff" stroke="#63b8ff" points="484.72,-221.55 476.03,-227.61 486.61,-228.29 484.72,-221.55"/>
</a>
</g>
</g>
<!-- Node10 -->
<g id="Node000010" class="node">
<title>Node10</title>
<g id="a_Node000010"><a xlink:href="oracle__bang__explore__exploit_8h.html" target="_top" xlink:title="First trial of oracle with exploration and exploitation. The oracle uses complete information about t...">
<polygon fill="white" stroke="#666666" points="257.78,-138 152.53,-138 152.53,-109 257.78,-109 257.78,-138"/>
<text text-anchor="start" x="160.53" y="-124.5" font-family="Helvetica,sans-Serif" font-size="10.00">oracle_bang_explore</text>
<text text-anchor="middle" x="205.15" y="-114" font-family="Helvetica,sans-Serif" font-size="10.00">_exploit.h</text>
</a>
</g>
</g>
<!-- Node1&#45;&gt;Node10 -->
<g id="edge25_Node000001_Node000010" class="edge">
<title>Node1&#45;&gt;Node10</title>
<g id="a_edge25_Node000001_Node000010"><a xlink:title=" ">
<path fill="none" stroke="#63b8ff" d="M414.55,-223.26C369.1,-201.83 280.84,-160.19 234.76,-138.46"/>
<polygon fill="#63b8ff" stroke="#63b8ff" points="412.97,-226.38 423.51,-227.48 415.95,-220.05 412.97,-226.38"/>
</a>
</g>
</g>
<!-- Node11 -->
<g id="Node000011" class="node">
<title>Node11</title>
<g id="a_Node000011"><a xlink:href="oracle__explore__exploit_8h.html" target="_top" xlink:title="Old trial of exploration and exploitation Uses system map for exploration as well.">
<polygon fill="white" stroke="#666666" points="396.28,-132.75 276.03,-132.75 276.03,-114.25 396.28,-114.25 396.28,-132.75"/>
<text text-anchor="middle" x="336.15" y="-119.25" font-family="Helvetica,sans-Serif" font-size="10.00">oracle_explore_exploit.h</text>
</a>
</g>
</g>
<!-- Node1&#45;&gt;Node11 -->
<g id="edge26_Node000001_Node000011" class="edge">
<title>Node1&#45;&gt;Node11</title>
<g id="a_edge26_Node000001_Node000011"><a xlink:title=" ">
<path fill="none" stroke="#63b8ff" d="M427.26,-220.08C404.11,-195.79 361.96,-151.57 344.29,-133.03"/>
<polygon fill="#63b8ff" stroke="#63b8ff" points="424.63,-222.39 434.07,-227.22 429.7,-217.56 424.63,-222.39"/>
</a>
</g>
</g>
<!-- Node12 -->
<g id="Node000012" class="node">
<title>Node12</title>
<g id="a_Node000012"><a xlink:href="simul__explore__exploit_8h.html" target="_top" xlink:title="Simultaneous exploration and exploitation algorithm Uses frontier&#45;based exploration with bias towards...">
<polygon fill="white" stroke="#666666" points="531.78,-132.75 414.53,-132.75 414.53,-114.25 531.78,-114.25 531.78,-132.75"/>
<text text-anchor="middle" x="473.15" y="-119.25" font-family="Helvetica,sans-Serif" font-size="10.00">simul_explore_exploit.h</text>
</a>
</g>
</g>
<!-- Node1&#45;&gt;Node12 -->
<g id="edge28_Node000001_Node000012" class="edge">
<title>Node1&#45;&gt;Node12</title>
<g id="a_edge28_Node000001_Node000012"><a xlink:title=" ">
<path fill="none" stroke="#63b8ff" d="M430.12,-218.64C422.67,-205.96 415.93,-188.71 422.15,-174 429.65,-156.27 446.95,-141.77 459.32,-133.14"/>
<polygon fill="#63b8ff" stroke="#63b8ff" points="427.05,-220.34 435.45,-226.8 432.91,-216.52 427.05,-220.34"/>
</a>
</g>
</g>
<!-- Node13 -->
<g id="Node000013" class="node">
<title>Node13</title>
<g id="a_Node000013"><a xlink:href="coverage__system_8cpp.html" target="_top" xlink:title="Contains the implementation of the CoverageSystem class.">
<polygon fill="white" stroke="#666666" points="1038.03,-192.5 928.28,-192.5 928.28,-174 1038.03,-174 1038.03,-192.5"/>
<text text-anchor="middle" x="983.15" y="-179" font-family="Helvetica,sans-Serif" font-size="10.00">coverage_system.cpp</text>
</a>
</g>
</g>
<!-- Node1&#45;&gt;Node13 -->
<g id="edge22_Node000001_Node000013" class="edge">
<title>Node1&#45;&gt;Node13</title>
<g id="a_edge22_Node000001_Node000013"><a xlink:title=" ">
<path fill="none" stroke="#63b8ff" d="M504.37,-231.5C594.28,-223.67 767.26,-208.18 914.15,-192.5 918.59,-192.03 923.19,-191.52 927.81,-190.99"/>
<polygon fill="#63b8ff" stroke="#63b8ff" points="504.21,-228 494.55,-232.35 504.81,-234.97 504.21,-228"/>
</a>
</g>
</g>
<!-- Node2&#45;&gt;Node3 -->
<g id="edge2_Node000002_Node000003" class="edge">
<title>Node2&#45;&gt;Node3</title>
<g id="a_edge2_Node000002_Node000003"><a xlink:title=" ">
<path fill="none" stroke="#63b8ff" d="M509.72,-168.43C530.72,-157.5 559.4,-142.58 577.34,-133.25"/>
<polygon fill="#63b8ff" stroke="#63b8ff" points="508.13,-165.31 500.88,-173.03 511.36,-171.52 508.13,-165.31"/>
</a>
</g>
</g>
<!-- Node2&#45;&gt;Node6 -->
<g id="edge5_Node000002_Node000006" class="edge">
<title>Node2&#45;&gt;Node6</title>
<g id="a_edge5_Node000002_Node000006"><a xlink:title=" ">
<path fill="none" stroke="#63b8ff" d="M419.38,-176.26C350.78,-169.28 238.68,-156.31 143.15,-138 136.16,-136.66 128.72,-134.95 121.68,-133.19"/>
<polygon fill="#63b8ff" stroke="#63b8ff" points="418.62,-179.7 428.92,-177.22 419.32,-172.73 418.62,-179.7"/>
</a>
</g>
</g>
<!-- Node2&#45;&gt;Node8 -->
<g id="edge8_Node000002_Node000008" class="edge">
<title>Node2&#45;&gt;Node8</title>
<g id="a_edge8_Node000002_Node000008"><a xlink:title=" ">
<path fill="none" stroke="#63b8ff" d="M527.45,-170.78C570.16,-159.72 633.85,-143.22 672.54,-133.2"/>
<polygon fill="#63b8ff" stroke="#63b8ff" points="526.81,-167.33 518,-173.22 528.56,-174.11 526.81,-167.33"/>
</a>
</g>
</g>
<!-- Node2&#45;&gt;Node9 -->
<g id="edge10_Node000002_Node000009" class="edge">
<title>Node2&#45;&gt;Node9</title>
<g id="a_edge10_Node000002_Node000009"><a xlink:title=" ">
<path fill="none" stroke="#63b8ff" d="M546.91,-173.6C604.22,-165.51 690.59,-152.51 765.15,-138 772.46,-136.58 780.25,-134.89 787.66,-133.19"/>
<polygon fill="#63b8ff" stroke="#63b8ff" points="546.76,-170.09 537.35,-174.94 547.74,-177.02 546.76,-170.09"/>
</a>
</g>
</g>
<!-- Node2&#45;&gt;Node10 -->
<g id="edge12_Node000002_Node000010" class="edge">
<title>Node2&#45;&gt;Node10</title>
<g id="a_edge12_Node000002_Node000010"><a xlink:title=" ">
<path fill="none" stroke="#63b8ff" d="M428.45,-171.24C384.76,-162.39 321.99,-149.59 267.15,-138 264.24,-137.39 261.26,-136.75 258.24,-136.11"/>
<polygon fill="#63b8ff" stroke="#63b8ff" points="427.7,-174.66 438.2,-173.21 429.09,-167.8 427.7,-174.66"/>
</a>
</g>
</g>
<!-- Node2&#45;&gt;Node11 -->
<g id="edge14_Node000002_Node000011" class="edge">
<title>Node2&#45;&gt;Node11</title>
<g id="a_edge14_Node000002_Node000011"><a xlink:title=" ">
<path fill="none" stroke="#63b8ff" d="M450.66,-169.48C422.61,-158.46 382.84,-142.84 358.31,-133.2"/>
<polygon fill="#63b8ff" stroke="#63b8ff" points="449.15,-172.65 459.74,-173.05 451.71,-166.14 449.15,-172.65"/>
</a>
</g>
</g>
<!-- Node2&#45;&gt;Node12 -->
<g id="edge16_Node000002_Node000012" class="edge">
<title>Node2&#45;&gt;Node12</title>
<g id="a_edge16_Node000002_Node000012"><a xlink:title=" ">
<path fill="none" stroke="#63b8ff" d="M479.76,-162.66C478.02,-152.59 475.98,-140.83 474.64,-133.06"/>
<polygon fill="#63b8ff" stroke="#63b8ff" points="476.27,-162.98 481.42,-172.24 483.16,-161.79 476.27,-162.98"/>
</a>
</g>
</g>
<!-- Node3&#45;&gt;Node4 -->
<g id="edge3_Node000003_Node000004" class="edge">
<title>Node3&#45;&gt;Node4</title>
<g id="a_edge3_Node000003_Node000004"><a xlink:title=" ">
<path fill="none" stroke="#63b8ff" d="M565.86,-109C542.87,-98.03 511.14,-82.88 491.39,-73.45"/>
<polygon fill="#63b8ff" stroke="#63b8ff" points="564.14,-112.05 574.67,-113.2 567.16,-105.74 564.14,-112.05"/>
</a>
</g>
</g>
<!-- Node4&#45;&gt;Node5 -->
<g id="edge4_Node000004_Node000005" class="edge">
<title>Node4&#45;&gt;Node5</title>
<g id="a_edge4_Node000004_Node000005"><a xlink:title=" ">
<path fill="none" stroke="#63b8ff" d="M425.8,-52.69C379.78,-42.9 310.61,-28.2 266.96,-18.92"/>
<polygon fill="#63b8ff" stroke="#63b8ff" points="424.98,-56.09 435.49,-54.75 426.44,-49.24 424.98,-56.09"/>
</a>
</g>
</g>
<!-- Node6&#45;&gt;Node4 -->
<g id="edge6_Node000006_Node000004" class="edge">
<title>Node6&#45;&gt;Node4</title>
<g id="a_edge6_Node000006_Node000004"><a xlink:title=" ">
<path fill="none" stroke="#63b8ff" d="M132.91,-111.16C136.37,-110.38 139.81,-109.65 143.15,-109 249.28,-88.44 376.44,-74.31 437.29,-68.18"/>
<polygon fill="#63b8ff" stroke="#63b8ff" points="132.36,-107.69 123.44,-113.41 133.98,-114.5 132.36,-107.69"/>
</a>
</g>
</g>
<!-- Node6&#45;&gt;Node7 -->
<g id="edge7_Node000006_Node000007" class="edge">
<title>Node6&#45;&gt;Node7</title>
<g id="a_edge7_Node000006_Node000007"><a xlink:title=" ">
<path fill="none" stroke="#63b8ff" d="M86.42,-102.91C84.5,-92.84 82.26,-81.08 80.78,-73.31"/>
<polygon fill="#63b8ff" stroke="#63b8ff" points="82.94,-103.32 88.25,-112.49 89.82,-102.01 82.94,-103.32"/>
</a>
</g>
</g>
<!-- Node8&#45;&gt;Node4 -->
<g id="edge9_Node000008_Node000004" class="edge">
<title>Node8&#45;&gt;Node4</title>
<g id="a_edge9_Node000008_Node000004"><a xlink:title=" ">
<path fill="none" stroke="#63b8ff" d="M659.89,-111.03C615.24,-99.97 548.62,-83.45 508.19,-73.43"/>
<polygon fill="#63b8ff" stroke="#63b8ff" points="659,-114.42 669.55,-113.43 660.69,-107.62 659,-114.42"/>
</a>
</g>
</g>
<!-- Node9&#45;&gt;Node4 -->
<g id="edge11_Node000009_Node000004" class="edge">
<title>Node9&#45;&gt;Node4</title>
<g id="a_edge11_Node000009_Node000004"><a xlink:title=" ">
<path fill="none" stroke="#63b8ff" d="M776.73,-111.36C772.82,-110.52 768.92,-109.72 765.15,-109 673.51,-91.42 564.59,-76.47 509.27,-69.3"/>
<polygon fill="#63b8ff" stroke="#63b8ff" points="775.67,-114.71 786.19,-113.45 777.18,-107.87 775.67,-114.71"/>
</a>
</g>
</g>
<!-- Node10&#45;&gt;Node4 -->
<g id="edge13_Node000010_Node000004" class="edge">
<title>Node10&#45;&gt;Node4</title>
<g id="a_edge13_Node000010_Node000004"><a xlink:title=" ">
<path fill="none" stroke="#63b8ff" d="M269.48,-108.5C334.17,-94.52 398.17,-80.8 437.05,-72.47"/>
<polygon fill="#63b8ff" stroke="#63b8ff" points="268.77,-105.07 259.73,-110.61 270.25,-111.92 268.77,-105.07"/>
</a>
</g>
</g>
<!-- Node11&#45;&gt;Node4 -->
<g id="edge15_Node000011_Node000004" class="edge">
<title>Node11&#45;&gt;Node4</title>
<g id="a_edge15_Node000011_Node000004"><a xlink:title=" ">
<path fill="none" stroke="#63b8ff" d="M367.14,-109.44C393.24,-98.44 429.85,-83.01 452.5,-73.45"/>
<polygon fill="#63b8ff" stroke="#63b8ff" points="365.91,-106.16 358.06,-113.27 368.63,-112.61 365.91,-106.16"/>
</a>
</g>
</g>
<!-- Node12&#45;&gt;Node4 -->
<g id="edge17_Node000012_Node000004" class="edge">
<title>Node12&#45;&gt;Node4</title>
<g id="a_edge17_Node000012_Node000004"><a xlink:title=" ">
<path fill="none" stroke="#63b8ff" d="M473.15,-102.58C473.15,-92.58 473.15,-81 473.15,-73.31"/>
<polygon fill="#63b8ff" stroke="#63b8ff" points="469.65,-102.47 473.15,-112.47 476.65,-102.47 469.65,-102.47"/>
</a>
</g>
</g>
</g>
</svg>
