<?xml version="1.0" encoding="UTF-8" standalone="no"?>
<!DOCTYPE svg PUBLIC "-//W3C//DTD SVG 1.1//EN"
 "http://www.w3.org/Graphics/SVG/1.1/DTD/svg11.dtd">
<!-- Generated by graphviz version 10.0.1 (0)
 -->
<!-- Title: cuda_utils.h Pages: 1 -->
<svg width="880pt" height="364pt"
 viewBox="0.00 0.00 880.25 364.00" xmlns="http://www.w3.org/2000/svg" xmlns:xlink="http://www.w3.org/1999/xlink">
<g id="graph0" class="graph" transform="scale(1 1) rotate(0) translate(4 360)">
<title>cuda_utils.h</title>
<!-- Node1 -->
<g id="Node000001" class="node">
<title>Node1</title>
<g id="a_Node000001"><a xlink:title="Utility functions for CUDA.">
<polygon fill="#999999" stroke="#666666" points="331.98,-356 263.48,-356 263.48,-337.5 331.98,-337.5 331.98,-356"/>
<text text-anchor="middle" x="297.73" y="-342.5" font-family="Helvetica,sans-Serif" font-size="10.00">cuda_utils.h</text>
</a>
</g>
</g>
<!-- Node2 -->
<g id="Node000002" class="node">
<title>Node2</title>
<g id="a_Node000002"><a xlink:href="cuda__utils_8cpp.html" target="_top" xlink:title=" ">
<polygon fill="white" stroke="#666666" points="243.23,-301.5 164.23,-301.5 164.23,-283 243.23,-283 243.23,-301.5"/>
<text text-anchor="middle" x="203.73" y="-288" font-family="Helvetica,sans-Serif" font-size="10.00">cuda_utils.cpp</text>
</a>
</g>
</g>
<!-- Node1&#45;&gt;Node2 -->
<g id="edge1_Node000001_Node000002" class="edge">
<title>Node1&#45;&gt;Node2</title>
<g id="a_edge1_Node000001_Node000002"><a xlink:title=" ">
<path fill="none" stroke="#63b8ff" d="M272.39,-331.6C255.45,-322.14 233.71,-309.99 219.28,-301.93"/>
<polygon fill="#63b8ff" stroke="#63b8ff" points="270.45,-334.52 280.89,-336.34 273.86,-328.41 270.45,-334.52"/>
</a>
</g>
</g>
<!-- Node3 -->
<g id="Node000003" class="node">
<title>Node3</title>
<g id="a_Node000003"><a xlink:href="cuda__utils_8cu.html" target="_top" xlink:title="Functions for CUDA utilities based on NVIDIA&#39;s CUDA Helper Library See: extern/cuda_helpers/helper_cu...">
<polygon fill="white" stroke="#666666" points="334.61,-301.5 260.86,-301.5 260.86,-283 334.61,-283 334.61,-301.5"/>
<text text-anchor="middle" x="297.73" y="-288" font-family="Helvetica,sans-Serif" font-size="10.00">cuda_utils.cu</text>
</a>
</g>
</g>
<!-- Node1&#45;&gt;Node3 -->
<g id="edge2_Node000001_Node000003" class="edge">
<title>Node1&#45;&gt;Node3</title>
<g id="a_edge2_Node000001_Node000003"><a xlink:title=" ">
<path fill="none" stroke="#63b8ff" d="M297.73,-325.64C297.73,-317.36 297.73,-308.21 297.73,-301.76"/>
<polygon fill="#63b8ff" stroke="#63b8ff" points="294.23,-325.57 297.73,-335.57 301.23,-325.57 294.23,-325.57"/>
</a>
</g>
</g>
<!-- Node4 -->
<g id="Node000004" class="node">
<title>Node4</title>
<g id="a_Node000004"><a xlink:href="world__idf_8h.html" target="_top" xlink:title="Contains the class for Importance Density Function (IDF) for the world.">
<polygon fill="white" stroke="#666666" points="414.61,-301.5 352.86,-301.5 352.86,-283 414.61,-283 414.61,-301.5"/>
<text text-anchor="middle" x="383.73" y="-288" font-family="Helvetica,sans-Serif" font-size="10.00">world_idf.h</text>
</a>
</g>
</g>
<!-- Node1&#45;&gt;Node4 -->
<g id="edge3_Node000001_Node000004" class="edge">
<title>Node1&#45;&gt;Node4</title>
<g id="a_edge3_Node000001_Node000004"><a xlink:title=" ">
<path fill="none" stroke="#63b8ff" d="M321.35,-331.33C336.79,-321.91 356.43,-309.92 369.51,-301.93"/>
<polygon fill="#63b8ff" stroke="#63b8ff" points="319.94,-328.09 313.22,-336.29 323.58,-334.07 319.94,-328.09"/>
</a>
</g>
</g>
<!-- Node5 -->
<g id="Node000005" class="node">
<title>Node5</title>
<g id="a_Node000005"><a xlink:href="coverage__algorithm_8cpp.html" target="_top" xlink:title="Program to test the CVT&#45;based (Lloyd&#39;s) coverage control algorithms.">
<polygon fill="white" stroke="#666666" points="765.11,-18.5 646.36,-18.5 646.36,0 765.11,0 765.11,-18.5"/>
<text text-anchor="middle" x="705.73" y="-5" font-family="Helvetica,sans-Serif" font-size="10.00">coverage_algorithm.cpp</text>
</a>
</g>
</g>
<!-- Node4&#45;&gt;Node5 -->
<g id="edge4_Node000004_Node000005" class="edge">
<title>Node4&#45;&gt;Node5</title>
<g id="a_edge4_Node000004_Node000005"><a xlink:title=" ">
<path fill="none" stroke="#63b8ff" d="M341.34,-281.63C241.85,-258.75 1.73,-201.72 1.73,-184.25 1.73,-184.25 1.73,-184.25 1.73,-127.75 1.73,-94.12 -5.19,-75.93 20.73,-54.5 68.35,-15.14 488.31,-10.51 646.13,-10.17"/>
<polygon fill="#63b8ff" stroke="#63b8ff" points="340.47,-285.02 350.99,-283.84 342.03,-278.19 340.47,-285.02"/>
</a>
</g>
</g>
<!-- Node6 -->
<g id="Node000006" class="node">
<title>Node6</title>
<g id="a_Node000006"><a xlink:href="coverage__system_8h.html" target="_top" xlink:title="The file contains the CoverageSystem class, which is the main class for the coverage control library.">
<polygon fill="white" stroke="#666666" points="500.36,-192.5 401.11,-192.5 401.11,-174 500.36,-174 500.36,-192.5"/>
<text text-anchor="middle" x="450.73" y="-179" font-family="Helvetica,sans-Serif" font-size="10.00">coverage_system.h</text>
</a>
</g>
</g>
<!-- Node4&#45;&gt;Node6 -->
<g id="edge5_Node000004_Node000006" class="edge">
<title>Node4&#45;&gt;Node6</title>
<g id="a_edge5_Node000004_Node000006"><a xlink:title=" ">
<path fill="none" stroke="#63b8ff" d="M405.32,-275.61C414.6,-267.92 424.87,-257.95 431.73,-247 442.61,-229.64 447.59,-205.67 449.58,-192.97"/>
<polygon fill="#63b8ff" stroke="#63b8ff" points="403.43,-272.64 397.72,-281.57 407.75,-278.15 403.43,-272.64"/>
</a>
</g>
</g>
<!-- Node16 -->
<g id="Node000016" class="node">
<title>Node16</title>
<g id="a_Node000016"><a xlink:href="robot__model_8h.html" target="_top" xlink:title="Class for handling the robot model.">
<polygon fill="white" stroke="#666666" points="422.48,-247 344.98,-247 344.98,-228.5 422.48,-228.5 422.48,-247"/>
<text text-anchor="middle" x="383.73" y="-233.5" font-family="Helvetica,sans-Serif" font-size="10.00">robot_model.h</text>
</a>
</g>
</g>
<!-- Node4&#45;&gt;Node16 -->
<g id="edge24_Node000004_Node000016" class="edge">
<title>Node4&#45;&gt;Node16</title>
<g id="a_edge24_Node000004_Node000016"><a xlink:title=" ">
<path fill="none" stroke="#63b8ff" d="M383.73,-271.14C383.73,-262.86 383.73,-253.71 383.73,-247.26"/>
<polygon fill="#63b8ff" stroke="#63b8ff" points="380.23,-271.07 383.73,-281.07 387.23,-271.07 380.23,-271.07"/>
</a>
</g>
</g>
<!-- Node6&#45;&gt;Node5 -->
<g id="edge17_Node000006_Node000005" class="edge">
<title>Node6&#45;&gt;Node5</title>
<g id="a_edge17_Node000006_Node000005"><a xlink:title=" ">
<path fill="none" stroke="#63b8ff" d="M512.03,-177.53C617.67,-167.9 826.53,-141.76 865.73,-83.5 893.4,-42.37 821.73,-23.95 765.52,-15.98"/>
<polygon fill="#63b8ff" stroke="#63b8ff" points="511.75,-174.04 502.1,-178.41 512.37,-181.01 511.75,-174.04"/>
</a>
</g>
</g>
<!-- Node7 -->
<g id="Node000007" class="node">
<title>Node7</title>
<g id="a_Node000007"><a xlink:href="abstract__controller_8h.html" target="_top" xlink:title="Contains the abstract class for coverage control algorithms.">
<polygon fill="white" stroke="#666666" points="502.98,-138 398.48,-138 398.48,-119.5 502.98,-119.5 502.98,-138"/>
<text text-anchor="middle" x="450.73" y="-124.5" font-family="Helvetica,sans-Serif" font-size="10.00">abstract_controller.h</text>
</a>
</g>
</g>
<!-- Node6&#45;&gt;Node7 -->
<g id="edge6_Node000006_Node000007" class="edge">
<title>Node6&#45;&gt;Node7</title>
<g id="a_edge6_Node000006_Node000007"><a xlink:title=" ">
<path fill="none" stroke="#63b8ff" d="M450.73,-162.14C450.73,-153.86 450.73,-144.71 450.73,-138.26"/>
<polygon fill="#63b8ff" stroke="#63b8ff" points="447.23,-162.07 450.73,-172.07 454.23,-162.07 447.23,-162.07"/>
</a>
</g>
</g>
<!-- Node8 -->
<g id="Node000008" class="node">
<title>Node8</title>
<g id="a_Node000008"><a xlink:href="centralized__cvt_8h.html" target="_top" xlink:title="Contains the class CentralizedCVT.">
<polygon fill="white" stroke="#666666" points="857.11,-78.25 768.36,-78.25 768.36,-59.75 857.11,-59.75 857.11,-78.25"/>
<text text-anchor="middle" x="812.73" y="-64.75" font-family="Helvetica,sans-Serif" font-size="10.00">centralized_cvt.h</text>
</a>
</g>
</g>
<!-- Node6&#45;&gt;Node8 -->
<g id="edge15_Node000006_Node000008" class="edge">
<title>Node6&#45;&gt;Node8</title>
<g id="a_edge15_Node000006_Node000008"><a xlink:title=" ">
<path fill="none" stroke="#63b8ff" d="M511.79,-177.54C563.01,-172.14 637.4,-160.89 698.73,-138 739.32,-122.85 781.78,-93.28 801.47,-78.64"/>
<polygon fill="#63b8ff" stroke="#63b8ff" points="511.69,-174.03 502.09,-178.51 512.39,-180.99 511.69,-174.03"/>
</a>
</g>
</g>
<!-- Node9 -->
<g id="Node000009" class="node">
<title>Node9</title>
<g id="a_Node000009"><a xlink:href="clairvoyant__cvt_8h.html" target="_top" xlink:title="Clairvoyant CVT algorithm.">
<polygon fill="white" stroke="#666666" points="750.11,-78.25 661.36,-78.25 661.36,-59.75 750.11,-59.75 750.11,-78.25"/>
<text text-anchor="middle" x="705.73" y="-64.75" font-family="Helvetica,sans-Serif" font-size="10.00">clairvoyant_cvt.h</text>
</a>
</g>
</g>
<!-- Node6&#45;&gt;Node9 -->
<g id="edge16_Node000006_Node000009" class="edge">
<title>Node6&#45;&gt;Node9</title>
<g id="a_edge16_Node000006_Node000009"><a xlink:title=" ">
<path fill="none" stroke="#63b8ff" d="M511.99,-176.85C570.34,-170.56 652.87,-158.37 677.73,-138 696.3,-122.79 702.7,-93.25 704.78,-78.63"/>
<polygon fill="#63b8ff" stroke="#63b8ff" points="511.75,-173.35 502.17,-177.87 512.48,-180.31 511.75,-173.35"/>
</a>
</g>
</g>
<!-- Node10 -->
<g id="Node000010" class="node">
<title>Node10</title>
<g id="a_Node000010"><a xlink:href="decentralized__cvt_8h.html" target="_top" xlink:title="Contains the DecentralizedCVT class.">
<polygon fill="white" stroke="#666666" points="129.36,-78.25 30.11,-78.25 30.11,-59.75 129.36,-59.75 129.36,-78.25"/>
<text text-anchor="middle" x="79.73" y="-64.75" font-family="Helvetica,sans-Serif" font-size="10.00">decentralized_cvt.h</text>
</a>
</g>
</g>
<!-- Node6&#45;&gt;Node10 -->
<g id="edge19_Node000006_Node000010" class="edge">
<title>Node6&#45;&gt;Node10</title>
<g id="a_edge19_Node000006_Node000010"><a xlink:title=" ">
<path fill="none" stroke="#63b8ff" d="M411.06,-170.25C335.88,-147.5 174.33,-98.62 108.52,-78.71"/>
<polygon fill="#63b8ff" stroke="#63b8ff" points="409.89,-173.55 420.48,-173.1 411.92,-166.85 409.89,-173.55"/>
</a>
</g>
</g>
<!-- Node11 -->
<g id="Node000011" class="node">
<title>Node11</title>
<g id="a_Node000011"><a xlink:href="near__optimal__cvt_8h.html" target="_top" xlink:title="NearOptimalCVT class Global offline oracle: has complete information about the environment....">
<polygon fill="white" stroke="#666666" points="245.61,-78.25 147.86,-78.25 147.86,-59.75 245.61,-59.75 245.61,-78.25"/>
<text text-anchor="middle" x="196.73" y="-64.75" font-family="Helvetica,sans-Serif" font-size="10.00">near_optimal_cvt.h</text>
</a>
</g>
</g>
<!-- Node6&#45;&gt;Node11 -->
<g id="edge20_Node000006_Node000011" class="edge">
<title>Node6&#45;&gt;Node11</title>
<g id="a_edge20_Node000006_Node000011"><a xlink:title=" ">
<path fill="none" stroke="#63b8ff" d="M420.88,-169.06C368.29,-145.82 260.51,-98.19 216.31,-78.65"/>
<polygon fill="#63b8ff" stroke="#63b8ff" points="419.28,-172.18 429.84,-173.02 422.11,-165.77 419.28,-172.18"/>
</a>
</g>
</g>
<!-- Node12 -->
<g id="Node000012" class="node">
<title>Node12</title>
<g id="a_Node000012"><a xlink:href="oracle__bang__explore__exploit_8h.html" target="_top" xlink:title="First trial of oracle with exploration and exploitation. The oracle uses complete information about t...">
<polygon fill="white" stroke="#666666" points="369.36,-83.5 264.11,-83.5 264.11,-54.5 369.36,-54.5 369.36,-83.5"/>
<text text-anchor="start" x="272.11" y="-70" font-family="Helvetica,sans-Serif" font-size="10.00">oracle_bang_explore</text>
<text text-anchor="middle" x="316.73" y="-59.5" font-family="Helvetica,sans-Serif" font-size="10.00">_exploit.h</text>
</a>
</g>
</g>
<!-- Node6&#45;&gt;Node12 -->
<g id="edge21_Node000006_Node000012" class="edge">
<title>Node6&#45;&gt;Node12</title>
<g id="a_edge21_Node000006_Node000012"><a xlink:title=" ">
<path fill="none" stroke="#63b8ff" d="M426.02,-167.67C412.98,-159.55 396.98,-148.9 383.73,-138 362.99,-120.95 341.67,-98.25 328.81,-83.87"/>
<polygon fill="#63b8ff" stroke="#63b8ff" points="424.08,-170.58 434.44,-172.8 427.73,-164.61 424.08,-170.58"/>
</a>
</g>
</g>
<!-- Node13 -->
<g id="Node000013" class="node">
<title>Node13</title>
<g id="a_Node000013"><a xlink:href="oracle__explore__exploit_8h.html" target="_top" xlink:title="Old trial of exploration and exploitation Uses system map for exploration as well.">
<polygon fill="white" stroke="#666666" points="507.86,-78.25 387.61,-78.25 387.61,-59.75 507.86,-59.75 507.86,-78.25"/>
<text text-anchor="middle" x="447.73" y="-64.75" font-family="Helvetica,sans-Serif" font-size="10.00">oracle_explore_exploit.h</text>
</a>
</g>
</g>
<!-- Node6&#45;&gt;Node13 -->
<g id="edge22_Node000006_Node000013" class="edge">
<title>Node6&#45;&gt;Node13</title>
<g id="a_edge22_Node000006_Node000013"><a xlink:title=" ">
<path fill="none" stroke="#63b8ff" d="M420.52,-168.18C408.66,-160.96 396.32,-150.93 389.73,-138 377.32,-113.67 409.39,-90.65 430.64,-78.64"/>
<polygon fill="#63b8ff" stroke="#63b8ff" points="418.47,-171.05 428.91,-172.85 421.88,-164.93 418.47,-171.05"/>
</a>
</g>
</g>
<!-- Node14 -->
<g id="Node000014" class="node">
<title>Node14</title>
<g id="a_Node000014"><a xlink:href="simul__explore__exploit_8h.html" target="_top" xlink:title="Simultaneous exploration and exploitation algorithm Uses frontier&#45;based exploration with bias towards...">
<polygon fill="white" stroke="#666666" points="643.36,-78.25 526.11,-78.25 526.11,-59.75 643.36,-59.75 643.36,-78.25"/>
<text text-anchor="middle" x="584.73" y="-64.75" font-family="Helvetica,sans-Serif" font-size="10.00">simul_explore_exploit.h</text>
</a>
</g>
</g>
<!-- Node6&#45;&gt;Node14 -->
<g id="edge23_Node000006_Node000014" class="edge">
<title>Node6&#45;&gt;Node14</title>
<g id="a_edge23_Node000006_Node000014"><a xlink:title=" ">
<path fill="none" stroke="#63b8ff" d="M472.83,-167.2C484.64,-158.92 499.26,-148.26 511.73,-138 536.07,-117.96 562.7,-92.05 576.06,-78.74"/>
<polygon fill="#63b8ff" stroke="#63b8ff" points="471.16,-164.1 464.93,-172.67 475.14,-169.85 471.16,-164.1"/>
</a>
</g>
</g>
<!-- Node15 -->
<g id="Node000015" class="node">
<title>Node15</title>
<g id="a_Node000015"><a xlink:href="coverage__system_8cpp.html" target="_top" xlink:title="Contains the implementation of the CoverageSystem class.">
<polygon fill="white" stroke="#666666" points="668.61,-138 558.86,-138 558.86,-119.5 668.61,-119.5 668.61,-138"/>
<text text-anchor="middle" x="613.73" y="-124.5" font-family="Helvetica,sans-Serif" font-size="10.00">coverage_system.cpp</text>
</a>
</g>
</g>
<!-- Node6&#45;&gt;Node15 -->
<g id="edge18_Node000006_Node000015" class="edge">
<title>Node6&#45;&gt;Node15</title>
<g id="a_edge18_Node000006_Node000015"><a xlink:title=" ">
<path fill="none" stroke="#63b8ff" d="M488.57,-170.06C518.65,-160.38 559.98,-147.06 586.77,-138.43"/>
<polygon fill="#63b8ff" stroke="#63b8ff" points="487.53,-166.72 479.09,-173.12 489.68,-173.38 487.53,-166.72"/>
</a>
</g>
</g>
<!-- Node7&#45;&gt;Node8 -->
<g id="edge7_Node000007_Node000008" class="edge">
<title>Node7&#45;&gt;Node8</title>
<g id="a_edge7_Node000007_Node000008"><a xlink:title=" ">
<path fill="none" stroke="#63b8ff" d="M514.57,-120.51C577.09,-112.97 674.89,-99.96 758.73,-83.5 765.65,-82.14 773.02,-80.46 780.01,-78.75"/>
<polygon fill="#63b8ff" stroke="#63b8ff" points="514.34,-117.01 504.83,-121.68 515.17,-123.96 514.34,-117.01"/>
</a>
</g>
</g>
<!-- Node7&#45;&gt;Node9 -->
<g id="edge8_Node000007_Node000009" class="edge">
<title>Node7&#45;&gt;Node9</title>
<g id="a_edge8_Node000007_Node000009"><a xlink:title=" ">
<path fill="none" stroke="#63b8ff" d="M503.65,-116.67C544.46,-108 602.28,-95.45 652.73,-83.5 659.01,-82.01 665.7,-80.36 672.13,-78.74"/>
<polygon fill="#63b8ff" stroke="#63b8ff" points="503.14,-113.2 494.09,-118.69 504.6,-120.05 503.14,-113.2"/>
</a>
</g>
</g>
<!-- Node7&#45;&gt;Node10 -->
<g id="edge10_Node000007_Node000010" class="edge">
<title>Node7&#45;&gt;Node10</title>
<g id="a_edge10_Node000007_Node000010"><a xlink:title=" ">
<path fill="none" stroke="#63b8ff" d="M386.69,-120.27C323.44,-112.5 224.07,-99.29 138.73,-83.5 131.19,-82.1 123.15,-80.41 115.51,-78.69"/>
<polygon fill="#63b8ff" stroke="#63b8ff" points="386.22,-123.73 396.57,-121.47 387.06,-116.79 386.22,-123.73"/>
</a>
</g>
</g>
<!-- Node7&#45;&gt;Node11 -->
<g id="edge11_Node000007_Node000011" class="edge">
<title>Node7&#45;&gt;Node11</title>
<g id="a_edge11_Node000007_Node000011"><a xlink:title=" ">
<path fill="none" stroke="#63b8ff" d="M400.46,-116.5C360.85,-107.61 304.25,-94.85 254.73,-83.5 247.98,-81.95 240.79,-80.29 233.85,-78.68"/>
<polygon fill="#63b8ff" stroke="#63b8ff" points="399.67,-119.91 410.19,-118.68 401.2,-113.08 399.67,-119.91"/>
</a>
</g>
</g>
<!-- Node7&#45;&gt;Node12 -->
<g id="edge12_Node000007_Node000012" class="edge">
<title>Node7&#45;&gt;Node12</title>
<g id="a_edge12_Node000007_Node000012"><a xlink:title=" ">
<path fill="none" stroke="#63b8ff" d="M420.29,-114.63C399.08,-105.49 370.82,-93.31 349.18,-83.98"/>
<polygon fill="#63b8ff" stroke="#63b8ff" points="418.71,-117.76 429.28,-118.51 421.48,-111.33 418.71,-117.76"/>
</a>
</g>
</g>
<!-- Node7&#45;&gt;Node13 -->
<g id="edge13_Node000007_Node000013" class="edge">
<title>Node7&#45;&gt;Node13</title>
<g id="a_edge13_Node000007_Node000013"><a xlink:title=" ">
<path fill="none" stroke="#63b8ff" d="M449.7,-107.83C449.18,-97.83 448.57,-86.25 448.18,-78.56"/>
<polygon fill="#63b8ff" stroke="#63b8ff" points="446.2,-107.91 450.21,-117.72 453.19,-107.55 446.2,-107.91"/>
</a>
</g>
</g>
<!-- Node7&#45;&gt;Node14 -->
<g id="edge14_Node000007_Node000014" class="edge">
<title>Node7&#45;&gt;Node14</title>
<g id="a_edge14_Node000007_Node000014"><a xlink:title=" ">
<path fill="none" stroke="#63b8ff" d="M481.03,-114.69C506.56,-103.69 542.37,-88.26 564.53,-78.7"/>
<polygon fill="#63b8ff" stroke="#63b8ff" points="479.98,-111.33 472.18,-118.51 482.75,-117.76 479.98,-111.33"/>
</a>
</g>
</g>
<!-- Node9&#45;&gt;Node5 -->
<g id="edge9_Node000009_Node000005" class="edge">
<title>Node9&#45;&gt;Node5</title>
<g id="a_edge9_Node000009_Node000005"><a xlink:title=" ">
<path fill="none" stroke="#63b8ff" d="M705.73,-48.08C705.73,-38.08 705.73,-26.5 705.73,-18.81"/>
<polygon fill="#63b8ff" stroke="#63b8ff" points="702.23,-47.97 705.73,-57.97 709.23,-47.97 702.23,-47.97"/>
</a>
</g>
</g>
<!-- Node16&#45;&gt;Node6 -->
<g id="edge25_Node000016_Node000006" class="edge">
<title>Node16&#45;&gt;Node6</title>
<g id="a_edge25_Node000016_Node000006"><a xlink:title=" ">
<path fill="none" stroke="#63b8ff" d="M403.58,-221.2C415.45,-211.89 430.09,-200.43 439.87,-192.76"/>
<polygon fill="#63b8ff" stroke="#63b8ff" points="401.7,-218.22 395.99,-227.15 406.02,-223.73 401.7,-218.22"/>
</a>
</g>
</g>
</g>
</svg>
