<?xml version="1.0" encoding="UTF-8" standalone="no"?>
<!DOCTYPE svg PUBLIC "-//W3C//DTD SVG 1.1//EN"
 "http://www.w3.org/Graphics/SVG/1.1/DTD/svg11.dtd">
<!-- Generated by graphviz version 10.0.1 (0)
 -->
<!-- Title: cuda_utils.cu Pages: 1 -->
<svg width="674pt" height="146pt"
 viewBox="0.00 0.00 674.38 146.00" xmlns="http://www.w3.org/2000/svg" xmlns:xlink="http://www.w3.org/1999/xlink">
<g id="graph0" class="graph" transform="scale(1 1) rotate(0) translate(4 142)">
<title>cuda_utils.cu</title>
<!-- Node1 -->
<g id="Node000001" class="node">
<title>Node1</title>
<g id="a_Node000001"><a xlink:title="Functions for CUDA utilities based on NVIDIA&#39;s CUDA Helper Library See: extern/cuda_helpers/helper_cu...">
<polygon fill="#999999" stroke="#666666" points="339.62,-138 265.88,-138 265.88,-119.5 339.62,-119.5 339.62,-138"/>
<text text-anchor="middle" x="302.75" y="-124.5" font-family="Helvetica,sans-Serif" font-size="10.00">cuda_utils.cu</text>
</a>
</g>
</g>
<!-- Node2 -->
<g id="Node000002" class="node">
<title>Node2</title>
<g id="a_Node000002"><a xlink:href="cuda__utils_8h.html" target="_top" xlink:title="Utility functions for CUDA.">
<polygon fill="white" stroke="#666666" points="243.12,-83.5 130.38,-83.5 130.38,-54.5 243.12,-54.5 243.12,-83.5"/>
<text text-anchor="start" x="138.38" y="-70" font-family="Helvetica,sans-Serif" font-size="10.00">CoverageControl/cuda</text>
<text text-anchor="middle" x="186.75" y="-59.5" font-family="Helvetica,sans-Serif" font-size="10.00">_utils.h</text>
</a>
</g>
</g>
<!-- Node1&#45;&gt;Node2 -->
<g id="edge1_Node000001_Node000002" class="edge">
<title>Node1&#45;&gt;Node2</title>
<g id="a_edge1_Node000001_Node000002"><a xlink:title=" ">
<path fill="none" stroke="#63b8ff" d="M285.38,-119.1C269.45,-111.17 245.3,-99.15 224.89,-88.99"/>
<polygon fill="#63b8ff" stroke="#63b8ff" points="226.48,-85.87 215.97,-84.55 223.36,-92.14 226.48,-85.87"/>
</a>
</g>
</g>
<!-- Node4 -->
<g id="Node000004" class="node">
<title>Node4</title>
<g id="a_Node000004"><a xlink:title=" ">
<polygon fill="#e0e0e0" stroke="#999999" points="53.5,-18.5 0,-18.5 0,0 53.5,0 53.5,-18.5"/>
<text text-anchor="middle" x="26.75" y="-5" font-family="Helvetica,sans-Serif" font-size="10.00">iostream</text>
</a>
</g>
</g>
<!-- Node1&#45;&gt;Node4 -->
<g id="edge7_Node000001_Node000004" class="edge">
<title>Node1&#45;&gt;Node4</title>
<g id="a_edge7_Node000001_Node000004"><a xlink:title=" ">
<path fill="none" stroke="#63b8ff" d="M265.51,-123.27C227.81,-117.68 168.54,-106 121.75,-83.5 91.38,-68.89 61.45,-43.49 43.54,-26.77"/>
<polygon fill="#63b8ff" stroke="#63b8ff" points="46.07,-24.35 36.42,-19.97 41.23,-29.41 46.07,-24.35"/>
</a>
</g>
</g>
<!-- Node8 -->
<g id="Node000008" class="node">
<title>Node8</title>
<g id="a_Node000008"><a xlink:title=" ">
<polygon fill="#e0e0e0" stroke="#999999" points="344.12,-78.25 261.38,-78.25 261.38,-59.75 344.12,-59.75 344.12,-78.25"/>
<text text-anchor="middle" x="302.75" y="-64.75" font-family="Helvetica,sans-Serif" font-size="10.00">cuda_runtime.h</text>
</a>
</g>
</g>
<!-- Node1&#45;&gt;Node8 -->
<g id="edge8_Node000001_Node000008" class="edge">
<title>Node1&#45;&gt;Node8</title>
<g id="a_edge8_Node000001_Node000008"><a xlink:title=" ">
<path fill="none" stroke="#63b8ff" d="M302.75,-119.23C302.75,-111.55 302.75,-99.97 302.75,-89.97"/>
<polygon fill="#63b8ff" stroke="#63b8ff" points="306.25,-90.07 302.75,-80.07 299.25,-90.07 306.25,-90.07"/>
</a>
</g>
</g>
<!-- Node9 -->
<g id="Node000009" class="node">
<title>Node9</title>
<g id="a_Node000009"><a xlink:title=" ">
<polygon fill="#e0e0e0" stroke="#999999" points="506.88,-83.5 362.62,-83.5 362.62,-54.5 506.88,-54.5 506.88,-83.5"/>
<text text-anchor="start" x="370.62" y="-70" font-family="Helvetica,sans-Serif" font-size="10.00">CoverageControl/extern</text>
<text text-anchor="middle" x="434.75" y="-59.5" font-family="Helvetica,sans-Serif" font-size="10.00">/cuda_helpers/helper_string.h</text>
</a>
</g>
</g>
<!-- Node1&#45;&gt;Node9 -->
<g id="edge9_Node000001_Node000009" class="edge">
<title>Node1&#45;&gt;Node9</title>
<g id="a_edge9_Node000001_Node000009"><a xlink:title=" ">
<path fill="none" stroke="#63b8ff" d="M322.51,-119.1C340.91,-111.05 368.94,-98.79 392.39,-88.53"/>
<polygon fill="#63b8ff" stroke="#63b8ff" points="393.64,-91.8 401.4,-84.59 390.84,-85.39 393.64,-91.8"/>
</a>
</g>
</g>
<!-- Node10 -->
<g id="Node000010" class="node">
<title>Node10</title>
<g id="a_Node000010"><a xlink:title=" ">
<polygon fill="#e0e0e0" stroke="#999999" points="666.38,-83.5 525.12,-83.5 525.12,-54.5 666.38,-54.5 666.38,-83.5"/>
<text text-anchor="start" x="533.12" y="-70" font-family="Helvetica,sans-Serif" font-size="10.00">CoverageControl/extern</text>
<text text-anchor="middle" x="595.75" y="-59.5" font-family="Helvetica,sans-Serif" font-size="10.00">/cuda_helpers/helper_cuda.h</text>
</a>
</g>
</g>
<!-- Node1&#45;&gt;Node10 -->
<g id="edge10_Node000001_Node000010" class="edge">
<title>Node1&#45;&gt;Node10</title>
<g id="a_edge10_Node000001_Node000010"><a xlink:title=" ">
<path fill="none" stroke="#63b8ff" d="M339.86,-120.44C383.31,-111.87 456.6,-97.43 513.63,-86.19"/>
<polygon fill="#63b8ff" stroke="#63b8ff" points="514.19,-89.64 523.32,-84.28 512.84,-82.78 514.19,-89.64"/>
</a>
</g>
</g>
<!-- Node3 -->
<g id="Node000003" class="node">
<title>Node3</title>
<g id="a_Node000003"><a xlink:title=" ">
<polygon fill="#e0e0e0" stroke="#999999" points="200,-18.5 71.5,-18.5 71.5,0 200,0 200,-18.5"/>
<text text-anchor="middle" x="135.75" y="-5" font-family="Helvetica,sans-Serif" font-size="10.00">CoverageControl/Config.h</text>
</a>
</g>
</g>
<!-- Node2&#45;&gt;Node3 -->
<g id="edge2_Node000002_Node000003" class="edge">
<title>Node2&#45;&gt;Node3</title>
<g id="a_edge2_Node000002_Node000003"><a xlink:title=" ">
<path fill="none" stroke="#63b8ff" d="M174.4,-54.02C167.3,-45.98 158.33,-35.82 150.81,-27.31"/>
<polygon fill="#63b8ff" stroke="#63b8ff" points="153.64,-25.22 144.39,-20.04 148.39,-29.85 153.64,-25.22"/>
</a>
</g>
</g>
<!-- Node2&#45;&gt;Node4 -->
<g id="edge3_Node000002_Node000004" class="edge">
<title>Node2&#45;&gt;Node4</title>
<g id="a_edge3_Node000002_Node000004"><a xlink:title=" ">
<path fill="none" stroke="#63b8ff" d="M148.02,-54.02C121.59,-44.48 86.9,-31.96 61.39,-22.75"/>
<polygon fill="#63b8ff" stroke="#63b8ff" points="62.74,-19.52 52.15,-19.42 60.37,-26.1 62.74,-19.52"/>
</a>
</g>
</g>
<!-- Node5 -->
<g id="Node000005" class="node">
<title>Node5</title>
<g id="a_Node000005"><a xlink:title=" ">
<polygon fill="#e0e0e0" stroke="#999999" points="257.38,-18.5 218.12,-18.5 218.12,0 257.38,0 257.38,-18.5"/>
<text text-anchor="middle" x="237.75" y="-5" font-family="Helvetica,sans-Serif" font-size="10.00">limits</text>
</a>
</g>
</g>
<!-- Node2&#45;&gt;Node5 -->
<g id="edge4_Node000002_Node000005" class="edge">
<title>Node2&#45;&gt;Node5</title>
<g id="a_edge4_Node000002_Node000005"><a xlink:title=" ">
<path fill="none" stroke="#63b8ff" d="M199.1,-54.02C206.2,-45.98 215.17,-35.82 222.69,-27.31"/>
<polygon fill="#63b8ff" stroke="#63b8ff" points="225.11,-29.85 229.11,-20.04 219.86,-25.22 225.11,-29.85"/>
</a>
</g>
</g>
<!-- Node6 -->
<g id="Node000006" class="node">
<title>Node6</title>
<g id="a_Node000006"><a xlink:title=" ">
<polygon fill="#e0e0e0" stroke="#999999" points="326.38,-18.5 275.12,-18.5 275.12,0 326.38,0 326.38,-18.5"/>
<text text-anchor="middle" x="300.75" y="-5" font-family="Helvetica,sans-Serif" font-size="10.00">sstream</text>
</a>
</g>
</g>
<!-- Node2&#45;&gt;Node6 -->
<g id="edge5_Node000002_Node000006" class="edge">
<title>Node2&#45;&gt;Node6</title>
<g id="a_edge5_Node000002_Node000006"><a xlink:title=" ">
<path fill="none" stroke="#63b8ff" d="M214.35,-54.02C232.33,-44.91 255.69,-33.08 273.59,-24.01"/>
<polygon fill="#63b8ff" stroke="#63b8ff" points="274.98,-27.23 282.32,-19.59 271.82,-20.98 274.98,-27.23"/>
</a>
</g>
</g>
<!-- Node7 -->
<g id="Node000007" class="node">
<title>Node7</title>
<g id="a_Node000007"><a xlink:title=" ">
<polygon fill="#e0e0e0" stroke="#999999" points="386.88,-18.5 344.62,-18.5 344.62,0 386.88,0 386.88,-18.5"/>
<text text-anchor="middle" x="365.75" y="-5" font-family="Helvetica,sans-Serif" font-size="10.00">vector</text>
</a>
</g>
</g>
<!-- Node2&#45;&gt;Node7 -->
<g id="edge6_Node000002_Node000007" class="edge">
<title>Node2&#45;&gt;Node7</title>
<g id="a_edge6_Node000002_Node000007"><a xlink:title=" ">
<path fill="none" stroke="#63b8ff" d="M230.08,-54.02C262.05,-43.71 304.84,-29.9 333.75,-20.57"/>
<polygon fill="#63b8ff" stroke="#63b8ff" points="334.59,-23.98 343.03,-17.58 332.44,-17.32 334.59,-23.98"/>
</a>
</g>
</g>
</g>
</svg>
