<?xml version="1.0" encoding="UTF-8" standalone="no"?>
<!DOCTYPE svg PUBLIC "-//W3C//DTD SVG 1.1//EN"
 "http://www.w3.org/Graphics/SVG/1.1/DTD/svg11.dtd">
<!-- Generated by graphviz version 10.0.1 (0)
 -->
<!-- Title: cuda_utils.cpp Pages: 1 -->
<svg width="452pt" height="146pt"
 viewBox="0.00 0.00 452.00 146.00" xmlns="http://www.w3.org/2000/svg" xmlns:xlink="http://www.w3.org/1999/xlink">
<g id="graph0" class="graph" transform="scale(1 1) rotate(0) translate(4 142)">
<title>cuda_utils.cpp</title>
<!-- Node1 -->
<g id="Node000001" class="node">
<title>Node1</title>
<g id="a_Node000001"><a xlink:title=" ">
<polygon fill="#999999" stroke="#666666" points="225.25,-138 146.25,-138 146.25,-119.5 225.25,-119.5 225.25,-138"/>
<text text-anchor="middle" x="185.75" y="-124.5" font-family="Helvetica,sans-Serif" font-size="10.00">cuda_utils.cpp</text>
</a>
</g>
</g>
<!-- Node2 -->
<g id="Node000002" class="node">
<title>Node2</title>
<g id="a_Node000002"><a xlink:href="cuda__utils_8h.html" target="_top" xlink:title="Utility functions for CUDA.">
<polygon fill="white" stroke="#666666" points="242.12,-83.5 129.38,-83.5 129.38,-54.5 242.12,-54.5 242.12,-83.5"/>
<text text-anchor="start" x="137.38" y="-70" font-family="Helvetica,sans-Serif" font-size="10.00">CoverageControl/cuda</text>
<text text-anchor="middle" x="185.75" y="-59.5" font-family="Helvetica,sans-Serif" font-size="10.00">_utils.h</text>
</a>
</g>
</g>
<!-- Node1&#45;&gt;Node2 -->
<g id="edge1_Node000001_Node000002" class="edge">
<title>Node1&#45;&gt;Node2</title>
<g id="a_edge1_Node000001_Node000002"><a xlink:title=" ">
<path fill="none" stroke="#63b8ff" d="M185.75,-119.23C185.75,-112.92 185.75,-103.96 185.75,-95.42"/>
<polygon fill="#63b8ff" stroke="#63b8ff" points="189.25,-95.45 185.75,-85.45 182.25,-95.45 189.25,-95.45"/>
</a>
</g>
</g>
<!-- Node3 -->
<g id="Node000003" class="node">
<title>Node3</title>
<g id="a_Node000003"><a xlink:title=" ">
<polygon fill="#e0e0e0" stroke="#999999" points="53.5,-18.5 0,-18.5 0,0 53.5,0 53.5,-18.5"/>
<text text-anchor="middle" x="26.75" y="-5" font-family="Helvetica,sans-Serif" font-size="10.00">iostream</text>
</a>
</g>
</g>
<!-- Node2&#45;&gt;Node3 -->
<g id="edge2_Node000002_Node000003" class="edge">
<title>Node2&#45;&gt;Node3</title>
<g id="a_edge2_Node000002_Node000003"><a xlink:title=" ">
<path fill="none" stroke="#63b8ff" d="M147.26,-54.02C121,-44.48 86.52,-31.96 61.17,-22.75"/>
<polygon fill="#63b8ff" stroke="#63b8ff" points="62.59,-19.54 52,-19.42 60.2,-26.12 62.59,-19.54"/>
</a>
</g>
</g>
<!-- Node4 -->
<g id="Node000004" class="node">
<title>Node4</title>
<g id="a_Node000004"><a xlink:title=" ">
<polygon fill="#e0e0e0" stroke="#999999" points="110.38,-18.5 71.12,-18.5 71.12,0 110.38,0 110.38,-18.5"/>
<text text-anchor="middle" x="90.75" y="-5" font-family="Helvetica,sans-Serif" font-size="10.00">limits</text>
</a>
</g>
</g>
<!-- Node2&#45;&gt;Node4 -->
<g id="edge3_Node000002_Node000004" class="edge">
<title>Node2&#45;&gt;Node4</title>
<g id="a_edge3_Node000002_Node000004"><a xlink:title=" ">
<path fill="none" stroke="#63b8ff" d="M162.75,-54.02C148.12,-45.12 129.21,-33.63 114.44,-24.65"/>
<polygon fill="#63b8ff" stroke="#63b8ff" points="116.64,-21.89 106.28,-19.69 113.01,-27.88 116.64,-21.89"/>
</a>
</g>
</g>
<!-- Node5 -->
<g id="Node000005" class="node">
<title>Node5</title>
<g id="a_Node000005"><a xlink:title=" ">
<polygon fill="#e0e0e0" stroke="#999999" points="179.38,-18.5 128.12,-18.5 128.12,0 179.38,0 179.38,-18.5"/>
<text text-anchor="middle" x="153.75" y="-5" font-family="Helvetica,sans-Serif" font-size="10.00">sstream</text>
</a>
</g>
</g>
<!-- Node2&#45;&gt;Node5 -->
<g id="edge4_Node000002_Node000005" class="edge">
<title>Node2&#45;&gt;Node5</title>
<g id="a_edge4_Node000002_Node000005"><a xlink:title=" ">
<path fill="none" stroke="#63b8ff" d="M178,-54.02C173.83,-46.49 168.63,-37.11 164.12,-28.96"/>
<polygon fill="#63b8ff" stroke="#63b8ff" points="167.19,-27.28 159.28,-20.23 161.06,-30.67 167.19,-27.28"/>
</a>
</g>
</g>
<!-- Node6 -->
<g id="Node000006" class="node">
<title>Node6</title>
<g id="a_Node000006"><a xlink:title=" ">
<polygon fill="#e0e0e0" stroke="#999999" points="237.75,-18.5 197.75,-18.5 197.75,0 237.75,0 237.75,-18.5"/>
<text text-anchor="middle" x="217.75" y="-5" font-family="Helvetica,sans-Serif" font-size="10.00">string</text>
</a>
</g>
</g>
<!-- Node2&#45;&gt;Node6 -->
<g id="edge5_Node000002_Node000006" class="edge">
<title>Node2&#45;&gt;Node6</title>
<g id="a_edge5_Node000002_Node000006"><a xlink:title=" ">
<path fill="none" stroke="#63b8ff" d="M193.5,-54.02C197.67,-46.49 202.87,-37.11 207.38,-28.96"/>
<polygon fill="#63b8ff" stroke="#63b8ff" points="210.44,-30.67 212.22,-20.23 204.31,-27.28 210.44,-30.67"/>
</a>
</g>
</g>
<!-- Node7 -->
<g id="Node000007" class="node">
<title>Node7</title>
<g id="a_Node000007"><a xlink:title=" ">
<polygon fill="#e0e0e0" stroke="#999999" points="297.88,-18.5 255.62,-18.5 255.62,0 297.88,0 297.88,-18.5"/>
<text text-anchor="middle" x="276.75" y="-5" font-family="Helvetica,sans-Serif" font-size="10.00">vector</text>
</a>
</g>
</g>
<!-- Node2&#45;&gt;Node7 -->
<g id="edge6_Node000002_Node000007" class="edge">
<title>Node2&#45;&gt;Node7</title>
<g id="a_edge6_Node000002_Node000007"><a xlink:title=" ">
<path fill="none" stroke="#63b8ff" d="M207.78,-54.02C221.66,-45.21 239.56,-33.85 253.64,-24.91"/>
<polygon fill="#63b8ff" stroke="#63b8ff" points="255.27,-28.03 261.84,-19.71 251.52,-22.12 255.27,-28.03"/>
</a>
</g>
</g>
<!-- Node8 -->
<g id="Node000008" class="node">
<title>Node8</title>
<g id="a_Node000008"><a xlink:title=" ">
<polygon fill="#e0e0e0" stroke="#999999" points="444,-18.5 315.5,-18.5 315.5,0 444,0 444,-18.5"/>
<text text-anchor="middle" x="379.75" y="-5" font-family="Helvetica,sans-Serif" font-size="10.00">CoverageControl/Config.h</text>
</a>
</g>
</g>
<!-- Node2&#45;&gt;Node8 -->
<g id="edge7_Node000002_Node000008" class="edge">
<title>Node2&#45;&gt;Node8</title>
<g id="a_edge7_Node000002_Node000008"><a xlink:title=" ">
<path fill="none" stroke="#63b8ff" d="M232.71,-54.02C265.37,-44.3 308.45,-31.47 339.53,-22.22"/>
<polygon fill="#63b8ff" stroke="#63b8ff" points="340.36,-25.63 348.94,-19.42 338.36,-18.92 340.36,-25.63"/>
</a>
</g>
</g>
</g>
</svg>
