<?xml version="1.0" encoding="UTF-8" standalone="no"?>
<!DOCTYPE svg PUBLIC "-//W3C//DTD SVG 1.1//EN"
 "http://www.w3.org/Graphics/SVG/1.1/DTD/svg11.dtd">
<!-- Generated by graphviz version 12.1.2 (0)
 -->
<!-- Title: cuda_utils.cu Pages: 1 -->
<svg width="581pt" height="146pt"
 viewBox="0.00 0.00 580.50 146.00" xmlns="http://www.w3.org/2000/svg" xmlns:xlink="http://www.w3.org/1999/xlink">
<g id="graph0" class="graph" transform="scale(1 1) rotate(0) translate(4 142)">
<title>cuda_utils.cu</title>
<!-- Node1 -->
<g id="Node000001" class="node">
<title>Node1</title>
<g id="a_Node000001"><a xlink:title="Functions for CUDA utilities based on NVIDIA&#39;s CUDA Helper Library See: extern/cuda_helpers/helper_cu...">
<polygon fill="#999999" stroke="#666666" points="231.25,-138 157.5,-138 157.5,-119.5 231.25,-119.5 231.25,-138"/>
<text text-anchor="middle" x="194.38" y="-124.5" font-family="Helvetica,sans-Serif" font-size="10.00">cuda_utils.cu</text>
</a>
</g>
</g>
<!-- Node2 -->
<g id="Node000002" class="node">
<title>Node2</title>
<g id="a_Node000002"><a xlink:title=" ">
<polygon fill="#e0e0e0" stroke="#999999" points="82.75,-78.25 0,-78.25 0,-59.75 82.75,-59.75 82.75,-78.25"/>
<text text-anchor="middle" x="41.38" y="-64.75" font-family="Helvetica,sans-Serif" font-size="10.00">cuda_runtime.h</text>
</a>
</g>
</g>
<!-- Node1&#45;&gt;Node2 -->
<g id="edge1_Node000001_Node000002" class="edge">
<title>Node1&#45;&gt;Node2</title>
<g id="a_edge1_Node000001_Node000002"><a xlink:title=" ">
<path fill="none" stroke="#63b8ff" d="M171.47,-119.1C145.89,-109.45 104.26,-93.73 74.99,-82.69"/>
<polygon fill="#63b8ff" stroke="#63b8ff" points="76.44,-79.5 65.85,-79.24 73.97,-86.05 76.44,-79.5"/>
</a>
</g>
</g>
<!-- Node3 -->
<g id="Node000003" class="node">
<title>Node3</title>
<g id="a_Node000003"><a xlink:title=" ">
<polygon fill="#e0e0e0" stroke="#999999" points="112.12,-18.5 58.62,-18.5 58.62,0 112.12,0 112.12,-18.5"/>
<text text-anchor="middle" x="85.38" y="-5" font-family="Helvetica,sans-Serif" font-size="10.00">iostream</text>
</a>
</g>
</g>
<!-- Node1&#45;&gt;Node3 -->
<g id="edge2_Node000001_Node000003" class="edge">
<title>Node1&#45;&gt;Node3</title>
<g id="a_edge2_Node000001_Node000003"><a xlink:title=" ">
<path fill="none" stroke="#63b8ff" d="M177.69,-119.09C163.6,-111.19 143.53,-98.48 129.38,-83.5 113.96,-67.19 101.4,-44.57 93.7,-28.8"/>
<polygon fill="#63b8ff" stroke="#63b8ff" points="97.03,-27.66 89.63,-20.09 90.69,-30.63 97.03,-27.66"/>
</a>
</g>
</g>
<!-- Node4 -->
<g id="Node000004" class="node">
<title>Node4</title>
<g id="a_Node000004"><a xlink:href="cuda__utils_8h.html" target="_top" xlink:title="Utility functions for CUDA.">
<polygon fill="white" stroke="#666666" points="250.75,-83.5 138,-83.5 138,-54.5 250.75,-54.5 250.75,-83.5"/>
<text text-anchor="start" x="146" y="-70" font-family="Helvetica,sans-Serif" font-size="10.00">CoverageControl/cuda</text>
<text text-anchor="middle" x="194.38" y="-59.5" font-family="Helvetica,sans-Serif" font-size="10.00">_utils.h</text>
</a>
</g>
</g>
<!-- Node1&#45;&gt;Node4 -->
<g id="edge3_Node000001_Node000004" class="edge">
<title>Node1&#45;&gt;Node4</title>
<g id="a_edge3_Node000001_Node000004"><a xlink:title=" ">
<path fill="none" stroke="#63b8ff" d="M194.38,-119.23C194.38,-112.92 194.38,-103.96 194.38,-95.42"/>
<polygon fill="#63b8ff" stroke="#63b8ff" points="197.88,-95.45 194.38,-85.45 190.88,-95.45 197.88,-95.45"/>
</a>
</g>
</g>
<!-- Node9 -->
<g id="Node000009" class="node">
<title>Node9</title>
<g id="a_Node000009"><a xlink:title=" ">
<polygon fill="#e0e0e0" stroke="#999999" points="410,-83.5 268.75,-83.5 268.75,-54.5 410,-54.5 410,-83.5"/>
<text text-anchor="start" x="276.75" y="-70" font-family="Helvetica,sans-Serif" font-size="10.00">CoverageControl/extern</text>
<text text-anchor="middle" x="339.38" y="-59.5" font-family="Helvetica,sans-Serif" font-size="10.00">/cuda_helpers/helper_cuda.h</text>
</a>
</g>
</g>
<!-- Node1&#45;&gt;Node9 -->
<g id="edge9_Node000001_Node000009" class="edge">
<title>Node1&#45;&gt;Node9</title>
<g id="a_edge9_Node000001_Node000009"><a xlink:title=" ">
<path fill="none" stroke="#63b8ff" d="M216.08,-119.1C236.57,-110.95 267.92,-98.46 293.88,-88.12"/>
<polygon fill="#63b8ff" stroke="#63b8ff" points="294.87,-91.49 302.86,-84.54 292.28,-84.99 294.87,-91.49"/>
</a>
</g>
</g>
<!-- Node10 -->
<g id="Node000010" class="node">
<title>Node10</title>
<g id="a_Node000010"><a xlink:title=" ">
<polygon fill="#e0e0e0" stroke="#999999" points="572.5,-83.5 428.25,-83.5 428.25,-54.5 572.5,-54.5 572.5,-83.5"/>
<text text-anchor="start" x="436.25" y="-70" font-family="Helvetica,sans-Serif" font-size="10.00">CoverageControl/extern</text>
<text text-anchor="middle" x="500.38" y="-59.5" font-family="Helvetica,sans-Serif" font-size="10.00">/cuda_helpers/helper_string.h</text>
</a>
</g>
</g>
<!-- Node1&#45;&gt;Node10 -->
<g id="edge10_Node000001_Node000010" class="edge">
<title>Node1&#45;&gt;Node10</title>
<g id="a_edge10_Node000001_Node000010"><a xlink:title=" ">
<path fill="none" stroke="#63b8ff" d="M231.59,-120.73C277.32,-112.1 356.29,-97.19 416.84,-85.77"/>
<polygon fill="#63b8ff" stroke="#63b8ff" points="417.25,-89.25 426.43,-83.96 415.96,-82.37 417.25,-89.25"/>
</a>
</g>
</g>
<!-- Node4&#45;&gt;Node3 -->
<g id="edge4_Node000004_Node000003" class="edge">
<title>Node4&#45;&gt;Node3</title>
<g id="a_edge4_Node000004_Node000003"><a xlink:title=" ">
<path fill="none" stroke="#63b8ff" d="M167.99,-54.02C150.88,-44.95 128.67,-33.19 111.59,-24.14"/>
<polygon fill="#63b8ff" stroke="#63b8ff" points="113.52,-21.2 103.05,-19.61 110.24,-27.39 113.52,-21.2"/>
</a>
</g>
</g>
<!-- Node5 -->
<g id="Node000005" class="node">
<title>Node5</title>
<g id="a_Node000005"><a xlink:title=" ">
<polygon fill="#e0e0e0" stroke="#999999" points="181,-18.5 129.75,-18.5 129.75,0 181,0 181,-18.5"/>
<text text-anchor="middle" x="155.38" y="-5" font-family="Helvetica,sans-Serif" font-size="10.00">sstream</text>
</a>
</g>
</g>
<!-- Node4&#45;&gt;Node5 -->
<g id="edge5_Node000004_Node000005" class="edge">
<title>Node4&#45;&gt;Node5</title>
<g id="a_edge5_Node000004_Node000005"><a xlink:title=" ">
<path fill="none" stroke="#63b8ff" d="M184.93,-54.02C179.74,-46.32 173.22,-36.68 167.63,-28.4"/>
<polygon fill="#63b8ff" stroke="#63b8ff" points="170.56,-26.49 162.07,-20.16 164.76,-30.4 170.56,-26.49"/>
</a>
</g>
</g>
<!-- Node6 -->
<g id="Node000006" class="node">
<title>Node6</title>
<g id="a_Node000006"><a xlink:title=" ">
<polygon fill="#e0e0e0" stroke="#999999" points="239.38,-18.5 199.38,-18.5 199.38,0 239.38,0 239.38,-18.5"/>
<text text-anchor="middle" x="219.38" y="-5" font-family="Helvetica,sans-Serif" font-size="10.00">string</text>
</a>
</g>
</g>
<!-- Node4&#45;&gt;Node6 -->
<g id="edge6_Node000004_Node000006" class="edge">
<title>Node4&#45;&gt;Node6</title>
<g id="a_edge6_Node000004_Node000006"><a xlink:title=" ">
<path fill="none" stroke="#63b8ff" d="M200.43,-54.02C203.65,-46.58 207.66,-37.32 211.16,-29.24"/>
<polygon fill="#63b8ff" stroke="#63b8ff" points="214.27,-30.86 215.03,-20.29 207.84,-28.08 214.27,-30.86"/>
</a>
</g>
</g>
<!-- Node7 -->
<g id="Node000007" class="node">
<title>Node7</title>
<g id="a_Node000007"><a xlink:title=" ">
<polygon fill="#e0e0e0" stroke="#999999" points="299.5,-18.5 257.25,-18.5 257.25,0 299.5,0 299.5,-18.5"/>
<text text-anchor="middle" x="278.38" y="-5" font-family="Helvetica,sans-Serif" font-size="10.00">vector</text>
</a>
</g>
</g>
<!-- Node4&#45;&gt;Node7 -->
<g id="edge7_Node000004_Node000007" class="edge">
<title>Node4&#45;&gt;Node7</title>
<g id="a_edge7_Node000004_Node000007"><a xlink:title=" ">
<path fill="none" stroke="#63b8ff" d="M214.71,-54.02C227.4,-45.3 243.73,-34.07 256.67,-25.17"/>
<polygon fill="#63b8ff" stroke="#63b8ff" points="258.28,-28.31 264.54,-19.76 254.32,-22.54 258.28,-28.31"/>
</a>
</g>
</g>
<!-- Node8 -->
<g id="Node000008" class="node">
<title>Node8</title>
<g id="a_Node000008"><a xlink:title=" ">
<polygon fill="#e0e0e0" stroke="#999999" points="445.62,-18.5 317.12,-18.5 317.12,0 445.62,0 445.62,-18.5"/>
<text text-anchor="middle" x="381.38" y="-5" font-family="Helvetica,sans-Serif" font-size="10.00">CoverageControl/Config.h</text>
</a>
</g>
</g>
<!-- Node4&#45;&gt;Node8 -->
<g id="edge8_Node000004_Node000008" class="edge">
<title>Node4&#45;&gt;Node8</title>
<g id="a_edge8_Node000004_Node000008"><a xlink:title=" ">
<path fill="none" stroke="#63b8ff" d="M239.64,-54.02C270.98,-44.34 312.28,-31.59 342.21,-22.35"/>
<polygon fill="#63b8ff" stroke="#63b8ff" points="343.11,-25.73 351.63,-19.44 341.04,-19.04 343.11,-25.73"/>
</a>
</g>
</g>
</g>
</svg>
