<?xml version="1.0" encoding="UTF-8" standalone="no"?>
<!DOCTYPE svg PUBLIC "-//W3C//DTD SVG 1.1//EN"
 "http://www.w3.org/Graphics/SVG/1.1/DTD/svg11.dtd">
<!-- Generated by graphviz version 10.0.1 (0)
 -->
<!-- Title: cuda_utils.h Pages: 1 -->
<svg width="452pt" height="81pt"
 viewBox="0.00 0.00 452.00 81.00" xmlns="http://www.w3.org/2000/svg" xmlns:xlink="http://www.w3.org/1999/xlink">

<svg id="main" version="1.1" xmlns="http://www.w3.org/2000/svg" xmlns:xlink="http://www.w3.org/1999/xlink" xml:space="preserve" onload="init(evt)">
<style type="text/css"><![CDATA[
.node, .edge {opacity: 0.7;}
.node.selected, .edge.selected {opacity: 1;}
.edge:hover path { stroke: red; }
.edge:hover polygon { stroke: red; fill: red; }
]]></style>
<script type="application/ecmascript" xlink:href="svg.min.js"/>
<svg id="graph" class="graph">
<g id="graph0" class="graph" transform="scale(1 1) rotate(0) translate(4 77)">
<title>cuda_utils.h</title>
<!-- Node1 -->
<g id="Node000001" class="node">
<title>Node1</title>
<g id="a_Node000001"><a xlink:title="Utility functions for CUDA.">
<polygon fill="#999999" stroke="#666666" points="220,-73 151.5,-73 151.5,-54.5 220,-54.5 220,-73"/>
<text text-anchor="middle" x="185.75" y="-59.5" font-family="Helvetica,sans-Serif" font-size="10.00">cuda_utils.h</text>
</a>
</g>
</g>
<!-- Node2 -->
<g id="Node000002" class="node">
<title>Node2</title>
<g id="a_Node000002"><a xlink:title=" ">
<polygon fill="#e0e0e0" stroke="#999999" points="53.5,-18.5 0,-18.5 0,0 53.5,0 53.5,-18.5"/>
<text text-anchor="middle" x="26.75" y="-5" font-family="Helvetica,sans-Serif" font-size="10.00">iostream</text>
</a>
</g>
</g>
<!-- Node1&#45;&gt;Node2 -->
<g id="edge1_Node000001_Node000002" class="edge">
<title>Node1&#45;&gt;Node2</title>
<g id="a_edge1_Node000001_Node000002"><a xlink:title=" ">
<path fill="none" stroke="#63b8ff" d="M159.49,-54.08C133.37,-45.46 93.05,-32.14 63.7,-22.45"/>
<polygon fill="#63b8ff" stroke="#63b8ff" points="65.08,-19.22 54.48,-19.41 62.88,-25.87 65.08,-19.22"/>
</a>
</g>
</g>
<!-- Node3 -->
<g id="Node000003" class="node">
<title>Node3</title>
<g id="a_Node000003"><a xlink:title=" ">
<polygon fill="#e0e0e0" stroke="#999999" points="110.38,-18.5 71.12,-18.5 71.12,0 110.38,0 110.38,-18.5"/>
<text text-anchor="middle" x="90.75" y="-5" font-family="Helvetica,sans-Serif" font-size="10.00">limits</text>
</a>
</g>
</g>
<!-- Node1&#45;&gt;Node3 -->
<g id="edge2_Node000001_Node000003" class="edge">
<title>Node1&#45;&gt;Node3</title>
<g id="a_edge2_Node000001_Node000003"><a xlink:title=" ">
<path fill="none" stroke="#63b8ff" d="M170.06,-54.08C155.49,-46.03 133.51,-33.88 116.39,-24.42"/>
<polygon fill="#63b8ff" stroke="#63b8ff" points="118.23,-21.44 107.79,-19.66 114.84,-27.56 118.23,-21.44"/>
</a>
</g>
</g>
<!-- Node4 -->
<g id="Node000004" class="node">
<title>Node4</title>
<g id="a_Node000004"><a xlink:title=" ">
<polygon fill="#e0e0e0" stroke="#999999" points="179.38,-18.5 128.12,-18.5 128.12,0 179.38,0 179.38,-18.5"/>
<text text-anchor="middle" x="153.75" y="-5" font-family="Helvetica,sans-Serif" font-size="10.00">sstream</text>
</a>
</g>
</g>
<!-- Node1&#45;&gt;Node4 -->
<g id="edge3_Node000001_Node000004" class="edge">
<title>Node1&#45;&gt;Node4</title>
<g id="a_edge3_Node000001_Node000004"><a xlink:title=" ">
<path fill="none" stroke="#63b8ff" d="M180.47,-54.08C176.23,-47.12 170.13,-37.12 164.83,-28.42"/>
<polygon fill="#63b8ff" stroke="#63b8ff" points="167.92,-26.77 159.72,-20.05 161.94,-30.41 167.92,-26.77"/>
</a>
</g>
</g>
<!-- Node5 -->
<g id="Node000005" class="node">
<title>Node5</title>
<g id="a_Node000005"><a xlink:title=" ">
<polygon fill="#e0e0e0" stroke="#999999" points="239.88,-18.5 197.62,-18.5 197.62,0 239.88,0 239.88,-18.5"/>
<text text-anchor="middle" x="218.75" y="-5" font-family="Helvetica,sans-Serif" font-size="10.00">vector</text>
</a>
</g>
</g>
<!-- Node1&#45;&gt;Node5 -->
<g id="edge4_Node000001_Node000005" class="edge">
<title>Node1&#45;&gt;Node5</title>
<g id="a_edge4_Node000001_Node000005"><a xlink:title=" ">
<path fill="none" stroke="#63b8ff" d="M191.2,-54.08C195.57,-47.12 201.86,-37.12 207.33,-28.42"/>
<polygon fill="#63b8ff" stroke="#63b8ff" points="210.24,-30.37 212.6,-20.04 204.31,-26.64 210.24,-30.37"/>
</a>
</g>
</g>
<!-- Node6 -->
<g id="Node000006" class="node">
<title>Node6</title>
<g id="a_Node000006"><a xlink:title=" ">
<polygon fill="#e0e0e0" stroke="#999999" points="297.75,-18.5 257.75,-18.5 257.75,0 297.75,0 297.75,-18.5"/>
<text text-anchor="middle" x="277.75" y="-5" font-family="Helvetica,sans-Serif" font-size="10.00">string</text>
</a>
</g>
</g>
<!-- Node1&#45;&gt;Node6 -->
<g id="edge5_Node000001_Node000006" class="edge">
<title>Node1&#45;&gt;Node6</title>
<g id="a_edge5_Node000001_Node000006"><a xlink:title=" ">
<path fill="none" stroke="#63b8ff" d="M200.94,-54.08C215.06,-46.03 236.34,-33.88 252.92,-24.42"/>
<polygon fill="#63b8ff" stroke="#63b8ff" points="254.27,-27.68 261.22,-19.68 250.8,-21.6 254.27,-27.68"/>
</a>
</g>
</g>
<!-- Node7 -->
<g id="Node000007" class="node">
<title>Node7</title>
<g id="a_Node000007"><a xlink:title=" ">
<polygon fill="#e0e0e0" stroke="#999999" points="444,-18.5 315.5,-18.5 315.5,0 444,0 444,-18.5"/>
<text text-anchor="middle" x="379.75" y="-5" font-family="Helvetica,sans-Serif" font-size="10.00">CoverageControl/Config.h</text>
</a>
</g>
</g>
<!-- Node1&#45;&gt;Node7 -->
<g id="edge6_Node000001_Node000007" class="edge">
<title>Node1&#45;&gt;Node7</title>
<g id="a_edge6_Node000001_Node000007"><a xlink:title=" ">
<path fill="none" stroke="#63b8ff" d="M217.79,-54.08C250.36,-45.27 301.03,-31.55 337.01,-21.82"/>
<polygon fill="#63b8ff" stroke="#63b8ff" points="337.47,-25.32 346.21,-19.33 335.64,-18.56 337.47,-25.32"/>
</a>
</g>
</g>
</g>
</svg>
</svg>

<style type='text/css'>
<![CDATA[
[data-mouse-over-selected='false'] { opacity: 0.7; }
[data-mouse-over-selected='true']  { opacity: 1.0; }
]]>
</style>
<script type="application/ecmascript"><![CDATA[
document.addEventListener('DOMContentLoaded', (event) => {
  highlightEdges();
  highlightAdjacentNodes();
});
]]></script>
</svg>
