<?xml version="1.0" encoding="UTF-8" standalone="no"?>
<!DOCTYPE svg PUBLIC "-//W3C//DTD SVG 1.1//EN"
 "http://www.w3.org/Graphics/SVG/1.1/DTD/svg11.dtd">
<!-- Generated by graphviz version 10.0.1 (0)
 -->
<!-- Title: cuda_utils.cu Pages: 1 -->
<svg width="581pt" height="146pt"
 viewBox="0.00 0.00 580.50 146.00" xmlns="http://www.w3.org/2000/svg" xmlns:xlink="http://www.w3.org/1999/xlink">
<g id="graph0" class="graph" transform="scale(1 1) rotate(0) translate(4 142)">
<title>cuda_utils.cu</title>
<!-- Node1 -->
<g id="Node000001" class="node">
<title>Node1</title>
<g id="a_Node000001"><a xlink:title="Functions for CUDA utilities based on NVIDIA&#39;s CUDA Helper Library See: extern/cuda_helpers/helper_cu...">
<polygon fill="#999999" stroke="#666666" points="231.25,-138 157.5,-138 157.5,-119.5 231.25,-119.5 231.25,-138"/>
<text text-anchor="middle" x="194.38" y="-124.5" font-family="Helvetica,sans-Serif" font-size="10.00">cuda_utils.cu</text>
</a>
</g>
</g>
<!-- Node2 -->
<g id="Node000002" class="node">
<title>Node2</title>
<g id="a_Node000002"><a xlink:title=" ">
<polygon fill="#e0e0e0" stroke="#999999" points="82.75,-78.25 0,-78.25 0,-59.75 82.75,-59.75 82.75,-78.25"/>
<text text-anchor="middle" x="41.38" y="-64.75" font-family="Helvetica,sans-Serif" font-size="10.00">cuda_runtime.h</text>
</a>
</g>
</g>
<!-- Node1&#45;&gt;Node2 -->
<g id="edge1_Node000001_Node000002" class="edge">
<title>Node1&#45;&gt;Node2</title>
<g id="a_edge1_Node000001_Node000002"><a xlink:title=" ">
<path fill="none" stroke="#63b8ff" d="M171.47,-119.1C145.89,-109.45 104.26,-93.73 74.99,-82.69"/>
<polygon fill="#63b8ff" stroke="#63b8ff" points="76.44,-79.5 65.85,-79.24 73.97,-86.05 76.44,-79.5"/>
</a>
</g>
</g>
<!-- Node3 -->
<g id="Node000003" class="node">
<title>Node3</title>
<g id="a_Node000003"><a xlink:title=" ">
<polygon fill="#e0e0e0" stroke="#999999" points="94.12,-18.5 40.62,-18.5 40.62,0 94.12,0 94.12,-18.5"/>
<text text-anchor="middle" x="67.38" y="-5" font-family="Helvetica,sans-Serif" font-size="10.00">iostream</text>
</a>
</g>
</g>
<!-- Node1&#45;&gt;Node3 -->
<g id="edge2_Node000001_Node000003" class="edge">
<title>Node1&#45;&gt;Node3</title>
<g id="a_edge2_Node000001_Node000003"><a xlink:title=" ">
<path fill="none" stroke="#63b8ff" d="M179.35,-119.13C165.61,-110.89 145.1,-97.66 129.38,-83.5 110.28,-66.31 91.69,-43.25 79.93,-27.63"/>
<polygon fill="#63b8ff" stroke="#63b8ff" points="82.9,-25.76 74.15,-19.79 77.27,-29.92 82.9,-25.76"/>
</a>
</g>
</g>
<!-- Node4 -->
<g id="Node000004" class="node">
<title>Node4</title>
<g id="a_Node000004"><a xlink:href="cuda__utils_8h.html" target="_top" xlink:title="Utility functions for CUDA.">
<polygon fill="white" stroke="#666666" points="250.75,-83.5 138,-83.5 138,-54.5 250.75,-54.5 250.75,-83.5"/>
<text text-anchor="start" x="146" y="-70" font-family="Helvetica,sans-Serif" font-size="10.00">CoverageControl/cuda</text>
<text text-anchor="middle" x="194.38" y="-59.5" font-family="Helvetica,sans-Serif" font-size="10.00">_utils.h</text>
</a>
</g>
</g>
<!-- Node1&#45;&gt;Node4 -->
<g id="edge3_Node000001_Node000004" class="edge">
<title>Node1&#45;&gt;Node4</title>
<g id="a_edge3_Node000001_Node000004"><a xlink:title=" ">
<path fill="none" stroke="#63b8ff" d="M194.38,-119.23C194.38,-112.92 194.38,-103.96 194.38,-95.42"/>
<polygon fill="#63b8ff" stroke="#63b8ff" points="197.88,-95.45 194.38,-85.45 190.88,-95.45 197.88,-95.45"/>
</a>
</g>
</g>
<!-- Node10 -->
<g id="Node000010" class="node">
<title>Node10</title>
<g id="a_Node000010"><a xlink:title=" ">
<polygon fill="#e0e0e0" stroke="#999999" points="410,-83.5 268.75,-83.5 268.75,-54.5 410,-54.5 410,-83.5"/>
<text text-anchor="start" x="276.75" y="-70" font-family="Helvetica,sans-Serif" font-size="10.00">CoverageControl/extern</text>
<text text-anchor="middle" x="339.38" y="-59.5" font-family="Helvetica,sans-Serif" font-size="10.00">/cuda_helpers/helper_cuda.h</text>
</a>
</g>
</g>
<!-- Node1&#45;&gt;Node10 -->
<g id="edge10_Node000001_Node000010" class="edge">
<title>Node1&#45;&gt;Node10</title>
<g id="a_edge10_Node000001_Node000010"><a xlink:title=" ">
<path fill="none" stroke="#63b8ff" d="M216.08,-119.1C236.57,-110.95 267.92,-98.46 293.88,-88.12"/>
<polygon fill="#63b8ff" stroke="#63b8ff" points="294.87,-91.49 302.86,-84.54 292.28,-84.99 294.87,-91.49"/>
</a>
</g>
</g>
<!-- Node11 -->
<g id="Node000011" class="node">
<title>Node11</title>
<g id="a_Node000011"><a xlink:title=" ">
<polygon fill="#e0e0e0" stroke="#999999" points="572.5,-83.5 428.25,-83.5 428.25,-54.5 572.5,-54.5 572.5,-83.5"/>
<text text-anchor="start" x="436.25" y="-70" font-family="Helvetica,sans-Serif" font-size="10.00">CoverageControl/extern</text>
<text text-anchor="middle" x="500.38" y="-59.5" font-family="Helvetica,sans-Serif" font-size="10.00">/cuda_helpers/helper_string.h</text>
</a>
</g>
</g>
<!-- Node1&#45;&gt;Node11 -->
<g id="edge11_Node000001_Node000011" class="edge">
<title>Node1&#45;&gt;Node11</title>
<g id="a_edge11_Node000001_Node000011"><a xlink:title=" ">
<path fill="none" stroke="#63b8ff" d="M231.59,-120.73C277.32,-112.1 356.29,-97.19 416.84,-85.77"/>
<polygon fill="#63b8ff" stroke="#63b8ff" points="417.25,-89.25 426.43,-83.96 415.96,-82.37 417.25,-89.25"/>
</a>
</g>
</g>
<!-- Node4&#45;&gt;Node3 -->
<g id="edge4_Node000004_Node000003" class="edge">
<title>Node4&#45;&gt;Node3</title>
<g id="a_edge4_Node000004_Node000003"><a xlink:title=" ">
<path fill="none" stroke="#63b8ff" d="M163.63,-54.02C143.32,-44.78 116.84,-32.74 96.8,-23.63"/>
<polygon fill="#63b8ff" stroke="#63b8ff" points="98.33,-20.48 87.78,-19.53 95.44,-26.86 98.33,-20.48"/>
</a>
</g>
</g>
<!-- Node5 -->
<g id="Node000005" class="node">
<title>Node5</title>
<g id="a_Node000005"><a xlink:title=" ">
<polygon fill="#e0e0e0" stroke="#999999" points="151,-18.5 111.75,-18.5 111.75,0 151,0 151,-18.5"/>
<text text-anchor="middle" x="131.38" y="-5" font-family="Helvetica,sans-Serif" font-size="10.00">limits</text>
</a>
</g>
</g>
<!-- Node4&#45;&gt;Node5 -->
<g id="edge5_Node000004_Node000005" class="edge">
<title>Node4&#45;&gt;Node5</title>
<g id="a_edge5_Node000004_Node000005"><a xlink:title=" ">
<path fill="none" stroke="#63b8ff" d="M179.12,-54.02C170.07,-45.72 158.56,-35.17 149.1,-26.5"/>
<polygon fill="#63b8ff" stroke="#63b8ff" points="151.67,-24.1 141.93,-19.93 146.94,-29.26 151.67,-24.1"/>
</a>
</g>
</g>
<!-- Node6 -->
<g id="Node000006" class="node">
<title>Node6</title>
<g id="a_Node000006"><a xlink:title=" ">
<polygon fill="#e0e0e0" stroke="#999999" points="220,-18.5 168.75,-18.5 168.75,0 220,0 220,-18.5"/>
<text text-anchor="middle" x="194.38" y="-5" font-family="Helvetica,sans-Serif" font-size="10.00">sstream</text>
</a>
</g>
</g>
<!-- Node4&#45;&gt;Node6 -->
<g id="edge6_Node000004_Node000006" class="edge">
<title>Node4&#45;&gt;Node6</title>
<g id="a_edge6_Node000004_Node000006"><a xlink:title=" ">
<path fill="none" stroke="#63b8ff" d="M194.38,-54.02C194.38,-46.92 194.38,-38.17 194.38,-30.36"/>
<polygon fill="#63b8ff" stroke="#63b8ff" points="197.88,-30.42 194.38,-20.42 190.88,-30.42 197.88,-30.42"/>
</a>
</g>
</g>
<!-- Node7 -->
<g id="Node000007" class="node">
<title>Node7</title>
<g id="a_Node000007"><a xlink:title=" ">
<polygon fill="#e0e0e0" stroke="#999999" points="278.38,-18.5 238.38,-18.5 238.38,0 278.38,0 278.38,-18.5"/>
<text text-anchor="middle" x="258.38" y="-5" font-family="Helvetica,sans-Serif" font-size="10.00">string</text>
</a>
</g>
</g>
<!-- Node4&#45;&gt;Node7 -->
<g id="edge7_Node000004_Node000007" class="edge">
<title>Node4&#45;&gt;Node7</title>
<g id="a_edge7_Node000004_Node000007"><a xlink:title=" ">
<path fill="none" stroke="#63b8ff" d="M209.87,-54.02C219.06,-45.72 230.76,-35.17 240.37,-26.5"/>
<polygon fill="#63b8ff" stroke="#63b8ff" points="242.58,-29.22 247.66,-19.92 237.89,-24.02 242.58,-29.22"/>
</a>
</g>
</g>
<!-- Node8 -->
<g id="Node000008" class="node">
<title>Node8</title>
<g id="a_Node000008"><a xlink:title=" ">
<polygon fill="#e0e0e0" stroke="#999999" points="338.5,-18.5 296.25,-18.5 296.25,0 338.5,0 338.5,-18.5"/>
<text text-anchor="middle" x="317.38" y="-5" font-family="Helvetica,sans-Serif" font-size="10.00">vector</text>
</a>
</g>
</g>
<!-- Node4&#45;&gt;Node8 -->
<g id="edge8_Node000004_Node000008" class="edge">
<title>Node4&#45;&gt;Node8</title>
<g id="a_edge8_Node000004_Node000008"><a xlink:title=" ">
<path fill="none" stroke="#63b8ff" d="M224.15,-54.02C243.74,-44.82 269.23,-32.85 288.61,-23.76"/>
<polygon fill="#63b8ff" stroke="#63b8ff" points="290.01,-26.97 297.57,-19.55 287.03,-20.63 290.01,-26.97"/>
</a>
</g>
</g>
<!-- Node9 -->
<g id="Node000009" class="node">
<title>Node9</title>
<g id="a_Node000009"><a xlink:title=" ">
<polygon fill="#e0e0e0" stroke="#999999" points="484.62,-18.5 356.12,-18.5 356.12,0 484.62,0 484.62,-18.5"/>
<text text-anchor="middle" x="420.38" y="-5" font-family="Helvetica,sans-Serif" font-size="10.00">CoverageControl/Config.h</text>
</a>
</g>
</g>
<!-- Node4&#45;&gt;Node9 -->
<g id="edge9_Node000004_Node000009" class="edge">
<title>Node4&#45;&gt;Node9</title>
<g id="a_edge9_Node000004_Node000009"><a xlink:title=" ">
<path fill="none" stroke="#63b8ff" d="M249.08,-54.02C287.8,-44.13 339.08,-31.02 375.41,-21.74"/>
<polygon fill="#63b8ff" stroke="#63b8ff" points="375.89,-25.23 384.71,-19.36 374.16,-18.45 375.89,-25.23"/>
</a>
</g>
</g>
</g>
</svg>
