<?xml version="1.0" encoding="UTF-8" standalone="no"?>
<!DOCTYPE svg PUBLIC "-//W3C//DTD SVG 1.1//EN"
 "http://www.w3.org/Graphics/SVG/1.1/DTD/svg11.dtd">
<!-- Generated by graphviz version 10.0.1 (0)
 -->
<!-- Title: cuda_utils.cpp Pages: 1 -->
<svg width="394pt" height="146pt"
 viewBox="0.00 0.00 394.38 146.00" xmlns="http://www.w3.org/2000/svg" xmlns:xlink="http://www.w3.org/1999/xlink">
<g id="graph0" class="graph" transform="scale(1 1) rotate(0) translate(4 142)">
<title>cuda_utils.cpp</title>
<!-- Node1 -->
<g id="Node000001" class="node">
<title>Node1</title>
<g id="a_Node000001"><a xlink:title=" ">
<polygon fill="#999999" stroke="#666666" points="276.75,-138 197.75,-138 197.75,-119.5 276.75,-119.5 276.75,-138"/>
<text text-anchor="middle" x="237.25" y="-124.5" font-family="Helvetica,sans-Serif" font-size="10.00">cuda_utils.cpp</text>
</a>
</g>
</g>
<!-- Node2 -->
<g id="Node000002" class="node">
<title>Node2</title>
<g id="a_Node000002"><a xlink:href="cuda__utils_8h.html" target="_top" xlink:title="Utility functions for CUDA.">
<polygon fill="white" stroke="#666666" points="293.62,-83.5 180.88,-83.5 180.88,-54.5 293.62,-54.5 293.62,-83.5"/>
<text text-anchor="start" x="188.88" y="-70" font-family="Helvetica,sans-Serif" font-size="10.00">CoverageControl/cuda</text>
<text text-anchor="middle" x="237.25" y="-59.5" font-family="Helvetica,sans-Serif" font-size="10.00">_utils.h</text>
</a>
</g>
</g>
<!-- Node1&#45;&gt;Node2 -->
<g id="edge1_Node000001_Node000002" class="edge">
<title>Node1&#45;&gt;Node2</title>
<g id="a_edge1_Node000001_Node000002"><a xlink:title=" ">
<path fill="none" stroke="#63b8ff" d="M237.25,-119.23C237.25,-112.92 237.25,-103.96 237.25,-95.42"/>
<polygon fill="#63b8ff" stroke="#63b8ff" points="240.75,-95.45 237.25,-85.45 233.75,-95.45 240.75,-95.45"/>
</a>
</g>
</g>
<!-- Node3 -->
<g id="Node000003" class="node">
<title>Node3</title>
<g id="a_Node000003"><a xlink:title=" ">
<polygon fill="#e0e0e0" stroke="#999999" points="128.5,-18.5 0,-18.5 0,0 128.5,0 128.5,-18.5"/>
<text text-anchor="middle" x="64.25" y="-5" font-family="Helvetica,sans-Serif" font-size="10.00">CoverageControl/Config.h</text>
</a>
</g>
</g>
<!-- Node2&#45;&gt;Node3 -->
<g id="edge2_Node000002_Node000003" class="edge">
<title>Node2&#45;&gt;Node3</title>
<g id="a_edge2_Node000002_Node000003"><a xlink:title=" ">
<path fill="none" stroke="#63b8ff" d="M195.37,-54.02C166.63,-44.43 128.84,-31.81 101.22,-22.59"/>
<polygon fill="#63b8ff" stroke="#63b8ff" points="102.46,-19.31 91.86,-19.47 100.24,-25.95 102.46,-19.31"/>
</a>
</g>
</g>
<!-- Node4 -->
<g id="Node000004" class="node">
<title>Node4</title>
<g id="a_Node000004"><a xlink:title=" ">
<polygon fill="#e0e0e0" stroke="#999999" points="200,-18.5 146.5,-18.5 146.5,0 200,0 200,-18.5"/>
<text text-anchor="middle" x="173.25" y="-5" font-family="Helvetica,sans-Serif" font-size="10.00">iostream</text>
</a>
</g>
</g>
<!-- Node2&#45;&gt;Node4 -->
<g id="edge3_Node000002_Node000004" class="edge">
<title>Node2&#45;&gt;Node4</title>
<g id="a_edge3_Node000002_Node000004"><a xlink:title=" ">
<path fill="none" stroke="#63b8ff" d="M221.76,-54.02C212.56,-45.72 200.86,-35.17 191.26,-26.5"/>
<polygon fill="#63b8ff" stroke="#63b8ff" points="193.73,-24.02 183.96,-19.92 189.04,-29.22 193.73,-24.02"/>
</a>
</g>
</g>
<!-- Node5 -->
<g id="Node000005" class="node">
<title>Node5</title>
<g id="a_Node000005"><a xlink:title=" ">
<polygon fill="#e0e0e0" stroke="#999999" points="256.88,-18.5 217.62,-18.5 217.62,0 256.88,0 256.88,-18.5"/>
<text text-anchor="middle" x="237.25" y="-5" font-family="Helvetica,sans-Serif" font-size="10.00">limits</text>
</a>
</g>
</g>
<!-- Node2&#45;&gt;Node5 -->
<g id="edge4_Node000002_Node000005" class="edge">
<title>Node2&#45;&gt;Node5</title>
<g id="a_edge4_Node000002_Node000005"><a xlink:title=" ">
<path fill="none" stroke="#63b8ff" d="M237.25,-54.02C237.25,-46.92 237.25,-38.17 237.25,-30.36"/>
<polygon fill="#63b8ff" stroke="#63b8ff" points="240.75,-30.42 237.25,-20.42 233.75,-30.42 240.75,-30.42"/>
</a>
</g>
</g>
<!-- Node6 -->
<g id="Node000006" class="node">
<title>Node6</title>
<g id="a_Node000006"><a xlink:title=" ">
<polygon fill="#e0e0e0" stroke="#999999" points="325.88,-18.5 274.62,-18.5 274.62,0 325.88,0 325.88,-18.5"/>
<text text-anchor="middle" x="300.25" y="-5" font-family="Helvetica,sans-Serif" font-size="10.00">sstream</text>
</a>
</g>
</g>
<!-- Node2&#45;&gt;Node6 -->
<g id="edge5_Node000002_Node000006" class="edge">
<title>Node2&#45;&gt;Node6</title>
<g id="a_edge5_Node000002_Node000006"><a xlink:title=" ">
<path fill="none" stroke="#63b8ff" d="M252.5,-54.02C261.55,-45.72 273.07,-35.17 282.52,-26.5"/>
<polygon fill="#63b8ff" stroke="#63b8ff" points="284.69,-29.26 289.69,-19.93 279.96,-24.1 284.69,-29.26"/>
</a>
</g>
</g>
<!-- Node7 -->
<g id="Node000007" class="node">
<title>Node7</title>
<g id="a_Node000007"><a xlink:title=" ">
<polygon fill="#e0e0e0" stroke="#999999" points="386.38,-18.5 344.12,-18.5 344.12,0 386.38,0 386.38,-18.5"/>
<text text-anchor="middle" x="365.25" y="-5" font-family="Helvetica,sans-Serif" font-size="10.00">vector</text>
</a>
</g>
</g>
<!-- Node2&#45;&gt;Node7 -->
<g id="edge6_Node000002_Node000007" class="edge">
<title>Node2&#45;&gt;Node7</title>
<g id="a_edge6_Node000002_Node000007"><a xlink:title=" ">
<path fill="none" stroke="#63b8ff" d="M268.24,-54.02C288.71,-44.78 315.4,-32.74 335.6,-23.63"/>
<polygon fill="#63b8ff" stroke="#63b8ff" points="337.01,-26.83 344.69,-19.53 334.14,-20.45 337.01,-26.83"/>
</a>
</g>
</g>
</g>
</svg>
