<?xml version="1.0" encoding="UTF-8" standalone="no"?>
<!DOCTYPE svg PUBLIC "-//W3C//DTD SVG 1.1//EN"
 "http://www.w3.org/Graphics/SVG/1.1/DTD/svg11.dtd">
<!-- Generated by graphviz version 12.1.2 (0)
 -->
<!-- Title: cuda_utils.cpp Pages: 1 -->
<svg width="395pt" height="146pt"
 viewBox="0.00 0.00 395.00 146.00" xmlns="http://www.w3.org/2000/svg" xmlns:xlink="http://www.w3.org/1999/xlink">
<g id="graph0" class="graph" transform="scale(1 1) rotate(0) translate(4 142)">
<title>cuda_utils.cpp</title>
<!-- Node1 -->
<g id="Node000001" class="node">
<title>Node1</title>
<g id="a_Node000001"><a xlink:title=" ">
<polygon fill="#999999" stroke="#666666" points="200.25,-138 121.25,-138 121.25,-119.5 200.25,-119.5 200.25,-138"/>
<text text-anchor="middle" x="160.75" y="-124.5" font-family="Helvetica,sans-Serif" font-size="10.00">cuda_utils.cpp</text>
</a>
</g>
</g>
<!-- Node2 -->
<g id="Node000002" class="node">
<title>Node2</title>
<g id="a_Node000002"><a xlink:href="cuda__utils_8h.html" target="_top" xlink:title="Utility functions for CUDA.">
<polygon fill="white" stroke="#666666" points="217.12,-83.5 104.38,-83.5 104.38,-54.5 217.12,-54.5 217.12,-83.5"/>
<text text-anchor="start" x="112.38" y="-70" font-family="Helvetica,sans-Serif" font-size="10.00">CoverageControl/cuda</text>
<text text-anchor="middle" x="160.75" y="-59.5" font-family="Helvetica,sans-Serif" font-size="10.00">_utils.h</text>
</a>
</g>
</g>
<!-- Node1&#45;&gt;Node2 -->
<g id="edge1_Node000001_Node000002" class="edge">
<title>Node1&#45;&gt;Node2</title>
<g id="a_edge1_Node000001_Node000002"><a xlink:title=" ">
<path fill="none" stroke="#63b8ff" d="M160.75,-119.23C160.75,-112.92 160.75,-103.96 160.75,-95.42"/>
<polygon fill="#63b8ff" stroke="#63b8ff" points="164.25,-95.45 160.75,-85.45 157.25,-95.45 164.25,-95.45"/>
</a>
</g>
</g>
<!-- Node3 -->
<g id="Node000003" class="node">
<title>Node3</title>
<g id="a_Node000003"><a xlink:title=" ">
<polygon fill="#e0e0e0" stroke="#999999" points="53.5,-18.5 0,-18.5 0,0 53.5,0 53.5,-18.5"/>
<text text-anchor="middle" x="26.75" y="-5" font-family="Helvetica,sans-Serif" font-size="10.00">iostream</text>
</a>
</g>
</g>
<!-- Node2&#45;&gt;Node3 -->
<g id="edge2_Node000002_Node000003" class="edge">
<title>Node2&#45;&gt;Node3</title>
<g id="a_edge2_Node000002_Node000003"><a xlink:title=" ">
<path fill="none" stroke="#63b8ff" d="M128.31,-54.02C106.68,-44.7 78.42,-32.52 57.21,-23.38"/>
<polygon fill="#63b8ff" stroke="#63b8ff" points="58.79,-20.25 48.22,-19.5 56.02,-26.67 58.79,-20.25"/>
</a>
</g>
</g>
<!-- Node4 -->
<g id="Node000004" class="node">
<title>Node4</title>
<g id="a_Node000004"><a xlink:title=" ">
<polygon fill="#e0e0e0" stroke="#999999" points="122.38,-18.5 71.12,-18.5 71.12,0 122.38,0 122.38,-18.5"/>
<text text-anchor="middle" x="96.75" y="-5" font-family="Helvetica,sans-Serif" font-size="10.00">sstream</text>
</a>
</g>
</g>
<!-- Node2&#45;&gt;Node4 -->
<g id="edge3_Node000002_Node000004" class="edge">
<title>Node2&#45;&gt;Node4</title>
<g id="a_edge3_Node000002_Node000004"><a xlink:title=" ">
<path fill="none" stroke="#63b8ff" d="M145.26,-54.02C136.06,-45.72 124.36,-35.17 114.76,-26.5"/>
<polygon fill="#63b8ff" stroke="#63b8ff" points="117.23,-24.02 107.46,-19.92 112.54,-29.22 117.23,-24.02"/>
</a>
</g>
</g>
<!-- Node5 -->
<g id="Node000005" class="node">
<title>Node5</title>
<g id="a_Node000005"><a xlink:title=" ">
<polygon fill="#e0e0e0" stroke="#999999" points="180.75,-18.5 140.75,-18.5 140.75,0 180.75,0 180.75,-18.5"/>
<text text-anchor="middle" x="160.75" y="-5" font-family="Helvetica,sans-Serif" font-size="10.00">string</text>
</a>
</g>
</g>
<!-- Node2&#45;&gt;Node5 -->
<g id="edge4_Node000002_Node000005" class="edge">
<title>Node2&#45;&gt;Node5</title>
<g id="a_edge4_Node000002_Node000005"><a xlink:title=" ">
<path fill="none" stroke="#63b8ff" d="M160.75,-54.02C160.75,-46.92 160.75,-38.17 160.75,-30.36"/>
<polygon fill="#63b8ff" stroke="#63b8ff" points="164.25,-30.42 160.75,-20.42 157.25,-30.42 164.25,-30.42"/>
</a>
</g>
</g>
<!-- Node6 -->
<g id="Node000006" class="node">
<title>Node6</title>
<g id="a_Node000006"><a xlink:title=" ">
<polygon fill="#e0e0e0" stroke="#999999" points="240.88,-18.5 198.62,-18.5 198.62,0 240.88,0 240.88,-18.5"/>
<text text-anchor="middle" x="219.75" y="-5" font-family="Helvetica,sans-Serif" font-size="10.00">vector</text>
</a>
</g>
</g>
<!-- Node2&#45;&gt;Node6 -->
<g id="edge5_Node000002_Node000006" class="edge">
<title>Node2&#45;&gt;Node6</title>
<g id="a_edge5_Node000002_Node000006"><a xlink:title=" ">
<path fill="none" stroke="#63b8ff" d="M175.03,-54.02C183.42,-45.81 194.07,-35.38 202.88,-26.77"/>
<polygon fill="#63b8ff" stroke="#63b8ff" points="205.13,-29.46 209.83,-19.96 200.23,-24.46 205.13,-29.46"/>
</a>
</g>
</g>
<!-- Node7 -->
<g id="Node000007" class="node">
<title>Node7</title>
<g id="a_Node000007"><a xlink:title=" ">
<polygon fill="#e0e0e0" stroke="#999999" points="387,-18.5 258.5,-18.5 258.5,0 387,0 387,-18.5"/>
<text text-anchor="middle" x="322.75" y="-5" font-family="Helvetica,sans-Serif" font-size="10.00">CoverageControl/Config.h</text>
</a>
</g>
</g>
<!-- Node2&#45;&gt;Node7 -->
<g id="edge6_Node000002_Node000007" class="edge">
<title>Node2&#45;&gt;Node7</title>
<g id="a_edge6_Node000002_Node000007"><a xlink:title=" ">
<path fill="none" stroke="#63b8ff" d="M199.97,-54.02C226.72,-44.48 261.85,-31.96 287.68,-22.75"/>
<polygon fill="#63b8ff" stroke="#63b8ff" points="288.81,-26.07 297.05,-19.41 286.45,-19.47 288.81,-26.07"/>
</a>
</g>
</g>
</g>
</svg>
