<?xml version="1.0" encoding="UTF-8" standalone="no"?>
<!DOCTYPE svg PUBLIC "-//W3C//DTD SVG 1.1//EN"
 "http://www.w3.org/Graphics/SVG/1.1/DTD/svg11.dtd">
<!-- Generated by graphviz version 12.1.2 (0)
 -->
<!-- Title: cuda_utils.h Pages: 1 -->
<svg width="395pt" height="81pt"
 viewBox="0.00 0.00 395.00 81.00" xmlns="http://www.w3.org/2000/svg" xmlns:xlink="http://www.w3.org/1999/xlink">
<g id="graph0" class="graph" transform="scale(1 1) rotate(0) translate(4 77)">
<title>cuda_utils.h</title>
<!-- Node1 -->
<g id="Node000001" class="node">
<title>Node1</title>
<g id="a_Node000001"><a xlink:title="Utility functions for CUDA.">
<polygon fill="#999999" stroke="#666666" points="195,-73 126.5,-73 126.5,-54.5 195,-54.5 195,-73"/>
<text text-anchor="middle" x="160.75" y="-59.5" font-family="Helvetica,sans-Serif" font-size="10.00">cuda_utils.h</text>
</a>
</g>
</g>
<!-- Node2 -->
<g id="Node000002" class="node">
<title>Node2</title>
<g id="a_Node000002"><a xlink:title=" ">
<polygon fill="#e0e0e0" stroke="#999999" points="53.5,-18.5 0,-18.5 0,0 53.5,0 53.5,-18.5"/>
<text text-anchor="middle" x="26.75" y="-5" font-family="Helvetica,sans-Serif" font-size="10.00">iostream</text>
</a>
</g>
</g>
<!-- Node1&#45;&gt;Node2 -->
<g id="edge1_Node000001_Node000002" class="edge">
<title>Node1&#45;&gt;Node2</title>
<g id="a_edge1_Node000001_Node000002"><a xlink:title=" ">
<path fill="none" stroke="#63b8ff" d="M138.62,-54.08C117.09,-45.65 84.12,-32.73 59.54,-23.1"/>
<polygon fill="#63b8ff" stroke="#63b8ff" points="60.91,-19.87 50.32,-19.48 58.35,-26.39 60.91,-19.87"/>
</a>
</g>
</g>
<!-- Node3 -->
<g id="Node000003" class="node">
<title>Node3</title>
<g id="a_Node000003"><a xlink:title=" ">
<polygon fill="#e0e0e0" stroke="#999999" points="122.38,-18.5 71.12,-18.5 71.12,0 122.38,0 122.38,-18.5"/>
<text text-anchor="middle" x="96.75" y="-5" font-family="Helvetica,sans-Serif" font-size="10.00">sstream</text>
</a>
</g>
</g>
<!-- Node1&#45;&gt;Node3 -->
<g id="edge2_Node000001_Node000003" class="edge">
<title>Node1&#45;&gt;Node3</title>
<g id="a_edge2_Node000001_Node000003"><a xlink:title=" ">
<path fill="none" stroke="#63b8ff" d="M150.18,-54.08C140.86,-46.44 127.05,-35.11 115.81,-25.88"/>
<polygon fill="#63b8ff" stroke="#63b8ff" points="118.24,-23.35 108.29,-19.72 113.8,-28.77 118.24,-23.35"/>
</a>
</g>
</g>
<!-- Node4 -->
<g id="Node000004" class="node">
<title>Node4</title>
<g id="a_Node000004"><a xlink:title=" ">
<polygon fill="#e0e0e0" stroke="#999999" points="180.75,-18.5 140.75,-18.5 140.75,0 180.75,0 180.75,-18.5"/>
<text text-anchor="middle" x="160.75" y="-5" font-family="Helvetica,sans-Serif" font-size="10.00">string</text>
</a>
</g>
</g>
<!-- Node1&#45;&gt;Node4 -->
<g id="edge3_Node000001_Node000004" class="edge">
<title>Node1&#45;&gt;Node4</title>
<g id="a_edge3_Node000001_Node000004"><a xlink:title=" ">
<path fill="none" stroke="#63b8ff" d="M160.75,-54.08C160.75,-47.58 160.75,-38.42 160.75,-30.16"/>
<polygon fill="#63b8ff" stroke="#63b8ff" points="164.25,-30.27 160.75,-20.27 157.25,-30.27 164.25,-30.27"/>
</a>
</g>
</g>
<!-- Node5 -->
<g id="Node000005" class="node">
<title>Node5</title>
<g id="a_Node000005"><a xlink:title=" ">
<polygon fill="#e0e0e0" stroke="#999999" points="240.88,-18.5 198.62,-18.5 198.62,0 240.88,0 240.88,-18.5"/>
<text text-anchor="middle" x="219.75" y="-5" font-family="Helvetica,sans-Serif" font-size="10.00">vector</text>
</a>
</g>
</g>
<!-- Node1&#45;&gt;Node5 -->
<g id="edge4_Node000001_Node000005" class="edge">
<title>Node1&#45;&gt;Node5</title>
<g id="a_edge4_Node000001_Node000005"><a xlink:title=" ">
<path fill="none" stroke="#63b8ff" d="M170.49,-54.08C179,-46.51 191.56,-35.33 201.87,-26.16"/>
<polygon fill="#63b8ff" stroke="#63b8ff" points="203.91,-29.03 209.06,-19.76 199.26,-23.8 203.91,-29.03"/>
</a>
</g>
</g>
<!-- Node6 -->
<g id="Node000006" class="node">
<title>Node6</title>
<g id="a_Node000006"><a xlink:title=" ">
<polygon fill="#e0e0e0" stroke="#999999" points="387,-18.5 258.5,-18.5 258.5,0 387,0 387,-18.5"/>
<text text-anchor="middle" x="322.75" y="-5" font-family="Helvetica,sans-Serif" font-size="10.00">CoverageControl/Config.h</text>
</a>
</g>
</g>
<!-- Node1&#45;&gt;Node6 -->
<g id="edge5_Node000001_Node000006" class="edge">
<title>Node1&#45;&gt;Node6</title>
<g id="a_edge5_Node000001_Node000006"><a xlink:title=" ">
<path fill="none" stroke="#63b8ff" d="M187.5,-54.08C214.12,-45.46 255.2,-32.14 285.1,-22.45"/>
<polygon fill="#63b8ff" stroke="#63b8ff" points="286.09,-25.81 294.52,-19.4 283.93,-19.15 286.09,-25.81"/>
</a>
</g>
</g>
</g>
</svg>
