<?xml version="1.0" encoding="UTF-8" standalone="no"?>
<!DOCTYPE svg PUBLIC "-//W3C//DTD SVG 1.1//EN"
 "http://www.w3.org/Graphics/SVG/1.1/DTD/svg11.dtd">
<!-- Generated by graphviz version 10.0.1 (0)
 -->
<!-- Title: cuda_utils.h Pages: 1 -->
<svg width="394pt" height="81pt"
 viewBox="0.00 0.00 394.38 81.00" xmlns="http://www.w3.org/2000/svg" xmlns:xlink="http://www.w3.org/1999/xlink">

<svg id="main" version="1.1" xmlns="http://www.w3.org/2000/svg" xmlns:xlink="http://www.w3.org/1999/xlink" xml:space="preserve" onload="init(evt)">
<style type="text/css"><![CDATA[
.node, .edge {opacity: 0.7;}
.node.selected, .edge.selected {opacity: 1;}
.edge:hover path { stroke: red; }
.edge:hover polygon { stroke: red; fill: red; }
]]></style>
<script type="application/ecmascript" xlink:href="svg.min.js"/>
<svg id="graph" class="graph">
<g id="graph0" class="graph" transform="scale(1 1) rotate(0) translate(4 77)">
<title>cuda_utils.h</title>
<!-- Node1 -->
<g id="Node000001" class="node">
<title>Node1</title>
<g id="a_Node000001"><a xlink:title="Utility functions for CUDA.">
<polygon fill="#999999" stroke="#666666" points="271.5,-73 203,-73 203,-54.5 271.5,-54.5 271.5,-73"/>
<text text-anchor="middle" x="237.25" y="-59.5" font-family="Helvetica,sans-Serif" font-size="10.00">cuda_utils.h</text>
</a>
</g>
</g>
<!-- Node2 -->
<g id="Node000002" class="node">
<title>Node2</title>
<g id="a_Node000002"><a xlink:title=" ">
<polygon fill="#e0e0e0" stroke="#999999" points="128.5,-18.5 0,-18.5 0,0 128.5,0 128.5,-18.5"/>
<text text-anchor="middle" x="64.25" y="-5" font-family="Helvetica,sans-Serif" font-size="10.00">CoverageControl/Config.h</text>
</a>
</g>
</g>
<!-- Node1&#45;&gt;Node2 -->
<g id="edge1_Node000001_Node000002" class="edge">
<title>Node1&#45;&gt;Node2</title>
<g id="a_edge1_Node000001_Node000002"><a xlink:title=" ">
<path fill="none" stroke="#63b8ff" d="M208.68,-54.08C180.01,-45.38 135.62,-31.91 103.62,-22.2"/>
<polygon fill="#63b8ff" stroke="#63b8ff" points="104.89,-18.93 94.31,-19.37 102.86,-25.62 104.89,-18.93"/>
</a>
</g>
</g>
<!-- Node3 -->
<g id="Node000003" class="node">
<title>Node3</title>
<g id="a_Node000003"><a xlink:title=" ">
<polygon fill="#e0e0e0" stroke="#999999" points="200,-18.5 146.5,-18.5 146.5,0 200,0 200,-18.5"/>
<text text-anchor="middle" x="173.25" y="-5" font-family="Helvetica,sans-Serif" font-size="10.00">iostream</text>
</a>
</g>
</g>
<!-- Node1&#45;&gt;Node3 -->
<g id="edge2_Node000001_Node000003" class="edge">
<title>Node1&#45;&gt;Node3</title>
<g id="a_edge2_Node000001_Node000003"><a xlink:title=" ">
<path fill="none" stroke="#63b8ff" d="M226.68,-54.08C217.36,-46.44 203.55,-35.11 192.31,-25.88"/>
<polygon fill="#63b8ff" stroke="#63b8ff" points="194.74,-23.35 184.79,-19.72 190.3,-28.77 194.74,-23.35"/>
</a>
</g>
</g>
<!-- Node4 -->
<g id="Node000004" class="node">
<title>Node4</title>
<g id="a_Node000004"><a xlink:title=" ">
<polygon fill="#e0e0e0" stroke="#999999" points="256.88,-18.5 217.62,-18.5 217.62,0 256.88,0 256.88,-18.5"/>
<text text-anchor="middle" x="237.25" y="-5" font-family="Helvetica,sans-Serif" font-size="10.00">limits</text>
</a>
</g>
</g>
<!-- Node1&#45;&gt;Node4 -->
<g id="edge3_Node000001_Node000004" class="edge">
<title>Node1&#45;&gt;Node4</title>
<g id="a_edge3_Node000001_Node000004"><a xlink:title=" ">
<path fill="none" stroke="#63b8ff" d="M237.25,-54.08C237.25,-47.58 237.25,-38.42 237.25,-30.16"/>
<polygon fill="#63b8ff" stroke="#63b8ff" points="240.75,-30.27 237.25,-20.27 233.75,-30.27 240.75,-30.27"/>
</a>
</g>
</g>
<!-- Node5 -->
<g id="Node000005" class="node">
<title>Node5</title>
<g id="a_Node000005"><a xlink:title=" ">
<polygon fill="#e0e0e0" stroke="#999999" points="325.88,-18.5 274.62,-18.5 274.62,0 325.88,0 325.88,-18.5"/>
<text text-anchor="middle" x="300.25" y="-5" font-family="Helvetica,sans-Serif" font-size="10.00">sstream</text>
</a>
</g>
</g>
<!-- Node1&#45;&gt;Node5 -->
<g id="edge4_Node000001_Node000005" class="edge">
<title>Node1&#45;&gt;Node5</title>
<g id="a_edge4_Node000001_Node000005"><a xlink:title=" ">
<path fill="none" stroke="#63b8ff" d="M247.65,-54.08C256.83,-46.44 270.42,-35.11 281.49,-25.88"/>
<polygon fill="#63b8ff" stroke="#63b8ff" points="283.44,-28.82 288.88,-19.73 278.95,-23.44 283.44,-28.82"/>
</a>
</g>
</g>
<!-- Node6 -->
<g id="Node000006" class="node">
<title>Node6</title>
<g id="a_Node000006"><a xlink:title=" ">
<polygon fill="#e0e0e0" stroke="#999999" points="386.38,-18.5 344.12,-18.5 344.12,0 386.38,0 386.38,-18.5"/>
<text text-anchor="middle" x="365.25" y="-5" font-family="Helvetica,sans-Serif" font-size="10.00">vector</text>
</a>
</g>
</g>
<!-- Node1&#45;&gt;Node6 -->
<g id="edge5_Node000001_Node000006" class="edge">
<title>Node1&#45;&gt;Node6</title>
<g id="a_edge5_Node000001_Node000006"><a xlink:title=" ">
<path fill="none" stroke="#63b8ff" d="M258.39,-54.08C278.86,-45.68 310.17,-32.84 333.61,-23.23"/>
<polygon fill="#63b8ff" stroke="#63b8ff" points="334.76,-26.54 342.68,-19.51 332.1,-20.06 334.76,-26.54"/>
</a>
</g>
</g>
</g>
</svg>
</svg>

<style type='text/css'>
<![CDATA[
[data-mouse-over-selected='false'] { opacity: 0.7; }
[data-mouse-over-selected='true']  { opacity: 1.0; }
]]>
</style>
<script type="application/ecmascript"><![CDATA[
document.addEventListener('DOMContentLoaded', (event) => {
  highlightEdges();
  highlightAdjacentNodes();
});
]]></script>
</svg>
