<?xml version="1.0" encoding="UTF-8" standalone="no"?>
<!DOCTYPE svg PUBLIC "-//W3C//DTD SVG 1.1//EN"
 "http://www.w3.org/Graphics/SVG/1.1/DTD/svg11.dtd">
<!-- Generated by graphviz version 10.0.1 (0)
 -->
<!-- Title: generate_world_map.cu Pages: 1 -->
<svg width="706pt" height="157pt"
 viewBox="0.00 0.00 705.70 156.50" xmlns="http://www.w3.org/2000/svg" xmlns:xlink="http://www.w3.org/1999/xlink">
<g id="graph0" class="graph" transform="scale(1 1) rotate(0) translate(4 152.5)">
<title>generate_world_map.cu</title>
<!-- Node1 -->
<g id="Node000001" class="node">
<title>Node1</title>
<g id="a_Node000001"><a xlink:title="File for generating the world map IDF using CUDA.">
<polygon fill="#999999" stroke="#666666" points="316.95,-148.5 198.2,-148.5 198.2,-130 316.95,-130 316.95,-148.5"/>
<text text-anchor="middle" x="257.58" y="-135" font-family="Helvetica,sans-Serif" font-size="10.00">generate_world_map.cu</text>
</a>
</g>
</g>
<!-- Node2 -->
<g id="Node000002" class="node">
<title>Node2</title>
<g id="a_Node000002"><a xlink:title=" ">
<polygon fill="#e0e0e0" stroke="#999999" points="153.95,-23.75 71.2,-23.75 71.2,-5.25 153.95,-5.25 153.95,-23.75"/>
<text text-anchor="middle" x="112.58" y="-10.25" font-family="Helvetica,sans-Serif" font-size="10.00">cuda_runtime.h</text>
</a>
</g>
</g>
<!-- Node1&#45;&gt;Node2 -->
<g id="edge1_Node000001_Node000002" class="edge">
<title>Node1&#45;&gt;Node2</title>
<g id="a_edge1_Node000001_Node000002"><a xlink:title=" ">
<path fill="none" stroke="#63b8ff" d="M197.76,-136.27C131.4,-132.66 30.5,-122.51 6.58,-94 -17.37,-65.46 31.94,-41.49 71.06,-27.81"/>
<polygon fill="#63b8ff" stroke="#63b8ff" points="71.95,-31.2 80.32,-24.71 69.73,-24.56 71.95,-31.2"/>
</a>
</g>
</g>
<!-- Node3 -->
<g id="Node000003" class="node">
<title>Node3</title>
<g id="a_Node000003"><a xlink:title=" ">
<polygon fill="#e0e0e0" stroke="#999999" points="113.08,-88.75 16.08,-88.75 16.08,-70.25 113.08,-70.25 113.08,-88.75"/>
<text text-anchor="middle" x="64.58" y="-75.25" font-family="Helvetica,sans-Serif" font-size="10.00">thrust/device_ptr.h</text>
</a>
</g>
</g>
<!-- Node1&#45;&gt;Node3 -->
<g id="edge2_Node000001_Node000003" class="edge">
<title>Node1&#45;&gt;Node3</title>
<g id="a_edge2_Node000001_Node000003"><a xlink:title=" ">
<path fill="none" stroke="#63b8ff" d="M228.68,-129.6C195.71,-119.74 141.57,-103.54 104.56,-92.46"/>
<polygon fill="#63b8ff" stroke="#63b8ff" points="105.7,-89.15 95.12,-89.64 103.7,-95.86 105.7,-89.15"/>
</a>
</g>
</g>
<!-- Node4 -->
<g id="Node000004" class="node">
<title>Node4</title>
<g id="a_Node000004"><a xlink:title=" ">
<polygon fill="#e0e0e0" stroke="#999999" points="218.2,-88.75 130.95,-88.75 130.95,-70.25 218.2,-70.25 218.2,-88.75"/>
<text text-anchor="middle" x="174.58" y="-75.25" font-family="Helvetica,sans-Serif" font-size="10.00">thrust/extrema.h</text>
</a>
</g>
</g>
<!-- Node1&#45;&gt;Node4 -->
<g id="edge3_Node000001_Node000004" class="edge">
<title>Node1&#45;&gt;Node4</title>
<g id="a_edge3_Node000001_Node000004"><a xlink:title=" ">
<path fill="none" stroke="#63b8ff" d="M245.33,-129.73C232.53,-120.82 212.18,-106.66 196.58,-95.81"/>
<polygon fill="#63b8ff" stroke="#63b8ff" points="198.6,-92.95 188.39,-90.11 194.6,-98.69 198.6,-92.95"/>
</a>
</g>
</g>
<!-- Node5 -->
<g id="Node000005" class="node">
<title>Node5</title>
<g id="a_Node000005"><a xlink:title=" ">
<polygon fill="#e0e0e0" stroke="#999999" points="279.08,-88.75 236.08,-88.75 236.08,-70.25 279.08,-70.25 279.08,-88.75"/>
<text text-anchor="middle" x="257.58" y="-75.25" font-family="Helvetica,sans-Serif" font-size="10.00">cmath</text>
</a>
</g>
</g>
<!-- Node1&#45;&gt;Node5 -->
<g id="edge4_Node000001_Node000005" class="edge">
<title>Node1&#45;&gt;Node5</title>
<g id="a_edge4_Node000001_Node000005"><a xlink:title=" ">
<path fill="none" stroke="#63b8ff" d="M257.58,-129.73C257.58,-122.05 257.58,-110.47 257.58,-100.47"/>
<polygon fill="#63b8ff" stroke="#63b8ff" points="261.08,-100.57 257.58,-90.57 254.08,-100.57 261.08,-100.57"/>
</a>
</g>
</g>
<!-- Node6 -->
<g id="Node000006" class="node">
<title>Node6</title>
<g id="a_Node000006"><a xlink:title=" ">
<polygon fill="#e0e0e0" stroke="#999999" points="436.2,-29 294.95,-29 294.95,0 436.2,0 436.2,-29"/>
<text text-anchor="start" x="302.95" y="-15.5" font-family="Helvetica,sans-Serif" font-size="10.00">CoverageControl/extern</text>
<text text-anchor="middle" x="365.58" y="-5" font-family="Helvetica,sans-Serif" font-size="10.00">/cuda_helpers/helper_cuda.h</text>
</a>
</g>
</g>
<!-- Node1&#45;&gt;Node6 -->
<g id="edge5_Node000001_Node000006" class="edge">
<title>Node1&#45;&gt;Node6</title>
<g id="a_edge5_Node000001_Node000006"><a xlink:title=" ">
<path fill="none" stroke="#63b8ff" d="M317.27,-131.59C364.03,-125 423.6,-113.08 438.58,-94 455.16,-72.87 429.84,-50.61 404.59,-35.22"/>
<polygon fill="#63b8ff" stroke="#63b8ff" points="406.36,-32.19 395.95,-30.22 402.86,-38.26 406.36,-32.19"/>
</a>
</g>
</g>
<!-- Node7 -->
<g id="Node000007" class="node">
<title>Node7</title>
<g id="a_Node000007"><a xlink:href="generate__world__map_8h.html" target="_top" xlink:title="Contains structs and functions to interface with the CUDA code to generate the world map.">
<polygon fill="white" stroke="#666666" points="616.2,-94 486.95,-94 486.95,-65 616.2,-65 616.2,-94"/>
<text text-anchor="start" x="494.95" y="-80.5" font-family="Helvetica,sans-Serif" font-size="10.00">CoverageControl/generate</text>
<text text-anchor="middle" x="551.58" y="-70" font-family="Helvetica,sans-Serif" font-size="10.00">_world_map.h</text>
</a>
</g>
</g>
<!-- Node1&#45;&gt;Node7 -->
<g id="edge6_Node000001_Node000007" class="edge">
<title>Node1&#45;&gt;Node7</title>
<g id="a_edge6_Node000001_Node000007"><a xlink:title=" ">
<path fill="none" stroke="#63b8ff" d="M301.91,-129.54C347.83,-120.52 420.46,-106.26 475.56,-95.43"/>
<polygon fill="#63b8ff" stroke="#63b8ff" points="476.07,-98.9 485.2,-93.54 474.72,-92.03 476.07,-98.9"/>
</a>
</g>
</g>
<!-- Node12 -->
<g id="Node000012" class="node">
<title>Node12</title>
<g id="a_Node000012"><a xlink:href="geometry__utils_8cuh.html" target="_top" xlink:title="CUDA supported functions to check whether a point is inside a monotone polygon.">
<polygon fill="white" stroke="#666666" points="430.08,-94 297.08,-94 297.08,-65 430.08,-65 430.08,-94"/>
<text text-anchor="start" x="305.08" y="-80.5" font-family="Helvetica,sans-Serif" font-size="10.00">CoverageControl/geometry</text>
<text text-anchor="middle" x="363.58" y="-70" font-family="Helvetica,sans-Serif" font-size="10.00">_utils.cuh</text>
</a>
</g>
</g>
<!-- Node1&#45;&gt;Node12 -->
<g id="edge11_Node000001_Node000012" class="edge">
<title>Node1&#45;&gt;Node12</title>
<g id="a_edge11_Node000001_Node000012"><a xlink:title=" ">
<path fill="none" stroke="#63b8ff" d="M273.22,-129.73C287.6,-121.89 309.45,-109.99 328.06,-99.85"/>
<polygon fill="#63b8ff" stroke="#63b8ff" points="329.57,-103.02 336.67,-95.16 326.22,-96.87 329.57,-103.02"/>
</a>
</g>
</g>
<!-- Node8 -->
<g id="Node000008" class="node">
<title>Node8</title>
<g id="a_Node000008"><a xlink:title=" ">
<polygon fill="#e0e0e0" stroke="#999999" points="511.33,-23.75 457.83,-23.75 457.83,-5.25 511.33,-5.25 511.33,-23.75"/>
<text text-anchor="middle" x="484.58" y="-10.25" font-family="Helvetica,sans-Serif" font-size="10.00">iostream</text>
</a>
</g>
</g>
<!-- Node7&#45;&gt;Node8 -->
<g id="edge7_Node000007_Node000008" class="edge">
<title>Node7&#45;&gt;Node8</title>
<g id="a_edge7_Node000007_Node000008"><a xlink:title=" ">
<path fill="none" stroke="#63b8ff" d="M536.71,-64.52C526.47,-54.89 512.82,-42.06 502.06,-31.94"/>
<polygon fill="#63b8ff" stroke="#63b8ff" points="504.62,-29.54 494.94,-25.24 499.83,-34.64 504.62,-29.54"/>
</a>
</g>
</g>
<!-- Node9 -->
<g id="Node000009" class="node">
<title>Node9</title>
<g id="a_Node000009"><a xlink:title=" ">
<polygon fill="#e0e0e0" stroke="#999999" points="568.2,-23.75 528.95,-23.75 528.95,-5.25 568.2,-5.25 568.2,-23.75"/>
<text text-anchor="middle" x="548.58" y="-10.25" font-family="Helvetica,sans-Serif" font-size="10.00">limits</text>
</a>
</g>
</g>
<!-- Node7&#45;&gt;Node9 -->
<g id="edge8_Node000007_Node000009" class="edge">
<title>Node7&#45;&gt;Node9</title>
<g id="a_edge8_Node000007_Node000009"><a xlink:title=" ">
<path fill="none" stroke="#63b8ff" d="M550.91,-64.52C550.51,-56.04 549.99,-45.09 549.54,-35.69"/>
<polygon fill="#63b8ff" stroke="#63b8ff" points="553.04,-35.54 549.06,-25.72 546.04,-35.87 553.04,-35.54"/>
</a>
</g>
</g>
<!-- Node10 -->
<g id="Node000010" class="node">
<title>Node10</title>
<g id="a_Node000010"><a xlink:title=" ">
<polygon fill="#e0e0e0" stroke="#999999" points="637.2,-23.75 585.95,-23.75 585.95,-5.25 637.2,-5.25 637.2,-23.75"/>
<text text-anchor="middle" x="611.58" y="-10.25" font-family="Helvetica,sans-Serif" font-size="10.00">sstream</text>
</a>
</g>
</g>
<!-- Node7&#45;&gt;Node10 -->
<g id="edge9_Node000007_Node000010" class="edge">
<title>Node7&#45;&gt;Node10</title>
<g id="a_edge9_Node000007_Node000010"><a xlink:title=" ">
<path fill="none" stroke="#63b8ff" d="M564.89,-64.52C573.97,-54.99 586.04,-42.31 595.63,-32.24"/>
<polygon fill="#63b8ff" stroke="#63b8ff" points="597.88,-34.96 602.24,-25.3 592.81,-30.13 597.88,-34.96"/>
</a>
</g>
</g>
<!-- Node11 -->
<g id="Node000011" class="node">
<title>Node11</title>
<g id="a_Node000011"><a xlink:title=" ">
<polygon fill="#e0e0e0" stroke="#999999" points="697.7,-23.75 655.45,-23.75 655.45,-5.25 697.7,-5.25 697.7,-23.75"/>
<text text-anchor="middle" x="676.58" y="-10.25" font-family="Helvetica,sans-Serif" font-size="10.00">vector</text>
</a>
</g>
</g>
<!-- Node7&#45;&gt;Node11 -->
<g id="edge10_Node000007_Node000011" class="edge">
<title>Node7&#45;&gt;Node11</title>
<g id="a_edge10_Node000007_Node000011"><a xlink:title=" ">
<path fill="none" stroke="#63b8ff" d="M579.32,-64.52C600.14,-54.02 628.52,-39.72 649.24,-29.28"/>
<polygon fill="#63b8ff" stroke="#63b8ff" points="650.6,-32.51 657.95,-24.89 647.45,-26.26 650.6,-32.51"/>
</a>
</g>
</g>
<!-- Node12&#45;&gt;Node2 -->
<g id="edge12_Node000012_Node000002" class="edge">
<title>Node12&#45;&gt;Node2</title>
<g id="a_edge12_Node000012_Node000002"><a xlink:title=" ">
<path fill="none" stroke="#63b8ff" d="M307.87,-64.52C262.89,-53.23 200.37,-37.54 158.29,-26.97"/>
<polygon fill="#63b8ff" stroke="#63b8ff" points="159.28,-23.61 148.73,-24.57 157.58,-30.4 159.28,-23.61"/>
</a>
</g>
</g>
<!-- Node12&#45;&gt;Node6 -->
<g id="edge13_Node000012_Node000006" class="edge">
<title>Node12&#45;&gt;Node6</title>
<g id="a_edge13_Node000012_Node000006"><a xlink:title=" ">
<path fill="none" stroke="#63b8ff" d="M364.02,-64.52C364.24,-57.59 364.51,-48.99 364.77,-40.95"/>
<polygon fill="#63b8ff" stroke="#63b8ff" points="368.27,-41.06 365.09,-30.96 361.27,-40.84 368.27,-41.06"/>
</a>
</g>
</g>
</g>
</svg>
