<?xml version="1.0" encoding="UTF-8" standalone="no"?>
<!DOCTYPE svg PUBLIC "-//W3C//DTD SVG 1.1//EN"
 "http://www.w3.org/Graphics/SVG/1.1/DTD/svg11.dtd">
<!-- Generated by graphviz version 12.1.2 (0)
 -->
<!-- Title: generate_world_map.cu Pages: 1 -->
<svg width="932pt" height="146pt"
 viewBox="0.00 0.00 932.30 146.00" xmlns="http://www.w3.org/2000/svg" xmlns:xlink="http://www.w3.org/1999/xlink">
<g id="graph0" class="graph" transform="scale(1 1) rotate(0) translate(4 142)">
<title>generate_world_map.cu</title>
<!-- Node1 -->
<g id="Node000001" class="node">
<title>Node1</title>
<g id="a_Node000001"><a xlink:title="File for generating the world map IDF using CUDA.">
<polygon fill="#999999" stroke="#666666" points="453.05,-138 334.3,-138 334.3,-119.5 453.05,-119.5 453.05,-138"/>
<text text-anchor="middle" x="393.67" y="-124.5" font-family="Helvetica,sans-Serif" font-size="10.00">generate_world_map.cu</text>
</a>
</g>
</g>
<!-- Node2 -->
<g id="Node000002" class="node">
<title>Node2</title>
<g id="a_Node000002"><a xlink:title=" ">
<polygon fill="#e0e0e0" stroke="#999999" points="183.05,-18.5 100.3,-18.5 100.3,0 183.05,0 183.05,-18.5"/>
<text text-anchor="middle" x="141.67" y="-5" font-family="Helvetica,sans-Serif" font-size="10.00">cuda_runtime.h</text>
</a>
</g>
</g>
<!-- Node1&#45;&gt;Node2 -->
<g id="edge1_Node000001_Node000002" class="edge">
<title>Node1&#45;&gt;Node2</title>
<g id="a_edge1_Node000001_Node000002"><a xlink:title=" ">
<path fill="none" stroke="#63b8ff" d="M334.19,-125.21C231.3,-120.2 29,-107.41 7.67,-83.5 -20.9,-51.47 40.26,-30.66 89.08,-19.68"/>
<polygon fill="#63b8ff" stroke="#63b8ff" points="89.69,-23.13 98.73,-17.61 88.22,-16.29 89.69,-23.13"/>
</a>
</g>
</g>
<!-- Node3 -->
<g id="Node000003" class="node">
<title>Node3</title>
<g id="a_Node000003"><a xlink:title=" ">
<polygon fill="#e0e0e0" stroke="#999999" points="114.17,-78.25 17.17,-78.25 17.17,-59.75 114.17,-59.75 114.17,-78.25"/>
<text text-anchor="middle" x="65.67" y="-64.75" font-family="Helvetica,sans-Serif" font-size="10.00">thrust/device_ptr.h</text>
</a>
</g>
</g>
<!-- Node1&#45;&gt;Node3 -->
<g id="edge2_Node000001_Node000003" class="edge">
<title>Node1&#45;&gt;Node3</title>
<g id="a_edge2_Node000001_Node000003"><a xlink:title=" ">
<path fill="none" stroke="#63b8ff" d="M333.98,-119.24C278.92,-111.1 195.02,-97.95 122.67,-83.5 119.13,-82.79 115.48,-82.02 111.81,-81.22"/>
<polygon fill="#63b8ff" stroke="#63b8ff" points="112.86,-77.87 102.34,-79.08 111.32,-84.7 112.86,-77.87"/>
</a>
</g>
</g>
<!-- Node4 -->
<g id="Node000004" class="node">
<title>Node4</title>
<g id="a_Node000004"><a xlink:title=" ">
<polygon fill="#e0e0e0" stroke="#999999" points="219.3,-78.25 132.05,-78.25 132.05,-59.75 219.3,-59.75 219.3,-78.25"/>
<text text-anchor="middle" x="175.67" y="-64.75" font-family="Helvetica,sans-Serif" font-size="10.00">thrust/extrema.h</text>
</a>
</g>
</g>
<!-- Node1&#45;&gt;Node4 -->
<g id="edge3_Node000001_Node000004" class="edge">
<title>Node1&#45;&gt;Node4</title>
<g id="a_edge3_Node000001_Node000004"><a xlink:title=" ">
<path fill="none" stroke="#63b8ff" d="M361.04,-119.1C323.39,-109.13 261.32,-92.69 219.49,-81.61"/>
<polygon fill="#63b8ff" stroke="#63b8ff" points="220.56,-78.27 210,-79.09 218.77,-85.04 220.56,-78.27"/>
</a>
</g>
</g>
<!-- Node5 -->
<g id="Node000005" class="node">
<title>Node5</title>
<g id="a_Node000005"><a xlink:title=" ">
<polygon fill="#e0e0e0" stroke="#999999" points="469.17,-18.5 426.17,-18.5 426.17,0 469.17,0 469.17,-18.5"/>
<text text-anchor="middle" x="447.67" y="-5" font-family="Helvetica,sans-Serif" font-size="10.00">cmath</text>
</a>
</g>
</g>
<!-- Node1&#45;&gt;Node5 -->
<g id="edge4_Node000001_Node000005" class="edge">
<title>Node1&#45;&gt;Node5</title>
<g id="a_edge4_Node000001_Node000005"><a xlink:title=" ">
<path fill="none" stroke="#63b8ff" d="M402.41,-119.03C410.36,-110.62 421.87,-97.18 428.67,-83.5 437.17,-66.41 442.15,-45.12 444.86,-29.9"/>
<polygon fill="#63b8ff" stroke="#63b8ff" points="448.27,-30.7 446.39,-20.27 441.36,-29.6 448.27,-30.7"/>
</a>
</g>
</g>
<!-- Node6 -->
<g id="Node000006" class="node">
<title>Node6</title>
<g id="a_Node000006"><a xlink:title=" ">
<polygon fill="#e0e0e0" stroke="#999999" points="419.3,-78.25 368.05,-78.25 368.05,-59.75 419.3,-59.75 419.3,-78.25"/>
<text text-anchor="middle" x="393.67" y="-64.75" font-family="Helvetica,sans-Serif" font-size="10.00">sstream</text>
</a>
</g>
</g>
<!-- Node1&#45;&gt;Node6 -->
<g id="edge5_Node000001_Node000006" class="edge">
<title>Node1&#45;&gt;Node6</title>
<g id="a_edge5_Node000001_Node000006"><a xlink:title=" ">
<path fill="none" stroke="#63b8ff" d="M393.67,-119.23C393.67,-111.55 393.67,-99.97 393.67,-89.97"/>
<polygon fill="#63b8ff" stroke="#63b8ff" points="397.17,-90.07 393.67,-80.07 390.17,-90.07 397.17,-90.07"/>
</a>
</g>
</g>
<!-- Node7 -->
<g id="Node000007" class="node">
<title>Node7</title>
<g id="a_Node000007"><a xlink:href="constants_8h.html" target="_top" xlink:title="Constants for the CoverageControl library.">
<polygon fill="white" stroke="#666666" points="618.05,-78.25 475.3,-78.25 475.3,-59.75 618.05,-59.75 618.05,-78.25"/>
<text text-anchor="middle" x="546.67" y="-64.75" font-family="Helvetica,sans-Serif" font-size="10.00">CoverageControl/constants.h</text>
</a>
</g>
</g>
<!-- Node1&#45;&gt;Node7 -->
<g id="edge6_Node000001_Node000007" class="edge">
<title>Node1&#45;&gt;Node7</title>
<g id="a_edge6_Node000001_Node000007"><a xlink:title=" ">
<path fill="none" stroke="#63b8ff" d="M416.58,-119.1C442.16,-109.45 483.79,-93.73 513.06,-82.69"/>
<polygon fill="#63b8ff" stroke="#63b8ff" points="514.08,-86.05 522.2,-79.24 511.6,-79.5 514.08,-86.05"/>
</a>
</g>
</g>
<!-- Node10 -->
<g id="Node000010" class="node">
<title>Node10</title>
<g id="a_Node000010"><a xlink:href="geometry__utils_8cuh.html" target="_top" xlink:title="CUDA supported functions to check whether a point is inside a monotone polygon.">
<polygon fill="white" stroke="#666666" points="350.05,-83.5 237.3,-83.5 237.3,-54.5 350.05,-54.5 350.05,-83.5"/>
<text text-anchor="start" x="245.3" y="-70" font-family="Helvetica,sans-Serif" font-size="10.00">CoverageControl/cuda</text>
<text text-anchor="middle" x="293.67" y="-59.5" font-family="Helvetica,sans-Serif" font-size="10.00">/geometry_utils.cuh</text>
</a>
</g>
</g>
<!-- Node1&#45;&gt;Node10 -->
<g id="edge10_Node000001_Node000010" class="edge">
<title>Node1&#45;&gt;Node10</title>
<g id="a_edge10_Node000001_Node000010"><a xlink:title=" ">
<path fill="none" stroke="#63b8ff" d="M378.92,-119.23C365.48,-111.47 345.12,-99.71 327.67,-89.63"/>
<polygon fill="#63b8ff" stroke="#63b8ff" points="329.52,-86.66 319.11,-84.69 326.02,-92.72 329.52,-86.66"/>
</a>
</g>
</g>
<!-- Node11 -->
<g id="Node000011" class="node">
<title>Node11</title>
<g id="a_Node000011"><a xlink:title=" ">
<polygon fill="#e0e0e0" stroke="#999999" points="777.3,-83.5 636.05,-83.5 636.05,-54.5 777.3,-54.5 777.3,-83.5"/>
<text text-anchor="start" x="644.05" y="-70" font-family="Helvetica,sans-Serif" font-size="10.00">CoverageControl/extern</text>
<text text-anchor="middle" x="706.67" y="-59.5" font-family="Helvetica,sans-Serif" font-size="10.00">/cuda_helpers/helper_cuda.h</text>
</a>
</g>
</g>
<!-- Node1&#45;&gt;Node11 -->
<g id="edge12_Node000001_Node000011" class="edge">
<title>Node1&#45;&gt;Node11</title>
<g id="a_edge12_Node000001_Node000011"><a xlink:title=" ">
<path fill="none" stroke="#63b8ff" d="M440.87,-119.04C489.49,-110.07 566.2,-95.92 624.75,-85.12"/>
<polygon fill="#63b8ff" stroke="#63b8ff" points="625.14,-88.6 634.34,-83.35 623.87,-81.72 625.14,-88.6"/>
</a>
</g>
</g>
<!-- Node12 -->
<g id="Node000012" class="node">
<title>Node12</title>
<g id="a_Node000012"><a xlink:href="generate__world__map_8h.html" target="_top" xlink:title="Contains structs and functions to interface with the CUDA code to generate the world map.">
<polygon fill="white" stroke="#666666" points="924.3,-83.5 795.05,-83.5 795.05,-54.5 924.3,-54.5 924.3,-83.5"/>
<text text-anchor="start" x="803.05" y="-70" font-family="Helvetica,sans-Serif" font-size="10.00">CoverageControl/generate</text>
<text text-anchor="middle" x="859.67" y="-59.5" font-family="Helvetica,sans-Serif" font-size="10.00">_world_map.h</text>
</a>
</g>
</g>
<!-- Node1&#45;&gt;Node12 -->
<g id="edge13_Node000001_Node000012" class="edge">
<title>Node1&#45;&gt;Node12</title>
<g id="a_edge13_Node000001_Node000012"><a xlink:title=" ">
<path fill="none" stroke="#63b8ff" d="M453.43,-122.35C528.35,-115.28 660.95,-101.8 783.75,-83.87"/>
<polygon fill="#63b8ff" stroke="#63b8ff" points="783.96,-87.38 793.34,-82.46 782.93,-80.45 783.96,-87.38"/>
</a>
</g>
</g>
<!-- Node7&#45;&gt;Node5 -->
<g id="edge7_Node000007_Node000005" class="edge">
<title>Node7&#45;&gt;Node5</title>
<g id="a_edge7_Node000007_Node000005"><a xlink:title=" ">
<path fill="none" stroke="#63b8ff" d="M532.07,-59.48C516.44,-50.36 491.36,-35.74 472.6,-24.79"/>
<polygon fill="#63b8ff" stroke="#63b8ff" points="474.37,-21.77 463.97,-19.76 470.85,-27.82 474.37,-21.77"/>
</a>
</g>
</g>
<!-- Node8 -->
<g id="Node000008" class="node">
<title>Node8</title>
<g id="a_Node000008"><a xlink:title=" ">
<polygon fill="#e0e0e0" stroke="#999999" points="747.3,-18.5 708.05,-18.5 708.05,0 747.3,0 747.3,-18.5"/>
<text text-anchor="middle" x="727.67" y="-5" font-family="Helvetica,sans-Serif" font-size="10.00">limits</text>
</a>
</g>
</g>
<!-- Node7&#45;&gt;Node8 -->
<g id="edge8_Node000007_Node000008" class="edge">
<title>Node7&#45;&gt;Node8</title>
<g id="a_edge8_Node000007_Node000008"><a xlink:title=" ">
<path fill="none" stroke="#63b8ff" d="M573.77,-59.35C606.73,-48.84 662.24,-31.13 696.81,-20.1"/>
<polygon fill="#63b8ff" stroke="#63b8ff" points="697.77,-23.47 706.23,-17.09 695.64,-16.8 697.77,-23.47"/>
</a>
</g>
</g>
<!-- Node9 -->
<g id="Node000009" class="node">
<title>Node9</title>
<g id="a_Node000009"><a xlink:title=" ">
<polygon fill="#e0e0e0" stroke="#999999" points="615.92,-18.5 487.42,-18.5 487.42,0 615.92,0 615.92,-18.5"/>
<text text-anchor="middle" x="551.67" y="-5" font-family="Helvetica,sans-Serif" font-size="10.00">CoverageControl/Config.h</text>
</a>
</g>
</g>
<!-- Node7&#45;&gt;Node9 -->
<g id="edge9_Node000007_Node000009" class="edge">
<title>Node7&#45;&gt;Node9</title>
<g id="a_edge9_Node000007_Node000009"><a xlink:title=" ">
<path fill="none" stroke="#63b8ff" d="M547.41,-59.48C548.08,-51.8 549.08,-40.22 549.95,-30.22"/>
<polygon fill="#63b8ff" stroke="#63b8ff" points="553.43,-30.58 550.8,-20.31 546.45,-29.97 553.43,-30.58"/>
</a>
</g>
</g>
<!-- Node10&#45;&gt;Node2 -->
<g id="edge11_Node000010_Node000002" class="edge">
<title>Node10&#45;&gt;Node2</title>
<g id="a_edge11_Node000010_Node000002"><a xlink:title=" ">
<path fill="none" stroke="#63b8ff" d="M256.88,-54.02C231.89,-44.53 199.11,-32.07 174.91,-22.88"/>
<polygon fill="#63b8ff" stroke="#63b8ff" points="176.46,-19.72 165.87,-19.44 173.97,-26.26 176.46,-19.72"/>
</a>
</g>
</g>
<!-- Node12&#45;&gt;Node8 -->
<g id="edge14_Node000012_Node000008" class="edge">
<title>Node12&#45;&gt;Node8</title>
<g id="a_edge14_Node000012_Node000008"><a xlink:title=" ">
<path fill="none" stroke="#63b8ff" d="M827.72,-54.02C806.51,-44.74 778.83,-32.63 757.97,-23.5"/>
<polygon fill="#63b8ff" stroke="#63b8ff" points="759.4,-20.31 748.84,-19.51 756.6,-26.73 759.4,-20.31"/>
</a>
</g>
</g>
<!-- Node13 -->
<g id="Node000013" class="node">
<title>Node13</title>
<g id="a_Node000013"><a xlink:title=" ">
<polygon fill="#e0e0e0" stroke="#999999" points="880.8,-18.5 838.55,-18.5 838.55,0 880.8,0 880.8,-18.5"/>
<text text-anchor="middle" x="859.67" y="-5" font-family="Helvetica,sans-Serif" font-size="10.00">vector</text>
</a>
</g>
</g>
<!-- Node12&#45;&gt;Node13 -->
<g id="edge15_Node000012_Node000013" class="edge">
<title>Node12&#45;&gt;Node13</title>
<g id="a_edge15_Node000012_Node000013"><a xlink:title=" ">
<path fill="none" stroke="#63b8ff" d="M859.67,-54.02C859.67,-46.92 859.67,-38.17 859.67,-30.36"/>
<polygon fill="#63b8ff" stroke="#63b8ff" points="863.17,-30.42 859.67,-20.42 856.17,-30.42 863.17,-30.42"/>
</a>
</g>
</g>
</g>
</svg>
