<?xml version="1.0" encoding="UTF-8" standalone="no"?>
<!DOCTYPE svg PUBLIC "-//W3C//DTD SVG 1.1//EN"
 "http://www.w3.org/Graphics/SVG/1.1/DTD/svg11.dtd">
<!-- Generated by graphviz version 10.0.1 (0)
 -->
<!-- Title: generate_world_map.cu Pages: 1 -->
<!--zoomable 157 -->

<svg id="main" version="1.1" xmlns="http://www.w3.org/2000/svg" xmlns:xlink="http://www.w3.org/1999/xlink" xml:space="preserve" onload="init(evt)">
<style type="text/css"><![CDATA[
.node, .edge {opacity: 0.7;}
.node.selected, .edge.selected {opacity: 1;}
.edge:hover path { stroke: red; }
.edge:hover polygon { stroke: red; fill: red; }
]]></style>

<defs>
  <circle id="rim" cx="0" cy="0" r="7"/>
  <circle id="rim2" cx="0" cy="0" r="3.5"/>
  <g id="zoomPlus">
    <use xlink:href="#rim" fill="#404040"><set attributeName="fill" to="#808080" begin="zoomplus.mouseover" end="zoomplus.mouseout"/></use>
    <path d="M-4,0h8M0,-4v8" fill="none" stroke="white" stroke-width="1.5" pointer-events="none"/>
  </g>
  <g id="zoomMin">
    <use xlink:href="#rim" fill="#404040"><set attributeName="fill" to="#808080" begin="zoomminus.mouseover" end="zoomminus.mouseout"/></use>
    <path d="M-4,0h8" fill="none" stroke="white" stroke-width="1.5" pointer-events="none"/>
  </g>
  <g id="arrowUp" transform="translate(30 24)">
    <use xlink:href="#rim"/>
    <path pointer-events="none" fill="none" stroke="white" stroke-width="1.5" d="M0,-3.0v7 M-2.5,-0.5L0,-3.0L2.5,-0.5"/>
  </g>
  <g id="arrowRight" transform="rotate(90) translate(36 -43)">
    <use xlink:href="#rim"/>
    <path pointer-events="none" fill="none" stroke="white" stroke-width="1.5" d="M0,-3.0v7 M-2.5,-0.5L0,-3.0L2.5,-0.5"/>
  </g>
  <g id="arrowDown" transform="rotate(180) translate(-30 -48)">
    <use xlink:href="#rim"/>
    <path pointer-events="none" fill="none" stroke="white" stroke-width="1.5" d="M0,-3.0v7 M-2.5,-0.5L0,-3.0L2.5,-0.5"/>
  </g>
  <g id="arrowLeft" transform="rotate(270) translate(-36 17)">
    <use xlink:href="#rim"/>
    <path pointer-events="none" fill="none" stroke="white" stroke-width="1.5" d="M0,-3.0v7 M-2.5,-0.5L0,-3.0L2.5,-0.5"/>
  </g>
  <g id="resetDef">
    <use xlink:href="#rim2" fill="#404040"><set attributeName="fill" to="#808080" begin="reset.mouseover" end="reset.mouseout"/></use>
  </g>
</defs>
<script type="application/ecmascript">
var viewWidth = 706;
var viewHeight = 157;
var sectionId = 'dynsection-0';
</script>
<script type="application/ecmascript" xlink:href="svg.min.js"/>
<svg id="graph" class="graph">
<g id="viewport">
<title>generate_world_map.cu</title>
<!-- Node1 -->
<g id="Node000001" class="node">
<title>Node1</title>
<g id="a_Node000001"><a xlink:title="File for generating the world map IDF using CUDA.">
<polygon fill="#999999" stroke="#666666" points="316.95,-148.5 198.2,-148.5 198.2,-130 316.95,-130 316.95,-148.5"/>
<text text-anchor="middle" x="257.58" y="-135" font-family="Helvetica,sans-Serif" font-size="10.00">generate_world_map.cu</text>
</a>
</g>
</g>
<!-- Node2 -->
<g id="Node000002" class="node">
<title>Node2</title>
<g id="a_Node000002"><a xlink:title=" ">
<polygon fill="#e0e0e0" stroke="#999999" points="153.95,-23.75 71.2,-23.75 71.2,-5.25 153.95,-5.25 153.95,-23.75"/>
<text text-anchor="middle" x="112.58" y="-10.25" font-family="Helvetica,sans-Serif" font-size="10.00">cuda_runtime.h</text>
</a>
</g>
</g>
<!-- Node1&#45;&gt;Node2 -->
<g id="edge1_Node000001_Node000002" class="edge">
<title>Node1&#45;&gt;Node2</title>
<g id="a_edge1_Node000001_Node000002"><a xlink:title=" ">
<path fill="none" stroke="#63b8ff" d="M197.76,-136.27C131.4,-132.66 30.5,-122.51 6.58,-94 -17.37,-65.46 31.94,-41.49 71.06,-27.81"/>
<polygon fill="#63b8ff" stroke="#63b8ff" points="71.95,-31.2 80.32,-24.71 69.73,-24.56 71.95,-31.2"/>
</a>
</g>
</g>
<!-- Node3 -->
<g id="Node000003" class="node">
<title>Node3</title>
<g id="a_Node000003"><a xlink:title=" ">
<polygon fill="#e0e0e0" stroke="#999999" points="113.08,-88.75 16.08,-88.75 16.08,-70.25 113.08,-70.25 113.08,-88.75"/>
<text text-anchor="middle" x="64.58" y="-75.25" font-family="Helvetica,sans-Serif" font-size="10.00">thrust/device_ptr.h</text>
</a>
</g>
</g>
<!-- Node1&#45;&gt;Node3 -->
<g id="edge2_Node000001_Node000003" class="edge">
<title>Node1&#45;&gt;Node3</title>
<g id="a_edge2_Node000001_Node000003"><a xlink:title=" ">
<path fill="none" stroke="#63b8ff" d="M228.68,-129.6C195.71,-119.74 141.57,-103.54 104.56,-92.46"/>
<polygon fill="#63b8ff" stroke="#63b8ff" points="105.7,-89.15 95.12,-89.64 103.7,-95.86 105.7,-89.15"/>
</a>
</g>
</g>
<!-- Node4 -->
<g id="Node000004" class="node">
<title>Node4</title>
<g id="a_Node000004"><a xlink:title=" ">
<polygon fill="#e0e0e0" stroke="#999999" points="218.2,-88.75 130.95,-88.75 130.95,-70.25 218.2,-70.25 218.2,-88.75"/>
<text text-anchor="middle" x="174.58" y="-75.25" font-family="Helvetica,sans-Serif" font-size="10.00">thrust/extrema.h</text>
</a>
</g>
</g>
<!-- Node1&#45;&gt;Node4 -->
<g id="edge3_Node000001_Node000004" class="edge">
<title>Node1&#45;&gt;Node4</title>
<g id="a_edge3_Node000001_Node000004"><a xlink:title=" ">
<path fill="none" stroke="#63b8ff" d="M245.33,-129.73C232.53,-120.82 212.18,-106.66 196.58,-95.81"/>
<polygon fill="#63b8ff" stroke="#63b8ff" points="198.6,-92.95 188.39,-90.11 194.6,-98.69 198.6,-92.95"/>
</a>
</g>
</g>
<!-- Node5 -->
<g id="Node000005" class="node">
<title>Node5</title>
<g id="a_Node000005"><a xlink:title=" ">
<polygon fill="#e0e0e0" stroke="#999999" points="279.08,-88.75 236.08,-88.75 236.08,-70.25 279.08,-70.25 279.08,-88.75"/>
<text text-anchor="middle" x="257.58" y="-75.25" font-family="Helvetica,sans-Serif" font-size="10.00">cmath</text>
</a>
</g>
</g>
<!-- Node1&#45;&gt;Node5 -->
<g id="edge4_Node000001_Node000005" class="edge">
<title>Node1&#45;&gt;Node5</title>
<g id="a_edge4_Node000001_Node000005"><a xlink:title=" ">
<path fill="none" stroke="#63b8ff" d="M257.58,-129.73C257.58,-122.05 257.58,-110.47 257.58,-100.47"/>
<polygon fill="#63b8ff" stroke="#63b8ff" points="261.08,-100.57 257.58,-90.57 254.08,-100.57 261.08,-100.57"/>
</a>
</g>
</g>
<!-- Node6 -->
<g id="Node000006" class="node">
<title>Node6</title>
<g id="a_Node000006"><a xlink:title=" ">
<polygon fill="#e0e0e0" stroke="#999999" points="436.2,-29 294.95,-29 294.95,0 436.2,0 436.2,-29"/>
<text text-anchor="start" x="302.95" y="-15.5" font-family="Helvetica,sans-Serif" font-size="10.00">CoverageControl/extern</text>
<text text-anchor="middle" x="365.58" y="-5" font-family="Helvetica,sans-Serif" font-size="10.00">/cuda_helpers/helper_cuda.h</text>
</a>
</g>
</g>
<!-- Node1&#45;&gt;Node6 -->
<g id="edge5_Node000001_Node000006" class="edge">
<title>Node1&#45;&gt;Node6</title>
<g id="a_edge5_Node000001_Node000006"><a xlink:title=" ">
<path fill="none" stroke="#63b8ff" d="M317.27,-131.59C364.03,-125 423.6,-113.08 438.58,-94 455.16,-72.87 429.84,-50.61 404.59,-35.22"/>
<polygon fill="#63b8ff" stroke="#63b8ff" points="406.36,-32.19 395.95,-30.22 402.86,-38.26 406.36,-32.19"/>
</a>
</g>
</g>
<!-- Node7 -->
<g id="Node000007" class="node">
<title>Node7</title>
<g id="a_Node000007"><a xlink:href="generate__world__map_8h.html" target="_top" xlink:title="Contains structs and functions to interface with the CUDA code to generate the world map.">
<polygon fill="white" stroke="#666666" points="616.2,-94 486.95,-94 486.95,-65 616.2,-65 616.2,-94"/>
<text text-anchor="start" x="494.95" y="-80.5" font-family="Helvetica,sans-Serif" font-size="10.00">CoverageControl/generate</text>
<text text-anchor="middle" x="551.58" y="-70" font-family="Helvetica,sans-Serif" font-size="10.00">_world_map.h</text>
</a>
</g>
</g>
<!-- Node1&#45;&gt;Node7 -->
<g id="edge6_Node000001_Node000007" class="edge">
<title>Node1&#45;&gt;Node7</title>
<g id="a_edge6_Node000001_Node000007"><a xlink:title=" ">
<path fill="none" stroke="#63b8ff" d="M301.91,-129.54C347.83,-120.52 420.46,-106.26 475.56,-95.43"/>
<polygon fill="#63b8ff" stroke="#63b8ff" points="476.07,-98.9 485.2,-93.54 474.72,-92.03 476.07,-98.9"/>
</a>
</g>
</g>
<!-- Node12 -->
<g id="Node000012" class="node">
<title>Node12</title>
<g id="a_Node000012"><a xlink:href="geometry__utils_8cuh.html" target="_top" xlink:title="CUDA supported functions to check whether a point is inside a monotone polygon.">
<polygon fill="white" stroke="#666666" points="430.08,-94 297.08,-94 297.08,-65 430.08,-65 430.08,-94"/>
<text text-anchor="start" x="305.08" y="-80.5" font-family="Helvetica,sans-Serif" font-size="10.00">CoverageControl/geometry</text>
<text text-anchor="middle" x="363.58" y="-70" font-family="Helvetica,sans-Serif" font-size="10.00">_utils.cuh</text>
</a>
</g>
</g>
<!-- Node1&#45;&gt;Node12 -->
<g id="edge11_Node000001_Node000012" class="edge">
<title>Node1&#45;&gt;Node12</title>
<g id="a_edge11_Node000001_Node000012"><a xlink:title=" ">
<path fill="none" stroke="#63b8ff" d="M273.22,-129.73C287.6,-121.89 309.45,-109.99 328.06,-99.85"/>
<polygon fill="#63b8ff" stroke="#63b8ff" points="329.57,-103.02 336.67,-95.16 326.22,-96.87 329.57,-103.02"/>
</a>
</g>
</g>
<!-- Node8 -->
<g id="Node000008" class="node">
<title>Node8</title>
<g id="a_Node000008"><a xlink:title=" ">
<polygon fill="#e0e0e0" stroke="#999999" points="511.33,-23.75 457.83,-23.75 457.83,-5.25 511.33,-5.25 511.33,-23.75"/>
<text text-anchor="middle" x="484.58" y="-10.25" font-family="Helvetica,sans-Serif" font-size="10.00">iostream</text>
</a>
</g>
</g>
<!-- Node7&#45;&gt;Node8 -->
<g id="edge7_Node000007_Node000008" class="edge">
<title>Node7&#45;&gt;Node8</title>
<g id="a_edge7_Node000007_Node000008"><a xlink:title=" ">
<path fill="none" stroke="#63b8ff" d="M536.71,-64.52C526.47,-54.89 512.82,-42.06 502.06,-31.94"/>
<polygon fill="#63b8ff" stroke="#63b8ff" points="504.62,-29.54 494.94,-25.24 499.83,-34.64 504.62,-29.54"/>
</a>
</g>
</g>
<!-- Node9 -->
<g id="Node000009" class="node">
<title>Node9</title>
<g id="a_Node000009"><a xlink:title=" ">
<polygon fill="#e0e0e0" stroke="#999999" points="568.2,-23.75 528.95,-23.75 528.95,-5.25 568.2,-5.25 568.2,-23.75"/>
<text text-anchor="middle" x="548.58" y="-10.25" font-family="Helvetica,sans-Serif" font-size="10.00">limits</text>
</a>
</g>
</g>
<!-- Node7&#45;&gt;Node9 -->
<g id="edge8_Node000007_Node000009" class="edge">
<title>Node7&#45;&gt;Node9</title>
<g id="a_edge8_Node000007_Node000009"><a xlink:title=" ">
<path fill="none" stroke="#63b8ff" d="M550.91,-64.52C550.51,-56.04 549.99,-45.09 549.54,-35.69"/>
<polygon fill="#63b8ff" stroke="#63b8ff" points="553.04,-35.54 549.06,-25.72 546.04,-35.87 553.04,-35.54"/>
</a>
</g>
</g>
<!-- Node10 -->
<g id="Node000010" class="node">
<title>Node10</title>
<g id="a_Node000010"><a xlink:title=" ">
<polygon fill="#e0e0e0" stroke="#999999" points="637.2,-23.75 585.95,-23.75 585.95,-5.25 637.2,-5.25 637.2,-23.75"/>
<text text-anchor="middle" x="611.58" y="-10.25" font-family="Helvetica,sans-Serif" font-size="10.00">sstream</text>
</a>
</g>
</g>
<!-- Node7&#45;&gt;Node10 -->
<g id="edge9_Node000007_Node000010" class="edge">
<title>Node7&#45;&gt;Node10</title>
<g id="a_edge9_Node000007_Node000010"><a xlink:title=" ">
<path fill="none" stroke="#63b8ff" d="M564.89,-64.52C573.97,-54.99 586.04,-42.31 595.63,-32.24"/>
<polygon fill="#63b8ff" stroke="#63b8ff" points="597.88,-34.96 602.24,-25.3 592.81,-30.13 597.88,-34.96"/>
</a>
</g>
</g>
<!-- Node11 -->
<g id="Node000011" class="node">
<title>Node11</title>
<g id="a_Node000011"><a xlink:title=" ">
<polygon fill="#e0e0e0" stroke="#999999" points="697.7,-23.75 655.45,-23.75 655.45,-5.25 697.7,-5.25 697.7,-23.75"/>
<text text-anchor="middle" x="676.58" y="-10.25" font-family="Helvetica,sans-Serif" font-size="10.00">vector</text>
</a>
</g>
</g>
<!-- Node7&#45;&gt;Node11 -->
<g id="edge10_Node000007_Node000011" class="edge">
<title>Node7&#45;&gt;Node11</title>
<g id="a_edge10_Node000007_Node000011"><a xlink:title=" ">
<path fill="none" stroke="#63b8ff" d="M579.32,-64.52C600.14,-54.02 628.52,-39.72 649.24,-29.28"/>
<polygon fill="#63b8ff" stroke="#63b8ff" points="650.6,-32.51 657.95,-24.89 647.45,-26.26 650.6,-32.51"/>
</a>
</g>
</g>
<!-- Node12&#45;&gt;Node2 -->
<g id="edge12_Node000012_Node000002" class="edge">
<title>Node12&#45;&gt;Node2</title>
<g id="a_edge12_Node000012_Node000002"><a xlink:title=" ">
<path fill="none" stroke="#63b8ff" d="M307.87,-64.52C262.89,-53.23 200.37,-37.54 158.29,-26.97"/>
<polygon fill="#63b8ff" stroke="#63b8ff" points="159.28,-23.61 148.73,-24.57 157.58,-30.4 159.28,-23.61"/>
</a>
</g>
</g>
<!-- Node12&#45;&gt;Node6 -->
<g id="edge13_Node000012_Node000006" class="edge">
<title>Node12&#45;&gt;Node6</title>
<g id="a_edge13_Node000012_Node000006"><a xlink:title=" ">
<path fill="none" stroke="#63b8ff" d="M364.02,-64.52C364.24,-57.59 364.51,-48.99 364.77,-40.95"/>
<polygon fill="#63b8ff" stroke="#63b8ff" points="368.27,-41.06 365.09,-30.96 361.27,-40.84 368.27,-41.06"/>
</a>
</g>
</g>
</g>
</svg>

<g id="navigator" transform="translate(0 0)" fill="#404254">
  <rect fill="#f2f5e9" fill-opacity="0.5" stroke="#606060" stroke-width=".5" x="0" y="0" width="60" height="60"/>
  <use id="zoomplus" xlink:href="#zoomPlus" x="17" y="9" onmousedown="handleZoom(evt,'in')"/>
  <use id="zoomminus" xlink:href="#zoomMin" x="42" y="9" onmousedown="handleZoom(evt,'out')"/>
  <use id="reset" xlink:href="#resetDef" x="30" y="36" onmousedown="handleReset()"/>
   <use id="arrowup" xlink:href="#arrowUp" x="0" y="0" onmousedown="handlePan(0,-1)"/>
  <use id="arrowright" xlink:href="#arrowRight" x="0" y="0" onmousedown="handlePan(1,0)"/>
  <use id="arrowdown" xlink:href="#arrowDown" x="0" y="0" onmousedown="handlePan(0,1)"/>
  <use id="arrowleft" xlink:href="#arrowLeft" x="0" y="0" onmousedown="handlePan(-1,0)"/>
</g>
<svg viewBox="0 0 15 15" width="100%" height="30px" preserveAspectRatio="xMaxYMin meet">
 <g id="arrow_out" transform="scale(0.3 0.3)">
  <a xlink:href="generate__world__map_8cu__incl_org.svg" target="_base">
   <rect id="button" ry="5" rx="5" y="6" x="6" height="38" width="38"
        fill="#f2f5e9" fill-opacity="0.5" stroke="#606060" stroke-width="1.0"/>
   <path id="arrow"
     d="M 11.500037,31.436501 C 11.940474,20.09759 22.043105,11.32322 32.158766,21.979434 L 37.068811,17.246167 C 37.068811,17.246167 37.088388,32 37.088388,32 L 22.160133,31.978069 C 22.160133,31.978069 26.997745,27.140456 26.997745,27.140456 C 18.528582,18.264221 13.291696,25.230495 11.500037,31.436501 z"
     style="fill:#404040;"/>
  </a>
 </g>
</svg>

<style type='text/css'>
<![CDATA[
[data-mouse-over-selected='false'] { opacity: 0.7; }
[data-mouse-over-selected='true']  { opacity: 1.0; }
]]>
</style>
<script type="application/ecmascript"><![CDATA[
document.addEventListener('DOMContentLoaded', (event) => {
  highlightEdges();
  highlightAdjacentNodes();
});
]]></script>
</svg>
