<?xml version="1.0" encoding="UTF-8" standalone="no"?>
<!DOCTYPE svg PUBLIC "-//W3C//DTD SVG 1.1//EN"
 "http://www.w3.org/Graphics/SVG/1.1/DTD/svg11.dtd">
<!-- Generated by graphviz version 10.0.1 (0)
 -->
<!-- Title: generate_world_map.cu Pages: 1 -->
<svg width="781pt" height="146pt"
 viewBox="0.00 0.00 780.96 146.00" xmlns="http://www.w3.org/2000/svg" xmlns:xlink="http://www.w3.org/1999/xlink">
<g id="graph0" class="graph" transform="scale(1 1) rotate(0) translate(4 142)">
<title>generate_world_map.cu</title>
<!-- Node1 -->
<g id="Node000001" class="node">
<title>Node1</title>
<g id="a_Node000001"><a xlink:title="File for generating the world map IDF using CUDA.">
<polygon fill="#999999" stroke="#666666" points="321.21,-138 202.46,-138 202.46,-119.5 321.21,-119.5 321.21,-138"/>
<text text-anchor="middle" x="261.84" y="-124.5" font-family="Helvetica,sans-Serif" font-size="10.00">generate_world_map.cu</text>
</a>
</g>
</g>
<!-- Node2 -->
<g id="Node000002" class="node">
<title>Node2</title>
<g id="a_Node000002"><a xlink:title=" ">
<polygon fill="#e0e0e0" stroke="#999999" points="290.21,-18.5 207.46,-18.5 207.46,0 290.21,0 290.21,-18.5"/>
<text text-anchor="middle" x="248.84" y="-5" font-family="Helvetica,sans-Serif" font-size="10.00">cuda_runtime.h</text>
</a>
</g>
</g>
<!-- Node1&#45;&gt;Node2 -->
<g id="edge1_Node000001_Node000002" class="edge">
<title>Node1&#45;&gt;Node2</title>
<g id="a_edge1_Node000001_Node000002"><a xlink:title=" ">
<path fill="none" stroke="#63b8ff" d="M202.02,-125.77C135.66,-122.16 34.77,-112.01 10.84,-83.5 -41.3,-21.36 110.83,-10.96 195.82,-9.84"/>
<polygon fill="#63b8ff" stroke="#63b8ff" points="195.6,-13.34 205.57,-9.75 195.54,-6.34 195.6,-13.34"/>
</a>
</g>
</g>
<!-- Node3 -->
<g id="Node000003" class="node">
<title>Node3</title>
<g id="a_Node000003"><a xlink:title=" ">
<polygon fill="#e0e0e0" stroke="#999999" points="117.34,-78.25 20.34,-78.25 20.34,-59.75 117.34,-59.75 117.34,-78.25"/>
<text text-anchor="middle" x="68.84" y="-64.75" font-family="Helvetica,sans-Serif" font-size="10.00">thrust/device_ptr.h</text>
</a>
</g>
</g>
<!-- Node1&#45;&gt;Node3 -->
<g id="edge2_Node000001_Node000003" class="edge">
<title>Node1&#45;&gt;Node3</title>
<g id="a_edge2_Node000001_Node000003"><a xlink:title=" ">
<path fill="none" stroke="#63b8ff" d="M232.95,-119.1C199.97,-109.24 145.84,-93.04 108.82,-81.96"/>
<polygon fill="#63b8ff" stroke="#63b8ff" points="109.96,-78.65 99.38,-79.14 107.96,-85.36 109.96,-78.65"/>
</a>
</g>
</g>
<!-- Node4 -->
<g id="Node000004" class="node">
<title>Node4</title>
<g id="a_Node000004"><a xlink:title=" ">
<polygon fill="#e0e0e0" stroke="#999999" points="222.46,-78.25 135.21,-78.25 135.21,-59.75 222.46,-59.75 222.46,-78.25"/>
<text text-anchor="middle" x="178.84" y="-64.75" font-family="Helvetica,sans-Serif" font-size="10.00">thrust/extrema.h</text>
</a>
</g>
</g>
<!-- Node1&#45;&gt;Node4 -->
<g id="edge3_Node000001_Node000004" class="edge">
<title>Node1&#45;&gt;Node4</title>
<g id="a_edge3_Node000001_Node000004"><a xlink:title=" ">
<path fill="none" stroke="#63b8ff" d="M249.59,-119.23C236.79,-110.32 216.44,-96.16 200.84,-85.31"/>
<polygon fill="#63b8ff" stroke="#63b8ff" points="202.86,-82.45 192.65,-79.61 198.86,-88.19 202.86,-82.45"/>
</a>
</g>
</g>
<!-- Node5 -->
<g id="Node000005" class="node">
<title>Node5</title>
<g id="a_Node000005"><a xlink:title=" ">
<polygon fill="#e0e0e0" stroke="#999999" points="283.34,-78.25 240.34,-78.25 240.34,-59.75 283.34,-59.75 283.34,-78.25"/>
<text text-anchor="middle" x="261.84" y="-64.75" font-family="Helvetica,sans-Serif" font-size="10.00">cmath</text>
</a>
</g>
</g>
<!-- Node1&#45;&gt;Node5 -->
<g id="edge4_Node000001_Node000005" class="edge">
<title>Node1&#45;&gt;Node5</title>
<g id="a_edge4_Node000001_Node000005"><a xlink:title=" ">
<path fill="none" stroke="#63b8ff" d="M261.84,-119.23C261.84,-111.55 261.84,-99.97 261.84,-89.97"/>
<polygon fill="#63b8ff" stroke="#63b8ff" points="265.34,-90.07 261.84,-80.07 258.34,-90.07 265.34,-90.07"/>
</a>
</g>
</g>
<!-- Node6 -->
<g id="Node000006" class="node">
<title>Node6</title>
<g id="a_Node000006"><a xlink:title=" ">
<polygon fill="#e0e0e0" stroke="#999999" points="442.46,-83.5 301.21,-83.5 301.21,-54.5 442.46,-54.5 442.46,-83.5"/>
<text text-anchor="start" x="309.21" y="-70" font-family="Helvetica,sans-Serif" font-size="10.00">CoverageControl/extern</text>
<text text-anchor="middle" x="371.84" y="-59.5" font-family="Helvetica,sans-Serif" font-size="10.00">/cuda_helpers/helper_cuda.h</text>
</a>
</g>
</g>
<!-- Node1&#45;&gt;Node6 -->
<g id="edge5_Node000001_Node000006" class="edge">
<title>Node1&#45;&gt;Node6</title>
<g id="a_edge5_Node000001_Node000006"><a xlink:title=" ">
<path fill="none" stroke="#63b8ff" d="M278.07,-119.23C293.07,-111.36 315.88,-99.38 335.25,-89.21"/>
<polygon fill="#63b8ff" stroke="#63b8ff" points="336.73,-92.38 343.96,-84.64 333.48,-86.19 336.73,-92.38"/>
</a>
</g>
</g>
<!-- Node7 -->
<g id="Node000007" class="node">
<title>Node7</title>
<g id="a_Node000007"><a xlink:href="generate__world__map_8h.html" target="_top" xlink:title="Contains structs and functions to interface with the CUDA code to generate the world map.">
<polygon fill="white" stroke="#666666" points="720.46,-83.5 591.21,-83.5 591.21,-54.5 720.46,-54.5 720.46,-83.5"/>
<text text-anchor="start" x="599.21" y="-70" font-family="Helvetica,sans-Serif" font-size="10.00">CoverageControl/generate</text>
<text text-anchor="middle" x="655.84" y="-59.5" font-family="Helvetica,sans-Serif" font-size="10.00">_world_map.h</text>
</a>
</g>
</g>
<!-- Node1&#45;&gt;Node7 -->
<g id="edge6_Node000001_Node000007" class="edge">
<title>Node1&#45;&gt;Node7</title>
<g id="a_edge6_Node000001_Node000007"><a xlink:title=" ">
<path fill="none" stroke="#63b8ff" d="M321.52,-120.28C383.49,-112.34 483.53,-99.05 579.78,-83.78"/>
<polygon fill="#63b8ff" stroke="#63b8ff" points="580.08,-87.28 589.4,-82.25 578.97,-80.37 580.08,-87.28"/>
</a>
</g>
</g>
<!-- Node12 -->
<g id="Node000012" class="node">
<title>Node12</title>
<g id="a_Node000012"><a xlink:href="geometry__utils_8cuh.html" target="_top" xlink:title="CUDA supported functions to check whether a point is inside a monotone polygon.">
<polygon fill="white" stroke="#666666" points="573.21,-83.5 460.46,-83.5 460.46,-54.5 573.21,-54.5 573.21,-83.5"/>
<text text-anchor="start" x="468.46" y="-70" font-family="Helvetica,sans-Serif" font-size="10.00">CoverageControl/cuda</text>
<text text-anchor="middle" x="516.84" y="-59.5" font-family="Helvetica,sans-Serif" font-size="10.00">/geometry_utils.cuh</text>
</a>
</g>
</g>
<!-- Node1&#45;&gt;Node12 -->
<g id="edge11_Node000001_Node000012" class="edge">
<title>Node1&#45;&gt;Node12</title>
<g id="a_edge11_Node000001_Node000012"><a xlink:title=" ">
<path fill="none" stroke="#63b8ff" d="M300.29,-119.04C339.58,-110.14 401.39,-96.15 448.94,-85.38"/>
<polygon fill="#63b8ff" stroke="#63b8ff" points="449.63,-88.81 458.61,-83.19 448.08,-81.98 449.63,-88.81"/>
</a>
</g>
</g>
<!-- Node8 -->
<g id="Node000008" class="node">
<title>Node8</title>
<g id="a_Node000008"><a xlink:title=" ">
<polygon fill="#e0e0e0" stroke="#999999" points="586.59,-18.5 533.09,-18.5 533.09,0 586.59,0 586.59,-18.5"/>
<text text-anchor="middle" x="559.84" y="-5" font-family="Helvetica,sans-Serif" font-size="10.00">iostream</text>
</a>
</g>
</g>
<!-- Node7&#45;&gt;Node8 -->
<g id="edge7_Node000007_Node000008" class="edge">
<title>Node7&#45;&gt;Node8</title>
<g id="a_edge7_Node000007_Node000008"><a xlink:title=" ">
<path fill="none" stroke="#63b8ff" d="M632.6,-54.02C617.81,-45.12 598.71,-33.63 583.78,-24.65"/>
<polygon fill="#63b8ff" stroke="#63b8ff" points="585.89,-21.84 575.52,-19.68 582.29,-27.84 585.89,-21.84"/>
</a>
</g>
</g>
<!-- Node9 -->
<g id="Node000009" class="node">
<title>Node9</title>
<g id="a_Node000009"><a xlink:title=" ">
<polygon fill="#e0e0e0" stroke="#999999" points="643.46,-18.5 604.21,-18.5 604.21,0 643.46,0 643.46,-18.5"/>
<text text-anchor="middle" x="623.84" y="-5" font-family="Helvetica,sans-Serif" font-size="10.00">limits</text>
</a>
</g>
</g>
<!-- Node7&#45;&gt;Node9 -->
<g id="edge8_Node000007_Node000009" class="edge">
<title>Node7&#45;&gt;Node9</title>
<g id="a_edge8_Node000007_Node000009"><a xlink:title=" ">
<path fill="none" stroke="#63b8ff" d="M648.09,-54.02C643.92,-46.49 638.72,-37.11 634.21,-28.96"/>
<polygon fill="#63b8ff" stroke="#63b8ff" points="637.28,-27.28 629.37,-20.23 631.15,-30.67 637.28,-27.28"/>
</a>
</g>
</g>
<!-- Node10 -->
<g id="Node000010" class="node">
<title>Node10</title>
<g id="a_Node000010"><a xlink:title=" ">
<polygon fill="#e0e0e0" stroke="#999999" points="712.46,-18.5 661.21,-18.5 661.21,0 712.46,0 712.46,-18.5"/>
<text text-anchor="middle" x="686.84" y="-5" font-family="Helvetica,sans-Serif" font-size="10.00">sstream</text>
</a>
</g>
</g>
<!-- Node7&#45;&gt;Node10 -->
<g id="edge9_Node000007_Node000010" class="edge">
<title>Node7&#45;&gt;Node10</title>
<g id="a_edge9_Node000007_Node000010"><a xlink:title=" ">
<path fill="none" stroke="#63b8ff" d="M663.34,-54.02C667.38,-46.49 672.42,-37.11 676.8,-28.96"/>
<polygon fill="#63b8ff" stroke="#63b8ff" points="679.83,-30.7 681.48,-20.24 673.67,-27.39 679.83,-30.7"/>
</a>
</g>
</g>
<!-- Node11 -->
<g id="Node000011" class="node">
<title>Node11</title>
<g id="a_Node000011"><a xlink:title=" ">
<polygon fill="#e0e0e0" stroke="#999999" points="772.96,-18.5 730.71,-18.5 730.71,0 772.96,0 772.96,-18.5"/>
<text text-anchor="middle" x="751.84" y="-5" font-family="Helvetica,sans-Serif" font-size="10.00">vector</text>
</a>
</g>
</g>
<!-- Node7&#45;&gt;Node11 -->
<g id="edge10_Node000007_Node000011" class="edge">
<title>Node7&#45;&gt;Node11</title>
<g id="a_edge10_Node000007_Node000011"><a xlink:title=" ">
<path fill="none" stroke="#63b8ff" d="M679.08,-54.02C693.87,-45.12 712.97,-33.63 727.9,-24.65"/>
<polygon fill="#63b8ff" stroke="#63b8ff" points="729.39,-27.84 736.16,-19.68 725.78,-21.84 729.39,-27.84"/>
</a>
</g>
</g>
<!-- Node12&#45;&gt;Node2 -->
<g id="edge12_Node000012_Node000002" class="edge">
<title>Node12&#45;&gt;Node2</title>
<g id="a_edge12_Node000012_Node000002"><a xlink:title=" ">
<path fill="none" stroke="#63b8ff" d="M460,-55.75C412.69,-45.56 345.92,-31.17 300.2,-21.32"/>
<polygon fill="#63b8ff" stroke="#63b8ff" points="301.04,-17.92 290.53,-19.23 299.57,-24.76 301.04,-17.92"/>
</a>
</g>
</g>
</g>
</svg>
