<?xml version="1.0" encoding="UTF-8" standalone="no"?>
<!DOCTYPE svg PUBLIC "-//W3C//DTD SVG 1.1//EN"
 "http://www.w3.org/Graphics/SVG/1.1/DTD/svg11.dtd">
<!-- Generated by graphviz version 10.0.1 (0)
 -->
<!-- Title: generate_world_map.h Pages: 1 -->
<svg width="248pt" height="81pt"
 viewBox="0.00 0.00 247.88 81.00" xmlns="http://www.w3.org/2000/svg" xmlns:xlink="http://www.w3.org/1999/xlink">

<svg id="main" version="1.1" xmlns="http://www.w3.org/2000/svg" xmlns:xlink="http://www.w3.org/1999/xlink" xml:space="preserve" onload="init(evt)">
<style type="text/css"><![CDATA[
.node, .edge {opacity: 0.7;}
.node.selected, .edge.selected {opacity: 1;}
.edge:hover path { stroke: red; }
.edge:hover polygon { stroke: red; fill: red; }
]]></style>
<script type="application/ecmascript" xlink:href="svg.min.js"/>
<svg id="graph" class="graph">
<g id="graph0" class="graph" transform="scale(1 1) rotate(0) translate(4 77)">
<title>generate_world_map.h</title>
<!-- Node1 -->
<g id="Node000001" class="node">
<title>Node1</title>
<g id="a_Node000001"><a xlink:title="Contains structs and functions to interface with the CUDA code to generate the world map.">
<polygon fill="#999999" stroke="#666666" points="178.5,-73 65,-73 65,-54.5 178.5,-54.5 178.5,-73"/>
<text text-anchor="middle" x="121.75" y="-59.5" font-family="Helvetica,sans-Serif" font-size="10.00">generate_world_map.h</text>
</a>
</g>
</g>
<!-- Node2 -->
<g id="Node000002" class="node">
<title>Node2</title>
<g id="a_Node000002"><a xlink:title=" ">
<polygon fill="#e0e0e0" stroke="#999999" points="53.5,-18.5 0,-18.5 0,0 53.5,0 53.5,-18.5"/>
<text text-anchor="middle" x="26.75" y="-5" font-family="Helvetica,sans-Serif" font-size="10.00">iostream</text>
</a>
</g>
</g>
<!-- Node1&#45;&gt;Node2 -->
<g id="edge1_Node000001_Node000002" class="edge">
<title>Node1&#45;&gt;Node2</title>
<g id="a_edge1_Node000001_Node000002"><a xlink:title=" ">
<path fill="none" stroke="#63b8ff" d="M106.06,-54.08C91.49,-46.03 69.51,-33.88 52.39,-24.42"/>
<polygon fill="#63b8ff" stroke="#63b8ff" points="54.23,-21.44 43.79,-19.66 50.84,-27.56 54.23,-21.44"/>
</a>
</g>
</g>
<!-- Node3 -->
<g id="Node000003" class="node">
<title>Node3</title>
<g id="a_Node000003"><a xlink:title=" ">
<polygon fill="#e0e0e0" stroke="#999999" points="110.38,-18.5 71.12,-18.5 71.12,0 110.38,0 110.38,-18.5"/>
<text text-anchor="middle" x="90.75" y="-5" font-family="Helvetica,sans-Serif" font-size="10.00">limits</text>
</a>
</g>
</g>
<!-- Node1&#45;&gt;Node3 -->
<g id="edge2_Node000001_Node000003" class="edge">
<title>Node1&#45;&gt;Node3</title>
<g id="a_edge2_Node000001_Node000003"><a xlink:title=" ">
<path fill="none" stroke="#63b8ff" d="M116.63,-54.08C112.52,-47.12 106.61,-37.12 101.48,-28.42"/>
<polygon fill="#63b8ff" stroke="#63b8ff" points="104.64,-26.89 96.54,-20.06 98.61,-30.45 104.64,-26.89"/>
</a>
</g>
</g>
<!-- Node4 -->
<g id="Node000004" class="node">
<title>Node4</title>
<g id="a_Node000004"><a xlink:title=" ">
<polygon fill="#e0e0e0" stroke="#999999" points="179.38,-18.5 128.12,-18.5 128.12,0 179.38,0 179.38,-18.5"/>
<text text-anchor="middle" x="153.75" y="-5" font-family="Helvetica,sans-Serif" font-size="10.00">sstream</text>
</a>
</g>
</g>
<!-- Node1&#45;&gt;Node4 -->
<g id="edge3_Node000001_Node000004" class="edge">
<title>Node1&#45;&gt;Node4</title>
<g id="a_edge3_Node000001_Node000004"><a xlink:title=" ">
<path fill="none" stroke="#63b8ff" d="M127.03,-54.08C131.27,-47.12 137.37,-37.12 142.67,-28.42"/>
<polygon fill="#63b8ff" stroke="#63b8ff" points="145.56,-30.41 147.78,-20.05 139.58,-26.77 145.56,-30.41"/>
</a>
</g>
</g>
<!-- Node5 -->
<g id="Node000005" class="node">
<title>Node5</title>
<g id="a_Node000005"><a xlink:title=" ">
<polygon fill="#e0e0e0" stroke="#999999" points="239.88,-18.5 197.62,-18.5 197.62,0 239.88,0 239.88,-18.5"/>
<text text-anchor="middle" x="218.75" y="-5" font-family="Helvetica,sans-Serif" font-size="10.00">vector</text>
</a>
</g>
</g>
<!-- Node1&#45;&gt;Node5 -->
<g id="edge4_Node000001_Node000005" class="edge">
<title>Node1&#45;&gt;Node5</title>
<g id="a_edge4_Node000001_Node000005"><a xlink:title=" ">
<path fill="none" stroke="#63b8ff" d="M137.77,-54.08C152.79,-45.95 175.51,-33.65 193.07,-24.15"/>
<polygon fill="#63b8ff" stroke="#63b8ff" points="194.25,-27.49 201.38,-19.65 190.92,-21.33 194.25,-27.49"/>
</a>
</g>
</g>
</g>
</svg>
</svg>

<style type='text/css'>
<![CDATA[
[data-mouse-over-selected='false'] { opacity: 0.7; }
[data-mouse-over-selected='true']  { opacity: 1.0; }
]]>
</style>
<script type="application/ecmascript"><![CDATA[
document.addEventListener('DOMContentLoaded', (event) => {
  highlightEdges();
  highlightAdjacentNodes();
});
]]></script>
</svg>
