<?xml version="1.0" encoding="UTF-8" standalone="no"?>
<!DOCTYPE svg PUBLIC "-//W3C//DTD SVG 1.1//EN"
 "http://www.w3.org/Graphics/SVG/1.1/DTD/svg11.dtd">
<!-- Generated by graphviz version 10.0.1 (0)
 -->
<!-- Title: generate_world_map.cu Pages: 1 -->
<svg width="963pt" height="146pt"
 viewBox="0.00 0.00 963.16 146.00" xmlns="http://www.w3.org/2000/svg" xmlns:xlink="http://www.w3.org/1999/xlink">
<g id="graph0" class="graph" transform="scale(1 1) rotate(0) translate(4 142)">
<title>generate_world_map.cu</title>
<!-- Node1 -->
<g id="Node000001" class="node">
<title>Node1</title>
<g id="a_Node000001"><a xlink:title="File for generating the world map IDF using CUDA.">
<polygon fill="#999999" stroke="#666666" points="394.91,-138 276.16,-138 276.16,-119.5 394.91,-119.5 394.91,-138"/>
<text text-anchor="middle" x="335.54" y="-124.5" font-family="Helvetica,sans-Serif" font-size="10.00">generate_world_map.cu</text>
</a>
</g>
</g>
<!-- Node2 -->
<g id="Node000002" class="node">
<title>Node2</title>
<g id="a_Node000002"><a xlink:title=" ">
<polygon fill="#e0e0e0" stroke="#999999" points="182.91,-18.5 100.16,-18.5 100.16,0 182.91,0 182.91,-18.5"/>
<text text-anchor="middle" x="141.54" y="-5" font-family="Helvetica,sans-Serif" font-size="10.00">cuda_runtime.h</text>
</a>
</g>
</g>
<!-- Node1&#45;&gt;Node2 -->
<g id="edge1_Node000001_Node000002" class="edge">
<title>Node1&#45;&gt;Node2</title>
<g id="a_edge1_Node000001_Node000002"><a xlink:title=" ">
<path fill="none" stroke="#63b8ff" d="M275.69,-128.66C190.73,-128.53 41.67,-122.54 7.54,-83.5 -20.63,-51.28 40.01,-30.57 88.65,-19.66"/>
<polygon fill="#63b8ff" stroke="#63b8ff" points="89.23,-23.12 98.28,-17.61 87.77,-16.27 89.23,-23.12"/>
</a>
</g>
</g>
<!-- Node3 -->
<g id="Node000003" class="node">
<title>Node3</title>
<g id="a_Node000003"><a xlink:title=" ">
<polygon fill="#e0e0e0" stroke="#999999" points="114.04,-78.25 17.04,-78.25 17.04,-59.75 114.04,-59.75 114.04,-78.25"/>
<text text-anchor="middle" x="65.54" y="-64.75" font-family="Helvetica,sans-Serif" font-size="10.00">thrust/device_ptr.h</text>
</a>
</g>
</g>
<!-- Node1&#45;&gt;Node3 -->
<g id="edge2_Node000001_Node000003" class="edge">
<title>Node1&#45;&gt;Node3</title>
<g id="a_edge2_Node000001_Node000003"><a xlink:title=" ">
<path fill="none" stroke="#63b8ff" d="M291.81,-119.04C248.7,-110.36 180.98,-96.49 122.54,-83.5 119.38,-82.8 116.12,-82.06 112.83,-81.31"/>
<polygon fill="#63b8ff" stroke="#63b8ff" points="113.7,-77.91 103.16,-79.06 112.11,-84.73 113.7,-77.91"/>
</a>
</g>
</g>
<!-- Node4 -->
<g id="Node000004" class="node">
<title>Node4</title>
<g id="a_Node000004"><a xlink:title=" ">
<polygon fill="#e0e0e0" stroke="#999999" points="219.16,-78.25 131.91,-78.25 131.91,-59.75 219.16,-59.75 219.16,-78.25"/>
<text text-anchor="middle" x="175.54" y="-64.75" font-family="Helvetica,sans-Serif" font-size="10.00">thrust/extrema.h</text>
</a>
</g>
</g>
<!-- Node1&#45;&gt;Node4 -->
<g id="edge3_Node000001_Node000004" class="edge">
<title>Node1&#45;&gt;Node4</title>
<g id="a_edge3_Node000001_Node000004"><a xlink:title=" ">
<path fill="none" stroke="#63b8ff" d="M311.59,-119.1C284.72,-109.41 240.91,-93.6 210.29,-82.54"/>
<polygon fill="#63b8ff" stroke="#63b8ff" points="211.68,-79.32 201.08,-79.22 209.3,-85.91 211.68,-79.32"/>
</a>
</g>
</g>
<!-- Node5 -->
<g id="Node000005" class="node">
<title>Node5</title>
<g id="a_Node000005"><a xlink:title=" ">
<polygon fill="#e0e0e0" stroke="#999999" points="445.04,-18.5 402.04,-18.5 402.04,0 445.04,0 445.04,-18.5"/>
<text text-anchor="middle" x="423.54" y="-5" font-family="Helvetica,sans-Serif" font-size="10.00">cmath</text>
</a>
</g>
</g>
<!-- Node1&#45;&gt;Node5 -->
<g id="edge4_Node000001_Node000005" class="edge">
<title>Node1&#45;&gt;Node5</title>
<g id="a_edge4_Node000001_Node000005"><a xlink:title=" ">
<path fill="none" stroke="#63b8ff" d="M341.87,-119.3C356.13,-100.25 391.05,-53.64 410.28,-27.95"/>
<polygon fill="#63b8ff" stroke="#63b8ff" points="412.93,-30.25 416.12,-20.15 407.33,-26.06 412.93,-30.25"/>
</a>
</g>
</g>
<!-- Node6 -->
<g id="Node000006" class="node">
<title>Node6</title>
<g id="a_Node000006"><a xlink:href="constants_8h.html" target="_top" xlink:title="Constants for the CoverageControl library.">
<polygon fill="white" stroke="#666666" points="707.91,-78.25 565.16,-78.25 565.16,-59.75 707.91,-59.75 707.91,-78.25"/>
<text text-anchor="middle" x="636.54" y="-64.75" font-family="Helvetica,sans-Serif" font-size="10.00">CoverageControl/constants.h</text>
</a>
</g>
</g>
<!-- Node1&#45;&gt;Node6 -->
<g id="edge5_Node000001_Node000006" class="edge">
<title>Node1&#45;&gt;Node6</title>
<g id="a_edge5_Node000001_Node000006"><a xlink:title=" ">
<path fill="none" stroke="#63b8ff" d="M380.93,-119.04C434.2,-108.82 522.57,-91.87 580.18,-80.81"/>
<polygon fill="#63b8ff" stroke="#63b8ff" points="580.63,-84.29 589.79,-78.97 579.31,-77.42 580.63,-84.29"/>
</a>
</g>
</g>
<!-- Node10 -->
<g id="Node000010" class="node">
<title>Node10</title>
<g id="a_Node000010"><a xlink:title=" ">
<polygon fill="#e0e0e0" stroke="#999999" points="547.16,-83.5 405.91,-83.5 405.91,-54.5 547.16,-54.5 547.16,-83.5"/>
<text text-anchor="start" x="413.91" y="-70" font-family="Helvetica,sans-Serif" font-size="10.00">CoverageControl/extern</text>
<text text-anchor="middle" x="476.54" y="-59.5" font-family="Helvetica,sans-Serif" font-size="10.00">/cuda_helpers/helper_cuda.h</text>
</a>
</g>
</g>
<!-- Node1&#45;&gt;Node10 -->
<g id="edge10_Node000001_Node000010" class="edge">
<title>Node1&#45;&gt;Node10</title>
<g id="a_edge10_Node000001_Node000010"><a xlink:title=" ">
<path fill="none" stroke="#63b8ff" d="M356.65,-119.1C376.48,-110.98 406.79,-98.57 431.97,-88.26"/>
<polygon fill="#63b8ff" stroke="#63b8ff" points="433.07,-91.59 441,-84.56 430.42,-85.11 433.07,-91.59"/>
</a>
</g>
</g>
<!-- Node11 -->
<g id="Node000011" class="node">
<title>Node11</title>
<g id="a_Node000011"><a xlink:href="generate__world__map_8h.html" target="_top" xlink:title="Contains structs and functions to interface with the CUDA code to generate the world map.">
<polygon fill="white" stroke="#666666" points="858.16,-83.5 728.91,-83.5 728.91,-54.5 858.16,-54.5 858.16,-83.5"/>
<text text-anchor="start" x="736.91" y="-70" font-family="Helvetica,sans-Serif" font-size="10.00">CoverageControl/generate</text>
<text text-anchor="middle" x="793.54" y="-59.5" font-family="Helvetica,sans-Serif" font-size="10.00">_world_map.h</text>
</a>
</g>
</g>
<!-- Node1&#45;&gt;Node11 -->
<g id="edge11_Node000001_Node000011" class="edge">
<title>Node1&#45;&gt;Node11</title>
<g id="a_edge11_Node000001_Node000011"><a xlink:title=" ">
<path fill="none" stroke="#63b8ff" d="M395.4,-121.88C470.56,-114.26 603.36,-99.98 716.54,-83.5 716.78,-83.46 717.03,-83.43 717.27,-83.39"/>
<polygon fill="#63b8ff" stroke="#63b8ff" points="717.61,-86.88 726.97,-81.91 716.56,-79.96 717.61,-86.88"/>
</a>
</g>
</g>
<!-- Node15 -->
<g id="Node000015" class="node">
<title>Node15</title>
<g id="a_Node000015"><a xlink:href="geometry__utils_8cuh.html" target="_top" xlink:title="CUDA supported functions to check whether a point is inside a monotone polygon.">
<polygon fill="white" stroke="#666666" points="349.91,-83.5 237.16,-83.5 237.16,-54.5 349.91,-54.5 349.91,-83.5"/>
<text text-anchor="start" x="245.16" y="-70" font-family="Helvetica,sans-Serif" font-size="10.00">CoverageControl/cuda</text>
<text text-anchor="middle" x="293.54" y="-59.5" font-family="Helvetica,sans-Serif" font-size="10.00">/geometry_utils.cuh</text>
</a>
</g>
</g>
<!-- Node1&#45;&gt;Node15 -->
<g id="edge16_Node000001_Node000015" class="edge">
<title>Node1&#45;&gt;Node15</title>
<g id="a_edge16_Node000001_Node000015"><a xlink:title=" ">
<path fill="none" stroke="#63b8ff" d="M329.34,-119.23C324.33,-112.34 317.03,-102.29 310.32,-93.08"/>
<polygon fill="#63b8ff" stroke="#63b8ff" points="313.28,-91.19 304.56,-85.16 307.61,-95.3 313.28,-91.19"/>
</a>
</g>
</g>
<!-- Node6&#45;&gt;Node5 -->
<g id="edge6_Node000006_Node000005" class="edge">
<title>Node6&#45;&gt;Node5</title>
<g id="a_edge6_Node000006_Node000005"><a xlink:title=" ">
<path fill="none" stroke="#63b8ff" d="M604.65,-59.35C564.72,-48.53 496.68,-30.08 456.33,-19.14"/>
<polygon fill="#63b8ff" stroke="#63b8ff" points="457.28,-15.77 446.71,-16.53 455.44,-22.53 457.28,-15.77"/>
</a>
</g>
</g>
<!-- Node7 -->
<g id="Node000007" class="node">
<title>Node7</title>
<g id="a_Node000007"><a xlink:title=" ">
<polygon fill="#e0e0e0" stroke="#999999" points="754.16,-18.5 714.91,-18.5 714.91,0 754.16,0 754.16,-18.5"/>
<text text-anchor="middle" x="734.54" y="-5" font-family="Helvetica,sans-Serif" font-size="10.00">limits</text>
</a>
</g>
</g>
<!-- Node6&#45;&gt;Node7 -->
<g id="edge7_Node000006_Node000007" class="edge">
<title>Node6&#45;&gt;Node7</title>
<g id="a_edge7_Node000006_Node000007"><a xlink:title=" ">
<path fill="none" stroke="#63b8ff" d="M651,-59.48C666.47,-50.36 691.29,-35.74 709.86,-24.79"/>
<polygon fill="#63b8ff" stroke="#63b8ff" points="711.56,-27.86 718.39,-19.76 708,-21.83 711.56,-27.86"/>
</a>
</g>
</g>
<!-- Node8 -->
<g id="Node000008" class="node">
<title>Node8</title>
<g id="a_Node000008"><a xlink:title=" ">
<polygon fill="#e0e0e0" stroke="#999999" points="550.54,-18.5 510.54,-18.5 510.54,0 550.54,0 550.54,-18.5"/>
<text text-anchor="middle" x="530.54" y="-5" font-family="Helvetica,sans-Serif" font-size="10.00">string</text>
</a>
</g>
</g>
<!-- Node6&#45;&gt;Node8 -->
<g id="edge8_Node000006_Node000008" class="edge">
<title>Node6&#45;&gt;Node8</title>
<g id="a_edge8_Node000006_Node000008"><a xlink:title=" ">
<path fill="none" stroke="#63b8ff" d="M620.9,-59.48C604.01,-50.28 576.82,-35.46 556.67,-24.49"/>
<polygon fill="#63b8ff" stroke="#63b8ff" points="558.38,-21.43 547.92,-19.72 555.03,-27.58 558.38,-21.43"/>
</a>
</g>
</g>
<!-- Node9 -->
<g id="Node000009" class="node">
<title>Node9</title>
<g id="a_Node000009"><a xlink:title=" ">
<polygon fill="#e0e0e0" stroke="#999999" points="696.79,-18.5 568.29,-18.5 568.29,0 696.79,0 696.79,-18.5"/>
<text text-anchor="middle" x="632.54" y="-5" font-family="Helvetica,sans-Serif" font-size="10.00">CoverageControl/Config.h</text>
</a>
</g>
</g>
<!-- Node6&#45;&gt;Node9 -->
<g id="edge9_Node000006_Node000009" class="edge">
<title>Node6&#45;&gt;Node9</title>
<g id="a_edge9_Node000006_Node000009"><a xlink:title=" ">
<path fill="none" stroke="#63b8ff" d="M635.95,-59.48C635.42,-51.8 634.62,-40.22 633.92,-30.22"/>
<polygon fill="#63b8ff" stroke="#63b8ff" points="637.42,-30.05 633.24,-20.32 630.44,-30.53 637.42,-30.05"/>
</a>
</g>
</g>
<!-- Node11&#45;&gt;Node7 -->
<g id="edge13_Node000011_Node000007" class="edge">
<title>Node11&#45;&gt;Node7</title>
<g id="a_edge13_Node000011_Node000007"><a xlink:title=" ">
<path fill="none" stroke="#63b8ff" d="M779.26,-54.02C770.87,-45.81 760.22,-35.38 751.41,-26.77"/>
<polygon fill="#63b8ff" stroke="#63b8ff" points="754.06,-24.46 744.46,-19.96 749.16,-29.46 754.06,-24.46"/>
</a>
</g>
</g>
<!-- Node12 -->
<g id="Node000012" class="node">
<title>Node12</title>
<g id="a_Node000012"><a xlink:title=" ">
<polygon fill="#e0e0e0" stroke="#999999" points="886.29,-18.5 832.79,-18.5 832.79,0 886.29,0 886.29,-18.5"/>
<text text-anchor="middle" x="859.54" y="-5" font-family="Helvetica,sans-Serif" font-size="10.00">iostream</text>
</a>
</g>
</g>
<!-- Node11&#45;&gt;Node12 -->
<g id="edge12_Node000011_Node000012" class="edge">
<title>Node11&#45;&gt;Node12</title>
<g id="a_edge12_Node000011_Node000012"><a xlink:title=" ">
<path fill="none" stroke="#63b8ff" d="M809.52,-54.02C819.1,-45.64 831.31,-34.95 841.28,-26.23"/>
<polygon fill="#63b8ff" stroke="#63b8ff" points="843.29,-29.12 848.51,-19.9 838.68,-23.85 843.29,-29.12"/>
</a>
</g>
</g>
<!-- Node13 -->
<g id="Node000013" class="node">
<title>Node13</title>
<g id="a_Node000013"><a xlink:title=" ">
<polygon fill="#e0e0e0" stroke="#999999" points="955.16,-18.5 903.91,-18.5 903.91,0 955.16,0 955.16,-18.5"/>
<text text-anchor="middle" x="929.54" y="-5" font-family="Helvetica,sans-Serif" font-size="10.00">sstream</text>
</a>
</g>
</g>
<!-- Node11&#45;&gt;Node13 -->
<g id="edge14_Node000011_Node000013" class="edge">
<title>Node11&#45;&gt;Node13</title>
<g id="a_edge14_Node000011_Node000013"><a xlink:title=" ">
<path fill="none" stroke="#63b8ff" d="M826.46,-54.02C848.42,-44.7 877.1,-32.52 898.63,-23.38"/>
<polygon fill="#63b8ff" stroke="#63b8ff" points="899.93,-26.63 907.77,-19.5 897.2,-20.18 899.93,-26.63"/>
</a>
</g>
</g>
<!-- Node14 -->
<g id="Node000014" class="node">
<title>Node14</title>
<g id="a_Node000014"><a xlink:title=" ">
<polygon fill="#e0e0e0" stroke="#999999" points="814.66,-18.5 772.41,-18.5 772.41,0 814.66,0 814.66,-18.5"/>
<text text-anchor="middle" x="793.54" y="-5" font-family="Helvetica,sans-Serif" font-size="10.00">vector</text>
</a>
</g>
</g>
<!-- Node11&#45;&gt;Node14 -->
<g id="edge15_Node000011_Node000014" class="edge">
<title>Node11&#45;&gt;Node14</title>
<g id="a_edge15_Node000011_Node000014"><a xlink:title=" ">
<path fill="none" stroke="#63b8ff" d="M793.54,-54.02C793.54,-46.92 793.54,-38.17 793.54,-30.36"/>
<polygon fill="#63b8ff" stroke="#63b8ff" points="797.04,-30.42 793.54,-20.42 790.04,-30.42 797.04,-30.42"/>
</a>
</g>
</g>
<!-- Node15&#45;&gt;Node2 -->
<g id="edge17_Node000015_Node000002" class="edge">
<title>Node15&#45;&gt;Node2</title>
<g id="a_edge17_Node000015_Node000002"><a xlink:title=" ">
<path fill="none" stroke="#63b8ff" d="M256.74,-54.02C231.75,-44.53 198.97,-32.07 174.77,-22.88"/>
<polygon fill="#63b8ff" stroke="#63b8ff" points="176.32,-19.72 165.73,-19.44 173.84,-26.26 176.32,-19.72"/>
</a>
</g>
</g>
</g>
</svg>
