<?xml version="1.0" encoding="UTF-8" standalone="no"?>
<!DOCTYPE svg PUBLIC "-//W3C//DTD SVG 1.1//EN"
 "http://www.w3.org/Graphics/SVG/1.1/DTD/svg11.dtd">
<!-- Generated by graphviz version 10.0.1 (0)
 -->
<!-- Title: generate_world_map.cu Pages: 1 -->
<svg width="884pt" height="146pt"
 viewBox="0.00 0.00 883.66 146.00" xmlns="http://www.w3.org/2000/svg" xmlns:xlink="http://www.w3.org/1999/xlink">
<g id="graph0" class="graph" transform="scale(1 1) rotate(0) translate(4 142)">
<title>generate_world_map.cu</title>
<!-- Node1 -->
<g id="Node000001" class="node">
<title>Node1</title>
<g id="a_Node000001"><a xlink:title="File for generating the world map IDF using CUDA.">
<polygon fill="#999999" stroke="#666666" points="394.91,-138 276.16,-138 276.16,-119.5 394.91,-119.5 394.91,-138"/>
<text text-anchor="middle" x="335.54" y="-124.5" font-family="Helvetica,sans-Serif" font-size="10.00">generate_world_map.cu</text>
</a>
</g>
</g>
<!-- Node2 -->
<g id="Node000002" class="node">
<title>Node2</title>
<g id="a_Node000002"><a xlink:title=" ">
<polygon fill="#e0e0e0" stroke="#999999" points="182.91,-18.5 100.16,-18.5 100.16,0 182.91,0 182.91,-18.5"/>
<text text-anchor="middle" x="141.54" y="-5" font-family="Helvetica,sans-Serif" font-size="10.00">cuda_runtime.h</text>
</a>
</g>
</g>
<!-- Node1&#45;&gt;Node2 -->
<g id="edge1_Node000001_Node000002" class="edge">
<title>Node1&#45;&gt;Node2</title>
<g id="a_edge1_Node000001_Node000002"><a xlink:title=" ">
<path fill="none" stroke="#63b8ff" d="M275.69,-128.66C190.73,-128.53 41.67,-122.54 7.54,-83.5 -20.63,-51.28 40.01,-30.57 88.65,-19.66"/>
<polygon fill="#63b8ff" stroke="#63b8ff" points="89.23,-23.12 98.28,-17.61 87.77,-16.27 89.23,-23.12"/>
</a>
</g>
</g>
<!-- Node3 -->
<g id="Node000003" class="node">
<title>Node3</title>
<g id="a_Node000003"><a xlink:title=" ">
<polygon fill="#e0e0e0" stroke="#999999" points="114.04,-78.25 17.04,-78.25 17.04,-59.75 114.04,-59.75 114.04,-78.25"/>
<text text-anchor="middle" x="65.54" y="-64.75" font-family="Helvetica,sans-Serif" font-size="10.00">thrust/device_ptr.h</text>
</a>
</g>
</g>
<!-- Node1&#45;&gt;Node3 -->
<g id="edge2_Node000001_Node000003" class="edge">
<title>Node1&#45;&gt;Node3</title>
<g id="a_edge2_Node000001_Node000003"><a xlink:title=" ">
<path fill="none" stroke="#63b8ff" d="M291.81,-119.04C248.7,-110.36 180.98,-96.49 122.54,-83.5 119.38,-82.8 116.12,-82.06 112.83,-81.31"/>
<polygon fill="#63b8ff" stroke="#63b8ff" points="113.7,-77.91 103.16,-79.06 112.11,-84.73 113.7,-77.91"/>
</a>
</g>
</g>
<!-- Node4 -->
<g id="Node000004" class="node">
<title>Node4</title>
<g id="a_Node000004"><a xlink:title=" ">
<polygon fill="#e0e0e0" stroke="#999999" points="219.16,-78.25 131.91,-78.25 131.91,-59.75 219.16,-59.75 219.16,-78.25"/>
<text text-anchor="middle" x="175.54" y="-64.75" font-family="Helvetica,sans-Serif" font-size="10.00">thrust/extrema.h</text>
</a>
</g>
</g>
<!-- Node1&#45;&gt;Node4 -->
<g id="edge3_Node000001_Node000004" class="edge">
<title>Node1&#45;&gt;Node4</title>
<g id="a_edge3_Node000001_Node000004"><a xlink:title=" ">
<path fill="none" stroke="#63b8ff" d="M311.59,-119.1C284.72,-109.41 240.91,-93.6 210.29,-82.54"/>
<polygon fill="#63b8ff" stroke="#63b8ff" points="211.68,-79.32 201.08,-79.22 209.3,-85.91 211.68,-79.32"/>
</a>
</g>
</g>
<!-- Node5 -->
<g id="Node000005" class="node">
<title>Node5</title>
<g id="a_Node000005"><a xlink:title=" ">
<polygon fill="#e0e0e0" stroke="#999999" points="401.04,-18.5 358.04,-18.5 358.04,0 401.04,0 401.04,-18.5"/>
<text text-anchor="middle" x="379.54" y="-5" font-family="Helvetica,sans-Serif" font-size="10.00">cmath</text>
</a>
</g>
</g>
<!-- Node1&#45;&gt;Node5 -->
<g id="edge4_Node000001_Node000005" class="edge">
<title>Node1&#45;&gt;Node5</title>
<g id="a_edge4_Node000001_Node000005"><a xlink:title=" ">
<path fill="none" stroke="#63b8ff" d="M340.65,-119.18C345.71,-110.44 353.41,-96.37 358.54,-83.5 365.66,-65.64 371.46,-44.46 375.15,-29.47"/>
<polygon fill="#63b8ff" stroke="#63b8ff" points="378.49,-30.57 377.38,-20.03 371.67,-28.96 378.49,-30.57"/>
</a>
</g>
</g>
<!-- Node6 -->
<g id="Node000006" class="node">
<title>Node6</title>
<g id="a_Node000006"><a xlink:href="constants_8h.html" target="_top" xlink:title="Constants for the CoverageControl library.">
<polygon fill="white" stroke="#666666" points="547.91,-78.25 405.16,-78.25 405.16,-59.75 547.91,-59.75 547.91,-78.25"/>
<text text-anchor="middle" x="476.54" y="-64.75" font-family="Helvetica,sans-Serif" font-size="10.00">CoverageControl/constants.h</text>
</a>
</g>
</g>
<!-- Node1&#45;&gt;Node6 -->
<g id="edge5_Node000001_Node000006" class="edge">
<title>Node1&#45;&gt;Node6</title>
<g id="a_edge5_Node000001_Node000006"><a xlink:title=" ">
<path fill="none" stroke="#63b8ff" d="M356.65,-119.1C380.01,-109.54 417.92,-94.01 444.85,-82.98"/>
<polygon fill="#63b8ff" stroke="#63b8ff" points="445.96,-86.31 453.89,-79.28 443.31,-79.83 445.96,-86.31"/>
</a>
</g>
</g>
<!-- Node10 -->
<g id="Node000010" class="node">
<title>Node10</title>
<g id="a_Node000010"><a xlink:href="geometry__utils_8cuh.html" target="_top" xlink:title="CUDA supported functions to check whether a point is inside a monotone polygon.">
<polygon fill="white" stroke="#666666" points="349.91,-83.5 237.16,-83.5 237.16,-54.5 349.91,-54.5 349.91,-83.5"/>
<text text-anchor="start" x="245.16" y="-70" font-family="Helvetica,sans-Serif" font-size="10.00">CoverageControl/cuda</text>
<text text-anchor="middle" x="293.54" y="-59.5" font-family="Helvetica,sans-Serif" font-size="10.00">/geometry_utils.cuh</text>
</a>
</g>
</g>
<!-- Node1&#45;&gt;Node10 -->
<g id="edge10_Node000001_Node000010" class="edge">
<title>Node1&#45;&gt;Node10</title>
<g id="a_edge10_Node000001_Node000010"><a xlink:title=" ">
<path fill="none" stroke="#63b8ff" d="M329.34,-119.23C324.33,-112.34 317.03,-102.29 310.32,-93.08"/>
<polygon fill="#63b8ff" stroke="#63b8ff" points="313.28,-91.19 304.56,-85.16 307.61,-95.3 313.28,-91.19"/>
</a>
</g>
</g>
<!-- Node11 -->
<g id="Node000011" class="node">
<title>Node11</title>
<g id="a_Node000011"><a xlink:title=" ">
<polygon fill="#e0e0e0" stroke="#999999" points="707.16,-83.5 565.91,-83.5 565.91,-54.5 707.16,-54.5 707.16,-83.5"/>
<text text-anchor="start" x="573.91" y="-70" font-family="Helvetica,sans-Serif" font-size="10.00">CoverageControl/extern</text>
<text text-anchor="middle" x="636.54" y="-59.5" font-family="Helvetica,sans-Serif" font-size="10.00">/cuda_helpers/helper_cuda.h</text>
</a>
</g>
</g>
<!-- Node1&#45;&gt;Node11 -->
<g id="edge12_Node000001_Node000011" class="edge">
<title>Node1&#45;&gt;Node11</title>
<g id="a_edge12_Node000001_Node000011"><a xlink:title=" ">
<path fill="none" stroke="#63b8ff" d="M380.93,-119.04C426.72,-110.26 498.43,-96.5 554.26,-85.79"/>
<polygon fill="#63b8ff" stroke="#63b8ff" points="554.91,-89.23 564.07,-83.9 553.59,-82.35 554.91,-89.23"/>
</a>
</g>
</g>
<!-- Node12 -->
<g id="Node000012" class="node">
<title>Node12</title>
<g id="a_Node000012"><a xlink:href="generate__world__map_8h.html" target="_top" xlink:title="Contains structs and functions to interface with the CUDA code to generate the world map.">
<polygon fill="white" stroke="#666666" points="854.16,-83.5 724.91,-83.5 724.91,-54.5 854.16,-54.5 854.16,-83.5"/>
<text text-anchor="start" x="732.91" y="-70" font-family="Helvetica,sans-Serif" font-size="10.00">CoverageControl/generate</text>
<text text-anchor="middle" x="789.54" y="-59.5" font-family="Helvetica,sans-Serif" font-size="10.00">_world_map.h</text>
</a>
</g>
</g>
<!-- Node1&#45;&gt;Node12 -->
<g id="edge13_Node000001_Node000012" class="edge">
<title>Node1&#45;&gt;Node12</title>
<g id="a_edge13_Node000001_Node000012"><a xlink:title=" ">
<path fill="none" stroke="#63b8ff" d="M395.1,-122.08C467.95,-114.88 595.27,-101.38 713.64,-83.88"/>
<polygon fill="#63b8ff" stroke="#63b8ff" points="713.83,-87.39 723.2,-82.45 712.79,-80.46 713.83,-87.39"/>
</a>
</g>
</g>
<!-- Node6&#45;&gt;Node5 -->
<g id="edge6_Node000006_Node000005" class="edge">
<title>Node6&#45;&gt;Node5</title>
<g id="a_edge6_Node000006_Node000005"><a xlink:title=" ">
<path fill="none" stroke="#63b8ff" d="M462.23,-59.48C446.91,-50.36 422.35,-35.74 403.96,-24.79"/>
<polygon fill="#63b8ff" stroke="#63b8ff" points="405.91,-21.88 395.53,-19.77 402.33,-27.89 405.91,-21.88"/>
</a>
</g>
</g>
<!-- Node7 -->
<g id="Node000007" class="node">
<title>Node7</title>
<g id="a_Node000007"><a xlink:title=" ">
<polygon fill="#e0e0e0" stroke="#999999" points="672.16,-18.5 632.91,-18.5 632.91,0 672.16,0 672.16,-18.5"/>
<text text-anchor="middle" x="652.54" y="-5" font-family="Helvetica,sans-Serif" font-size="10.00">limits</text>
</a>
</g>
</g>
<!-- Node6&#45;&gt;Node7 -->
<g id="edge7_Node000006_Node000007" class="edge">
<title>Node6&#45;&gt;Node7</title>
<g id="a_edge7_Node000006_Node000007"><a xlink:title=" ">
<path fill="none" stroke="#63b8ff" d="M502.89,-59.35C534.77,-48.89 588.33,-31.32 621.99,-20.27"/>
<polygon fill="#63b8ff" stroke="#63b8ff" points="622.73,-23.71 631.14,-17.27 620.55,-17.06 622.73,-23.71"/>
</a>
</g>
</g>
<!-- Node8 -->
<g id="Node000008" class="node">
<title>Node8</title>
<g id="a_Node000008"><a xlink:title=" ">
<polygon fill="#e0e0e0" stroke="#999999" points="461.54,-18.5 421.54,-18.5 421.54,0 461.54,0 461.54,-18.5"/>
<text text-anchor="middle" x="441.54" y="-5" font-family="Helvetica,sans-Serif" font-size="10.00">string</text>
</a>
</g>
</g>
<!-- Node6&#45;&gt;Node8 -->
<g id="edge8_Node000006_Node000008" class="edge">
<title>Node6&#45;&gt;Node8</title>
<g id="a_edge8_Node000006_Node000008"><a xlink:title=" ">
<path fill="none" stroke="#63b8ff" d="M471.38,-59.48C466.46,-51.38 458.92,-38.92 452.64,-28.57"/>
<polygon fill="#63b8ff" stroke="#63b8ff" points="455.69,-26.84 447.51,-20.1 449.7,-30.47 455.69,-26.84"/>
</a>
</g>
</g>
<!-- Node9 -->
<g id="Node000009" class="node">
<title>Node9</title>
<g id="a_Node000009"><a xlink:title=" ">
<polygon fill="#e0e0e0" stroke="#999999" points="607.79,-18.5 479.29,-18.5 479.29,0 607.79,0 607.79,-18.5"/>
<text text-anchor="middle" x="543.54" y="-5" font-family="Helvetica,sans-Serif" font-size="10.00">CoverageControl/Config.h</text>
</a>
</g>
</g>
<!-- Node6&#45;&gt;Node9 -->
<g id="edge9_Node000006_Node000009" class="edge">
<title>Node6&#45;&gt;Node9</title>
<g id="a_edge9_Node000006_Node000009"><a xlink:title=" ">
<path fill="none" stroke="#63b8ff" d="M486.43,-59.48C496.52,-50.78 512.43,-37.06 524.9,-26.31"/>
<polygon fill="#63b8ff" stroke="#63b8ff" points="527.18,-28.97 532.47,-19.79 522.61,-23.67 527.18,-28.97"/>
</a>
</g>
</g>
<!-- Node10&#45;&gt;Node2 -->
<g id="edge11_Node000010_Node000002" class="edge">
<title>Node10&#45;&gt;Node2</title>
<g id="a_edge11_Node000010_Node000002"><a xlink:title=" ">
<path fill="none" stroke="#63b8ff" d="M256.74,-54.02C231.75,-44.53 198.97,-32.07 174.77,-22.88"/>
<polygon fill="#63b8ff" stroke="#63b8ff" points="176.32,-19.72 165.73,-19.44 173.84,-26.26 176.32,-19.72"/>
</a>
</g>
</g>
<!-- Node12&#45;&gt;Node7 -->
<g id="edge15_Node000012_Node000007" class="edge">
<title>Node12&#45;&gt;Node7</title>
<g id="a_edge15_Node000012_Node000007"><a xlink:title=" ">
<path fill="none" stroke="#63b8ff" d="M756.38,-54.02C733.88,-44.54 704.39,-32.11 682.59,-22.92"/>
<polygon fill="#63b8ff" stroke="#63b8ff" points="684.24,-19.81 673.66,-19.15 681.52,-26.26 684.24,-19.81"/>
</a>
</g>
</g>
<!-- Node13 -->
<g id="Node000013" class="node">
<title>Node13</title>
<g id="a_Node000013"><a xlink:title=" ">
<polygon fill="#e0e0e0" stroke="#999999" points="746.29,-18.5 692.79,-18.5 692.79,0 746.29,0 746.29,-18.5"/>
<text text-anchor="middle" x="719.54" y="-5" font-family="Helvetica,sans-Serif" font-size="10.00">iostream</text>
</a>
</g>
</g>
<!-- Node12&#45;&gt;Node13 -->
<g id="edge14_Node000012_Node000013" class="edge">
<title>Node12&#45;&gt;Node13</title>
<g id="a_edge14_Node000012_Node000013"><a xlink:title=" ">
<path fill="none" stroke="#63b8ff" d="M772.59,-54.02C762.33,-45.55 749.21,-34.73 738.59,-25.97"/>
<polygon fill="#63b8ff" stroke="#63b8ff" points="741.14,-23.53 731.2,-19.87 736.68,-28.93 741.14,-23.53"/>
</a>
</g>
</g>
<!-- Node14 -->
<g id="Node000014" class="node">
<title>Node14</title>
<g id="a_Node000014"><a xlink:title=" ">
<polygon fill="#e0e0e0" stroke="#999999" points="815.16,-18.5 763.91,-18.5 763.91,0 815.16,0 815.16,-18.5"/>
<text text-anchor="middle" x="789.54" y="-5" font-family="Helvetica,sans-Serif" font-size="10.00">sstream</text>
</a>
</g>
</g>
<!-- Node12&#45;&gt;Node14 -->
<g id="edge16_Node000012_Node000014" class="edge">
<title>Node12&#45;&gt;Node14</title>
<g id="a_edge16_Node000012_Node000014"><a xlink:title=" ">
<path fill="none" stroke="#63b8ff" d="M789.54,-54.02C789.54,-46.92 789.54,-38.17 789.54,-30.36"/>
<polygon fill="#63b8ff" stroke="#63b8ff" points="793.04,-30.42 789.54,-20.42 786.04,-30.42 793.04,-30.42"/>
</a>
</g>
</g>
<!-- Node15 -->
<g id="Node000015" class="node">
<title>Node15</title>
<g id="a_Node000015"><a xlink:title=" ">
<polygon fill="#e0e0e0" stroke="#999999" points="875.66,-18.5 833.41,-18.5 833.41,0 875.66,0 875.66,-18.5"/>
<text text-anchor="middle" x="854.54" y="-5" font-family="Helvetica,sans-Serif" font-size="10.00">vector</text>
</a>
</g>
</g>
<!-- Node12&#45;&gt;Node15 -->
<g id="edge17_Node000012_Node000015" class="edge">
<title>Node12&#45;&gt;Node15</title>
<g id="a_edge17_Node000012_Node000015"><a xlink:title=" ">
<path fill="none" stroke="#63b8ff" d="M805.27,-54.02C814.61,-45.72 826.5,-35.17 836.25,-26.5"/>
<polygon fill="#63b8ff" stroke="#63b8ff" points="838.52,-29.17 843.67,-19.91 833.87,-23.93 838.52,-29.17"/>
</a>
</g>
</g>
</g>
</svg>
