<?xml version="1.0" encoding="UTF-8" standalone="no"?>
<!DOCTYPE svg PUBLIC "-//W3C//DTD SVG 1.1//EN"
 "http://www.w3.org/Graphics/SVG/1.1/DTD/svg11.dtd">
<!-- Generated by graphviz version 10.0.1 (0)
 -->
<!-- Title: geographiclib_wrapper.h Pages: 1 -->
<svg width="341pt" height="136pt"
 viewBox="0.00 0.00 340.75 135.50" xmlns="http://www.w3.org/2000/svg" xmlns:xlink="http://www.w3.org/1999/xlink">

<svg id="main" version="1.1" xmlns="http://www.w3.org/2000/svg" xmlns:xlink="http://www.w3.org/1999/xlink" xml:space="preserve" onload="init(evt)">
<style type="text/css"><![CDATA[
.node, .edge {opacity: 0.7;}
.node.selected, .edge.selected {opacity: 1;}
.edge:hover path { stroke: red; }
.edge:hover polygon { stroke: red; fill: red; }
]]></style>
<script type="application/ecmascript" xlink:href="svg.min.js"/>
<svg id="graph" class="graph">
<g id="graph0" class="graph" transform="scale(1 1) rotate(0) translate(4 131.5)">
<title>geographiclib_wrapper.h</title>
<!-- Node1 -->
<g id="Node000001" class="node">
<title>Node1</title>
<g id="a_Node000001"><a xlink:title="Wrappers for GeographicLib functions.">
<polygon fill="#999999" stroke="#666666" points="227.12,-127.5 106.12,-127.5 106.12,-109 227.12,-109 227.12,-127.5"/>
<text text-anchor="middle" x="166.62" y="-114" font-family="Helvetica,sans-Serif" font-size="10.00">geographiclib_wrapper.h</text>
</a>
</g>
</g>
<!-- Node2 -->
<g id="Node000002" class="node">
<title>Node2</title>
<g id="a_Node000002"><a xlink:title=" ">
<polygon fill="#e0e0e0" stroke="#999999" points="165.25,-73 0,-73 0,-54.5 165.25,-54.5 165.25,-73"/>
<text text-anchor="middle" x="82.62" y="-59.5" font-family="Helvetica,sans-Serif" font-size="10.00">GeographicLib/LocalCartesian.hpp</text>
</a>
</g>
</g>
<!-- Node1&#45;&gt;Node2 -->
<g id="edge1_Node000001_Node000002" class="edge">
<title>Node1&#45;&gt;Node2</title>
<g id="a_edge1_Node000001_Node000002"><a xlink:title=" ">
<path fill="none" stroke="#63b8ff" d="M152.75,-108.58C140.11,-100.68 121.17,-88.84 106.16,-79.46"/>
<polygon fill="#63b8ff" stroke="#63b8ff" points="108.13,-76.57 97.8,-74.23 104.42,-82.5 108.13,-76.57"/>
</a>
</g>
</g>
<!-- Node3 -->
<g id="Node000003" class="node">
<title>Node3</title>
<g id="a_Node000003"><a xlink:href="typedefs_8h.html" target="_top" xlink:title="Contains typedefs for the library.">
<polygon fill="white" stroke="#666666" points="320.38,-73 182.88,-73 182.88,-54.5 320.38,-54.5 320.38,-73"/>
<text text-anchor="middle" x="251.62" y="-59.5" font-family="Helvetica,sans-Serif" font-size="10.00">CoverageControl/typedefs.h</text>
</a>
</g>
</g>
<!-- Node1&#45;&gt;Node3 -->
<g id="edge2_Node000001_Node000003" class="edge">
<title>Node1&#45;&gt;Node3</title>
<g id="a_edge2_Node000001_Node000003"><a xlink:title=" ">
<path fill="none" stroke="#63b8ff" d="M180.66,-108.58C193.46,-100.68 212.62,-88.84 227.81,-79.46"/>
<polygon fill="#63b8ff" stroke="#63b8ff" points="229.61,-82.46 236.28,-74.23 225.93,-76.5 229.61,-82.46"/>
</a>
</g>
</g>
<!-- Node4 -->
<g id="Node000004" class="node">
<title>Node4</title>
<g id="a_Node000004"><a xlink:title=" ">
<polygon fill="#e0e0e0" stroke="#999999" points="212.75,-18.5 140.5,-18.5 140.5,0 212.75,0 212.75,-18.5"/>
<text text-anchor="middle" x="176.62" y="-5" font-family="Helvetica,sans-Serif" font-size="10.00">Eigen/Dense</text>
</a>
</g>
</g>
<!-- Node3&#45;&gt;Node4 -->
<g id="edge3_Node000003_Node000004" class="edge">
<title>Node3&#45;&gt;Node4</title>
<g id="a_edge3_Node000003_Node000004"><a xlink:title=" ">
<path fill="none" stroke="#63b8ff" d="M239.24,-54.08C228.17,-46.33 211.69,-34.79 198.41,-25.5"/>
<polygon fill="#63b8ff" stroke="#63b8ff" points="200.47,-22.67 190.27,-19.8 196.45,-28.4 200.47,-22.67"/>
</a>
</g>
</g>
<!-- Node5 -->
<g id="Node000005" class="node">
<title>Node5</title>
<g id="a_Node000005"><a xlink:title=" ">
<polygon fill="#e0e0e0" stroke="#999999" points="272.75,-18.5 230.5,-18.5 230.5,0 272.75,0 272.75,-18.5"/>
<text text-anchor="middle" x="251.62" y="-5" font-family="Helvetica,sans-Serif" font-size="10.00">queue</text>
</a>
</g>
</g>
<!-- Node3&#45;&gt;Node5 -->
<g id="edge4_Node000003_Node000005" class="edge">
<title>Node3&#45;&gt;Node5</title>
<g id="a_edge4_Node000003_Node000005"><a xlink:title=" ">
<path fill="none" stroke="#63b8ff" d="M251.62,-54.08C251.62,-47.58 251.62,-38.42 251.62,-30.16"/>
<polygon fill="#63b8ff" stroke="#63b8ff" points="255.13,-30.27 251.63,-20.27 248.13,-30.27 255.13,-30.27"/>
</a>
</g>
</g>
<!-- Node6 -->
<g id="Node000006" class="node">
<title>Node6</title>
<g id="a_Node000006"><a xlink:title=" ">
<polygon fill="#e0e0e0" stroke="#999999" points="332.75,-18.5 290.5,-18.5 290.5,0 332.75,0 332.75,-18.5"/>
<text text-anchor="middle" x="311.62" y="-5" font-family="Helvetica,sans-Serif" font-size="10.00">vector</text>
</a>
</g>
</g>
<!-- Node3&#45;&gt;Node6 -->
<g id="edge5_Node000003_Node000006" class="edge">
<title>Node3&#45;&gt;Node6</title>
<g id="a_edge5_Node000003_Node000006"><a xlink:title=" ">
<path fill="none" stroke="#63b8ff" d="M261.53,-54.08C270.18,-46.51 282.96,-35.33 293.44,-26.16"/>
<polygon fill="#63b8ff" stroke="#63b8ff" points="295.54,-28.97 300.76,-19.75 290.93,-23.71 295.54,-28.97"/>
</a>
</g>
</g>
</g>
</svg>
</svg>

<style type='text/css'>
<![CDATA[
[data-mouse-over-selected='false'] { opacity: 0.7; }
[data-mouse-over-selected='true']  { opacity: 1.0; }
]]>
</style>
<script type="application/ecmascript"><![CDATA[
document.addEventListener('DOMContentLoaded', (event) => {
  highlightEdges();
  highlightAdjacentNodes();
});
]]></script>
</svg>
