<?xml version="1.0" encoding="UTF-8" standalone="no"?>
<!DOCTYPE svg PUBLIC "-//W3C//DTD SVG 1.1//EN"
 "http://www.w3.org/Graphics/SVG/1.1/DTD/svg11.dtd">
<!-- Generated by graphviz version 12.1.2 (0)
 -->
<!-- Title: Graph Legend Pages: 1 -->
<svg width="504pt" height="157pt"
 viewBox="0.00 0.00 504.38 156.50" xmlns="http://www.w3.org/2000/svg" xmlns:xlink="http://www.w3.org/1999/xlink">
<g id="graph0" class="graph" transform="scale(1 1) rotate(0) translate(4 152.5)">
<title>Graph Legend</title>
<!-- Node9 -->
<g id="Node000009" class="node">
<title>Node9</title>
<g id="a_Node000009"><a xlink:title=" ">
<polygon fill="#999999" stroke="#666666" points="289.5,-18.5 236,-18.5 236,0 289.5,0 289.5,-18.5"/>
<text text-anchor="middle" x="262.75" y="-5" font-family="Helvetica,sans-Serif" font-size="10.00">Inherited</text>
</a>
</g>
</g>
<!-- Node10 -->
<g id="Node000010" class="node">
<title>Node10</title>
<g id="a_Node000010"><a xlink:title=" ">
<polygon fill="white" stroke="#666666" points="65.5,-83.5 0,-83.5 0,-65 65.5,-65 65.5,-83.5"/>
<text text-anchor="middle" x="32.75" y="-70" font-family="Helvetica,sans-Serif" font-size="10.00">PublicBase</text>
</a>
</g>
</g>
<!-- Node10&#45;&gt;Node9 -->
<g id="edge1" class="edge">
<title>Node10&#45;&gt;Node9</title>
<g id="a_edge1"><a xlink:title=" ">
<path fill="none" stroke="#63b8ff" d="M75.24,-61.61C122.07,-48.78 195.98,-28.54 235.57,-17.69"/>
<polygon fill="#63b8ff" stroke="#63b8ff" points="74.43,-58.2 65.71,-64.22 76.28,-64.96 74.43,-58.2"/>
</a>
</g>
</g>
<!-- Node11 -->
<g id="Node000011" class="node">
<title>Node11</title>
<g id="a_Node000011"><a xlink:title=" ">
<polygon fill="#fff0f0" stroke="red" points="62.12,-148.5 3.38,-148.5 3.38,-130 62.12,-130 62.12,-148.5"/>
<text text-anchor="middle" x="32.75" y="-135" font-family="Helvetica,sans-Serif" font-size="10.00">Truncated</text>
</a>
</g>
</g>
<!-- Node11&#45;&gt;Node10 -->
<g id="edge2" class="edge">
<title>Node11&#45;&gt;Node10</title>
<g id="a_edge2"><a xlink:title=" ">
<path fill="none" stroke="#63b8ff" d="M32.75,-118.39C32.75,-106.66 32.75,-92.44 32.75,-83.61"/>
<polygon fill="#63b8ff" stroke="#63b8ff" points="29.25,-118.24 32.75,-128.24 36.25,-118.24 29.25,-118.24"/>
</a>
</g>
</g>
<!-- Node13 -->
<g id="node4" class="node">
<title>Node13</title>
<g id="a_node4"><a xlink:title=" ">
<polygon fill="white" stroke="#666666" points="164,-83.5 83.5,-83.5 83.5,-65 164,-65 164,-83.5"/>
<text text-anchor="middle" x="123.75" y="-70" font-family="Helvetica,sans-Serif" font-size="10.00">ProtectedBase</text>
</a>
</g>
</g>
<!-- Node13&#45;&gt;Node9 -->
<g id="edge3" class="edge">
<title>Node13&#45;&gt;Node9</title>
<g id="a_edge3"><a xlink:title=" ">
<path fill="none" stroke="darkgreen" d="M153.26,-59.88C180.49,-47.53 220.13,-29.57 243.5,-18.98"/>
<polygon fill="darkgreen" stroke="darkgreen" points="151.83,-56.68 144.16,-64 154.72,-63.06 151.83,-56.68"/>
</a>
</g>
</g>
<!-- Node14 -->
<g id="node5" class="node">
<title>Node14</title>
<g id="a_node5"><a xlink:title=" ">
<polygon fill="white" stroke="#666666" points="251,-83.5 182.5,-83.5 182.5,-65 251,-65 251,-83.5"/>
<text text-anchor="middle" x="216.75" y="-70" font-family="Helvetica,sans-Serif" font-size="10.00">PrivateBase</text>
</a>
</g>
</g>
<!-- Node14&#45;&gt;Node9 -->
<g id="edge4" class="edge">
<title>Node14&#45;&gt;Node9</title>
<g id="a_edge4"><a xlink:title=" ">
<path fill="none" stroke="#8b1a1a" d="M229.64,-55.6C238.47,-43.5 249.79,-28 256.64,-18.61"/>
<polygon fill="#8b1a1a" stroke="#8b1a1a" points="226.92,-53.39 223.85,-63.53 232.57,-57.52 226.92,-53.39"/>
</a>
</g>
</g>
<!-- Node15 -->
<g id="Node000015" class="node">
<title>Node15</title>
<g id="a_Node000015"><a xlink:title=" ">
<polygon fill="#e0e0e0" stroke="#999999" points="350.75,-83.5 268.75,-83.5 268.75,-65 350.75,-65 350.75,-83.5"/>
<text text-anchor="middle" x="309.75" y="-70" font-family="Helvetica,sans-Serif" font-size="10.00">Undocumented</text>
</a>
</g>
</g>
<!-- Node15&#45;&gt;Node9 -->
<g id="edge5" class="edge">
<title>Node15&#45;&gt;Node9</title>
<g id="a_edge5"><a xlink:title=" ">
<path fill="none" stroke="#63b8ff" d="M296.58,-55.6C287.56,-43.5 275.99,-28 268.99,-18.61"/>
<polygon fill="#63b8ff" stroke="#63b8ff" points="293.72,-57.62 302.51,-63.54 299.33,-53.43 293.72,-57.62"/>
</a>
</g>
</g>
<!-- Node16 -->
<g id="node7" class="node">
<title>Node16</title>
<g id="a_node7"><a xlink:title=" ">
<polygon fill="white" stroke="#666666" points="439.12,-83.5 368.38,-83.5 368.38,-65 439.12,-65 439.12,-83.5"/>
<text text-anchor="middle" x="403.75" y="-70" font-family="Helvetica,sans-Serif" font-size="10.00">Templ&lt; int &gt;</text>
</a>
</g>
</g>
<!-- Node16&#45;&gt;Node9 -->
<g id="edge6" class="edge">
<title>Node16&#45;&gt;Node9</title>
<g id="a_edge6"><a xlink:title=" ">
<path fill="none" stroke="#63b8ff" d="M374.18,-60.04C346.55,-47.69 306.09,-29.61 282.28,-18.98"/>
<polygon fill="#63b8ff" stroke="#63b8ff" points="372.5,-63.12 383.06,-64 375.36,-56.73 372.5,-63.12"/>
</a>
</g>
</g>
<!-- Node17 -->
<g id="node8" class="node">
<title>Node17</title>
<g id="a_node8"><a xlink:title=" ">
<polygon fill="white" stroke="#666666" points="436.88,-148.5 370.62,-148.5 370.62,-130 436.88,-130 436.88,-148.5"/>
<text text-anchor="middle" x="403.75" y="-135" font-family="Helvetica,sans-Serif" font-size="10.00">Templ&lt; T &gt;</text>
</a>
</g>
</g>
<!-- Node17&#45;&gt;Node16 -->
<g id="edge7" class="edge">
<title>Node17&#45;&gt;Node16</title>
<g id="a_edge7"><a xlink:title=" ">
<path fill="none" stroke="orange" stroke-dasharray="5,2" d="M403.75,-118.39C403.75,-106.66 403.75,-92.44 403.75,-83.61"/>
<polygon fill="orange" stroke="orange" points="400.25,-118.24 403.75,-128.24 407.25,-118.24 400.25,-118.24"/>
</a>
</g>
<text text-anchor="middle" x="418" y="-102.5" font-family="Helvetica,sans-Serif" font-size="10.00" fill="grey">&lt; int &gt;</text>
</g>
<!-- Node18 -->
<g id="node9" class="node">
<title>Node18</title>
<g id="a_node9"><a xlink:title=" ">
<polygon fill="white" stroke="#666666" points="496.38,-83.5 457.12,-83.5 457.12,-65 496.38,-65 496.38,-83.5"/>
<text text-anchor="middle" x="476.75" y="-70" font-family="Helvetica,sans-Serif" font-size="10.00">Used</text>
</a>
</g>
</g>
<!-- Node18&#45;&gt;Node9 -->
<g id="edge8" class="edge">
<title>Node18&#45;&gt;Node9</title>
<g id="a_edge8"><a xlink:title=" ">
<path fill="none" stroke="#9a32cd" stroke-dasharray="5,2" d="M446.1,-64.23C404.19,-51.89 329.65,-29.95 289.74,-18.2"/>
<polygon fill="#9a32cd" stroke="#9a32cd" points="444.97,-67.54 455.55,-67.01 446.94,-60.83 444.97,-67.54"/>
</a>
</g>
<text text-anchor="middle" x="412.56" y="-37.5" font-family="Helvetica,sans-Serif" font-size="10.00" fill="grey">m_usedClass</text>
</g>
</g>
</svg>
