<?xml version="1.0" encoding="UTF-8" standalone="no"?>
<!DOCTYPE svg PUBLIC "-//W3C//DTD SVG 1.1//EN"
 "http://www.w3.org/Graphics/SVG/1.1/DTD/svg11.dtd">
<!-- Generated by graphviz version 10.0.1 (0)
 -->
<!-- Title: map_utils.h Pages: 1 -->
<svg width="264pt" height="136pt"
 viewBox="0.00 0.00 264.25 135.50" xmlns="http://www.w3.org/2000/svg" xmlns:xlink="http://www.w3.org/1999/xlink">

<svg id="main" version="1.1" xmlns="http://www.w3.org/2000/svg" xmlns:xlink="http://www.w3.org/1999/xlink" xml:space="preserve" onload="init(evt)">
<style type="text/css"><![CDATA[
.node, .edge {opacity: 0.7;}
.node.selected, .edge.selected {opacity: 1;}
.edge:hover path { stroke: red; }
.edge:hover polygon { stroke: red; fill: red; }
]]></style>
<script type="application/ecmascript" xlink:href="svg.min.js"/>
<svg id="graph" class="graph">
<g id="graph0" class="graph" transform="scale(1 1) rotate(0) translate(4 131.5)">
<title>map_utils.h</title>
<!-- Node1 -->
<g id="Node000001" class="node">
<title>Node1</title>
<g id="a_Node000001"><a xlink:title="Utility functions for transforming maps.">
<polygon fill="#999999" stroke="#666666" points="86.62,-127.5 20.38,-127.5 20.38,-109 86.62,-109 86.62,-127.5"/>
<text text-anchor="middle" x="53.5" y="-114" font-family="Helvetica,sans-Serif" font-size="10.00">map_utils.h</text>
</a>
</g>
</g>
<!-- Node2 -->
<g id="Node000002" class="node">
<title>Node2</title>
<g id="a_Node000002"><a xlink:title=" ">
<polygon fill="#e0e0e0" stroke="#999999" points="43,-18.5 0,-18.5 0,0 43,0 43,-18.5"/>
<text text-anchor="middle" x="21.5" y="-5" font-family="Helvetica,sans-Serif" font-size="10.00">cmath</text>
</a>
</g>
</g>
<!-- Node1&#45;&gt;Node2 -->
<g id="edge1_Node000001_Node000002" class="edge">
<title>Node1&#45;&gt;Node2</title>
<g id="a_edge1_Node000001_Node000002"><a xlink:title=" ">
<path fill="none" stroke="#63b8ff" d="M50.99,-108.85C45.92,-91.9 34.35,-53.21 27.3,-29.65"/>
<polygon fill="#63b8ff" stroke="#63b8ff" points="30.74,-28.93 24.52,-20.35 24.03,-30.94 30.74,-28.93"/>
</a>
</g>
</g>
<!-- Node3 -->
<g id="Node000003" class="node">
<title>Node3</title>
<g id="a_Node000003"><a xlink:title=" ">
<polygon fill="#e0e0e0" stroke="#999999" points="104.5,-18.5 64.5,-18.5 64.5,0 104.5,0 104.5,-18.5"/>
<text text-anchor="middle" x="84.5" y="-5" font-family="Helvetica,sans-Serif" font-size="10.00">string</text>
</a>
</g>
</g>
<!-- Node1&#45;&gt;Node3 -->
<g id="edge2_Node000001_Node000003" class="edge">
<title>Node1&#45;&gt;Node3</title>
<g id="a_edge2_Node000001_Node000003"><a xlink:title=" ">
<path fill="none" stroke="#63b8ff" d="M55.93,-108.85C60.84,-91.9 72.05,-53.21 78.88,-29.65"/>
<polygon fill="#63b8ff" stroke="#63b8ff" points="82.15,-30.94 81.57,-20.36 75.43,-28.99 82.15,-30.94"/>
</a>
</g>
</g>
<!-- Node4 -->
<g id="Node000004" class="node">
<title>Node4</title>
<g id="a_Node000004"><a xlink:href="parameters_8h.html" target="_top" xlink:title="Contains parameters.">
<polygon fill="white" stroke="#666666" points="231.25,-73 81.75,-73 81.75,-54.5 231.25,-54.5 231.25,-73"/>
<text text-anchor="middle" x="156.5" y="-59.5" font-family="Helvetica,sans-Serif" font-size="10.00">CoverageControl/parameters.h</text>
</a>
</g>
</g>
<!-- Node1&#45;&gt;Node4 -->
<g id="edge3_Node000001_Node000004" class="edge">
<title>Node1&#45;&gt;Node4</title>
<g id="a_edge3_Node000001_Node000004"><a xlink:title=" ">
<path fill="none" stroke="#63b8ff" d="M70.51,-108.58C86.46,-100.45 110.59,-88.15 129.23,-78.65"/>
<polygon fill="#63b8ff" stroke="#63b8ff" points="130.8,-81.78 138.12,-74.12 127.62,-75.54 130.8,-81.78"/>
</a>
</g>
</g>
<!-- Node4&#45;&gt;Node2 -->
<g id="edge4_Node000004_Node000002" class="edge">
<title>Node4&#45;&gt;Node2</title>
<g id="a_edge4_Node000004_Node000002"><a xlink:title=" ">
<path fill="none" stroke="#63b8ff" d="M134.21,-54.08C112.39,-45.59 78.9,-32.57 54.09,-22.92"/>
<polygon fill="#63b8ff" stroke="#63b8ff" points="55.38,-19.67 44.79,-19.31 52.84,-26.19 55.38,-19.67"/>
</a>
</g>
</g>
<!-- Node4&#45;&gt;Node3 -->
<g id="edge7_Node000004_Node000003" class="edge">
<title>Node4&#45;&gt;Node3</title>
<g id="a_edge7_Node000004_Node000003"><a xlink:title=" ">
<path fill="none" stroke="#63b8ff" d="M144.61,-54.08C133.92,-46.28 117.97,-34.65 105.19,-25.33"/>
<polygon fill="#63b8ff" stroke="#63b8ff" points="107.53,-22.71 97.39,-19.65 103.41,-28.37 107.53,-22.71"/>
</a>
</g>
</g>
<!-- Node5 -->
<g id="Node000005" class="node">
<title>Node5</title>
<g id="a_Node000005"><a xlink:title=" ">
<polygon fill="#e0e0e0" stroke="#999999" points="184.25,-18.5 124.75,-18.5 124.75,0 184.25,0 184.25,-18.5"/>
<text text-anchor="middle" x="154.5" y="-5" font-family="Helvetica,sans-Serif" font-size="10.00">filesystem</text>
</a>
</g>
</g>
<!-- Node4&#45;&gt;Node5 -->
<g id="edge5_Node000004_Node000005" class="edge">
<title>Node4&#45;&gt;Node5</title>
<g id="a_edge5_Node000004_Node000005"><a xlink:title=" ">
<path fill="none" stroke="#63b8ff" d="M156.17,-54.08C155.92,-47.58 155.57,-38.42 155.26,-30.16"/>
<polygon fill="#63b8ff" stroke="#63b8ff" points="158.76,-30.13 154.88,-20.27 151.77,-30.4 158.76,-30.13"/>
</a>
</g>
</g>
<!-- Node6 -->
<g id="Node000006" class="node">
<title>Node6</title>
<g id="a_Node000006"><a xlink:title=" ">
<polygon fill="#e0e0e0" stroke="#999999" points="256.25,-18.5 202.75,-18.5 202.75,0 256.25,0 256.25,-18.5"/>
<text text-anchor="middle" x="229.5" y="-5" font-family="Helvetica,sans-Serif" font-size="10.00">iostream</text>
</a>
</g>
</g>
<!-- Node4&#45;&gt;Node6 -->
<g id="edge6_Node000004_Node000006" class="edge">
<title>Node4&#45;&gt;Node6</title>
<g id="a_edge6_Node000004_Node000006"><a xlink:title=" ">
<path fill="none" stroke="#63b8ff" d="M168.55,-54.08C179.4,-46.28 195.57,-34.65 208.53,-25.33"/>
<polygon fill="#63b8ff" stroke="#63b8ff" points="210.37,-28.32 216.44,-19.64 206.28,-22.64 210.37,-28.32"/>
</a>
</g>
</g>
</g>
</svg>
</svg>

<style type='text/css'>
<![CDATA[
[data-mouse-over-selected='false'] { opacity: 0.7; }
[data-mouse-over-selected='true']  { opacity: 1.0; }
]]>
</style>
<script type="application/ecmascript"><![CDATA[
document.addEventListener('DOMContentLoaded', (event) => {
  highlightEdges();
  highlightAdjacentNodes();
});
]]></script>
</svg>
