<?xml version="1.0" encoding="UTF-8" standalone="no"?>
<!DOCTYPE svg PUBLIC "-//W3C//DTD SVG 1.1//EN"
 "http://www.w3.org/Graphics/SVG/1.1/DTD/svg11.dtd">
<!-- Generated by graphviz version 10.0.1 (0)
 -->
<!-- Title: map_utils.h Pages: 1 -->
<!--zoomable 364 -->

<svg id="main" version="1.1" xmlns="http://www.w3.org/2000/svg" xmlns:xlink="http://www.w3.org/1999/xlink" xml:space="preserve" onload="init(evt)">
<style type="text/css"><![CDATA[
.node, .edge {opacity: 0.7;}
.node.selected, .edge.selected {opacity: 1;}
.edge:hover path { stroke: red; }
.edge:hover polygon { stroke: red; fill: red; }
]]></style>

<defs>
  <circle id="rim" cx="0" cy="0" r="7"/>
  <circle id="rim2" cx="0" cy="0" r="3.5"/>
  <g id="zoomPlus">
    <use xlink:href="#rim" fill="#404040"><set attributeName="fill" to="#808080" begin="zoomplus.mouseover" end="zoomplus.mouseout"/></use>
    <path d="M-4,0h8M0,-4v8" fill="none" stroke="white" stroke-width="1.5" pointer-events="none"/>
  </g>
  <g id="zoomMin">
    <use xlink:href="#rim" fill="#404040"><set attributeName="fill" to="#808080" begin="zoomminus.mouseover" end="zoomminus.mouseout"/></use>
    <path d="M-4,0h8" fill="none" stroke="white" stroke-width="1.5" pointer-events="none"/>
  </g>
  <g id="arrowUp" transform="translate(30 24)">
    <use xlink:href="#rim"/>
    <path pointer-events="none" fill="none" stroke="white" stroke-width="1.5" d="M0,-3.0v7 M-2.5,-0.5L0,-3.0L2.5,-0.5"/>
  </g>
  <g id="arrowRight" transform="rotate(90) translate(36 -43)">
    <use xlink:href="#rim"/>
    <path pointer-events="none" fill="none" stroke="white" stroke-width="1.5" d="M0,-3.0v7 M-2.5,-0.5L0,-3.0L2.5,-0.5"/>
  </g>
  <g id="arrowDown" transform="rotate(180) translate(-30 -48)">
    <use xlink:href="#rim"/>
    <path pointer-events="none" fill="none" stroke="white" stroke-width="1.5" d="M0,-3.0v7 M-2.5,-0.5L0,-3.0L2.5,-0.5"/>
  </g>
  <g id="arrowLeft" transform="rotate(270) translate(-36 17)">
    <use xlink:href="#rim"/>
    <path pointer-events="none" fill="none" stroke="white" stroke-width="1.5" d="M0,-3.0v7 M-2.5,-0.5L0,-3.0L2.5,-0.5"/>
  </g>
  <g id="resetDef">
    <use xlink:href="#rim2" fill="#404040"><set attributeName="fill" to="#808080" begin="reset.mouseover" end="reset.mouseout"/></use>
  </g>
</defs>
<script type="application/ecmascript">
var viewWidth = 922;
var viewHeight = 364;
var sectionId = 'dynsection-1';
</script>
<script type="application/ecmascript" xlink:href="svg.min.js"/>
<svg id="graph" class="graph">
<g id="viewport">
<title>map_utils.h</title>
<!-- Node1 -->
<g id="Node000001" class="node">
<title>Node1</title>
<g id="a_Node000001"><a xlink:title="Utility functions for transforming maps.">
<polygon fill="#999999" stroke="#666666" points="370.5,-356 304.25,-356 304.25,-337.5 370.5,-337.5 370.5,-356"/>
<text text-anchor="middle" x="337.38" y="-342.5" font-family="Helvetica,sans-Serif" font-size="10.00">map_utils.h</text>
</a>
</g>
</g>
<!-- Node2 -->
<g id="Node000002" class="node">
<title>Node2</title>
<g id="a_Node000002"><a xlink:href="clairvoyant__cvt_8h.html" target="_top" xlink:title="Clairvoyant CVT algorithm.">
<polygon fill="white" stroke="#666666" points="88.75,-78.25 0,-78.25 0,-59.75 88.75,-59.75 88.75,-78.25"/>
<text text-anchor="middle" x="44.38" y="-64.75" font-family="Helvetica,sans-Serif" font-size="10.00">clairvoyant_cvt.h</text>
</a>
</g>
</g>
<!-- Node1&#45;&gt;Node2 -->
<g id="edge1_Node000001_Node000002" class="edge">
<title>Node1&#45;&gt;Node2</title>
<g id="a_edge1_Node000001_Node000002"><a xlink:title=" ">
<path fill="none" stroke="#63b8ff" d="M292.62,-346.21C219.47,-344.36 82.38,-328.87 82.38,-238.75 82.38,-238.75 82.38,-238.75 82.38,-182.25 82.38,-141.72 59.87,-97.1 49.5,-78.68"/>
<polygon fill="#63b8ff" stroke="#63b8ff" points="292.2,-349.7 302.26,-346.37 292.32,-342.7 292.2,-349.7"/>
</a>
</g>
</g>
<!-- Node4 -->
<g id="Node000004" class="node">
<title>Node4</title>
<g id="a_Node000004"><a xlink:href="coverage__system_8h.html" target="_top" xlink:title="The file contains the CoverageSystem class, which is the main class for the coverage control library.">
<polygon fill="white" stroke="#666666" points="517,-192.5 417.75,-192.5 417.75,-174 517,-174 517,-192.5"/>
<text text-anchor="middle" x="467.38" y="-179" font-family="Helvetica,sans-Serif" font-size="10.00">coverage_system.h</text>
</a>
</g>
</g>
<!-- Node1&#45;&gt;Node4 -->
<g id="edge3_Node000001_Node000004" class="edge">
<title>Node1&#45;&gt;Node4</title>
<g id="a_edge3_Node000001_Node000004"><a xlink:title=" ">
<path fill="none" stroke="#63b8ff" d="M335.05,-325.86C333.22,-300.45 333.96,-256.44 356.38,-228.5 371.37,-209.81 395.43,-198.98 417.32,-192.72"/>
<polygon fill="#63b8ff" stroke="#63b8ff" points="331.57,-326.14 336.01,-335.76 338.53,-325.47 331.57,-326.14"/>
</a>
</g>
</g>
<!-- Node7 -->
<g id="Node000007" class="node">
<title>Node7</title>
<g id="a_Node000007"><a xlink:href="decentralized__cvt_8h.html" target="_top" xlink:title="Contains the DecentralizedCVT class.">
<polygon fill="white" stroke="#666666" points="206,-78.25 106.75,-78.25 106.75,-59.75 206,-59.75 206,-78.25"/>
<text text-anchor="middle" x="156.38" y="-64.75" font-family="Helvetica,sans-Serif" font-size="10.00">decentralized_cvt.h</text>
</a>
</g>
</g>
<!-- Node1&#45;&gt;Node7 -->
<g id="edge21_Node000001_Node000007" class="edge">
<title>Node1&#45;&gt;Node7</title>
<g id="a_edge21_Node000001_Node000007"><a xlink:title=" ">
<path fill="none" stroke="#63b8ff" d="M292.9,-337.31C243.42,-325.04 170.38,-297.05 170.38,-238.75 170.38,-238.75 170.38,-238.75 170.38,-182.25 170.38,-143.37 162,-97.48 158.21,-78.69"/>
<polygon fill="#63b8ff" stroke="#63b8ff" points="291.97,-340.69 302.51,-339.55 293.56,-333.87 291.97,-340.69"/>
</a>
</g>
</g>
<!-- Node8 -->
<g id="Node000008" class="node">
<title>Node8</title>
<g id="a_Node000008"><a xlink:href="near__optimal__cvt_8h.html" target="_top" xlink:title="NearOptimalCVT class Global offline oracle: has complete information about the environment....">
<polygon fill="white" stroke="#666666" points="322.25,-78.25 224.5,-78.25 224.5,-59.75 322.25,-59.75 322.25,-78.25"/>
<text text-anchor="middle" x="273.38" y="-64.75" font-family="Helvetica,sans-Serif" font-size="10.00">near_optimal_cvt.h</text>
</a>
</g>
</g>
<!-- Node1&#45;&gt;Node8 -->
<g id="edge22_Node000001_Node000008" class="edge">
<title>Node1&#45;&gt;Node8</title>
<g id="a_edge22_Node000001_Node000008"><a xlink:title=" ">
<path fill="none" stroke="#63b8ff" d="M309.11,-331.57C278.93,-314.19 235.38,-281.68 235.38,-238.75 235.38,-238.75 235.38,-238.75 235.38,-182.25 235.38,-141.72 257.88,-97.1 268.25,-78.68"/>
<polygon fill="#63b8ff" stroke="#63b8ff" points="307.36,-334.6 317.81,-336.35 310.73,-328.47 307.36,-334.6"/>
</a>
</g>
</g>
<!-- Node11 -->
<g id="Node000011" class="node">
<title>Node11</title>
<g id="a_Node000011"><a xlink:href="simul__explore__exploit_8h.html" target="_top" xlink:title="Simultaneous exploration and exploitation algorithm Uses frontier&#45;based exploration with bias towards...">
<polygon fill="white" stroke="#666666" points="826,-78.25 708.75,-78.25 708.75,-59.75 826,-59.75 826,-78.25"/>
<text text-anchor="middle" x="767.38" y="-64.75" font-family="Helvetica,sans-Serif" font-size="10.00">simul_explore_exploit.h</text>
</a>
</g>
</g>
<!-- Node1&#45;&gt;Node11 -->
<g id="edge25_Node000001_Node000011" class="edge">
<title>Node1&#45;&gt;Node11</title>
<g id="a_edge25_Node000001_Node000011"><a xlink:title=" ">
<path fill="none" stroke="#63b8ff" d="M381.87,-345.22C500.68,-342.59 816.38,-327.29 816.38,-238.75 816.38,-238.75 816.38,-238.75 816.38,-182.25 816.38,-140.57 787.65,-96.92 774.19,-78.74"/>
<polygon fill="#63b8ff" stroke="#63b8ff" points="382.12,-341.71 372.19,-345.41 382.26,-348.71 382.12,-341.71"/>
</a>
</g>
</g>
<!-- Node13 -->
<g id="Node000013" class="node">
<title>Node13</title>
<g id="a_Node000013"><a xlink:href="robot__model_8h.html" target="_top" xlink:title="Class for handling the robot model.">
<polygon fill="white" stroke="#666666" points="443.12,-247 365.62,-247 365.62,-228.5 443.12,-228.5 443.12,-247"/>
<text text-anchor="middle" x="404.38" y="-233.5" font-family="Helvetica,sans-Serif" font-size="10.00">robot_model.h</text>
</a>
</g>
</g>
<!-- Node1&#45;&gt;Node13 -->
<g id="edge23_Node000001_Node000013" class="edge">
<title>Node1&#45;&gt;Node13</title>
<g id="a_edge23_Node000001_Node000013"><a xlink:title=" ">
<path fill="none" stroke="#63b8ff" d="M348.7,-327.66C363.29,-304.37 388.06,-264.81 398.96,-247.4"/>
<polygon fill="#63b8ff" stroke="#63b8ff" points="345.78,-325.74 343.44,-336.07 351.71,-329.45 345.78,-325.74"/>
</a>
</g>
</g>
<!-- Node14 -->
<g id="Node000014" class="node">
<title>Node14</title>
<g id="a_Node000014"><a xlink:href="world__idf_8h.html" target="_top" xlink:title="Contains the class for Importance Density Function (IDF) for the world.">
<polygon fill="white" stroke="#666666" points="528.25,-301.5 466.5,-301.5 466.5,-283 528.25,-283 528.25,-301.5"/>
<text text-anchor="middle" x="497.38" y="-288" font-family="Helvetica,sans-Serif" font-size="10.00">world_idf.h</text>
</a>
</g>
</g>
<!-- Node1&#45;&gt;Node14 -->
<g id="edge26_Node000001_Node000014" class="edge">
<title>Node1&#45;&gt;Node14</title>
<g id="a_edge26_Node000001_Node000014"><a xlink:title=" ">
<path fill="none" stroke="#63b8ff" d="M374.52,-333.56C404.04,-323.88 444.61,-310.56 470.92,-301.93"/>
<polygon fill="#63b8ff" stroke="#63b8ff" points="373.64,-330.17 365.23,-336.61 375.83,-336.82 373.64,-330.17"/>
</a>
</g>
</g>
<!-- Node3 -->
<g id="Node000003" class="node">
<title>Node3</title>
<g id="a_Node000003"><a xlink:href="coverage__algorithm_8cpp.html" target="_top" xlink:title="Program to test the CVT&#45;based (Lloyd&#39;s) coverage control algorithms.">
<polygon fill="white" stroke="#666666" points="913.75,-18.5 795,-18.5 795,0 913.75,0 913.75,-18.5"/>
<text text-anchor="middle" x="854.38" y="-5" font-family="Helvetica,sans-Serif" font-size="10.00">coverage_algorithm.cpp</text>
</a>
</g>
</g>
<!-- Node2&#45;&gt;Node3 -->
<g id="edge2_Node000002_Node000003" class="edge">
<title>Node2&#45;&gt;Node3</title>
<g id="a_edge2_Node000002_Node000003"><a xlink:title=" ">
<path fill="none" stroke="#63b8ff" d="M85.52,-56.71C89.51,-55.86 93.5,-55.1 97.38,-54.5 354.63,-14.59 666.15,-9.94 794.59,-9.88"/>
<polygon fill="#63b8ff" stroke="#63b8ff" points="84.86,-53.27 75.91,-58.94 86.45,-60.08 84.86,-53.27"/>
</a>
</g>
</g>
<!-- Node4&#45;&gt;Node2 -->
<g id="edge13_Node000004_Node000002" class="edge">
<title>Node4&#45;&gt;Node2</title>
<g id="a_edge13_Node000004_Node000002"><a xlink:title=" ">
<path fill="none" stroke="#63b8ff" d="M423.29,-170.68C389.4,-161.77 341.42,-149.14 299.38,-138 219.43,-116.81 125.45,-91.7 76.97,-78.73"/>
<polygon fill="#63b8ff" stroke="#63b8ff" points="422.19,-174.01 432.75,-173.16 423.97,-167.24 422.19,-174.01"/>
</a>
</g>
</g>
<!-- Node4&#45;&gt;Node3 -->
<g id="edge14_Node000004_Node000003" class="edge">
<title>Node4&#45;&gt;Node3</title>
<g id="a_edge14_Node000004_Node000003"><a xlink:title=" ">
<path fill="none" stroke="#63b8ff" d="M528.77,-180.51C588.29,-177.05 680.2,-166.99 754.38,-138 794.79,-122.2 810.3,-118.91 835.38,-83.5 849.65,-63.34 853.2,-33.29 854.09,-18.74"/>
<polygon fill="#63b8ff" stroke="#63b8ff" points="528.62,-177.01 518.82,-181.03 528.99,-184 528.62,-177.01"/>
</a>
</g>
</g>
<!-- Node5 -->
<g id="Node000005" class="node">
<title>Node5</title>
<g id="a_Node000005"><a xlink:href="abstract__controller_8h.html" target="_top" xlink:title="Contains the abstract class for coverage control algorithms.">
<polygon fill="white" stroke="#666666" points="519.62,-138 415.12,-138 415.12,-119.5 519.62,-119.5 519.62,-138"/>
<text text-anchor="middle" x="467.38" y="-124.5" font-family="Helvetica,sans-Serif" font-size="10.00">abstract_controller.h</text>
</a>
</g>
</g>
<!-- Node4&#45;&gt;Node5 -->
<g id="edge4_Node000004_Node000005" class="edge">
<title>Node4&#45;&gt;Node5</title>
<g id="a_edge4_Node000004_Node000005"><a xlink:title=" ">
<path fill="none" stroke="#63b8ff" d="M467.38,-162.14C467.38,-153.86 467.38,-144.71 467.38,-138.26"/>
<polygon fill="#63b8ff" stroke="#63b8ff" points="463.88,-162.07 467.38,-172.07 470.88,-162.07 463.88,-162.07"/>
</a>
</g>
</g>
<!-- Node6 -->
<g id="Node000006" class="node">
<title>Node6</title>
<g id="a_Node000006"><a xlink:href="centralized__cvt_8h.html" target="_top" xlink:title="Contains the class CentralizedCVT.">
<polygon fill="white" stroke="#666666" points="567.75,-78.25 479,-78.25 479,-59.75 567.75,-59.75 567.75,-78.25"/>
<text text-anchor="middle" x="523.38" y="-64.75" font-family="Helvetica,sans-Serif" font-size="10.00">centralized_cvt.h</text>
</a>
</g>
</g>
<!-- Node4&#45;&gt;Node6 -->
<g id="edge12_Node000004_Node000006" class="edge">
<title>Node4&#45;&gt;Node6</title>
<g id="a_edge12_Node000004_Node000006"><a xlink:title=" ">
<path fill="none" stroke="#63b8ff" d="M497.59,-168.18C509.45,-160.96 521.78,-150.93 528.38,-138 538.27,-118.6 531.36,-91.96 526.69,-78.51"/>
<polygon fill="#63b8ff" stroke="#63b8ff" points="496.23,-164.93 489.19,-172.85 499.63,-171.05 496.23,-164.93"/>
</a>
</g>
</g>
<!-- Node4&#45;&gt;Node7 -->
<g id="edge16_Node000004_Node000007" class="edge">
<title>Node4&#45;&gt;Node7</title>
<g id="a_edge16_Node000004_Node000007"><a xlink:title=" ">
<path fill="none" stroke="#63b8ff" d="M432.54,-169.68C368.78,-146.66 234.87,-98.33 180.29,-78.63"/>
<polygon fill="#63b8ff" stroke="#63b8ff" points="431.21,-172.92 441.81,-173.02 433.59,-166.33 431.21,-172.92"/>
</a>
</g>
</g>
<!-- Node4&#45;&gt;Node8 -->
<g id="edge17_Node000004_Node000008" class="edge">
<title>Node4&#45;&gt;Node8</title>
<g id="a_edge17_Node000004_Node000008"><a xlink:title=" ">
<path fill="none" stroke="#63b8ff" d="M442.52,-167.87C401.66,-144.23 321.52,-97.86 288.33,-78.65"/>
<polygon fill="#63b8ff" stroke="#63b8ff" points="440.76,-170.89 451.16,-172.87 444.26,-164.83 440.76,-170.89"/>
</a>
</g>
</g>
<!-- Node9 -->
<g id="Node000009" class="node">
<title>Node9</title>
<g id="a_Node000009"><a xlink:href="oracle__bang__explore__exploit_8h.html" target="_top" xlink:title="First trial of oracle with exploration and exploitation. The oracle uses complete information about t...">
<polygon fill="white" stroke="#666666" points="691,-83.5 585.75,-83.5 585.75,-54.5 691,-54.5 691,-83.5"/>
<text text-anchor="start" x="593.75" y="-70" font-family="Helvetica,sans-Serif" font-size="10.00">oracle_bang_explore</text>
<text text-anchor="middle" x="638.38" y="-59.5" font-family="Helvetica,sans-Serif" font-size="10.00">_exploit.h</text>
</a>
</g>
</g>
<!-- Node4&#45;&gt;Node9 -->
<g id="edge18_Node000004_Node000009" class="edge">
<title>Node4&#45;&gt;Node9</title>
<g id="a_edge18_Node000004_Node000009"><a xlink:title=" ">
<path fill="none" stroke="#63b8ff" d="M493.31,-168.23C508.44,-159.84 527.75,-148.75 544.38,-138 571.61,-120.39 601.77,-98.04 620.4,-83.87"/>
<polygon fill="#63b8ff" stroke="#63b8ff" points="492,-164.96 484.92,-172.85 495.37,-171.1 492,-164.96"/>
</a>
</g>
</g>
<!-- Node10 -->
<g id="Node000010" class="node">
<title>Node10</title>
<g id="a_Node000010"><a xlink:href="oracle__explore__exploit_8h.html" target="_top" xlink:title="Old trial of exploration and exploitation Uses system map for exploration as well.">
<polygon fill="white" stroke="#666666" points="460.5,-78.25 340.25,-78.25 340.25,-59.75 460.5,-59.75 460.5,-78.25"/>
<text text-anchor="middle" x="400.38" y="-64.75" font-family="Helvetica,sans-Serif" font-size="10.00">oracle_explore_exploit.h</text>
</a>
</g>
</g>
<!-- Node4&#45;&gt;Node10 -->
<g id="edge19_Node000004_Node000010" class="edge">
<title>Node4&#45;&gt;Node10</title>
<g id="a_edge19_Node000004_Node000010"><a xlink:title=" ">
<path fill="none" stroke="#63b8ff" d="M437.6,-167.82C425.87,-160.56 413.51,-150.59 406.38,-138 395.62,-119.03 397.23,-92.2 398.98,-78.61"/>
<polygon fill="#63b8ff" stroke="#63b8ff" points="435.86,-170.86 446.29,-172.76 439.32,-164.78 435.86,-170.86"/>
</a>
</g>
</g>
<!-- Node4&#45;&gt;Node11 -->
<g id="edge20_Node000004_Node000011" class="edge">
<title>Node4&#45;&gt;Node11</title>
<g id="a_edge20_Node000004_Node000011"><a xlink:title=" ">
<path fill="none" stroke="#63b8ff" d="M528.82,-178.33C596.75,-172.91 700.77,-161.07 732.38,-138 752.54,-123.28 761.96,-93.51 765.55,-78.73"/>
<polygon fill="#63b8ff" stroke="#63b8ff" points="528.62,-174.83 518.92,-179.09 529.16,-181.81 528.62,-174.83"/>
</a>
</g>
</g>
<!-- Node12 -->
<g id="Node000012" class="node">
<title>Node12</title>
<g id="a_Node000012"><a xlink:href="coverage__system_8cpp.html" target="_top" xlink:title="Contains the implementation of the CoverageSystem class.">
<polygon fill="white" stroke="#666666" points="723.25,-138 613.5,-138 613.5,-119.5 723.25,-119.5 723.25,-138"/>
<text text-anchor="middle" x="668.38" y="-124.5" font-family="Helvetica,sans-Serif" font-size="10.00">coverage_system.cpp</text>
</a>
</g>
</g>
<!-- Node4&#45;&gt;Node12 -->
<g id="edge15_Node000004_Node000012" class="edge">
<title>Node4&#45;&gt;Node12</title>
<g id="a_edge15_Node000004_Node000012"><a xlink:title=" ">
<path fill="none" stroke="#63b8ff" d="M511.6,-170.7C548.87,-160.96 601.37,-147.25 635.13,-138.43"/>
<polygon fill="#63b8ff" stroke="#63b8ff" points="510.82,-167.28 502.03,-173.2 512.59,-174.06 510.82,-167.28"/>
</a>
</g>
</g>
<!-- Node5&#45;&gt;Node2 -->
<g id="edge6_Node000005_Node000002" class="edge">
<title>Node5&#45;&gt;Node2</title>
<g id="a_edge6_Node000005_Node000002"><a xlink:title=" ">
<path fill="none" stroke="#63b8ff" d="M403.22,-122.63C329.13,-116.14 203.78,-103.33 97.38,-83.5 90.37,-82.2 82.93,-80.5 75.89,-78.75"/>
<polygon fill="#63b8ff" stroke="#63b8ff" points="402.89,-126.12 413.15,-123.49 403.49,-119.15 402.89,-126.12"/>
</a>
</g>
</g>
<!-- Node5&#45;&gt;Node6 -->
<g id="edge5_Node000005_Node000006" class="edge">
<title>Node5&#45;&gt;Node6</title>
<g id="a_edge5_Node000005_Node000006"><a xlink:title=" ">
<path fill="none" stroke="#63b8ff" d="M483.53,-111.09C493.84,-100.45 506.79,-87.1 515.08,-78.56"/>
<polygon fill="#63b8ff" stroke="#63b8ff" points="481.14,-108.53 476.69,-118.14 486.17,-113.4 481.14,-108.53"/>
</a>
</g>
</g>
<!-- Node5&#45;&gt;Node7 -->
<g id="edge7_Node000005_Node000007" class="edge">
<title>Node5&#45;&gt;Node7</title>
<g id="a_edge7_Node000005_Node000007"><a xlink:title=" ">
<path fill="none" stroke="#63b8ff" d="M403.92,-117.53C352.86,-109.08 279.33,-96.42 215.38,-83.5 208.17,-82.04 200.49,-80.37 193.14,-78.72"/>
<polygon fill="#63b8ff" stroke="#63b8ff" points="403.18,-120.95 413.61,-119.13 404.31,-114.05 403.18,-120.95"/>
</a>
</g>
</g>
<!-- Node5&#45;&gt;Node8 -->
<g id="edge8_Node000005_Node000008" class="edge">
<title>Node5&#45;&gt;Node8</title>
<g id="a_edge8_Node000005_Node000008"><a xlink:title=" ">
<path fill="none" stroke="#63b8ff" d="M427.4,-115.85C390.27,-104.8 335.85,-88.6 302.62,-78.7"/>
<polygon fill="#63b8ff" stroke="#63b8ff" points="426.3,-119.17 436.88,-118.67 428.29,-112.46 426.3,-119.17"/>
</a>
</g>
</g>
<!-- Node5&#45;&gt;Node9 -->
<g id="edge9_Node000005_Node000009" class="edge">
<title>Node5&#45;&gt;Node9</title>
<g id="a_edge9_Node000005_Node000009"><a xlink:title=" ">
<path fill="none" stroke="#63b8ff" d="M503.64,-115.5C530.97,-106.27 568.47,-93.61 596.97,-83.98"/>
<polygon fill="#63b8ff" stroke="#63b8ff" points="502.76,-112.1 494.41,-118.62 505,-118.74 502.76,-112.1"/>
</a>
</g>
</g>
<!-- Node5&#45;&gt;Node10 -->
<g id="edge10_Node000005_Node000010" class="edge">
<title>Node5&#45;&gt;Node10</title>
<g id="a_edge10_Node000005_Node000010"><a xlink:title=" ">
<path fill="none" stroke="#63b8ff" d="M448.79,-111.73C436.33,-100.99 420.41,-87.27 410.3,-78.56"/>
<polygon fill="#63b8ff" stroke="#63b8ff" points="446.48,-114.36 456.34,-118.24 451.05,-109.06 446.48,-114.36"/>
</a>
</g>
</g>
<!-- Node5&#45;&gt;Node11 -->
<g id="edge11_Node000005_Node000011" class="edge">
<title>Node5&#45;&gt;Node11</title>
<g id="a_edge11_Node000005_Node000011"><a xlink:title=" ">
<path fill="none" stroke="#63b8ff" d="M525.48,-116.9C572.64,-108.05 640.83,-95.15 700.38,-83.5 708.18,-81.97 716.48,-80.32 724.5,-78.71"/>
<polygon fill="#63b8ff" stroke="#63b8ff" points="524.94,-113.44 515.75,-118.73 526.23,-120.32 524.94,-113.44"/>
</a>
</g>
</g>
<!-- Node13&#45;&gt;Node4 -->
<g id="edge24_Node000013_Node000004" class="edge">
<title>Node13&#45;&gt;Node4</title>
<g id="a_edge24_Node000013_Node000004"><a xlink:title=" ">
<path fill="none" stroke="#63b8ff" d="M423.37,-220.92C434.48,-211.67 448.05,-200.35 457.17,-192.76"/>
<polygon fill="#63b8ff" stroke="#63b8ff" points="421.38,-218.02 415.94,-227.11 425.86,-223.4 421.38,-218.02"/>
</a>
</g>
</g>
<!-- Node14&#45;&gt;Node3 -->
<g id="edge27_Node000014_Node000003" class="edge">
<title>Node14&#45;&gt;Node3</title>
<g id="a_edge27_Node000014_Node000003"><a xlink:title=" ">
<path fill="none" stroke="#63b8ff" d="M527.6,-277.92C581.93,-253.42 698.83,-198.2 789.38,-138 821.05,-116.94 839.16,-117.91 855.38,-83.5 865.46,-62.1 860.36,-33.13 856.82,-18.89"/>
<polygon fill="#63b8ff" stroke="#63b8ff" points="526.37,-274.64 518.68,-281.92 529.23,-281.03 526.37,-274.64"/>
</a>
</g>
</g>
<!-- Node14&#45;&gt;Node4 -->
<g id="edge28_Node000014_Node000004" class="edge">
<title>Node14&#45;&gt;Node4</title>
<g id="a_edge28_Node000014_Node000004"><a xlink:title=" ">
<path fill="none" stroke="#63b8ff" d="M520.18,-276.15C535.83,-263.79 552.16,-245.63 542.38,-228.5 532.4,-211.04 512.55,-199.78 495.77,-192.99"/>
<polygon fill="#63b8ff" stroke="#63b8ff" points="518.46,-273.07 512.46,-281.8 522.6,-278.72 518.46,-273.07"/>
</a>
</g>
</g>
<!-- Node14&#45;&gt;Node13 -->
<g id="edge29_Node000014_Node000013" class="edge">
<title>Node14&#45;&gt;Node13</title>
<g id="a_edge29_Node000014_Node000013"><a xlink:title=" ">
<path fill="none" stroke="#63b8ff" d="M472.3,-277.1C455.55,-267.64 434.03,-255.49 419.75,-247.43"/>
<polygon fill="#63b8ff" stroke="#63b8ff" points="470.27,-279.97 480.7,-281.84 473.71,-273.87 470.27,-279.97"/>
</a>
</g>
</g>
<!-- Node15 -->
<g id="Node000015" class="node">
<title>Node15</title>
<g id="a_Node000015"><a xlink:href="world__idf_8cpp.html" target="_top" xlink:title="Contains the implementation of the WorldIDF class.">
<polygon fill="white" stroke="#666666" points="533.5,-247 461.25,-247 461.25,-228.5 533.5,-228.5 533.5,-247"/>
<text text-anchor="middle" x="497.38" y="-233.5" font-family="Helvetica,sans-Serif" font-size="10.00">world_idf.cpp</text>
</a>
</g>
</g>
<!-- Node14&#45;&gt;Node15 -->
<g id="edge30_Node000014_Node000015" class="edge">
<title>Node14&#45;&gt;Node15</title>
<g id="a_edge30_Node000014_Node000015"><a xlink:title=" ">
<path fill="none" stroke="#63b8ff" d="M497.38,-271.14C497.38,-262.86 497.38,-253.71 497.38,-247.26"/>
<polygon fill="#63b8ff" stroke="#63b8ff" points="493.88,-271.07 497.38,-281.07 500.88,-271.07 493.88,-271.07"/>
</a>
</g>
</g>
</g>
</svg>

<g id="navigator" transform="translate(0 0)" fill="#404254">
  <rect fill="#f2f5e9" fill-opacity="0.5" stroke="#606060" stroke-width=".5" x="0" y="0" width="60" height="60"/>
  <use id="zoomplus" xlink:href="#zoomPlus" x="17" y="9" onmousedown="handleZoom(evt,'in')"/>
  <use id="zoomminus" xlink:href="#zoomMin" x="42" y="9" onmousedown="handleZoom(evt,'out')"/>
  <use id="reset" xlink:href="#resetDef" x="30" y="36" onmousedown="handleReset()"/>
   <use id="arrowup" xlink:href="#arrowUp" x="0" y="0" onmousedown="handlePan(0,-1)"/>
  <use id="arrowright" xlink:href="#arrowRight" x="0" y="0" onmousedown="handlePan(1,0)"/>
  <use id="arrowdown" xlink:href="#arrowDown" x="0" y="0" onmousedown="handlePan(0,1)"/>
  <use id="arrowleft" xlink:href="#arrowLeft" x="0" y="0" onmousedown="handlePan(-1,0)"/>
</g>
<svg viewBox="0 0 15 15" width="100%" height="30px" preserveAspectRatio="xMaxYMin meet">
 <g id="arrow_out" transform="scale(0.3 0.3)">
  <a xlink:href="map__utils_8h__dep__incl_org.svg" target="_base">
   <rect id="button" ry="5" rx="5" y="6" x="6" height="38" width="38"
        fill="#f2f5e9" fill-opacity="0.5" stroke="#606060" stroke-width="1.0"/>
   <path id="arrow"
     d="M 11.500037,31.436501 C 11.940474,20.09759 22.043105,11.32322 32.158766,21.979434 L 37.068811,17.246167 C 37.068811,17.246167 37.088388,32 37.088388,32 L 22.160133,31.978069 C 22.160133,31.978069 26.997745,27.140456 26.997745,27.140456 C 18.528582,18.264221 13.291696,25.230495 11.500037,31.436501 z"
     style="fill:#404040;"/>
  </a>
 </g>
</svg>

<style type='text/css'>
<![CDATA[
[data-mouse-over-selected='false'] { opacity: 0.7; }
[data-mouse-over-selected='true']  { opacity: 1.0; }
]]>
</style>
<script type="application/ecmascript"><![CDATA[
document.addEventListener('DOMContentLoaded', (event) => {
  highlightEdges();
  highlightAdjacentNodes();
});
]]></script>
</svg>
