<?xml version="1.0" encoding="UTF-8" standalone="no"?>
<!DOCTYPE svg PUBLIC "-//W3C//DTD SVG 1.1//EN"
 "http://www.w3.org/Graphics/SVG/1.1/DTD/svg11.dtd">
<!-- Generated by graphviz version 10.0.1 (0)
 -->
<!-- Title: map_utils.h Pages: 1 -->
<svg width="922pt" height="364pt"
 viewBox="0.00 0.00 921.75 364.00" xmlns="http://www.w3.org/2000/svg" xmlns:xlink="http://www.w3.org/1999/xlink">
<g id="graph0" class="graph" transform="scale(1 1) rotate(0) translate(4 360)">
<title>map_utils.h</title>
<!-- Node1 -->
<g id="Node000001" class="node">
<title>Node1</title>
<g id="a_Node000001"><a xlink:title="Utility functions for transforming maps.">
<polygon fill="#999999" stroke="#666666" points="400.5,-356 334.25,-356 334.25,-337.5 400.5,-337.5 400.5,-356"/>
<text text-anchor="middle" x="367.38" y="-342.5" font-family="Helvetica,sans-Serif" font-size="10.00">map_utils.h</text>
</a>
</g>
</g>
<!-- Node2 -->
<g id="Node000002" class="node">
<title>Node2</title>
<g id="a_Node000002"><a xlink:href="clairvoyant__cvt_8h.html" target="_top" xlink:title="Clairvoyant CVT algorithm.">
<polygon fill="white" stroke="#666666" points="88.75,-78.25 0,-78.25 0,-59.75 88.75,-59.75 88.75,-78.25"/>
<text text-anchor="middle" x="44.38" y="-64.75" font-family="Helvetica,sans-Serif" font-size="10.00">clairvoyant_cvt.h</text>
</a>
</g>
</g>
<!-- Node1&#45;&gt;Node2 -->
<g id="edge1_Node000001_Node000002" class="edge">
<title>Node1&#45;&gt;Node2</title>
<g id="a_edge1_Node000001_Node000002"><a xlink:title=" ">
<path fill="none" stroke="#63b8ff" d="M322.61,-338.5C242.38,-324.24 82.38,-289.44 82.38,-238.75 82.38,-238.75 82.38,-238.75 82.38,-182.25 82.38,-141.72 59.87,-97.1 49.5,-78.68"/>
<polygon fill="#63b8ff" stroke="#63b8ff" points="321.9,-341.93 332.35,-340.2 323.1,-335.04 321.9,-341.93"/>
</a>
</g>
</g>
<!-- Node4 -->
<g id="Node000004" class="node">
<title>Node4</title>
<g id="a_Node000004"><a xlink:href="coverage__system_8h.html" target="_top" xlink:title="The file contains the CoverageSystem class, which is the main class for the coverage control library.">
<polygon fill="white" stroke="#666666" points="517,-192.5 417.75,-192.5 417.75,-174 517,-174 517,-192.5"/>
<text text-anchor="middle" x="467.38" y="-179" font-family="Helvetica,sans-Serif" font-size="10.00">coverage_system.h</text>
</a>
</g>
</g>
<!-- Node1&#45;&gt;Node4 -->
<g id="edge3_Node000001_Node000004" class="edge">
<title>Node1&#45;&gt;Node4</title>
<g id="a_edge3_Node000001_Node000004"><a xlink:title=" ">
<path fill="none" stroke="#63b8ff" d="M365.57,-325.89C364.34,-300.86 365.79,-257.6 386.38,-228.5 398.78,-210.97 420.39,-199.67 438.17,-192.88"/>
<polygon fill="#63b8ff" stroke="#63b8ff" points="362.06,-325.91 366.26,-335.64 369.05,-325.42 362.06,-325.91"/>
</a>
</g>
</g>
<!-- Node7 -->
<g id="Node000007" class="node">
<title>Node7</title>
<g id="a_Node000007"><a xlink:href="decentralized__cvt_8h.html" target="_top" xlink:title="Contains the DecentralizedCVT class.">
<polygon fill="white" stroke="#666666" points="206,-78.25 106.75,-78.25 106.75,-59.75 206,-59.75 206,-78.25"/>
<text text-anchor="middle" x="156.38" y="-64.75" font-family="Helvetica,sans-Serif" font-size="10.00">decentralized_cvt.h</text>
</a>
</g>
</g>
<!-- Node1&#45;&gt;Node7 -->
<g id="edge21_Node000001_Node000007" class="edge">
<title>Node1&#45;&gt;Node7</title>
<g id="a_edge21_Node000001_Node000007"><a xlink:title=" ">
<path fill="none" stroke="#63b8ff" d="M322.86,-341.18C264.75,-332.47 170.38,-307.71 170.38,-238.75 170.38,-238.75 170.38,-238.75 170.38,-182.25 170.38,-143.37 162,-97.48 158.21,-78.69"/>
<polygon fill="#63b8ff" stroke="#63b8ff" points="322.07,-344.6 332.46,-342.51 323.03,-337.67 322.07,-344.6"/>
</a>
</g>
</g>
<!-- Node8 -->
<g id="Node000008" class="node">
<title>Node8</title>
<g id="a_Node000008"><a xlink:href="near__optimal__cvt_8h.html" target="_top" xlink:title="NearOptimalCVT class Global offline oracle: has complete information about the environment....">
<polygon fill="white" stroke="#666666" points="322.25,-78.25 224.5,-78.25 224.5,-59.75 322.25,-59.75 322.25,-78.25"/>
<text text-anchor="middle" x="273.38" y="-64.75" font-family="Helvetica,sans-Serif" font-size="10.00">near_optimal_cvt.h</text>
</a>
</g>
</g>
<!-- Node1&#45;&gt;Node8 -->
<g id="edge22_Node000001_Node000008" class="edge">
<title>Node1&#45;&gt;Node8</title>
<g id="a_edge22_Node000001_Node000008"><a xlink:title=" ">
<path fill="none" stroke="#63b8ff" d="M328.86,-333.12C289.9,-317.63 235.38,-287.29 235.38,-238.75 235.38,-238.75 235.38,-238.75 235.38,-182.25 235.38,-141.72 257.88,-97.1 268.25,-78.68"/>
<polygon fill="#63b8ff" stroke="#63b8ff" points="327.37,-336.3 337.97,-336.56 329.85,-329.75 327.37,-336.3"/>
</a>
</g>
</g>
<!-- Node11 -->
<g id="Node000011" class="node">
<title>Node11</title>
<g id="a_Node000011"><a xlink:href="simul__explore__exploit_8h.html" target="_top" xlink:title="Simultaneous exploration and exploitation algorithm Uses frontier&#45;based exploration with bias towards...">
<polygon fill="white" stroke="#666666" points="826,-78.25 708.75,-78.25 708.75,-59.75 826,-59.75 826,-78.25"/>
<text text-anchor="middle" x="767.38" y="-64.75" font-family="Helvetica,sans-Serif" font-size="10.00">simul_explore_exploit.h</text>
</a>
</g>
</g>
<!-- Node1&#45;&gt;Node11 -->
<g id="edge25_Node000001_Node000011" class="edge">
<title>Node1&#45;&gt;Node11</title>
<g id="a_edge25_Node000001_Node000011"><a xlink:title=" ">
<path fill="none" stroke="#63b8ff" d="M412.13,-344.54C525.75,-340.27 816.38,-321.27 816.38,-238.75 816.38,-238.75 816.38,-238.75 816.38,-182.25 816.38,-140.57 787.65,-96.92 774.19,-78.74"/>
<polygon fill="#63b8ff" stroke="#63b8ff" points="412.14,-341.04 402.27,-344.89 412.39,-348.04 412.14,-341.04"/>
</a>
</g>
</g>
<!-- Node13 -->
<g id="Node000013" class="node">
<title>Node13</title>
<g id="a_Node000013"><a xlink:href="robot__model_8h.html" target="_top" xlink:title="Class for handling the robot model.">
<polygon fill="white" stroke="#666666" points="473.12,-247 395.62,-247 395.62,-228.5 473.12,-228.5 473.12,-247"/>
<text text-anchor="middle" x="434.38" y="-233.5" font-family="Helvetica,sans-Serif" font-size="10.00">robot_model.h</text>
</a>
</g>
</g>
<!-- Node1&#45;&gt;Node13 -->
<g id="edge23_Node000001_Node000013" class="edge">
<title>Node1&#45;&gt;Node13</title>
<g id="a_edge23_Node000001_Node000013"><a xlink:title=" ">
<path fill="none" stroke="#63b8ff" d="M378.7,-327.66C393.29,-304.37 418.06,-264.81 428.96,-247.4"/>
<polygon fill="#63b8ff" stroke="#63b8ff" points="375.78,-325.74 373.44,-336.07 381.71,-329.45 375.78,-325.74"/>
</a>
</g>
</g>
<!-- Node14 -->
<g id="Node000014" class="node">
<title>Node14</title>
<g id="a_Node000014"><a xlink:href="world__idf_8h.html" target="_top" xlink:title="Contains the class for Importance Density Function (IDF) for the world.">
<polygon fill="white" stroke="#666666" points="521.25,-301.5 459.5,-301.5 459.5,-283 521.25,-283 521.25,-301.5"/>
<text text-anchor="middle" x="490.38" y="-288" font-family="Helvetica,sans-Serif" font-size="10.00">world_idf.h</text>
</a>
</g>
</g>
<!-- Node1&#45;&gt;Node14 -->
<g id="edge26_Node000001_Node000014" class="edge">
<title>Node1&#45;&gt;Node14</title>
<g id="a_edge26_Node000001_Node000014"><a xlink:title=" ">
<path fill="none" stroke="#63b8ff" d="M398.05,-332.66C420.54,-323.06 450.44,-310.3 470.03,-301.93"/>
<polygon fill="#63b8ff" stroke="#63b8ff" points="396.9,-329.34 389.08,-336.49 399.65,-335.78 396.9,-329.34"/>
</a>
</g>
</g>
<!-- Node3 -->
<g id="Node000003" class="node">
<title>Node3</title>
<g id="a_Node000003"><a xlink:href="coverage__algorithm_8cpp.html" target="_top" xlink:title="Program to test the CVT&#45;based (Lloyd&#39;s) coverage control algorithms.">
<polygon fill="white" stroke="#666666" points="913.75,-18.5 795,-18.5 795,0 913.75,0 913.75,-18.5"/>
<text text-anchor="middle" x="854.38" y="-5" font-family="Helvetica,sans-Serif" font-size="10.00">coverage_algorithm.cpp</text>
</a>
</g>
</g>
<!-- Node2&#45;&gt;Node3 -->
<g id="edge2_Node000002_Node000003" class="edge">
<title>Node2&#45;&gt;Node3</title>
<g id="a_edge2_Node000002_Node000003"><a xlink:title=" ">
<path fill="none" stroke="#63b8ff" d="M85.52,-56.71C89.51,-55.86 93.5,-55.1 97.38,-54.5 354.63,-14.59 666.15,-9.94 794.59,-9.88"/>
<polygon fill="#63b8ff" stroke="#63b8ff" points="84.86,-53.27 75.91,-58.94 86.45,-60.08 84.86,-53.27"/>
</a>
</g>
</g>
<!-- Node4&#45;&gt;Node2 -->
<g id="edge13_Node000004_Node000002" class="edge">
<title>Node4&#45;&gt;Node2</title>
<g id="a_edge13_Node000004_Node000002"><a xlink:title=" ">
<path fill="none" stroke="#63b8ff" d="M423.29,-170.68C389.4,-161.77 341.42,-149.14 299.38,-138 219.43,-116.81 125.45,-91.7 76.97,-78.73"/>
<polygon fill="#63b8ff" stroke="#63b8ff" points="422.19,-174.01 432.75,-173.16 423.97,-167.24 422.19,-174.01"/>
</a>
</g>
</g>
<!-- Node4&#45;&gt;Node3 -->
<g id="edge14_Node000004_Node000003" class="edge">
<title>Node4&#45;&gt;Node3</title>
<g id="a_edge14_Node000004_Node000003"><a xlink:title=" ">
<path fill="none" stroke="#63b8ff" d="M528.77,-180.51C588.29,-177.05 680.2,-166.99 754.38,-138 794.79,-122.2 810.3,-118.91 835.38,-83.5 849.65,-63.34 853.2,-33.29 854.09,-18.74"/>
<polygon fill="#63b8ff" stroke="#63b8ff" points="528.62,-177.01 518.82,-181.03 528.99,-184 528.62,-177.01"/>
</a>
</g>
</g>
<!-- Node5 -->
<g id="Node000005" class="node">
<title>Node5</title>
<g id="a_Node000005"><a xlink:href="abstract__controller_8h.html" target="_top" xlink:title="Contains the abstract class for coverage control algorithms.">
<polygon fill="white" stroke="#666666" points="519.62,-138 415.12,-138 415.12,-119.5 519.62,-119.5 519.62,-138"/>
<text text-anchor="middle" x="467.38" y="-124.5" font-family="Helvetica,sans-Serif" font-size="10.00">abstract_controller.h</text>
</a>
</g>
</g>
<!-- Node4&#45;&gt;Node5 -->
<g id="edge4_Node000004_Node000005" class="edge">
<title>Node4&#45;&gt;Node5</title>
<g id="a_edge4_Node000004_Node000005"><a xlink:title=" ">
<path fill="none" stroke="#63b8ff" d="M467.38,-162.14C467.38,-153.86 467.38,-144.71 467.38,-138.26"/>
<polygon fill="#63b8ff" stroke="#63b8ff" points="463.88,-162.07 467.38,-172.07 470.88,-162.07 463.88,-162.07"/>
</a>
</g>
</g>
<!-- Node6 -->
<g id="Node000006" class="node">
<title>Node6</title>
<g id="a_Node000006"><a xlink:href="centralized__cvt_8h.html" target="_top" xlink:title="Contains the class CentralizedCVT.">
<polygon fill="white" stroke="#666666" points="567.75,-78.25 479,-78.25 479,-59.75 567.75,-59.75 567.75,-78.25"/>
<text text-anchor="middle" x="523.38" y="-64.75" font-family="Helvetica,sans-Serif" font-size="10.00">centralized_cvt.h</text>
</a>
</g>
</g>
<!-- Node4&#45;&gt;Node6 -->
<g id="edge12_Node000004_Node000006" class="edge">
<title>Node4&#45;&gt;Node6</title>
<g id="a_edge12_Node000004_Node000006"><a xlink:title=" ">
<path fill="none" stroke="#63b8ff" d="M497.59,-168.18C509.45,-160.96 521.78,-150.93 528.38,-138 538.27,-118.6 531.36,-91.96 526.69,-78.51"/>
<polygon fill="#63b8ff" stroke="#63b8ff" points="496.23,-164.93 489.19,-172.85 499.63,-171.05 496.23,-164.93"/>
</a>
</g>
</g>
<!-- Node4&#45;&gt;Node7 -->
<g id="edge16_Node000004_Node000007" class="edge">
<title>Node4&#45;&gt;Node7</title>
<g id="a_edge16_Node000004_Node000007"><a xlink:title=" ">
<path fill="none" stroke="#63b8ff" d="M432.54,-169.68C368.78,-146.66 234.87,-98.33 180.29,-78.63"/>
<polygon fill="#63b8ff" stroke="#63b8ff" points="431.21,-172.92 441.81,-173.02 433.59,-166.33 431.21,-172.92"/>
</a>
</g>
</g>
<!-- Node4&#45;&gt;Node8 -->
<g id="edge17_Node000004_Node000008" class="edge">
<title>Node4&#45;&gt;Node8</title>
<g id="a_edge17_Node000004_Node000008"><a xlink:title=" ">
<path fill="none" stroke="#63b8ff" d="M442.52,-167.87C401.66,-144.23 321.52,-97.86 288.33,-78.65"/>
<polygon fill="#63b8ff" stroke="#63b8ff" points="440.76,-170.89 451.16,-172.87 444.26,-164.83 440.76,-170.89"/>
</a>
</g>
</g>
<!-- Node9 -->
<g id="Node000009" class="node">
<title>Node9</title>
<g id="a_Node000009"><a xlink:href="oracle__bang__explore__exploit_8h.html" target="_top" xlink:title="First trial of oracle with exploration and exploitation. The oracle uses complete information about t...">
<polygon fill="white" stroke="#666666" points="691,-83.5 585.75,-83.5 585.75,-54.5 691,-54.5 691,-83.5"/>
<text text-anchor="start" x="593.75" y="-70" font-family="Helvetica,sans-Serif" font-size="10.00">oracle_bang_explore</text>
<text text-anchor="middle" x="638.38" y="-59.5" font-family="Helvetica,sans-Serif" font-size="10.00">_exploit.h</text>
</a>
</g>
</g>
<!-- Node4&#45;&gt;Node9 -->
<g id="edge18_Node000004_Node000009" class="edge">
<title>Node4&#45;&gt;Node9</title>
<g id="a_edge18_Node000004_Node000009"><a xlink:title=" ">
<path fill="none" stroke="#63b8ff" d="M493.31,-168.23C508.44,-159.84 527.75,-148.75 544.38,-138 571.61,-120.39 601.77,-98.04 620.4,-83.87"/>
<polygon fill="#63b8ff" stroke="#63b8ff" points="492,-164.96 484.92,-172.85 495.37,-171.1 492,-164.96"/>
</a>
</g>
</g>
<!-- Node10 -->
<g id="Node000010" class="node">
<title>Node10</title>
<g id="a_Node000010"><a xlink:href="oracle__explore__exploit_8h.html" target="_top" xlink:title="Old trial of exploration and exploitation Uses system map for exploration as well.">
<polygon fill="white" stroke="#666666" points="460.5,-78.25 340.25,-78.25 340.25,-59.75 460.5,-59.75 460.5,-78.25"/>
<text text-anchor="middle" x="400.38" y="-64.75" font-family="Helvetica,sans-Serif" font-size="10.00">oracle_explore_exploit.h</text>
</a>
</g>
</g>
<!-- Node4&#45;&gt;Node10 -->
<g id="edge19_Node000004_Node000010" class="edge">
<title>Node4&#45;&gt;Node10</title>
<g id="a_edge19_Node000004_Node000010"><a xlink:title=" ">
<path fill="none" stroke="#63b8ff" d="M437.6,-167.82C425.87,-160.56 413.51,-150.59 406.38,-138 395.62,-119.03 397.23,-92.2 398.98,-78.61"/>
<polygon fill="#63b8ff" stroke="#63b8ff" points="435.86,-170.86 446.29,-172.76 439.32,-164.78 435.86,-170.86"/>
</a>
</g>
</g>
<!-- Node4&#45;&gt;Node11 -->
<g id="edge20_Node000004_Node000011" class="edge">
<title>Node4&#45;&gt;Node11</title>
<g id="a_edge20_Node000004_Node000011"><a xlink:title=" ">
<path fill="none" stroke="#63b8ff" d="M528.82,-178.33C596.75,-172.91 700.77,-161.07 732.38,-138 752.54,-123.28 761.96,-93.51 765.55,-78.73"/>
<polygon fill="#63b8ff" stroke="#63b8ff" points="528.62,-174.83 518.92,-179.09 529.16,-181.81 528.62,-174.83"/>
</a>
</g>
</g>
<!-- Node12 -->
<g id="Node000012" class="node">
<title>Node12</title>
<g id="a_Node000012"><a xlink:href="coverage__system_8cpp.html" target="_top" xlink:title="Contains the implementation of the CoverageSystem class.">
<polygon fill="white" stroke="#666666" points="723.25,-138 613.5,-138 613.5,-119.5 723.25,-119.5 723.25,-138"/>
<text text-anchor="middle" x="668.38" y="-124.5" font-family="Helvetica,sans-Serif" font-size="10.00">coverage_system.cpp</text>
</a>
</g>
</g>
<!-- Node4&#45;&gt;Node12 -->
<g id="edge15_Node000004_Node000012" class="edge">
<title>Node4&#45;&gt;Node12</title>
<g id="a_edge15_Node000004_Node000012"><a xlink:title=" ">
<path fill="none" stroke="#63b8ff" d="M511.6,-170.7C548.87,-160.96 601.37,-147.25 635.13,-138.43"/>
<polygon fill="#63b8ff" stroke="#63b8ff" points="510.82,-167.28 502.03,-173.2 512.59,-174.06 510.82,-167.28"/>
</a>
</g>
</g>
<!-- Node5&#45;&gt;Node2 -->
<g id="edge6_Node000005_Node000002" class="edge">
<title>Node5&#45;&gt;Node2</title>
<g id="a_edge6_Node000005_Node000002"><a xlink:title=" ">
<path fill="none" stroke="#63b8ff" d="M403.22,-122.63C329.13,-116.14 203.78,-103.33 97.38,-83.5 90.37,-82.2 82.93,-80.5 75.89,-78.75"/>
<polygon fill="#63b8ff" stroke="#63b8ff" points="402.89,-126.12 413.15,-123.49 403.49,-119.15 402.89,-126.12"/>
</a>
</g>
</g>
<!-- Node5&#45;&gt;Node6 -->
<g id="edge5_Node000005_Node000006" class="edge">
<title>Node5&#45;&gt;Node6</title>
<g id="a_edge5_Node000005_Node000006"><a xlink:title=" ">
<path fill="none" stroke="#63b8ff" d="M483.53,-111.09C493.84,-100.45 506.79,-87.1 515.08,-78.56"/>
<polygon fill="#63b8ff" stroke="#63b8ff" points="481.14,-108.53 476.69,-118.14 486.17,-113.4 481.14,-108.53"/>
</a>
</g>
</g>
<!-- Node5&#45;&gt;Node7 -->
<g id="edge7_Node000005_Node000007" class="edge">
<title>Node5&#45;&gt;Node7</title>
<g id="a_edge7_Node000005_Node000007"><a xlink:title=" ">
<path fill="none" stroke="#63b8ff" d="M403.92,-117.53C352.86,-109.08 279.33,-96.42 215.38,-83.5 208.17,-82.04 200.49,-80.37 193.14,-78.72"/>
<polygon fill="#63b8ff" stroke="#63b8ff" points="403.18,-120.95 413.61,-119.13 404.31,-114.05 403.18,-120.95"/>
</a>
</g>
</g>
<!-- Node5&#45;&gt;Node8 -->
<g id="edge8_Node000005_Node000008" class="edge">
<title>Node5&#45;&gt;Node8</title>
<g id="a_edge8_Node000005_Node000008"><a xlink:title=" ">
<path fill="none" stroke="#63b8ff" d="M427.4,-115.85C390.27,-104.8 335.85,-88.6 302.62,-78.7"/>
<polygon fill="#63b8ff" stroke="#63b8ff" points="426.3,-119.17 436.88,-118.67 428.29,-112.46 426.3,-119.17"/>
</a>
</g>
</g>
<!-- Node5&#45;&gt;Node9 -->
<g id="edge9_Node000005_Node000009" class="edge">
<title>Node5&#45;&gt;Node9</title>
<g id="a_edge9_Node000005_Node000009"><a xlink:title=" ">
<path fill="none" stroke="#63b8ff" d="M503.64,-115.5C530.97,-106.27 568.47,-93.61 596.97,-83.98"/>
<polygon fill="#63b8ff" stroke="#63b8ff" points="502.76,-112.1 494.41,-118.62 505,-118.74 502.76,-112.1"/>
</a>
</g>
</g>
<!-- Node5&#45;&gt;Node10 -->
<g id="edge10_Node000005_Node000010" class="edge">
<title>Node5&#45;&gt;Node10</title>
<g id="a_edge10_Node000005_Node000010"><a xlink:title=" ">
<path fill="none" stroke="#63b8ff" d="M448.79,-111.73C436.33,-100.99 420.41,-87.27 410.3,-78.56"/>
<polygon fill="#63b8ff" stroke="#63b8ff" points="446.48,-114.36 456.34,-118.24 451.05,-109.06 446.48,-114.36"/>
</a>
</g>
</g>
<!-- Node5&#45;&gt;Node11 -->
<g id="edge11_Node000005_Node000011" class="edge">
<title>Node5&#45;&gt;Node11</title>
<g id="a_edge11_Node000005_Node000011"><a xlink:title=" ">
<path fill="none" stroke="#63b8ff" d="M525.48,-116.9C572.64,-108.05 640.83,-95.15 700.38,-83.5 708.18,-81.97 716.48,-80.32 724.5,-78.71"/>
<polygon fill="#63b8ff" stroke="#63b8ff" points="524.94,-113.44 515.75,-118.73 526.23,-120.32 524.94,-113.44"/>
</a>
</g>
</g>
<!-- Node13&#45;&gt;Node4 -->
<g id="edge24_Node000013_Node000004" class="edge">
<title>Node13&#45;&gt;Node4</title>
<g id="a_edge24_Node000013_Node000004"><a xlink:title=" ">
<path fill="none" stroke="#63b8ff" d="M445.92,-218.38C451.4,-209.66 457.68,-199.67 462.03,-192.76"/>
<polygon fill="#63b8ff" stroke="#63b8ff" points="442.99,-216.47 440.63,-226.8 448.91,-220.2 442.99,-216.47"/>
</a>
</g>
</g>
<!-- Node14&#45;&gt;Node3 -->
<g id="edge27_Node000014_Node000003" class="edge">
<title>Node14&#45;&gt;Node3</title>
<g id="a_edge27_Node000014_Node000003"><a xlink:title=" ">
<path fill="none" stroke="#63b8ff" d="M521.36,-278.06C577.04,-253.78 696.83,-198.89 789.38,-138 821.15,-117.09 839.16,-117.91 855.38,-83.5 865.46,-62.1 860.36,-33.13 856.82,-18.89"/>
<polygon fill="#63b8ff" stroke="#63b8ff" points="519.97,-274.85 512.18,-282.03 522.75,-281.27 519.97,-274.85"/>
</a>
</g>
</g>
<!-- Node14&#45;&gt;Node4 -->
<g id="edge28_Node000014_Node000004" class="edge">
<title>Node14&#45;&gt;Node4</title>
<g id="a_edge28_Node000014_Node000004"><a xlink:title=" ">
<path fill="none" stroke="#63b8ff" d="M488.86,-271.32C487.66,-258.89 485.64,-242.64 482.38,-228.5 479.46,-215.85 474.33,-201.73 470.89,-192.92"/>
<polygon fill="#63b8ff" stroke="#63b8ff" points="485.36,-271.45 489.7,-281.12 492.33,-270.86 485.36,-271.45"/>
</a>
</g>
</g>
<!-- Node14&#45;&gt;Node13 -->
<g id="edge29_Node000014_Node000013" class="edge">
<title>Node14&#45;&gt;Node13</title>
<g id="a_edge29_Node000014_Node000013"><a xlink:title=" ">
<path fill="none" stroke="#63b8ff" d="M472.89,-274.86C463.14,-265.72 451.39,-254.7 443.45,-247.26"/>
<polygon fill="#63b8ff" stroke="#63b8ff" points="470.33,-277.26 480.02,-281.55 475.12,-272.15 470.33,-277.26"/>
</a>
</g>
</g>
</g>
</svg>
