<?xml version="1.0" encoding="UTF-8" standalone="no"?>
<!DOCTYPE svg PUBLIC "-//W3C//DTD SVG 1.1//EN"
 "http://www.w3.org/Graphics/SVG/1.1/DTD/svg11.dtd">
<!-- Generated by graphviz version 12.1.2 (0)
 -->
<!-- Title: map_utils.h Pages: 1 -->
<svg width="1015pt" height="310pt"
 viewBox="0.00 0.00 1014.79 309.50" xmlns="http://www.w3.org/2000/svg" xmlns:xlink="http://www.w3.org/1999/xlink">
<g id="graph0" class="graph" transform="scale(1 1) rotate(0) translate(4 305.5)">
<title>map_utils.h</title>
<!-- Node1 -->
<g id="Node000001" class="node">
<title>Node1</title>
<g id="a_Node000001"><a xlink:title="Utility functions for transforming maps.">
<polygon fill="#999999" stroke="#666666" points="380.75,-301.5 314.5,-301.5 314.5,-283 380.75,-283 380.75,-301.5"/>
<text text-anchor="middle" x="347.62" y="-288" font-family="Helvetica,sans-Serif" font-size="10.00">map_utils.h</text>
</a>
</g>
</g>
<!-- Node2 -->
<g id="Node000002" class="node">
<title>Node2</title>
<g id="a_Node000002"><a xlink:href="coverage__system_8h.html" target="_top" xlink:title="The file contains the CoverageSystem class, which is the main class for the coverage control library.">
<polygon fill="white" stroke="#666666" points="521.25,-138 422,-138 422,-119.5 521.25,-119.5 521.25,-138"/>
<text text-anchor="middle" x="471.62" y="-124.5" font-family="Helvetica,sans-Serif" font-size="10.00">coverage_system.h</text>
</a>
</g>
</g>
<!-- Node1&#45;&gt;Node2 -->
<g id="edge1_Node000001_Node000002" class="edge">
<title>Node1&#45;&gt;Node2</title>
<g id="a_edge1_Node000001_Node000002"><a xlink:title=" ">
<path fill="none" stroke="#63b8ff" d="M345.39,-271.43C343.64,-246.09 344.48,-202.16 366.62,-174 381.05,-155.65 404.49,-144.82 425.56,-138.47"/>
<polygon fill="#63b8ff" stroke="#63b8ff" points="341.9,-271.65 346.3,-281.29 348.87,-271.01 341.9,-271.65"/>
</a>
</g>
</g>
<!-- Node7 -->
<g id="Node000007" class="node">
<title>Node7</title>
<g id="a_Node000007"><a xlink:href="decentralized__cvt_8h.html" target="_top" xlink:title="Contains the DecentralizedCVT class.">
<polygon fill="white" stroke="#666666" points="99.25,-78.25 0,-78.25 0,-59.75 99.25,-59.75 99.25,-78.25"/>
<text text-anchor="middle" x="49.62" y="-64.75" font-family="Helvetica,sans-Serif" font-size="10.00">decentralized_cvt.h</text>
</a>
</g>
</g>
<!-- Node1&#45;&gt;Node7 -->
<g id="edge12_Node000001_Node000007" class="edge">
<title>Node1&#45;&gt;Node7</title>
<g id="a_edge12_Node000001_Node000007"><a xlink:title=" ">
<path fill="none" stroke="#63b8ff" d="M326.98,-275.92C269.03,-232.9 106.15,-111.97 61.23,-78.61"/>
<polygon fill="#63b8ff" stroke="#63b8ff" points="324.61,-278.52 334.73,-281.67 328.79,-272.9 324.61,-278.52"/>
</a>
</g>
</g>
<!-- Node11 -->
<g id="Node000011" class="node">
<title>Node11</title>
<g id="a_Node000011"><a xlink:href="simul__explore__exploit_8h.html" target="_top" xlink:title="Simultaneous exploration and exploitation algorithm Uses frontier&#45;based exploration with bias towards...">
<polygon fill="white" stroke="#666666" points="234.25,-78.25 117,-78.25 117,-59.75 234.25,-59.75 234.25,-78.25"/>
<text text-anchor="middle" x="175.62" y="-64.75" font-family="Helvetica,sans-Serif" font-size="10.00">simul_explore_exploit.h</text>
</a>
</g>
</g>
<!-- Node1&#45;&gt;Node11 -->
<g id="edge15_Node000001_Node000011" class="edge">
<title>Node1&#45;&gt;Node11</title>
<g id="a_edge15_Node000001_Node000011"><a xlink:title=" ">
<path fill="none" stroke="#63b8ff" d="M333.98,-273.7C299.06,-228.78 207.37,-110.84 182.14,-78.38"/>
<polygon fill="#63b8ff" stroke="#63b8ff" points="331.05,-275.63 339.95,-281.38 336.58,-271.34 331.05,-275.63"/>
</a>
</g>
</g>
<!-- Node12 -->
<g id="Node000012" class="node">
<title>Node12</title>
<g id="a_Node000012"><a xlink:href="robot__model_8h.html" target="_top" xlink:title="Class for handling the robot model.">
<polygon fill="white" stroke="#666666" points="453.38,-192.5 375.88,-192.5 375.88,-174 453.38,-174 453.38,-192.5"/>
<text text-anchor="middle" x="414.62" y="-179" font-family="Helvetica,sans-Serif" font-size="10.00">robot_model.h</text>
</a>
</g>
</g>
<!-- Node1&#45;&gt;Node12 -->
<g id="edge13_Node000001_Node000012" class="edge">
<title>Node1&#45;&gt;Node12</title>
<g id="a_edge13_Node000001_Node000012"><a xlink:title=" ">
<path fill="none" stroke="#63b8ff" d="M358.95,-273.16C373.54,-249.87 398.31,-210.31 409.21,-192.9"/>
<polygon fill="#63b8ff" stroke="#63b8ff" points="356.03,-271.24 353.69,-281.57 361.96,-274.95 356.03,-271.24"/>
</a>
</g>
</g>
<!-- Node13 -->
<g id="Node000013" class="node">
<title>Node13</title>
<g id="a_Node000013"><a xlink:href="world__idf_8h.html" target="_top" xlink:title="Contains the class for Importance Density Function (IDF) for the world.">
<polygon fill="white" stroke="#666666" points="538.5,-247 476.75,-247 476.75,-228.5 538.5,-228.5 538.5,-247"/>
<text text-anchor="middle" x="507.62" y="-233.5" font-family="Helvetica,sans-Serif" font-size="10.00">world_idf.h</text>
</a>
</g>
</g>
<!-- Node1&#45;&gt;Node13 -->
<g id="edge16_Node000001_Node000013" class="edge">
<title>Node1&#45;&gt;Node13</title>
<g id="a_edge16_Node000001_Node000013"><a xlink:title=" ">
<path fill="none" stroke="#63b8ff" d="M384.77,-279.06C414.29,-269.38 454.86,-256.06 481.17,-247.43"/>
<polygon fill="#63b8ff" stroke="#63b8ff" points="383.89,-275.67 375.48,-282.11 386.08,-282.32 383.89,-275.67"/>
</a>
</g>
</g>
<!-- Node3 -->
<g id="Node000003" class="node">
<title>Node3</title>
<g id="a_Node000003"><a xlink:href="centralized__cvt_8h.html" target="_top" xlink:title="Contains the class CentralizedCVT.">
<polygon fill="white" stroke="#666666" points="480,-78.25 391.25,-78.25 391.25,-59.75 480,-59.75 480,-78.25"/>
<text text-anchor="middle" x="435.62" y="-64.75" font-family="Helvetica,sans-Serif" font-size="10.00">centralized_cvt.h</text>
</a>
</g>
</g>
<!-- Node2&#45;&gt;Node3 -->
<g id="edge2_Node000002_Node000003" class="edge">
<title>Node2&#45;&gt;Node3</title>
<g id="a_edge2_Node000002_Node000003"><a xlink:title=" ">
<path fill="none" stroke="#63b8ff" d="M460.24,-109.48C453.78,-99.13 446.02,-86.67 440.96,-78.56"/>
<polygon fill="#63b8ff" stroke="#63b8ff" points="457.25,-111.31 465.51,-117.94 463.19,-107.61 457.25,-111.31"/>
</a>
</g>
</g>
<!-- Node4 -->
<g id="Node000004" class="node">
<title>Node4</title>
<g id="a_Node000004"><a xlink:href="clairvoyant__cvt_8h.html" target="_top" xlink:title="Clairvoyant CVT algorithm.">
<polygon fill="white" stroke="#666666" points="624,-78.25 535.25,-78.25 535.25,-59.75 624,-59.75 624,-78.25"/>
<text text-anchor="middle" x="579.62" y="-64.75" font-family="Helvetica,sans-Serif" font-size="10.00">clairvoyant_cvt.h</text>
</a>
</g>
</g>
<!-- Node2&#45;&gt;Node4 -->
<g id="edge3_Node000002_Node000004" class="edge">
<title>Node2&#45;&gt;Node4</title>
<g id="a_edge3_Node000002_Node000004"><a xlink:title=" ">
<path fill="none" stroke="#63b8ff" d="M497.47,-113.93C517.91,-103 545.81,-88.08 563.27,-78.75"/>
<polygon fill="#63b8ff" stroke="#63b8ff" points="496.06,-110.71 488.9,-118.52 499.36,-116.89 496.06,-110.71"/>
</a>
</g>
</g>
<!-- Node5 -->
<g id="Node000005" class="node">
<title>Node5</title>
<g id="a_Node000005"><a xlink:href="coverage__algorithm_8cpp.html" target="_top" xlink:title="Program to test the CVT&#45;based (Lloyd&#39;s) coverage control algorithms.">
<polygon fill="white" stroke="#666666" points="639,-18.5 520.25,-18.5 520.25,0 639,0 639,-18.5"/>
<text text-anchor="middle" x="579.62" y="-5" font-family="Helvetica,sans-Serif" font-size="10.00">coverage_algorithm.cpp</text>
</a>
</g>
</g>
<!-- Node2&#45;&gt;Node5 -->
<g id="edge5_Node000002_Node000005" class="edge">
<title>Node2&#45;&gt;Node5</title>
<g id="a_edge5_Node000002_Node000005"><a xlink:title=" ">
<path fill="none" stroke="#63b8ff" d="M483.42,-109.72C493.9,-94.31 510.08,-71.93 526.62,-54.5 539.67,-40.77 556.8,-27.13 568,-18.7"/>
<polygon fill="#63b8ff" stroke="#63b8ff" points="480.62,-107.61 477.98,-117.87 486.45,-111.49 480.62,-107.61"/>
</a>
</g>
</g>
<!-- Node6 -->
<g id="Node000006" class="node">
<title>Node6</title>
<g id="a_Node000006"><a xlink:href="coverage__system_8cpp.html" target="_top" xlink:title="Contains the implementation of the CoverageSystem class.">
<polygon fill="white" stroke="#666666" points="751.5,-78.25 641.75,-78.25 641.75,-59.75 751.5,-59.75 751.5,-78.25"/>
<text text-anchor="middle" x="696.62" y="-64.75" font-family="Helvetica,sans-Serif" font-size="10.00">coverage_system.cpp</text>
</a>
</g>
</g>
<!-- Node2&#45;&gt;Node6 -->
<g id="edge6_Node000002_Node000006" class="edge">
<title>Node2&#45;&gt;Node6</title>
<g id="a_edge6_Node000002_Node000006"><a xlink:title=" ">
<path fill="none" stroke="#63b8ff" d="M516.32,-116.28C559.41,-105.22 623.67,-88.72 662.71,-78.7"/>
<polygon fill="#63b8ff" stroke="#63b8ff" points="515.59,-112.85 506.78,-118.73 517.33,-119.63 515.59,-112.85"/>
</a>
</g>
</g>
<!-- Node2&#45;&gt;Node7 -->
<g id="edge7_Node000002_Node000007" class="edge">
<title>Node2&#45;&gt;Node7</title>
<g id="a_edge7_Node000002_Node000007"><a xlink:title=" ">
<path fill="none" stroke="#63b8ff" d="M410.43,-122.34C337.86,-115.46 213.4,-102.18 107.62,-83.5 99.99,-82.15 91.85,-80.43 84.16,-78.68"/>
<polygon fill="#63b8ff" stroke="#63b8ff" points="409.83,-125.8 420.12,-123.25 410.49,-118.83 409.83,-125.8"/>
</a>
</g>
</g>
<!-- Node8 -->
<g id="Node000008" class="node">
<title>Node8</title>
<g id="a_Node000008"><a xlink:href="near__optimal__cvt_8h.html" target="_top" xlink:title="NearOptimalCVT class Global offline oracle: has complete information about the environment....">
<polygon fill="white" stroke="#666666" points="867.5,-78.25 769.75,-78.25 769.75,-59.75 867.5,-59.75 867.5,-78.25"/>
<text text-anchor="middle" x="818.62" y="-64.75" font-family="Helvetica,sans-Serif" font-size="10.00">near_optimal_cvt.h</text>
</a>
</g>
</g>
<!-- Node2&#45;&gt;Node8 -->
<g id="edge8_Node000002_Node000008" class="edge">
<title>Node2&#45;&gt;Node8</title>
<g id="a_edge8_Node000002_Node000008"><a xlink:title=" ">
<path fill="none" stroke="#63b8ff" d="M532.98,-119.75C591.64,-111.77 682.47,-98.56 760.62,-83.5 767.93,-82.09 775.72,-80.41 783.14,-78.71"/>
<polygon fill="#63b8ff" stroke="#63b8ff" points="532.63,-116.26 523.19,-121.07 533.57,-123.2 532.63,-116.26"/>
</a>
</g>
</g>
<!-- Node9 -->
<g id="Node000009" class="node">
<title>Node9</title>
<g id="a_Node000009"><a xlink:href="oracle__bang__explore__exploit_8h.html" target="_top" xlink:title="First trial of oracle with exploration and exploitation. The oracle uses complete information about t...">
<polygon fill="white" stroke="#666666" points="991.25,-83.5 886,-83.5 886,-54.5 991.25,-54.5 991.25,-83.5"/>
<text text-anchor="start" x="894" y="-70" font-family="Helvetica,sans-Serif" font-size="10.00">oracle_bang_explore</text>
<text text-anchor="middle" x="938.62" y="-59.5" font-family="Helvetica,sans-Serif" font-size="10.00">_exploit.h</text>
</a>
</g>
</g>
<!-- Node2&#45;&gt;Node9 -->
<g id="edge9_Node000002_Node000009" class="edge">
<title>Node2&#45;&gt;Node9</title>
<g id="a_edge9_Node000002_Node000009"><a xlink:title=" ">
<path fill="none" stroke="#63b8ff" d="M533.01,-123.07C612.59,-116.55 755.53,-103.24 876.62,-83.5 879.56,-83.02 882.57,-82.49 885.6,-81.93"/>
<polygon fill="#63b8ff" stroke="#63b8ff" points="532.93,-119.57 523.24,-123.87 533.49,-126.55 532.93,-119.57"/>
</a>
</g>
</g>
<!-- Node10 -->
<g id="Node000010" class="node">
<title>Node10</title>
<g id="a_Node000010"><a xlink:href="oracle__explore__exploit_8h.html" target="_top" xlink:title="Old trial of exploration and exploitation Uses system map for exploration as well.">
<polygon fill="white" stroke="#666666" points="372.75,-78.25 252.5,-78.25 252.5,-59.75 372.75,-59.75 372.75,-78.25"/>
<text text-anchor="middle" x="312.62" y="-64.75" font-family="Helvetica,sans-Serif" font-size="10.00">oracle_explore_exploit.h</text>
</a>
</g>
</g>
<!-- Node2&#45;&gt;Node10 -->
<g id="edge10_Node000002_Node000010" class="edge">
<title>Node2&#45;&gt;Node10</title>
<g id="a_edge10_Node000002_Node000010"><a xlink:title=" ">
<path fill="none" stroke="#63b8ff" d="M437.28,-115.28C406.9,-104.24 363.36,-88.43 336.59,-78.7"/>
<polygon fill="#63b8ff" stroke="#63b8ff" points="435.8,-118.46 446.4,-118.59 438.19,-111.88 435.8,-118.46"/>
</a>
</g>
</g>
<!-- Node2&#45;&gt;Node11 -->
<g id="edge11_Node000002_Node000011" class="edge">
<title>Node2&#45;&gt;Node11</title>
<g id="a_edge11_Node000002_Node000011"><a xlink:title=" ">
<path fill="none" stroke="#63b8ff" d="M415.36,-116.9C369.2,-107.98 302.17,-94.99 243.62,-83.5 235.83,-81.97 227.53,-80.33 219.51,-78.74"/>
<polygon fill="#63b8ff" stroke="#63b8ff" points="414.65,-120.33 425.14,-118.79 415.98,-113.46 414.65,-120.33"/>
</a>
</g>
</g>
<!-- Node4&#45;&gt;Node5 -->
<g id="edge4_Node000004_Node000005" class="edge">
<title>Node4&#45;&gt;Node5</title>
<g id="a_edge4_Node000004_Node000005"><a xlink:title=" ">
<path fill="none" stroke="#63b8ff" d="M579.62,-48.08C579.62,-38.08 579.62,-26.5 579.62,-18.81"/>
<polygon fill="#63b8ff" stroke="#63b8ff" points="576.13,-47.97 579.63,-57.97 583.13,-47.97 576.13,-47.97"/>
</a>
</g>
</g>
<!-- Node12&#45;&gt;Node2 -->
<g id="edge14_Node000012_Node000002" class="edge">
<title>Node12&#45;&gt;Node2</title>
<g id="a_edge14_Node000012_Node000002"><a xlink:title=" ">
<path fill="none" stroke="#63b8ff" d="M432.42,-165.86C442.35,-156.72 454.31,-145.7 462.39,-138.26"/>
<polygon fill="#63b8ff" stroke="#63b8ff" points="430.13,-163.21 425.15,-172.56 434.88,-168.35 430.13,-163.21"/>
</a>
</g>
</g>
<!-- Node13&#45;&gt;Node2 -->
<g id="edge18_Node000013_Node000002" class="edge">
<title>Node13&#45;&gt;Node2</title>
<g id="a_edge18_Node000013_Node000002"><a xlink:title=" ">
<path fill="none" stroke="#63b8ff" d="M530.58,-221.56C546.32,-209.15 562.69,-190.96 552.62,-174 542.08,-156.22 521.59,-145.12 503.86,-138.49"/>
<polygon fill="#63b8ff" stroke="#63b8ff" points="528.81,-218.52 522.81,-227.25 532.95,-224.16 528.81,-218.52"/>
</a>
</g>
</g>
<!-- Node13&#45;&gt;Node5 -->
<g id="edge17_Node000013_Node000005" class="edge">
<title>Node13&#45;&gt;Node5</title>
<g id="a_edge17_Node000013_Node000005"><a xlink:title=" ">
<path fill="none" stroke="#63b8ff" d="M550.06,-230.07C659.36,-211.89 945.82,-157.92 1000.62,-83.5 1008.27,-73.12 1009.25,-64.08 1000.62,-54.5 976.9,-28.15 749.66,-16.38 639.25,-12.18"/>
<polygon fill="#63b8ff" stroke="#63b8ff" points="549.63,-226.59 540.33,-231.66 550.76,-233.5 549.63,-226.59"/>
</a>
</g>
</g>
<!-- Node13&#45;&gt;Node12 -->
<g id="edge19_Node000013_Node000012" class="edge">
<title>Node13&#45;&gt;Node12</title>
<g id="a_edge19_Node000013_Node000012"><a xlink:title=" ">
<path fill="none" stroke="#63b8ff" d="M482.55,-222.6C465.8,-213.14 444.28,-200.99 430,-192.93"/>
<polygon fill="#63b8ff" stroke="#63b8ff" points="480.52,-225.47 490.95,-227.34 483.96,-219.37 480.52,-225.47"/>
</a>
</g>
</g>
<!-- Node14 -->
<g id="Node000014" class="node">
<title>Node14</title>
<g id="a_Node000014"><a xlink:href="world__idf_8cpp.html" target="_top" xlink:title="Contains the implementation of the WorldIDF class.">
<polygon fill="white" stroke="#666666" points="543.75,-192.5 471.5,-192.5 471.5,-174 543.75,-174 543.75,-192.5"/>
<text text-anchor="middle" x="507.62" y="-179" font-family="Helvetica,sans-Serif" font-size="10.00">world_idf.cpp</text>
</a>
</g>
</g>
<!-- Node13&#45;&gt;Node14 -->
<g id="edge20_Node000013_Node000014" class="edge">
<title>Node13&#45;&gt;Node14</title>
<g id="a_edge20_Node000013_Node000014"><a xlink:title=" ">
<path fill="none" stroke="#63b8ff" d="M507.62,-216.64C507.62,-208.36 507.62,-199.21 507.62,-192.76"/>
<polygon fill="#63b8ff" stroke="#63b8ff" points="504.13,-216.57 507.63,-226.57 511.13,-216.57 504.13,-216.57"/>
</a>
</g>
</g>
</g>
</svg>
