<?xml version="1.0" encoding="UTF-8" standalone="no"?>
<!DOCTYPE svg PUBLIC "-//W3C//DTD SVG 1.1//EN"
 "http://www.w3.org/Graphics/SVG/1.1/DTD/svg11.dtd">
<!-- Generated by graphviz version 10.0.1 (0)
 -->
<!-- Title: map_utils.h Pages: 1 -->
<svg width="1118pt" height="419pt"
 viewBox="0.00 0.00 1118.00 418.50" xmlns="http://www.w3.org/2000/svg" xmlns:xlink="http://www.w3.org/1999/xlink">
<g id="graph0" class="graph" transform="scale(1 1) rotate(0) translate(4 414.5)">
<title>map_utils.h</title>
<!-- Node1 -->
<g id="Node000001" class="node">
<title>Node1</title>
<g id="a_Node000001"><a xlink:title="Utility functions for transforming maps.">
<polygon fill="#999999" stroke="#666666" points="856.12,-410.5 789.88,-410.5 789.88,-392 856.12,-392 856.12,-410.5"/>
<text text-anchor="middle" x="823" y="-397" font-family="Helvetica,sans-Serif" font-size="10.00">map_utils.h</text>
</a>
</g>
</g>
<!-- Node2 -->
<g id="Node000002" class="node">
<title>Node2</title>
<g id="a_Node000002"><a xlink:href="clairvoyant__cvt_8h.html" target="_top" xlink:title="Clairvoyant CVT algorithm.">
<polygon fill="white" stroke="#666666" points="968.38,-132.75 879.62,-132.75 879.62,-114.25 968.38,-114.25 968.38,-132.75"/>
<text text-anchor="middle" x="924" y="-119.25" font-family="Helvetica,sans-Serif" font-size="10.00">clairvoyant_cvt.h</text>
</a>
</g>
</g>
<!-- Node1&#45;&gt;Node2 -->
<g id="edge1_Node000001_Node000002" class="edge">
<title>Node1&#45;&gt;Node2</title>
<g id="a_edge1_Node000001_Node000002"><a xlink:title=" ">
<path fill="none" stroke="#63b8ff" d="M867.77,-393.12C948.47,-378.98 1110,-344.31 1110,-293.25 1110,-293.25 1110,-293.25 1110,-236.75 1110,-170.93 1023.58,-142.69 968.55,-131.38"/>
<polygon fill="#63b8ff" stroke="#63b8ff" points="867.24,-389.66 857.98,-394.8 868.42,-396.55 867.24,-389.66"/>
</a>
</g>
</g>
<!-- Node6 -->
<g id="Node000006" class="node">
<title>Node6</title>
<g id="a_Node000006"><a xlink:href="coverage__system_8h.html" target="_top" xlink:title="The file contains the CoverageSystem class, which is the main class for the coverage control library.">
<polygon fill="white" stroke="#666666" points="691.62,-247 592.38,-247 592.38,-228.5 691.62,-228.5 691.62,-247"/>
<text text-anchor="middle" x="642" y="-233.5" font-family="Helvetica,sans-Serif" font-size="10.00">coverage_system.h</text>
</a>
</g>
</g>
<!-- Node1&#45;&gt;Node6 -->
<g id="edge5_Node000001_Node000006" class="edge">
<title>Node1&#45;&gt;Node6</title>
<g id="a_edge5_Node000001_Node000006"><a xlink:title=" ">
<path fill="none" stroke="#63b8ff" d="M792.08,-386.68C776.24,-378.93 757.16,-368.32 742,-356 699.85,-321.75 661.67,-268.09 647.66,-247.34"/>
<polygon fill="#63b8ff" stroke="#63b8ff" points="790.53,-389.82 801.06,-390.92 793.52,-383.49 790.53,-389.82"/>
</a>
</g>
</g>
<!-- Node9 -->
<g id="Node000009" class="node">
<title>Node9</title>
<g id="a_Node000009"><a xlink:href="decentralized__cvt_8h.html" target="_top" xlink:title="Contains the DecentralizedCVT class.">
<polygon fill="white" stroke="#666666" points="165.62,-132.75 66.38,-132.75 66.38,-114.25 165.62,-114.25 165.62,-132.75"/>
<text text-anchor="middle" x="116" y="-119.25" font-family="Helvetica,sans-Serif" font-size="10.00">decentralized_cvt.h</text>
</a>
</g>
</g>
<!-- Node1&#45;&gt;Node9 -->
<g id="edge31_Node000001_Node000009" class="edge">
<title>Node1&#45;&gt;Node9</title>
<g id="a_edge31_Node000001_Node000009"><a xlink:title=" ">
<path fill="none" stroke="#63b8ff" d="M778.08,-399.18C606.23,-394.5 0,-372.39 0,-293.25 0,-293.25 0,-293.25 0,-236.75 0,-184.34 61.9,-148.61 95.26,-133.15"/>
<polygon fill="#63b8ff" stroke="#63b8ff" points="777.86,-402.68 787.95,-399.44 778.04,-395.68 777.86,-402.68"/>
</a>
</g>
</g>
<!-- Node10 -->
<g id="Node000010" class="node">
<title>Node10</title>
<g id="a_Node000010"><a xlink:href="near__optimal__cvt_8h.html" target="_top" xlink:title="NearOptimalCVT class Global offline oracle: has complete information about the environment....">
<polygon fill="white" stroke="#666666" points="823.88,-132.75 726.12,-132.75 726.12,-114.25 823.88,-114.25 823.88,-132.75"/>
<text text-anchor="middle" x="775" y="-119.25" font-family="Helvetica,sans-Serif" font-size="10.00">near_optimal_cvt.h</text>
</a>
</g>
</g>
<!-- Node1&#45;&gt;Node10 -->
<g id="edge32_Node000001_Node000010" class="edge">
<title>Node1&#45;&gt;Node10</title>
<g id="a_edge32_Node000001_Node000010"><a xlink:title=" ">
<path fill="none" stroke="#63b8ff" d="M841.53,-383.84C861.36,-364.39 890,-329.93 890,-293.25 890,-293.25 890,-293.25 890,-236.75 890,-184.58 828.64,-148.73 795.56,-133.2"/>
<polygon fill="#63b8ff" stroke="#63b8ff" points="839.18,-381.25 834.28,-390.65 843.97,-386.36 839.18,-381.25"/>
</a>
</g>
</g>
<!-- Node13 -->
<g id="Node000013" class="node">
<title>Node13</title>
<g id="a_Node000013"><a xlink:href="simul__explore__exploit_8h.html" target="_top" xlink:title="Simultaneous exploration and exploitation algorithm Uses frontier&#45;based exploration with bias towards...">
<polygon fill="white" stroke="#666666" points="707.62,-132.75 590.38,-132.75 590.38,-114.25 707.62,-114.25 707.62,-132.75"/>
<text text-anchor="middle" x="649" y="-119.25" font-family="Helvetica,sans-Serif" font-size="10.00">simul_explore_exploit.h</text>
</a>
</g>
</g>
<!-- Node1&#45;&gt;Node13 -->
<g id="edge36_Node000001_Node000013" class="edge">
<title>Node1&#45;&gt;Node13</title>
<g id="a_edge36_Node000001_Node000013"><a xlink:title=" ">
<path fill="none" stroke="#63b8ff" d="M804.47,-383.84C784.64,-364.39 756,-329.93 756,-293.25 756,-293.25 756,-293.25 756,-236.75 756,-185.87 697.68,-148.93 667.15,-133.09"/>
<polygon fill="#63b8ff" stroke="#63b8ff" points="802.03,-386.36 811.72,-390.65 806.82,-381.25 802.03,-386.36"/>
</a>
</g>
</g>
<!-- Node15 -->
<g id="Node000015" class="node">
<title>Node15</title>
<g id="a_Node000015"><a xlink:href="robot__model_8h.html" target="_top" xlink:title="Class for handling the robot model.">
<polygon fill="white" stroke="#666666" points="861.75,-301.5 784.25,-301.5 784.25,-283 861.75,-283 861.75,-301.5"/>
<text text-anchor="middle" x="823" y="-288" font-family="Helvetica,sans-Serif" font-size="10.00">robot_model.h</text>
</a>
</g>
</g>
<!-- Node1&#45;&gt;Node15 -->
<g id="edge33_Node000001_Node000015" class="edge">
<title>Node1&#45;&gt;Node15</title>
<g id="a_edge33_Node000001_Node000015"><a xlink:title=" ">
<path fill="none" stroke="#63b8ff" d="M823,-380.56C823,-357.09 823,-318.91 823,-301.9"/>
<polygon fill="#63b8ff" stroke="#63b8ff" points="819.5,-380.34 823,-390.34 826.5,-380.34 819.5,-380.34"/>
</a>
</g>
</g>
<!-- Node16 -->
<g id="Node000016" class="node">
<title>Node16</title>
<g id="a_Node000016"><a xlink:href="world__idf_8h.html" target="_top" xlink:title="Contains the class for Importance Density Function (IDF) for the world.">
<polygon fill="white" stroke="#666666" points="979.88,-356 918.12,-356 918.12,-337.5 979.88,-337.5 979.88,-356"/>
<text text-anchor="middle" x="949" y="-342.5" font-family="Helvetica,sans-Serif" font-size="10.00">world_idf.h</text>
</a>
</g>
</g>
<!-- Node1&#45;&gt;Node16 -->
<g id="edge37_Node000001_Node000016" class="edge">
<title>Node1&#45;&gt;Node16</title>
<g id="a_edge37_Node000001_Node000016"><a xlink:title=" ">
<path fill="none" stroke="#63b8ff" d="M854.42,-387.16C877.46,-377.56 908.09,-364.8 928.16,-356.43"/>
<polygon fill="#63b8ff" stroke="#63b8ff" points="853.09,-383.92 845.2,-391 855.78,-390.38 853.09,-383.92"/>
</a>
</g>
</g>
<!-- Node3 -->
<g id="Node000003" class="node">
<title>Node3</title>
<g id="a_Node000003"><a xlink:href="core__binds_8h.html" target="_top" xlink:title="Provides python bindings for the core CoverageControl library using pybind11.">
<polygon fill="white" stroke="#666666" points="555.75,-73 484.25,-73 484.25,-54.5 555.75,-54.5 555.75,-73"/>
<text text-anchor="middle" x="520" y="-59.5" font-family="Helvetica,sans-Serif" font-size="10.00">core_binds.h</text>
</a>
</g>
</g>
<!-- Node2&#45;&gt;Node3 -->
<g id="edge2_Node000002_Node000003" class="edge">
<title>Node2&#45;&gt;Node3</title>
<g id="a_edge2_Node000002_Node000003"><a xlink:title=" ">
<path fill="none" stroke="#63b8ff" d="M877.92,-111.33C873.9,-110.49 869.88,-109.7 866,-109 753.65,-88.79 619.16,-74.35 556.05,-68.14"/>
<polygon fill="#63b8ff" stroke="#63b8ff" points="877.16,-114.74 887.68,-113.46 878.65,-107.91 877.16,-114.74"/>
</a>
</g>
</g>
<!-- Node5 -->
<g id="Node000005" class="node">
<title>Node5</title>
<g id="a_Node000005"><a xlink:href="coverage__algorithm_8cpp.html" target="_top" xlink:title="Program to test the CVT&#45;based (Lloyd&#39;s) coverage control algorithms.">
<polygon fill="white" stroke="#666666" points="1093.38,-73 974.62,-73 974.62,-54.5 1093.38,-54.5 1093.38,-73"/>
<text text-anchor="middle" x="1034" y="-59.5" font-family="Helvetica,sans-Serif" font-size="10.00">coverage_algorithm.cpp</text>
</a>
</g>
</g>
<!-- Node2&#45;&gt;Node5 -->
<g id="edge4_Node000002_Node000005" class="edge">
<title>Node2&#45;&gt;Node5</title>
<g id="a_edge4_Node000002_Node000005"><a xlink:title=" ">
<path fill="none" stroke="#63b8ff" d="M950.33,-108.68C971.14,-97.75 999.56,-82.83 1017.34,-73.5"/>
<polygon fill="#63b8ff" stroke="#63b8ff" points="948.8,-105.53 941.57,-113.28 952.05,-111.73 948.8,-105.53"/>
</a>
</g>
</g>
<!-- Node4 -->
<g id="Node000004" class="node">
<title>Node4</title>
<g id="a_Node000004"><a xlink:href="python__binds_8cpp.html" target="_top" xlink:title="Python bindings for the CoverageControl library using pybind11 (core_binds.h)">
<polygon fill="white" stroke="#666666" points="325.25,-18.5 232.75,-18.5 232.75,0 325.25,0 325.25,-18.5"/>
<text text-anchor="middle" x="279" y="-5" font-family="Helvetica,sans-Serif" font-size="10.00">python_binds.cpp</text>
</a>
</g>
</g>
<!-- Node3&#45;&gt;Node4 -->
<g id="edge3_Node000003_Node000004" class="edge">
<title>Node3&#45;&gt;Node4</title>
<g id="a_edge3_Node000003_Node000004"><a xlink:title=" ">
<path fill="none" stroke="#63b8ff" d="M472.73,-52.45C427.88,-42.68 361.21,-28.16 318.95,-18.95"/>
<polygon fill="#63b8ff" stroke="#63b8ff" points="471.93,-55.86 482.44,-54.57 473.42,-49.02 471.93,-55.86"/>
</a>
</g>
</g>
<!-- Node6&#45;&gt;Node2 -->
<g id="edge21_Node000006_Node000002" class="edge">
<title>Node6&#45;&gt;Node2</title>
<g id="a_edge21_Node000006_Node000002"><a xlink:title=" ">
<path fill="none" stroke="#63b8ff" d="M674.05,-223.99C732.03,-200.92 852.88,-152.81 902.27,-133.15"/>
<polygon fill="#63b8ff" stroke="#63b8ff" points="673.06,-220.62 665.07,-227.57 675.65,-227.12 673.06,-220.62"/>
</a>
</g>
</g>
<!-- Node6&#45;&gt;Node3 -->
<g id="edge22_Node000006_Node000003" class="edge">
<title>Node6&#45;&gt;Node3</title>
<g id="a_edge22_Node000006_Node000003"><a xlink:title=" ">
<path fill="none" stroke="#63b8ff" d="M580.75,-232.78C471.87,-224.2 252.34,-199.5 213,-138 206.05,-127.14 204.56,-118.74 213,-109 247.68,-68.96 410.39,-64.33 483.85,-64.33"/>
<polygon fill="#63b8ff" stroke="#63b8ff" points="580.45,-236.27 590.68,-233.54 580.98,-229.29 580.45,-236.27"/>
</a>
</g>
</g>
<!-- Node6&#45;&gt;Node4 -->
<g id="edge29_Node000006_Node000004" class="edge">
<title>Node6&#45;&gt;Node4</title>
<g id="a_edge29_Node000006_Node000004"><a xlink:title=" ">
<path fill="none" stroke="#63b8ff" d="M580.99,-237.44C441.85,-237.42 109.03,-227.83 57,-138 14.93,-65.37 155.58,-30.39 232.38,-17.03"/>
<polygon fill="#63b8ff" stroke="#63b8ff" points="580.75,-240.94 590.74,-237.42 580.74,-233.94 580.75,-240.94"/>
</a>
</g>
</g>
<!-- Node6&#45;&gt;Node5 -->
<g id="edge23_Node000006_Node000005" class="edge">
<title>Node6&#45;&gt;Node5</title>
<g id="a_edge23_Node000006_Node000005"><a xlink:title=" ">
<path fill="none" stroke="#63b8ff" d="M703.08,-230.19C774.17,-220.1 892.57,-195.52 977,-138 1002.3,-120.76 1021.44,-88.76 1029.63,-73.41"/>
<polygon fill="#63b8ff" stroke="#63b8ff" points="703.03,-226.66 693.59,-231.48 703.97,-233.6 703.03,-226.66"/>
</a>
</g>
</g>
<!-- Node7 -->
<g id="Node000007" class="node">
<title>Node7</title>
<g id="a_Node000007"><a xlink:href="abstract__controller_8h.html" target="_top" xlink:title="Contains the abstract class for coverage control algorithms.">
<polygon fill="white" stroke="#666666" points="486.25,-192.5 381.75,-192.5 381.75,-174 486.25,-174 486.25,-192.5"/>
<text text-anchor="middle" x="434" y="-179" font-family="Helvetica,sans-Serif" font-size="10.00">abstract_controller.h</text>
</a>
</g>
</g>
<!-- Node6&#45;&gt;Node7 -->
<g id="edge6_Node000006_Node000007" class="edge">
<title>Node6&#45;&gt;Node7</title>
<g id="a_edge6_Node000006_Node000007"><a xlink:title=" ">
<path fill="none" stroke="#63b8ff" d="M596.73,-225.32C558.14,-215.58 503.49,-201.79 468.4,-192.93"/>
<polygon fill="#63b8ff" stroke="#63b8ff" points="595.63,-228.66 606.19,-227.71 597.35,-221.87 595.63,-228.66"/>
</a>
</g>
</g>
<!-- Node8 -->
<g id="Node000008" class="node">
<title>Node8</title>
<g id="a_Node000008"><a xlink:href="centralized__cvt_8h.html" target="_top" xlink:title="Contains the class CentralizedCVT.">
<polygon fill="white" stroke="#666666" points="449.38,-132.75 360.62,-132.75 360.62,-114.25 449.38,-114.25 449.38,-132.75"/>
<text text-anchor="middle" x="405" y="-119.25" font-family="Helvetica,sans-Serif" font-size="10.00">centralized_cvt.h</text>
</a>
</g>
</g>
<!-- Node6&#45;&gt;Node8 -->
<g id="edge20_Node000006_Node000008" class="edge">
<title>Node6&#45;&gt;Node8</title>
<g id="a_edge20_Node000006_Node000008"><a xlink:title=" ">
<path fill="none" stroke="#63b8ff" d="M580.48,-235.52C509.47,-232.65 399.08,-223.22 373,-192.5 357.29,-174 381.3,-146.49 395.61,-132.82"/>
<polygon fill="#63b8ff" stroke="#63b8ff" points="580.32,-239.02 590.44,-235.89 580.57,-232.02 580.32,-239.02"/>
</a>
</g>
</g>
<!-- Node6&#45;&gt;Node9 -->
<g id="edge25_Node000006_Node000009" class="edge">
<title>Node6&#45;&gt;Node9</title>
<g id="a_edge25_Node000006_Node000009"><a xlink:title=" ">
<path fill="none" stroke="#63b8ff" d="M580.79,-236.18C471.79,-234.31 249.03,-226.32 180,-192.5 152.34,-178.95 130.48,-148.05 121.05,-133.03"/>
<polygon fill="#63b8ff" stroke="#63b8ff" points="580.67,-239.68 590.73,-236.34 580.78,-232.68 580.67,-239.68"/>
</a>
</g>
</g>
<!-- Node6&#45;&gt;Node10 -->
<g id="edge26_Node000006_Node000010" class="edge">
<title>Node6&#45;&gt;Node10</title>
<g id="a_edge26_Node000006_Node000010"><a xlink:title=" ">
<path fill="none" stroke="#63b8ff" d="M660.63,-221.03C689.14,-196.97 742.63,-151.82 764.89,-133.03"/>
<polygon fill="#63b8ff" stroke="#63b8ff" points="658.54,-218.21 653.15,-227.34 663.05,-223.56 658.54,-218.21"/>
</a>
</g>
</g>
<!-- Node11 -->
<g id="Node000011" class="node">
<title>Node11</title>
<g id="a_Node000011"><a xlink:href="oracle__bang__explore__exploit_8h.html" target="_top" xlink:title="First trial of oracle with exploration and exploitation. The oracle uses complete information about t...">
<polygon fill="white" stroke="#666666" points="572.62,-138 467.38,-138 467.38,-109 572.62,-109 572.62,-138"/>
<text text-anchor="start" x="475.38" y="-124.5" font-family="Helvetica,sans-Serif" font-size="10.00">oracle_bang_explore</text>
<text text-anchor="middle" x="520" y="-114" font-family="Helvetica,sans-Serif" font-size="10.00">_exploit.h</text>
</a>
</g>
</g>
<!-- Node6&#45;&gt;Node11 -->
<g id="edge27_Node000006_Node000011" class="edge">
<title>Node6&#45;&gt;Node11</title>
<g id="a_edge27_Node000006_Node000011"><a xlink:title=" ">
<path fill="none" stroke="#63b8ff" d="M640.19,-217.07C638.04,-203.59 633.33,-186.05 623,-174 608.93,-157.58 588.17,-146.17 568.96,-138.48"/>
<polygon fill="#63b8ff" stroke="#63b8ff" points="636.71,-217.42 641.39,-226.92 643.66,-216.57 636.71,-217.42"/>
</a>
</g>
</g>
<!-- Node12 -->
<g id="Node000012" class="node">
<title>Node12</title>
<g id="a_Node000012"><a xlink:href="oracle__explore__exploit_8h.html" target="_top" xlink:title="Old trial of exploration and exploitation Uses system map for exploration as well.">
<polygon fill="white" stroke="#666666" points="342.12,-132.75 221.88,-132.75 221.88,-114.25 342.12,-114.25 342.12,-132.75"/>
<text text-anchor="middle" x="282" y="-119.25" font-family="Helvetica,sans-Serif" font-size="10.00">oracle_explore_exploit.h</text>
</a>
</g>
</g>
<!-- Node6&#45;&gt;Node12 -->
<g id="edge28_Node000006_Node000012" class="edge">
<title>Node6&#45;&gt;Node12</title>
<g id="a_edge28_Node000006_Node000012"><a xlink:title=" ">
<path fill="none" stroke="#63b8ff" d="M580.83,-236.21C522.66,-233.62 433.91,-224.15 364,-192.5 331.99,-178.01 302.32,-147.57 289.16,-132.84"/>
<polygon fill="#63b8ff" stroke="#63b8ff" points="580.4,-239.7 590.52,-236.59 580.67,-232.7 580.4,-239.7"/>
</a>
</g>
</g>
<!-- Node6&#45;&gt;Node13 -->
<g id="edge30_Node000006_Node000013" class="edge">
<title>Node6&#45;&gt;Node13</title>
<g id="a_edge30_Node000006_Node000013"><a xlink:title=" ">
<path fill="none" stroke="#63b8ff" d="M649.52,-217.45C652.12,-209.81 654.71,-200.86 656,-192.5 659.3,-171.15 654.37,-145.79 651.24,-132.91"/>
<polygon fill="#63b8ff" stroke="#63b8ff" points="646.28,-216.11 646.12,-226.7 652.85,-218.52 646.28,-216.11"/>
</a>
</g>
</g>
<!-- Node14 -->
<g id="Node000014" class="node">
<title>Node14</title>
<g id="a_Node000014"><a xlink:href="coverage__system_8cpp.html" target="_top" xlink:title="Contains the implementation of the CoverageSystem class.">
<polygon fill="white" stroke="#666666" points="613.88,-192.5 504.12,-192.5 504.12,-174 613.88,-174 613.88,-192.5"/>
<text text-anchor="middle" x="559" y="-179" font-family="Helvetica,sans-Serif" font-size="10.00">coverage_system.cpp</text>
</a>
</g>
</g>
<!-- Node6&#45;&gt;Node14 -->
<g id="edge24_Node000006_Node000014" class="edge">
<title>Node6&#45;&gt;Node14</title>
<g id="a_edge24_Node000006_Node000014"><a xlink:title=" ">
<path fill="none" stroke="#63b8ff" d="M618.77,-222.06C603.95,-212.68 585.23,-200.84 572.73,-192.93"/>
<polygon fill="#63b8ff" stroke="#63b8ff" points="616.69,-224.88 627.02,-227.27 620.43,-218.97 616.69,-224.88"/>
</a>
</g>
</g>
<!-- Node7&#45;&gt;Node2 -->
<g id="edge9_Node000007_Node000002" class="edge">
<title>Node7&#45;&gt;Node2</title>
<g id="a_edge9_Node000007_Node000002"><a xlink:title=" ">
<path fill="none" stroke="#63b8ff" d="M497.95,-173.68C646.91,-155.92 686.8,-156.62 833,-138 848.05,-136.08 864.46,-133.73 879.15,-131.53"/>
<polygon fill="#63b8ff" stroke="#63b8ff" points="497.57,-170.2 488.06,-174.86 498.41,-177.15 497.57,-170.2"/>
</a>
</g>
</g>
<!-- Node7&#45;&gt;Node8 -->
<g id="edge7_Node000007_Node000008" class="edge">
<title>Node7&#45;&gt;Node8</title>
<g id="a_edge7_Node000007_Node000008"><a xlink:title=" ">
<path fill="none" stroke="#63b8ff" d="M424.66,-163.65C419.5,-153.37 413.33,-141.09 409.3,-133.06"/>
<polygon fill="#63b8ff" stroke="#63b8ff" points="421.43,-165.01 429.04,-172.38 427.68,-161.87 421.43,-165.01"/>
</a>
</g>
</g>
<!-- Node7&#45;&gt;Node9 -->
<g id="edge10_Node000007_Node000009" class="edge">
<title>Node7&#45;&gt;Node9</title>
<g id="a_edge10_Node000007_Node000009"><a xlink:title=" ">
<path fill="none" stroke="#63b8ff" d="M375.09,-171.55C314.29,-160.51 220.57,-143.49 164.08,-133.23"/>
<polygon fill="#63b8ff" stroke="#63b8ff" points="374.09,-174.93 384.56,-173.27 375.35,-168.04 374.09,-174.93"/>
</a>
</g>
</g>
<!-- Node7&#45;&gt;Node10 -->
<g id="edge12_Node000007_Node000010" class="edge">
<title>Node7&#45;&gt;Node10</title>
<g id="a_edge12_Node000007_Node000010"><a xlink:title=" ">
<path fill="none" stroke="#63b8ff" d="M497.81,-172.83C567.98,-162.37 676.19,-145.93 717,-138 724.31,-136.58 732.09,-134.89 739.51,-133.2"/>
<polygon fill="#63b8ff" stroke="#63b8ff" points="497.34,-169.36 487.96,-174.3 498.37,-176.29 497.34,-169.36"/>
</a>
</g>
</g>
<!-- Node7&#45;&gt;Node11 -->
<g id="edge14_Node000007_Node000011" class="edge">
<title>Node7&#45;&gt;Node11</title>
<g id="a_edge14_Node000007_Node000011"><a xlink:title=" ">
<path fill="none" stroke="#63b8ff" d="M456.05,-167.44C469.35,-158.51 486.19,-147.2 499.25,-138.43"/>
<polygon fill="#63b8ff" stroke="#63b8ff" points="454.3,-164.4 447.95,-172.89 458.2,-170.22 454.3,-164.4"/>
</a>
</g>
</g>
<!-- Node7&#45;&gt;Node12 -->
<g id="edge16_Node000007_Node000012" class="edge">
<title>Node7&#45;&gt;Node12</title>
<g id="a_edge16_Node000007_Node000012"><a xlink:title=" ">
<path fill="none" stroke="#63b8ff" d="M400.78,-169.63C371.76,-158.6 330.39,-142.88 304.91,-133.2"/>
<polygon fill="#63b8ff" stroke="#63b8ff" points="399.24,-172.79 409.83,-173.07 401.72,-166.24 399.24,-172.79"/>
</a>
</g>
</g>
<!-- Node7&#45;&gt;Node13 -->
<g id="edge18_Node000007_Node000013" class="edge">
<title>Node7&#45;&gt;Node13</title>
<g id="a_edge18_Node000007_Node000013"><a xlink:title=" ">
<path fill="none" stroke="#63b8ff" d="M477.24,-170.64C518.41,-159.58 579.45,-143.18 616.59,-133.2"/>
<polygon fill="#63b8ff" stroke="#63b8ff" points="476.4,-167.24 467.65,-173.21 478.22,-174 476.4,-167.24"/>
</a>
</g>
</g>
<!-- Node8&#45;&gt;Node3 -->
<g id="edge8_Node000008_Node000003" class="edge">
<title>Node8&#45;&gt;Node3</title>
<g id="a_edge8_Node000008_Node000003"><a xlink:title=" ">
<path fill="none" stroke="#63b8ff" d="M432.22,-108.83C454.01,-97.89 483.91,-82.87 502.58,-73.5"/>
<polygon fill="#63b8ff" stroke="#63b8ff" points="430.69,-105.68 423.32,-113.3 433.83,-111.94 430.69,-105.68"/>
</a>
</g>
</g>
<!-- Node9&#45;&gt;Node3 -->
<g id="edge11_Node000009_Node000003" class="edge">
<title>Node9&#45;&gt;Node3</title>
<g id="a_edge11_Node000009_Node000003"><a xlink:title=" ">
<path fill="none" stroke="#63b8ff" d="M165.87,-111.59C170.63,-110.66 175.4,-109.78 180,-109 290.17,-90.24 421.62,-75.2 483.88,-68.51"/>
<polygon fill="#63b8ff" stroke="#63b8ff" points="165.43,-108.1 156.31,-113.5 166.81,-114.97 165.43,-108.1"/>
</a>
</g>
</g>
<!-- Node10&#45;&gt;Node3 -->
<g id="edge13_Node000010_Node000003" class="edge">
<title>Node10&#45;&gt;Node3</title>
<g id="a_edge13_Node000010_Node000003"><a xlink:title=" ">
<path fill="none" stroke="#63b8ff" d="M726.71,-111.23C723.43,-110.47 720.17,-109.72 717,-109 660.79,-96.15 595.47,-81.54 555.97,-72.74"/>
<polygon fill="#63b8ff" stroke="#63b8ff" points="725.87,-114.63 736.41,-113.47 727.45,-107.81 725.87,-114.63"/>
</a>
</g>
</g>
<!-- Node11&#45;&gt;Node3 -->
<g id="edge15_Node000011_Node000003" class="edge">
<title>Node11&#45;&gt;Node3</title>
<g id="a_edge15_Node000011_Node000003"><a xlink:title=" ">
<path fill="none" stroke="#63b8ff" d="M520,-97.1C520,-88.61 520,-79.71 520,-73.4"/>
<polygon fill="#63b8ff" stroke="#63b8ff" points="516.5,-97.01 520,-107.01 523.5,-97.01 516.5,-97.01"/>
</a>
</g>
</g>
<!-- Node12&#45;&gt;Node3 -->
<g id="edge17_Node000012_Node000003" class="edge">
<title>Node12&#45;&gt;Node3</title>
<g id="a_edge17_Node000012_Node000003"><a xlink:title=" ">
<path fill="none" stroke="#63b8ff" d="M328.97,-111.1C374.58,-100.04 442.83,-83.47 484.21,-73.43"/>
<polygon fill="#63b8ff" stroke="#63b8ff" points="328.25,-107.68 319.36,-113.43 329.9,-114.48 328.25,-107.68"/>
</a>
</g>
</g>
<!-- Node13&#45;&gt;Node3 -->
<g id="edge19_Node000013_Node000003" class="edge">
<title>Node13&#45;&gt;Node3</title>
<g id="a_edge19_Node000013_Node000003"><a xlink:title=" ">
<path fill="none" stroke="#63b8ff" d="M619.5,-109.29C594.94,-98.3 560.68,-82.96 539.44,-73.45"/>
<polygon fill="#63b8ff" stroke="#63b8ff" points="617.75,-112.34 628.31,-113.24 620.61,-105.96 617.75,-112.34"/>
</a>
</g>
</g>
<!-- Node15&#45;&gt;Node3 -->
<g id="edge34_Node000015_Node000003" class="edge">
<title>Node15&#45;&gt;Node3</title>
<g id="a_edge34_Node000015_Node000003"><a xlink:title=" ">
<path fill="none" stroke="#63b8ff" d="M831.57,-272.53C846.78,-236.15 873.31,-155.41 833,-109 797.46,-68.08 630.46,-63.96 556,-64.22"/>
<polygon fill="#63b8ff" stroke="#63b8ff" points="828.53,-270.73 827.73,-281.29 834.95,-273.54 828.53,-270.73"/>
</a>
</g>
</g>
<!-- Node15&#45;&gt;Node6 -->
<g id="edge35_Node000015_Node000006" class="edge">
<title>Node15&#45;&gt;Node6</title>
<g id="a_edge35_Node000015_Node000006"><a xlink:title=" ">
<path fill="none" stroke="#63b8ff" d="M782.3,-279.44C748.8,-269.73 702.08,-256.18 671.93,-247.43"/>
<polygon fill="#63b8ff" stroke="#63b8ff" points="781.08,-282.73 791.66,-282.16 783.03,-276.01 781.08,-282.73"/>
</a>
</g>
</g>
<!-- Node16&#45;&gt;Node3 -->
<g id="edge38_Node000016_Node000003" class="edge">
<title>Node16&#45;&gt;Node3</title>
<g id="a_edge38_Node000016_Node000003"><a xlink:title=" ">
<path fill="none" stroke="#63b8ff" d="M962.33,-327.88C976.22,-307.45 996,-272.44 996,-238.75 996,-238.75 996,-238.75 996,-182.25 996,-148.62 1002.58,-130.84 977,-109 945.21,-81.86 658.73,-69.49 556.25,-65.9"/>
<polygon fill="#63b8ff" stroke="#63b8ff" points="959.55,-325.75 956.61,-335.93 965.26,-329.8 959.55,-325.75"/>
</a>
</g>
</g>
<!-- Node16&#45;&gt;Node5 -->
<g id="edge39_Node000016_Node000005" class="edge">
<title>Node16&#45;&gt;Node5</title>
<g id="a_edge39_Node000016_Node000005"><a xlink:title=" ">
<path fill="none" stroke="#63b8ff" d="M984.15,-332.69C1020.5,-316.64 1072,-285.63 1072,-238.75 1072,-238.75 1072,-238.75 1072,-182.25 1072,-139.59 1049.04,-92.25 1038.81,-73.29"/>
<polygon fill="#63b8ff" stroke="#63b8ff" points="983.15,-329.32 975.29,-336.42 985.86,-335.77 983.15,-329.32"/>
</a>
</g>
</g>
<!-- Node16&#45;&gt;Node6 -->
<g id="edge40_Node000016_Node000006" class="edge">
<title>Node16&#45;&gt;Node6</title>
<g id="a_edge40_Node000016_Node000006"><a xlink:title=" ">
<path fill="none" stroke="#63b8ff" d="M933.29,-329.17C918.59,-314.69 895.29,-294.26 871,-283 813.14,-256.17 739.8,-245.61 691.92,-241.45"/>
<polygon fill="#63b8ff" stroke="#63b8ff" points="930.7,-331.53 940.21,-336.21 935.7,-326.63 930.7,-331.53"/>
</a>
</g>
</g>
<!-- Node16&#45;&gt;Node15 -->
<g id="edge41_Node000016_Node000015" class="edge">
<title>Node16&#45;&gt;Node15</title>
<g id="a_edge41_Node000016_Node000015"><a xlink:title=" ">
<path fill="none" stroke="#63b8ff" d="M917.58,-332.66C894.54,-323.06 863.91,-310.3 843.84,-301.93"/>
<polygon fill="#63b8ff" stroke="#63b8ff" points="916.22,-335.88 926.8,-336.5 918.91,-329.42 916.22,-335.88"/>
</a>
</g>
</g>
</g>
</svg>
