<?xml version="1.0" encoding="UTF-8" standalone="no"?>
<!DOCTYPE svg PUBLIC "-//W3C//DTD SVG 1.1//EN"
 "http://www.w3.org/Graphics/SVG/1.1/DTD/svg11.dtd">
<!-- Generated by graphviz version 12.1.2 (0)
 -->
<!-- Title: map_utils.h Pages: 1 -->
<svg width="416pt" height="136pt"
 viewBox="0.00 0.00 415.62 135.50" xmlns="http://www.w3.org/2000/svg" xmlns:xlink="http://www.w3.org/1999/xlink">
<g id="graph0" class="graph" transform="scale(1 1) rotate(0) translate(4 131.5)">
<title>map_utils.h</title>
<!-- Node1 -->
<g id="Node000001" class="node">
<title>Node1</title>
<g id="a_Node000001"><a xlink:title="Utility functions for transforming maps.">
<polygon fill="#999999" stroke="#666666" points="187.62,-127.5 121.38,-127.5 121.38,-109 187.62,-109 187.62,-127.5"/>
<text text-anchor="middle" x="154.5" y="-114" font-family="Helvetica,sans-Serif" font-size="10.00">map_utils.h</text>
</a>
</g>
</g>
<!-- Node2 -->
<g id="Node000002" class="node">
<title>Node2</title>
<g id="a_Node000002"><a xlink:title=" ">
<polygon fill="#e0e0e0" stroke="#999999" points="43,-73 0,-73 0,-54.5 43,-54.5 43,-73"/>
<text text-anchor="middle" x="21.5" y="-59.5" font-family="Helvetica,sans-Serif" font-size="10.00">cmath</text>
</a>
</g>
</g>
<!-- Node1&#45;&gt;Node2 -->
<g id="edge1_Node000001_Node000002" class="edge">
<title>Node1&#45;&gt;Node2</title>
<g id="a_edge1_Node000001_Node000002"><a xlink:title=" ">
<path fill="none" stroke="#63b8ff" d="M132.54,-108.58C111.17,-100.15 78.44,-87.23 54.05,-77.6"/>
<polygon fill="#63b8ff" stroke="#63b8ff" points="55.49,-74.4 44.9,-73.99 52.92,-80.92 55.49,-74.4"/>
</a>
</g>
</g>
<!-- Node3 -->
<g id="Node000003" class="node">
<title>Node3</title>
<g id="a_Node000003"><a xlink:title=" ">
<polygon fill="#e0e0e0" stroke="#999999" points="110,-73 61,-73 61,-54.5 110,-54.5 110,-73"/>
<text text-anchor="middle" x="85.5" y="-59.5" font-family="Helvetica,sans-Serif" font-size="10.00">fstream</text>
</a>
</g>
</g>
<!-- Node1&#45;&gt;Node3 -->
<g id="edge2_Node000001_Node000003" class="edge">
<title>Node1&#45;&gt;Node3</title>
<g id="a_edge2_Node000001_Node000003"><a xlink:title=" ">
<path fill="none" stroke="#63b8ff" d="M143.11,-108.58C132.96,-100.86 117.87,-89.38 105.69,-80.11"/>
<polygon fill="#63b8ff" stroke="#63b8ff" points="107.96,-77.44 97.89,-74.17 103.73,-83.02 107.96,-77.44"/>
</a>
</g>
</g>
<!-- Node4 -->
<g id="Node000004" class="node">
<title>Node4</title>
<g id="a_Node000004"><a xlink:title=" ">
<polygon fill="#e0e0e0" stroke="#999999" points="181.25,-73 127.75,-73 127.75,-54.5 181.25,-54.5 181.25,-73"/>
<text text-anchor="middle" x="154.5" y="-59.5" font-family="Helvetica,sans-Serif" font-size="10.00">iostream</text>
</a>
</g>
</g>
<!-- Node1&#45;&gt;Node4 -->
<g id="edge3_Node000001_Node000004" class="edge">
<title>Node1&#45;&gt;Node4</title>
<g id="a_edge3_Node000001_Node000004"><a xlink:title=" ">
<path fill="none" stroke="#63b8ff" d="M154.5,-108.58C154.5,-102.08 154.5,-92.92 154.5,-84.66"/>
<polygon fill="#63b8ff" stroke="#63b8ff" points="158,-84.77 154.5,-74.77 151,-84.77 158,-84.77"/>
</a>
</g>
</g>
<!-- Node5 -->
<g id="Node000005" class="node">
<title>Node5</title>
<g id="a_Node000005"><a xlink:title=" ">
<polygon fill="#e0e0e0" stroke="#999999" points="239.5,-73 199.5,-73 199.5,-54.5 239.5,-54.5 239.5,-73"/>
<text text-anchor="middle" x="219.5" y="-59.5" font-family="Helvetica,sans-Serif" font-size="10.00">string</text>
</a>
</g>
</g>
<!-- Node1&#45;&gt;Node5 -->
<g id="edge4_Node000001_Node000005" class="edge">
<title>Node1&#45;&gt;Node5</title>
<g id="a_edge4_Node000001_Node000005"><a xlink:title=" ">
<path fill="none" stroke="#63b8ff" d="M165.23,-108.58C174.7,-100.94 188.72,-89.61 200.14,-80.38"/>
<polygon fill="#63b8ff" stroke="#63b8ff" points="202.21,-83.22 207.79,-74.21 197.81,-77.77 202.21,-83.22"/>
</a>
</g>
</g>
<!-- Node6 -->
<g id="Node000006" class="node">
<title>Node6</title>
<g id="a_Node000006"><a xlink:href="typedefs_8h.html" target="_top" xlink:title="Contains typedefs for the library.">
<polygon fill="white" stroke="#666666" points="395.25,-73 257.75,-73 257.75,-54.5 395.25,-54.5 395.25,-73"/>
<text text-anchor="middle" x="326.5" y="-59.5" font-family="Helvetica,sans-Serif" font-size="10.00">CoverageControl/typedefs.h</text>
</a>
</g>
</g>
<!-- Node1&#45;&gt;Node6 -->
<g id="edge5_Node000001_Node000006" class="edge">
<title>Node1&#45;&gt;Node6</title>
<g id="a_edge5_Node000001_Node000006"><a xlink:title=" ">
<path fill="none" stroke="#63b8ff" d="M182.9,-108.58C211.41,-99.88 255.54,-86.41 287.36,-76.7"/>
<polygon fill="#63b8ff" stroke="#63b8ff" points="288.07,-80.14 296.61,-73.87 286.02,-73.45 288.07,-80.14"/>
</a>
</g>
</g>
<!-- Node7 -->
<g id="Node000007" class="node">
<title>Node7</title>
<g id="a_Node000007"><a xlink:title=" ">
<polygon fill="#e0e0e0" stroke="#999999" points="287.62,-18.5 215.38,-18.5 215.38,0 287.62,0 287.62,-18.5"/>
<text text-anchor="middle" x="251.5" y="-5" font-family="Helvetica,sans-Serif" font-size="10.00">Eigen/Dense</text>
</a>
</g>
</g>
<!-- Node6&#45;&gt;Node7 -->
<g id="edge6_Node000006_Node000007" class="edge">
<title>Node6&#45;&gt;Node7</title>
<g id="a_edge6_Node000006_Node000007"><a xlink:title=" ">
<path fill="none" stroke="#63b8ff" d="M314.12,-54.08C303.04,-46.33 286.56,-34.79 273.29,-25.5"/>
<polygon fill="#63b8ff" stroke="#63b8ff" points="275.34,-22.67 265.14,-19.8 271.33,-28.4 275.34,-22.67"/>
</a>
</g>
</g>
<!-- Node8 -->
<g id="Node000008" class="node">
<title>Node8</title>
<g id="a_Node000008"><a xlink:title=" ">
<polygon fill="#e0e0e0" stroke="#999999" points="347.62,-18.5 305.38,-18.5 305.38,0 347.62,0 347.62,-18.5"/>
<text text-anchor="middle" x="326.5" y="-5" font-family="Helvetica,sans-Serif" font-size="10.00">queue</text>
</a>
</g>
</g>
<!-- Node6&#45;&gt;Node8 -->
<g id="edge7_Node000006_Node000008" class="edge">
<title>Node6&#45;&gt;Node8</title>
<g id="a_edge7_Node000006_Node000008"><a xlink:title=" ">
<path fill="none" stroke="#63b8ff" d="M326.5,-54.08C326.5,-47.58 326.5,-38.42 326.5,-30.16"/>
<polygon fill="#63b8ff" stroke="#63b8ff" points="330,-30.27 326.5,-20.27 323,-30.27 330,-30.27"/>
</a>
</g>
</g>
<!-- Node9 -->
<g id="Node000009" class="node">
<title>Node9</title>
<g id="a_Node000009"><a xlink:title=" ">
<polygon fill="#e0e0e0" stroke="#999999" points="407.62,-18.5 365.38,-18.5 365.38,0 407.62,0 407.62,-18.5"/>
<text text-anchor="middle" x="386.5" y="-5" font-family="Helvetica,sans-Serif" font-size="10.00">vector</text>
</a>
</g>
</g>
<!-- Node6&#45;&gt;Node9 -->
<g id="edge8_Node000006_Node000009" class="edge">
<title>Node6&#45;&gt;Node9</title>
<g id="a_edge8_Node000006_Node000009"><a xlink:title=" ">
<path fill="none" stroke="#63b8ff" d="M336.41,-54.08C345.06,-46.51 357.83,-35.33 368.31,-26.16"/>
<polygon fill="#63b8ff" stroke="#63b8ff" points="370.42,-28.97 375.64,-19.75 365.81,-23.71 370.42,-28.97"/>
</a>
</g>
</g>
</g>
</svg>
