<?xml version="1.0" encoding="UTF-8" standalone="no"?>
<!DOCTYPE svg PUBLIC "-//W3C//DTD SVG 1.1//EN"
 "http://www.w3.org/Graphics/SVG/1.1/DTD/svg11.dtd">
<!-- Generated by graphviz version 10.0.1 (0)
 -->
<!-- Title: near_optimal_cvt_algorithm.h Pages: 1 -->
<svg width="822pt" height="146pt"
 viewBox="0.00 0.00 821.88 146.00" xmlns="http://www.w3.org/2000/svg" xmlns:xlink="http://www.w3.org/1999/xlink">
<g id="graph0" class="graph" transform="scale(1 1) rotate(0) translate(4 142)">
<title>near_optimal_cvt_algorithm.h</title>
<!-- Node1 -->
<g id="Node000001" class="node">
<title>Node1</title>
<g id="a_Node000001"><a xlink:title="Near Optimal Centroidal Voronoi Tessellation (CVT) algorithm Near&#45;optimal Centroidal Voronoi Tessella...">
<polygon fill="#999999" stroke="#666666" points="424.25,-138 280.75,-138 280.75,-119.5 424.25,-119.5 424.25,-138"/>
<text text-anchor="middle" x="352.5" y="-124.5" font-family="Helvetica,sans-Serif" font-size="10.00">near_optimal_cvt_algorithm.h</text>
</a>
</g>
</g>
<!-- Node2 -->
<g id="Node000002" class="node">
<title>Node2</title>
<g id="a_Node000002"><a xlink:title=" ">
<polygon fill="#e0e0e0" stroke="#999999" points="43,-78.25 0,-78.25 0,-59.75 43,-59.75 43,-78.25"/>
<text text-anchor="middle" x="21.5" y="-64.75" font-family="Helvetica,sans-Serif" font-size="10.00">omp.h</text>
</a>
</g>
</g>
<!-- Node1&#45;&gt;Node2 -->
<g id="edge1_Node000001_Node000002" class="edge">
<title>Node1&#45;&gt;Node2</title>
<g id="a_edge1_Node000001_Node000002"><a xlink:title=" ">
<path fill="none" stroke="#63b8ff" d="M280.46,-122.79C218.72,-117.22 127.93,-105.84 51.5,-83.5 50.7,-83.27 49.89,-83.01 49.08,-82.75"/>
<polygon fill="#63b8ff" stroke="#63b8ff" points="50.64,-79.6 40.05,-79.24 48.1,-86.12 50.64,-79.6"/>
</a>
</g>
</g>
<!-- Node3 -->
<g id="Node000003" class="node">
<title>Node3</title>
<g id="a_Node000003"><a xlink:title=" ">
<polygon fill="#e0e0e0" stroke="#999999" points="104,-78.25 61,-78.25 61,-59.75 104,-59.75 104,-78.25"/>
<text text-anchor="middle" x="82.5" y="-64.75" font-family="Helvetica,sans-Serif" font-size="10.00">time.h</text>
</a>
</g>
</g>
<!-- Node1&#45;&gt;Node3 -->
<g id="edge2_Node000001_Node000003" class="edge">
<title>Node1&#45;&gt;Node3</title>
<g id="a_edge2_Node000001_Node000003"><a xlink:title=" ">
<path fill="none" stroke="#63b8ff" d="M290.74,-119.04C243.17,-111.62 176.03,-99.6 118.5,-83.5 117.31,-83.17 116.11,-82.81 114.89,-82.44"/>
<polygon fill="#63b8ff" stroke="#63b8ff" points="116.03,-79.13 105.44,-79.24 113.78,-85.76 116.03,-79.13"/>
</a>
</g>
</g>
<!-- Node4 -->
<g id="Node000004" class="node">
<title>Node4</title>
<g id="a_Node000004"><a xlink:title=" ">
<polygon fill="#e0e0e0" stroke="#999999" points="179.62,-18.5 107.38,-18.5 107.38,0 179.62,0 179.62,-18.5"/>
<text text-anchor="middle" x="143.5" y="-5" font-family="Helvetica,sans-Serif" font-size="10.00">Eigen/Dense</text>
</a>
</g>
</g>
<!-- Node1&#45;&gt;Node4 -->
<g id="edge3_Node000001_Node000004" class="edge">
<title>Node1&#45;&gt;Node4</title>
<g id="a_edge3_Node000001_Node000004"><a xlink:title=" ">
<path fill="none" stroke="#63b8ff" d="M280.35,-120.71C229.92,-114.21 168.65,-102.61 151.5,-83.5 138.56,-69.09 138.13,-46.1 139.94,-29.72"/>
<polygon fill="#63b8ff" stroke="#63b8ff" points="143.34,-30.64 141.36,-20.24 136.41,-29.61 143.34,-30.64"/>
</a>
</g>
</g>
<!-- Node5 -->
<g id="Node000005" class="node">
<title>Node5</title>
<g id="a_Node000005"><a xlink:title=" ">
<polygon fill="#e0e0e0" stroke="#999999" points="404,-78.25 355,-78.25 355,-59.75 404,-59.75 404,-78.25"/>
<text text-anchor="middle" x="379.5" y="-64.75" font-family="Helvetica,sans-Serif" font-size="10.00">fstream</text>
</a>
</g>
</g>
<!-- Node1&#45;&gt;Node5 -->
<g id="edge4_Node000001_Node000005" class="edge">
<title>Node1&#45;&gt;Node5</title>
<g id="a_edge4_Node000001_Node000005"><a xlink:title=" ">
<path fill="none" stroke="#63b8ff" d="M356.48,-119.23C360.19,-111.3 365.85,-99.19 370.63,-88.97"/>
<polygon fill="#63b8ff" stroke="#63b8ff" points="373.79,-90.47 374.86,-79.93 367.45,-87.5 373.79,-90.47"/>
</a>
</g>
</g>
<!-- Node6 -->
<g id="Node000006" class="node">
<title>Node6</title>
<g id="a_Node000006"><a xlink:title=" ">
<polygon fill="#e0e0e0" stroke="#999999" points="459.25,-18.5 405.75,-18.5 405.75,0 459.25,0 459.25,-18.5"/>
<text text-anchor="middle" x="432.5" y="-5" font-family="Helvetica,sans-Serif" font-size="10.00">iostream</text>
</a>
</g>
</g>
<!-- Node1&#45;&gt;Node6 -->
<g id="edge5_Node000001_Node000006" class="edge">
<title>Node1&#45;&gt;Node6</title>
<g id="a_edge5_Node000001_Node000006"><a xlink:title=" ">
<path fill="none" stroke="#63b8ff" d="M370.02,-119.05C383.56,-111.45 401.74,-99.19 412.5,-83.5 423.56,-67.37 428.52,-45.34 430.73,-29.66"/>
<polygon fill="#63b8ff" stroke="#63b8ff" points="434.15,-30.52 431.81,-20.19 427.2,-29.73 434.15,-30.52"/>
</a>
</g>
</g>
<!-- Node7 -->
<g id="Node000007" class="node">
<title>Node7</title>
<g id="a_Node000007"><a xlink:title=" ">
<polygon fill="#e0e0e0" stroke="#999999" points="676.62,-78.25 628.38,-78.25 628.38,-59.75 676.62,-59.75 676.62,-78.25"/>
<text text-anchor="middle" x="652.5" y="-64.75" font-family="Helvetica,sans-Serif" font-size="10.00">random</text>
</a>
</g>
</g>
<!-- Node1&#45;&gt;Node7 -->
<g id="edge6_Node000001_Node000007" class="edge">
<title>Node1&#45;&gt;Node7</title>
<g id="a_edge6_Node000001_Node000007"><a xlink:title=" ">
<path fill="none" stroke="#63b8ff" d="M424.57,-120.24C478.86,-113.53 554.74,-101.86 619.5,-83.5 620.49,-83.22 621.49,-82.92 622.5,-82.6"/>
<polygon fill="#63b8ff" stroke="#63b8ff" points="623.57,-85.93 631.79,-79.25 621.19,-79.35 623.57,-85.93"/>
</a>
</g>
</g>
<!-- Node8 -->
<g id="Node000008" class="node">
<title>Node8</title>
<g id="a_Node000008"><a xlink:title=" ">
<polygon fill="#e0e0e0" stroke="#999999" points="329.62,-18.5 287.38,-18.5 287.38,0 329.62,0 329.62,-18.5"/>
<text text-anchor="middle" x="308.5" y="-5" font-family="Helvetica,sans-Serif" font-size="10.00">vector</text>
</a>
</g>
</g>
<!-- Node1&#45;&gt;Node8 -->
<g id="edge7_Node000001_Node000008" class="edge">
<title>Node1&#45;&gt;Node8</title>
<g id="a_edge7_Node000001_Node000008"><a xlink:title=" ">
<path fill="none" stroke="#63b8ff" d="M349.34,-119.3C342.36,-100.67 325.51,-55.69 315.78,-29.69"/>
<polygon fill="#63b8ff" stroke="#63b8ff" points="319.07,-28.5 312.29,-20.36 312.51,-30.95 319.07,-28.5"/>
</a>
</g>
</g>
<!-- Node9 -->
<g id="Node000009" class="node">
<title>Node9</title>
<g id="a_Node000009"><a xlink:title=" ">
<polygon fill="#e0e0e0" stroke="#999999" points="813.88,-83.5 695.12,-83.5 695.12,-54.5 813.88,-54.5 813.88,-83.5"/>
<text text-anchor="start" x="703.12" y="-70" font-family="Helvetica,sans-Serif" font-size="10.00">CoverageControl/extern</text>
<text text-anchor="middle" x="754.5" y="-59.5" font-family="Helvetica,sans-Serif" font-size="10.00">/lsap/Hungarian.h</text>
</a>
</g>
</g>
<!-- Node1&#45;&gt;Node9 -->
<g id="edge8_Node000001_Node000009" class="edge">
<title>Node1&#45;&gt;Node9</title>
<g id="a_edge8_Node000001_Node000009"><a xlink:title=" ">
<path fill="none" stroke="#63b8ff" d="M424.47,-119.47C489.46,-111.71 588.01,-99.21 683.39,-83.78"/>
<polygon fill="#63b8ff" stroke="#63b8ff" points="683.9,-87.24 693.21,-82.18 682.77,-80.33 683.9,-87.24"/>
</a>
</g>
</g>
<!-- Node10 -->
<g id="Node000010" class="node">
<title>Node10</title>
<g id="a_Node000010"><a xlink:href="parameters_8h.html" target="_top" xlink:title="Contains parameters.">
<polygon fill="white" stroke="#666666" points="610.25,-78.25 460.75,-78.25 460.75,-59.75 610.25,-59.75 610.25,-78.25"/>
<text text-anchor="middle" x="535.5" y="-64.75" font-family="Helvetica,sans-Serif" font-size="10.00">CoverageControl/parameters.h</text>
</a>
</g>
</g>
<!-- Node1&#45;&gt;Node10 -->
<g id="edge9_Node000001_Node000010" class="edge">
<title>Node1&#45;&gt;Node10</title>
<g id="a_edge9_Node000001_Node000010"><a xlink:title=" ">
<path fill="none" stroke="#63b8ff" d="M379.9,-119.1C411.03,-109.28 462.05,-93.18 497.13,-82.11"/>
<polygon fill="#63b8ff" stroke="#63b8ff" points="497.99,-85.51 506.47,-79.16 495.88,-78.83 497.99,-85.51"/>
</a>
</g>
</g>
<!-- Node14 -->
<g id="Node000014" class="node">
<title>Node14</title>
<g id="a_Node000014"><a xlink:href="typedefs_8h.html" target="_top" xlink:title="Contains typedefs for the library.">
<polygon fill="white" stroke="#666666" points="298.25,-78.25 160.75,-78.25 160.75,-59.75 298.25,-59.75 298.25,-78.25"/>
<text text-anchor="middle" x="229.5" y="-64.75" font-family="Helvetica,sans-Serif" font-size="10.00">CoverageControl/typedefs.h</text>
</a>
</g>
</g>
<!-- Node1&#45;&gt;Node14 -->
<g id="edge14_Node000001_Node000014" class="edge">
<title>Node1&#45;&gt;Node14</title>
<g id="a_edge14_Node000001_Node000014"><a xlink:title=" ">
<path fill="none" stroke="#63b8ff" d="M334.09,-119.1C314.07,-109.71 281.81,-94.56 258.41,-83.57"/>
<polygon fill="#63b8ff" stroke="#63b8ff" points="259.95,-80.43 249.41,-79.35 256.97,-86.77 259.95,-80.43"/>
</a>
</g>
</g>
<!-- Node10&#45;&gt;Node6 -->
<g id="edge12_Node000010_Node000006" class="edge">
<title>Node10&#45;&gt;Node6</title>
<g id="a_edge12_Node000010_Node000006"><a xlink:title=" ">
<path fill="none" stroke="#63b8ff" d="M520.3,-59.48C503.89,-50.28 477.47,-35.46 457.89,-24.49"/>
<polygon fill="#63b8ff" stroke="#63b8ff" points="459.85,-21.57 449.42,-19.74 456.43,-27.68 459.85,-21.57"/>
</a>
</g>
</g>
<!-- Node11 -->
<g id="Node000011" class="node">
<title>Node11</title>
<g id="a_Node000011"><a xlink:title=" ">
<polygon fill="#e0e0e0" stroke="#999999" points="520,-18.5 477,-18.5 477,0 520,0 520,-18.5"/>
<text text-anchor="middle" x="498.5" y="-5" font-family="Helvetica,sans-Serif" font-size="10.00">cmath</text>
</a>
</g>
</g>
<!-- Node10&#45;&gt;Node11 -->
<g id="edge10_Node000010_Node000011" class="edge">
<title>Node10&#45;&gt;Node11</title>
<g id="a_edge10_Node000010_Node000011"><a xlink:title=" ">
<path fill="none" stroke="#63b8ff" d="M530.04,-59.48C524.79,-51.29 516.7,-38.66 510.03,-28.24"/>
<polygon fill="#63b8ff" stroke="#63b8ff" points="513.14,-26.61 504.8,-20.08 507.25,-30.39 513.14,-26.61"/>
</a>
</g>
</g>
<!-- Node12 -->
<g id="Node000012" class="node">
<title>Node12</title>
<g id="a_Node000012"><a xlink:title=" ">
<polygon fill="#e0e0e0" stroke="#999999" points="597.25,-18.5 537.75,-18.5 537.75,0 597.25,0 597.25,-18.5"/>
<text text-anchor="middle" x="567.5" y="-5" font-family="Helvetica,sans-Serif" font-size="10.00">filesystem</text>
</a>
</g>
</g>
<!-- Node10&#45;&gt;Node12 -->
<g id="edge11_Node000010_Node000012" class="edge">
<title>Node10&#45;&gt;Node12</title>
<g id="a_edge11_Node000010_Node000012"><a xlink:title=" ">
<path fill="none" stroke="#63b8ff" d="M540.22,-59.48C544.71,-51.38 551.61,-38.92 557.35,-28.57"/>
<polygon fill="#63b8ff" stroke="#63b8ff" points="560.24,-30.57 562.03,-20.13 554.12,-27.18 560.24,-30.57"/>
</a>
</g>
</g>
<!-- Node13 -->
<g id="Node000013" class="node">
<title>Node13</title>
<g id="a_Node000013"><a xlink:title=" ">
<polygon fill="#e0e0e0" stroke="#999999" points="655.5,-18.5 615.5,-18.5 615.5,0 655.5,0 655.5,-18.5"/>
<text text-anchor="middle" x="635.5" y="-5" font-family="Helvetica,sans-Serif" font-size="10.00">string</text>
</a>
</g>
</g>
<!-- Node10&#45;&gt;Node13 -->
<g id="edge13_Node000010_Node000013" class="edge">
<title>Node10&#45;&gt;Node13</title>
<g id="a_edge13_Node000010_Node000013"><a xlink:title=" ">
<path fill="none" stroke="#63b8ff" d="M550.26,-59.48C566.12,-50.32 591.6,-35.6 610.58,-24.64"/>
<polygon fill="#63b8ff" stroke="#63b8ff" points="612.14,-27.78 619.05,-19.75 608.64,-21.72 612.14,-27.78"/>
</a>
</g>
</g>
<!-- Node14&#45;&gt;Node4 -->
<g id="edge15_Node000014_Node000004" class="edge">
<title>Node14&#45;&gt;Node4</title>
<g id="a_edge15_Node000014_Node000004"><a xlink:title=" ">
<path fill="none" stroke="#63b8ff" d="M216.81,-59.48C203.42,-50.49 182.06,-36.14 165.84,-25.25"/>
<polygon fill="#63b8ff" stroke="#63b8ff" points="168.03,-22.51 157.78,-19.84 164.13,-28.32 168.03,-22.51"/>
</a>
</g>
</g>
<!-- Node14&#45;&gt;Node8 -->
<g id="edge17_Node000014_Node000008" class="edge">
<title>Node14&#45;&gt;Node8</title>
<g id="a_edge17_Node000014_Node000008"><a xlink:title=" ">
<path fill="none" stroke="#63b8ff" d="M241.16,-59.48C253.34,-50.57 272.71,-36.41 287.56,-25.56"/>
<polygon fill="#63b8ff" stroke="#63b8ff" points="289.31,-28.62 295.31,-19.89 285.18,-22.96 289.31,-28.62"/>
</a>
</g>
</g>
<!-- Node15 -->
<g id="Node000015" class="node">
<title>Node15</title>
<g id="a_Node000015"><a xlink:title=" ">
<polygon fill="#e0e0e0" stroke="#999999" points="250.62,-18.5 208.38,-18.5 208.38,0 250.62,0 250.62,-18.5"/>
<text text-anchor="middle" x="229.5" y="-5" font-family="Helvetica,sans-Serif" font-size="10.00">queue</text>
</a>
</g>
</g>
<!-- Node14&#45;&gt;Node15 -->
<g id="edge16_Node000014_Node000015" class="edge">
<title>Node14&#45;&gt;Node15</title>
<g id="a_edge16_Node000014_Node000015"><a xlink:title=" ">
<path fill="none" stroke="#63b8ff" d="M229.5,-59.48C229.5,-51.8 229.5,-40.22 229.5,-30.22"/>
<polygon fill="#63b8ff" stroke="#63b8ff" points="233,-30.32 229.5,-20.32 226,-30.32 233,-30.32"/>
</a>
</g>
</g>
</g>
</svg>
