<?xml version="1.0" encoding="UTF-8" standalone="no"?>
<!DOCTYPE svg PUBLIC "-//W3C//DTD SVG 1.1//EN"
 "http://www.w3.org/Graphics/SVG/1.1/DTD/svg11.dtd">
<!-- Generated by graphviz version 10.0.1 (0)
 -->
<!-- Title: near_optimal_cvt_algorithm.h Pages: 1 -->
<svg width="244pt" height="190pt"
 viewBox="0.00 0.00 244.00 190.00" xmlns="http://www.w3.org/2000/svg" xmlns:xlink="http://www.w3.org/1999/xlink">

<svg id="main" version="1.1" xmlns="http://www.w3.org/2000/svg" xmlns:xlink="http://www.w3.org/1999/xlink" xml:space="preserve" onload="init(evt)">
<style type="text/css"><![CDATA[
.node, .edge {opacity: 0.7;}
.node.selected, .edge.selected {opacity: 1;}
.edge:hover path { stroke: red; }
.edge:hover polygon { stroke: red; fill: red; }
]]></style>
<script type="application/ecmascript" xlink:href="svg.min.js"/>
<svg id="graph" class="graph">
<g id="graph0" class="graph" transform="scale(1 1) rotate(0) translate(4 186)">
<title>near_optimal_cvt_algorithm.h</title>
<!-- Node1 -->
<g id="Node000001" class="node">
<title>Node1</title>
<g id="a_Node000001"><a xlink:title="Near Optimal Centroidal Voronoi Tessellation (CVT) algorithm Near&#45;optimal Centroidal Voronoi Tessella...">
<polygon fill="#999999" stroke="#666666" points="183.62,-182 40.12,-182 40.12,-163.5 183.62,-163.5 183.62,-182"/>
<text text-anchor="middle" x="111.88" y="-168.5" font-family="Helvetica,sans-Serif" font-size="10.00">near_optimal_cvt_algorithm.h</text>
</a>
</g>
</g>
<!-- Node2 -->
<g id="Node000002" class="node">
<title>Node2</title>
<g id="a_Node000002"><a xlink:href="near__optimal__cvt_8h.html" target="_top" xlink:title="NearOptimalCVT class Global offline oracle: has complete information about the environment....">
<polygon fill="white" stroke="#666666" points="97.75,-127.5 0,-127.5 0,-109 97.75,-109 97.75,-127.5"/>
<text text-anchor="middle" x="48.88" y="-114" font-family="Helvetica,sans-Serif" font-size="10.00">near_optimal_cvt.h</text>
</a>
</g>
</g>
<!-- Node1&#45;&gt;Node2 -->
<g id="edge1_Node000001_Node000002" class="edge">
<title>Node1&#45;&gt;Node2</title>
<g id="a_edge1_Node000001_Node000002"><a xlink:title=" ">
<path fill="none" stroke="#63b8ff" d="M92.88,-155.92C81.77,-146.67 68.2,-135.35 59.08,-127.76"/>
<polygon fill="#63b8ff" stroke="#63b8ff" points="90.39,-158.4 100.31,-162.11 94.87,-153.02 90.39,-158.4"/>
</a>
</g>
</g>
<!-- Node5 -->
<g id="Node000005" class="node">
<title>Node5</title>
<g id="a_Node000005"><a xlink:href="oracle__explore__exploit_8h.html" target="_top" xlink:title="Old trial of exploration and exploitation Uses system map for exploration as well.">
<polygon fill="white" stroke="#666666" points="236,-127.5 115.75,-127.5 115.75,-109 236,-109 236,-127.5"/>
<text text-anchor="middle" x="175.88" y="-114" font-family="Helvetica,sans-Serif" font-size="10.00">oracle_explore_exploit.h</text>
</a>
</g>
</g>
<!-- Node1&#45;&gt;Node5 -->
<g id="edge4_Node000001_Node000005" class="edge">
<title>Node1&#45;&gt;Node5</title>
<g id="a_edge4_Node000001_Node000005"><a xlink:title=" ">
<path fill="none" stroke="#63b8ff" d="M131.17,-155.92C142.45,-146.67 156.25,-135.35 165.5,-127.76"/>
<polygon fill="#63b8ff" stroke="#63b8ff" points="129.13,-153.07 123.61,-162.12 133.56,-158.48 129.13,-153.07"/>
</a>
</g>
</g>
<!-- Node3 -->
<g id="Node000003" class="node">
<title>Node3</title>
<g id="a_Node000003"><a xlink:href="core__binds_8h.html" target="_top" xlink:title="Provides python bindings for the core CoverageControl library using pybind11.">
<polygon fill="white" stroke="#666666" points="147.62,-73 76.12,-73 76.12,-54.5 147.62,-54.5 147.62,-73"/>
<text text-anchor="middle" x="111.88" y="-59.5" font-family="Helvetica,sans-Serif" font-size="10.00">core_binds.h</text>
</a>
</g>
</g>
<!-- Node2&#45;&gt;Node3 -->
<g id="edge2_Node000002_Node000003" class="edge">
<title>Node2&#45;&gt;Node3</title>
<g id="a_edge2_Node000002_Node000003"><a xlink:title=" ">
<path fill="none" stroke="#63b8ff" d="M67.87,-101.42C78.98,-92.17 92.55,-80.85 101.67,-73.26"/>
<polygon fill="#63b8ff" stroke="#63b8ff" points="65.88,-98.52 60.44,-107.61 70.36,-103.9 65.88,-98.52"/>
</a>
</g>
</g>
<!-- Node4 -->
<g id="Node000004" class="node">
<title>Node4</title>
<g id="a_Node000004"><a xlink:href="python__binds_8cpp.html" target="_top" xlink:title="Python bindings for the CoverageControl library using pybind11 (core_binds.h)">
<polygon fill="white" stroke="#666666" points="158.12,-18.5 65.62,-18.5 65.62,0 158.12,0 158.12,-18.5"/>
<text text-anchor="middle" x="111.88" y="-5" font-family="Helvetica,sans-Serif" font-size="10.00">python_binds.cpp</text>
</a>
</g>
</g>
<!-- Node3&#45;&gt;Node4 -->
<g id="edge3_Node000003_Node000004" class="edge">
<title>Node3&#45;&gt;Node4</title>
<g id="a_edge3_Node000003_Node000004"><a xlink:title=" ">
<path fill="none" stroke="#63b8ff" d="M111.88,-42.64C111.88,-34.36 111.88,-25.21 111.88,-18.76"/>
<polygon fill="#63b8ff" stroke="#63b8ff" points="108.38,-42.57 111.88,-52.57 115.38,-42.57 108.38,-42.57"/>
</a>
</g>
</g>
<!-- Node5&#45;&gt;Node3 -->
<g id="edge5_Node000005_Node000003" class="edge">
<title>Node5&#45;&gt;Node3</title>
<g id="a_edge5_Node000005_Node000003"><a xlink:title=" ">
<path fill="none" stroke="#63b8ff" d="M156.58,-101.42C145.3,-92.17 131.5,-80.85 122.25,-73.26"/>
<polygon fill="#63b8ff" stroke="#63b8ff" points="154.19,-103.98 164.14,-107.62 158.62,-98.57 154.19,-103.98"/>
</a>
</g>
</g>
</g>
</svg>
</svg>

<style type='text/css'>
<![CDATA[
[data-mouse-over-selected='false'] { opacity: 0.7; }
[data-mouse-over-selected='true']  { opacity: 1.0; }
]]>
</style>
<script type="application/ecmascript"><![CDATA[
document.addEventListener('DOMContentLoaded', (event) => {
  highlightEdges();
  highlightAdjacentNodes();
});
]]></script>
</svg>
