<?xml version="1.0" encoding="UTF-8" standalone="no"?>
<!DOCTYPE svg PUBLIC "-//W3C//DTD SVG 1.1//EN"
 "http://www.w3.org/Graphics/SVG/1.1/DTD/svg11.dtd">
<!-- Generated by graphviz version 12.1.2 (0)
 -->
<!-- Title: near_optimal_cvt_algorithm.h Pages: 1 -->
<svg width="679pt" height="201pt"
 viewBox="0.00 0.00 678.88 200.50" xmlns="http://www.w3.org/2000/svg" xmlns:xlink="http://www.w3.org/1999/xlink">
<g id="graph0" class="graph" transform="scale(1 1) rotate(0) translate(4 196.5)">
<title>near_optimal_cvt_algorithm.h</title>
<!-- Node1 -->
<g id="Node000001" class="node">
<title>Node1</title>
<g id="a_Node000001"><a xlink:title="Near Optimal Centroidal Voronoi Tessellation (CVT) algorithm Near&#45;optimal Centroidal Voronoi Tessella...">
<polygon fill="#999999" stroke="#666666" points="347.25,-192.5 203.75,-192.5 203.75,-174 347.25,-174 347.25,-192.5"/>
<text text-anchor="middle" x="275.5" y="-179" font-family="Helvetica,sans-Serif" font-size="10.00">near_optimal_cvt_algorithm.h</text>
</a>
</g>
</g>
<!-- Node2 -->
<g id="Node000002" class="node">
<title>Node2</title>
<g id="a_Node000002"><a xlink:title=" ">
<polygon fill="#e0e0e0" stroke="#999999" points="43,-132.75 0,-132.75 0,-114.25 43,-114.25 43,-132.75"/>
<text text-anchor="middle" x="21.5" y="-119.25" font-family="Helvetica,sans-Serif" font-size="10.00">omp.h</text>
</a>
</g>
</g>
<!-- Node1&#45;&gt;Node2 -->
<g id="edge1_Node000001_Node000002" class="edge">
<title>Node1&#45;&gt;Node2</title>
<g id="a_edge1_Node000001_Node000002"><a xlink:title=" ">
<path fill="none" stroke="#63b8ff" d="M211.28,-173.54C165.96,-166.44 104.18,-154.81 51.5,-138 50.85,-137.79 50.2,-137.58 49.55,-137.35"/>
<polygon fill="#63b8ff" stroke="#63b8ff" points="51,-134.16 40.41,-133.74 48.42,-140.67 51,-134.16"/>
</a>
</g>
</g>
<!-- Node3 -->
<g id="Node000003" class="node">
<title>Node3</title>
<g id="a_Node000003"><a xlink:title=" ">
<polygon fill="#e0e0e0" stroke="#999999" points="104,-132.75 61,-132.75 61,-114.25 104,-114.25 104,-132.75"/>
<text text-anchor="middle" x="82.5" y="-119.25" font-family="Helvetica,sans-Serif" font-size="10.00">time.h</text>
</a>
</g>
</g>
<!-- Node1&#45;&gt;Node3 -->
<g id="edge2_Node000001_Node000003" class="edge">
<title>Node1&#45;&gt;Node3</title>
<g id="a_edge2_Node000001_Node000003"><a xlink:title=" ">
<path fill="none" stroke="#63b8ff" d="M241.56,-173.57C209.6,-165.18 160.48,-151.76 118.5,-138 117.36,-137.63 116.2,-137.24 115.03,-136.84"/>
<polygon fill="#63b8ff" stroke="#63b8ff" points="116.5,-133.65 105.91,-133.59 114.15,-140.24 116.5,-133.65"/>
</a>
</g>
</g>
<!-- Node4 -->
<g id="Node000004" class="node">
<title>Node4</title>
<g id="a_Node000004"><a xlink:title=" ">
<polygon fill="#e0e0e0" stroke="#999999" points="179.62,-18.5 107.38,-18.5 107.38,0 179.62,0 179.62,-18.5"/>
<text text-anchor="middle" x="143.5" y="-5" font-family="Helvetica,sans-Serif" font-size="10.00">Eigen/Dense</text>
</a>
</g>
</g>
<!-- Node1&#45;&gt;Node4 -->
<g id="edge3_Node000001_Node000004" class="edge">
<title>Node1&#45;&gt;Node4</title>
<g id="a_edge3_Node000001_Node000004"><a xlink:title=" ">
<path fill="none" stroke="#63b8ff" d="M259.69,-173.56C232.39,-157.62 176.91,-120.91 151.5,-73 144.55,-59.9 142.71,-43.17 142.52,-30.28"/>
<polygon fill="#63b8ff" stroke="#63b8ff" points="146.01,-30.52 142.72,-20.45 139.01,-30.38 146.01,-30.52"/>
</a>
</g>
</g>
<!-- Node5 -->
<g id="Node000005" class="node">
<title>Node5</title>
<g id="a_Node000005"><a xlink:title=" ">
<polygon fill="#e0e0e0" stroke="#999999" points="533.62,-132.75 485.38,-132.75 485.38,-114.25 533.62,-114.25 533.62,-132.75"/>
<text text-anchor="middle" x="509.5" y="-119.25" font-family="Helvetica,sans-Serif" font-size="10.00">random</text>
</a>
</g>
</g>
<!-- Node1&#45;&gt;Node5 -->
<g id="edge4_Node000001_Node000005" class="edge">
<title>Node1&#45;&gt;Node5</title>
<g id="a_edge4_Node000001_Node000005"><a xlink:title=" ">
<path fill="none" stroke="#63b8ff" d="M325.39,-173.52C366.2,-165.82 425.19,-153.45 475.5,-138 476.48,-137.7 477.48,-137.38 478.48,-137.05"/>
<polygon fill="#63b8ff" stroke="#63b8ff" points="479.56,-140.38 487.77,-133.69 477.18,-133.8 479.56,-140.38"/>
</a>
</g>
</g>
<!-- Node6 -->
<g id="Node000006" class="node">
<title>Node6</title>
<g id="a_Node000006"><a xlink:title=" ">
<polygon fill="#e0e0e0" stroke="#999999" points="347.62,-18.5 305.38,-18.5 305.38,0 347.62,0 347.62,-18.5"/>
<text text-anchor="middle" x="326.5" y="-5" font-family="Helvetica,sans-Serif" font-size="10.00">vector</text>
</a>
</g>
</g>
<!-- Node1&#45;&gt;Node6 -->
<g id="edge5_Node000001_Node000006" class="edge">
<title>Node1&#45;&gt;Node6</title>
<g id="a_edge5_Node000001_Node000006"><a xlink:title=" ">
<path fill="none" stroke="#63b8ff" d="M277.96,-173.95C285.68,-147.91 309.59,-67.28 320.71,-29.79"/>
<polygon fill="#63b8ff" stroke="#63b8ff" points="324.03,-30.9 323.51,-20.32 317.32,-28.91 324.03,-30.9"/>
</a>
</g>
</g>
<!-- Node7 -->
<g id="Node000007" class="node">
<title>Node7</title>
<g id="a_Node000007"><a xlink:title=" ">
<polygon fill="#e0e0e0" stroke="#999999" points="670.88,-138 552.12,-138 552.12,-109 670.88,-109 670.88,-138"/>
<text text-anchor="start" x="560.12" y="-124.5" font-family="Helvetica,sans-Serif" font-size="10.00">CoverageControl/extern</text>
<text text-anchor="middle" x="611.5" y="-114" font-family="Helvetica,sans-Serif" font-size="10.00">/lsap/Hungarian.h</text>
</a>
</g>
</g>
<!-- Node1&#45;&gt;Node7 -->
<g id="edge6_Node000001_Node000007" class="edge">
<title>Node1&#45;&gt;Node7</title>
<g id="a_edge6_Node000001_Node000007"><a xlink:title=" ">
<path fill="none" stroke="#63b8ff" d="M331.06,-173.52C382.7,-165.3 462.04,-152.4 540.6,-138.31"/>
<polygon fill="#63b8ff" stroke="#63b8ff" points="540.97,-141.8 550.19,-136.58 539.73,-134.91 540.97,-141.8"/>
</a>
</g>
</g>
<!-- Node8 -->
<g id="Node000008" class="node">
<title>Node8</title>
<g id="a_Node000008"><a xlink:href="typedefs_8h.html" target="_top" xlink:title="Contains typedefs for the library.">
<polygon fill="white" stroke="#666666" points="298.25,-73 160.75,-73 160.75,-54.5 298.25,-54.5 298.25,-73"/>
<text text-anchor="middle" x="229.5" y="-59.5" font-family="Helvetica,sans-Serif" font-size="10.00">CoverageControl/typedefs.h</text>
</a>
</g>
</g>
<!-- Node1&#45;&gt;Node8 -->
<g id="edge7_Node000001_Node000008" class="edge">
<title>Node1&#45;&gt;Node8</title>
<g id="a_edge7_Node000001_Node000008"><a xlink:title=" ">
<path fill="none" stroke="#63b8ff" d="M272.19,-173.8C264.87,-155.09 247.13,-109.78 236.97,-83.83"/>
<polygon fill="#63b8ff" stroke="#63b8ff" points="240.36,-82.89 233.45,-74.85 233.84,-85.44 240.36,-82.89"/>
</a>
</g>
</g>
<!-- Node10 -->
<g id="Node000010" class="node">
<title>Node10</title>
<g id="a_Node000010"><a xlink:href="voronoi_8h.html" target="_top" xlink:title="Class for computing Voronoi cells.">
<polygon fill="white" stroke="#666666" points="466.88,-132.75 336.12,-132.75 336.12,-114.25 466.88,-114.25 466.88,-132.75"/>
<text text-anchor="middle" x="401.5" y="-119.25" font-family="Helvetica,sans-Serif" font-size="10.00">CoverageControl/voronoi.h</text>
</a>
</g>
</g>
<!-- Node1&#45;&gt;Node10 -->
<g id="edge11_Node000001_Node000010" class="edge">
<title>Node1&#45;&gt;Node10</title>
<g id="a_edge11_Node000001_Node000010"><a xlink:title=" ">
<path fill="none" stroke="#63b8ff" d="M294.36,-173.6C314.96,-164.16 348.21,-148.92 372.21,-137.92"/>
<polygon fill="#63b8ff" stroke="#63b8ff" points="373.5,-141.18 381.13,-133.84 370.58,-134.82 373.5,-141.18"/>
</a>
</g>
</g>
<!-- Node8&#45;&gt;Node4 -->
<g id="edge8_Node000008_Node000004" class="edge">
<title>Node8&#45;&gt;Node4</title>
<g id="a_edge8_Node000008_Node000004"><a xlink:title=" ">
<path fill="none" stroke="#63b8ff" d="M215.3,-54.08C202.23,-46.1 182.59,-34.11 167.15,-24.69"/>
<polygon fill="#63b8ff" stroke="#63b8ff" points="169.37,-21.94 159.01,-19.72 165.73,-27.92 169.37,-21.94"/>
</a>
</g>
</g>
<!-- Node8&#45;&gt;Node6 -->
<g id="edge10_Node000008_Node000006" class="edge">
<title>Node8&#45;&gt;Node6</title>
<g id="a_edge10_Node000008_Node000006"><a xlink:title=" ">
<path fill="none" stroke="#63b8ff" d="M245.52,-54.08C260.54,-45.95 283.26,-33.65 300.82,-24.15"/>
<polygon fill="#63b8ff" stroke="#63b8ff" points="302,-27.49 309.13,-19.65 298.67,-21.33 302,-27.49"/>
</a>
</g>
</g>
<!-- Node9 -->
<g id="Node000009" class="node">
<title>Node9</title>
<g id="a_Node000009"><a xlink:title=" ">
<polygon fill="#e0e0e0" stroke="#999999" points="250.62,-18.5 208.38,-18.5 208.38,0 250.62,0 250.62,-18.5"/>
<text text-anchor="middle" x="229.5" y="-5" font-family="Helvetica,sans-Serif" font-size="10.00">queue</text>
</a>
</g>
</g>
<!-- Node8&#45;&gt;Node9 -->
<g id="edge9_Node000008_Node000009" class="edge">
<title>Node8&#45;&gt;Node9</title>
<g id="a_edge9_Node000008_Node000009"><a xlink:title=" ">
<path fill="none" stroke="#63b8ff" d="M229.5,-54.08C229.5,-47.58 229.5,-38.42 229.5,-30.16"/>
<polygon fill="#63b8ff" stroke="#63b8ff" points="233,-30.27 229.5,-20.27 226,-30.27 233,-30.27"/>
</a>
</g>
</g>
<!-- Node10&#45;&gt;Node6 -->
<g id="edge14_Node000010_Node000006" class="edge">
<title>Node10&#45;&gt;Node6</title>
<g id="a_edge14_Node000010_Node000006"><a xlink:title=" ">
<path fill="none" stroke="#63b8ff" d="M395.86,-114.06C383.76,-95.94 355.03,-52.96 338.6,-28.36"/>
<polygon fill="#63b8ff" stroke="#63b8ff" points="341.51,-26.41 333.04,-20.04 335.69,-30.3 341.51,-26.41"/>
</a>
</g>
</g>
<!-- Node10&#45;&gt;Node8 -->
<g id="edge15_Node000010_Node000008" class="edge">
<title>Node10&#45;&gt;Node8</title>
<g id="a_edge15_Node000010_Node000008"><a xlink:title=" ">
<path fill="none" stroke="#63b8ff" d="M375.75,-113.85C346.62,-104.07 298.95,-88.07 265.99,-77"/>
<polygon fill="#63b8ff" stroke="#63b8ff" points="267.45,-73.8 256.86,-73.94 265.23,-80.44 267.45,-73.8"/>
</a>
</g>
</g>
<!-- Node11 -->
<g id="Node000011" class="node">
<title>Node11</title>
<g id="a_Node000011"><a xlink:title=" ">
<polygon fill="#e0e0e0" stroke="#999999" points="436,-73 393,-73 393,-54.5 436,-54.5 436,-73"/>
<text text-anchor="middle" x="414.5" y="-59.5" font-family="Helvetica,sans-Serif" font-size="10.00">cmath</text>
</a>
</g>
</g>
<!-- Node10&#45;&gt;Node11 -->
<g id="edge12_Node000010_Node000011" class="edge">
<title>Node10&#45;&gt;Node11</title>
<g id="a_edge12_Node000010_Node000011"><a xlink:title=" ">
<path fill="none" stroke="#63b8ff" d="M403.42,-113.98C405.17,-106.22 407.81,-94.46 410.08,-84.38"/>
<polygon fill="#63b8ff" stroke="#63b8ff" points="413.46,-85.31 412.24,-74.78 406.63,-83.77 413.46,-85.31"/>
</a>
</g>
</g>
<!-- Node12 -->
<g id="Node000012" class="node">
<title>Node12</title>
<g id="a_Node000012"><a xlink:title=" ">
<polygon fill="#e0e0e0" stroke="#999999" points="506.5,-73 454.5,-73 454.5,-54.5 506.5,-54.5 506.5,-73"/>
<text text-anchor="middle" x="480.5" y="-59.5" font-family="Helvetica,sans-Serif" font-size="10.00">memory</text>
</a>
</g>
</g>
<!-- Node10&#45;&gt;Node12 -->
<g id="edge13_Node000010_Node000012" class="edge">
<title>Node10&#45;&gt;Node12</title>
<g id="a_edge13_Node000010_Node000012"><a xlink:title=" ">
<path fill="none" stroke="#63b8ff" d="M413.16,-113.98C425.34,-105.07 444.71,-90.91 459.56,-80.06"/>
<polygon fill="#63b8ff" stroke="#63b8ff" points="461.31,-83.12 467.31,-74.39 457.18,-77.46 461.31,-83.12"/>
</a>
</g>
</g>
</g>
</svg>
