<?xml version="1.0" encoding="UTF-8" standalone="no"?>
<!DOCTYPE svg PUBLIC "-//W3C//DTD SVG 1.1//EN"
 "http://www.w3.org/Graphics/SVG/1.1/DTD/svg11.dtd">
<!-- Generated by graphviz version 12.1.2 (0)
 -->
<!-- Title: parameters.h Pages: 1 -->
<!--zoomable 310 -->

<svg id="main" version="1.1" xmlns="http://www.w3.org/2000/svg" xmlns:xlink="http://www.w3.org/1999/xlink" xml:space="preserve" onload="init(evt)">

<style type="text/css"><![CDATA[
.node, .edge {opacity: 0.7;}
.node.selected, .edge.selected {opacity: 1;}
.edge:hover path { stroke: red; }
.edge:hover polygon { stroke: red; fill: red; }
]]></style>

<defs>
  <circle id="rim" cx="0" cy="0" r="7"/>
  <circle id="rim2" cx="0" cy="0" r="3.5"/>
  <g id="zoomPlus">
    <use xlink:href="#rim" fill="#404040"><set attributeName="fill" to="#808080" begin="zoomplus.mouseover" end="zoomplus.mouseout"/></use>
    <path d="M-4,0h8M0,-4v8" fill="none" stroke="white" stroke-width="1.5" pointer-events="none"/>
  </g>
  <g id="zoomMin">
    <use xlink:href="#rim" fill="#404040"><set attributeName="fill" to="#808080" begin="zoomminus.mouseover" end="zoomminus.mouseout"/></use>
    <path d="M-4,0h8" fill="none" stroke="white" stroke-width="1.5" pointer-events="none"/>
  </g>
  <g id="arrowUp" transform="translate(30 24)">
    <use xlink:href="#rim"/>
    <path pointer-events="none" fill="none" stroke="white" stroke-width="1.5" d="M0,-3.0v7 M-2.5,-0.5L0,-3.0L2.5,-0.5"/>
  </g>
  <g id="arrowRight" transform="rotate(90) translate(36 -43)">
    <use xlink:href="#rim"/>
    <path pointer-events="none" fill="none" stroke="white" stroke-width="1.5" d="M0,-3.0v7 M-2.5,-0.5L0,-3.0L2.5,-0.5"/>
  </g>
  <g id="arrowDown" transform="rotate(180) translate(-30 -48)">
    <use xlink:href="#rim"/>
    <path pointer-events="none" fill="none" stroke="white" stroke-width="1.5" d="M0,-3.0v7 M-2.5,-0.5L0,-3.0L2.5,-0.5"/>
  </g>
  <g id="arrowLeft" transform="rotate(270) translate(-36 17)">
    <use xlink:href="#rim"/>
    <path pointer-events="none" fill="none" stroke="white" stroke-width="1.5" d="M0,-3.0v7 M-2.5,-0.5L0,-3.0L2.5,-0.5"/>
  </g>
  <g id="resetDef">
    <use xlink:href="#rim2" fill="#404040"><set attributeName="fill" to="#808080" begin="reset.mouseover" end="reset.mouseout"/></use>
  </g>
</defs>
<script type="application/ecmascript">
var viewWidth = 1067;
var viewHeight = 310;
var sectionId = 'dynsection-1';
</script>
<script type="application/ecmascript" xlink:href="svg.min.js"/>
<svg id="graph" class="graph">
<g id="viewport">
<title>parameters.h</title>
<!-- Node1 -->
<g id="Node000001" class="node">
<title>Node1</title>
<g id="a_Node000001"><a xlink:title="Contains parameters.">
<polygon fill="#999999" stroke="#666666" points="513.03,-301.5 439.28,-301.5 439.28,-283 513.03,-283 513.03,-301.5"/>
<text text-anchor="middle" x="476.15" y="-288" font-family="Helvetica,sans-Serif" font-size="10.00">parameters.h</text>
</a>
</g>
</g>
<!-- Node2 -->
<g id="Node000002" class="node">
<title>Node2</title>
<g id="a_Node000002"><a xlink:href="centralized__cvt_8h.html" target="_top" xlink:title="Contains the class CentralizedCVT.">
<polygon fill="white" stroke="#666666" points="117.53,-78.25 28.78,-78.25 28.78,-59.75 117.53,-59.75 117.53,-78.25"/>
<text text-anchor="middle" x="73.15" y="-64.75" font-family="Helvetica,sans-Serif" font-size="10.00">centralized_cvt.h</text>
</a>
</g>
</g>
<!-- Node1&#45;&gt;Node2 -->
<g id="edge1_Node000001_Node000002" class="edge">
<title>Node1&#45;&gt;Node2</title>
<g id="a_edge1_Node000001_Node000002"><a xlink:title=" ">
<path fill="none" stroke="#63b8ff" d="M427.43,-290.85C373.14,-288.66 283.96,-279.77 215.15,-247 137.97,-210.24 89.61,-108.62 76.66,-78.51"/>
<polygon fill="#63b8ff" stroke="#63b8ff" points="427.17,-294.34 437.28,-291.18 427.41,-287.34 427.17,-294.34"/>
</a>
</g>
</g>
<!-- Node3 -->
<g id="Node000003" class="node">
<title>Node3</title>
<g id="a_Node000003"><a xlink:href="clairvoyant__cvt_8h.html" target="_top" xlink:title="Clairvoyant CVT algorithm.">
<polygon fill="white" stroke="#666666" points="261.53,-78.25 172.78,-78.25 172.78,-59.75 261.53,-59.75 261.53,-78.25"/>
<text text-anchor="middle" x="217.15" y="-64.75" font-family="Helvetica,sans-Serif" font-size="10.00">clairvoyant_cvt.h</text>
</a>
</g>
</g>
<!-- Node1&#45;&gt;Node3 -->
<g id="edge2_Node000001_Node000003" class="edge">
<title>Node1&#45;&gt;Node3</title>
<g id="a_edge2_Node000001_Node000003"><a xlink:title=" ">
<path fill="none" stroke="#63b8ff" d="M427.61,-283.51C347.36,-269.55 192.97,-237.39 164.15,-192.5 138.74,-152.91 186.96,-99.08 208.01,-78.49"/>
<polygon fill="#63b8ff" stroke="#63b8ff" points="426.95,-286.95 437.4,-285.18 428.13,-280.05 426.95,-286.95"/>
</a>
</g>
</g>
<!-- Node4 -->
<g id="Node000004" class="node">
<title>Node4</title>
<g id="a_Node000004"><a xlink:href="coverage__algorithm_8cpp.html" target="_top" xlink:title="Program to test the CVT&#45;based (Lloyd&#39;s) coverage control algorithms.">
<polygon fill="white" stroke="#666666" points="240.53,-18.5 121.78,-18.5 121.78,0 240.53,0 240.53,-18.5"/>
<text text-anchor="middle" x="181.15" y="-5" font-family="Helvetica,sans-Serif" font-size="10.00">coverage_algorithm.cpp</text>
</a>
</g>
</g>
<!-- Node1&#45;&gt;Node4 -->
<g id="edge4_Node000001_Node000004" class="edge">
<title>Node1&#45;&gt;Node4</title>
<g id="a_edge4_Node000001_Node000004"><a xlink:title=" ">
<path fill="none" stroke="#63b8ff" d="M427.41,-290.53C306.25,-287.41 1.15,-270.97 1.15,-184.25 1.15,-184.25 1.15,-184.25 1.15,-127.75 1.15,-94.12 -3.46,-78.45 20.15,-54.5 46.5,-27.76 87.39,-16.75 121.37,-12.4"/>
<polygon fill="#63b8ff" stroke="#63b8ff" points="427.29,-294.02 437.37,-290.76 427.45,-287.03 427.29,-294.02"/>
</a>
</g>
</g>
<!-- Node5 -->
<g id="Node000005" class="node">
<title>Node5</title>
<g id="a_Node000005"><a xlink:href="coverage__system_8h.html" target="_top" xlink:title="The file contains the CoverageSystem class, which is the main class for the coverage control library.">
<polygon fill="white" stroke="#666666" points="452.78,-138 353.53,-138 353.53,-119.5 452.78,-119.5 452.78,-138"/>
<text text-anchor="middle" x="403.15" y="-124.5" font-family="Helvetica,sans-Serif" font-size="10.00">coverage_system.h</text>
</a>
</g>
</g>
<!-- Node1&#45;&gt;Node5 -->
<g id="edge5_Node000001_Node000005" class="edge">
<title>Node1&#45;&gt;Node5</title>
<g id="a_edge5_Node000001_Node000005"><a xlink:title=" ">
<path fill="none" stroke="#63b8ff" d="M472.02,-271.46C466.49,-247.44 455.35,-206.15 438.15,-174 430.85,-160.35 419.23,-146.7 411.4,-138.24"/>
<polygon fill="#63b8ff" stroke="#63b8ff" points="468.57,-272.09 474.13,-281.11 475.41,-270.59 468.57,-272.09"/>
</a>
</g>
</g>
<!-- Node7 -->
<g id="Node000007" class="node">
<title>Node7</title>
<g id="a_Node000007"><a xlink:href="decentralized__cvt_8h.html" target="_top" xlink:title="Contains the DecentralizedCVT class.">
<polygon fill="white" stroke="#666666" points="544.78,-78.25 445.53,-78.25 445.53,-59.75 544.78,-59.75 544.78,-78.25"/>
<text text-anchor="middle" x="495.15" y="-64.75" font-family="Helvetica,sans-Serif" font-size="10.00">decentralized_cvt.h</text>
</a>
</g>
</g>
<!-- Node1&#45;&gt;Node7 -->
<g id="edge15_Node000001_Node000007" class="edge">
<title>Node1&#45;&gt;Node7</title>
<g id="a_edge15_Node000001_Node000007"><a xlink:title=" ">
<path fill="none" stroke="#63b8ff" d="M477.86,-271.38C481.86,-224.84 491.69,-110.29 494.43,-78.38"/>
<polygon fill="#63b8ff" stroke="#63b8ff" points="474.4,-270.81 477.03,-281.07 481.37,-271.4 474.4,-270.81"/>
</a>
</g>
</g>
<!-- Node8 -->
<g id="Node000008" class="node">
<title>Node8</title>
<g id="a_Node000008"><a xlink:href="near__optimal__cvt_8h.html" target="_top" xlink:title="NearOptimalCVT class Global offline oracle: has complete information about the environment....">
<polygon fill="white" stroke="#666666" points="661.03,-78.25 563.28,-78.25 563.28,-59.75 661.03,-59.75 661.03,-78.25"/>
<text text-anchor="middle" x="612.15" y="-64.75" font-family="Helvetica,sans-Serif" font-size="10.00">near_optimal_cvt.h</text>
</a>
</g>
</g>
<!-- Node1&#45;&gt;Node8 -->
<g id="edge16_Node000001_Node000008" class="edge">
<title>Node1&#45;&gt;Node8</title>
<g id="a_edge16_Node000001_Node000008"><a xlink:title=" ">
<path fill="none" stroke="#63b8ff" d="M484.49,-272.51C503.12,-230.76 547.28,-132.77 557.15,-119.5 569.42,-103.01 587.83,-87.79 599.92,-78.7"/>
<polygon fill="#63b8ff" stroke="#63b8ff" points="481.35,-270.94 480.48,-281.5 487.75,-273.79 481.35,-270.94"/>
</a>
</g>
</g>
<!-- Node9 -->
<g id="Node000009" class="node">
<title>Node9</title>
<g id="a_Node000009"><a xlink:href="oracle__bang__explore__exploit_8h.html" target="_top" xlink:title="First trial of oracle with exploration and exploitation. The oracle uses complete information about t...">
<polygon fill="white" stroke="#666666" points="784.78,-83.5 679.53,-83.5 679.53,-54.5 784.78,-54.5 784.78,-83.5"/>
<text text-anchor="start" x="687.53" y="-70" font-family="Helvetica,sans-Serif" font-size="10.00">oracle_bang_explore</text>
<text text-anchor="middle" x="732.15" y="-59.5" font-family="Helvetica,sans-Serif" font-size="10.00">_exploit.h</text>
</a>
</g>
</g>
<!-- Node1&#45;&gt;Node9 -->
<g id="edge17_Node000001_Node000009" class="edge">
<title>Node1&#45;&gt;Node9</title>
<g id="a_edge17_Node000001_Node000009"><a xlink:title=" ">
<path fill="none" stroke="#63b8ff" d="M491.73,-274.28C498.85,-266.24 507.22,-256.36 514.15,-247 554.12,-193.06 542.77,-161.49 595.15,-119.5 609.21,-108.23 650.07,-94.17 683.53,-83.92"/>
<polygon fill="#63b8ff" stroke="#63b8ff" points="489.21,-271.84 485.12,-281.62 494.41,-276.53 489.21,-271.84"/>
</a>
</g>
</g>
<!-- Node10 -->
<g id="Node000010" class="node">
<title>Node10</title>
<g id="a_Node000010"><a xlink:href="oracle__explore__exploit_8h.html" target="_top" xlink:title="Old trial of exploration and exploitation Uses system map for exploration as well.">
<polygon fill="white" stroke="#666666" points="923.28,-78.25 803.03,-78.25 803.03,-59.75 923.28,-59.75 923.28,-78.25"/>
<text text-anchor="middle" x="863.15" y="-64.75" font-family="Helvetica,sans-Serif" font-size="10.00">oracle_explore_exploit.h</text>
</a>
</g>
</g>
<!-- Node1&#45;&gt;Node10 -->
<g id="edge18_Node000001_Node000010" class="edge">
<title>Node1&#45;&gt;Node10</title>
<g id="a_edge18_Node000001_Node000010"><a xlink:title=" ">
<path fill="none" stroke="#63b8ff" d="M498.55,-276.25C509.79,-268.21 523.3,-257.76 534.15,-247 585.1,-196.49 572.42,-157.69 633.15,-119.5 641.03,-114.55 754.26,-91.56 818.85,-78.72"/>
<polygon fill="#63b8ff" stroke="#63b8ff" points="496.81,-273.19 490.61,-281.77 500.81,-278.93 496.81,-273.19"/>
</a>
</g>
</g>
<!-- Node11 -->
<g id="Node000011" class="node">
<title>Node11</title>
<g id="a_Node000011"><a xlink:href="simul__explore__exploit_8h.html" target="_top" xlink:title="Simultaneous exploration and exploitation algorithm Uses frontier&#45;based exploration with bias towards...">
<polygon fill="white" stroke="#666666" points="1058.78,-78.25 941.53,-78.25 941.53,-59.75 1058.78,-59.75 1058.78,-78.25"/>
<text text-anchor="middle" x="1000.15" y="-64.75" font-family="Helvetica,sans-Serif" font-size="10.00">simul_explore_exploit.h</text>
</a>
</g>
</g>
<!-- Node1&#45;&gt;Node11 -->
<g id="edge22_Node000001_Node000011" class="edge">
<title>Node1&#45;&gt;Node11</title>
<g id="a_edge22_Node000001_Node000011"><a xlink:title=" ">
<path fill="none" stroke="#63b8ff" d="M507.24,-278.12C604.09,-237.23 898.68,-112.85 979.47,-78.73"/>
<polygon fill="#63b8ff" stroke="#63b8ff" points="505.94,-274.87 498.09,-281.99 508.66,-281.32 505.94,-274.87"/>
</a>
</g>
</g>
<!-- Node12 -->
<g id="Node000012" class="node">
<title>Node12</title>
<g id="a_Node000012"><a xlink:href="parameters_8cpp.html" target="_top" xlink:title="Parses toml configuration file and sets parameters.">
<polygon fill="white" stroke="#666666" points="759.28,-247 675.03,-247 675.03,-228.5 759.28,-228.5 759.28,-247"/>
<text text-anchor="middle" x="717.15" y="-233.5" font-family="Helvetica,sans-Serif" font-size="10.00">parameters.cpp</text>
</a>
</g>
</g>
<!-- Node1&#45;&gt;Node12 -->
<g id="edge19_Node000001_Node000012" class="edge">
<title>Node1&#45;&gt;Node12</title>
<g id="a_edge19_Node000001_Node000012"><a xlink:title=" ">
<path fill="none" stroke="#63b8ff" d="M524.48,-280.72C569.3,-270.96 635.23,-256.6 677.17,-247.46"/>
<polygon fill="#63b8ff" stroke="#63b8ff" points="523.79,-277.29 514.76,-282.84 525.28,-284.13 523.79,-277.29"/>
</a>
</g>
</g>
<!-- Node13 -->
<g id="Node000013" class="node">
<title>Node13</title>
<g id="a_Node000013"><a xlink:href="robot__model_8h.html" target="_top" xlink:title="Class for handling the robot model.">
<polygon fill="white" stroke="#666666" points="428.9,-192.5 351.4,-192.5 351.4,-174 428.9,-174 428.9,-192.5"/>
<text text-anchor="middle" x="390.15" y="-179" font-family="Helvetica,sans-Serif" font-size="10.00">robot_model.h</text>
</a>
</g>
</g>
<!-- Node1&#45;&gt;Node13 -->
<g id="edge20_Node000001_Node000013" class="edge">
<title>Node1&#45;&gt;Node13</title>
<g id="a_edge20_Node000001_Node000013"><a xlink:title=" ">
<path fill="none" stroke="#63b8ff" d="M462.37,-274.1C443.76,-250.94 411.29,-210.54 397.11,-192.9"/>
<polygon fill="#63b8ff" stroke="#63b8ff" points="459.46,-276.07 468.46,-281.67 464.92,-271.69 459.46,-276.07"/>
</a>
</g>
</g>
<!-- Node14 -->
<g id="Node000014" class="node">
<title>Node14</title>
<g id="a_Node000014"><a xlink:href="world__idf_8h.html" target="_top" xlink:title="Contains the class for Importance Density Function (IDF) for the world.">
<polygon fill="white" stroke="#666666" points="354.03,-247 292.28,-247 292.28,-228.5 354.03,-228.5 354.03,-247"/>
<text text-anchor="middle" x="323.15" y="-233.5" font-family="Helvetica,sans-Serif" font-size="10.00">world_idf.h</text>
</a>
</g>
</g>
<!-- Node1&#45;&gt;Node14 -->
<g id="edge23_Node000001_Node000014" class="edge">
<title>Node1&#45;&gt;Node14</title>
<g id="a_edge23_Node000001_Node000014"><a xlink:title=" ">
<path fill="none" stroke="#63b8ff" d="M440.26,-278.93C412.06,-269.26 373.49,-256.02 348.45,-247.43"/>
<polygon fill="#63b8ff" stroke="#63b8ff" points="438.86,-282.15 449.46,-282.09 441.13,-275.53 438.86,-282.15"/>
</a>
</g>
</g>
<!-- Node3&#45;&gt;Node4 -->
<g id="edge3_Node000003_Node000004" class="edge">
<title>Node3&#45;&gt;Node4</title>
<g id="a_edge3_Node000003_Node000004"><a xlink:title=" ">
<path fill="none" stroke="#63b8ff" d="M205.76,-49.73C199.31,-39.38 191.55,-26.92 186.49,-18.81"/>
<polygon fill="#63b8ff" stroke="#63b8ff" points="202.78,-51.56 211.04,-58.19 208.72,-47.86 202.78,-51.56"/>
</a>
</g>
</g>
<!-- Node5&#45;&gt;Node2 -->
<g id="edge6_Node000005_Node000002" class="edge">
<title>Node5&#45;&gt;Node2</title>
<g id="a_edge6_Node000005_Node000002"><a xlink:title=" ">
<path fill="none" stroke="#63b8ff" d="M342.1,-117.07C277.17,-105.7 175.99,-88 118.01,-77.85"/>
<polygon fill="#63b8ff" stroke="#63b8ff" points="341.45,-120.5 351.9,-118.78 342.65,-113.61 341.45,-120.5"/>
</a>
</g>
</g>
<!-- Node5&#45;&gt;Node3 -->
<g id="edge7_Node000005_Node000003" class="edge">
<title>Node5&#45;&gt;Node3</title>
<g id="a_edge7_Node000005_Node000003"><a xlink:title=" ">
<path fill="none" stroke="#63b8ff" d="M364.37,-115.71C328.78,-104.66 276.91,-88.55 245.19,-78.7"/>
<polygon fill="#63b8ff" stroke="#63b8ff" points="363.27,-119.03 373.86,-118.66 365.35,-112.35 363.27,-119.03"/>
</a>
</g>
</g>
<!-- Node5&#45;&gt;Node4 -->
<g id="edge8_Node000005_Node000004" class="edge">
<title>Node5&#45;&gt;Node4</title>
<g id="a_edge8_Node000005_Node000004"><a xlink:title=" ">
<path fill="none" stroke="#63b8ff" d="M370.55,-114.64C351.79,-106.6 328.07,-95.54 308.15,-83.5 289.97,-72.51 288.19,-65.72 270.15,-54.5 247.44,-40.37 219.61,-27.13 201.18,-18.88"/>
<polygon fill="#63b8ff" stroke="#63b8ff" points="368.99,-117.78 379.56,-118.43 371.7,-111.33 368.99,-117.78"/>
</a>
</g>
</g>
<!-- Node6 -->
<g id="Node000006" class="node">
<title>Node6</title>
<g id="a_Node000006"><a xlink:href="coverage__system_8cpp.html" target="_top" xlink:title="Contains the implementation of the CoverageSystem class.">
<polygon fill="white" stroke="#666666" points="427.03,-78.25 317.28,-78.25 317.28,-59.75 427.03,-59.75 427.03,-78.25"/>
<text text-anchor="middle" x="372.15" y="-64.75" font-family="Helvetica,sans-Serif" font-size="10.00">coverage_system.cpp</text>
</a>
</g>
</g>
<!-- Node5&#45;&gt;Node6 -->
<g id="edge9_Node000005_Node000006" class="edge">
<title>Node5&#45;&gt;Node6</title>
<g id="a_edge9_Node000005_Node000006"><a xlink:title=" ">
<path fill="none" stroke="#63b8ff" d="M393.17,-109.15C387.65,-98.87 381.06,-86.59 376.75,-78.56"/>
<polygon fill="#63b8ff" stroke="#63b8ff" points="390.05,-110.74 397.86,-117.9 396.22,-107.43 390.05,-110.74"/>
</a>
</g>
</g>
<!-- Node5&#45;&gt;Node7 -->
<g id="edge10_Node000005_Node000007" class="edge">
<title>Node5&#45;&gt;Node7</title>
<g id="a_edge10_Node000005_Node000007"><a xlink:title=" ">
<path fill="none" stroke="#63b8ff" d="M426.13,-113.32C443.45,-102.46 466.62,-87.91 481.22,-78.75"/>
<polygon fill="#63b8ff" stroke="#63b8ff" points="424.62,-110.14 418.01,-118.42 428.34,-116.07 424.62,-110.14"/>
</a>
</g>
</g>
<!-- Node5&#45;&gt;Node8 -->
<g id="edge11_Node000005_Node000008" class="edge">
<title>Node5&#45;&gt;Node8</title>
<g id="a_edge11_Node000005_Node000008"><a xlink:title=" ">
<path fill="none" stroke="#63b8ff" d="M445.44,-116.07C485.46,-105.01 544.62,-88.66 580.65,-78.7"/>
<polygon fill="#63b8ff" stroke="#63b8ff" points="444.61,-112.66 435.9,-118.7 446.47,-119.41 444.61,-112.66"/>
</a>
</g>
</g>
<!-- Node5&#45;&gt;Node9 -->
<g id="edge12_Node000005_Node000009" class="edge">
<title>Node5&#45;&gt;Node9</title>
<g id="a_edge12_Node000005_Node000009"><a xlink:title=" ">
<path fill="none" stroke="#63b8ff" d="M464.13,-118.54C518.35,-110.13 599.71,-97 670.15,-83.5 673.07,-82.94 676.07,-82.35 679.09,-81.74"/>
<polygon fill="#63b8ff" stroke="#63b8ff" points="463.83,-115.04 454.48,-120.02 464.9,-121.96 463.83,-115.04"/>
</a>
</g>
</g>
<!-- Node5&#45;&gt;Node10 -->
<g id="edge13_Node000005_Node000010" class="edge">
<title>Node5&#45;&gt;Node10</title>
<g id="a_edge13_Node000005_Node000010"><a xlink:title=" ">
<path fill="none" stroke="#63b8ff" d="M464.41,-122.36C541.56,-115.21 678.07,-101.39 794.15,-83.5 803.08,-82.12 812.61,-80.42 821.65,-78.68"/>
<polygon fill="#63b8ff" stroke="#63b8ff" points="464.15,-118.87 454.52,-123.27 464.79,-125.84 464.15,-118.87"/>
</a>
</g>
</g>
<!-- Node5&#45;&gt;Node11 -->
<g id="edge14_Node000005_Node000011" class="edge">
<title>Node5&#45;&gt;Node11</title>
<g id="a_edge14_Node000005_Node000011"><a xlink:title=" ">
<path fill="none" stroke="#63b8ff" d="M464.19,-124.88C562.92,-119.74 763.6,-107.2 932.15,-83.5 941.21,-82.23 950.88,-80.52 960.01,-78.75"/>
<polygon fill="#63b8ff" stroke="#63b8ff" points="464.27,-121.37 454.47,-125.38 464.63,-128.36 464.27,-121.37"/>
</a>
</g>
</g>
<!-- Node13&#45;&gt;Node5 -->
<g id="edge21_Node000013_Node000005" class="edge">
<title>Node13&#45;&gt;Node5</title>
<g id="a_edge21_Node000013_Node000005"><a xlink:title=" ">
<path fill="none" stroke="#63b8ff" d="M395.06,-162.43C397.13,-154.07 399.43,-144.79 401.05,-138.26"/>
<polygon fill="#63b8ff" stroke="#63b8ff" points="391.67,-161.56 392.66,-172.11 398.46,-163.25 391.67,-161.56"/>
</a>
</g>
</g>
<!-- Node14&#45;&gt;Node4 -->
<g id="edge24_Node000014_Node000004" class="edge">
<title>Node14&#45;&gt;Node4</title>
<g id="a_edge24_Node000014_Node000004"><a xlink:title=" ">
<path fill="none" stroke="#63b8ff" d="M305.57,-220.5C264.98,-182.9 167.94,-92.42 164.15,-83.5 154.65,-61.15 167.93,-32.61 175.9,-18.67"/>
<polygon fill="#63b8ff" stroke="#63b8ff" points="303.13,-223.01 312.84,-227.23 307.88,-217.87 303.13,-223.01"/>
</a>
</g>
</g>
<!-- Node14&#45;&gt;Node5 -->
<g id="edge25_Node000014_Node000005" class="edge">
<title>Node14&#45;&gt;Node5</title>
<g id="a_edge25_Node000014_Node000005"><a xlink:title=" ">
<path fill="none" stroke="#63b8ff" d="M325.74,-217.18C328.24,-204.01 333.05,-186.79 342.15,-174 353.31,-158.33 371.76,-146.07 385.46,-138.46"/>
<polygon fill="#63b8ff" stroke="#63b8ff" points="322.33,-216.36 324.22,-226.79 329.24,-217.46 322.33,-216.36"/>
</a>
</g>
</g>
<!-- Node14&#45;&gt;Node13 -->
<g id="edge26_Node000014_Node000013" class="edge">
<title>Node14&#45;&gt;Node13</title>
<g id="a_edge26_Node000014_Node000013"><a xlink:title=" ">
<path fill="none" stroke="#63b8ff" d="M343,-221.2C354.87,-211.89 369.51,-200.43 379.29,-192.76"/>
<polygon fill="#63b8ff" stroke="#63b8ff" points="341.12,-218.22 335.41,-227.15 345.44,-223.73 341.12,-218.22"/>
</a>
</g>
</g>
<!-- Node15 -->
<g id="Node000015" class="node">
<title>Node15</title>
<g id="a_Node000015"><a xlink:href="world__idf_8cpp.html" target="_top" xlink:title="Contains the implementation of the WorldIDF class.">
<polygon fill="white" stroke="#666666" points="245.28,-192.5 173.03,-192.5 173.03,-174 245.28,-174 245.28,-192.5"/>
<text text-anchor="middle" x="209.15" y="-179" font-family="Helvetica,sans-Serif" font-size="10.00">world_idf.cpp</text>
</a>
</g>
</g>
<!-- Node14&#45;&gt;Node15 -->
<g id="edge27_Node000014_Node000015" class="edge">
<title>Node14&#45;&gt;Node15</title>
<g id="a_edge27_Node000014_Node000015"><a xlink:title=" ">
<path fill="none" stroke="#63b8ff" d="M294.15,-223.39C273.38,-213.83 246,-201.22 228.01,-192.93"/>
<polygon fill="#63b8ff" stroke="#63b8ff" points="292.41,-226.44 302.95,-227.45 295.33,-220.09 292.41,-226.44"/>
</a>
</g>
</g>
</g>
</svg>

<g id="navigator" transform="translate(0 0)" fill="#404254">
  <rect fill="#f2f5e9" fill-opacity="0.5" stroke="#606060" stroke-width=".5" x="0" y="0" width="60" height="60"/>
  <use id="zoomplus" xlink:href="#zoomPlus" x="17" y="9" onmousedown="handleZoom(evt,'in')"/>
  <use id="zoomminus" xlink:href="#zoomMin" x="42" y="9" onmousedown="handleZoom(evt,'out')"/>
  <use id="reset" xlink:href="#resetDef" x="30" y="36" onmousedown="handleReset()"/>
   <use id="arrowup" xlink:href="#arrowUp" x="0" y="0" onmousedown="handlePan(0,-1)"/>
  <use id="arrowright" xlink:href="#arrowRight" x="0" y="0" onmousedown="handlePan(1,0)"/>
  <use id="arrowdown" xlink:href="#arrowDown" x="0" y="0" onmousedown="handlePan(0,1)"/>
  <use id="arrowleft" xlink:href="#arrowLeft" x="0" y="0" onmousedown="handlePan(-1,0)"/>
</g>
<svg viewBox="0 0 15 15" width="100%" height="30px" preserveAspectRatio="xMaxYMin meet">
 <g id="arrow_out" transform="scale(0.3 0.3)">
  <a xlink:href="parameters_8h__dep__incl_org.svg" target="_base">
   <rect id="button" ry="5" rx="5" y="6" x="6" height="38" width="38"
        fill="#f2f5e9" fill-opacity="0.5" stroke="#606060" stroke-width="1.0"/>
   <path id="arrow"
     d="M 11.500037,31.436501 C 11.940474,20.09759 22.043105,11.32322 32.158766,21.979434 L 37.068811,17.246167 C 37.068811,17.246167 37.088388,32 37.088388,32 L 22.160133,31.978069 C 22.160133,31.978069 26.997745,27.140456 26.997745,27.140456 C 18.528582,18.264221 13.291696,25.230495 11.500037,31.436501 z"
     style="fill:#404040;"/>
  </a>
 </g>
</svg>

<style type='text/css'>
<![CDATA[
[data-mouse-over-selected='false'] { opacity: 0.7; }
[data-mouse-over-selected='true']  { opacity: 1.0; }
]]>
</style>
<script type="application/ecmascript"><![CDATA[
document.addEventListener('DOMContentLoaded', (event) => {
  highlightEdges();
  highlightAdjacentNodes();
});
]]></script>
</svg>
