<?xml version="1.0" encoding="UTF-8" standalone="no"?>
<!DOCTYPE svg PUBLIC "-//W3C//DTD SVG 1.1//EN"
 "http://www.w3.org/Graphics/SVG/1.1/DTD/svg11.dtd">
<!-- Generated by graphviz version 10.0.1 (0)
 -->
<!-- Title: parameters.h Pages: 1 -->
<!--zoomable 419 -->

<svg id="main" version="1.1" xmlns="http://www.w3.org/2000/svg" xmlns:xlink="http://www.w3.org/1999/xlink" xml:space="preserve" onload="init(evt)">
<style type="text/css"><![CDATA[
.node, .edge {opacity: 0.7;}
.node.selected, .edge.selected {opacity: 1;}
.edge:hover path { stroke: red; }
.edge:hover polygon { stroke: red; fill: red; }
]]></style>

<defs>
  <circle id="rim" cx="0" cy="0" r="7"/>
  <circle id="rim2" cx="0" cy="0" r="3.5"/>
  <g id="zoomPlus">
    <use xlink:href="#rim" fill="#404040"><set attributeName="fill" to="#808080" begin="zoomplus.mouseover" end="zoomplus.mouseout"/></use>
    <path d="M-4,0h8M0,-4v8" fill="none" stroke="white" stroke-width="1.5" pointer-events="none"/>
  </g>
  <g id="zoomMin">
    <use xlink:href="#rim" fill="#404040"><set attributeName="fill" to="#808080" begin="zoomminus.mouseover" end="zoomminus.mouseout"/></use>
    <path d="M-4,0h8" fill="none" stroke="white" stroke-width="1.5" pointer-events="none"/>
  </g>
  <g id="arrowUp" transform="translate(30 24)">
    <use xlink:href="#rim"/>
    <path pointer-events="none" fill="none" stroke="white" stroke-width="1.5" d="M0,-3.0v7 M-2.5,-0.5L0,-3.0L2.5,-0.5"/>
  </g>
  <g id="arrowRight" transform="rotate(90) translate(36 -43)">
    <use xlink:href="#rim"/>
    <path pointer-events="none" fill="none" stroke="white" stroke-width="1.5" d="M0,-3.0v7 M-2.5,-0.5L0,-3.0L2.5,-0.5"/>
  </g>
  <g id="arrowDown" transform="rotate(180) translate(-30 -48)">
    <use xlink:href="#rim"/>
    <path pointer-events="none" fill="none" stroke="white" stroke-width="1.5" d="M0,-3.0v7 M-2.5,-0.5L0,-3.0L2.5,-0.5"/>
  </g>
  <g id="arrowLeft" transform="rotate(270) translate(-36 17)">
    <use xlink:href="#rim"/>
    <path pointer-events="none" fill="none" stroke="white" stroke-width="1.5" d="M0,-3.0v7 M-2.5,-0.5L0,-3.0L2.5,-0.5"/>
  </g>
  <g id="resetDef">
    <use xlink:href="#rim2" fill="#404040"><set attributeName="fill" to="#808080" begin="reset.mouseover" end="reset.mouseout"/></use>
  </g>
</defs>
<script type="application/ecmascript">
var viewWidth = 1296;
var viewHeight = 419;
var sectionId = 'dynsection-1';
</script>
<script type="application/ecmascript" xlink:href="svg.min.js"/>
<svg id="graph" class="graph">
<g id="viewport">
<title>parameters.h</title>
<!-- Node1 -->
<g id="Node000001" class="node">
<title>Node1</title>
<g id="a_Node000001"><a xlink:title="Contains parameters.">
<polygon fill="#999999" stroke="#666666" points="743.21,-410.5 669.46,-410.5 669.46,-392 743.21,-392 743.21,-410.5"/>
<text text-anchor="middle" x="706.33" y="-397" font-family="Helvetica,sans-Serif" font-size="10.00">parameters.h</text>
</a>
</g>
</g>
<!-- Node2 -->
<g id="Node000002" class="node">
<title>Node2</title>
<g id="a_Node000002"><a xlink:href="abstract__controller_8h.html" target="_top" xlink:title="Contains the abstract class for coverage control algorithms.">
<polygon fill="white" stroke="#666666" points="682.58,-138 578.08,-138 578.08,-119.5 682.58,-119.5 682.58,-138"/>
<text text-anchor="middle" x="630.33" y="-124.5" font-family="Helvetica,sans-Serif" font-size="10.00">abstract_controller.h</text>
</a>
</g>
</g>
<!-- Node1&#45;&gt;Node2 -->
<g id="edge1_Node000001_Node000002" class="edge">
<title>Node1&#45;&gt;Node2</title>
<g id="a_edge1_Node000001_Node000002"><a xlink:title=" ">
<path fill="none" stroke="#63b8ff" d="M715.34,-381.37C718.54,-373.68 721.74,-364.6 723.33,-356 724.83,-347.92 724.22,-345.67 723.33,-337.5 714.23,-253.82 655.89,-165.57 636.55,-138.28"/>
<polygon fill="#63b8ff" stroke="#63b8ff" points="712.22,-379.77 711.32,-390.33 718.6,-382.64 712.22,-379.77"/>
</a>
</g>
</g>
<!-- Node3 -->
<g id="Node000003" class="node">
<title>Node3</title>
<g id="a_Node000003"><a xlink:href="centralized__cvt_8h.html" target="_top" xlink:title="Contains the class CentralizedCVT.">
<polygon fill="white" stroke="#666666" points="359.71,-78.25 270.96,-78.25 270.96,-59.75 359.71,-59.75 359.71,-78.25"/>
<text text-anchor="middle" x="315.33" y="-64.75" font-family="Helvetica,sans-Serif" font-size="10.00">centralized_cvt.h</text>
</a>
</g>
</g>
<!-- Node1&#45;&gt;Node3 -->
<g id="edge27_Node000001_Node000003" class="edge">
<title>Node1&#45;&gt;Node3</title>
<g id="a_edge27_Node000001_Node000003"><a xlink:title=" ">
<path fill="none" stroke="#63b8ff" d="M657.71,-398.55C544.01,-393.25 270.33,-372.29 270.33,-293.25 270.33,-293.25 270.33,-293.25 270.33,-182.25 270.33,-140.89 296.98,-96.71 309.26,-78.55"/>
<polygon fill="#63b8ff" stroke="#63b8ff" points="657.5,-402.04 667.65,-398.99 657.81,-395.05 657.5,-402.04"/>
</a>
</g>
</g>
<!-- Node4 -->
<g id="Node000004" class="node">
<title>Node4</title>
<g id="a_Node000004"><a xlink:href="clairvoyant__cvt_8h.html" target="_top" xlink:title="Clairvoyant CVT algorithm.">
<polygon fill="white" stroke="#666666" points="117.71,-78.25 28.96,-78.25 28.96,-59.75 117.71,-59.75 117.71,-78.25"/>
<text text-anchor="middle" x="73.33" y="-64.75" font-family="Helvetica,sans-Serif" font-size="10.00">clairvoyant_cvt.h</text>
</a>
</g>
</g>
<!-- Node1&#45;&gt;Node4 -->
<g id="edge28_Node000001_Node000004" class="edge">
<title>Node1&#45;&gt;Node4</title>
<g id="a_edge28_Node000001_Node000004"><a xlink:title=" ">
<path fill="none" stroke="#63b8ff" d="M657.9,-398.24C545.86,-393.26 271.55,-379.05 182.33,-356 116.31,-338.94 42.33,-361.44 42.33,-293.25 42.33,-293.25 42.33,-293.25 42.33,-182.25 42.33,-142.22 60.88,-96.96 69.28,-78.51"/>
<polygon fill="#63b8ff" stroke="#63b8ff" points="657.51,-401.73 667.66,-398.67 657.82,-394.74 657.51,-401.73"/>
</a>
</g>
</g>
<!-- Node5 -->
<g id="Node000005" class="node">
<title>Node5</title>
<g id="a_Node000005"><a xlink:href="coverage__algorithm_8cpp.html" target="_top" xlink:title="Program to test the CVT&#45;based (Lloyd&#39;s) coverage control algorithms.">
<polygon fill="white" stroke="#666666" points="289.71,-18.5 170.96,-18.5 170.96,0 289.71,0 289.71,-18.5"/>
<text text-anchor="middle" x="230.33" y="-5" font-family="Helvetica,sans-Serif" font-size="10.00">coverage_algorithm.cpp</text>
</a>
</g>
</g>
<!-- Node1&#45;&gt;Node5 -->
<g id="edge29_Node000001_Node000005" class="edge">
<title>Node1&#45;&gt;Node5</title>
<g id="a_edge29_Node000001_Node000005"><a xlink:title=" ">
<path fill="none" stroke="#63b8ff" d="M657.85,-398.88C517.41,-394.66 116.87,-380.56 63.33,-356 27.7,-339.65 1.33,-332.46 1.33,-293.25 1.33,-293.25 1.33,-293.25 1.33,-127.75 1.33,-94.12 -3.99,-77.73 20.33,-54.5 41.59,-34.2 116.39,-22.12 170.67,-15.83"/>
<polygon fill="#63b8ff" stroke="#63b8ff" points="657.45,-402.37 667.55,-399.17 657.66,-395.38 657.45,-402.37"/>
</a>
</g>
</g>
<!-- Node6 -->
<g id="Node000006" class="node">
<title>Node6</title>
<g id="a_Node000006"><a xlink:href="decentralized__cvt_8h.html" target="_top" xlink:title="Contains the DecentralizedCVT class.">
<polygon fill="white" stroke="#666666" points="638.96,-78.25 539.71,-78.25 539.71,-59.75 638.96,-59.75 638.96,-78.25"/>
<text text-anchor="middle" x="589.33" y="-64.75" font-family="Helvetica,sans-Serif" font-size="10.00">decentralized_cvt.h</text>
</a>
</g>
</g>
<!-- Node1&#45;&gt;Node6 -->
<g id="edge31_Node000001_Node000006" class="edge">
<title>Node1&#45;&gt;Node6</title>
<g id="a_edge31_Node000001_Node000006"><a xlink:title=" ">
<path fill="none" stroke="#63b8ff" d="M722.6,-383.1C728.8,-375.43 735.13,-365.89 738.33,-356 740.86,-348.18 739.08,-345.69 738.33,-337.5 732.68,-275.36 700.47,-131.02 691.33,-119.5 674.69,-98.53 646.94,-85.87 624.59,-78.61"/>
<polygon fill="#63b8ff" stroke="#63b8ff" points="720.02,-380.74 716.08,-390.57 725.29,-385.35 720.02,-380.74"/>
</a>
</g>
</g>
<!-- Node7 -->
<g id="Node000007" class="node">
<title>Node7</title>
<g id="a_Node000007"><a xlink:href="near__optimal__cvt_8h.html" target="_top" xlink:title="NearOptimalCVT class Global offline oracle: has complete information about the environment....">
<polygon fill="white" stroke="#666666" points="949.21,-78.25 851.46,-78.25 851.46,-59.75 949.21,-59.75 949.21,-78.25"/>
<text text-anchor="middle" x="900.33" y="-64.75" font-family="Helvetica,sans-Serif" font-size="10.00">near_optimal_cvt.h</text>
</a>
</g>
</g>
<!-- Node1&#45;&gt;Node7 -->
<g id="edge40_Node000001_Node000007" class="edge">
<title>Node1&#45;&gt;Node7</title>
<g id="a_edge40_Node000001_Node000007"><a xlink:title=" ">
<path fill="none" stroke="#63b8ff" d="M754.9,-398.71C822.93,-393.68 938.33,-373.34 938.33,-293.25 938.33,-293.25 938.33,-293.25 938.33,-182.25 938.33,-141.72 915.83,-97.1 905.46,-78.68"/>
<polygon fill="#63b8ff" stroke="#63b8ff" points="754.87,-395.21 745.12,-399.35 755.32,-402.2 754.87,-395.21"/>
</a>
</g>
</g>
<!-- Node8 -->
<g id="Node000008" class="node">
<title>Node8</title>
<g id="a_Node000008"><a xlink:href="oracle__bang__explore__exploit_8h.html" target="_top" xlink:title="First trial of oracle with exploration and exploitation. The oracle uses complete information about t...">
<polygon fill="white" stroke="#666666" points="800.96,-83.5 695.71,-83.5 695.71,-54.5 800.96,-54.5 800.96,-83.5"/>
<text text-anchor="start" x="703.71" y="-70" font-family="Helvetica,sans-Serif" font-size="10.00">oracle_bang_explore</text>
<text text-anchor="middle" x="748.33" y="-59.5" font-family="Helvetica,sans-Serif" font-size="10.00">_exploit.h</text>
</a>
</g>
</g>
<!-- Node1&#45;&gt;Node8 -->
<g id="edge44_Node000001_Node000008" class="edge">
<title>Node1&#45;&gt;Node8</title>
<g id="a_edge44_Node000001_Node000008"><a xlink:title=" ">
<path fill="none" stroke="#63b8ff" d="M754.66,-388.88C800.47,-374.89 862.33,-346.19 862.33,-293.25 862.33,-293.25 862.33,-293.25 862.33,-182.25 862.33,-135.45 812.94,-101.63 779.18,-83.97"/>
<polygon fill="#63b8ff" stroke="#63b8ff" points="753.79,-385.49 745.15,-391.63 755.73,-392.21 753.79,-385.49"/>
</a>
</g>
</g>
<!-- Node9 -->
<g id="Node000009" class="node">
<title>Node9</title>
<g id="a_Node000009"><a xlink:href="oracle__explore__exploit_8h.html" target="_top" xlink:title="Old trial of exploration and exploitation Uses system map for exploration as well.">
<polygon fill="white" stroke="#666666" points="1093.46,-78.25 973.21,-78.25 973.21,-59.75 1093.46,-59.75 1093.46,-78.25"/>
<text text-anchor="middle" x="1033.33" y="-64.75" font-family="Helvetica,sans-Serif" font-size="10.00">oracle_explore_exploit.h</text>
</a>
</g>
</g>
<!-- Node1&#45;&gt;Node9 -->
<g id="edge45_Node000001_Node000009" class="edge">
<title>Node1&#45;&gt;Node9</title>
<g id="a_edge45_Node000001_Node000009"><a xlink:title=" ">
<path fill="none" stroke="#63b8ff" d="M754.99,-399.41C875.16,-396.03 1176.33,-379 1176.33,-293.25 1176.33,-293.25 1176.33,-293.25 1176.33,-182.25 1176.33,-125.28 1105.24,-92.84 1063.31,-78.67"/>
<polygon fill="#63b8ff" stroke="#63b8ff" points="755.02,-395.91 745.12,-399.67 755.2,-402.91 755.02,-395.91"/>
</a>
</g>
</g>
<!-- Node10 -->
<g id="Node000010" class="node">
<title>Node10</title>
<g id="a_Node000010"><a xlink:href="simul__explore__exploit_8h.html" target="_top" xlink:title="Simultaneous exploration and exploitation algorithm Uses frontier&#45;based exploration with bias towards...">
<polygon fill="white" stroke="#666666" points="252.96,-78.25 135.71,-78.25 135.71,-59.75 252.96,-59.75 252.96,-78.25"/>
<text text-anchor="middle" x="194.33" y="-64.75" font-family="Helvetica,sans-Serif" font-size="10.00">simul_explore_exploit.h</text>
</a>
</g>
</g>
<!-- Node1&#45;&gt;Node10 -->
<g id="edge48_Node000001_Node000010" class="edge">
<title>Node1&#45;&gt;Node10</title>
<g id="a_edge48_Node000001_Node000010"><a xlink:title=" ">
<path fill="none" stroke="#63b8ff" d="M657.82,-401.03C523.46,-401.9 156.33,-394.98 156.33,-293.25 156.33,-293.25 156.33,-293.25 156.33,-182.25 156.33,-141.72 178.83,-97.1 189.21,-78.68"/>
<polygon fill="#63b8ff" stroke="#63b8ff" points="657.48,-404.53 667.45,-400.95 657.42,-397.54 657.48,-404.53"/>
</a>
</g>
</g>
<!-- Node11 -->
<g id="Node000011" class="node">
<title>Node11</title>
<g id="a_Node000011"><a xlink:href="bivariate__normal__distribution_8h.html" target="_top" xlink:title="Class for Bivariate Normal Distribution.">
<polygon fill="white" stroke="#666666" points="658.96,-356 511.71,-356 511.71,-337.5 658.96,-337.5 658.96,-356"/>
<text text-anchor="middle" x="585.33" y="-342.5" font-family="Helvetica,sans-Serif" font-size="10.00">bivariate_normal_distribution.h</text>
</a>
</g>
</g>
<!-- Node1&#45;&gt;Node11 -->
<g id="edge10_Node000001_Node000011" class="edge">
<title>Node1&#45;&gt;Node11</title>
<g id="a_edge10_Node000001_Node000011"><a xlink:title=" ">
<path fill="none" stroke="#63b8ff" d="M675.85,-387.03C653.77,-377.44 624.53,-364.76 605.34,-356.43"/>
<polygon fill="#63b8ff" stroke="#63b8ff" points="674.39,-390.21 684.96,-390.98 677.18,-383.79 674.39,-390.21"/>
</a>
</g>
</g>
<!-- Node12 -->
<g id="Node000012" class="node">
<title>Node12</title>
<g id="a_Node000012"><a xlink:href="coverage__system_8h.html" target="_top" xlink:title="The file contains the CoverageSystem class, which is the main class for the coverage control library.">
<polygon fill="white" stroke="#666666" points="599.96,-192.5 500.71,-192.5 500.71,-174 599.96,-174 599.96,-192.5"/>
<text text-anchor="middle" x="550.33" y="-179" font-family="Helvetica,sans-Serif" font-size="10.00">coverage_system.h</text>
</a>
</g>
</g>
<!-- Node1&#45;&gt;Node12 -->
<g id="edge30_Node000001_Node000012" class="edge">
<title>Node1&#45;&gt;Node12</title>
<g id="a_edge30_Node000001_Node000012"><a xlink:title=" ">
<path fill="none" stroke="#63b8ff" d="M708.37,-380.4C709.95,-356.01 709.65,-314.04 693.33,-283 668.34,-235.47 608.97,-206.29 575.11,-192.93"/>
<polygon fill="#63b8ff" stroke="#63b8ff" points="704.9,-379.92 707.54,-390.18 711.87,-380.51 704.9,-379.92"/>
</a>
</g>
</g>
<!-- Node14 -->
<g id="Node000014" class="node">
<title>Node14</title>
<g id="a_Node000014"><a xlink:href="world__idf_8h.html" target="_top" xlink:title="Contains the class for Importance Density Function (IDF) for the world.">
<polygon fill="white" stroke="#666666" points="684.21,-301.5 622.46,-301.5 622.46,-283 684.21,-283 684.21,-301.5"/>
<text text-anchor="middle" x="653.33" y="-288" font-family="Helvetica,sans-Serif" font-size="10.00">world_idf.h</text>
</a>
</g>
</g>
<!-- Node1&#45;&gt;Node14 -->
<g id="edge49_Node000001_Node000014" class="edge">
<title>Node1&#45;&gt;Node14</title>
<g id="a_edge49_Node000001_Node000014"><a xlink:title=" ">
<path fill="none" stroke="#63b8ff" d="M697.21,-381.84C685.65,-358.51 666.2,-319.23 657.62,-301.9"/>
<polygon fill="#63b8ff" stroke="#63b8ff" points="693.93,-383.09 701.5,-390.5 700.2,-379.98 693.93,-383.09"/>
</a>
</g>
</g>
<!-- Node15 -->
<g id="Node000015" class="node">
<title>Node15</title>
<g id="a_Node000015"><a xlink:href="robot__model_8h.html" target="_top" xlink:title="Class for handling the robot model.">
<polygon fill="white" stroke="#666666" points="566.08,-247 488.58,-247 488.58,-228.5 566.08,-228.5 566.08,-247"/>
<text text-anchor="middle" x="527.33" y="-233.5" font-family="Helvetica,sans-Serif" font-size="10.00">robot_model.h</text>
</a>
</g>
</g>
<!-- Node1&#45;&gt;Node15 -->
<g id="edge47_Node000001_Node000015" class="edge">
<title>Node1&#45;&gt;Node15</title>
<g id="a_edge47_Node000001_Node000015"><a xlink:title=" ">
<path fill="none" stroke="#63b8ff" d="M657.96,-396.62C603.94,-391.44 521.51,-379.79 502.33,-356 488.68,-339.07 513.98,-271.63 523.73,-247.44"/>
<polygon fill="#63b8ff" stroke="#63b8ff" points="657.58,-400.1 667.86,-397.52 658.21,-393.13 657.58,-400.1"/>
</a>
</g>
</g>
<!-- Node16 -->
<g id="Node000016" class="node">
<title>Node16</title>
<g id="a_Node000016"><a xlink:href="map__utils_8h.html" target="_top" xlink:title="Utility functions for transforming maps.">
<polygon fill="white" stroke="#666666" points="455.46,-356 389.21,-356 389.21,-337.5 455.46,-337.5 455.46,-356"/>
<text text-anchor="middle" x="422.33" y="-342.5" font-family="Helvetica,sans-Serif" font-size="10.00">map_utils.h</text>
</a>
</g>
</g>
<!-- Node1&#45;&gt;Node16 -->
<g id="edge32_Node000001_Node000016" class="edge">
<title>Node1&#45;&gt;Node16</title>
<g id="a_edge32_Node000001_Node000016"><a xlink:title=" ">
<path fill="none" stroke="#63b8ff" d="M658.23,-391.36C600.75,-380.73 506.08,-363.23 455.93,-353.96"/>
<polygon fill="#63b8ff" stroke="#63b8ff" points="657.25,-394.74 667.71,-393.11 658.52,-387.85 657.25,-394.74"/>
</a>
</g>
</g>
<!-- Node17 -->
<g id="Node000017" class="node">
<title>Node17</title>
<g id="a_Node000017"><a xlink:href="near__optimal__cvt__algorithm_8h.html" target="_top" xlink:title="Near Optimal Centroidal Voronoi Tessellation (CVT) algorithm Near&#45;optimal Centroidal Voronoi Tessella...">
<polygon fill="white" stroke="#666666" points="1110.08,-138 966.58,-138 966.58,-119.5 1110.08,-119.5 1110.08,-138"/>
<text text-anchor="middle" x="1038.33" y="-124.5" font-family="Helvetica,sans-Serif" font-size="10.00">near_optimal_cvt_algorithm.h</text>
</a>
</g>
</g>
<!-- Node1&#45;&gt;Node17 -->
<g id="edge41_Node000001_Node000017" class="edge">
<title>Node1&#45;&gt;Node17</title>
<g id="a_edge41_Node000001_Node000017"><a xlink:title=" ">
<path fill="none" stroke="#63b8ff" d="M754.72,-400.79C806.75,-399.34 890.35,-391.04 952.33,-356 984.61,-337.75 1007.33,-330.34 1007.33,-293.25 1007.33,-293.25 1007.33,-293.25 1007.33,-236.75 1007.33,-198.84 1025.5,-156.26 1034.02,-138.38"/>
<polygon fill="#63b8ff" stroke="#63b8ff" points="754.92,-397.28 744.99,-400.97 755.06,-404.28 754.92,-397.28"/>
</a>
</g>
</g>
<!-- Node18 -->
<g id="Node000018" class="node">
<title>Node18</title>
<g id="a_Node000018"><a xlink:href="parameters_8cpp.html" target="_top" xlink:title="Parses toml configuration file and sets parameters.">
<polygon fill="white" stroke="#666666" points="1288.46,-356 1204.21,-356 1204.21,-337.5 1288.46,-337.5 1288.46,-356"/>
<text text-anchor="middle" x="1246.33" y="-342.5" font-family="Helvetica,sans-Serif" font-size="10.00">parameters.cpp</text>
</a>
</g>
</g>
<!-- Node1&#45;&gt;Node18 -->
<g id="edge46_Node000001_Node000018" class="edge">
<title>Node1&#45;&gt;Node18</title>
<g id="a_edge46_Node000001_Node000018"><a xlink:title=" ">
<path fill="none" stroke="#63b8ff" d="M754.82,-396.71C842.09,-390.13 1031.33,-374.97 1190.33,-356 1194.72,-355.48 1199.3,-354.88 1203.86,-354.26"/>
<polygon fill="#63b8ff" stroke="#63b8ff" points="754.66,-393.21 744.95,-397.45 755.19,-400.19 754.66,-393.21"/>
</a>
</g>
</g>
<!-- Node2&#45;&gt;Node3 -->
<g id="edge2_Node000002_Node000003" class="edge">
<title>Node2&#45;&gt;Node3</title>
<g id="a_edge2_Node000002_Node000003"><a xlink:title=" ">
<path fill="none" stroke="#63b8ff" d="M571.8,-117.02C510.55,-105.79 415.71,-88.4 360.15,-78.22"/>
<polygon fill="#63b8ff" stroke="#63b8ff" points="570.88,-120.41 581.34,-118.77 572.14,-113.52 570.88,-120.41"/>
</a>
</g>
</g>
<!-- Node2&#45;&gt;Node4 -->
<g id="edge3_Node000002_Node000004" class="edge">
<title>Node2&#45;&gt;Node4</title>
<g id="a_edge3_Node000002_Node000004"><a xlink:title=" ">
<path fill="none" stroke="#63b8ff" d="M566.35,-122.41C435.48,-111.45 147.69,-87.13 126.33,-83.5 119.03,-82.26 111.26,-80.52 103.98,-78.7"/>
<polygon fill="#63b8ff" stroke="#63b8ff" points="565.99,-125.89 576.25,-123.24 566.57,-118.92 565.99,-125.89"/>
</a>
</g>
</g>
<!-- Node2&#45;&gt;Node6 -->
<g id="edge5_Node000002_Node000006" class="edge">
<title>Node2&#45;&gt;Node6</title>
<g id="a_edge5_Node000002_Node000006"><a xlink:title=" ">
<path fill="none" stroke="#63b8ff" d="M617.82,-110.13C610.39,-99.66 601.29,-86.84 595.41,-78.56"/>
<polygon fill="#63b8ff" stroke="#63b8ff" points="614.76,-111.87 623.41,-117.99 620.47,-107.81 614.76,-111.87"/>
</a>
</g>
</g>
<!-- Node2&#45;&gt;Node7 -->
<g id="edge6_Node000002_Node000007" class="edge">
<title>Node2&#45;&gt;Node7</title>
<g id="a_edge6_Node000002_Node000007"><a xlink:title=" ">
<path fill="none" stroke="#63b8ff" d="M682.3,-116.63C734.04,-105.57 812.39,-88.81 859.73,-78.68"/>
<polygon fill="#63b8ff" stroke="#63b8ff" points="681.57,-113.21 672.53,-118.73 683.04,-120.06 681.57,-113.21"/>
</a>
</g>
</g>
<!-- Node2&#45;&gt;Node8 -->
<g id="edge7_Node000002_Node000008" class="edge">
<title>Node2&#45;&gt;Node8</title>
<g id="a_edge7_Node000002_Node000008"><a xlink:title=" ">
<path fill="none" stroke="#63b8ff" d="M658.21,-114.11C676.84,-104.99 701.26,-93.04 719.99,-83.87"/>
<polygon fill="#63b8ff" stroke="#63b8ff" points="656.8,-110.9 649.36,-118.44 659.88,-117.19 656.8,-110.9"/>
</a>
</g>
</g>
<!-- Node2&#45;&gt;Node9 -->
<g id="edge8_Node000002_Node000009" class="edge">
<title>Node2&#45;&gt;Node9</title>
<g id="a_edge8_Node000002_Node000009"><a xlink:title=" ">
<path fill="none" stroke="#63b8ff" d="M694.05,-120C760.23,-111.75 866.71,-97.92 958.33,-83.5 967.48,-82.06 977.23,-80.4 986.58,-78.74"/>
<polygon fill="#63b8ff" stroke="#63b8ff" points="693.98,-116.48 684.48,-121.18 694.84,-123.43 693.98,-116.48"/>
</a>
</g>
</g>
<!-- Node2&#45;&gt;Node10 -->
<g id="edge9_Node000002_Node000010" class="edge">
<title>Node2&#45;&gt;Node10</title>
<g id="a_edge9_Node000002_Node000010"><a xlink:title=" ">
<path fill="none" stroke="#63b8ff" d="M566.39,-121.56C492.82,-114.08 368.5,-100.4 262.33,-83.5 253.65,-82.12 244.4,-80.43 235.59,-78.72"/>
<polygon fill="#63b8ff" stroke="#63b8ff" points="565.94,-125.03 576.24,-122.55 566.64,-118.06 565.94,-125.03"/>
</a>
</g>
</g>
<!-- Node4&#45;&gt;Node5 -->
<g id="edge4_Node000004_Node000005" class="edge">
<title>Node4&#45;&gt;Node5</title>
<g id="a_edge4_Node000004_Node000005"><a xlink:title=" ">
<path fill="none" stroke="#63b8ff" d="M107.64,-55.38C137.62,-44.35 180.35,-28.63 206.67,-18.95"/>
<polygon fill="#63b8ff" stroke="#63b8ff" points="106.43,-52.09 98.26,-58.83 108.85,-58.66 106.43,-52.09"/>
</a>
</g>
</g>
<!-- Node11&#45;&gt;Node12 -->
<g id="edge11_Node000011_Node000012" class="edge">
<title>Node11&#45;&gt;Node12</title>
<g id="a_edge11_Node000011_Node000012"><a xlink:title=" ">
<path fill="none" stroke="#63b8ff" d="M586.18,-326.01C586.62,-302.3 585.56,-261.6 575.33,-228.5 571.22,-215.18 562.66,-201.45 556.71,-192.88"/>
<polygon fill="#63b8ff" stroke="#63b8ff" points="582.69,-325.65 585.87,-335.76 589.68,-325.87 582.69,-325.65"/>
</a>
</g>
</g>
<!-- Node11&#45;&gt;Node14 -->
<g id="edge22_Node000011_Node000014" class="edge">
<title>Node11&#45;&gt;Node14</title>
<g id="a_edge22_Node000011_Node000014"><a xlink:title=" ">
<path fill="none" stroke="#63b8ff" d="M605.48,-330.2C617.53,-320.89 632.38,-309.43 642.31,-301.76"/>
<polygon fill="#63b8ff" stroke="#63b8ff" points="603.53,-327.27 597.76,-336.16 607.81,-332.81 603.53,-327.27"/>
</a>
</g>
</g>
<!-- Node12&#45;&gt;Node2 -->
<g id="edge12_Node000012_Node000002" class="edge">
<title>Node12&#45;&gt;Node2</title>
<g id="a_edge12_Node000012_Node000002"><a xlink:title=" ">
<path fill="none" stroke="#63b8ff" d="M573.13,-167.29C587.36,-157.95 605.17,-146.26 617.1,-138.43"/>
<polygon fill="#63b8ff" stroke="#63b8ff" points="571.25,-164.34 564.81,-172.75 575.09,-170.19 571.25,-164.34"/>
</a>
</g>
</g>
<!-- Node12&#45;&gt;Node3 -->
<g id="edge13_Node000012_Node000003" class="edge">
<title>Node12&#45;&gt;Node3</title>
<g id="a_edge13_Node000012_Node000003"><a xlink:title=" ">
<path fill="none" stroke="#63b8ff" d="M489.01,-177.07C432.59,-171.05 354.43,-159.13 332.33,-138 315.8,-122.19 314.38,-92.93 314.79,-78.5"/>
<polygon fill="#63b8ff" stroke="#63b8ff" points="488.52,-180.54 498.83,-178.08 489.24,-173.57 488.52,-180.54"/>
</a>
</g>
</g>
<!-- Node12&#45;&gt;Node4 -->
<g id="edge14_Node000012_Node000004" class="edge">
<title>Node12&#45;&gt;Node4</title>
<g id="a_edge14_Node000012_Node000004"><a xlink:title=" ">
<path fill="none" stroke="#63b8ff" d="M489.24,-175.36C433.12,-168.34 347.91,-155.93 275.33,-138 208.33,-121.45 131.74,-92.93 95.1,-78.66"/>
<polygon fill="#63b8ff" stroke="#63b8ff" points="488.55,-178.8 498.9,-176.55 489.41,-171.85 488.55,-178.8"/>
</a>
</g>
</g>
<!-- Node12&#45;&gt;Node5 -->
<g id="edge15_Node000012_Node000005" class="edge">
<title>Node12&#45;&gt;Node5</title>
<g id="a_edge15_Node000012_Node000005"><a xlink:title=" ">
<path fill="none" stroke="#63b8ff" d="M489.15,-175.99C460.17,-170.23 426.85,-159.18 403.33,-138 373.43,-111.07 397.99,-81.69 368.33,-54.5 346.91,-34.86 316.73,-23.94 290.05,-17.86"/>
<polygon fill="#63b8ff" stroke="#63b8ff" points="488.47,-179.43 498.94,-177.75 489.71,-172.54 488.47,-179.43"/>
</a>
</g>
</g>
<!-- Node12&#45;&gt;Node6 -->
<g id="edge17_Node000012_Node000006" class="edge">
<title>Node12&#45;&gt;Node6</title>
<g id="a_edge17_Node000012_Node000006"><a xlink:title=" ">
<path fill="none" stroke="#63b8ff" d="M555.75,-162.74C559.33,-150.28 564.28,-133.83 569.33,-119.5 574.45,-104.99 581.34,-88.48 585.55,-78.67"/>
<polygon fill="#63b8ff" stroke="#63b8ff" points="552.43,-161.61 553.08,-172.19 559.17,-163.51 552.43,-161.61"/>
</a>
</g>
</g>
<!-- Node12&#45;&gt;Node7 -->
<g id="edge18_Node000012_Node000007" class="edge">
<title>Node12&#45;&gt;Node7</title>
<g id="a_edge18_Node000012_Node000007"><a xlink:title=" ">
<path fill="none" stroke="#63b8ff" d="M597.71,-170.87C631.1,-162.55 676.74,-150.56 716.33,-138 775.9,-119.1 844.61,-92.36 878.75,-78.72"/>
<polygon fill="#63b8ff" stroke="#63b8ff" points="597.22,-167.39 588.35,-173.19 598.9,-174.18 597.22,-167.39"/>
</a>
</g>
</g>
<!-- Node12&#45;&gt;Node8 -->
<g id="edge19_Node000012_Node000008" class="edge">
<title>Node12&#45;&gt;Node8</title>
<g id="a_edge19_Node000012_Node000008"><a xlink:title=" ">
<path fill="none" stroke="#63b8ff" d="M611.3,-171.14C637.46,-164.42 667.43,-153.95 691.33,-138 712.73,-123.72 730.46,-99.13 740.21,-83.76"/>
<polygon fill="#63b8ff" stroke="#63b8ff" points="610.71,-167.68 601.82,-173.44 612.36,-174.49 610.71,-167.68"/>
</a>
</g>
</g>
<!-- Node12&#45;&gt;Node9 -->
<g id="edge20_Node000012_Node000009" class="edge">
<title>Node12&#45;&gt;Node9</title>
<g id="a_edge20_Node000012_Node000009"><a xlink:title=" ">
<path fill="none" stroke="#63b8ff" d="M603.88,-171.19C645.52,-162.49 704.68,-149.88 756.33,-138 844.16,-117.79 947.11,-91.95 999.29,-78.7"/>
<polygon fill="#63b8ff" stroke="#63b8ff" points="603.18,-167.76 594.11,-173.23 604.61,-174.62 603.18,-167.76"/>
</a>
</g>
</g>
<!-- Node12&#45;&gt;Node10 -->
<g id="edge21_Node000012_Node000010" class="edge">
<title>Node12&#45;&gt;Node10</title>
<g id="a_edge21_Node000012_Node000010"><a xlink:title=" ">
<path fill="none" stroke="#63b8ff" d="M489.07,-176C441.25,-169.85 373.68,-158.34 317.33,-138 274.18,-122.43 228.07,-93.05 206.62,-78.55"/>
<polygon fill="#63b8ff" stroke="#63b8ff" points="488.63,-179.47 498.98,-177.23 489.49,-172.53 488.63,-179.47"/>
</a>
</g>
</g>
<!-- Node13 -->
<g id="Node000013" class="node">
<title>Node13</title>
<g id="a_Node000013"><a xlink:href="coverage__system_8cpp.html" target="_top" xlink:title="Contains the implementation of the CoverageSystem class.">
<polygon fill="white" stroke="#666666" points="522.21,-138 412.46,-138 412.46,-119.5 522.21,-119.5 522.21,-138"/>
<text text-anchor="middle" x="467.33" y="-124.5" font-family="Helvetica,sans-Serif" font-size="10.00">coverage_system.cpp</text>
</a>
</g>
</g>
<!-- Node12&#45;&gt;Node13 -->
<g id="edge16_Node000012_Node000013" class="edge">
<title>Node12&#45;&gt;Node13</title>
<g id="a_edge16_Node000012_Node000013"><a xlink:title=" ">
<path fill="none" stroke="#63b8ff" d="M527.11,-167.56C512.28,-158.18 493.56,-146.34 481.06,-138.43"/>
<polygon fill="#63b8ff" stroke="#63b8ff" points="525.02,-170.38 535.35,-172.77 528.77,-164.47 525.02,-170.38"/>
</a>
</g>
</g>
<!-- Node14&#45;&gt;Node5 -->
<g id="edge23_Node000014_Node000005" class="edge">
<title>Node14&#45;&gt;Node5</title>
<g id="a_edge23_Node000014_Node000005"><a xlink:title=" ">
<path fill="none" stroke="#63b8ff" d="M696,-284.09C833.72,-259.58 1249.14,-173.91 1102.33,-54.5 1070.86,-28.9 481.98,-15.17 290.17,-11.36"/>
<polygon fill="#63b8ff" stroke="#63b8ff" points="695.42,-280.64 686.18,-285.81 696.63,-287.53 695.42,-280.64"/>
</a>
</g>
</g>
<!-- Node14&#45;&gt;Node12 -->
<g id="edge24_Node000014_Node000012" class="edge">
<title>Node14&#45;&gt;Node12</title>
<g id="a_edge24_Node000014_Node000012"><a xlink:title=" ">
<path fill="none" stroke="#63b8ff" d="M642.15,-272.74C633.75,-259.63 621.46,-242.03 608.33,-228.5 594.57,-214.32 576.04,-200.99 563.67,-192.74"/>
<polygon fill="#63b8ff" stroke="#63b8ff" points="639.18,-274.59 647.43,-281.23 645.12,-270.89 639.18,-274.59"/>
</a>
</g>
</g>
<!-- Node14&#45;&gt;Node15 -->
<g id="edge25_Node000014_Node000015" class="edge">
<title>Node14&#45;&gt;Node15</title>
<g id="a_edge25_Node000014_Node000015"><a xlink:title=" ">
<path fill="none" stroke="#63b8ff" d="M621.91,-278.16C598.87,-268.56 568.24,-255.8 548.17,-247.43"/>
<polygon fill="#63b8ff" stroke="#63b8ff" points="620.55,-281.38 631.13,-282 623.24,-274.92 620.55,-281.38"/>
</a>
</g>
</g>
<!-- Node15&#45;&gt;Node12 -->
<g id="edge26_Node000015_Node000012" class="edge">
<title>Node15&#45;&gt;Node12</title>
<g id="a_edge26_Node000015_Node000012"><a xlink:title=" ">
<path fill="none" stroke="#63b8ff" d="M535.63,-217.8C539.39,-209.22 543.64,-199.52 546.6,-192.76"/>
<polygon fill="#63b8ff" stroke="#63b8ff" points="532.54,-216.13 531.74,-226.69 538.96,-218.94 532.54,-216.13"/>
</a>
</g>
</g>
<!-- Node16&#45;&gt;Node4 -->
<g id="edge33_Node000016_Node000004" class="edge">
<title>Node16&#45;&gt;Node4</title>
<g id="a_edge33_Node000016_Node000004"><a xlink:title=" ">
<path fill="none" stroke="#63b8ff" d="M402.72,-330.25C338.26,-279.32 134.19,-118.09 84.38,-78.73"/>
<polygon fill="#63b8ff" stroke="#63b8ff" points="400.3,-332.8 410.32,-336.26 404.64,-327.31 400.3,-332.8"/>
</a>
</g>
</g>
<!-- Node16&#45;&gt;Node6 -->
<g id="edge35_Node000016_Node000006" class="edge">
<title>Node16&#45;&gt;Node6</title>
<g id="a_edge35_Node000016_Node000006"><a xlink:title=" ">
<path fill="none" stroke="#63b8ff" d="M411.42,-327.27C400.19,-306.48 384.33,-271.35 384.33,-238.75 384.33,-238.75 384.33,-238.75 384.33,-182.25 384.33,-153.11 382.38,-139.75 403.33,-119.5 439.61,-84.43 497.8,-73.51 539.44,-70.45"/>
<polygon fill="#63b8ff" stroke="#63b8ff" points="408.34,-328.94 416.3,-335.92 414.43,-325.49 408.34,-328.94"/>
</a>
</g>
</g>
<!-- Node16&#45;&gt;Node7 -->
<g id="edge36_Node000016_Node000007" class="edge">
<title>Node16&#45;&gt;Node7</title>
<g id="a_edge36_Node000016_Node000007"><a xlink:title=" ">
<path fill="none" stroke="#63b8ff" d="M429.42,-326.58C440.74,-296.91 463.28,-241.86 479.33,-228.5 525.41,-190.14 552.28,-210.94 609.33,-192.5 675.63,-171.07 692.1,-165.01 756.33,-138 802.97,-118.39 856.51,-92.07 883.26,-78.65"/>
<polygon fill="#63b8ff" stroke="#63b8ff" points="426.19,-325.22 425.95,-335.81 432.74,-327.68 426.19,-325.22"/>
</a>
</g>
</g>
<!-- Node16&#45;&gt;Node10 -->
<g id="edge38_Node000016_Node000010" class="edge">
<title>Node16&#45;&gt;Node10</title>
<g id="a_edge38_Node000016_Node000010"><a xlink:title=" ">
<path fill="none" stroke="#63b8ff" d="M407.92,-328.32C364.14,-275.37 233.69,-117.6 201.55,-78.73"/>
<polygon fill="#63b8ff" stroke="#63b8ff" points="405.22,-330.55 414.29,-336.03 410.62,-326.09 405.22,-330.55"/>
</a>
</g>
</g>
<!-- Node16&#45;&gt;Node12 -->
<g id="edge34_Node000016_Node000012" class="edge">
<title>Node16&#45;&gt;Node12</title>
<g id="a_edge34_Node000016_Node000012"><a xlink:title=" ">
<path fill="none" stroke="#63b8ff" d="M421.1,-325.86C420.6,-300.46 423.49,-256.45 446.33,-228.5 461.29,-210.19 485.21,-199.32 506.34,-192.93"/>
<polygon fill="#63b8ff" stroke="#63b8ff" points="417.59,-325.91 421.52,-335.75 424.59,-325.61 417.59,-325.91"/>
</a>
</g>
</g>
<!-- Node16&#45;&gt;Node14 -->
<g id="edge39_Node000016_Node000014" class="edge">
<title>Node16&#45;&gt;Node14</title>
<g id="a_edge39_Node000016_Node000014"><a xlink:title=" ">
<path fill="none" stroke="#63b8ff" d="M466.97,-335.6C512.62,-325.23 582.33,-309.39 622.29,-300.3"/>
<polygon fill="#63b8ff" stroke="#63b8ff" points="466.37,-332.15 457.4,-337.78 467.92,-338.98 466.37,-332.15"/>
</a>
</g>
</g>
<!-- Node16&#45;&gt;Node15 -->
<g id="edge37_Node000016_Node000015" class="edge">
<title>Node16&#45;&gt;Node15</title>
<g id="a_edge37_Node000016_Node000015"><a xlink:title=" ">
<path fill="none" stroke="#63b8ff" d="M442.33,-330.03C452.29,-321.88 464.31,-311.55 474.33,-301.5 492.45,-283.32 511.29,-259.68 520.88,-247.25"/>
<polygon fill="#63b8ff" stroke="#63b8ff" points="440.33,-327.15 434.73,-336.15 444.71,-332.61 440.33,-327.15"/>
</a>
</g>
</g>
<!-- Node17&#45;&gt;Node7 -->
<g id="edge42_Node000017_Node000007" class="edge">
<title>Node17&#45;&gt;Node7</title>
<g id="a_edge42_Node000017_Node000007"><a xlink:title=" ">
<path fill="none" stroke="#63b8ff" d="M1007.12,-114.69C980.83,-103.69 943.95,-88.26 921.13,-78.7"/>
<polygon fill="#63b8ff" stroke="#63b8ff" points="1005.7,-117.89 1016.27,-118.52 1008.4,-111.43 1005.7,-117.89"/>
</a>
</g>
</g>
<!-- Node17&#45;&gt;Node9 -->
<g id="edge43_Node000017_Node000009" class="edge">
<title>Node17&#45;&gt;Node9</title>
<g id="a_edge43_Node000017_Node000009"><a xlink:title=" ">
<path fill="none" stroke="#63b8ff" d="M1036.61,-107.83C1035.74,-97.83 1034.74,-86.25 1034.07,-78.56"/>
<polygon fill="#63b8ff" stroke="#63b8ff" points="1033.11,-108.06 1037.46,-117.72 1040.09,-107.46 1033.11,-108.06"/>
</a>
</g>
</g>
</g>
</svg>

<g id="navigator" transform="translate(0 0)" fill="#404254">
  <rect fill="#f2f5e9" fill-opacity="0.5" stroke="#606060" stroke-width=".5" x="0" y="0" width="60" height="60"/>
  <use id="zoomplus" xlink:href="#zoomPlus" x="17" y="9" onmousedown="handleZoom(evt,'in')"/>
  <use id="zoomminus" xlink:href="#zoomMin" x="42" y="9" onmousedown="handleZoom(evt,'out')"/>
  <use id="reset" xlink:href="#resetDef" x="30" y="36" onmousedown="handleReset()"/>
   <use id="arrowup" xlink:href="#arrowUp" x="0" y="0" onmousedown="handlePan(0,-1)"/>
  <use id="arrowright" xlink:href="#arrowRight" x="0" y="0" onmousedown="handlePan(1,0)"/>
  <use id="arrowdown" xlink:href="#arrowDown" x="0" y="0" onmousedown="handlePan(0,1)"/>
  <use id="arrowleft" xlink:href="#arrowLeft" x="0" y="0" onmousedown="handlePan(-1,0)"/>
</g>
<svg viewBox="0 0 15 15" width="100%" height="30px" preserveAspectRatio="xMaxYMin meet">
 <g id="arrow_out" transform="scale(0.3 0.3)">
  <a xlink:href="parameters_8h__dep__incl_org.svg" target="_base">
   <rect id="button" ry="5" rx="5" y="6" x="6" height="38" width="38"
        fill="#f2f5e9" fill-opacity="0.5" stroke="#606060" stroke-width="1.0"/>
   <path id="arrow"
     d="M 11.500037,31.436501 C 11.940474,20.09759 22.043105,11.32322 32.158766,21.979434 L 37.068811,17.246167 C 37.068811,17.246167 37.088388,32 37.088388,32 L 22.160133,31.978069 C 22.160133,31.978069 26.997745,27.140456 26.997745,27.140456 C 18.528582,18.264221 13.291696,25.230495 11.500037,31.436501 z"
     style="fill:#404040;"/>
  </a>
 </g>
</svg>

<style type='text/css'>
<![CDATA[
[data-mouse-over-selected='false'] { opacity: 0.7; }
[data-mouse-over-selected='true']  { opacity: 1.0; }
]]>
</style>
<script type="application/ecmascript"><![CDATA[
document.addEventListener('DOMContentLoaded', (event) => {
  highlightEdges();
  highlightAdjacentNodes();
});
]]></script>
</svg>
