<?xml version="1.0" encoding="UTF-8" standalone="no"?>
<!DOCTYPE svg PUBLIC "-//W3C//DTD SVG 1.1//EN"
 "http://www.w3.org/Graphics/SVG/1.1/DTD/svg11.dtd">
<!-- Generated by graphviz version 10.0.1 (0)
 -->
<!-- Title: parameters.h Pages: 1 -->
<svg width="1292pt" height="419pt"
 viewBox="0.00 0.00 1292.12 418.50" xmlns="http://www.w3.org/2000/svg" xmlns:xlink="http://www.w3.org/1999/xlink">
<g id="graph0" class="graph" transform="scale(1 1) rotate(0) translate(4 414.5)">
<title>parameters.h</title>
<!-- Node1 -->
<g id="Node000001" class="node">
<title>Node1</title>
<g id="a_Node000001"><a xlink:title="Contains parameters.">
<polygon fill="#999999" stroke="#666666" points="562.88,-410.5 489.12,-410.5 489.12,-392 562.88,-392 562.88,-410.5"/>
<text text-anchor="middle" x="526" y="-397" font-family="Helvetica,sans-Serif" font-size="10.00">parameters.h</text>
</a>
</g>
</g>
<!-- Node2 -->
<g id="Node000002" class="node">
<title>Node2</title>
<g id="a_Node000002"><a xlink:href="abstract__controller_8h.html" target="_top" xlink:title="Contains the abstract class for coverage control algorithms.">
<polygon fill="white" stroke="#666666" points="678.25,-138 573.75,-138 573.75,-119.5 678.25,-119.5 678.25,-138"/>
<text text-anchor="middle" x="626" y="-124.5" font-family="Helvetica,sans-Serif" font-size="10.00">abstract_controller.h</text>
</a>
</g>
</g>
<!-- Node1&#45;&gt;Node2 -->
<g id="edge1_Node000001_Node000002" class="edge">
<title>Node1&#45;&gt;Node2</title>
<g id="a_edge1_Node000001_Node000002"><a xlink:title=" ">
<path fill="none" stroke="#63b8ff" d="M573.72,-387.72C589.85,-381.02 606.23,-370.94 616,-356 662.9,-284.26 637.18,-170.63 628.5,-138.48"/>
<polygon fill="#63b8ff" stroke="#63b8ff" points="572.78,-384.34 564.64,-391.13 575.24,-390.89 572.78,-384.34"/>
</a>
</g>
</g>
<!-- Node3 -->
<g id="Node000003" class="node">
<title>Node3</title>
<g id="a_Node000003"><a xlink:href="centralized__cvt_8h.html" target="_top" xlink:title="Contains the class CentralizedCVT.">
<polygon fill="white" stroke="#666666" points="179.38,-78.25 90.62,-78.25 90.62,-59.75 179.38,-59.75 179.38,-78.25"/>
<text text-anchor="middle" x="135" y="-64.75" font-family="Helvetica,sans-Serif" font-size="10.00">centralized_cvt.h</text>
</a>
</g>
</g>
<!-- Node1&#45;&gt;Node3 -->
<g id="edge28_Node000001_Node000003" class="edge">
<title>Node1&#45;&gt;Node3</title>
<g id="a_edge28_Node000001_Node000003"><a xlink:title=" ">
<path fill="none" stroke="#63b8ff" d="M477.45,-397.86C390.15,-393 210.4,-380.33 153,-356 112.35,-338.77 76,-337.4 76,-293.25 76,-293.25 76,-293.25 76,-182.25 76,-139.1 110.58,-96.22 126.8,-78.5"/>
<polygon fill="#63b8ff" stroke="#63b8ff" points="477.2,-401.35 487.37,-398.4 477.57,-394.36 477.2,-401.35"/>
</a>
</g>
</g>
<!-- Node4 -->
<g id="Node000004" class="node">
<title>Node4</title>
<g id="a_Node000004"><a xlink:href="clairvoyant__cvt_8h.html" target="_top" xlink:title="Clairvoyant CVT algorithm.">
<polygon fill="white" stroke="#666666" points="286.38,-78.25 197.62,-78.25 197.62,-59.75 286.38,-59.75 286.38,-78.25"/>
<text text-anchor="middle" x="242" y="-64.75" font-family="Helvetica,sans-Serif" font-size="10.00">clairvoyant_cvt.h</text>
</a>
</g>
</g>
<!-- Node1&#45;&gt;Node4 -->
<g id="edge29_Node000001_Node000004" class="edge">
<title>Node1&#45;&gt;Node4</title>
<g id="a_edge29_Node000001_Node000004"><a xlink:title=" ">
<path fill="none" stroke="#63b8ff" d="M477.4,-397.86C368.42,-391.17 114,-367.58 114,-293.25 114,-293.25 114,-293.25 114,-182.25 114,-127.87 180.12,-93.67 217.32,-78.74"/>
<polygon fill="#63b8ff" stroke="#63b8ff" points="477.01,-401.34 487.2,-398.43 477.42,-394.35 477.01,-401.34"/>
</a>
</g>
</g>
<!-- Node5 -->
<g id="Node000005" class="node">
<title>Node5</title>
<g id="a_Node000005"><a xlink:href="coverage__algorithm_8cpp.html" target="_top" xlink:title="Program to test the CVT&#45;based (Lloyd&#39;s) coverage control algorithms.">
<polygon fill="white" stroke="#666666" points="211.38,-18.5 92.62,-18.5 92.62,0 211.38,0 211.38,-18.5"/>
<text text-anchor="middle" x="152" y="-5" font-family="Helvetica,sans-Serif" font-size="10.00">coverage_algorithm.cpp</text>
</a>
</g>
</g>
<!-- Node1&#45;&gt;Node5 -->
<g id="edge30_Node000001_Node000005" class="edge">
<title>Node1&#45;&gt;Node5</title>
<g id="a_edge30_Node000001_Node000005"><a xlink:title=" ">
<path fill="none" stroke="#63b8ff" d="M477.86,-400.6C347.96,-400.25 0,-390.27 0,-293.25 0,-293.25 0,-293.25 0,-127.75 0,-67.21 76.4,-33.45 120.87,-18.93"/>
<polygon fill="#63b8ff" stroke="#63b8ff" points="477.5,-404.1 487.5,-400.6 477.5,-397.1 477.5,-404.1"/>
</a>
</g>
</g>
<!-- Node6 -->
<g id="Node000006" class="node">
<title>Node6</title>
<g id="a_Node000006"><a xlink:href="decentralized__cvt_8h.html" target="_top" xlink:title="Contains the DecentralizedCVT class.">
<polygon fill="white" stroke="#666666" points="824.62,-78.25 725.38,-78.25 725.38,-59.75 824.62,-59.75 824.62,-78.25"/>
<text text-anchor="middle" x="775" y="-64.75" font-family="Helvetica,sans-Serif" font-size="10.00">decentralized_cvt.h</text>
</a>
</g>
</g>
<!-- Node1&#45;&gt;Node6 -->
<g id="edge32_Node000001_Node000006" class="edge">
<title>Node1&#45;&gt;Node6</title>
<g id="a_edge32_Node000001_Node000006"><a xlink:title=" ">
<path fill="none" stroke="#63b8ff" d="M574.18,-395.84C636.37,-389.43 740.45,-376.07 773,-356 802.66,-337.71 820,-328.09 820,-293.25 820,-293.25 820,-293.25 820,-182.25 820,-140.89 793.35,-96.71 781.07,-78.55"/>
<polygon fill="#63b8ff" stroke="#63b8ff" points="574.19,-392.32 564.59,-396.8 574.89,-399.28 574.19,-392.32"/>
</a>
</g>
</g>
<!-- Node7 -->
<g id="Node000007" class="node">
<title>Node7</title>
<g id="a_Node000007"><a xlink:href="near__optimal__cvt_8h.html" target="_top" xlink:title="NearOptimalCVT class Global offline oracle: has complete information about the environment....">
<polygon fill="white" stroke="#666666" points="982.88,-78.25 885.12,-78.25 885.12,-59.75 982.88,-59.75 982.88,-78.25"/>
<text text-anchor="middle" x="934" y="-64.75" font-family="Helvetica,sans-Serif" font-size="10.00">near_optimal_cvt.h</text>
</a>
</g>
</g>
<!-- Node1&#45;&gt;Node7 -->
<g id="edge41_Node000001_Node000007" class="edge">
<title>Node1&#45;&gt;Node7</title>
<g id="a_edge41_Node000001_Node000007"><a xlink:title=" ">
<path fill="none" stroke="#63b8ff" d="M574.56,-398.82C690.14,-394.1 972,-374.28 972,-293.25 972,-293.25 972,-293.25 972,-182.25 972,-141.72 949.5,-97.1 939.12,-78.68"/>
<polygon fill="#63b8ff" stroke="#63b8ff" points="574.63,-395.31 564.77,-399.2 574.9,-402.31 574.63,-395.31"/>
</a>
</g>
</g>
<!-- Node8 -->
<g id="Node000008" class="node">
<title>Node8</title>
<g id="a_Node000008"><a xlink:href="oracle__bang__explore__exploit_8h.html" target="_top" xlink:title="First trial of oracle with exploration and exploitation. The oracle uses complete information about t...">
<polygon fill="white" stroke="#666666" points="700.62,-83.5 595.38,-83.5 595.38,-54.5 700.62,-54.5 700.62,-83.5"/>
<text text-anchor="start" x="603.38" y="-70" font-family="Helvetica,sans-Serif" font-size="10.00">oracle_bang_explore</text>
<text text-anchor="middle" x="648" y="-59.5" font-family="Helvetica,sans-Serif" font-size="10.00">_exploit.h</text>
</a>
</g>
</g>
<!-- Node1&#45;&gt;Node8 -->
<g id="edge45_Node000001_Node000008" class="edge">
<title>Node1&#45;&gt;Node8</title>
<g id="a_edge45_Node000001_Node000008"><a xlink:title=" ">
<path fill="none" stroke="#63b8ff" d="M574.61,-400.68C648.85,-398.49 782,-382.18 782,-293.25 782,-293.25 782,-293.25 782,-236.75 782,-166.56 708.96,-109.12 670.73,-83.86"/>
<polygon fill="#63b8ff" stroke="#63b8ff" points="574.66,-397.17 564.74,-400.88 574.81,-404.17 574.66,-397.17"/>
</a>
</g>
</g>
<!-- Node9 -->
<g id="Node000009" class="node">
<title>Node9</title>
<g id="a_Node000009"><a xlink:href="oracle__explore__exploit_8h.html" target="_top" xlink:title="Old trial of exploration and exploitation Uses system map for exploration as well.">
<polygon fill="white" stroke="#666666" points="1126.12,-78.25 1005.88,-78.25 1005.88,-59.75 1126.12,-59.75 1126.12,-78.25"/>
<text text-anchor="middle" x="1066" y="-64.75" font-family="Helvetica,sans-Serif" font-size="10.00">oracle_explore_exploit.h</text>
</a>
</g>
</g>
<!-- Node1&#45;&gt;Node9 -->
<g id="edge46_Node000001_Node000009" class="edge">
<title>Node1&#45;&gt;Node9</title>
<g id="a_edge46_Node000001_Node000009"><a xlink:title=" ">
<path fill="none" stroke="#63b8ff" d="M574.49,-400.52C663.33,-400 857.65,-394.12 1016,-356 1088.66,-338.51 1172,-367.98 1172,-293.25 1172,-293.25 1172,-293.25 1172,-182.25 1172,-153.11 1171.18,-142.27 1153,-119.5 1137.28,-99.81 1111.46,-86.54 1092.02,-78.74"/>
<polygon fill="#63b8ff" stroke="#63b8ff" points="574.67,-397.02 564.68,-400.56 574.7,-404.02 574.67,-397.02"/>
</a>
</g>
</g>
<!-- Node10 -->
<g id="Node000010" class="node">
<title>Node10</title>
<g id="a_Node000010"><a xlink:href="simul__explore__exploit_8h.html" target="_top" xlink:title="Simultaneous exploration and exploitation algorithm Uses frontier&#45;based exploration with bias towards...">
<polygon fill="white" stroke="#666666" points="577.62,-78.25 460.38,-78.25 460.38,-59.75 577.62,-59.75 577.62,-78.25"/>
<text text-anchor="middle" x="519" y="-64.75" font-family="Helvetica,sans-Serif" font-size="10.00">simul_explore_exploit.h</text>
</a>
</g>
</g>
<!-- Node1&#45;&gt;Node10 -->
<g id="edge49_Node000001_Node000010" class="edge">
<title>Node1&#45;&gt;Node10</title>
<g id="a_edge49_Node000001_Node000010"><a xlink:title=" ">
<path fill="none" stroke="#63b8ff" d="M477.41,-399.38C405.28,-397.01 274.95,-388.25 243,-356 225.77,-338.61 236.78,-325.92 235,-301.5 228.89,-217.84 223.12,-176.14 285,-119.5 310.15,-96.47 399.36,-82.62 460.07,-75.64"/>
<polygon fill="#63b8ff" stroke="#63b8ff" points="477.28,-402.87 487.37,-399.67 477.48,-395.88 477.28,-402.87"/>
</a>
</g>
</g>
<!-- Node11 -->
<g id="Node000011" class="node">
<title>Node11</title>
<g id="a_Node000011"><a xlink:href="bivariate__normal__distribution_8h.html" target="_top" xlink:title="Class for Bivariate Normal Distribution.">
<polygon fill="white" stroke="#666666" points="429.62,-356 282.38,-356 282.38,-337.5 429.62,-337.5 429.62,-356"/>
<text text-anchor="middle" x="356" y="-342.5" font-family="Helvetica,sans-Serif" font-size="10.00">bivariate_normal_distribution.h</text>
</a>
</g>
</g>
<!-- Node1&#45;&gt;Node11 -->
<g id="edge10_Node000001_Node000011" class="edge">
<title>Node1&#45;&gt;Node11</title>
<g id="a_edge10_Node000001_Node000011"><a xlink:title=" ">
<path fill="none" stroke="#63b8ff" d="M486.95,-388.19C455.55,-378.49 412.18,-365.1 384.11,-356.43"/>
<polygon fill="#63b8ff" stroke="#63b8ff" points="485.89,-391.53 496.48,-391.13 487.96,-384.84 485.89,-391.53"/>
</a>
</g>
</g>
<!-- Node12 -->
<g id="Node000012" class="node">
<title>Node12</title>
<g id="a_Node000012"><a xlink:href="coverage__system_8h.html" target="_top" xlink:title="The file contains the CoverageSystem class, which is the main class for the coverage control library.">
<polygon fill="white" stroke="#666666" points="519.62,-192.5 420.38,-192.5 420.38,-174 519.62,-174 519.62,-192.5"/>
<text text-anchor="middle" x="470" y="-179" font-family="Helvetica,sans-Serif" font-size="10.00">coverage_system.h</text>
</a>
</g>
</g>
<!-- Node1&#45;&gt;Node12 -->
<g id="edge31_Node000001_Node000012" class="edge">
<title>Node1&#45;&gt;Node12</title>
<g id="a_edge31_Node000001_Node000012"><a xlink:title=" ">
<path fill="none" stroke="#63b8ff" d="M477.29,-398.91C411.25,-395.94 298.57,-386.43 273,-356 247.96,-326.21 183.93,-345.78 299,-228.5 315.81,-211.37 375.97,-198.65 420.2,-191.35"/>
<polygon fill="#63b8ff" stroke="#63b8ff" points="477,-402.4 487.14,-399.31 477.29,-395.4 477,-402.4"/>
</a>
</g>
</g>
<!-- Node14 -->
<g id="Node000014" class="node">
<title>Node14</title>
<g id="a_Node000014"><a xlink:href="world__idf_8h.html" target="_top" xlink:title="Contains the class for Importance Density Function (IDF) for the world.">
<polygon fill="white" stroke="#666666" points="449.88,-301.5 388.12,-301.5 388.12,-283 449.88,-283 449.88,-301.5"/>
<text text-anchor="middle" x="419" y="-288" font-family="Helvetica,sans-Serif" font-size="10.00">world_idf.h</text>
</a>
</g>
</g>
<!-- Node1&#45;&gt;Node14 -->
<g id="edge50_Node000001_Node000014" class="edge">
<title>Node1&#45;&gt;Node14</title>
<g id="a_edge50_Node000001_Node000014"><a xlink:title=" ">
<path fill="none" stroke="#63b8ff" d="M509.47,-383.72C486.42,-360.67 445.45,-319.7 427.65,-301.9"/>
<polygon fill="#63b8ff" stroke="#63b8ff" points="506.99,-386.19 516.53,-390.78 511.94,-381.24 506.99,-386.19"/>
</a>
</g>
</g>
<!-- Node15 -->
<g id="Node000015" class="node">
<title>Node15</title>
<g id="a_Node000015"><a xlink:href="robot__model_8h.html" target="_top" xlink:title="Class for handling the robot model.">
<polygon fill="white" stroke="#666666" points="525.75,-247 448.25,-247 448.25,-228.5 525.75,-228.5 525.75,-247"/>
<text text-anchor="middle" x="487" y="-233.5" font-family="Helvetica,sans-Serif" font-size="10.00">robot_model.h</text>
</a>
</g>
</g>
<!-- Node1&#45;&gt;Node15 -->
<g id="edge48_Node000001_Node000015" class="edge">
<title>Node1&#45;&gt;Node15</title>
<g id="a_edge48_Node000001_Node000015"><a xlink:title=" ">
<path fill="none" stroke="#63b8ff" d="M521.31,-380.84C512.81,-345.64 495.18,-272.61 489.11,-247.48"/>
<polygon fill="#63b8ff" stroke="#63b8ff" points="517.8,-381.2 523.55,-390.1 524.6,-379.55 517.8,-381.2"/>
</a>
</g>
</g>
<!-- Node17 -->
<g id="Node000017" class="node">
<title>Node17</title>
<g id="a_Node000017"><a xlink:href="map__utils_8h.html" target="_top" xlink:title="Utility functions for transforming maps.">
<polygon fill="white" stroke="#666666" points="607.12,-356 540.88,-356 540.88,-337.5 607.12,-337.5 607.12,-356"/>
<text text-anchor="middle" x="574" y="-342.5" font-family="Helvetica,sans-Serif" font-size="10.00">map_utils.h</text>
</a>
</g>
</g>
<!-- Node1&#45;&gt;Node17 -->
<g id="edge33_Node000001_Node000017" class="edge">
<title>Node1&#45;&gt;Node17</title>
<g id="a_edge33_Node000001_Node000017"><a xlink:title=" ">
<path fill="none" stroke="#63b8ff" d="M541.5,-383.3C549.76,-374.27 559.56,-363.55 566.22,-356.26"/>
<polygon fill="#63b8ff" stroke="#63b8ff" points="539.11,-380.72 534.95,-390.46 544.28,-385.45 539.11,-380.72"/>
</a>
</g>
</g>
<!-- Node18 -->
<g id="Node000018" class="node">
<title>Node18</title>
<g id="a_Node000018"><a xlink:href="near__optimal__cvt__algorithm_8h.html" target="_top" xlink:title="Near Optimal Centroidal Voronoi Tessellation (CVT) algorithm Near&#45;optimal Centroidal Voronoi Tessella...">
<polygon fill="white" stroke="#666666" points="1143.75,-138 1000.25,-138 1000.25,-119.5 1143.75,-119.5 1143.75,-138"/>
<text text-anchor="middle" x="1072" y="-124.5" font-family="Helvetica,sans-Serif" font-size="10.00">near_optimal_cvt_algorithm.h</text>
</a>
</g>
</g>
<!-- Node1&#45;&gt;Node18 -->
<g id="edge42_Node000001_Node000018" class="edge">
<title>Node1&#45;&gt;Node18</title>
<g id="a_edge42_Node000001_Node000018"><a xlink:title=" ">
<path fill="none" stroke="#63b8ff" d="M574.7,-400.05C677.95,-398.91 915.18,-392.29 986,-356 1019,-339.09 1041,-330.34 1041,-293.25 1041,-293.25 1041,-293.25 1041,-236.75 1041,-198.84 1059.17,-156.26 1067.69,-138.38"/>
<polygon fill="#63b8ff" stroke="#63b8ff" points="574.85,-396.55 564.89,-400.14 574.92,-403.55 574.85,-396.55"/>
</a>
</g>
</g>
<!-- Node19 -->
<g id="Node000019" class="node">
<title>Node19</title>
<g id="a_Node000019"><a xlink:href="parameters_8cpp.html" target="_top" xlink:title="Parses toml configuration file and sets parameters.">
<polygon fill="white" stroke="#666666" points="1284.12,-356 1199.88,-356 1199.88,-337.5 1284.12,-337.5 1284.12,-356"/>
<text text-anchor="middle" x="1242" y="-342.5" font-family="Helvetica,sans-Serif" font-size="10.00">parameters.cpp</text>
</a>
</g>
</g>
<!-- Node1&#45;&gt;Node19 -->
<g id="edge47_Node000001_Node000019" class="edge">
<title>Node1&#45;&gt;Node19</title>
<g id="a_edge47_Node000001_Node000019"><a xlink:title=" ">
<path fill="none" stroke="#63b8ff" d="M574.6,-398.31C684.01,-393.66 957.94,-380.41 1186,-356 1190.4,-355.53 1194.98,-354.97 1199.54,-354.37"/>
<polygon fill="#63b8ff" stroke="#63b8ff" points="574.66,-394.81 564.82,-398.72 574.95,-401.8 574.66,-394.81"/>
</a>
</g>
</g>
<!-- Node2&#45;&gt;Node3 -->
<g id="edge2_Node000002_Node000003" class="edge">
<title>Node2&#45;&gt;Node3</title>
<g id="a_edge2_Node000002_Node000003"><a xlink:title=" ">
<path fill="none" stroke="#63b8ff" d="M562.21,-124.18C476.75,-118.74 320.61,-106.49 189,-83.5 181.67,-82.22 173.86,-80.49 166.53,-78.69"/>
<polygon fill="#63b8ff" stroke="#63b8ff" points="561.83,-127.66 572.02,-124.79 562.26,-120.68 561.83,-127.66"/>
</a>
</g>
</g>
<!-- Node2&#45;&gt;Node4 -->
<g id="edge3_Node000002_Node000004" class="edge">
<title>Node2&#45;&gt;Node4</title>
<g id="a_edge3_Node000002_Node000004"><a xlink:title=" ">
<path fill="none" stroke="#63b8ff" d="M562.32,-118.17C484.51,-106.47 354.84,-86.97 286.8,-76.74"/>
<polygon fill="#63b8ff" stroke="#63b8ff" points="561.51,-121.59 571.91,-119.62 562.55,-114.67 561.51,-121.59"/>
</a>
</g>
</g>
<!-- Node2&#45;&gt;Node6 -->
<g id="edge5_Node000002_Node000006" class="edge">
<title>Node2&#45;&gt;Node6</title>
<g id="a_edge5_Node000002_Node000006"><a xlink:title=" ">
<path fill="none" stroke="#63b8ff" d="M658.94,-114.98C687.37,-103.96 727.68,-88.34 752.54,-78.7"/>
<polygon fill="#63b8ff" stroke="#63b8ff" points="657.78,-111.68 649.72,-118.56 660.31,-118.21 657.78,-111.68"/>
</a>
</g>
</g>
<!-- Node2&#45;&gt;Node7 -->
<g id="edge6_Node000002_Node000007" class="edge">
<title>Node2&#45;&gt;Node7</title>
<g id="a_edge6_Node000002_Node000007"><a xlink:title=" ">
<path fill="none" stroke="#63b8ff" d="M683.42,-116.98C742.32,-105.94 832.83,-88.97 887.43,-78.73"/>
<polygon fill="#63b8ff" stroke="#63b8ff" points="683.12,-113.48 673.93,-118.76 684.41,-120.36 683.12,-113.48"/>
</a>
</g>
</g>
<!-- Node2&#45;&gt;Node8 -->
<g id="edge7_Node000002_Node000008" class="edge">
<title>Node2&#45;&gt;Node8</title>
<g id="a_edge7_Node000002_Node000008"><a xlink:title=" ">
<path fill="none" stroke="#63b8ff" d="M633.3,-108.58C636.37,-100.53 639.88,-91.33 642.69,-83.93"/>
<polygon fill="#63b8ff" stroke="#63b8ff" points="630.07,-107.22 629.78,-117.81 636.62,-109.72 630.07,-107.22"/>
</a>
</g>
</g>
<!-- Node2&#45;&gt;Node9 -->
<g id="edge8_Node000002_Node000009" class="edge">
<title>Node2&#45;&gt;Node9</title>
<g id="a_edge8_Node000002_Node000009"><a xlink:title=" ">
<path fill="none" stroke="#63b8ff" d="M689.86,-121.21C763.03,-113.44 886.43,-99.5 992,-83.5 1001.3,-82.09 1011.22,-80.41 1020.68,-78.71"/>
<polygon fill="#63b8ff" stroke="#63b8ff" points="689.64,-117.71 680.07,-122.24 690.38,-124.67 689.64,-117.71"/>
</a>
</g>
</g>
<!-- Node2&#45;&gt;Node10 -->
<g id="edge9_Node000002_Node000010" class="edge">
<title>Node2&#45;&gt;Node10</title>
<g id="a_edge9_Node000002_Node000010"><a xlink:title=" ">
<path fill="none" stroke="#63b8ff" d="M600.11,-113.78C579.89,-102.86 552.42,-88.04 535.2,-78.75"/>
<polygon fill="#63b8ff" stroke="#63b8ff" points="598.42,-116.84 608.88,-118.51 601.74,-110.68 598.42,-116.84"/>
</a>
</g>
</g>
<!-- Node4&#45;&gt;Node5 -->
<g id="edge4_Node000004_Node000005" class="edge">
<title>Node4&#45;&gt;Node5</title>
<g id="a_edge4_Node000004_Node000005"><a xlink:title=" ">
<path fill="none" stroke="#63b8ff" d="M219.04,-53.27C202.16,-42.43 179.78,-28.07 165.63,-19"/>
<polygon fill="#63b8ff" stroke="#63b8ff" points="217.14,-56.21 227.45,-58.66 220.92,-50.32 217.14,-56.21"/>
</a>
</g>
</g>
<!-- Node11&#45;&gt;Node12 -->
<g id="edge11_Node000011_Node000012" class="edge">
<title>Node11&#45;&gt;Node12</title>
<g id="a_edge11_Node000011_Node000012"><a xlink:title=" ">
<path fill="none" stroke="#63b8ff" d="M339.9,-328.83C318.87,-304.63 287.36,-259.61 311,-228.5 324.26,-211.05 378.46,-198.65 419.93,-191.5"/>
<polygon fill="#63b8ff" stroke="#63b8ff" points="337.24,-331.11 346.55,-336.16 342.43,-326.41 337.24,-331.11"/>
</a>
</g>
</g>
<!-- Node11&#45;&gt;Node14 -->
<g id="edge22_Node000011_Node000014" class="edge">
<title>Node11&#45;&gt;Node14</title>
<g id="a_edge22_Node000011_Node000014"><a xlink:title=" ">
<path fill="none" stroke="#63b8ff" d="M375,-329.92C386.1,-320.67 399.68,-309.35 408.79,-301.76"/>
<polygon fill="#63b8ff" stroke="#63b8ff" points="373.01,-327.02 367.57,-336.11 377.49,-332.4 373.01,-327.02"/>
</a>
</g>
</g>
<!-- Node12&#45;&gt;Node2 -->
<g id="edge12_Node000012_Node000002" class="edge">
<title>Node12&#45;&gt;Node2</title>
<g id="a_edge12_Node000012_Node000002"><a xlink:title=" ">
<path fill="none" stroke="#63b8ff" d="M506.59,-169.93C535.35,-160.26 574.67,-147.02 600.2,-138.43"/>
<polygon fill="#63b8ff" stroke="#63b8ff" points="505.56,-166.59 497.19,-173.1 507.79,-173.23 505.56,-166.59"/>
</a>
</g>
</g>
<!-- Node12&#45;&gt;Node3 -->
<g id="edge13_Node000012_Node000003" class="edge">
<title>Node12&#45;&gt;Node3</title>
<g id="a_edge13_Node000012_Node000003"><a xlink:title=" ">
<path fill="none" stroke="#63b8ff" d="M408.85,-173.76C366.96,-166.84 310.6,-155.35 263,-138 218.79,-121.89 170.87,-93.03 148.25,-78.65"/>
<polygon fill="#63b8ff" stroke="#63b8ff" points="408.06,-177.18 418.49,-175.31 409.17,-170.27 408.06,-177.18"/>
</a>
</g>
</g>
<!-- Node12&#45;&gt;Node4 -->
<g id="edge14_Node000012_Node000004" class="edge">
<title>Node12&#45;&gt;Node4</title>
<g id="a_edge14_Node000012_Node000004"><a xlink:title=" ">
<path fill="none" stroke="#63b8ff" d="M409.13,-179.29C370.51,-174.77 321.18,-163.88 285,-138 263.64,-122.72 250.46,-93.21 244.97,-78.61"/>
<polygon fill="#63b8ff" stroke="#63b8ff" points="408.41,-182.73 418.72,-180.29 409.14,-175.77 408.41,-182.73"/>
</a>
</g>
</g>
<!-- Node12&#45;&gt;Node5 -->
<g id="edge15_Node000012_Node000005" class="edge">
<title>Node12&#45;&gt;Node5</title>
<g id="a_edge15_Node000012_Node000005"><a xlink:title=" ">
<path fill="none" stroke="#63b8ff" d="M456.91,-164.95C446.13,-151.47 429.92,-132.86 413,-119.5 343.61,-64.7 242.76,-32.95 189,-18.93"/>
<polygon fill="#63b8ff" stroke="#63b8ff" points="453.9,-166.78 462.8,-172.52 459.42,-162.48 453.9,-166.78"/>
</a>
</g>
</g>
<!-- Node12&#45;&gt;Node6 -->
<g id="edge17_Node000012_Node000006" class="edge">
<title>Node12&#45;&gt;Node6</title>
<g id="a_edge17_Node000012_Node000006"><a xlink:title=" ">
<path fill="none" stroke="#63b8ff" d="M531.12,-177.28C575.91,-171.88 637.32,-160.76 687,-138 720,-122.88 751.99,-93.3 766.66,-78.65"/>
<polygon fill="#63b8ff" stroke="#63b8ff" points="530.86,-173.79 521.32,-178.39 531.65,-180.74 530.86,-173.79"/>
</a>
</g>
</g>
<!-- Node12&#45;&gt;Node7 -->
<g id="edge18_Node000012_Node000007" class="edge">
<title>Node12&#45;&gt;Node7</title>
<g id="a_edge18_Node000012_Node000007"><a xlink:title=" ">
<path fill="none" stroke="#63b8ff" d="M531.13,-173.42C581.17,-165.67 653.63,-153.27 716,-138 787.43,-120.51 869.81,-92.66 909.76,-78.65"/>
<polygon fill="#63b8ff" stroke="#63b8ff" points="530.71,-169.94 521.35,-174.92 531.77,-176.86 530.71,-169.94"/>
</a>
</g>
</g>
<!-- Node12&#45;&gt;Node8 -->
<g id="edge19_Node000012_Node000008" class="edge">
<title>Node12&#45;&gt;Node8</title>
<g id="a_edge19_Node000012_Node000008"><a xlink:title=" ">
<path fill="none" stroke="#63b8ff" d="M492.12,-167.22C511.26,-154.32 539.74,-135.36 565,-119.5 584.75,-107.1 607.52,-93.57 624.21,-83.8"/>
<polygon fill="#63b8ff" stroke="#63b8ff" points="490.36,-164.19 484.04,-172.69 494.28,-169.99 490.36,-164.19"/>
</a>
</g>
</g>
<!-- Node12&#45;&gt;Node9 -->
<g id="edge20_Node000012_Node000009" class="edge">
<title>Node12&#45;&gt;Node9</title>
<g id="a_edge20_Node000012_Node000009"><a xlink:title=" ">
<path fill="none" stroke="#63b8ff" d="M531.01,-174.32C590.43,-166.29 683.2,-152.96 763,-138 860.77,-119.67 974.99,-92.44 1031.17,-78.66"/>
<polygon fill="#63b8ff" stroke="#63b8ff" points="530.9,-170.8 521.45,-175.6 531.83,-177.74 530.9,-170.8"/>
</a>
</g>
</g>
<!-- Node12&#45;&gt;Node10 -->
<g id="edge21_Node000012_Node000010" class="edge">
<title>Node12&#45;&gt;Node10</title>
<g id="a_edge21_Node000012_Node000010"><a xlink:title=" ">
<path fill="none" stroke="#63b8ff" d="M476.76,-163.07C481.31,-150.54 487.64,-133.89 494,-119.5 500.47,-104.88 509.06,-88.41 514.3,-78.63"/>
<polygon fill="#63b8ff" stroke="#63b8ff" points="473.57,-161.59 473.5,-172.19 480.16,-163.95 473.57,-161.59"/>
</a>
</g>
</g>
<!-- Node13 -->
<g id="Node000013" class="node">
<title>Node13</title>
<g id="a_Node000013"><a xlink:href="coverage__system_8cpp.html" target="_top" xlink:title="Contains the implementation of the CoverageSystem class.">
<polygon fill="white" stroke="#666666" points="403.88,-138 294.12,-138 294.12,-119.5 403.88,-119.5 403.88,-138"/>
<text text-anchor="middle" x="349" y="-124.5" font-family="Helvetica,sans-Serif" font-size="10.00">coverage_system.cpp</text>
</a>
</g>
</g>
<!-- Node12&#45;&gt;Node13 -->
<g id="edge16_Node000012_Node000013" class="edge">
<title>Node12&#45;&gt;Node13</title>
<g id="a_edge16_Node000012_Node000013"><a xlink:title=" ">
<path fill="none" stroke="#63b8ff" d="M439.52,-169.03C417.43,-159.44 388.2,-146.76 369.01,-138.43"/>
<polygon fill="#63b8ff" stroke="#63b8ff" points="438.06,-172.21 448.63,-172.98 440.85,-165.79 438.06,-172.21"/>
</a>
</g>
</g>
<!-- Node14&#45;&gt;Node5 -->
<g id="edge23_Node000014_Node000005" class="edge">
<title>Node14&#45;&gt;Node5</title>
<g id="a_edge23_Node000014_Node000005"><a xlink:title=" ">
<path fill="none" stroke="#63b8ff" d="M376.91,-281.83C298.54,-261.59 133.53,-205.56 82,-83.5 76.99,-71.63 75.78,-65.79 82,-54.5 91.5,-37.25 110.88,-25.79 126.85,-18.86"/>
<polygon fill="#63b8ff" stroke="#63b8ff" points="375.8,-285.16 386.35,-284.19 377.5,-278.37 375.8,-285.16"/>
</a>
</g>
</g>
<!-- Node14&#45;&gt;Node12 -->
<g id="edge24_Node000014_Node000012" class="edge">
<title>Node14&#45;&gt;Node12</title>
<g id="a_edge24_Node000014_Node000012"><a xlink:title=" ">
<path fill="none" stroke="#63b8ff" d="M423.59,-271.72C426.96,-259.03 432.15,-242.33 439,-228.5 445.58,-215.22 455.84,-201.48 462.74,-192.9"/>
<polygon fill="#63b8ff" stroke="#63b8ff" points="420.21,-270.8 421.19,-281.35 427,-272.49 420.21,-270.8"/>
</a>
</g>
</g>
<!-- Node14&#45;&gt;Node15 -->
<g id="edge25_Node000014_Node000015" class="edge">
<title>Node14&#45;&gt;Node15</title>
<g id="a_edge25_Node000014_Node000015"><a xlink:title=" ">
<path fill="none" stroke="#63b8ff" d="M439.15,-275.7C451.2,-266.39 466.05,-254.93 475.98,-247.26"/>
<polygon fill="#63b8ff" stroke="#63b8ff" points="437.2,-272.77 431.43,-281.66 441.48,-278.31 437.2,-272.77"/>
</a>
</g>
</g>
<!-- Node16 -->
<g id="Node000016" class="node">
<title>Node16</title>
<g id="a_Node000016"><a xlink:href="world__idf_8cpp.html" target="_top" xlink:title="Contains the implementation of the WorldIDF class.">
<polygon fill="white" stroke="#666666" points="392.12,-247 319.88,-247 319.88,-228.5 392.12,-228.5 392.12,-247"/>
<text text-anchor="middle" x="356" y="-233.5" font-family="Helvetica,sans-Serif" font-size="10.00">world_idf.cpp</text>
</a>
</g>
</g>
<!-- Node14&#45;&gt;Node16 -->
<g id="edge27_Node000014_Node000016" class="edge">
<title>Node14&#45;&gt;Node16</title>
<g id="a_edge27_Node000014_Node000016"><a xlink:title=" ">
<path fill="none" stroke="#63b8ff" d="M400,-275.42C388.9,-266.17 375.32,-254.85 366.21,-247.26"/>
<polygon fill="#63b8ff" stroke="#63b8ff" points="397.51,-277.9 407.43,-281.61 401.99,-272.52 397.51,-277.9"/>
</a>
</g>
</g>
<!-- Node15&#45;&gt;Node12 -->
<g id="edge26_Node000015_Node000012" class="edge">
<title>Node15&#45;&gt;Node12</title>
<g id="a_edge26_Node000015_Node000012"><a xlink:title=" ">
<path fill="none" stroke="#63b8ff" d="M480.68,-217.22C477.95,-208.79 474.89,-199.36 472.75,-192.76"/>
<polygon fill="#63b8ff" stroke="#63b8ff" points="477.32,-218.21 483.73,-226.64 483.98,-216.05 477.32,-218.21"/>
</a>
</g>
</g>
<!-- Node17&#45;&gt;Node4 -->
<g id="edge34_Node000017_Node000004" class="edge">
<title>Node17&#45;&gt;Node4</title>
<g id="a_edge34_Node000017_Node000004"><a xlink:title=" ">
<path fill="none" stroke="#63b8ff" d="M572.9,-325.95C570.38,-299.95 562.11,-254.58 535,-228.5 493.65,-188.71 465.51,-210.43 411,-192.5 344.41,-170.6 311.23,-188.87 263,-138 247.19,-121.32 243.27,-92.98 242.31,-78.73"/>
<polygon fill="#63b8ff" stroke="#63b8ff" points="569.4,-326.05 573.63,-335.76 576.38,-325.53 569.4,-326.05"/>
</a>
</g>
</g>
<!-- Node17&#45;&gt;Node6 -->
<g id="edge36_Node000017_Node000006" class="edge">
<title>Node17&#45;&gt;Node6</title>
<g id="a_edge36_Node000017_Node000006"><a xlink:title=" ">
<path fill="none" stroke="#63b8ff" d="M588.67,-328.25C595.3,-320.19 603.17,-310.46 610,-301.5 674.91,-216.31 748.33,-109.21 769.2,-78.55"/>
<polygon fill="#63b8ff" stroke="#63b8ff" points="586.01,-325.97 582.31,-335.9 591.39,-330.45 586.01,-325.97"/>
</a>
</g>
</g>
<!-- Node17&#45;&gt;Node7 -->
<g id="edge37_Node000017_Node000007" class="edge">
<title>Node17&#45;&gt;Node7</title>
<g id="a_edge37_Node000017_Node000007"><a xlink:title=" ">
<path fill="none" stroke="#63b8ff" d="M594.23,-330.25C660.72,-279.32 871.22,-118.09 922.6,-78.73"/>
<polygon fill="#63b8ff" stroke="#63b8ff" points="592.18,-327.42 586.37,-336.27 596.44,-332.97 592.18,-327.42"/>
</a>
</g>
</g>
<!-- Node17&#45;&gt;Node10 -->
<g id="edge39_Node000017_Node000010" class="edge">
<title>Node17&#45;&gt;Node10</title>
<g id="a_edge39_Node000017_Node000010"><a xlink:title=" ">
<path fill="none" stroke="#63b8ff" d="M585.65,-327.13C589.78,-319.49 593.92,-310.37 596,-301.5 597.88,-293.5 596.75,-291.19 596,-283 588.38,-199.2 539.69,-106.66 523.92,-78.55"/>
<polygon fill="#63b8ff" stroke="#63b8ff" points="582.63,-325.36 580.6,-335.76 588.67,-328.89 582.63,-325.36"/>
</a>
</g>
</g>
<!-- Node17&#45;&gt;Node12 -->
<g id="edge35_Node000017_Node000012" class="edge">
<title>Node17&#45;&gt;Node12</title>
<g id="a_edge35_Node000017_Node000012"><a xlink:title=" ">
<path fill="none" stroke="#63b8ff" d="M578.73,-326.24C583.6,-301.26 587.95,-257.74 568,-228.5 555.48,-210.15 533.42,-199.3 513.4,-192.94"/>
<polygon fill="#63b8ff" stroke="#63b8ff" points="575.38,-325.15 576.66,-335.67 582.22,-326.65 575.38,-325.15"/>
</a>
</g>
</g>
<!-- Node17&#45;&gt;Node14 -->
<g id="edge40_Node000017_Node000014" class="edge">
<title>Node17&#45;&gt;Node14</title>
<g id="a_edge40_Node000017_Node000014"><a xlink:title=" ">
<path fill="none" stroke="#63b8ff" d="M537.64,-333.43C509.07,-323.76 470,-310.52 444.63,-301.93"/>
<polygon fill="#63b8ff" stroke="#63b8ff" points="536.38,-336.7 546.97,-336.6 538.62,-330.07 536.38,-336.7"/>
</a>
</g>
</g>
<!-- Node17&#45;&gt;Node15 -->
<g id="edge38_Node000017_Node000015" class="edge">
<title>Node17&#45;&gt;Node15</title>
<g id="a_edge38_Node000017_Node000015"><a xlink:title=" ">
<path fill="none" stroke="#63b8ff" d="M560.06,-328.6C541.23,-305.44 508.38,-265.04 494.04,-247.4"/>
<polygon fill="#63b8ff" stroke="#63b8ff" points="557.19,-330.63 566.22,-336.18 562.63,-326.21 557.19,-330.63"/>
</a>
</g>
</g>
<!-- Node18&#45;&gt;Node7 -->
<g id="edge43_Node000018_Node000007" class="edge">
<title>Node18&#45;&gt;Node7</title>
<g id="a_edge43_Node000018_Node000007"><a xlink:title=" ">
<path fill="none" stroke="#63b8ff" d="M1040.79,-114.69C1014.5,-103.69 977.62,-88.26 954.8,-78.7"/>
<polygon fill="#63b8ff" stroke="#63b8ff" points="1039.37,-117.89 1049.94,-118.52 1042.07,-111.43 1039.37,-117.89"/>
</a>
</g>
</g>
<!-- Node18&#45;&gt;Node9 -->
<g id="edge44_Node000018_Node000009" class="edge">
<title>Node18&#45;&gt;Node9</title>
<g id="a_edge44_Node000018_Node000009"><a xlink:title=" ">
<path fill="none" stroke="#63b8ff" d="M1069.93,-107.83C1068.89,-97.83 1067.69,-86.25 1066.89,-78.56"/>
<polygon fill="#63b8ff" stroke="#63b8ff" points="1066.44,-108.14 1070.96,-117.72 1073.41,-107.42 1066.44,-108.14"/>
</a>
</g>
</g>
</g>
</svg>
