<?xml version="1.0" encoding="UTF-8" standalone="no"?>
<!DOCTYPE svg PUBLIC "-//W3C//DTD SVG 1.1//EN"
 "http://www.w3.org/Graphics/SVG/1.1/DTD/svg11.dtd">
<!-- Generated by graphviz version 12.1.2 (0)
 -->
<!-- Title: parameters.cpp Pages: 1 -->
<svg width="444pt" height="146pt"
 viewBox="0.00 0.00 443.50 146.00" xmlns="http://www.w3.org/2000/svg" xmlns:xlink="http://www.w3.org/1999/xlink">
<g id="graph0" class="graph" transform="scale(1 1) rotate(0) translate(4 142)">
<title>parameters.cpp</title>
<!-- Node1 -->
<g id="Node000001" class="node">
<title>Node1</title>
<g id="a_Node000001"><a xlink:title="Parses toml configuration file and sets parameters.">
<polygon fill="#999999" stroke="#666666" points="198.88,-138 114.62,-138 114.62,-119.5 198.88,-119.5 198.88,-138"/>
<text text-anchor="middle" x="156.75" y="-124.5" font-family="Helvetica,sans-Serif" font-size="10.00">parameters.cpp</text>
</a>
</g>
</g>
<!-- Node2 -->
<g id="Node000002" class="node">
<title>Node2</title>
<g id="a_Node000002"><a xlink:title=" ">
<polygon fill="#e0e0e0" stroke="#999999" points="59.5,-78.25 0,-78.25 0,-59.75 59.5,-59.75 59.5,-78.25"/>
<text text-anchor="middle" x="29.75" y="-64.75" font-family="Helvetica,sans-Serif" font-size="10.00">filesystem</text>
</a>
</g>
</g>
<!-- Node1&#45;&gt;Node2 -->
<g id="edge1_Node000001_Node000002" class="edge">
<title>Node1&#45;&gt;Node2</title>
<g id="a_edge1_Node000001_Node000002"><a xlink:title=" ">
<path fill="none" stroke="#63b8ff" d="M137.74,-119.1C116.97,-109.66 83.46,-94.42 59.27,-83.42"/>
<polygon fill="#63b8ff" stroke="#63b8ff" points="60.82,-80.28 50.27,-79.33 57.93,-86.66 60.82,-80.28"/>
</a>
</g>
</g>
<!-- Node3 -->
<g id="Node000003" class="node">
<title>Node3</title>
<g id="a_Node000003"><a xlink:title=" ">
<polygon fill="#e0e0e0" stroke="#999999" points="131.5,-78.25 78,-78.25 78,-59.75 131.5,-59.75 131.5,-78.25"/>
<text text-anchor="middle" x="104.75" y="-64.75" font-family="Helvetica,sans-Serif" font-size="10.00">iostream</text>
</a>
</g>
</g>
<!-- Node1&#45;&gt;Node3 -->
<g id="edge2_Node000001_Node000003" class="edge">
<title>Node1&#45;&gt;Node3</title>
<g id="a_edge2_Node000001_Node000003"><a xlink:title=" ">
<path fill="none" stroke="#63b8ff" d="M149.08,-119.23C141.47,-110.78 129.61,-97.61 120.07,-87.02"/>
<polygon fill="#63b8ff" stroke="#63b8ff" points="122.76,-84.77 113.47,-79.68 117.56,-89.45 122.76,-84.77"/>
</a>
</g>
</g>
<!-- Node4 -->
<g id="Node000004" class="node">
<title>Node4</title>
<g id="a_Node000004"><a xlink:title=" ">
<polygon fill="#e0e0e0" stroke="#999999" points="268.12,-83.5 149.38,-83.5 149.38,-54.5 268.12,-54.5 268.12,-83.5"/>
<text text-anchor="start" x="157.38" y="-70" font-family="Helvetica,sans-Serif" font-size="10.00">CoverageControl/extern</text>
<text text-anchor="middle" x="208.75" y="-59.5" font-family="Helvetica,sans-Serif" font-size="10.00">/tomlplusplus/toml.hpp</text>
</a>
</g>
</g>
<!-- Node1&#45;&gt;Node4 -->
<g id="edge3_Node000001_Node000004" class="edge">
<title>Node1&#45;&gt;Node4</title>
<g id="a_edge3_Node000001_Node000004"><a xlink:title=" ">
<path fill="none" stroke="#63b8ff" d="M164.42,-119.23C170.83,-112.12 180.24,-101.66 188.76,-92.21"/>
<polygon fill="#63b8ff" stroke="#63b8ff" points="191.1,-94.83 195.19,-85.06 185.9,-90.15 191.1,-94.83"/>
</a>
</g>
</g>
<!-- Node5 -->
<g id="Node000005" class="node">
<title>Node5</title>
<g id="a_Node000005"><a xlink:href="parameters_8h.html" target="_top" xlink:title="Contains parameters.">
<polygon fill="white" stroke="#666666" points="435.5,-78.25 286,-78.25 286,-59.75 435.5,-59.75 435.5,-78.25"/>
<text text-anchor="middle" x="360.75" y="-64.75" font-family="Helvetica,sans-Serif" font-size="10.00">CoverageControl/parameters.h</text>
</a>
</g>
</g>
<!-- Node1&#45;&gt;Node5 -->
<g id="edge4_Node000001_Node000005" class="edge">
<title>Node1&#45;&gt;Node5</title>
<g id="a_edge4_Node000001_Node000005"><a xlink:title=" ">
<path fill="none" stroke="#63b8ff" d="M187.29,-119.1C222.29,-109.2 279.86,-92.9 318.99,-81.82"/>
<polygon fill="#63b8ff" stroke="#63b8ff" points="319.88,-85.21 328.54,-79.12 317.97,-78.47 319.88,-85.21"/>
</a>
</g>
</g>
<!-- Node6 -->
<g id="Node000006" class="node">
<title>Node6</title>
<g id="a_Node000006"><a xlink:title=" ">
<polygon fill="#e0e0e0" stroke="#999999" points="352.25,-18.5 309.25,-18.5 309.25,0 352.25,0 352.25,-18.5"/>
<text text-anchor="middle" x="330.75" y="-5" font-family="Helvetica,sans-Serif" font-size="10.00">cmath</text>
</a>
</g>
</g>
<!-- Node5&#45;&gt;Node6 -->
<g id="edge5_Node000005_Node000006" class="edge">
<title>Node5&#45;&gt;Node6</title>
<g id="a_edge5_Node000005_Node000006"><a xlink:title=" ">
<path fill="none" stroke="#63b8ff" d="M356.32,-59.48C352.16,-51.46 345.78,-39.18 340.43,-28.89"/>
<polygon fill="#63b8ff" stroke="#63b8ff" points="343.61,-27.41 335.89,-20.15 337.4,-30.64 343.61,-27.41"/>
</a>
</g>
</g>
<!-- Node7 -->
<g id="Node000007" class="node">
<title>Node7</title>
<g id="a_Node000007"><a xlink:title=" ">
<polygon fill="#e0e0e0" stroke="#999999" points="410.75,-18.5 370.75,-18.5 370.75,0 410.75,0 410.75,-18.5"/>
<text text-anchor="middle" x="390.75" y="-5" font-family="Helvetica,sans-Serif" font-size="10.00">string</text>
</a>
</g>
</g>
<!-- Node5&#45;&gt;Node7 -->
<g id="edge6_Node000005_Node000007" class="edge">
<title>Node5&#45;&gt;Node7</title>
<g id="a_edge6_Node000005_Node000007"><a xlink:title=" ">
<path fill="none" stroke="#63b8ff" d="M365.18,-59.48C369.34,-51.46 375.72,-39.18 381.07,-28.89"/>
<polygon fill="#63b8ff" stroke="#63b8ff" points="384.1,-30.64 385.61,-20.15 377.89,-27.41 384.1,-30.64"/>
</a>
</g>
</g>
</g>
</svg>
