<?xml version="1.0" encoding="UTF-8" standalone="no"?>
<!DOCTYPE svg PUBLIC "-//W3C//DTD SVG 1.1//EN"
 "http://www.w3.org/Graphics/SVG/1.1/DTD/svg11.dtd">
<!-- Generated by graphviz version 10.0.1 (0)
 -->
<!-- Title: parameters.cpp Pages: 1 -->
<svg width="341pt" height="146pt"
 viewBox="0.00 0.00 341.38 146.00" xmlns="http://www.w3.org/2000/svg" xmlns:xlink="http://www.w3.org/1999/xlink">
<g id="graph0" class="graph" transform="scale(1 1) rotate(0) translate(4 142)">
<title>parameters.cpp</title>
<!-- Node1 -->
<g id="Node000001" class="node">
<title>Node1</title>
<g id="a_Node000001"><a xlink:title="Parses toml configuration file and sets parameters.">
<polygon fill="#999999" stroke="#666666" points="177.5,-138 93.25,-138 93.25,-119.5 177.5,-119.5 177.5,-138"/>
<text text-anchor="middle" x="135.38" y="-124.5" font-family="Helvetica,sans-Serif" font-size="10.00">parameters.cpp</text>
</a>
</g>
</g>
<!-- Node2 -->
<g id="Node000002" class="node">
<title>Node2</title>
<g id="a_Node000002"><a xlink:title=" ">
<polygon fill="#e0e0e0" stroke="#999999" points="118.75,-83.5 0,-83.5 0,-54.5 118.75,-54.5 118.75,-83.5"/>
<text text-anchor="start" x="8" y="-70" font-family="Helvetica,sans-Serif" font-size="10.00">CoverageControl/extern</text>
<text text-anchor="middle" x="59.38" y="-59.5" font-family="Helvetica,sans-Serif" font-size="10.00">/tomlplusplus/toml.hpp</text>
</a>
</g>
</g>
<!-- Node1&#45;&gt;Node2 -->
<g id="edge1_Node000001_Node000002" class="edge">
<title>Node1&#45;&gt;Node2</title>
<g id="a_edge1_Node000001_Node000002"><a xlink:title=" ">
<path fill="none" stroke="#63b8ff" d="M124.16,-119.23C114.33,-111.76 99.62,-100.58 86.71,-90.77"/>
<polygon fill="#63b8ff" stroke="#63b8ff" points="89,-88.11 78.92,-84.85 84.76,-93.69 89,-88.11"/>
</a>
</g>
</g>
<!-- Node3 -->
<g id="Node000003" class="node">
<title>Node3</title>
<g id="a_Node000003"><a xlink:href="parameters_8h.html" target="_top" xlink:title="Contains parameters.">
<polygon fill="white" stroke="#666666" points="286.12,-78.25 136.62,-78.25 136.62,-59.75 286.12,-59.75 286.12,-78.25"/>
<text text-anchor="middle" x="211.38" y="-64.75" font-family="Helvetica,sans-Serif" font-size="10.00">CoverageControl/parameters.h</text>
</a>
</g>
</g>
<!-- Node1&#45;&gt;Node3 -->
<g id="edge2_Node000001_Node000003" class="edge">
<title>Node1&#45;&gt;Node3</title>
<g id="a_edge2_Node000001_Node000003"><a xlink:title=" ">
<path fill="none" stroke="#63b8ff" d="M146.59,-119.23C158.2,-110.41 176.59,-96.43 190.82,-85.62"/>
<polygon fill="#63b8ff" stroke="#63b8ff" points="192.82,-88.5 198.66,-79.66 188.58,-82.92 192.82,-88.5"/>
</a>
</g>
</g>
<!-- Node4 -->
<g id="Node000004" class="node">
<title>Node4</title>
<g id="a_Node000004"><a xlink:title=" ">
<polygon fill="#e0e0e0" stroke="#999999" points="125.88,-18.5 82.88,-18.5 82.88,0 125.88,0 125.88,-18.5"/>
<text text-anchor="middle" x="104.38" y="-5" font-family="Helvetica,sans-Serif" font-size="10.00">cmath</text>
</a>
</g>
</g>
<!-- Node3&#45;&gt;Node4 -->
<g id="edge3_Node000003_Node000004" class="edge">
<title>Node3&#45;&gt;Node4</title>
<g id="a_edge3_Node000003_Node000004"><a xlink:title=" ">
<path fill="none" stroke="#63b8ff" d="M195.59,-59.48C178.46,-50.23 150.84,-35.33 130.47,-24.34"/>
<polygon fill="#63b8ff" stroke="#63b8ff" points="132.37,-21.38 121.91,-19.71 129.05,-27.54 132.37,-21.38"/>
</a>
</g>
</g>
<!-- Node5 -->
<g id="Node000005" class="node">
<title>Node5</title>
<g id="a_Node000005"><a xlink:title=" ">
<polygon fill="#e0e0e0" stroke="#999999" points="203.12,-18.5 143.62,-18.5 143.62,0 203.12,0 203.12,-18.5"/>
<text text-anchor="middle" x="173.38" y="-5" font-family="Helvetica,sans-Serif" font-size="10.00">filesystem</text>
</a>
</g>
</g>
<!-- Node3&#45;&gt;Node5 -->
<g id="edge4_Node000003_Node000005" class="edge">
<title>Node3&#45;&gt;Node5</title>
<g id="a_edge4_Node000003_Node000005"><a xlink:title=" ">
<path fill="none" stroke="#63b8ff" d="M205.77,-59.48C200.38,-51.29 192.07,-38.66 185.21,-28.24"/>
<polygon fill="#63b8ff" stroke="#63b8ff" points="188.26,-26.5 179.84,-20.07 182.41,-30.35 188.26,-26.5"/>
</a>
</g>
</g>
<!-- Node6 -->
<g id="Node000006" class="node">
<title>Node6</title>
<g id="a_Node000006"><a xlink:title=" ">
<polygon fill="#e0e0e0" stroke="#999999" points="275.12,-18.5 221.62,-18.5 221.62,0 275.12,0 275.12,-18.5"/>
<text text-anchor="middle" x="248.38" y="-5" font-family="Helvetica,sans-Serif" font-size="10.00">iostream</text>
</a>
</g>
</g>
<!-- Node3&#45;&gt;Node6 -->
<g id="edge5_Node000003_Node000006" class="edge">
<title>Node3&#45;&gt;Node6</title>
<g id="a_edge5_Node000003_Node000006"><a xlink:title=" ">
<path fill="none" stroke="#63b8ff" d="M216.83,-59.48C222.08,-51.29 230.17,-38.66 236.85,-28.24"/>
<polygon fill="#63b8ff" stroke="#63b8ff" points="239.63,-30.39 242.08,-20.08 233.73,-26.61 239.63,-30.39"/>
</a>
</g>
</g>
<!-- Node7 -->
<g id="Node000007" class="node">
<title>Node7</title>
<g id="a_Node000007"><a xlink:title=" ">
<polygon fill="#e0e0e0" stroke="#999999" points="333.38,-18.5 293.38,-18.5 293.38,0 333.38,0 333.38,-18.5"/>
<text text-anchor="middle" x="313.38" y="-5" font-family="Helvetica,sans-Serif" font-size="10.00">string</text>
</a>
</g>
</g>
<!-- Node3&#45;&gt;Node7 -->
<g id="edge6_Node000003_Node000007" class="edge">
<title>Node3&#45;&gt;Node7</title>
<g id="a_edge6_Node000003_Node000007"><a xlink:title=" ">
<path fill="none" stroke="#63b8ff" d="M226.43,-59.48C242.6,-50.32 268.6,-35.6 287.96,-24.64"/>
<polygon fill="#63b8ff" stroke="#63b8ff" points="289.63,-27.71 296.61,-19.74 286.18,-21.62 289.63,-27.71"/>
</a>
</g>
</g>
</g>
</svg>
