<?xml version="1.0" encoding="UTF-8" standalone="no"?>
<!DOCTYPE svg PUBLIC "-//W3C//DTD SVG 1.1//EN"
 "http://www.w3.org/Graphics/SVG/1.1/DTD/svg11.dtd">
<!-- Generated by graphviz version 10.0.1 (0)
 -->
<!-- Title: parameters.h Pages: 1 -->
<!--zoomable 473 -->

<svg id="main" version="1.1" xmlns="http://www.w3.org/2000/svg" xmlns:xlink="http://www.w3.org/1999/xlink" xml:space="preserve" onload="init(evt)">
<style type="text/css"><![CDATA[
.node, .edge {opacity: 0.7;}
.node.selected, .edge.selected {opacity: 1;}
.edge:hover path { stroke: red; }
.edge:hover polygon { stroke: red; fill: red; }
]]></style>

<defs>
  <circle id="rim" cx="0" cy="0" r="7"/>
  <circle id="rim2" cx="0" cy="0" r="3.5"/>
  <g id="zoomPlus">
    <use xlink:href="#rim" fill="#404040"><set attributeName="fill" to="#808080" begin="zoomplus.mouseover" end="zoomplus.mouseout"/></use>
    <path d="M-4,0h8M0,-4v8" fill="none" stroke="white" stroke-width="1.5" pointer-events="none"/>
  </g>
  <g id="zoomMin">
    <use xlink:href="#rim" fill="#404040"><set attributeName="fill" to="#808080" begin="zoomminus.mouseover" end="zoomminus.mouseout"/></use>
    <path d="M-4,0h8" fill="none" stroke="white" stroke-width="1.5" pointer-events="none"/>
  </g>
  <g id="arrowUp" transform="translate(30 24)">
    <use xlink:href="#rim"/>
    <path pointer-events="none" fill="none" stroke="white" stroke-width="1.5" d="M0,-3.0v7 M-2.5,-0.5L0,-3.0L2.5,-0.5"/>
  </g>
  <g id="arrowRight" transform="rotate(90) translate(36 -43)">
    <use xlink:href="#rim"/>
    <path pointer-events="none" fill="none" stroke="white" stroke-width="1.5" d="M0,-3.0v7 M-2.5,-0.5L0,-3.0L2.5,-0.5"/>
  </g>
  <g id="arrowDown" transform="rotate(180) translate(-30 -48)">
    <use xlink:href="#rim"/>
    <path pointer-events="none" fill="none" stroke="white" stroke-width="1.5" d="M0,-3.0v7 M-2.5,-0.5L0,-3.0L2.5,-0.5"/>
  </g>
  <g id="arrowLeft" transform="rotate(270) translate(-36 17)">
    <use xlink:href="#rim"/>
    <path pointer-events="none" fill="none" stroke="white" stroke-width="1.5" d="M0,-3.0v7 M-2.5,-0.5L0,-3.0L2.5,-0.5"/>
  </g>
  <g id="resetDef">
    <use xlink:href="#rim2" fill="#404040"><set attributeName="fill" to="#808080" begin="reset.mouseover" end="reset.mouseout"/></use>
  </g>
</defs>
<script type="application/ecmascript">
var viewWidth = 1520;
var viewHeight = 473;
var sectionId = 'dynsection-1';
</script>
<script type="application/ecmascript" xlink:href="svg.min.js"/>
<svg id="graph" class="graph">
<g id="viewport">
<title>parameters.h</title>
<!-- Node1 -->
<g id="Node000001" class="node">
<title>Node1</title>
<g id="a_Node000001"><a xlink:title="Contains parameters.">
<polygon fill="#999999" stroke="#666666" points="810.88,-465 737.12,-465 737.12,-446.5 810.88,-446.5 810.88,-465"/>
<text text-anchor="middle" x="774" y="-451.5" font-family="Helvetica,sans-Serif" font-size="10.00">parameters.h</text>
</a>
</g>
</g>
<!-- Node2 -->
<g id="Node000002" class="node">
<title>Node2</title>
<g id="a_Node000002"><a xlink:href="abstract__controller_8h.html" target="_top" xlink:title="Contains the abstract class for coverage control algorithms.">
<polygon fill="white" stroke="#666666" points="906.25,-192.5 801.75,-192.5 801.75,-174 906.25,-174 906.25,-192.5"/>
<text text-anchor="middle" x="854" y="-179" font-family="Helvetica,sans-Serif" font-size="10.00">abstract_controller.h</text>
</a>
</g>
</g>
<!-- Node1&#45;&gt;Node2 -->
<g id="edge1_Node000001_Node000002" class="edge">
<title>Node1&#45;&gt;Node2</title>
<g id="a_edge1_Node000001_Node000002"><a xlink:title=" ">
<path fill="none" stroke="#63b8ff" d="M790.29,-437.96C807.75,-418.11 833,-383.28 833,-347.75 833,-347.75 833,-347.75 833,-291.25 833,-253.96 845.44,-210.7 851.17,-192.74"/>
<polygon fill="#63b8ff" stroke="#63b8ff" points="787.92,-435.36 783.73,-445.09 793.08,-440.1 787.92,-435.36"/>
</a>
</g>
</g>
<!-- Node3 -->
<g id="Node000003" class="node">
<title>Node3</title>
<g id="a_Node000003"><a xlink:href="centralized__cvt_8h.html" target="_top" xlink:title="Contains the class CentralizedCVT.">
<polygon fill="white" stroke="#666666" points="915.38,-132.75 826.62,-132.75 826.62,-114.25 915.38,-114.25 915.38,-132.75"/>
<text text-anchor="middle" x="871" y="-119.25" font-family="Helvetica,sans-Serif" font-size="10.00">centralized_cvt.h</text>
</a>
</g>
</g>
<!-- Node1&#45;&gt;Node3 -->
<g id="edge40_Node000001_Node000003" class="edge">
<title>Node1&#45;&gt;Node3</title>
<g id="a_edge40_Node000001_Node000003"><a xlink:title=" ">
<path fill="none" stroke="#63b8ff" d="M822.58,-454.82C950.34,-453.72 1286,-441.86 1286,-347.75 1286,-347.75 1286,-347.75 1286,-236.75 1286,-207.61 1289.46,-192.56 1267,-174 1207.92,-125.18 999.44,-151.49 924,-138 916.8,-136.71 909.14,-134.98 901.94,-133.18"/>
<polygon fill="#63b8ff" stroke="#63b8ff" points="822.72,-451.32 812.75,-454.89 822.77,-458.32 822.72,-451.32"/>
</a>
</g>
</g>
<!-- Node4 -->
<g id="Node000004" class="node">
<title>Node4</title>
<g id="a_Node000004"><a xlink:href="core__binds_8h.html" target="_top" xlink:title="Provides python bindings for the core CoverageControl library using pybind11.">
<polygon fill="white" stroke="#666666" points="571.75,-73 500.25,-73 500.25,-54.5 571.75,-54.5 571.75,-73"/>
<text text-anchor="middle" x="536" y="-59.5" font-family="Helvetica,sans-Serif" font-size="10.00">core_binds.h</text>
</a>
</g>
</g>
<!-- Node1&#45;&gt;Node4 -->
<g id="edge42_Node000001_Node000004" class="edge">
<title>Node1&#45;&gt;Node4</title>
<g id="a_edge42_Node000001_Node000004"><a xlink:title=" ">
<path fill="none" stroke="#63b8ff" d="M822.7,-454.83C940.78,-454.4 1239.34,-449.38 1330,-410.5 1368.4,-394.03 1400,-389.53 1400,-347.75 1400,-347.75 1400,-347.75 1400,-182.25 1400,-86.75 1291.45,-128.66 1198,-109 1076.83,-83.51 692.25,-69.63 572.18,-65.83"/>
<polygon fill="#63b8ff" stroke="#63b8ff" points="822.69,-451.33 812.7,-454.86 822.71,-458.33 822.69,-451.33"/>
</a>
</g>
</g>
<!-- Node6 -->
<g id="Node000006" class="node">
<title>Node6</title>
<g id="a_Node000006"><a xlink:href="clairvoyant__cvt_8h.html" target="_top" xlink:title="Clairvoyant CVT algorithm.">
<polygon fill="white" stroke="#666666" points="234.38,-132.75 145.62,-132.75 145.62,-114.25 234.38,-114.25 234.38,-132.75"/>
<text text-anchor="middle" x="190" y="-119.25" font-family="Helvetica,sans-Serif" font-size="10.00">clairvoyant_cvt.h</text>
</a>
</g>
</g>
<!-- Node1&#45;&gt;Node6 -->
<g id="edge41_Node000001_Node000006" class="edge">
<title>Node1&#45;&gt;Node6</title>
<g id="a_edge41_Node000001_Node000006"><a xlink:title=" ">
<path fill="none" stroke="#63b8ff" d="M725.74,-452.45C567.74,-444.29 76,-413.61 76,-347.75 76,-347.75 76,-347.75 76,-236.75 76,-184.81 136.83,-148.86 169.62,-133.25"/>
<polygon fill="#63b8ff" stroke="#63b8ff" points="725.29,-455.93 735.45,-452.95 725.64,-448.94 725.29,-455.93"/>
</a>
</g>
</g>
<!-- Node7 -->
<g id="Node000007" class="node">
<title>Node7</title>
<g id="a_Node000007"><a xlink:href="coverage__algorithm_8cpp.html" target="_top" xlink:title="Program to test the CVT&#45;based (Lloyd&#39;s) coverage control algorithms.">
<polygon fill="white" stroke="#666666" points="135.38,-73 16.62,-73 16.62,-54.5 135.38,-54.5 135.38,-73"/>
<text text-anchor="middle" x="76" y="-59.5" font-family="Helvetica,sans-Serif" font-size="10.00">coverage_algorithm.cpp</text>
</a>
</g>
</g>
<!-- Node1&#45;&gt;Node7 -->
<g id="edge43_Node000001_Node000007" class="edge">
<title>Node1&#45;&gt;Node7</title>
<g id="a_edge43_Node000001_Node000007"><a xlink:title=" ">
<path fill="none" stroke="#63b8ff" d="M725.27,-453.15C599.55,-448.73 266.56,-434.99 159,-410.5 84.92,-393.63 0,-423.72 0,-347.75 0,-347.75 0,-347.75 0,-182.25 0,-134.63 44.55,-91.05 65.43,-73.24"/>
<polygon fill="#63b8ff" stroke="#63b8ff" points="725.15,-456.65 735.26,-453.5 725.39,-449.65 725.15,-456.65"/>
</a>
</g>
</g>
<!-- Node8 -->
<g id="Node000008" class="node">
<title>Node8</title>
<g id="a_Node000008"><a xlink:href="decentralized__cvt_8h.html" target="_top" xlink:title="Contains the DecentralizedCVT class.">
<polygon fill="white" stroke="#666666" points="507.62,-132.75 408.38,-132.75 408.38,-114.25 507.62,-114.25 507.62,-132.75"/>
<text text-anchor="middle" x="458" y="-119.25" font-family="Helvetica,sans-Serif" font-size="10.00">decentralized_cvt.h</text>
</a>
</g>
</g>
<!-- Node1&#45;&gt;Node8 -->
<g id="edge45_Node000001_Node000008" class="edge">
<title>Node1&#45;&gt;Node8</title>
<g id="a_edge45_Node000001_Node000008"><a xlink:title=" ">
<path fill="none" stroke="#63b8ff" d="M725.48,-452.65C634.56,-448.17 442.2,-435.93 381,-410.5 345.23,-395.64 329.76,-390.92 313,-356 274.99,-276.82 327.77,-235.98 390,-174 406.55,-157.51 428.98,-142.3 443.47,-133.21"/>
<polygon fill="#63b8ff" stroke="#63b8ff" points="725.17,-456.14 735.32,-453.12 725.5,-449.15 725.17,-456.14"/>
</a>
</g>
</g>
<!-- Node9 -->
<g id="Node000009" class="node">
<title>Node9</title>
<g id="a_Node000009"><a xlink:href="near__optimal__cvt_8h.html" target="_top" xlink:title="NearOptimalCVT class Global offline oracle: has complete information about the environment....">
<polygon fill="white" stroke="#666666" points="684.88,-132.75 587.12,-132.75 587.12,-114.25 684.88,-114.25 684.88,-132.75"/>
<text text-anchor="middle" x="636" y="-119.25" font-family="Helvetica,sans-Serif" font-size="10.00">near_optimal_cvt.h</text>
</a>
</g>
</g>
<!-- Node1&#45;&gt;Node9 -->
<g id="edge54_Node000001_Node000009" class="edge">
<title>Node1&#45;&gt;Node9</title>
<g id="a_edge54_Node000001_Node000009"><a xlink:title=" ">
<path fill="none" stroke="#63b8ff" d="M774,-434.69C774,-413.19 774,-378.06 774,-347.75 774,-347.75 774,-347.75 774,-236.75 774,-180.7 704.63,-147.7 664.26,-133.24"/>
<polygon fill="#63b8ff" stroke="#63b8ff" points="770.5,-434.64 774,-444.64 777.5,-434.64 770.5,-434.64"/>
</a>
</g>
</g>
<!-- Node10 -->
<g id="Node000010" class="node">
<title>Node10</title>
<g id="a_Node000010"><a xlink:href="oracle__bang__explore__exploit_8h.html" target="_top" xlink:title="First trial of oracle with exploration and exploitation. The oracle uses complete information about t...">
<polygon fill="white" stroke="#666666" points="808.62,-138 703.38,-138 703.38,-109 808.62,-109 808.62,-138"/>
<text text-anchor="start" x="711.38" y="-124.5" font-family="Helvetica,sans-Serif" font-size="10.00">oracle_bang_explore</text>
<text text-anchor="middle" x="756" y="-114" font-family="Helvetica,sans-Serif" font-size="10.00">_exploit.h</text>
</a>
</g>
</g>
<!-- Node1&#45;&gt;Node10 -->
<g id="edge58_Node000001_Node000010" class="edge">
<title>Node1&#45;&gt;Node10</title>
<g id="a_edge58_Node000001_Node000010"><a xlink:title=" ">
<path fill="none" stroke="#63b8ff" d="M822.32,-446.16C900.97,-430.78 1048,-395.63 1048,-347.75 1048,-347.75 1048,-347.75 1048,-236.75 1048,-211.16 889.68,-162.39 806.2,-138.46"/>
<polygon fill="#63b8ff" stroke="#63b8ff" points="821.89,-442.68 812.72,-448 823.2,-449.55 821.89,-442.68"/>
</a>
</g>
</g>
<!-- Node11 -->
<g id="Node000011" class="node">
<title>Node11</title>
<g id="a_Node000011"><a xlink:href="oracle__explore__exploit_8h.html" target="_top" xlink:title="Old trial of exploration and exploitation Uses system map for exploration as well.">
<polygon fill="white" stroke="#666666" points="1189.12,-132.75 1068.88,-132.75 1068.88,-114.25 1189.12,-114.25 1189.12,-132.75"/>
<text text-anchor="middle" x="1129" y="-119.25" font-family="Helvetica,sans-Serif" font-size="10.00">oracle_explore_exploit.h</text>
</a>
</g>
</g>
<!-- Node1&#45;&gt;Node11 -->
<g id="edge59_Node000001_Node000011" class="edge">
<title>Node1&#45;&gt;Node11</title>
<g id="a_edge59_Node000001_Node000011"><a xlink:title=" ">
<path fill="none" stroke="#63b8ff" d="M822.42,-454.65C935.01,-453.78 1211.19,-447.79 1295,-410.5 1332.27,-393.91 1362,-388.55 1362,-347.75 1362,-347.75 1362,-347.75 1362,-236.75 1362,-160.19 1258.65,-135.82 1189.61,-128.08"/>
<polygon fill="#63b8ff" stroke="#63b8ff" points="822.59,-451.15 812.61,-454.72 822.63,-458.15 822.59,-451.15"/>
</a>
</g>
</g>
<!-- Node12 -->
<g id="Node000012" class="node">
<title>Node12</title>
<g id="a_Node000012"><a xlink:href="simul__explore__exploit_8h.html" target="_top" xlink:title="Simultaneous exploration and exploitation algorithm Uses frontier&#45;based exploration with bias towards...">
<polygon fill="white" stroke="#666666" points="1050.62,-132.75 933.38,-132.75 933.38,-114.25 1050.62,-114.25 1050.62,-132.75"/>
<text text-anchor="middle" x="992" y="-119.25" font-family="Helvetica,sans-Serif" font-size="10.00">simul_explore_exploit.h</text>
</a>
</g>
</g>
<!-- Node1&#45;&gt;Node12 -->
<g id="edge62_Node000001_Node000012" class="edge">
<title>Node1&#45;&gt;Node12</title>
<g id="a_edge62_Node000001_Node000012"><a xlink:title=" ">
<path fill="none" stroke="#63b8ff" d="M822.51,-455.53C956.87,-456.4 1324,-449.48 1324,-347.75 1324,-347.75 1324,-347.75 1324,-236.75 1324,-111.48 1183.34,-159.93 1060,-138 1051.7,-136.53 1042.86,-134.85 1034.39,-133.19"/>
<polygon fill="#63b8ff" stroke="#63b8ff" points="822.91,-452.04 812.88,-455.45 822.85,-459.03 822.91,-452.04"/>
</a>
</g>
</g>
<!-- Node13 -->
<g id="Node000013" class="node">
<title>Node13</title>
<g id="a_Node000013"><a xlink:href="bivariate__normal__distribution_8h.html" target="_top" xlink:title="Class for Bivariate Normal Distribution.">
<polygon fill="white" stroke="#666666" points="707.62,-410.5 560.38,-410.5 560.38,-392 707.62,-392 707.62,-410.5"/>
<text text-anchor="middle" x="634" y="-397" font-family="Helvetica,sans-Serif" font-size="10.00">bivariate_normal_distribution.h</text>
</a>
</g>
</g>
<!-- Node1&#45;&gt;Node13 -->
<g id="edge18_Node000001_Node000013" class="edge">
<title>Node1&#45;&gt;Node13</title>
<g id="a_edge18_Node000001_Node000013"><a xlink:title=" ">
<path fill="none" stroke="#63b8ff" d="M740.13,-442.05C714.42,-432.41 679.76,-419.41 657.15,-410.93"/>
<polygon fill="#63b8ff" stroke="#63b8ff" points="738.87,-445.32 749.46,-445.55 741.33,-438.76 738.87,-445.32"/>
</a>
</g>
</g>
<!-- Node14 -->
<g id="Node000014" class="node">
<title>Node14</title>
<g id="a_Node000014"><a xlink:href="coverage__system_8h.html" target="_top" xlink:title="The file contains the CoverageSystem class, which is the main class for the coverage control library.">
<polygon fill="white" stroke="#666666" points="664.62,-247 565.38,-247 565.38,-228.5 664.62,-228.5 664.62,-247"/>
<text text-anchor="middle" x="615" y="-233.5" font-family="Helvetica,sans-Serif" font-size="10.00">coverage_system.h</text>
</a>
</g>
</g>
<!-- Node1&#45;&gt;Node14 -->
<g id="edge44_Node000001_Node000014" class="edge">
<title>Node1&#45;&gt;Node14</title>
<g id="a_edge44_Node000001_Node000014"><a xlink:title=" ">
<path fill="none" stroke="#63b8ff" d="M760.76,-436.77C728.17,-392.48 644.95,-279.44 621.34,-247.36"/>
<polygon fill="#63b8ff" stroke="#63b8ff" points="757.93,-438.82 766.67,-444.8 763.56,-434.67 757.93,-438.82"/>
</a>
</g>
</g>
<!-- Node16 -->
<g id="Node000016" class="node">
<title>Node16</title>
<g id="a_Node000016"><a xlink:href="world__idf_8h.html" target="_top" xlink:title="Contains the class for Importance Density Function (IDF) for the world.">
<polygon fill="white" stroke="#666666" points="389.88,-356 328.12,-356 328.12,-337.5 389.88,-337.5 389.88,-356"/>
<text text-anchor="middle" x="359" y="-342.5" font-family="Helvetica,sans-Serif" font-size="10.00">world_idf.h</text>
</a>
</g>
</g>
<!-- Node1&#45;&gt;Node16 -->
<g id="edge63_Node000001_Node000016" class="edge">
<title>Node1&#45;&gt;Node16</title>
<g id="a_edge63_Node000001_Node000016"><a xlink:title=" ">
<path fill="none" stroke="#63b8ff" d="M725.29,-453.66C637.82,-450.94 458.26,-441.62 405,-410.5 383.31,-397.83 368.85,-370.44 362.57,-356.42"/>
<polygon fill="#63b8ff" stroke="#63b8ff" points="725.14,-457.16 735.24,-453.95 725.34,-450.16 725.14,-457.16"/>
</a>
</g>
</g>
<!-- Node17 -->
<g id="Node000017" class="node">
<title>Node17</title>
<g id="a_Node000017"><a xlink:href="robot__model_8h.html" target="_top" xlink:title="Class for handling the robot model.">
<polygon fill="white" stroke="#666666" points="427.75,-301.5 350.25,-301.5 350.25,-283 427.75,-283 427.75,-301.5"/>
<text text-anchor="middle" x="389" y="-288" font-family="Helvetica,sans-Serif" font-size="10.00">robot_model.h</text>
</a>
</g>
</g>
<!-- Node1&#45;&gt;Node17 -->
<g id="edge61_Node000001_Node000017" class="edge">
<title>Node1&#45;&gt;Node17</title>
<g id="a_edge61_Node000001_Node000017"><a xlink:title=" ">
<path fill="none" stroke="#63b8ff" d="M725.39,-451.14C678.97,-446.33 607.87,-435.3 551,-410.5 485.76,-382.05 421.12,-323.98 397.96,-301.97"/>
<polygon fill="#63b8ff" stroke="#63b8ff" points="724.84,-454.61 735.13,-452.09 725.51,-447.64 724.84,-454.61"/>
</a>
</g>
</g>
<!-- Node18 -->
<g id="Node000018" class="node">
<title>Node18</title>
<g id="a_Node000018"><a xlink:href="map__utils_8h.html" target="_top" xlink:title="Utility functions for transforming maps.">
<polygon fill="white" stroke="#666666" points="480.12,-410.5 413.88,-410.5 413.88,-392 480.12,-392 480.12,-410.5"/>
<text text-anchor="middle" x="447" y="-397" font-family="Helvetica,sans-Serif" font-size="10.00">map_utils.h</text>
</a>
</g>
</g>
<!-- Node1&#45;&gt;Node18 -->
<g id="edge46_Node000001_Node000018" class="edge">
<title>Node1&#45;&gt;Node18</title>
<g id="a_edge46_Node000001_Node000018"><a xlink:title=" ">
<path fill="none" stroke="#63b8ff" d="M725.69,-446.99C658.42,-436.19 538.29,-416.91 480.23,-407.59"/>
<polygon fill="#63b8ff" stroke="#63b8ff" points="724.88,-450.41 735.31,-448.54 725.99,-443.5 724.88,-450.41"/>
</a>
</g>
</g>
<!-- Node19 -->
<g id="Node000019" class="node">
<title>Node19</title>
<g id="a_Node000019"><a xlink:href="near__optimal__cvt__algorithm_8h.html" target="_top" xlink:title="Near Optimal Centroidal Voronoi Tessellation (CVT) algorithm Near&#45;optimal Centroidal Voronoi Tessella...">
<polygon fill="white" stroke="#666666" points="1257.75,-192.5 1114.25,-192.5 1114.25,-174 1257.75,-174 1257.75,-192.5"/>
<text text-anchor="middle" x="1186" y="-179" font-family="Helvetica,sans-Serif" font-size="10.00">near_optimal_cvt_algorithm.h</text>
</a>
</g>
</g>
<!-- Node1&#45;&gt;Node19 -->
<g id="edge55_Node000001_Node000019" class="edge">
<title>Node1&#45;&gt;Node19</title>
<g id="a_edge55_Node000001_Node000019"><a xlink:title=" ">
<path fill="none" stroke="#63b8ff" d="M822.53,-455.22C881.68,-454.05 983.47,-446.32 1062,-410.5 1101.23,-392.61 1136,-390.87 1136,-347.75 1136,-347.75 1136,-347.75 1136,-291.25 1136,-251.27 1165.01,-210.11 1178.84,-192.77"/>
<polygon fill="#63b8ff" stroke="#63b8ff" points="822.75,-451.71 812.8,-455.35 822.84,-458.71 822.75,-451.71"/>
</a>
</g>
</g>
<!-- Node20 -->
<g id="Node000020" class="node">
<title>Node20</title>
<g id="a_Node000020"><a xlink:href="parameters_8cpp.html" target="_top" xlink:title="Parses toml configuration file and sets parameters.">
<polygon fill="white" stroke="#666666" points="1512.12,-410.5 1427.88,-410.5 1427.88,-392 1512.12,-392 1512.12,-410.5"/>
<text text-anchor="middle" x="1470" y="-397" font-family="Helvetica,sans-Serif" font-size="10.00">parameters.cpp</text>
</a>
</g>
</g>
<!-- Node1&#45;&gt;Node20 -->
<g id="edge60_Node000001_Node000020" class="edge">
<title>Node1&#45;&gt;Node20</title>
<g id="a_edge60_Node000001_Node000020"><a xlink:title=" ">
<path fill="none" stroke="#63b8ff" d="M822.61,-452.67C929.68,-447.82 1193.87,-434.29 1414,-410.5 1418.4,-410.02 1422.98,-409.46 1427.54,-408.86"/>
<polygon fill="#63b8ff" stroke="#63b8ff" points="822.59,-449.17 812.75,-453.11 822.9,-456.16 822.59,-449.17"/>
</a>
</g>
</g>
<!-- Node2&#45;&gt;Node3 -->
<g id="edge2_Node000002_Node000003" class="edge">
<title>Node2&#45;&gt;Node3</title>
<g id="a_edge2_Node000002_Node000003"><a xlink:title=" ">
<path fill="none" stroke="#63b8ff" d="M859.67,-162.99C862.66,-152.85 866.17,-140.92 868.48,-133.06"/>
<polygon fill="#63b8ff" stroke="#63b8ff" points="856.4,-161.7 856.94,-172.28 863.12,-163.67 856.4,-161.7"/>
</a>
</g>
</g>
<!-- Node2&#45;&gt;Node6 -->
<g id="edge5_Node000002_Node000006" class="edge">
<title>Node2&#45;&gt;Node6</title>
<g id="a_edge5_Node000002_Node000006"><a xlink:title=" ">
<path fill="none" stroke="#63b8ff" d="M790.09,-176.69C656.31,-165.06 349.67,-138.39 234.66,-128.38"/>
<polygon fill="#63b8ff" stroke="#63b8ff" points="789.57,-180.16 799.83,-177.54 790.18,-173.19 789.57,-180.16"/>
</a>
</g>
</g>
<!-- Node2&#45;&gt;Node8 -->
<g id="edge8_Node000002_Node000008" class="edge">
<title>Node2&#45;&gt;Node8</title>
<g id="a_edge8_Node000002_Node000008"><a xlink:title=" ">
<path fill="none" stroke="#63b8ff" d="M790.22,-172.95C711.6,-161.48 579.65,-142.24 507.99,-131.79"/>
<polygon fill="#63b8ff" stroke="#63b8ff" points="789.52,-176.38 799.92,-174.36 790.53,-169.46 789.52,-176.38"/>
</a>
</g>
</g>
<!-- Node2&#45;&gt;Node9 -->
<g id="edge10_Node000002_Node000009" class="edge">
<title>Node2&#45;&gt;Node9</title>
<g id="a_edge10_Node000002_Node000009"><a xlink:title=" ">
<path fill="none" stroke="#63b8ff" d="M810.43,-170.71C768.68,-159.65 706.6,-143.2 668.86,-133.2"/>
<polygon fill="#63b8ff" stroke="#63b8ff" points="809.34,-174.04 819.9,-173.22 811.13,-167.27 809.34,-174.04"/>
</a>
</g>
</g>
<!-- Node2&#45;&gt;Node10 -->
<g id="edge12_Node000002_Node000010" class="edge">
<title>Node2&#45;&gt;Node10</title>
<g id="a_edge12_Node000002_Node000010"><a xlink:title=" ">
<path fill="none" stroke="#63b8ff" d="M829.76,-167.97C814.47,-158.96 794.82,-147.38 779.64,-138.43"/>
<polygon fill="#63b8ff" stroke="#63b8ff" points="827.84,-170.9 838.24,-172.96 831.4,-164.87 827.84,-170.9"/>
</a>
</g>
</g>
<!-- Node2&#45;&gt;Node11 -->
<g id="edge14_Node000002_Node000011" class="edge">
<title>Node2&#45;&gt;Node11</title>
<g id="a_edge14_Node000002_Node000011"><a xlink:title=" ">
<path fill="none" stroke="#63b8ff" d="M906.6,-171.2C959.3,-160.14 1039.33,-143.33 1087.64,-133.18"/>
<polygon fill="#63b8ff" stroke="#63b8ff" points="906.02,-167.75 896.95,-173.23 907.46,-174.6 906.02,-167.75"/>
</a>
</g>
</g>
<!-- Node2&#45;&gt;Node12 -->
<g id="edge16_Node000002_Node000012" class="edge">
<title>Node2&#45;&gt;Node12</title>
<g id="a_edge16_Node000002_Node000012"><a xlink:title=" ">
<path fill="none" stroke="#63b8ff" d="M885.21,-169.19C911.5,-158.19 948.38,-142.76 971.2,-133.2"/>
<polygon fill="#63b8ff" stroke="#63b8ff" points="883.93,-165.93 876.06,-173.02 886.63,-172.39 883.93,-165.93"/>
</a>
</g>
</g>
<!-- Node3&#45;&gt;Node4 -->
<g id="edge3_Node000003_Node000004" class="edge">
<title>Node3&#45;&gt;Node4</title>
<g id="a_edge3_Node000003_Node000004"><a xlink:title=" ">
<path fill="none" stroke="#63b8ff" d="M827.75,-111.13C824.46,-110.37 821.18,-109.65 818,-109 730.13,-90.96 625.55,-76.31 571.81,-69.27"/>
<polygon fill="#63b8ff" stroke="#63b8ff" points="826.87,-114.52 837.41,-113.45 828.5,-107.71 826.87,-114.52"/>
</a>
</g>
</g>
<!-- Node5 -->
<g id="Node000005" class="node">
<title>Node5</title>
<g id="a_Node000005"><a xlink:href="python__binds_8cpp.html" target="_top" xlink:title="Python bindings for the CoverageControl library using pybind11 (core_binds.h)">
<polygon fill="white" stroke="#666666" points="447.25,-18.5 354.75,-18.5 354.75,0 447.25,0 447.25,-18.5"/>
<text text-anchor="middle" x="401" y="-5" font-family="Helvetica,sans-Serif" font-size="10.00">python_binds.cpp</text>
</a>
</g>
</g>
<!-- Node4&#45;&gt;Node5 -->
<g id="edge4_Node000004_Node000005" class="edge">
<title>Node4&#45;&gt;Node5</title>
<g id="a_edge4_Node000004_Node000005"><a xlink:title=" ">
<path fill="none" stroke="#63b8ff" d="M503,-49.92C478.25,-40.29 445.03,-27.37 423.33,-18.93"/>
<polygon fill="#63b8ff" stroke="#63b8ff" points="501.71,-53.17 512.3,-53.53 504.25,-46.65 501.71,-53.17"/>
</a>
</g>
</g>
<!-- Node6&#45;&gt;Node4 -->
<g id="edge6_Node000006_Node000004" class="edge">
<title>Node6&#45;&gt;Node4</title>
<g id="a_edge6_Node000006_Node000004"><a xlink:title=" ">
<path fill="none" stroke="#63b8ff" d="M245.55,-113.23C317.04,-101.3 439.24,-80.9 499.8,-70.79"/>
<polygon fill="#63b8ff" stroke="#63b8ff" points="245.31,-109.72 236.02,-114.82 246.46,-116.63 245.31,-109.72"/>
</a>
</g>
</g>
<!-- Node6&#45;&gt;Node7 -->
<g id="edge7_Node000006_Node000007" class="edge">
<title>Node6&#45;&gt;Node7</title>
<g id="a_edge7_Node000006_Node000007"><a xlink:title=" ">
<path fill="none" stroke="#63b8ff" d="M163.01,-108.83C141.42,-97.89 111.78,-82.87 93.26,-73.5"/>
<polygon fill="#63b8ff" stroke="#63b8ff" points="161.33,-111.9 171.83,-113.29 164.49,-105.65 161.33,-111.9"/>
</a>
</g>
</g>
<!-- Node8&#45;&gt;Node4 -->
<g id="edge9_Node000008_Node000004" class="edge">
<title>Node8&#45;&gt;Node4</title>
<g id="a_edge9_Node000008_Node000004"><a xlink:title=" ">
<path fill="none" stroke="#63b8ff" d="M478.73,-107.15C493.26,-96.39 512.16,-82.4 524.19,-73.5"/>
<polygon fill="#63b8ff" stroke="#63b8ff" points="476.68,-104.31 470.73,-113.08 480.85,-109.94 476.68,-104.31"/>
</a>
</g>
</g>
<!-- Node9&#45;&gt;Node4 -->
<g id="edge11_Node000009_Node000004" class="edge">
<title>Node9&#45;&gt;Node4</title>
<g id="a_edge11_Node000009_Node000004"><a xlink:title=" ">
<path fill="none" stroke="#63b8ff" d="M611.28,-108.23C592.44,-97.34 567.09,-82.7 551.14,-73.5"/>
<polygon fill="#63b8ff" stroke="#63b8ff" points="609.52,-111.25 619.93,-113.22 613.02,-105.19 609.52,-111.25"/>
</a>
</g>
</g>
<!-- Node10&#45;&gt;Node4 -->
<g id="edge13_Node000010_Node000004" class="edge">
<title>Node10&#45;&gt;Node4</title>
<g id="a_edge13_Node000010_Node000004"><a xlink:title=" ">
<path fill="none" stroke="#63b8ff" d="M691.96,-105.69C651.71,-95.12 601.46,-81.93 569.05,-73.43"/>
<polygon fill="#63b8ff" stroke="#63b8ff" points="691,-109.06 701.56,-108.21 692.78,-102.29 691,-109.06"/>
</a>
</g>
</g>
<!-- Node11&#45;&gt;Node4 -->
<g id="edge15_Node000011_Node000004" class="edge">
<title>Node11&#45;&gt;Node4</title>
<g id="a_edge15_Node000011_Node000004"><a xlink:title=" ">
<path fill="none" stroke="#63b8ff" d="M1077.23,-111.74C1071.43,-110.72 1065.6,-109.78 1060,-109 877.58,-83.53 657.24,-70.72 572.05,-66.44"/>
<polygon fill="#63b8ff" stroke="#63b8ff" points="1076.3,-115.13 1086.77,-113.49 1077.57,-108.24 1076.3,-115.13"/>
</a>
</g>
</g>
<!-- Node12&#45;&gt;Node4 -->
<g id="edge17_Node000012_Node000004" class="edge">
<title>Node12&#45;&gt;Node4</title>
<g id="a_edge17_Node000012_Node000004"><a xlink:title=" ">
<path fill="none" stroke="#63b8ff" d="M940.08,-111.73C934.66,-110.75 929.23,-109.82 924,-109 795.22,-88.91 641.04,-74.04 572.24,-67.88"/>
<polygon fill="#63b8ff" stroke="#63b8ff" points="939.14,-115.12 949.62,-113.53 940.44,-108.24 939.14,-115.12"/>
</a>
</g>
</g>
<!-- Node13&#45;&gt;Node4 -->
<g id="edge19_Node000013_Node000004" class="edge">
<title>Node13&#45;&gt;Node4</title>
<g id="a_edge19_Node000013_Node000004"><a xlink:title=" ">
<path fill="none" stroke="#63b8ff" d="M612.3,-385.11C562.9,-349.12 442.93,-252.85 399,-138 394.4,-125.96 391.42,-119.42 399,-109 421.87,-77.58 467.51,-68 499.81,-65.33"/>
<polygon fill="#63b8ff" stroke="#63b8ff" points="610.06,-387.81 620.23,-390.79 614.14,-382.12 610.06,-387.81"/>
</a>
</g>
</g>
<!-- Node13&#45;&gt;Node14 -->
<g id="edge20_Node000013_Node000014" class="edge">
<title>Node13&#45;&gt;Node14</title>
<g id="a_edge20_Node000013_Node000014"><a xlink:title=" ">
<path fill="none" stroke="#63b8ff" d="M631.66,-380.37C627.5,-345 618.97,-272.5 616.03,-247.48"/>
<polygon fill="#63b8ff" stroke="#63b8ff" points="628.16,-380.54 632.8,-390.06 635.11,-379.72 628.16,-380.54"/>
</a>
</g>
</g>
<!-- Node13&#45;&gt;Node16 -->
<g id="edge33_Node000013_Node000016" class="edge">
<title>Node13&#45;&gt;Node16</title>
<g id="a_edge33_Node000013_Node000016"><a xlink:title=" ">
<path fill="none" stroke="#63b8ff" d="M577,-389.37C520.36,-378.56 435.61,-362.37 390.27,-353.72"/>
<polygon fill="#63b8ff" stroke="#63b8ff" points="576.31,-392.8 586.79,-391.24 577.63,-385.92 576.31,-392.8"/>
</a>
</g>
</g>
<!-- Node14&#45;&gt;Node2 -->
<g id="edge21_Node000014_Node000002" class="edge">
<title>Node14&#45;&gt;Node2</title>
<g id="a_edge21_Node000014_Node000002"><a xlink:title=" ">
<path fill="none" stroke="#63b8ff" d="M665.84,-225.58C710.13,-215.85 773.47,-201.94 814.17,-193"/>
<polygon fill="#63b8ff" stroke="#63b8ff" points="665.23,-222.13 656.21,-227.7 666.73,-228.97 665.23,-222.13"/>
</a>
</g>
</g>
<!-- Node14&#45;&gt;Node3 -->
<g id="edge22_Node000014_Node000003" class="edge">
<title>Node14&#45;&gt;Node3</title>
<g id="a_edge22_Node000014_Node000003"><a xlink:title=" ">
<path fill="none" stroke="#63b8ff" d="M676.23,-236.75C754.85,-235.3 884.79,-227.49 915,-192.5 931.82,-173.02 902.11,-146.64 883.8,-133.18"/>
<polygon fill="#63b8ff" stroke="#63b8ff" points="676.48,-233.25 666.53,-236.9 676.58,-240.25 676.48,-233.25"/>
</a>
</g>
</g>
<!-- Node14&#45;&gt;Node4 -->
<g id="edge24_Node000014_Node000004" class="edge">
<title>Node14&#45;&gt;Node4</title>
<g id="a_edge24_Node000014_Node000004"><a xlink:title=" ">
<path fill="none" stroke="#63b8ff" d="M584.08,-222.6C571.77,-215.36 558.72,-205.34 551,-192.5 527.41,-153.27 531.98,-94.95 534.74,-73.27"/>
<polygon fill="#63b8ff" stroke="#63b8ff" points="582.32,-225.62 592.78,-227.3 585.64,-219.47 582.32,-225.62"/>
</a>
</g>
</g>
<!-- Node14&#45;&gt;Node5 -->
<g id="edge31_Node000014_Node000005" class="edge">
<title>Node14&#45;&gt;Node5</title>
<g id="a_edge31_Node000014_Node000005"><a xlink:title=" ">
<path fill="none" stroke="#63b8ff" d="M553.85,-228.22C501.83,-217.28 430.67,-192.68 399,-138 376.21,-98.65 391.2,-40.4 398.08,-18.76"/>
<polygon fill="#63b8ff" stroke="#63b8ff" points="553,-231.62 563.49,-230.12 554.35,-224.75 553,-231.62"/>
</a>
</g>
</g>
<!-- Node14&#45;&gt;Node6 -->
<g id="edge23_Node000014_Node000006" class="edge">
<title>Node14&#45;&gt;Node6</title>
<g id="a_edge23_Node000014_Node000006"><a xlink:title=" ">
<path fill="none" stroke="#63b8ff" d="M553.91,-236.7C487.01,-234.77 377.58,-226.09 290,-192.5 252.95,-178.29 216.1,-148 199.35,-133.12"/>
<polygon fill="#63b8ff" stroke="#63b8ff" points="553.49,-240.19 563.57,-236.93 553.66,-233.19 553.49,-240.19"/>
</a>
</g>
</g>
<!-- Node14&#45;&gt;Node7 -->
<g id="edge25_Node000014_Node000007" class="edge">
<title>Node14&#45;&gt;Node7</title>
<g id="a_edge25_Node000014_Node000007"><a xlink:title=" ">
<path fill="none" stroke="#63b8ff" d="M553.81,-235.34C480.49,-232.29 354.56,-222.67 251,-192.5 197.08,-176.79 181.32,-172.48 137,-138 112.44,-118.9 91.06,-88.35 81.43,-73.47"/>
<polygon fill="#63b8ff" stroke="#63b8ff" points="553.47,-238.83 563.6,-235.72 553.74,-231.84 553.47,-238.83"/>
</a>
</g>
</g>
<!-- Node14&#45;&gt;Node8 -->
<g id="edge27_Node000014_Node000008" class="edge">
<title>Node14&#45;&gt;Node8</title>
<g id="a_edge27_Node000014_Node000008"><a xlink:title=" ">
<path fill="none" stroke="#63b8ff" d="M577.63,-223.98C558.73,-216.49 536.02,-205.86 518,-192.5 494.47,-175.06 473.46,-147.07 463.73,-133.06"/>
<polygon fill="#63b8ff" stroke="#63b8ff" points="576.26,-227.2 586.85,-227.48 578.75,-220.66 576.26,-227.2"/>
</a>
</g>
</g>
<!-- Node14&#45;&gt;Node9 -->
<g id="edge28_Node000014_Node000009" class="edge">
<title>Node14&#45;&gt;Node9</title>
<g id="a_edge28_Node000014_Node000009"><a xlink:title=" ">
<path fill="none" stroke="#63b8ff" d="M647.18,-222.71C659.46,-215.57 672.14,-205.59 679,-192.5 690.61,-170.36 664.96,-145.93 648.48,-133.25"/>
<polygon fill="#63b8ff" stroke="#63b8ff" points="645.64,-219.56 638.44,-227.34 648.92,-225.75 645.64,-219.56"/>
</a>
</g>
</g>
<!-- Node14&#45;&gt;Node10 -->
<g id="edge29_Node000014_Node000010" class="edge">
<title>Node14&#45;&gt;Node10</title>
<g id="a_edge29_Node000014_Node000010"><a xlink:title=" ">
<path fill="none" stroke="#63b8ff" d="M645.1,-223.12C660.76,-215.3 679.77,-204.63 695,-192.5 715.35,-176.3 734.66,-152.95 745.91,-138.26"/>
<polygon fill="#63b8ff" stroke="#63b8ff" points="643.71,-219.9 636.23,-227.4 646.76,-226.2 643.71,-219.9"/>
</a>
</g>
</g>
<!-- Node14&#45;&gt;Node11 -->
<g id="edge30_Node000014_Node000011" class="edge">
<title>Node14&#45;&gt;Node11</title>
<g id="a_edge30_Node000014_Node000011"><a xlink:title=" ">
<path fill="none" stroke="#63b8ff" d="M675.99,-233.49C745.26,-228.74 861.23,-217.56 958,-192.5 1016.15,-177.44 1081.11,-147.83 1111.52,-133.16"/>
<polygon fill="#63b8ff" stroke="#63b8ff" points="676.13,-229.98 666.38,-234.13 676.59,-236.96 676.13,-229.98"/>
</a>
</g>
</g>
<!-- Node14&#45;&gt;Node12 -->
<g id="edge32_Node000014_Node000012" class="edge">
<title>Node14&#45;&gt;Node12</title>
<g id="a_edge32_Node000014_Node000012"><a xlink:title=" ">
<path fill="none" stroke="#63b8ff" d="M676.43,-233.23C755.84,-227.83 889.02,-215.6 932,-192.5 958.35,-178.34 978.64,-147.74 987.35,-132.9"/>
<polygon fill="#63b8ff" stroke="#63b8ff" points="676.38,-229.73 666.63,-233.88 676.84,-236.72 676.38,-229.73"/>
</a>
</g>
</g>
<!-- Node15 -->
<g id="Node000015" class="node">
<title>Node15</title>
<g id="a_Node000015"><a xlink:href="coverage__system_8cpp.html" target="_top" xlink:title="Contains the implementation of the CoverageSystem class.">
<polygon fill="white" stroke="#666666" points="669.88,-192.5 560.12,-192.5 560.12,-174 669.88,-174 669.88,-192.5"/>
<text text-anchor="middle" x="615" y="-179" font-family="Helvetica,sans-Serif" font-size="10.00">coverage_system.cpp</text>
</a>
</g>
</g>
<!-- Node14&#45;&gt;Node15 -->
<g id="edge26_Node000014_Node000015" class="edge">
<title>Node14&#45;&gt;Node15</title>
<g id="a_edge26_Node000014_Node000015"><a xlink:title=" ">
<path fill="none" stroke="#63b8ff" d="M615,-216.64C615,-208.36 615,-199.21 615,-192.76"/>
<polygon fill="#63b8ff" stroke="#63b8ff" points="611.5,-216.57 615,-226.57 618.5,-216.57 611.5,-216.57"/>
</a>
</g>
</g>
<!-- Node16&#45;&gt;Node4 -->
<g id="edge34_Node000016_Node000004" class="edge">
<title>Node16&#45;&gt;Node4</title>
<g id="a_edge34_Node000016_Node000004"><a xlink:title=" ">
<path fill="none" stroke="#63b8ff" d="M345.09,-328C339.91,-320.3 334.64,-310.91 332,-301.5 315.04,-241.13 212.15,-265.69 349,-109 368.53,-86.64 451.31,-73.98 499.94,-68.34"/>
<polygon fill="#63b8ff" stroke="#63b8ff" points="342.24,-330.03 350.96,-336.06 347.9,-325.91 342.24,-330.03"/>
</a>
</g>
</g>
<!-- Node16&#45;&gt;Node7 -->
<g id="edge35_Node000016_Node000007" class="edge">
<title>Node16&#45;&gt;Node7</title>
<g id="a_edge35_Node000016_Node000007"><a xlink:title=" ">
<path fill="none" stroke="#63b8ff" d="M333.67,-331.41C283.19,-301.63 169.29,-228.28 104,-138 89,-117.26 80.93,-87.48 77.7,-73.12"/>
<polygon fill="#63b8ff" stroke="#63b8ff" points="331.73,-334.33 342.13,-336.33 335.25,-328.28 331.73,-334.33"/>
</a>
</g>
</g>
<!-- Node16&#45;&gt;Node14 -->
<g id="edge36_Node000016_Node000014" class="edge">
<title>Node16&#45;&gt;Node14</title>
<g id="a_edge36_Node000016_Node000014"><a xlink:title=" ">
<path fill="none" stroke="#63b8ff" d="M346.05,-328.1C337.7,-314.4 330.23,-295.65 341,-283 369.19,-249.89 493.84,-241.47 564.92,-239.39"/>
<polygon fill="#63b8ff" stroke="#63b8ff" points="342.99,-329.82 351.48,-336.16 348.8,-325.91 342.99,-329.82"/>
</a>
</g>
</g>
<!-- Node16&#45;&gt;Node17 -->
<g id="edge37_Node000016_Node000017" class="edge">
<title>Node16&#45;&gt;Node17</title>
<g id="a_edge37_Node000016_Node000017"><a xlink:title=" ">
<path fill="none" stroke="#63b8ff" d="M369.66,-327.09C374.61,-318.44 380.23,-308.59 384.14,-301.76"/>
<polygon fill="#63b8ff" stroke="#63b8ff" points="366.63,-325.35 364.7,-335.77 372.71,-328.82 366.63,-325.35"/>
</a>
</g>
</g>
<!-- Node17&#45;&gt;Node4 -->
<g id="edge38_Node000017_Node000004" class="edge">
<title>Node17&#45;&gt;Node4</title>
<g id="a_edge38_Node000017_Node000004"><a xlink:title=" ">
<path fill="none" stroke="#63b8ff" d="M378.7,-272.47C360.58,-236.64 328.34,-157.72 366,-109 382.23,-88.01 454.93,-75.11 499.84,-69"/>
<polygon fill="#63b8ff" stroke="#63b8ff" points="375.51,-273.95 383.27,-281.16 381.71,-270.68 375.51,-273.95"/>
</a>
</g>
</g>
<!-- Node17&#45;&gt;Node14 -->
<g id="edge39_Node000017_Node000014" class="edge">
<title>Node17&#45;&gt;Node14</title>
<g id="a_edge39_Node000017_Node000014"><a xlink:title=" ">
<path fill="none" stroke="#63b8ff" d="M437.61,-279.96C479.47,-270.23 539.02,-256.4 577.34,-247.5"/>
<polygon fill="#63b8ff" stroke="#63b8ff" points="437,-276.51 428.05,-282.18 438.58,-283.33 437,-276.51"/>
</a>
</g>
</g>
<!-- Node18&#45;&gt;Node6 -->
<g id="edge47_Node000018_Node000006" class="edge">
<title>Node18&#45;&gt;Node6</title>
<g id="a_edge47_Node000018_Node000006"><a xlink:title=" ">
<path fill="none" stroke="#63b8ff" d="M402.38,-394.22C374.12,-388.45 338.27,-377.31 313,-356 236.46,-291.45 200.64,-166.88 192.07,-133.12"/>
<polygon fill="#63b8ff" stroke="#63b8ff" points="401.62,-397.64 412.09,-396.03 402.91,-390.76 401.62,-397.64"/>
</a>
</g>
</g>
<!-- Node18&#45;&gt;Node8 -->
<g id="edge49_Node000018_Node000008" class="edge">
<title>Node18&#45;&gt;Node8</title>
<g id="a_edge49_Node000018_Node000008"><a xlink:title=" ">
<path fill="none" stroke="#63b8ff" d="M402.31,-397.53C373.41,-393.18 337.79,-382.37 319,-356 314.23,-349.3 318.04,-345.67 319,-337.5 321.91,-312.77 321.1,-305.39 332,-283 363.53,-218.2 425.36,-155.54 448.74,-133.15"/>
<polygon fill="#63b8ff" stroke="#63b8ff" points="401.54,-400.96 411.91,-398.75 402.43,-394.02 401.54,-400.96"/>
</a>
</g>
</g>
<!-- Node18&#45;&gt;Node9 -->
<g id="edge50_Node000018_Node000009" class="edge">
<title>Node18&#45;&gt;Node9</title>
<g id="a_edge50_Node000018_Node000009"><a xlink:title=" ">
<path fill="none" stroke="#63b8ff" d="M449.66,-380.54C452.31,-359.1 456,-323.81 456,-293.25 456,-293.25 456,-293.25 456,-236.75 456,-174.88 533.52,-145.87 586.81,-133.24"/>
<polygon fill="#63b8ff" stroke="#63b8ff" points="446.22,-379.8 448.41,-390.17 453.16,-380.7 446.22,-379.8"/>
</a>
</g>
</g>
<!-- Node18&#45;&gt;Node12 -->
<g id="edge52_Node000018_Node000012" class="edge">
<title>Node18&#45;&gt;Node12</title>
<g id="a_edge52_Node000018_Node000012"><a xlink:title=" ">
<path fill="none" stroke="#63b8ff" d="M491.91,-396.46C625.31,-384.61 1010,-345.88 1010,-293.25 1010,-293.25 1010,-293.25 1010,-236.75 1010,-197.67 999.23,-151.89 994.35,-133.16"/>
<polygon fill="#63b8ff" stroke="#63b8ff" points="491.7,-392.97 482.04,-397.33 492.31,-399.94 491.7,-392.97"/>
</a>
</g>
</g>
<!-- Node18&#45;&gt;Node14 -->
<g id="edge48_Node000018_Node000014" class="edge">
<title>Node18&#45;&gt;Node14</title>
<g id="a_edge48_Node000018_Node000014"><a xlink:title=" ">
<path fill="none" stroke="#63b8ff" d="M463.95,-383.95C499.12,-350.15 578.97,-273.38 605.92,-247.48"/>
<polygon fill="#63b8ff" stroke="#63b8ff" points="461.91,-381.06 457.12,-390.52 466.76,-386.11 461.91,-381.06"/>
</a>
</g>
</g>
<!-- Node18&#45;&gt;Node16 -->
<g id="edge53_Node000018_Node000016" class="edge">
<title>Node18&#45;&gt;Node16</title>
<g id="a_edge53_Node000018_Node000016"><a xlink:title=" ">
<path fill="none" stroke="#63b8ff" d="M422.83,-385.83C407.04,-376.41 386.94,-364.42 373.55,-356.43"/>
<polygon fill="#63b8ff" stroke="#63b8ff" points="420.79,-388.69 431.17,-390.81 424.37,-382.68 420.79,-388.69"/>
</a>
</g>
</g>
<!-- Node18&#45;&gt;Node17 -->
<g id="edge51_Node000018_Node000017" class="edge">
<title>Node18&#45;&gt;Node17</title>
<g id="a_edge51_Node000018_Node000017"><a xlink:title=" ">
<path fill="none" stroke="#63b8ff" d="M437.02,-381.84C424.37,-358.51 403.08,-319.23 393.69,-301.9"/>
<polygon fill="#63b8ff" stroke="#63b8ff" points="433.89,-383.4 441.73,-390.52 440.04,-380.06 433.89,-383.4"/>
</a>
</g>
</g>
<!-- Node19&#45;&gt;Node9 -->
<g id="edge56_Node000019_Node000009" class="edge">
<title>Node19&#45;&gt;Node9</title>
<g id="a_edge56_Node000019_Node000009"><a xlink:title=" ">
<path fill="none" stroke="#63b8ff" d="M1102.58,-178.29C1004.36,-172.81 836.54,-160.89 694,-138 686.14,-136.74 677.76,-135.01 669.89,-133.22"/>
<polygon fill="#63b8ff" stroke="#63b8ff" points="1102.22,-181.77 1112.4,-178.83 1102.6,-174.78 1102.22,-181.77"/>
</a>
</g>
</g>
<!-- Node19&#45;&gt;Node11 -->
<g id="edge57_Node000019_Node000011" class="edge">
<title>Node19&#45;&gt;Node11</title>
<g id="a_edge57_Node000019_Node000011"><a xlink:title=" ">
<path fill="none" stroke="#63b8ff" d="M1169.56,-165.59C1159.06,-154.95 1145.88,-141.6 1137.45,-133.06"/>
<polygon fill="#63b8ff" stroke="#63b8ff" points="1167.01,-167.99 1176.53,-172.65 1171.99,-163.08 1167.01,-167.99"/>
</a>
</g>
</g>
</g>
</svg>

<g id="navigator" transform="translate(0 0)" fill="#404254">
  <rect fill="#f2f5e9" fill-opacity="0.5" stroke="#606060" stroke-width=".5" x="0" y="0" width="60" height="60"/>
  <use id="zoomplus" xlink:href="#zoomPlus" x="17" y="9" onmousedown="handleZoom(evt,'in')"/>
  <use id="zoomminus" xlink:href="#zoomMin" x="42" y="9" onmousedown="handleZoom(evt,'out')"/>
  <use id="reset" xlink:href="#resetDef" x="30" y="36" onmousedown="handleReset()"/>
   <use id="arrowup" xlink:href="#arrowUp" x="0" y="0" onmousedown="handlePan(0,-1)"/>
  <use id="arrowright" xlink:href="#arrowRight" x="0" y="0" onmousedown="handlePan(1,0)"/>
  <use id="arrowdown" xlink:href="#arrowDown" x="0" y="0" onmousedown="handlePan(0,1)"/>
  <use id="arrowleft" xlink:href="#arrowLeft" x="0" y="0" onmousedown="handlePan(-1,0)"/>
</g>
<svg viewBox="0 0 15 15" width="100%" height="30px" preserveAspectRatio="xMaxYMin meet">
 <g id="arrow_out" transform="scale(0.3 0.3)">
  <a xlink:href="parameters_8h__dep__incl_org.svg" target="_base">
   <rect id="button" ry="5" rx="5" y="6" x="6" height="38" width="38"
        fill="#f2f5e9" fill-opacity="0.5" stroke="#606060" stroke-width="1.0"/>
   <path id="arrow"
     d="M 11.500037,31.436501 C 11.940474,20.09759 22.043105,11.32322 32.158766,21.979434 L 37.068811,17.246167 C 37.068811,17.246167 37.088388,32 37.088388,32 L 22.160133,31.978069 C 22.160133,31.978069 26.997745,27.140456 26.997745,27.140456 C 18.528582,18.264221 13.291696,25.230495 11.500037,31.436501 z"
     style="fill:#404040;"/>
  </a>
 </g>
</svg>

<style type='text/css'>
<![CDATA[
[data-mouse-over-selected='false'] { opacity: 0.7; }
[data-mouse-over-selected='true']  { opacity: 1.0; }
]]>
</style>
<script type="application/ecmascript"><![CDATA[
document.addEventListener('DOMContentLoaded', (event) => {
  highlightEdges();
  highlightAdjacentNodes();
});
]]></script>
</svg>
