<?xml version="1.0" encoding="UTF-8" standalone="no"?>
<!DOCTYPE svg PUBLIC "-//W3C//DTD SVG 1.1//EN"
 "http://www.w3.org/Graphics/SVG/1.1/DTD/svg11.dtd">
<!-- Generated by graphviz version 10.0.1 (0)
 -->
<!-- Title: plotter.h Pages: 1 -->
<svg width="886pt" height="255pt"
 viewBox="0.00 0.00 886.00 255.00" xmlns="http://www.w3.org/2000/svg" xmlns:xlink="http://www.w3.org/1999/xlink">
<g id="graph0" class="graph" transform="scale(1 1) rotate(0) translate(4 251)">
<title>plotter.h</title>
<!-- Node1 -->
<g id="Node000001" class="node">
<title>Node1</title>
<g id="a_Node000001"><a xlink:title="Class to plot the map.">
<polygon fill="#999999" stroke="#666666" points="443.25,-247 392,-247 392,-228.5 443.25,-228.5 443.25,-247"/>
<text text-anchor="middle" x="417.62" y="-233.5" font-family="Helvetica,sans-Serif" font-size="10.00">plotter.h</text>
</a>
</g>
</g>
<!-- Node2 -->
<g id="Node000002" class="node">
<title>Node2</title>
<g id="a_Node000002"><a xlink:href="coverage__system_8cpp.html" target="_top" xlink:title="Contains the implementation of the CoverageSystem class.">
<polygon fill="white" stroke="#666666" points="233.5,-138 123.75,-138 123.75,-119.5 233.5,-119.5 233.5,-138"/>
<text text-anchor="middle" x="178.62" y="-124.5" font-family="Helvetica,sans-Serif" font-size="10.00">coverage_system.cpp</text>
</a>
</g>
</g>
<!-- Node1&#45;&gt;Node2 -->
<g id="edge1_Node000001_Node000002" class="edge">
<title>Node1&#45;&gt;Node2</title>
<g id="a_edge1_Node000001_Node000002"><a xlink:title=" ">
<path fill="none" stroke="#63b8ff" d="M388.09,-223.53C338.44,-201.3 239.56,-157.03 197.87,-138.37"/>
<polygon fill="#63b8ff" stroke="#63b8ff" points="386.53,-226.66 397.09,-227.56 389.39,-220.28 386.53,-226.66"/>
</a>
</g>
</g>
<!-- Node3 -->
<g id="Node000003" class="node">
<title>Node3</title>
<g id="a_Node000003"><a xlink:href="coverage__system_8h.html" target="_top" xlink:title="The file contains the CoverageSystem class, which is the main class for the coverage control library.">
<polygon fill="white" stroke="#666666" points="467.25,-192.5 368,-192.5 368,-174 467.25,-174 467.25,-192.5"/>
<text text-anchor="middle" x="417.62" y="-179" font-family="Helvetica,sans-Serif" font-size="10.00">coverage_system.h</text>
</a>
</g>
</g>
<!-- Node1&#45;&gt;Node3 -->
<g id="edge2_Node000001_Node000003" class="edge">
<title>Node1&#45;&gt;Node3</title>
<g id="a_edge2_Node000001_Node000003"><a xlink:title=" ">
<path fill="none" stroke="#63b8ff" d="M417.62,-216.64C417.62,-208.36 417.62,-199.21 417.62,-192.76"/>
<polygon fill="#63b8ff" stroke="#63b8ff" points="414.13,-216.57 417.63,-226.57 421.13,-216.57 414.13,-216.57"/>
</a>
</g>
</g>
<!-- Node13 -->
<g id="Node000013" class="node">
<title>Node13</title>
<g id="a_Node000013"><a xlink:href="plotter_8cpp.html" target="_top" xlink:title="Helper function to plot maps.">
<polygon fill="white" stroke="#666666" points="547.5,-192.5 485.75,-192.5 485.75,-174 547.5,-174 547.5,-192.5"/>
<text text-anchor="middle" x="516.62" y="-179" font-family="Helvetica,sans-Serif" font-size="10.00">plotter.cpp</text>
</a>
</g>
</g>
<!-- Node1&#45;&gt;Node13 -->
<g id="edge21_Node000001_Node000013" class="edge">
<title>Node1&#45;&gt;Node13</title>
<g id="a_edge21_Node000001_Node000013"><a xlink:title=" ">
<path fill="none" stroke="#63b8ff" d="M444.06,-222.73C461.94,-213.25 484.98,-201.03 500.25,-192.93"/>
<polygon fill="#63b8ff" stroke="#63b8ff" points="442.5,-219.59 435.31,-227.37 445.78,-225.78 442.5,-219.59"/>
</a>
</g>
</g>
<!-- Node3&#45;&gt;Node2 -->
<g id="edge15_Node000003_Node000002" class="edge">
<title>Node3&#45;&gt;Node2</title>
<g id="a_edge15_Node000003_Node000002"><a xlink:title=" ">
<path fill="none" stroke="#63b8ff" d="M366.78,-171.08C322.49,-161.35 259.15,-147.44 218.45,-138.5"/>
<polygon fill="#63b8ff" stroke="#63b8ff" points="365.89,-174.47 376.41,-173.2 367.4,-167.63 365.89,-174.47"/>
</a>
</g>
</g>
<!-- Node4 -->
<g id="Node000004" class="node">
<title>Node4</title>
<g id="a_Node000004"><a xlink:href="abstract__controller_8h.html" target="_top" xlink:title="Contains the abstract class for coverage control algorithms.">
<polygon fill="white" stroke="#666666" points="469.88,-138 365.38,-138 365.38,-119.5 469.88,-119.5 469.88,-138"/>
<text text-anchor="middle" x="417.62" y="-124.5" font-family="Helvetica,sans-Serif" font-size="10.00">abstract_controller.h</text>
</a>
</g>
</g>
<!-- Node3&#45;&gt;Node4 -->
<g id="edge3_Node000003_Node000004" class="edge">
<title>Node3&#45;&gt;Node4</title>
<g id="a_edge3_Node000003_Node000004"><a xlink:title=" ">
<path fill="none" stroke="#63b8ff" d="M417.62,-162.14C417.62,-153.86 417.62,-144.71 417.62,-138.26"/>
<polygon fill="#63b8ff" stroke="#63b8ff" points="414.13,-162.07 417.63,-172.07 421.13,-162.07 414.13,-162.07"/>
</a>
</g>
</g>
<!-- Node5 -->
<g id="Node000005" class="node">
<title>Node5</title>
<g id="a_Node000005"><a xlink:href="centralized__cvt_8h.html" target="_top" xlink:title="Contains the class CentralizedCVT.">
<polygon fill="white" stroke="#666666" points="720,-78.25 631.25,-78.25 631.25,-59.75 720,-59.75 720,-78.25"/>
<text text-anchor="middle" x="675.62" y="-64.75" font-family="Helvetica,sans-Serif" font-size="10.00">centralized_cvt.h</text>
</a>
</g>
</g>
<!-- Node3&#45;&gt;Node5 -->
<g id="edge12_Node000003_Node000005" class="edge">
<title>Node3&#45;&gt;Node5</title>
<g id="a_edge12_Node000003_Node000005"><a xlink:title=" ">
<path fill="none" stroke="#63b8ff" d="M447.95,-169.06C501.37,-145.82 610.84,-98.19 655.74,-78.65"/>
<polygon fill="#63b8ff" stroke="#63b8ff" points="446.6,-165.83 438.83,-173.02 449.4,-172.24 446.6,-165.83"/>
</a>
</g>
</g>
<!-- Node6 -->
<g id="Node000006" class="node">
<title>Node6</title>
<g id="a_Node000006"><a xlink:href="clairvoyant__cvt_8h.html" target="_top" xlink:title="Clairvoyant CVT algorithm.">
<polygon fill="white" stroke="#666666" points="827,-78.25 738.25,-78.25 738.25,-59.75 827,-59.75 827,-78.25"/>
<text text-anchor="middle" x="782.62" y="-64.75" font-family="Helvetica,sans-Serif" font-size="10.00">clairvoyant_cvt.h</text>
</a>
</g>
</g>
<!-- Node3&#45;&gt;Node6 -->
<g id="edge13_Node000003_Node000006" class="edge">
<title>Node3&#45;&gt;Node6</title>
<g id="a_edge13_Node000003_Node000006"><a xlink:title=" ">
<path fill="none" stroke="#63b8ff" d="M456.66,-170.25C530.62,-147.5 689.56,-98.62 754.31,-78.71"/>
<polygon fill="#63b8ff" stroke="#63b8ff" points="455.94,-166.81 447.41,-173.09 458,-173.5 455.94,-166.81"/>
</a>
</g>
</g>
<!-- Node7 -->
<g id="Node000007" class="node">
<title>Node7</title>
<g id="a_Node000007"><a xlink:href="coverage__algorithm_8cpp.html" target="_top" xlink:title="Program to test the CVT&#45;based (Lloyd&#39;s) coverage control algorithms.">
<polygon fill="white" stroke="#666666" points="878,-18.5 759.25,-18.5 759.25,0 878,0 878,-18.5"/>
<text text-anchor="middle" x="818.62" y="-5" font-family="Helvetica,sans-Serif" font-size="10.00">coverage_algorithm.cpp</text>
</a>
</g>
</g>
<!-- Node3&#45;&gt;Node7 -->
<g id="edge14_Node000003_Node000007" class="edge">
<title>Node3&#45;&gt;Node7</title>
<g id="a_edge14_Node000003_Node000007"><a xlink:title=" ">
<path fill="none" stroke="#63b8ff" d="M478.85,-172.07C589.5,-153.06 813.42,-111.56 835.62,-83.5 850.85,-64.25 834.55,-33.77 824.81,-18.94"/>
<polygon fill="#63b8ff" stroke="#63b8ff" points="478.3,-168.61 469.03,-173.75 479.48,-175.51 478.3,-168.61"/>
</a>
</g>
</g>
<!-- Node8 -->
<g id="Node000008" class="node">
<title>Node8</title>
<g id="a_Node000008"><a xlink:href="decentralized__cvt_8h.html" target="_top" xlink:title="Contains the DecentralizedCVT class.">
<polygon fill="white" stroke="#666666" points="99.25,-78.25 0,-78.25 0,-59.75 99.25,-59.75 99.25,-78.25"/>
<text text-anchor="middle" x="49.62" y="-64.75" font-family="Helvetica,sans-Serif" font-size="10.00">decentralized_cvt.h</text>
</a>
</g>
</g>
<!-- Node3&#45;&gt;Node8 -->
<g id="edge16_Node000003_Node000008" class="edge">
<title>Node3&#45;&gt;Node8</title>
<g id="a_edge16_Node000003_Node000008"><a xlink:title=" ">
<path fill="none" stroke="#63b8ff" d="M375.66,-170.37C348.27,-162.2 311.91,-150.59 280.62,-138 263.2,-130.98 260.26,-125.98 242.62,-119.5 214.3,-109.09 134.91,-89.87 87.24,-78.69"/>
<polygon fill="#63b8ff" stroke="#63b8ff" points="374.41,-173.65 384.99,-173.11 376.38,-166.93 374.41,-173.65"/>
</a>
</g>
</g>
<!-- Node9 -->
<g id="Node000009" class="node">
<title>Node9</title>
<g id="a_Node000009"><a xlink:href="near__optimal__cvt_8h.html" target="_top" xlink:title="NearOptimalCVT class Global offline oracle: has complete information about the environment....">
<polygon fill="white" stroke="#666666" points="215.5,-78.25 117.75,-78.25 117.75,-59.75 215.5,-59.75 215.5,-78.25"/>
<text text-anchor="middle" x="166.62" y="-64.75" font-family="Helvetica,sans-Serif" font-size="10.00">near_optimal_cvt.h</text>
</a>
</g>
</g>
<!-- Node3&#45;&gt;Node9 -->
<g id="edge17_Node000003_Node000009" class="edge">
<title>Node3&#45;&gt;Node9</title>
<g id="a_edge17_Node000003_Node000009"><a xlink:title=" ">
<path fill="none" stroke="#63b8ff" d="M388.13,-169.06C336.16,-145.82 229.65,-98.19 185.97,-78.65"/>
<polygon fill="#63b8ff" stroke="#63b8ff" points="386.41,-172.12 396.96,-173.01 389.26,-165.73 386.41,-172.12"/>
</a>
</g>
</g>
<!-- Node10 -->
<g id="Node000010" class="node">
<title>Node10</title>
<g id="a_Node000010"><a xlink:href="oracle__bang__explore__exploit_8h.html" target="_top" xlink:title="First trial of oracle with exploration and exploitation. The oracle uses complete information about t...">
<polygon fill="white" stroke="#666666" points="339.25,-83.5 234,-83.5 234,-54.5 339.25,-54.5 339.25,-83.5"/>
<text text-anchor="start" x="242" y="-70" font-family="Helvetica,sans-Serif" font-size="10.00">oracle_bang_explore</text>
<text text-anchor="middle" x="286.62" y="-59.5" font-family="Helvetica,sans-Serif" font-size="10.00">_exploit.h</text>
</a>
</g>
</g>
<!-- Node3&#45;&gt;Node10 -->
<g id="edge18_Node000003_Node000010" class="edge">
<title>Node3&#45;&gt;Node10</title>
<g id="a_edge18_Node000003_Node000010"><a xlink:title=" ">
<path fill="none" stroke="#63b8ff" d="M395.44,-167.3C383.61,-159.05 368.98,-148.39 356.62,-138 335.75,-120.44 313.44,-98.07 299.76,-83.89"/>
<polygon fill="#63b8ff" stroke="#63b8ff" points="393.14,-169.97 403.36,-172.75 397.1,-164.2 393.14,-169.97"/>
</a>
</g>
</g>
<!-- Node11 -->
<g id="Node000011" class="node">
<title>Node11</title>
<g id="a_Node000011"><a xlink:href="oracle__explore__exploit_8h.html" target="_top" xlink:title="Old trial of exploration and exploitation Uses system map for exploration as well.">
<polygon fill="white" stroke="#666666" points="477.75,-78.25 357.5,-78.25 357.5,-59.75 477.75,-59.75 477.75,-78.25"/>
<text text-anchor="middle" x="417.62" y="-64.75" font-family="Helvetica,sans-Serif" font-size="10.00">oracle_explore_exploit.h</text>
</a>
</g>
</g>
<!-- Node3&#45;&gt;Node11 -->
<g id="edge19_Node000003_Node000011" class="edge">
<title>Node3&#45;&gt;Node11</title>
<g id="a_edge19_Node000003_Node000011"><a xlink:title=" ">
<path fill="none" stroke="#63b8ff" d="M447.84,-168.18C459.7,-160.96 472.03,-150.93 478.62,-138 491.23,-113.28 458.1,-90.58 435.87,-78.69"/>
<polygon fill="#63b8ff" stroke="#63b8ff" points="446.48,-164.93 439.44,-172.85 449.88,-171.05 446.48,-164.93"/>
</a>
</g>
</g>
<!-- Node12 -->
<g id="Node000012" class="node">
<title>Node12</title>
<g id="a_Node000012"><a xlink:href="simul__explore__exploit_8h.html" target="_top" xlink:title="Simultaneous exploration and exploitation algorithm Uses frontier&#45;based exploration with bias towards...">
<polygon fill="white" stroke="#666666" points="613.25,-78.25 496,-78.25 496,-59.75 613.25,-59.75 613.25,-78.25"/>
<text text-anchor="middle" x="554.62" y="-64.75" font-family="Helvetica,sans-Serif" font-size="10.00">simul_explore_exploit.h</text>
</a>
</g>
</g>
<!-- Node3&#45;&gt;Node12 -->
<g id="edge20_Node000003_Node000012" class="edge">
<title>Node3&#45;&gt;Node12</title>
<g id="a_edge20_Node000003_Node000012"><a xlink:title=" ">
<path fill="none" stroke="#63b8ff" d="M446.3,-168.64C461.44,-160.76 479.88,-150.04 494.62,-138 517.31,-119.48 538.7,-91.97 548.71,-78.32"/>
<polygon fill="#63b8ff" stroke="#63b8ff" points="445.14,-165.3 437.79,-172.93 448.29,-171.55 445.14,-165.3"/>
</a>
</g>
</g>
<!-- Node4&#45;&gt;Node5 -->
<g id="edge4_Node000004_Node000005" class="edge">
<title>Node4&#45;&gt;Node5</title>
<g id="a_edge4_Node000004_Node000005"><a xlink:title=" ">
<path fill="none" stroke="#63b8ff" d="M471.34,-116.72C512.76,-108.08 571.44,-95.54 622.62,-83.5 629,-82 635.79,-80.33 642.31,-78.69"/>
<polygon fill="#63b8ff" stroke="#63b8ff" points="470.69,-113.28 461.61,-118.74 472.12,-120.13 470.69,-113.28"/>
</a>
</g>
</g>
<!-- Node4&#45;&gt;Node6 -->
<g id="edge5_Node000004_Node000006" class="edge">
<title>Node4&#45;&gt;Node6</title>
<g id="a_edge5_Node000004_Node000006"><a xlink:title=" ">
<path fill="none" stroke="#63b8ff" d="M481.53,-120.62C544.63,-113.12 643.72,-100.11 728.62,-83.5 735.64,-82.13 743.12,-80.42 750.19,-78.69"/>
<polygon fill="#63b8ff" stroke="#63b8ff" points="481.2,-117.14 471.68,-121.78 482.02,-124.09 481.2,-117.14"/>
</a>
</g>
</g>
<!-- Node4&#45;&gt;Node8 -->
<g id="edge7_Node000004_Node000008" class="edge">
<title>Node4&#45;&gt;Node8</title>
<g id="a_edge7_Node000004_Node000008"><a xlink:title=" ">
<path fill="none" stroke="#63b8ff" d="M353.64,-120.16C290.98,-112.35 192.89,-99.15 108.62,-83.5 101.08,-82.1 93.05,-80.4 85.41,-78.69"/>
<polygon fill="#63b8ff" stroke="#63b8ff" points="353.07,-123.61 363.42,-121.36 353.92,-116.66 353.07,-123.61"/>
</a>
</g>
</g>
<!-- Node4&#45;&gt;Node9 -->
<g id="edge8_Node000004_Node000009" class="edge">
<title>Node4&#45;&gt;Node9</title>
<g id="a_edge8_Node000004_Node000009"><a xlink:title=" ">
<path fill="none" stroke="#63b8ff" d="M368.5,-116.53C329.49,-107.62 273.55,-94.8 224.62,-83.5 217.98,-81.96 210.9,-80.32 204.06,-78.73"/>
<polygon fill="#63b8ff" stroke="#63b8ff" points="367.53,-119.9 378.06,-118.72 369.09,-113.08 367.53,-119.9"/>
</a>
</g>
</g>
<!-- Node4&#45;&gt;Node10 -->
<g id="edge9_Node000004_Node000010" class="edge">
<title>Node4&#45;&gt;Node10</title>
<g id="a_edge9_Node000004_Node000010"><a xlink:title=" ">
<path fill="none" stroke="#63b8ff" d="M387.58,-114.51C366.87,-105.38 339.4,-93.27 318.34,-83.98"/>
<polygon fill="#63b8ff" stroke="#63b8ff" points="386.07,-117.66 396.63,-118.49 388.89,-111.26 386.07,-117.66"/>
</a>
</g>
</g>
<!-- Node4&#45;&gt;Node11 -->
<g id="edge10_Node000004_Node000011" class="edge">
<title>Node4&#45;&gt;Node11</title>
<g id="a_edge10_Node000004_Node000011"><a xlink:title=" ">
<path fill="none" stroke="#63b8ff" d="M417.62,-107.83C417.62,-97.83 417.62,-86.25 417.62,-78.56"/>
<polygon fill="#63b8ff" stroke="#63b8ff" points="414.13,-107.72 417.63,-117.72 421.13,-107.72 414.13,-107.72"/>
</a>
</g>
</g>
<!-- Node4&#45;&gt;Node12 -->
<g id="edge11_Node000004_Node000012" class="edge">
<title>Node4&#45;&gt;Node12</title>
<g id="a_edge11_Node000004_Node000012"><a xlink:title=" ">
<path fill="none" stroke="#63b8ff" d="M448.61,-114.69C474.71,-103.69 511.32,-88.26 533.97,-78.7"/>
<polygon fill="#63b8ff" stroke="#63b8ff" points="447.39,-111.41 439.53,-118.52 450.1,-117.86 447.39,-111.41"/>
</a>
</g>
</g>
<!-- Node6&#45;&gt;Node7 -->
<g id="edge6_Node000006_Node000007" class="edge">
<title>Node6&#45;&gt;Node7</title>
<g id="a_edge6_Node000006_Node000007"><a xlink:title=" ">
<path fill="none" stroke="#63b8ff" d="M794.01,-49.73C800.47,-39.38 808.23,-26.92 813.29,-18.81"/>
<polygon fill="#63b8ff" stroke="#63b8ff" points="791.06,-47.86 788.74,-58.19 797,-51.56 791.06,-47.86"/>
</a>
</g>
</g>
</g>
</svg>
