<?xml version="1.0" encoding="UTF-8" standalone="no"?>
<!DOCTYPE svg PUBLIC "-//W3C//DTD SVG 1.1//EN"
 "http://www.w3.org/Graphics/SVG/1.1/DTD/svg11.dtd">
<!-- Generated by graphviz version 12.1.2 (0)
 -->
<!-- Title: plotter.cpp Pages: 1 -->
<svg width="731pt" height="255pt"
 viewBox="0.00 0.00 730.50 255.00" xmlns="http://www.w3.org/2000/svg" xmlns:xlink="http://www.w3.org/1999/xlink">
<g id="graph0" class="graph" transform="scale(1 1) rotate(0) translate(4 251)">
<title>plotter.cpp</title>
<!-- Node1 -->
<g id="Node000001" class="node">
<title>Node1</title>
<g id="a_Node000001"><a xlink:title="Helper function to plot maps.">
<polygon fill="#999999" stroke="#666666" points="190.62,-247 128.88,-247 128.88,-228.5 190.62,-228.5 190.62,-247"/>
<text text-anchor="middle" x="159.75" y="-233.5" font-family="Helvetica,sans-Serif" font-size="10.00">plotter.cpp</text>
</a>
</g>
</g>
<!-- Node2 -->
<g id="Node000002" class="node">
<title>Node2</title>
<g id="a_Node000002"><a xlink:title=" ">
<polygon fill="#e0e0e0" stroke="#999999" points="59.5,-187.25 0,-187.25 0,-168.75 59.5,-168.75 59.5,-187.25"/>
<text text-anchor="middle" x="29.75" y="-173.75" font-family="Helvetica,sans-Serif" font-size="10.00">filesystem</text>
</a>
</g>
</g>
<!-- Node1&#45;&gt;Node2 -->
<g id="edge1_Node000001_Node000002" class="edge">
<title>Node1&#45;&gt;Node2</title>
<g id="a_edge1_Node000001_Node000002"><a xlink:title=" ">
<path fill="none" stroke="#63b8ff" d="M140.29,-228.1C118.94,-218.62 84.42,-203.29 59.64,-192.28"/>
<polygon fill="#63b8ff" stroke="#63b8ff" points="61.29,-189.18 50.73,-188.32 58.45,-195.58 61.29,-189.18"/>
</a>
</g>
</g>
<!-- Node3 -->
<g id="Node000003" class="node">
<title>Node3</title>
<g id="a_Node000003"><a xlink:title=" ">
<polygon fill="#e0e0e0" stroke="#999999" points="131.5,-187.25 78,-187.25 78,-168.75 131.5,-168.75 131.5,-187.25"/>
<text text-anchor="middle" x="104.75" y="-173.75" font-family="Helvetica,sans-Serif" font-size="10.00">iostream</text>
</a>
</g>
</g>
<!-- Node1&#45;&gt;Node3 -->
<g id="edge2_Node000001_Node000003" class="edge">
<title>Node1&#45;&gt;Node3</title>
<g id="a_edge2_Node000001_Node000003"><a xlink:title=" ">
<path fill="none" stroke="#63b8ff" d="M151.63,-228.23C143.51,-219.7 130.79,-206.35 120.65,-195.7"/>
<polygon fill="#63b8ff" stroke="#63b8ff" points="123.37,-193.48 113.94,-188.65 118.3,-198.31 123.37,-193.48"/>
</a>
</g>
</g>
<!-- Node4 -->
<g id="Node000004" class="node">
<title>Node4</title>
<g id="a_Node000004"><a xlink:title=" ">
<polygon fill="#e0e0e0" stroke="#999999" points="282.25,-192.5 149.25,-192.5 149.25,-163.5 282.25,-163.5 282.25,-192.5"/>
<text text-anchor="start" x="157.25" y="-179" font-family="Helvetica,sans-Serif" font-size="10.00">CoverageControl/extern</text>
<text text-anchor="middle" x="215.75" y="-168.5" font-family="Helvetica,sans-Serif" font-size="10.00">/gnuplot/gnuplot&#45;iostream.h</text>
</a>
</g>
</g>
<!-- Node1&#45;&gt;Node4 -->
<g id="edge3_Node000001_Node000004" class="edge">
<title>Node1&#45;&gt;Node4</title>
<g id="a_edge3_Node000001_Node000004"><a xlink:title=" ">
<path fill="none" stroke="#63b8ff" d="M168.01,-228.23C174.98,-221.05 185.26,-210.44 194.5,-200.92"/>
<polygon fill="#63b8ff" stroke="#63b8ff" points="196.74,-203.64 201.18,-194.02 191.71,-198.76 196.74,-203.64"/>
</a>
</g>
</g>
<!-- Node5 -->
<g id="Node000005" class="node">
<title>Node5</title>
<g id="a_Node000005"><a xlink:href="plotter_8h.html" target="_top" xlink:title="Class to plot the map.">
<polygon fill="white" stroke="#666666" points="427.25,-187.25 300.25,-187.25 300.25,-168.75 427.25,-168.75 427.25,-187.25"/>
<text text-anchor="middle" x="363.75" y="-173.75" font-family="Helvetica,sans-Serif" font-size="10.00">CoverageControl/plotter.h</text>
</a>
</g>
</g>
<!-- Node1&#45;&gt;Node5 -->
<g id="edge4_Node000001_Node000005" class="edge">
<title>Node1&#45;&gt;Node5</title>
<g id="a_edge4_Node000001_Node000005"><a xlink:title=" ">
<path fill="none" stroke="#63b8ff" d="M190.29,-228.1C225.29,-218.2 282.86,-201.9 321.99,-190.82"/>
<polygon fill="#63b8ff" stroke="#63b8ff" points="322.88,-194.21 331.54,-188.12 320.97,-187.47 322.88,-194.21"/>
</a>
</g>
</g>
<!-- Node6 -->
<g id="Node000006" class="node">
<title>Node6</title>
<g id="a_Node000006"><a xlink:title=" ">
<polygon fill="#e0e0e0" stroke="#999999" points="255.62,-127.5 205.88,-127.5 205.88,-109 255.62,-109 255.62,-127.5"/>
<text text-anchor="middle" x="230.75" y="-114" font-family="Helvetica,sans-Serif" font-size="10.00">iomanip</text>
</a>
</g>
</g>
<!-- Node5&#45;&gt;Node6 -->
<g id="edge5_Node000005_Node000006" class="edge">
<title>Node5&#45;&gt;Node6</title>
<g id="a_edge5_Node000005_Node000006"><a xlink:title=" ">
<path fill="none" stroke="#63b8ff" d="M343.84,-168.35C322,-158.87 286.68,-143.54 261.32,-132.53"/>
<polygon fill="#63b8ff" stroke="#63b8ff" points="262.75,-129.33 252.19,-128.56 259.96,-135.75 262.75,-129.33"/>
</a>
</g>
</g>
<!-- Node7 -->
<g id="Node000007" class="node">
<title>Node7</title>
<g id="a_Node000007"><a xlink:title=" ">
<polygon fill="#e0e0e0" stroke="#999999" points="302.15,-127.5 273.35,-127.5 273.35,-109 302.15,-109 302.15,-127.5"/>
<text text-anchor="middle" x="287.75" y="-114" font-family="Helvetica,sans-Serif" font-size="10.00">list</text>
</a>
</g>
</g>
<!-- Node5&#45;&gt;Node7 -->
<g id="edge6_Node000005_Node000007" class="edge">
<title>Node5&#45;&gt;Node7</title>
<g id="a_edge6_Node000005_Node000007"><a xlink:title=" ">
<path fill="none" stroke="#63b8ff" d="M352.54,-168.48C340.93,-159.66 322.54,-145.68 308.31,-134.87"/>
<polygon fill="#63b8ff" stroke="#63b8ff" points="310.54,-132.17 300.46,-128.91 306.31,-137.75 310.54,-132.17"/>
</a>
</g>
</g>
<!-- Node8 -->
<g id="Node000008" class="node">
<title>Node8</title>
<g id="a_Node000008"><a xlink:title=" ">
<polygon fill="#e0e0e0" stroke="#999999" points="359.75,-127.5 319.75,-127.5 319.75,-109 359.75,-109 359.75,-127.5"/>
<text text-anchor="middle" x="339.75" y="-114" font-family="Helvetica,sans-Serif" font-size="10.00">string</text>
</a>
</g>
</g>
<!-- Node5&#45;&gt;Node8 -->
<g id="edge7_Node000005_Node000008" class="edge">
<title>Node5&#45;&gt;Node8</title>
<g id="a_edge7_Node000005_Node000008"><a xlink:title=" ">
<path fill="none" stroke="#63b8ff" d="M360.21,-168.48C356.91,-160.55 351.88,-148.44 347.63,-138.22"/>
<polygon fill="#63b8ff" stroke="#63b8ff" points="350.96,-137.09 343.89,-129.2 344.49,-139.78 350.96,-137.09"/>
</a>
</g>
</g>
<!-- Node9 -->
<g id="Node000009" class="node">
<title>Node9</title>
<g id="a_Node000009"><a xlink:title=" ">
<polygon fill="#e0e0e0" stroke="#999999" points="446.88,-18.5 404.62,-18.5 404.62,0 446.88,0 446.88,-18.5"/>
<text text-anchor="middle" x="425.75" y="-5" font-family="Helvetica,sans-Serif" font-size="10.00">vector</text>
</a>
</g>
</g>
<!-- Node5&#45;&gt;Node9 -->
<g id="edge8_Node000005_Node000009" class="edge">
<title>Node5&#45;&gt;Node9</title>
<g id="a_edge8_Node000005_Node000009"><a xlink:title=" ">
<path fill="none" stroke="#63b8ff" d="M366.91,-168.5C376.44,-142.86 405.09,-65.82 418.58,-29.54"/>
<polygon fill="#63b8ff" stroke="#63b8ff" points="421.79,-30.94 421.99,-20.35 415.23,-28.5 421.79,-30.94"/>
</a>
</g>
</g>
<!-- Node10 -->
<g id="Node000010" class="node">
<title>Node10</title>
<g id="a_Node000010"><a xlink:href="typedefs_8h.html" target="_top" xlink:title="Contains typedefs for the library.">
<polygon fill="white" stroke="#666666" points="722.5,-73 585,-73 585,-54.5 722.5,-54.5 722.5,-73"/>
<text text-anchor="middle" x="653.75" y="-59.5" font-family="Helvetica,sans-Serif" font-size="10.00">CoverageControl/typedefs.h</text>
</a>
</g>
</g>
<!-- Node5&#45;&gt;Node10 -->
<g id="edge9_Node000005_Node000010" class="edge">
<title>Node5&#45;&gt;Node10</title>
<g id="a_edge9_Node000005_Node000010"><a xlink:title=" ">
<path fill="none" stroke="#63b8ff" d="M414.64,-168.3C453.96,-160.52 509.18,-147.27 554.75,-127.5 584,-114.81 614.53,-94.15 633.82,-80.03"/>
<polygon fill="#63b8ff" stroke="#63b8ff" points="635.68,-83 641.6,-74.22 631.49,-77.39 635.68,-83"/>
</a>
</g>
</g>
<!-- Node13 -->
<g id="Node000013" class="node">
<title>Node13</title>
<g id="a_Node000013"><a xlink:href="voronoi_8h.html" target="_top" xlink:title="Class for computing Voronoi cells.">
<polygon fill="white" stroke="#666666" points="546.12,-127.5 415.38,-127.5 415.38,-109 546.12,-109 546.12,-127.5"/>
<text text-anchor="middle" x="480.75" y="-114" font-family="Helvetica,sans-Serif" font-size="10.00">CoverageControl/voronoi.h</text>
</a>
</g>
</g>
<!-- Node5&#45;&gt;Node13 -->
<g id="edge13_Node000005_Node000013" class="edge">
<title>Node5&#45;&gt;Node13</title>
<g id="a_edge13_Node000005_Node000013"><a xlink:title=" ">
<path fill="none" stroke="#63b8ff" d="M381.27,-168.35C400.22,-159 430.71,-143.95 452.95,-132.97"/>
<polygon fill="#63b8ff" stroke="#63b8ff" points="454.34,-136.19 461.76,-128.62 451.24,-129.91 454.34,-136.19"/>
</a>
</g>
</g>
<!-- Node10&#45;&gt;Node9 -->
<g id="edge12_Node000010_Node000009" class="edge">
<title>Node10&#45;&gt;Node9</title>
<g id="a_edge12_Node000010_Node000009"><a xlink:title=" ">
<path fill="none" stroke="#63b8ff" d="M615.84,-54.02C571.84,-43.89 500,-27.35 458.38,-17.76"/>
<polygon fill="#63b8ff" stroke="#63b8ff" points="459.25,-14.37 448.72,-15.54 457.67,-21.19 459.25,-14.37"/>
</a>
</g>
</g>
<!-- Node11 -->
<g id="Node000011" class="node">
<title>Node11</title>
<g id="a_Node000011"><a xlink:title=" ">
<polygon fill="#e0e0e0" stroke="#999999" points="651.88,-18.5 579.62,-18.5 579.62,0 651.88,0 651.88,-18.5"/>
<text text-anchor="middle" x="615.75" y="-5" font-family="Helvetica,sans-Serif" font-size="10.00">Eigen/Dense</text>
</a>
</g>
</g>
<!-- Node10&#45;&gt;Node11 -->
<g id="edge10_Node000010_Node000011" class="edge">
<title>Node10&#45;&gt;Node11</title>
<g id="a_edge10_Node000010_Node000011"><a xlink:title=" ">
<path fill="none" stroke="#63b8ff" d="M647.48,-54.08C642.33,-46.97 634.88,-36.68 628.49,-27.85"/>
<polygon fill="#63b8ff" stroke="#63b8ff" points="631.49,-26.03 622.8,-19.98 625.82,-30.14 631.49,-26.03"/>
</a>
</g>
</g>
<!-- Node12 -->
<g id="Node000012" class="node">
<title>Node12</title>
<g id="a_Node000012"><a xlink:title=" ">
<polygon fill="#e0e0e0" stroke="#999999" points="711.88,-18.5 669.62,-18.5 669.62,0 711.88,0 711.88,-18.5"/>
<text text-anchor="middle" x="690.75" y="-5" font-family="Helvetica,sans-Serif" font-size="10.00">queue</text>
</a>
</g>
</g>
<!-- Node10&#45;&gt;Node12 -->
<g id="edge11_Node000010_Node000012" class="edge">
<title>Node10&#45;&gt;Node12</title>
<g id="a_edge11_Node000010_Node000012"><a xlink:title=" ">
<path fill="none" stroke="#63b8ff" d="M659.86,-54.08C664.82,-47.05 671.97,-36.9 678.14,-28.14"/>
<polygon fill="#63b8ff" stroke="#63b8ff" points="680.98,-30.19 683.88,-20 675.26,-26.15 680.98,-30.19"/>
</a>
</g>
</g>
<!-- Node13&#45;&gt;Node9 -->
<g id="edge16_Node000013_Node000009" class="edge">
<title>Node13&#45;&gt;Node9</title>
<g id="a_edge16_Node000013_Node000009"><a xlink:title=" ">
<path fill="none" stroke="#63b8ff" d="M471.88,-108.51C463.78,-100.09 452,-86.64 444.75,-73 437.54,-59.43 432.65,-42.72 429.64,-29.96"/>
<polygon fill="#63b8ff" stroke="#63b8ff" points="433.08,-29.3 427.55,-20.25 426.23,-30.77 433.08,-29.3"/>
</a>
</g>
</g>
<!-- Node13&#45;&gt;Node10 -->
<g id="edge17_Node000013_Node000010" class="edge">
<title>Node13&#45;&gt;Node10</title>
<g id="a_edge17_Node000013_Node000010"><a xlink:title=" ">
<path fill="none" stroke="#63b8ff" d="M509.32,-108.58C537.99,-99.88 582.38,-86.41 614.38,-76.7"/>
<polygon fill="#63b8ff" stroke="#63b8ff" points="615.14,-80.12 623.69,-73.87 613.11,-73.43 615.14,-80.12"/>
</a>
</g>
</g>
<!-- Node14 -->
<g id="Node000014" class="node">
<title>Node14</title>
<g id="a_Node000014"><a xlink:title=" ">
<polygon fill="#e0e0e0" stroke="#999999" points="567.25,-73 524.25,-73 524.25,-54.5 567.25,-54.5 567.25,-73"/>
<text text-anchor="middle" x="545.75" y="-59.5" font-family="Helvetica,sans-Serif" font-size="10.00">cmath</text>
</a>
</g>
</g>
<!-- Node13&#45;&gt;Node14 -->
<g id="edge14_Node000013_Node000014" class="edge">
<title>Node13&#45;&gt;Node14</title>
<g id="a_edge14_Node000013_Node000014"><a xlink:title=" ">
<path fill="none" stroke="#63b8ff" d="M491.48,-108.58C500.95,-100.94 514.97,-89.61 526.39,-80.38"/>
<polygon fill="#63b8ff" stroke="#63b8ff" points="528.46,-83.22 534.04,-74.21 524.06,-77.77 528.46,-83.22"/>
</a>
</g>
</g>
<!-- Node15 -->
<g id="Node000015" class="node">
<title>Node15</title>
<g id="a_Node000015"><a xlink:title=" ">
<polygon fill="#e0e0e0" stroke="#999999" points="505.75,-73 453.75,-73 453.75,-54.5 505.75,-54.5 505.75,-73"/>
<text text-anchor="middle" x="479.75" y="-59.5" font-family="Helvetica,sans-Serif" font-size="10.00">memory</text>
</a>
</g>
</g>
<!-- Node13&#45;&gt;Node15 -->
<g id="edge15_Node000013_Node000015" class="edge">
<title>Node13&#45;&gt;Node15</title>
<g id="a_edge15_Node000013_Node000015"><a xlink:title=" ">
<path fill="none" stroke="#63b8ff" d="M480.58,-108.58C480.46,-102.08 480.29,-92.92 480.13,-84.66"/>
<polygon fill="#63b8ff" stroke="#63b8ff" points="483.63,-84.7 479.94,-74.77 476.63,-84.84 483.63,-84.7"/>
</a>
</g>
</g>
</g>
</svg>
