<?xml version="1.0" encoding="UTF-8" standalone="no"?>
<!DOCTYPE svg PUBLIC "-//W3C//DTD SVG 1.1//EN"
 "http://www.w3.org/Graphics/SVG/1.1/DTD/svg11.dtd">
<!-- Generated by graphviz version 10.0.1 (0)
 -->
<!-- Title: plotter.h Pages: 1 -->
<svg width="782pt" height="190pt"
 viewBox="0.00 0.00 782.15 190.00" xmlns="http://www.w3.org/2000/svg" xmlns:xlink="http://www.w3.org/1999/xlink">
<g id="graph0" class="graph" transform="scale(1 1) rotate(0) translate(4 186)">
<title>plotter.h</title>
<!-- Node1 -->
<g id="Node000001" class="node">
<title>Node1</title>
<g id="a_Node000001"><a xlink:title="Class to plot the map.">
<polygon fill="#999999" stroke="#666666" points="320.38,-182 269.12,-182 269.12,-163.5 320.38,-163.5 320.38,-182"/>
<text text-anchor="middle" x="294.75" y="-168.5" font-family="Helvetica,sans-Serif" font-size="10.00">plotter.h</text>
</a>
</g>
</g>
<!-- Node2 -->
<g id="Node000002" class="node">
<title>Node2</title>
<g id="a_Node000002"><a xlink:title=" ">
<polygon fill="#e0e0e0" stroke="#999999" points="59.5,-127.5 0,-127.5 0,-109 59.5,-109 59.5,-127.5"/>
<text text-anchor="middle" x="29.75" y="-114" font-family="Helvetica,sans-Serif" font-size="10.00">filesystem</text>
</a>
</g>
</g>
<!-- Node1&#45;&gt;Node2 -->
<g id="edge1_Node000001_Node000002" class="edge">
<title>Node1&#45;&gt;Node2</title>
<g id="a_edge1_Node000001_Node000002"><a xlink:title=" ">
<path fill="none" stroke="#63b8ff" d="M268.86,-166.62C222.78,-157.49 126.19,-138.36 70.91,-127.41"/>
<polygon fill="#63b8ff" stroke="#63b8ff" points="71.75,-124 61.26,-125.49 70.39,-130.87 71.75,-124"/>
</a>
</g>
</g>
<!-- Node3 -->
<g id="Node000003" class="node">
<title>Node3</title>
<g id="a_Node000003"><a xlink:title=" ">
<polygon fill="#e0e0e0" stroke="#999999" points="169.5,-73 116,-73 116,-54.5 169.5,-54.5 169.5,-73"/>
<text text-anchor="middle" x="142.75" y="-59.5" font-family="Helvetica,sans-Serif" font-size="10.00">iostream</text>
</a>
</g>
</g>
<!-- Node1&#45;&gt;Node3 -->
<g id="edge2_Node000001_Node000003" class="edge">
<title>Node1&#45;&gt;Node3</title>
<g id="a_edge2_Node000001_Node000003"><a xlink:title=" ">
<path fill="none" stroke="#63b8ff" d="M282.57,-163.17C256.78,-145.02 196.37,-102.5 164.05,-79.74"/>
<polygon fill="#63b8ff" stroke="#63b8ff" points="166.42,-77.13 156.23,-74.24 162.39,-82.86 166.42,-77.13"/>
</a>
</g>
</g>
<!-- Node4 -->
<g id="Node000004" class="node">
<title>Node4</title>
<g id="a_Node000004"><a xlink:title=" ">
<polygon fill="#e0e0e0" stroke="#999999" points="774.15,-127.5 745.35,-127.5 745.35,-109 774.15,-109 774.15,-127.5"/>
<text text-anchor="middle" x="759.75" y="-114" font-family="Helvetica,sans-Serif" font-size="10.00">list</text>
</a>
</g>
</g>
<!-- Node1&#45;&gt;Node4 -->
<g id="edge3_Node000001_Node000004" class="edge">
<title>Node1&#45;&gt;Node4</title>
<g id="a_edge3_Node000001_Node000004"><a xlink:title=" ">
<path fill="none" stroke="#63b8ff" d="M320.86,-170.8C389.03,-167.94 577.79,-157.71 731.75,-127.5 732.57,-127.34 733.4,-127.16 734.24,-126.98"/>
<polygon fill="#63b8ff" stroke="#63b8ff" points="734.81,-130.45 743.59,-124.52 733.03,-123.68 734.81,-130.45"/>
</a>
</g>
</g>
<!-- Node5 -->
<g id="Node000005" class="node">
<title>Node5</title>
<g id="a_Node000005"><a xlink:title=" ">
<polygon fill="#e0e0e0" stroke="#999999" points="218.88,-18.5 176.62,-18.5 176.62,0 218.88,0 218.88,-18.5"/>
<text text-anchor="middle" x="197.75" y="-5" font-family="Helvetica,sans-Serif" font-size="10.00">vector</text>
</a>
</g>
</g>
<!-- Node1&#45;&gt;Node5 -->
<g id="edge4_Node000001_Node000005" class="edge">
<title>Node1&#45;&gt;Node5</title>
<g id="a_edge4_Node000001_Node000005"><a xlink:title=" ">
<path fill="none" stroke="#63b8ff" d="M268.78,-167.03C225.97,-157.69 141.83,-132.35 106.75,-73 90.64,-45.73 133.12,-27.54 165.35,-18.06"/>
<polygon fill="#63b8ff" stroke="#63b8ff" points="166.03,-21.5 174.74,-15.47 164.17,-14.75 166.03,-21.5"/>
</a>
</g>
</g>
<!-- Node6 -->
<g id="Node000006" class="node">
<title>Node6</title>
<g id="a_Node000006"><a xlink:title=" ">
<polygon fill="#e0e0e0" stroke="#999999" points="728.75,-18.5 688.75,-18.5 688.75,0 728.75,0 728.75,-18.5"/>
<text text-anchor="middle" x="708.75" y="-5" font-family="Helvetica,sans-Serif" font-size="10.00">string</text>
</a>
</g>
</g>
<!-- Node1&#45;&gt;Node6 -->
<g id="edge5_Node000001_Node000006" class="edge">
<title>Node1&#45;&gt;Node6</title>
<g id="a_edge5_Node000001_Node000006"><a xlink:title=" ">
<path fill="none" stroke="#63b8ff" d="M320.71,-169.11C401.57,-160.36 646.64,-129.55 698.75,-73 709.28,-61.57 711.25,-43.72 710.89,-29.97"/>
<polygon fill="#63b8ff" stroke="#63b8ff" points="714.41,-30.04 710.19,-20.32 707.42,-30.54 714.41,-30.04"/>
</a>
</g>
</g>
<!-- Node7 -->
<g id="Node000007" class="node">
<title>Node7</title>
<g id="a_Node000007"><a xlink:href="typedefs_8h.html" target="_top" xlink:title="Contains typedefs for the library.">
<polygon fill="white" stroke="#666666" points="363.5,-73 226,-73 226,-54.5 363.5,-54.5 363.5,-73"/>
<text text-anchor="middle" x="294.75" y="-59.5" font-family="Helvetica,sans-Serif" font-size="10.00">CoverageControl/typedefs.h</text>
</a>
</g>
</g>
<!-- Node1&#45;&gt;Node7 -->
<g id="edge6_Node000001_Node000007" class="edge">
<title>Node1&#45;&gt;Node7</title>
<g id="a_edge6_Node000001_Node000007"><a xlink:title=" ">
<path fill="none" stroke="#63b8ff" d="M294.75,-163.35C294.75,-146.56 294.75,-108.42 294.75,-84.8"/>
<polygon fill="#63b8ff" stroke="#63b8ff" points="298.25,-84.92 294.75,-74.92 291.25,-84.92 298.25,-84.92"/>
</a>
</g>
</g>
<!-- Node10 -->
<g id="Node000010" class="node">
<title>Node10</title>
<g id="a_Node000010"><a xlink:href="voronoi_8h.html" target="_top" xlink:title="Class for computing Voronoi cells.">
<polygon fill="white" stroke="#666666" points="455.12,-127.5 324.38,-127.5 324.38,-109 455.12,-109 455.12,-127.5"/>
<text text-anchor="middle" x="389.75" y="-114" font-family="Helvetica,sans-Serif" font-size="10.00">CoverageControl/voronoi.h</text>
</a>
</g>
</g>
<!-- Node1&#45;&gt;Node10 -->
<g id="edge10_Node000001_Node000010" class="edge">
<title>Node1&#45;&gt;Node10</title>
<g id="a_edge10_Node000001_Node000010"><a xlink:title=" ">
<path fill="none" stroke="#63b8ff" d="M310.44,-163.08C325.01,-155.03 346.99,-142.88 364.11,-133.42"/>
<polygon fill="#63b8ff" stroke="#63b8ff" points="365.66,-136.56 372.71,-128.66 362.27,-130.44 365.66,-136.56"/>
</a>
</g>
</g>
<!-- Node7&#45;&gt;Node5 -->
<g id="edge9_Node000007_Node000005" class="edge">
<title>Node7&#45;&gt;Node5</title>
<g id="a_edge9_Node000007_Node000005"><a xlink:title=" ">
<path fill="none" stroke="#63b8ff" d="M278.73,-54.08C263.71,-45.95 240.99,-33.65 223.43,-24.15"/>
<polygon fill="#63b8ff" stroke="#63b8ff" points="225.58,-21.33 215.12,-19.65 222.25,-27.49 225.58,-21.33"/>
</a>
</g>
</g>
<!-- Node8 -->
<g id="Node000008" class="node">
<title>Node8</title>
<g id="a_Node000008"><a xlink:title=" ">
<polygon fill="#e0e0e0" stroke="#999999" points="319.88,-18.5 247.62,-18.5 247.62,0 319.88,0 319.88,-18.5"/>
<text text-anchor="middle" x="283.75" y="-5" font-family="Helvetica,sans-Serif" font-size="10.00">Eigen/Dense</text>
</a>
</g>
</g>
<!-- Node7&#45;&gt;Node8 -->
<g id="edge7_Node000007_Node000008" class="edge">
<title>Node7&#45;&gt;Node8</title>
<g id="a_edge7_Node000007_Node000008"><a xlink:title=" ">
<path fill="none" stroke="#63b8ff" d="M292.93,-54.08C291.56,-47.51 289.61,-38.21 287.86,-29.87"/>
<polygon fill="#63b8ff" stroke="#63b8ff" points="291.32,-29.31 285.84,-20.24 284.47,-30.74 291.32,-29.31"/>
</a>
</g>
</g>
<!-- Node9 -->
<g id="Node000009" class="node">
<title>Node9</title>
<g id="a_Node000009"><a xlink:title=" ">
<polygon fill="#e0e0e0" stroke="#999999" points="379.88,-18.5 337.62,-18.5 337.62,0 379.88,0 379.88,-18.5"/>
<text text-anchor="middle" x="358.75" y="-5" font-family="Helvetica,sans-Serif" font-size="10.00">queue</text>
</a>
</g>
</g>
<!-- Node7&#45;&gt;Node9 -->
<g id="edge8_Node000007_Node000009" class="edge">
<title>Node7&#45;&gt;Node9</title>
<g id="a_edge8_Node000007_Node000009"><a xlink:title=" ">
<path fill="none" stroke="#63b8ff" d="M305.32,-54.08C314.64,-46.44 328.45,-35.11 339.69,-25.88"/>
<polygon fill="#63b8ff" stroke="#63b8ff" points="341.7,-28.77 347.21,-19.72 337.26,-23.35 341.7,-28.77"/>
</a>
</g>
</g>
<!-- Node10&#45;&gt;Node3 -->
<g id="edge12_Node000010_Node000003" class="edge">
<title>Node10&#45;&gt;Node3</title>
<g id="a_edge12_Node000010_Node000003"><a xlink:title=" ">
<path fill="none" stroke="#63b8ff" d="M348.69,-108.52C301.99,-98.6 226.37,-82.52 180.92,-72.86"/>
<polygon fill="#63b8ff" stroke="#63b8ff" points="181.76,-69.46 171.25,-70.81 180.31,-76.31 181.76,-69.46"/>
</a>
</g>
</g>
<!-- Node10&#45;&gt;Node5 -->
<g id="edge15_Node000010_Node000005" class="edge">
<title>Node10&#45;&gt;Node5</title>
<g id="a_edge15_Node000010_Node000005"><a xlink:title=" ">
<path fill="none" stroke="#63b8ff" d="M323.9,-115.61C287.99,-111.33 245.19,-100.23 216.75,-73 205.17,-61.91 200.58,-44.02 198.79,-30.18"/>
<polygon fill="#63b8ff" stroke="#63b8ff" points="202.3,-30.08 197.95,-20.42 195.32,-30.68 202.3,-30.08"/>
</a>
</g>
</g>
<!-- Node10&#45;&gt;Node7 -->
<g id="edge21_Node000010_Node000007" class="edge">
<title>Node10&#45;&gt;Node7</title>
<g id="a_edge21_Node000010_Node000007"><a xlink:title=" ">
<path fill="none" stroke="#63b8ff" d="M374.06,-108.58C359.49,-100.53 337.51,-88.38 320.39,-78.92"/>
<polygon fill="#63b8ff" stroke="#63b8ff" points="322.23,-75.94 311.79,-74.16 318.84,-82.06 322.23,-75.94"/>
</a>
</g>
</g>
<!-- Node11 -->
<g id="Node000011" class="node">
<title>Node11</title>
<g id="a_Node000011"><a xlink:title=" ">
<polygon fill="#e0e0e0" stroke="#999999" points="454.25,-18.5 411.25,-18.5 411.25,0 454.25,0 454.25,-18.5"/>
<text text-anchor="middle" x="432.75" y="-5" font-family="Helvetica,sans-Serif" font-size="10.00">cmath</text>
</a>
</g>
</g>
<!-- Node10&#45;&gt;Node11 -->
<g id="edge11_Node000010_Node000011" class="edge">
<title>Node10&#45;&gt;Node11</title>
<g id="a_edge11_Node000010_Node000011"><a xlink:title=" ">
<path fill="none" stroke="#63b8ff" d="M392.23,-108.59C395.83,-96.35 402.93,-73.4 410.75,-54.5 414.27,-45.98 418.72,-36.81 422.69,-29.04"/>
<polygon fill="#63b8ff" stroke="#63b8ff" points="425.76,-30.72 427.3,-20.24 419.56,-27.47 425.76,-30.72"/>
</a>
</g>
</g>
<!-- Node12 -->
<g id="Node000012" class="node">
<title>Node12</title>
<g id="a_Node000012"><a xlink:title=" ">
<polygon fill="#e0e0e0" stroke="#999999" points="689.75,-73 637.75,-73 637.75,-54.5 689.75,-54.5 689.75,-73"/>
<text text-anchor="middle" x="663.75" y="-59.5" font-family="Helvetica,sans-Serif" font-size="10.00">memory</text>
</a>
</g>
</g>
<!-- Node10&#45;&gt;Node12 -->
<g id="edge13_Node000010_Node000012" class="edge">
<title>Node10&#45;&gt;Node12</title>
<g id="a_edge13_Node000010_Node000012"><a xlink:title=" ">
<path fill="none" stroke="#63b8ff" d="M440.71,-108.55C486.73,-100.53 556.58,-87.95 626.23,-73.45"/>
<polygon fill="#63b8ff" stroke="#63b8ff" points="626.86,-76.89 635.93,-71.41 625.42,-70.04 626.86,-76.89"/>
</a>
</g>
</g>
<!-- Node13 -->
<g id="Node000013" class="node">
<title>Node13</title>
<g id="a_Node000013"><a xlink:title=" ">
<polygon fill="#e0e0e0" stroke="#999999" points="459.38,-73 420.12,-73 420.12,-54.5 459.38,-54.5 459.38,-73"/>
<text text-anchor="middle" x="439.75" y="-59.5" font-family="Helvetica,sans-Serif" font-size="10.00">utility</text>
</a>
</g>
</g>
<!-- Node10&#45;&gt;Node13 -->
<g id="edge14_Node000010_Node000013" class="edge">
<title>Node10&#45;&gt;Node13</title>
<g id="a_edge14_Node000010_Node000013"><a xlink:title=" ">
<path fill="none" stroke="#63b8ff" d="M398.01,-108.58C405,-101.24 415.22,-90.51 423.8,-81.5"/>
<polygon fill="#63b8ff" stroke="#63b8ff" points="426.24,-84.01 430.6,-74.35 421.17,-79.18 426.24,-84.01"/>
</a>
</g>
</g>
<!-- Node14 -->
<g id="Node000014" class="node">
<title>Node14</title>
<g id="a_Node000014"><a xlink:href="constants_8h.html" target="_top" xlink:title="Constants for the CoverageControl library.">
<polygon fill="white" stroke="#666666" points="620.12,-73 477.38,-73 477.38,-54.5 620.12,-54.5 620.12,-73"/>
<text text-anchor="middle" x="548.75" y="-59.5" font-family="Helvetica,sans-Serif" font-size="10.00">CoverageControl/constants.h</text>
</a>
</g>
</g>
<!-- Node10&#45;&gt;Node14 -->
<g id="edge16_Node000010_Node000014" class="edge">
<title>Node10&#45;&gt;Node14</title>
<g id="a_edge16_Node000010_Node000014"><a xlink:title=" ">
<path fill="none" stroke="#63b8ff" d="M416.01,-108.58C442.13,-99.96 482.45,-86.64 511.8,-76.95"/>
<polygon fill="#63b8ff" stroke="#63b8ff" points="512.62,-80.37 521.02,-73.91 510.42,-73.72 512.62,-80.37"/>
</a>
</g>
</g>
<!-- Node14&#45;&gt;Node6 -->
<g id="edge20_Node000014_Node000006" class="edge">
<title>Node14&#45;&gt;Node6</title>
<g id="a_edge20_Node000014_Node000006"><a xlink:title=" ">
<path fill="none" stroke="#63b8ff" d="M575.17,-54.08C603.35,-44.84 647.93,-30.21 677.75,-20.42"/>
<polygon fill="#63b8ff" stroke="#63b8ff" points="678.54,-23.85 686.95,-17.4 676.36,-17.19 678.54,-23.85"/>
</a>
</g>
</g>
<!-- Node14&#45;&gt;Node11 -->
<g id="edge18_Node000014_Node000011" class="edge">
<title>Node14&#45;&gt;Node11</title>
<g id="a_edge18_Node000014_Node000011"><a xlink:title=" ">
<path fill="none" stroke="#63b8ff" d="M529.59,-54.08C511.29,-45.8 483.44,-33.19 462.29,-23.62"/>
<polygon fill="#63b8ff" stroke="#63b8ff" points="463.87,-20.49 453.31,-19.56 460.98,-26.87 463.87,-20.49"/>
</a>
</g>
</g>
<!-- Node15 -->
<g id="Node000015" class="node">
<title>Node15</title>
<g id="a_Node000015"><a xlink:title=" ">
<polygon fill="#e0e0e0" stroke="#999999" points="604.5,-18.5 479,-18.5 479,0 604.5,0 604.5,-18.5"/>
<text text-anchor="middle" x="541.75" y="-5" font-family="Helvetica,sans-Serif" font-size="10.00">CoverageControlConfig.h</text>
</a>
</g>
</g>
<!-- Node14&#45;&gt;Node15 -->
<g id="edge17_Node000014_Node000015" class="edge">
<title>Node14&#45;&gt;Node15</title>
<g id="a_edge17_Node000014_Node000015"><a xlink:title=" ">
<path fill="none" stroke="#63b8ff" d="M547.59,-54.08C546.73,-47.58 545.51,-38.42 544.4,-30.16"/>
<polygon fill="#63b8ff" stroke="#63b8ff" points="547.88,-29.71 543.08,-20.26 540.94,-30.63 547.88,-29.71"/>
</a>
</g>
</g>
<!-- Node16 -->
<g id="Node000016" class="node">
<title>Node16</title>
<g id="a_Node000016"><a xlink:title=" ">
<polygon fill="#e0e0e0" stroke="#999999" points="661.38,-18.5 622.12,-18.5 622.12,0 661.38,0 661.38,-18.5"/>
<text text-anchor="middle" x="641.75" y="-5" font-family="Helvetica,sans-Serif" font-size="10.00">limits</text>
</a>
</g>
</g>
<!-- Node14&#45;&gt;Node16 -->
<g id="edge19_Node000014_Node000016" class="edge">
<title>Node14&#45;&gt;Node16</title>
<g id="a_edge19_Node000014_Node000016"><a xlink:title=" ">
<path fill="none" stroke="#63b8ff" d="M564.11,-54.08C578.38,-46.03 599.89,-33.88 616.65,-24.42"/>
<polygon fill="#63b8ff" stroke="#63b8ff" points="618.06,-27.64 625.05,-19.68 614.62,-21.54 618.06,-27.64"/>
</a>
</g>
</g>
</g>
</svg>
