<?xml version="1.0" encoding="UTF-8" standalone="no"?>
<!DOCTYPE svg PUBLIC "-//W3C//DTD SVG 1.1//EN"
 "http://www.w3.org/Graphics/SVG/1.1/DTD/svg11.dtd">
<!-- Generated by graphviz version 10.0.1 (0)
 -->
<!-- Title: plotter.h Pages: 1 -->
<svg width="1053pt" height="310pt"
 viewBox="0.00 0.00 1053.18 309.50" xmlns="http://www.w3.org/2000/svg" xmlns:xlink="http://www.w3.org/1999/xlink">
<g id="graph0" class="graph" transform="scale(1 1) rotate(0) translate(4 305.5)">
<title>plotter.h</title>
<!-- Node1 -->
<g id="Node000001" class="node">
<title>Node1</title>
<g id="a_Node000001"><a xlink:title="Class to plot the map.">
<polygon fill="#999999" stroke="#666666" points="504.5,-301.5 453.25,-301.5 453.25,-283 504.5,-283 504.5,-301.5"/>
<text text-anchor="middle" x="478.88" y="-288" font-family="Helvetica,sans-Serif" font-size="10.00">plotter.h</text>
</a>
</g>
</g>
<!-- Node2 -->
<g id="Node000002" class="node">
<title>Node2</title>
<g id="a_Node000002"><a xlink:href="coverage__system_8cpp.html" target="_top" xlink:title="Contains the implementation of the CoverageSystem class.">
<polygon fill="white" stroke="#666666" points="109.75,-192.5 0,-192.5 0,-174 109.75,-174 109.75,-192.5"/>
<text text-anchor="middle" x="54.88" y="-179" font-family="Helvetica,sans-Serif" font-size="10.00">coverage_system.cpp</text>
</a>
</g>
</g>
<!-- Node1&#45;&gt;Node2 -->
<g id="edge1_Node000001_Node000002" class="edge">
<title>Node1&#45;&gt;Node2</title>
<g id="a_edge1_Node000001_Node000002"><a xlink:title=" ">
<path fill="none" stroke="#63b8ff" d="M441.85,-281.91C360.68,-261.42 168.05,-212.81 89.31,-192.94"/>
<polygon fill="#63b8ff" stroke="#63b8ff" points="440.97,-285.29 451.52,-284.35 442.68,-278.51 440.97,-285.29"/>
</a>
</g>
</g>
<!-- Node3 -->
<g id="Node000003" class="node">
<title>Node3</title>
<g id="a_Node000003"><a xlink:href="coverage__system_8h.html" target="_top" xlink:title="The file contains the CoverageSystem class, which is the main class for the coverage control library.">
<polygon fill="white" stroke="#666666" points="528.5,-247 429.25,-247 429.25,-228.5 528.5,-228.5 528.5,-247"/>
<text text-anchor="middle" x="478.88" y="-233.5" font-family="Helvetica,sans-Serif" font-size="10.00">coverage_system.h</text>
</a>
</g>
</g>
<!-- Node1&#45;&gt;Node3 -->
<g id="edge2_Node000001_Node000003" class="edge">
<title>Node1&#45;&gt;Node3</title>
<g id="a_edge2_Node000001_Node000003"><a xlink:title=" ">
<path fill="none" stroke="#63b8ff" d="M478.88,-271.14C478.88,-262.86 478.88,-253.71 478.88,-247.26"/>
<polygon fill="#63b8ff" stroke="#63b8ff" points="475.38,-271.07 478.88,-281.07 482.38,-271.07 475.38,-271.07"/>
</a>
</g>
</g>
<!-- Node15 -->
<g id="Node000015" class="node">
<title>Node15</title>
<g id="a_Node000015"><a xlink:href="plotter_8cpp.html" target="_top" xlink:title="Helper function to plot maps.">
<polygon fill="white" stroke="#666666" points="608.75,-247 547,-247 547,-228.5 608.75,-228.5 608.75,-247"/>
<text text-anchor="middle" x="577.88" y="-233.5" font-family="Helvetica,sans-Serif" font-size="10.00">plotter.cpp</text>
</a>
</g>
</g>
<!-- Node1&#45;&gt;Node15 -->
<g id="edge31_Node000001_Node000015" class="edge">
<title>Node1&#45;&gt;Node15</title>
<g id="a_edge31_Node000001_Node000015"><a xlink:title=" ">
<path fill="none" stroke="#63b8ff" d="M505.31,-277.23C523.19,-267.75 546.23,-255.53 561.5,-247.43"/>
<polygon fill="#63b8ff" stroke="#63b8ff" points="503.75,-274.09 496.56,-281.87 507.03,-280.28 503.75,-274.09"/>
</a>
</g>
</g>
<!-- Node3&#45;&gt;Node2 -->
<g id="edge24_Node000003_Node000002" class="edge">
<title>Node3&#45;&gt;Node2</title>
<g id="a_edge24_Node000003_Node000002"><a xlink:title=" ">
<path fill="none" stroke="#63b8ff" d="M417.77,-229.18C335.21,-218.96 189.25,-200.89 109.92,-191.07"/>
<polygon fill="#63b8ff" stroke="#63b8ff" points="417.13,-232.63 427.49,-230.39 417.99,-225.68 417.13,-232.63"/>
</a>
</g>
</g>
<!-- Node4 -->
<g id="Node000004" class="node">
<title>Node4</title>
<g id="a_Node000004"><a xlink:href="abstract__controller_8h.html" target="_top" xlink:title="Contains the abstract class for coverage control algorithms.">
<polygon fill="white" stroke="#666666" points="658.12,-192.5 553.62,-192.5 553.62,-174 658.12,-174 658.12,-192.5"/>
<text text-anchor="middle" x="605.88" y="-179" font-family="Helvetica,sans-Serif" font-size="10.00">abstract_controller.h</text>
</a>
</g>
</g>
<!-- Node3&#45;&gt;Node4 -->
<g id="edge3_Node000003_Node000004" class="edge">
<title>Node3&#45;&gt;Node4</title>
<g id="a_edge3_Node000003_Node000004"><a xlink:title=" ">
<path fill="none" stroke="#63b8ff" d="M510.23,-223.79C533.49,-214.17 564.55,-201.33 584.87,-192.93"/>
<polygon fill="#63b8ff" stroke="#63b8ff" points="509.15,-220.45 501.25,-227.5 511.82,-226.92 509.15,-220.45"/>
</a>
</g>
</g>
<!-- Node5 -->
<g id="Node000005" class="node">
<title>Node5</title>
<g id="a_Node000005"><a xlink:href="centralized__cvt_8h.html" target="_top" xlink:title="Contains the class CentralizedCVT.">
<polygon fill="white" stroke="#666666" points="912.25,-132.75 823.5,-132.75 823.5,-114.25 912.25,-114.25 912.25,-132.75"/>
<text text-anchor="middle" x="867.88" y="-119.25" font-family="Helvetica,sans-Serif" font-size="10.00">centralized_cvt.h</text>
</a>
</g>
</g>
<!-- Node3&#45;&gt;Node5 -->
<g id="edge20_Node000003_Node000005" class="edge">
<title>Node3&#45;&gt;Node5</title>
<g id="a_edge20_Node000003_Node000005"><a xlink:title=" ">
<path fill="none" stroke="#63b8ff" d="M540.09,-227.11C583.72,-219.54 643.5,-207.74 694.88,-192.5 752.42,-175.43 817.67,-147.27 849.05,-133.14"/>
<polygon fill="#63b8ff" stroke="#63b8ff" points="539.56,-223.65 530.29,-228.78 540.74,-230.55 539.56,-223.65"/>
</a>
</g>
</g>
<!-- Node6 -->
<g id="Node000006" class="node">
<title>Node6</title>
<g id="a_Node000006"><a xlink:href="core__binds_8h.html" target="_top" xlink:title="Provides python bindings for the core CoverageControl library using pybind11.">
<polygon fill="white" stroke="#666666" points="645.62,-73 574.12,-73 574.12,-54.5 645.62,-54.5 645.62,-73"/>
<text text-anchor="middle" x="609.88" y="-59.5" font-family="Helvetica,sans-Serif" font-size="10.00">core_binds.h</text>
</a>
</g>
</g>
<!-- Node3&#45;&gt;Node6 -->
<g id="edge22_Node000003_Node000006" class="edge">
<title>Node3&#45;&gt;Node6</title>
<g id="a_edge22_Node000003_Node000006"><a xlink:title=" ">
<path fill="none" stroke="#63b8ff" d="M540.14,-228.18C622.98,-216.56 763.17,-196.76 786.88,-192.5 899.66,-172.23 966.92,-227.18 1038.88,-138 1046.97,-127.97 1047.51,-118.57 1038.88,-109 1012.73,-80.02 744.6,-68.89 646,-65.76"/>
<polygon fill="#63b8ff" stroke="#63b8ff" points="539.76,-224.7 530.34,-229.56 540.73,-231.64 539.76,-224.7"/>
</a>
</g>
</g>
<!-- Node7 -->
<g id="Node000007" class="node">
<title>Node7</title>
<g id="a_Node000007"><a xlink:href="python__binds_8cpp.html" target="_top" xlink:title="Python bindings for the CoverageControl library using pybind11 (core_binds.h)">
<polygon fill="white" stroke="#666666" points="420.12,-18.5 327.62,-18.5 327.62,0 420.12,0 420.12,-18.5"/>
<text text-anchor="middle" x="373.88" y="-5" font-family="Helvetica,sans-Serif" font-size="10.00">python_binds.cpp</text>
</a>
</g>
</g>
<!-- Node3&#45;&gt;Node7 -->
<g id="edge29_Node000003_Node000007" class="edge">
<title>Node3&#45;&gt;Node7</title>
<g id="a_edge29_Node000003_Node000007"><a xlink:title=" ">
<path fill="none" stroke="#63b8ff" d="M417.61,-231.26C353.52,-224.6 257.98,-211.82 226.88,-192.5 176.72,-161.35 176.83,-131.5 168.88,-73 167.77,-64.85 163.71,-60.9 168.88,-54.5 188.43,-30.28 273.33,-18.67 327.55,-13.63"/>
<polygon fill="#63b8ff" stroke="#63b8ff" points="416.99,-234.72 427.29,-232.24 417.7,-227.75 416.99,-234.72"/>
</a>
</g>
</g>
<!-- Node8 -->
<g id="Node000008" class="node">
<title>Node8</title>
<g id="a_Node000008"><a xlink:href="clairvoyant__cvt_8h.html" target="_top" xlink:title="Clairvoyant CVT algorithm.">
<polygon fill="white" stroke="#666666" points="292.25,-132.75 203.5,-132.75 203.5,-114.25 292.25,-114.25 292.25,-132.75"/>
<text text-anchor="middle" x="247.88" y="-119.25" font-family="Helvetica,sans-Serif" font-size="10.00">clairvoyant_cvt.h</text>
</a>
</g>
</g>
<!-- Node3&#45;&gt;Node8 -->
<g id="edge21_Node000003_Node000008" class="edge">
<title>Node3&#45;&gt;Node8</title>
<g id="a_edge21_Node000003_Node000008"><a xlink:title=" ">
<path fill="none" stroke="#63b8ff" d="M450.82,-223.12C402.67,-199.72 305.63,-152.56 265.68,-133.15"/>
<polygon fill="#63b8ff" stroke="#63b8ff" points="449.25,-226.24 459.77,-227.47 452.31,-219.95 449.25,-226.24"/>
</a>
</g>
</g>
<!-- Node9 -->
<g id="Node000009" class="node">
<title>Node9</title>
<g id="a_Node000009"><a xlink:href="coverage__algorithm_8cpp.html" target="_top" xlink:title="Program to test the CVT&#45;based (Lloyd&#39;s) coverage control algorithms.">
<polygon fill="white" stroke="#666666" points="296.25,-73 177.5,-73 177.5,-54.5 296.25,-54.5 296.25,-73"/>
<text text-anchor="middle" x="236.88" y="-59.5" font-family="Helvetica,sans-Serif" font-size="10.00">coverage_algorithm.cpp</text>
</a>
</g>
</g>
<!-- Node3&#45;&gt;Node9 -->
<g id="edge23_Node000003_Node000009" class="edge">
<title>Node3&#45;&gt;Node9</title>
<g id="a_edge23_Node000003_Node000009"><a xlink:title=" ">
<path fill="none" stroke="#63b8ff" d="M417.61,-234.96C350.37,-229.33 245.27,-208.88 194.88,-138 179.16,-115.9 208.09,-87.49 225.35,-73.43"/>
<polygon fill="#63b8ff" stroke="#63b8ff" points="417.14,-238.44 427.38,-235.69 417.66,-231.46 417.14,-238.44"/>
</a>
</g>
</g>
<!-- Node10 -->
<g id="Node000010" class="node">
<title>Node10</title>
<g id="a_Node000010"><a xlink:href="decentralized__cvt_8h.html" target="_top" xlink:title="Contains the DecentralizedCVT class.">
<polygon fill="white" stroke="#666666" points="1029.5,-132.75 930.25,-132.75 930.25,-114.25 1029.5,-114.25 1029.5,-132.75"/>
<text text-anchor="middle" x="979.88" y="-119.25" font-family="Helvetica,sans-Serif" font-size="10.00">decentralized_cvt.h</text>
</a>
</g>
</g>
<!-- Node3&#45;&gt;Node10 -->
<g id="edge25_Node000003_Node000010" class="edge">
<title>Node3&#45;&gt;Node10</title>
<g id="a_edge25_Node000003_Node000010"><a xlink:title=" ">
<path fill="none" stroke="#63b8ff" d="M540.01,-228.01C592.3,-220.11 669.41,-207.44 735.88,-192.5 815.25,-174.65 907.33,-147.09 952.3,-133.17"/>
<polygon fill="#63b8ff" stroke="#63b8ff" points="539.79,-224.5 530.41,-229.44 540.82,-231.43 539.79,-224.5"/>
</a>
</g>
</g>
<!-- Node11 -->
<g id="Node000011" class="node">
<title>Node11</title>
<g id="a_Node000011"><a xlink:href="near__optimal__cvt_8h.html" target="_top" xlink:title="NearOptimalCVT class Global offline oracle: has complete information about the environment....">
<polygon fill="white" stroke="#666666" points="407.75,-132.75 310,-132.75 310,-114.25 407.75,-114.25 407.75,-132.75"/>
<text text-anchor="middle" x="358.88" y="-119.25" font-family="Helvetica,sans-Serif" font-size="10.00">near_optimal_cvt.h</text>
</a>
</g>
</g>
<!-- Node3&#45;&gt;Node11 -->
<g id="edge26_Node000003_Node000011" class="edge">
<title>Node3&#45;&gt;Node11</title>
<g id="a_edge26_Node000003_Node000011"><a xlink:title=" ">
<path fill="none" stroke="#63b8ff" d="M461.73,-220.71C435.92,-196.57 387.99,-151.73 368,-133.03"/>
<polygon fill="#63b8ff" stroke="#63b8ff" points="459.06,-223 468.75,-227.28 463.84,-217.89 459.06,-223"/>
</a>
</g>
</g>
<!-- Node12 -->
<g id="Node000012" class="node">
<title>Node12</title>
<g id="a_Node000012"><a xlink:href="oracle__bang__explore__exploit_8h.html" target="_top" xlink:title="First trial of oracle with exploration and exploitation. The oracle uses complete information about t...">
<polygon fill="white" stroke="#666666" points="531.5,-138 426.25,-138 426.25,-109 531.5,-109 531.5,-138"/>
<text text-anchor="start" x="434.25" y="-124.5" font-family="Helvetica,sans-Serif" font-size="10.00">oracle_bang_explore</text>
<text text-anchor="middle" x="478.88" y="-114" font-family="Helvetica,sans-Serif" font-size="10.00">_exploit.h</text>
</a>
</g>
</g>
<!-- Node3&#45;&gt;Node12 -->
<g id="edge27_Node000003_Node000012" class="edge">
<title>Node3&#45;&gt;Node12</title>
<g id="a_edge27_Node000003_Node000012"><a xlink:title=" ">
<path fill="none" stroke="#63b8ff" d="M478.88,-217.1C478.88,-194.47 478.88,-157.88 478.88,-138.15"/>
<polygon fill="#63b8ff" stroke="#63b8ff" points="475.38,-216.8 478.88,-226.8 482.38,-216.8 475.38,-216.8"/>
</a>
</g>
</g>
<!-- Node13 -->
<g id="Node000013" class="node">
<title>Node13</title>
<g id="a_Node000013"><a xlink:href="oracle__explore__exploit_8h.html" target="_top" xlink:title="Old trial of exploration and exploitation Uses system map for exploration as well.">
<polygon fill="white" stroke="#666666" points="670,-132.75 549.75,-132.75 549.75,-114.25 670,-114.25 670,-132.75"/>
<text text-anchor="middle" x="609.88" y="-119.25" font-family="Helvetica,sans-Serif" font-size="10.00">oracle_explore_exploit.h</text>
</a>
</g>
</g>
<!-- Node3&#45;&gt;Node13 -->
<g id="edge28_Node000003_Node000013" class="edge">
<title>Node3&#45;&gt;Node13</title>
<g id="a_edge28_Node000003_Node000013"><a xlink:title=" ">
<path fill="none" stroke="#63b8ff" d="M495.16,-220.31C508.24,-207.34 527.27,-188.99 544.88,-174 562.58,-158.92 584.28,-142.84 597.59,-133.24"/>
<polygon fill="#63b8ff" stroke="#63b8ff" points="492.81,-217.71 488.21,-227.25 497.76,-222.66 492.81,-217.71"/>
</a>
</g>
</g>
<!-- Node14 -->
<g id="Node000014" class="node">
<title>Node14</title>
<g id="a_Node000014"><a xlink:href="simul__explore__exploit_8h.html" target="_top" xlink:title="Simultaneous exploration and exploitation algorithm Uses frontier&#45;based exploration with bias towards...">
<polygon fill="white" stroke="#666666" points="805.5,-132.75 688.25,-132.75 688.25,-114.25 805.5,-114.25 805.5,-132.75"/>
<text text-anchor="middle" x="746.88" y="-119.25" font-family="Helvetica,sans-Serif" font-size="10.00">simul_explore_exploit.h</text>
</a>
</g>
</g>
<!-- Node3&#45;&gt;Node14 -->
<g id="edge30_Node000003_Node000014" class="edge">
<title>Node3&#45;&gt;Node14</title>
<g id="a_edge30_Node000003_Node000014"><a xlink:title=" ">
<path fill="none" stroke="#63b8ff" d="M538.51,-225.88C584.76,-216.86 644.62,-203.74 666.88,-192.5 697.46,-177.05 726.27,-147.62 739.41,-133.07"/>
<polygon fill="#63b8ff" stroke="#63b8ff" points="538.02,-222.41 528.86,-227.73 539.34,-229.28 538.02,-222.41"/>
</a>
</g>
</g>
<!-- Node4&#45;&gt;Node5 -->
<g id="edge4_Node000004_Node000005" class="edge">
<title>Node4&#45;&gt;Node5</title>
<g id="a_edge4_Node000004_Node000005"><a xlink:title=" ">
<path fill="none" stroke="#63b8ff" d="M660.78,-171.26C703.01,-162.66 762.76,-150.15 814.88,-138 821.26,-136.51 828.05,-134.85 834.56,-133.21"/>
<polygon fill="#63b8ff" stroke="#63b8ff" points="660.21,-167.81 651.11,-173.23 661.6,-174.67 660.21,-167.81"/>
</a>
</g>
</g>
<!-- Node4&#45;&gt;Node8 -->
<g id="edge7_Node000004_Node000008" class="edge">
<title>Node4&#45;&gt;Node8</title>
<g id="a_edge7_Node000004_Node000008"><a xlink:title=" ">
<path fill="none" stroke="#63b8ff" d="M542.09,-174.98C480.15,-167.46 383.62,-154.49 300.88,-138 293.98,-136.63 286.65,-134.92 279.7,-133.19"/>
<polygon fill="#63b8ff" stroke="#63b8ff" points="541.39,-178.42 551.73,-176.14 542.22,-171.47 541.39,-178.42"/>
</a>
</g>
</g>
<!-- Node4&#45;&gt;Node10 -->
<g id="edge10_Node000004_Node000010" class="edge">
<title>Node4&#45;&gt;Node10</title>
<g id="a_edge10_Node000004_Node000010"><a xlink:title=" ">
<path fill="none" stroke="#63b8ff" d="M669.57,-174.92C733.38,-167.2 834.29,-153.96 920.88,-138 928.42,-136.61 936.46,-134.91 944.1,-133.2"/>
<polygon fill="#63b8ff" stroke="#63b8ff" points="669.5,-171.41 659.99,-176.07 670.34,-178.36 669.5,-171.41"/>
</a>
</g>
</g>
<!-- Node4&#45;&gt;Node11 -->
<g id="edge12_Node000004_Node000011" class="edge">
<title>Node4&#45;&gt;Node11</title>
<g id="a_edge12_Node000004_Node000011"><a xlink:title=" ">
<path fill="none" stroke="#63b8ff" d="M557.43,-170.92C510.09,-159.86 439.05,-143.25 396.02,-133.18"/>
<polygon fill="#63b8ff" stroke="#63b8ff" points="556.62,-174.33 567.16,-173.2 558.21,-167.51 556.62,-174.33"/>
</a>
</g>
</g>
<!-- Node4&#45;&gt;Node12 -->
<g id="edge14_Node000004_Node000012" class="edge">
<title>Node4&#45;&gt;Node12</title>
<g id="a_edge14_Node000004_Node000012"><a xlink:title=" ">
<path fill="none" stroke="#63b8ff" d="M576.43,-168.86C556.32,-159.71 529.72,-147.62 509.38,-138.37"/>
<polygon fill="#63b8ff" stroke="#63b8ff" points="574.93,-172.02 585.48,-172.98 577.83,-165.65 574.93,-172.02"/>
</a>
</g>
</g>
<!-- Node4&#45;&gt;Node13 -->
<g id="edge16_Node000004_Node000013" class="edge">
<title>Node4&#45;&gt;Node13</title>
<g id="a_edge16_Node000004_Node000013"><a xlink:title=" ">
<path fill="none" stroke="#63b8ff" d="M607.25,-162.33C607.95,-152.33 608.75,-140.75 609.28,-133.06"/>
<polygon fill="#63b8ff" stroke="#63b8ff" points="603.77,-162 606.57,-172.22 610.75,-162.48 603.77,-162"/>
</a>
</g>
</g>
<!-- Node4&#45;&gt;Node14 -->
<g id="edge18_Node000004_Node000014" class="edge">
<title>Node4&#45;&gt;Node14</title>
<g id="a_edge18_Node000004_Node000014"><a xlink:title=" ">
<path fill="none" stroke="#63b8ff" d="M637.4,-169.34C664.29,-158.33 702.2,-142.8 725.62,-133.2"/>
<polygon fill="#63b8ff" stroke="#63b8ff" points="636.31,-166 628.38,-173.03 638.97,-172.48 636.31,-166"/>
</a>
</g>
</g>
<!-- Node5&#45;&gt;Node6 -->
<g id="edge5_Node000005_Node000006" class="edge">
<title>Node5&#45;&gt;Node6</title>
<g id="a_edge5_Node000005_Node000006"><a xlink:title=" ">
<path fill="none" stroke="#63b8ff" d="M823.43,-111.05C820.53,-110.35 817.67,-109.66 814.88,-109 755.86,-95.12 686.9,-80.58 645.89,-72.1"/>
<polygon fill="#63b8ff" stroke="#63b8ff" points="822.54,-114.44 833.09,-113.45 824.23,-107.64 822.54,-114.44"/>
</a>
</g>
</g>
<!-- Node6&#45;&gt;Node7 -->
<g id="edge6_Node000006_Node000007" class="edge">
<title>Node6&#45;&gt;Node7</title>
<g id="a_edge6_Node000006_Node000007"><a xlink:title=" ">
<path fill="none" stroke="#63b8ff" d="M562.54,-52.22C518.68,-42.46 454.19,-28.12 413.12,-18.98"/>
<polygon fill="#63b8ff" stroke="#63b8ff" points="561.78,-55.64 572.3,-54.39 563.3,-48.8 561.78,-55.64"/>
</a>
</g>
</g>
<!-- Node8&#45;&gt;Node6 -->
<g id="edge8_Node000008_Node000006" class="edge">
<title>Node8&#45;&gt;Node6</title>
<g id="a_edge8_Node000008_Node000006"><a xlink:title=" ">
<path fill="none" stroke="#63b8ff" d="M290.64,-111.19C294.09,-110.4 297.54,-109.66 300.88,-109 398.95,-89.55 516.16,-75.15 573.98,-68.62"/>
<polygon fill="#63b8ff" stroke="#63b8ff" points="290.08,-107.72 281.17,-113.45 291.71,-114.53 290.08,-107.72"/>
</a>
</g>
</g>
<!-- Node8&#45;&gt;Node9 -->
<g id="edge9_Node000008_Node000009" class="edge">
<title>Node8&#45;&gt;Node9</title>
<g id="a_edge9_Node000008_Node000009"><a xlink:title=" ">
<path fill="none" stroke="#63b8ff" d="M244.14,-102.91C242.23,-92.84 239.99,-81.08 238.5,-73.31"/>
<polygon fill="#63b8ff" stroke="#63b8ff" points="240.66,-103.32 245.97,-112.49 247.54,-102.01 240.66,-103.32"/>
</a>
</g>
</g>
<!-- Node10&#45;&gt;Node6 -->
<g id="edge11_Node000010_Node000006" class="edge">
<title>Node10&#45;&gt;Node6</title>
<g id="a_edge11_Node000010_Node000006"><a xlink:title=" ">
<path fill="none" stroke="#63b8ff" d="M933.18,-111.44C929.03,-110.57 924.88,-109.74 920.88,-109 821.94,-90.68 704.07,-75.78 645.95,-68.89"/>
<polygon fill="#63b8ff" stroke="#63b8ff" points="932.1,-114.79 942.61,-113.49 933.59,-107.94 932.1,-114.79"/>
</a>
</g>
</g>
<!-- Node11&#45;&gt;Node6 -->
<g id="edge13_Node000011_Node000006" class="edge">
<title>Node11&#45;&gt;Node6</title>
<g id="a_edge13_Node000011_Node000006"><a xlink:title=" ">
<path fill="none" stroke="#63b8ff" d="M407.31,-111.21C410.55,-110.46 413.76,-109.72 416.88,-109 471.64,-96.35 535.17,-81.81 573.94,-72.95"/>
<polygon fill="#63b8ff" stroke="#63b8ff" points="406.73,-107.75 397.79,-113.43 408.32,-114.57 406.73,-107.75"/>
</a>
</g>
</g>
<!-- Node12&#45;&gt;Node6 -->
<g id="edge15_Node000012_Node000006" class="edge">
<title>Node12&#45;&gt;Node6</title>
<g id="a_edge15_Node000012_Node000006"><a xlink:title=" ">
<path fill="none" stroke="#63b8ff" d="M520.9,-103.97C544.17,-93.72 571.98,-81.45 590.25,-73.4"/>
<polygon fill="#63b8ff" stroke="#63b8ff" points="519.71,-100.67 511.97,-107.91 522.53,-107.08 519.71,-100.67"/>
</a>
</g>
</g>
<!-- Node13&#45;&gt;Node6 -->
<g id="edge17_Node000013_Node000006" class="edge">
<title>Node13&#45;&gt;Node6</title>
<g id="a_edge17_Node000013_Node000006"><a xlink:title=" ">
<path fill="none" stroke="#63b8ff" d="M609.88,-102.58C609.88,-92.58 609.88,-81 609.88,-73.31"/>
<polygon fill="#63b8ff" stroke="#63b8ff" points="606.38,-102.47 609.88,-112.47 613.38,-102.47 606.38,-102.47"/>
</a>
</g>
</g>
<!-- Node14&#45;&gt;Node6 -->
<g id="edge19_Node000014_Node000006" class="edge">
<title>Node14&#45;&gt;Node6</title>
<g id="a_edge19_Node000014_Node000006"><a xlink:title=" ">
<path fill="none" stroke="#63b8ff" d="M715.89,-109.44C689.79,-98.44 653.18,-83.01 630.53,-73.45"/>
<polygon fill="#63b8ff" stroke="#63b8ff" points="714.4,-112.61 724.97,-113.27 717.11,-106.16 714.4,-112.61"/>
</a>
</g>
</g>
</g>
</svg>
