<?xml version="1.0" encoding="UTF-8" standalone="no"?>
<!DOCTYPE svg PUBLIC "-//W3C//DTD SVG 1.1//EN"
 "http://www.w3.org/Graphics/SVG/1.1/DTD/svg11.dtd">
<!-- Generated by graphviz version 10.0.1 (0)
 -->
<!-- Title: plotter.cpp Pages: 1 -->
<!--zoomable 255 -->

<svg id="main" version="1.1" xmlns="http://www.w3.org/2000/svg" xmlns:xlink="http://www.w3.org/1999/xlink" xml:space="preserve" onload="init(evt)">
<style type="text/css"><![CDATA[
.node, .edge {opacity: 0.7;}
.node.selected, .edge.selected {opacity: 1;}
.edge:hover path { stroke: red; }
.edge:hover polygon { stroke: red; fill: red; }
]]></style>

<defs>
  <circle id="rim" cx="0" cy="0" r="7"/>
  <circle id="rim2" cx="0" cy="0" r="3.5"/>
  <g id="zoomPlus">
    <use xlink:href="#rim" fill="#404040"><set attributeName="fill" to="#808080" begin="zoomplus.mouseover" end="zoomplus.mouseout"/></use>
    <path d="M-4,0h8M0,-4v8" fill="none" stroke="white" stroke-width="1.5" pointer-events="none"/>
  </g>
  <g id="zoomMin">
    <use xlink:href="#rim" fill="#404040"><set attributeName="fill" to="#808080" begin="zoomminus.mouseover" end="zoomminus.mouseout"/></use>
    <path d="M-4,0h8" fill="none" stroke="white" stroke-width="1.5" pointer-events="none"/>
  </g>
  <g id="arrowUp" transform="translate(30 24)">
    <use xlink:href="#rim"/>
    <path pointer-events="none" fill="none" stroke="white" stroke-width="1.5" d="M0,-3.0v7 M-2.5,-0.5L0,-3.0L2.5,-0.5"/>
  </g>
  <g id="arrowRight" transform="rotate(90) translate(36 -43)">
    <use xlink:href="#rim"/>
    <path pointer-events="none" fill="none" stroke="white" stroke-width="1.5" d="M0,-3.0v7 M-2.5,-0.5L0,-3.0L2.5,-0.5"/>
  </g>
  <g id="arrowDown" transform="rotate(180) translate(-30 -48)">
    <use xlink:href="#rim"/>
    <path pointer-events="none" fill="none" stroke="white" stroke-width="1.5" d="M0,-3.0v7 M-2.5,-0.5L0,-3.0L2.5,-0.5"/>
  </g>
  <g id="arrowLeft" transform="rotate(270) translate(-36 17)">
    <use xlink:href="#rim"/>
    <path pointer-events="none" fill="none" stroke="white" stroke-width="1.5" d="M0,-3.0v7 M-2.5,-0.5L0,-3.0L2.5,-0.5"/>
  </g>
  <g id="resetDef">
    <use xlink:href="#rim2" fill="#404040"><set attributeName="fill" to="#808080" begin="reset.mouseover" end="reset.mouseout"/></use>
  </g>
</defs>
<script type="application/ecmascript">
var viewWidth = 782;
var viewHeight = 255;
var sectionId = 'dynsection-0';
</script>
<script type="application/ecmascript" xlink:href="svg.min.js"/>
<svg id="graph" class="graph">
<g id="viewport">
<title>plotter.cpp</title>
<!-- Node1 -->
<g id="Node000001" class="node">
<title>Node1</title>
<g id="a_Node000001"><a xlink:title="Helper function to plot maps.">
<polygon fill="#999999" stroke="#666666" points="251.62,-247 189.88,-247 189.88,-228.5 251.62,-228.5 251.62,-247"/>
<text text-anchor="middle" x="220.75" y="-233.5" font-family="Helvetica,sans-Serif" font-size="10.00">plotter.cpp</text>
</a>
</g>
</g>
<!-- Node2 -->
<g id="Node000002" class="node">
<title>Node2</title>
<g id="a_Node000002"><a xlink:title=" ">
<polygon fill="#e0e0e0" stroke="#999999" points="213.25,-192.5 80.25,-192.5 80.25,-163.5 213.25,-163.5 213.25,-192.5"/>
<text text-anchor="start" x="88.25" y="-179" font-family="Helvetica,sans-Serif" font-size="10.00">CoverageControl/extern</text>
<text text-anchor="middle" x="146.75" y="-168.5" font-family="Helvetica,sans-Serif" font-size="10.00">/gnuplot/gnuplot&#45;iostream.h</text>
</a>
</g>
</g>
<!-- Node1&#45;&gt;Node2 -->
<g id="edge1_Node000001_Node000002" class="edge">
<title>Node1&#45;&gt;Node2</title>
<g id="a_edge1_Node000001_Node000002"><a xlink:title=" ">
<path fill="none" stroke="#63b8ff" d="M209.83,-228.23C200.26,-220.76 185.94,-209.58 173.36,-199.77"/>
<polygon fill="#63b8ff" stroke="#63b8ff" points="175.83,-197.26 165.8,-193.86 171.53,-202.78 175.83,-197.26"/>
</a>
</g>
</g>
<!-- Node3 -->
<g id="Node000003" class="node">
<title>Node3</title>
<g id="a_Node000003"><a xlink:href="plotter_8h.html" target="_top" xlink:title="Class to plot the map.">
<polygon fill="white" stroke="#666666" points="358.25,-187.25 231.25,-187.25 231.25,-168.75 358.25,-168.75 358.25,-187.25"/>
<text text-anchor="middle" x="294.75" y="-173.75" font-family="Helvetica,sans-Serif" font-size="10.00">CoverageControl/plotter.h</text>
</a>
</g>
</g>
<!-- Node1&#45;&gt;Node3 -->
<g id="edge2_Node000001_Node000003" class="edge">
<title>Node1&#45;&gt;Node3</title>
<g id="a_edge2_Node000001_Node000003"><a xlink:title=" ">
<path fill="none" stroke="#63b8ff" d="M231.67,-228.23C243.04,-219.36 261.09,-205.27 274.97,-194.43"/>
<polygon fill="#63b8ff" stroke="#63b8ff" points="276.86,-197.4 282.59,-188.49 272.56,-191.88 276.86,-197.4"/>
</a>
</g>
</g>
<!-- Node4 -->
<g id="Node000004" class="node">
<title>Node4</title>
<g id="a_Node000004"><a xlink:title=" ">
<polygon fill="#e0e0e0" stroke="#999999" points="59.5,-127.5 0,-127.5 0,-109 59.5,-109 59.5,-127.5"/>
<text text-anchor="middle" x="29.75" y="-114" font-family="Helvetica,sans-Serif" font-size="10.00">filesystem</text>
</a>
</g>
</g>
<!-- Node3&#45;&gt;Node4 -->
<g id="edge3_Node000003_Node000004" class="edge">
<title>Node3&#45;&gt;Node4</title>
<g id="a_edge3_Node000003_Node000004"><a xlink:title=" ">
<path fill="none" stroke="#63b8ff" d="M254.79,-168.29C205.16,-157.48 120.92,-139.12 70.79,-128.19"/>
<polygon fill="#63b8ff" stroke="#63b8ff" points="71.73,-124.82 61.21,-126.11 70.24,-131.66 71.73,-124.82"/>
</a>
</g>
</g>
<!-- Node5 -->
<g id="Node000005" class="node">
<title>Node5</title>
<g id="a_Node000005"><a xlink:title=" ">
<polygon fill="#e0e0e0" stroke="#999999" points="169.5,-73 116,-73 116,-54.5 169.5,-54.5 169.5,-73"/>
<text text-anchor="middle" x="142.75" y="-59.5" font-family="Helvetica,sans-Serif" font-size="10.00">iostream</text>
</a>
</g>
</g>
<!-- Node3&#45;&gt;Node5 -->
<g id="edge4_Node000003_Node000005" class="edge">
<title>Node3&#45;&gt;Node5</title>
<g id="a_edge4_Node000003_Node000005"><a xlink:title=" ">
<path fill="none" stroke="#63b8ff" d="M283.33,-168.56C257.8,-149.71 195.83,-103.95 163.36,-79.97"/>
<polygon fill="#63b8ff" stroke="#63b8ff" points="165.65,-77.31 155.52,-74.18 161.49,-82.94 165.65,-77.31"/>
</a>
</g>
</g>
<!-- Node6 -->
<g id="Node000006" class="node">
<title>Node6</title>
<g id="a_Node000006"><a xlink:title=" ">
<polygon fill="#e0e0e0" stroke="#999999" points="774.15,-127.5 745.35,-127.5 745.35,-109 774.15,-109 774.15,-127.5"/>
<text text-anchor="middle" x="759.75" y="-114" font-family="Helvetica,sans-Serif" font-size="10.00">list</text>
</a>
</g>
</g>
<!-- Node3&#45;&gt;Node6 -->
<g id="edge5_Node000003_Node000006" class="edge">
<title>Node3&#45;&gt;Node6</title>
<g id="a_edge5_Node000003_Node000006"><a xlink:title=" ">
<path fill="none" stroke="#63b8ff" d="M358.61,-173.25C444.22,-167.44 600.6,-154.04 731.75,-127.5 732.57,-127.33 733.4,-127.16 734.24,-126.97"/>
<polygon fill="#63b8ff" stroke="#63b8ff" points="734.81,-130.43 743.59,-124.49 733.02,-123.67 734.81,-130.43"/>
</a>
</g>
</g>
<!-- Node7 -->
<g id="Node000007" class="node">
<title>Node7</title>
<g id="a_Node000007"><a xlink:title=" ">
<polygon fill="#e0e0e0" stroke="#999999" points="732.75,-18.5 692.75,-18.5 692.75,0 732.75,0 732.75,-18.5"/>
<text text-anchor="middle" x="712.75" y="-5" font-family="Helvetica,sans-Serif" font-size="10.00">string</text>
</a>
</g>
</g>
<!-- Node3&#45;&gt;Node7 -->
<g id="edge6_Node000003_Node000007" class="edge">
<title>Node3&#45;&gt;Node7</title>
<g id="a_edge6_Node000003_Node000007"><a xlink:title=" ">
<path fill="none" stroke="#63b8ff" d="M358.34,-168.78C459.86,-154.37 651.9,-121.39 698.75,-73 709.69,-61.7 712.83,-43.84 713.44,-30.05"/>
<polygon fill="#63b8ff" stroke="#63b8ff" points="716.94,-30.36 713.44,-20.36 709.94,-30.36 716.94,-30.36"/>
</a>
</g>
</g>
<!-- Node8 -->
<g id="Node000008" class="node">
<title>Node8</title>
<g id="a_Node000008"><a xlink:title=" ">
<polygon fill="#e0e0e0" stroke="#999999" points="218.88,-18.5 176.62,-18.5 176.62,0 218.88,0 218.88,-18.5"/>
<text text-anchor="middle" x="197.75" y="-5" font-family="Helvetica,sans-Serif" font-size="10.00">vector</text>
</a>
</g>
</g>
<!-- Node3&#45;&gt;Node8 -->
<g id="edge7_Node000003_Node000008" class="edge">
<title>Node3&#45;&gt;Node8</title>
<g id="a_edge7_Node000003_Node000008"><a xlink:title=" ">
<path fill="none" stroke="#63b8ff" d="M256.11,-168.25C211.01,-155.73 138.53,-127.87 106.75,-73 90.88,-45.59 133.29,-27.44 165.44,-18.01"/>
<polygon fill="#63b8ff" stroke="#63b8ff" points="166.09,-21.46 174.81,-15.43 164.24,-14.71 166.09,-21.46"/>
</a>
</g>
</g>
<!-- Node9 -->
<g id="Node000009" class="node">
<title>Node9</title>
<g id="a_Node000009"><a xlink:href="typedefs_8h.html" target="_top" xlink:title="Contains typedefs for the library.">
<polygon fill="white" stroke="#666666" points="363.5,-73 226,-73 226,-54.5 363.5,-54.5 363.5,-73"/>
<text text-anchor="middle" x="294.75" y="-59.5" font-family="Helvetica,sans-Serif" font-size="10.00">CoverageControl/typedefs.h</text>
</a>
</g>
</g>
<!-- Node3&#45;&gt;Node9 -->
<g id="edge8_Node000003_Node000009" class="edge">
<title>Node3&#45;&gt;Node9</title>
<g id="a_edge8_Node000003_Node000009"><a xlink:title=" ">
<path fill="none" stroke="#63b8ff" d="M294.75,-168.56C294.75,-150.85 294.75,-109.37 294.75,-84.54"/>
<polygon fill="#63b8ff" stroke="#63b8ff" points="298.25,-84.8 294.75,-74.8 291.25,-84.8 298.25,-84.8"/>
</a>
</g>
</g>
<!-- Node12 -->
<g id="Node000012" class="node">
<title>Node12</title>
<g id="a_Node000012"><a xlink:href="voronoi_8h.html" target="_top" xlink:title="Class for computing Voronoi cells.">
<polygon fill="white" stroke="#666666" points="455.12,-127.5 324.38,-127.5 324.38,-109 455.12,-109 455.12,-127.5"/>
<text text-anchor="middle" x="389.75" y="-114" font-family="Helvetica,sans-Serif" font-size="10.00">CoverageControl/voronoi.h</text>
</a>
</g>
</g>
<!-- Node3&#45;&gt;Node12 -->
<g id="edge12_Node000003_Node000012" class="edge">
<title>Node3&#45;&gt;Node12</title>
<g id="a_edge12_Node000003_Node000012"><a xlink:title=" ">
<path fill="none" stroke="#63b8ff" d="M308.77,-168.48C323.7,-159.4 347.6,-144.87 365.58,-133.94"/>
<polygon fill="#63b8ff" stroke="#63b8ff" points="367.34,-136.97 374.07,-128.78 363.71,-130.99 367.34,-136.97"/>
</a>
</g>
</g>
<!-- Node9&#45;&gt;Node8 -->
<g id="edge11_Node000009_Node000008" class="edge">
<title>Node9&#45;&gt;Node8</title>
<g id="a_edge11_Node000009_Node000008"><a xlink:title=" ">
<path fill="none" stroke="#63b8ff" d="M278.73,-54.08C263.71,-45.95 240.99,-33.65 223.43,-24.15"/>
<polygon fill="#63b8ff" stroke="#63b8ff" points="225.58,-21.33 215.12,-19.65 222.25,-27.49 225.58,-21.33"/>
</a>
</g>
</g>
<!-- Node10 -->
<g id="Node000010" class="node">
<title>Node10</title>
<g id="a_Node000010"><a xlink:title=" ">
<polygon fill="#e0e0e0" stroke="#999999" points="319.88,-18.5 247.62,-18.5 247.62,0 319.88,0 319.88,-18.5"/>
<text text-anchor="middle" x="283.75" y="-5" font-family="Helvetica,sans-Serif" font-size="10.00">Eigen/Dense</text>
</a>
</g>
</g>
<!-- Node9&#45;&gt;Node10 -->
<g id="edge9_Node000009_Node000010" class="edge">
<title>Node9&#45;&gt;Node10</title>
<g id="a_edge9_Node000009_Node000010"><a xlink:title=" ">
<path fill="none" stroke="#63b8ff" d="M292.93,-54.08C291.56,-47.51 289.61,-38.21 287.86,-29.87"/>
<polygon fill="#63b8ff" stroke="#63b8ff" points="291.32,-29.31 285.84,-20.24 284.47,-30.74 291.32,-29.31"/>
</a>
</g>
</g>
<!-- Node11 -->
<g id="Node000011" class="node">
<title>Node11</title>
<g id="a_Node000011"><a xlink:title=" ">
<polygon fill="#e0e0e0" stroke="#999999" points="379.88,-18.5 337.62,-18.5 337.62,0 379.88,0 379.88,-18.5"/>
<text text-anchor="middle" x="358.75" y="-5" font-family="Helvetica,sans-Serif" font-size="10.00">queue</text>
</a>
</g>
</g>
<!-- Node9&#45;&gt;Node11 -->
<g id="edge10_Node000009_Node000011" class="edge">
<title>Node9&#45;&gt;Node11</title>
<g id="a_edge10_Node000009_Node000011"><a xlink:title=" ">
<path fill="none" stroke="#63b8ff" d="M305.32,-54.08C314.64,-46.44 328.45,-35.11 339.69,-25.88"/>
<polygon fill="#63b8ff" stroke="#63b8ff" points="341.7,-28.77 347.21,-19.72 337.26,-23.35 341.7,-28.77"/>
</a>
</g>
</g>
<!-- Node12&#45;&gt;Node5 -->
<g id="edge14_Node000012_Node000005" class="edge">
<title>Node12&#45;&gt;Node5</title>
<g id="a_edge14_Node000012_Node000005"><a xlink:title=" ">
<path fill="none" stroke="#63b8ff" d="M348.69,-108.52C301.99,-98.6 226.37,-82.52 180.92,-72.86"/>
<polygon fill="#63b8ff" stroke="#63b8ff" points="181.76,-69.46 171.25,-70.81 180.31,-76.31 181.76,-69.46"/>
</a>
</g>
</g>
<!-- Node12&#45;&gt;Node8 -->
<g id="edge17_Node000012_Node000008" class="edge">
<title>Node12&#45;&gt;Node8</title>
<g id="a_edge17_Node000012_Node000008"><a xlink:title=" ">
<path fill="none" stroke="#63b8ff" d="M323.9,-115.61C287.99,-111.33 245.19,-100.23 216.75,-73 205.17,-61.91 200.58,-44.02 198.79,-30.18"/>
<polygon fill="#63b8ff" stroke="#63b8ff" points="202.3,-30.08 197.95,-20.42 195.32,-30.68 202.3,-30.08"/>
</a>
</g>
</g>
<!-- Node12&#45;&gt;Node9 -->
<g id="edge23_Node000012_Node000009" class="edge">
<title>Node12&#45;&gt;Node9</title>
<g id="a_edge23_Node000012_Node000009"><a xlink:title=" ">
<path fill="none" stroke="#63b8ff" d="M374.06,-108.58C359.49,-100.53 337.51,-88.38 320.39,-78.92"/>
<polygon fill="#63b8ff" stroke="#63b8ff" points="322.23,-75.94 311.79,-74.16 318.84,-82.06 322.23,-75.94"/>
</a>
</g>
</g>
<!-- Node13 -->
<g id="Node000013" class="node">
<title>Node13</title>
<g id="a_Node000013"><a xlink:title=" ">
<polygon fill="#e0e0e0" stroke="#999999" points="458.25,-18.5 415.25,-18.5 415.25,0 458.25,0 458.25,-18.5"/>
<text text-anchor="middle" x="436.75" y="-5" font-family="Helvetica,sans-Serif" font-size="10.00">cmath</text>
</a>
</g>
</g>
<!-- Node12&#45;&gt;Node13 -->
<g id="edge13_Node000012_Node000013" class="edge">
<title>Node12&#45;&gt;Node13</title>
<g id="a_edge13_Node000012_Node000013"><a xlink:title=" ">
<path fill="none" stroke="#63b8ff" d="M392.05,-108.51C395.44,-96.18 402.28,-73.11 410.75,-54.5 414.81,-45.58 420.18,-36.15 424.99,-28.31"/>
<polygon fill="#63b8ff" stroke="#63b8ff" points="427.82,-30.38 430.21,-20.06 421.9,-26.64 427.82,-30.38"/>
</a>
</g>
</g>
<!-- Node14 -->
<g id="Node000014" class="node">
<title>Node14</title>
<g id="a_Node000014"><a xlink:title=" ">
<polygon fill="#e0e0e0" stroke="#999999" points="689.75,-73 637.75,-73 637.75,-54.5 689.75,-54.5 689.75,-73"/>
<text text-anchor="middle" x="663.75" y="-59.5" font-family="Helvetica,sans-Serif" font-size="10.00">memory</text>
</a>
</g>
</g>
<!-- Node12&#45;&gt;Node14 -->
<g id="edge15_Node000012_Node000014" class="edge">
<title>Node12&#45;&gt;Node14</title>
<g id="a_edge15_Node000012_Node000014"><a xlink:title=" ">
<path fill="none" stroke="#63b8ff" d="M440.71,-108.55C486.73,-100.53 556.58,-87.95 626.23,-73.45"/>
<polygon fill="#63b8ff" stroke="#63b8ff" points="626.86,-76.89 635.93,-71.41 625.42,-70.04 626.86,-76.89"/>
</a>
</g>
</g>
<!-- Node15 -->
<g id="Node000015" class="node">
<title>Node15</title>
<g id="a_Node000015"><a xlink:title=" ">
<polygon fill="#e0e0e0" stroke="#999999" points="459.38,-73 420.12,-73 420.12,-54.5 459.38,-54.5 459.38,-73"/>
<text text-anchor="middle" x="439.75" y="-59.5" font-family="Helvetica,sans-Serif" font-size="10.00">utility</text>
</a>
</g>
</g>
<!-- Node12&#45;&gt;Node15 -->
<g id="edge16_Node000012_Node000015" class="edge">
<title>Node12&#45;&gt;Node15</title>
<g id="a_edge16_Node000012_Node000015"><a xlink:title=" ">
<path fill="none" stroke="#63b8ff" d="M398.01,-108.58C405,-101.24 415.22,-90.51 423.8,-81.5"/>
<polygon fill="#63b8ff" stroke="#63b8ff" points="426.24,-84.01 430.6,-74.35 421.17,-79.18 426.24,-84.01"/>
</a>
</g>
</g>
<!-- Node16 -->
<g id="Node000016" class="node">
<title>Node16</title>
<g id="a_Node000016"><a xlink:href="constants_8h.html" target="_top" xlink:title="Constants for the CoverageControl library.">
<polygon fill="white" stroke="#666666" points="620.12,-73 477.38,-73 477.38,-54.5 620.12,-54.5 620.12,-73"/>
<text text-anchor="middle" x="548.75" y="-59.5" font-family="Helvetica,sans-Serif" font-size="10.00">CoverageControl/constants.h</text>
</a>
</g>
</g>
<!-- Node12&#45;&gt;Node16 -->
<g id="edge18_Node000012_Node000016" class="edge">
<title>Node12&#45;&gt;Node16</title>
<g id="a_edge18_Node000012_Node000016"><a xlink:title=" ">
<path fill="none" stroke="#63b8ff" d="M416.01,-108.58C442.13,-99.96 482.45,-86.64 511.8,-76.95"/>
<polygon fill="#63b8ff" stroke="#63b8ff" points="512.62,-80.37 521.02,-73.91 510.42,-73.72 512.62,-80.37"/>
</a>
</g>
</g>
<!-- Node16&#45;&gt;Node7 -->
<g id="edge21_Node000016_Node000007" class="edge">
<title>Node16&#45;&gt;Node7</title>
<g id="a_edge21_Node000016_Node000007"><a xlink:title=" ">
<path fill="none" stroke="#63b8ff" d="M575.83,-54.08C604.87,-44.78 650.92,-30.04 681.49,-20.26"/>
<polygon fill="#63b8ff" stroke="#63b8ff" points="682.47,-23.62 690.93,-17.23 680.34,-16.95 682.47,-23.62"/>
</a>
</g>
</g>
<!-- Node16&#45;&gt;Node13 -->
<g id="edge19_Node000016_Node000013" class="edge">
<title>Node16&#45;&gt;Node13</title>
<g id="a_edge19_Node000016_Node000013"><a xlink:title=" ">
<path fill="none" stroke="#63b8ff" d="M530.26,-54.08C512.67,-45.84 485.94,-33.31 465.56,-23.75"/>
<polygon fill="#63b8ff" stroke="#63b8ff" points="467.18,-20.65 456.64,-19.57 464.21,-26.99 467.18,-20.65"/>
</a>
</g>
</g>
<!-- Node17 -->
<g id="Node000017" class="node">
<title>Node17</title>
<g id="a_Node000017"><a xlink:title=" ">
<polygon fill="#e0e0e0" stroke="#999999" points="524.38,-18.5 485.12,-18.5 485.12,0 524.38,0 524.38,-18.5"/>
<text text-anchor="middle" x="504.75" y="-5" font-family="Helvetica,sans-Serif" font-size="10.00">limits</text>
</a>
</g>
</g>
<!-- Node16&#45;&gt;Node17 -->
<g id="edge20_Node000016_Node000017" class="edge">
<title>Node16&#45;&gt;Node17</title>
<g id="a_edge20_Node000016_Node000017"><a xlink:title=" ">
<path fill="none" stroke="#63b8ff" d="M541.48,-54.08C535.46,-46.89 526.71,-36.45 519.26,-27.57"/>
<polygon fill="#63b8ff" stroke="#63b8ff" points="521.96,-25.33 512.85,-19.92 516.59,-29.83 521.96,-25.33"/>
</a>
</g>
</g>
<!-- Node18 -->
<g id="Node000018" class="node">
<title>Node18</title>
<g id="a_Node000018"><a xlink:title=" ">
<polygon fill="#e0e0e0" stroke="#999999" points="671,-18.5 542.5,-18.5 542.5,0 671,0 671,-18.5"/>
<text text-anchor="middle" x="606.75" y="-5" font-family="Helvetica,sans-Serif" font-size="10.00">CoverageControl/Config.h</text>
</a>
</g>
</g>
<!-- Node16&#45;&gt;Node18 -->
<g id="edge22_Node000016_Node000018" class="edge">
<title>Node16&#45;&gt;Node18</title>
<g id="a_edge22_Node000016_Node000018"><a xlink:title=" ">
<path fill="none" stroke="#63b8ff" d="M558.33,-54.08C566.6,-46.59 578.79,-35.56 588.86,-26.44"/>
<polygon fill="#63b8ff" stroke="#63b8ff" points="591.16,-29.08 596.23,-19.77 586.47,-23.89 591.16,-29.08"/>
</a>
</g>
</g>
</g>
</svg>

<g id="navigator" transform="translate(0 0)" fill="#404254">
  <rect fill="#f2f5e9" fill-opacity="0.5" stroke="#606060" stroke-width=".5" x="0" y="0" width="60" height="60"/>
  <use id="zoomplus" xlink:href="#zoomPlus" x="17" y="9" onmousedown="handleZoom(evt,'in')"/>
  <use id="zoomminus" xlink:href="#zoomMin" x="42" y="9" onmousedown="handleZoom(evt,'out')"/>
  <use id="reset" xlink:href="#resetDef" x="30" y="36" onmousedown="handleReset()"/>
   <use id="arrowup" xlink:href="#arrowUp" x="0" y="0" onmousedown="handlePan(0,-1)"/>
  <use id="arrowright" xlink:href="#arrowRight" x="0" y="0" onmousedown="handlePan(1,0)"/>
  <use id="arrowdown" xlink:href="#arrowDown" x="0" y="0" onmousedown="handlePan(0,1)"/>
  <use id="arrowleft" xlink:href="#arrowLeft" x="0" y="0" onmousedown="handlePan(-1,0)"/>
</g>
<svg viewBox="0 0 15 15" width="100%" height="30px" preserveAspectRatio="xMaxYMin meet">
 <g id="arrow_out" transform="scale(0.3 0.3)">
  <a xlink:href="plotter_8cpp__incl_org.svg" target="_base">
   <rect id="button" ry="5" rx="5" y="6" x="6" height="38" width="38"
        fill="#f2f5e9" fill-opacity="0.5" stroke="#606060" stroke-width="1.0"/>
   <path id="arrow"
     d="M 11.500037,31.436501 C 11.940474,20.09759 22.043105,11.32322 32.158766,21.979434 L 37.068811,17.246167 C 37.068811,17.246167 37.088388,32 37.088388,32 L 22.160133,31.978069 C 22.160133,31.978069 26.997745,27.140456 26.997745,27.140456 C 18.528582,18.264221 13.291696,25.230495 11.500037,31.436501 z"
     style="fill:#404040;"/>
  </a>
 </g>
</svg>

<style type='text/css'>
<![CDATA[
[data-mouse-over-selected='false'] { opacity: 0.7; }
[data-mouse-over-selected='true']  { opacity: 1.0; }
]]>
</style>
<script type="application/ecmascript"><![CDATA[
document.addEventListener('DOMContentLoaded', (event) => {
  highlightEdges();
  highlightAdjacentNodes();
});
]]></script>
</svg>
