<?xml version="1.0" encoding="UTF-8" standalone="no"?>
<!DOCTYPE svg PUBLIC "-//W3C//DTD SVG 1.1//EN"
 "http://www.w3.org/Graphics/SVG/1.1/DTD/svg11.dtd">
<!-- Generated by graphviz version 12.1.2 (0)
 -->
<!-- Title: plotter.h Pages: 1 -->
<svg width="525pt" height="190pt"
 viewBox="0.00 0.00 524.62 190.00" xmlns="http://www.w3.org/2000/svg" xmlns:xlink="http://www.w3.org/1999/xlink">
<g id="graph0" class="graph" transform="scale(1 1) rotate(0) translate(4 186)">
<title>plotter.h</title>
<!-- Node1 -->
<g id="Node000001" class="node">
<title>Node1</title>
<g id="a_Node000001"><a xlink:title="Class to plot the map.">
<polygon fill="#999999" stroke="#666666" points="183.5,-182 132.25,-182 132.25,-163.5 183.5,-163.5 183.5,-182"/>
<text text-anchor="middle" x="157.88" y="-168.5" font-family="Helvetica,sans-Serif" font-size="10.00">plotter.h</text>
</a>
</g>
</g>
<!-- Node2 -->
<g id="Node000002" class="node">
<title>Node2</title>
<g id="a_Node000002"><a xlink:title=" ">
<polygon fill="#e0e0e0" stroke="#999999" points="49.75,-127.5 0,-127.5 0,-109 49.75,-109 49.75,-127.5"/>
<text text-anchor="middle" x="24.88" y="-114" font-family="Helvetica,sans-Serif" font-size="10.00">iomanip</text>
</a>
</g>
</g>
<!-- Node1&#45;&gt;Node2 -->
<g id="edge1_Node000001_Node000002" class="edge">
<title>Node1&#45;&gt;Node2</title>
<g id="a_edge1_Node000001_Node000002"><a xlink:title=" ">
<path fill="none" stroke="#63b8ff" d="M135.91,-163.08C114.54,-154.65 81.82,-141.73 57.42,-132.1"/>
<polygon fill="#63b8ff" stroke="#63b8ff" points="58.86,-128.9 48.28,-128.49 56.29,-135.42 58.86,-128.9"/>
</a>
</g>
</g>
<!-- Node3 -->
<g id="Node000003" class="node">
<title>Node3</title>
<g id="a_Node000003"><a xlink:title=" ">
<polygon fill="#e0e0e0" stroke="#999999" points="96.28,-127.5 67.47,-127.5 67.47,-109 96.28,-109 96.28,-127.5"/>
<text text-anchor="middle" x="81.88" y="-114" font-family="Helvetica,sans-Serif" font-size="10.00">list</text>
</a>
</g>
</g>
<!-- Node1&#45;&gt;Node3 -->
<g id="edge2_Node000001_Node000003" class="edge">
<title>Node1&#45;&gt;Node3</title>
<g id="a_edge2_Node000001_Node000003"><a xlink:title=" ">
<path fill="none" stroke="#63b8ff" d="M145.33,-163.08C133.99,-155.25 117.07,-143.57 103.56,-134.23"/>
<polygon fill="#63b8ff" stroke="#63b8ff" points="105.91,-131.6 95.69,-128.79 101.93,-137.36 105.91,-131.6"/>
</a>
</g>
</g>
<!-- Node4 -->
<g id="Node000004" class="node">
<title>Node4</title>
<g id="a_Node000004"><a xlink:title=" ">
<polygon fill="#e0e0e0" stroke="#999999" points="153.88,-127.5 113.88,-127.5 113.88,-109 153.88,-109 153.88,-127.5"/>
<text text-anchor="middle" x="133.88" y="-114" font-family="Helvetica,sans-Serif" font-size="10.00">string</text>
</a>
</g>
</g>
<!-- Node1&#45;&gt;Node4 -->
<g id="edge3_Node000001_Node000004" class="edge">
<title>Node1&#45;&gt;Node4</title>
<g id="a_edge3_Node000001_Node000004"><a xlink:title=" ">
<path fill="none" stroke="#63b8ff" d="M153.91,-163.08C150.8,-156.28 146.36,-146.56 142.45,-138"/>
<polygon fill="#63b8ff" stroke="#63b8ff" points="145.73,-136.77 138.39,-129.13 139.37,-139.68 145.73,-136.77"/>
</a>
</g>
</g>
<!-- Node5 -->
<g id="Node000005" class="node">
<title>Node5</title>
<g id="a_Node000005"><a xlink:title=" ">
<polygon fill="#e0e0e0" stroke="#999999" points="241,-18.5 198.75,-18.5 198.75,0 241,0 241,-18.5"/>
<text text-anchor="middle" x="219.88" y="-5" font-family="Helvetica,sans-Serif" font-size="10.00">vector</text>
</a>
</g>
</g>
<!-- Node1&#45;&gt;Node5 -->
<g id="edge4_Node000001_Node000005" class="edge">
<title>Node1&#45;&gt;Node5</title>
<g id="a_edge4_Node000001_Node000005"><a xlink:title=" ">
<path fill="none" stroke="#63b8ff" d="M161.21,-163.07C170.84,-137.98 198.87,-64.96 212.4,-29.72"/>
<polygon fill="#63b8ff" stroke="#63b8ff" points="215.67,-30.98 215.98,-20.39 209.13,-28.47 215.67,-30.98"/>
</a>
</g>
</g>
<!-- Node6 -->
<g id="Node000006" class="node">
<title>Node6</title>
<g id="a_Node000006"><a xlink:href="typedefs_8h.html" target="_top" xlink:title="Contains typedefs for the library.">
<polygon fill="white" stroke="#666666" points="516.62,-73 379.12,-73 379.12,-54.5 516.62,-54.5 516.62,-73"/>
<text text-anchor="middle" x="447.88" y="-59.5" font-family="Helvetica,sans-Serif" font-size="10.00">CoverageControl/typedefs.h</text>
</a>
</g>
</g>
<!-- Node1&#45;&gt;Node6 -->
<g id="edge5_Node000001_Node000006" class="edge">
<title>Node1&#45;&gt;Node6</title>
<g id="a_edge5_Node000001_Node000006"><a xlink:title=" ">
<path fill="none" stroke="#63b8ff" d="M183.75,-168.58C221.29,-163.35 292.51,-151.08 348.88,-127.5 378.29,-115.19 408.78,-94.44 428.02,-80.2"/>
<polygon fill="#63b8ff" stroke="#63b8ff" points="429.91,-83.15 435.78,-74.33 425.69,-77.57 429.91,-83.15"/>
</a>
</g>
</g>
<!-- Node9 -->
<g id="Node000009" class="node">
<title>Node9</title>
<g id="a_Node000009"><a xlink:href="voronoi_8h.html" target="_top" xlink:title="Class for computing Voronoi cells.">
<polygon fill="white" stroke="#666666" points="340.25,-127.5 209.5,-127.5 209.5,-109 340.25,-109 340.25,-127.5"/>
<text text-anchor="middle" x="274.88" y="-114" font-family="Helvetica,sans-Serif" font-size="10.00">CoverageControl/voronoi.h</text>
</a>
</g>
</g>
<!-- Node1&#45;&gt;Node9 -->
<g id="edge9_Node000001_Node000009" class="edge">
<title>Node1&#45;&gt;Node9</title>
<g id="a_edge9_Node000001_Node000009"><a xlink:title=" ">
<path fill="none" stroke="#63b8ff" d="M177.2,-163.08C195.66,-154.8 223.75,-142.19 245.08,-132.62"/>
<polygon fill="#63b8ff" stroke="#63b8ff" points="246.45,-135.84 254.15,-128.55 243.59,-129.45 246.45,-135.84"/>
</a>
</g>
</g>
<!-- Node6&#45;&gt;Node5 -->
<g id="edge8_Node000006_Node000005" class="edge">
<title>Node6&#45;&gt;Node5</title>
<g id="a_edge8_Node000006_Node000005"><a xlink:title=" ">
<path fill="none" stroke="#63b8ff" d="M409.97,-54.02C365.97,-43.89 294.12,-27.35 252.5,-17.76"/>
<polygon fill="#63b8ff" stroke="#63b8ff" points="253.37,-14.37 242.84,-15.54 251.8,-21.19 253.37,-14.37"/>
</a>
</g>
</g>
<!-- Node7 -->
<g id="Node000007" class="node">
<title>Node7</title>
<g id="a_Node000007"><a xlink:title=" ">
<polygon fill="#e0e0e0" stroke="#999999" points="446,-18.5 373.75,-18.5 373.75,0 446,0 446,-18.5"/>
<text text-anchor="middle" x="409.88" y="-5" font-family="Helvetica,sans-Serif" font-size="10.00">Eigen/Dense</text>
</a>
</g>
</g>
<!-- Node6&#45;&gt;Node7 -->
<g id="edge6_Node000006_Node000007" class="edge">
<title>Node6&#45;&gt;Node7</title>
<g id="a_edge6_Node000006_Node000007"><a xlink:title=" ">
<path fill="none" stroke="#63b8ff" d="M441.6,-54.08C436.45,-46.97 429,-36.68 422.61,-27.85"/>
<polygon fill="#63b8ff" stroke="#63b8ff" points="425.62,-26.03 416.92,-19.98 419.95,-30.14 425.62,-26.03"/>
</a>
</g>
</g>
<!-- Node8 -->
<g id="Node000008" class="node">
<title>Node8</title>
<g id="a_Node000008"><a xlink:title=" ">
<polygon fill="#e0e0e0" stroke="#999999" points="506,-18.5 463.75,-18.5 463.75,0 506,0 506,-18.5"/>
<text text-anchor="middle" x="484.88" y="-5" font-family="Helvetica,sans-Serif" font-size="10.00">queue</text>
</a>
</g>
</g>
<!-- Node6&#45;&gt;Node8 -->
<g id="edge7_Node000006_Node000008" class="edge">
<title>Node6&#45;&gt;Node8</title>
<g id="a_edge7_Node000006_Node000008"><a xlink:title=" ">
<path fill="none" stroke="#63b8ff" d="M453.98,-54.08C458.94,-47.05 466.09,-36.9 472.27,-28.14"/>
<polygon fill="#63b8ff" stroke="#63b8ff" points="475.11,-30.19 478.01,-20 469.39,-26.15 475.11,-30.19"/>
</a>
</g>
</g>
<!-- Node9&#45;&gt;Node5 -->
<g id="edge12_Node000009_Node000005" class="edge">
<title>Node9&#45;&gt;Node5</title>
<g id="a_edge12_Node000009_Node000005"><a xlink:title=" ">
<path fill="none" stroke="#63b8ff" d="M266.01,-108.51C257.91,-100.09 246.13,-86.64 238.88,-73 231.66,-59.43 226.77,-42.72 223.76,-29.96"/>
<polygon fill="#63b8ff" stroke="#63b8ff" points="227.2,-29.3 221.68,-20.25 220.36,-30.77 227.2,-29.3"/>
</a>
</g>
</g>
<!-- Node9&#45;&gt;Node6 -->
<g id="edge13_Node000009_Node000006" class="edge">
<title>Node9&#45;&gt;Node6</title>
<g id="a_edge13_Node000009_Node000006"><a xlink:title=" ">
<path fill="none" stroke="#63b8ff" d="M303.44,-108.58C332.12,-99.88 376.51,-86.41 408.51,-76.7"/>
<polygon fill="#63b8ff" stroke="#63b8ff" points="409.26,-80.12 417.82,-73.87 407.23,-73.43 409.26,-80.12"/>
</a>
</g>
</g>
<!-- Node10 -->
<g id="Node000010" class="node">
<title>Node10</title>
<g id="a_Node000010"><a xlink:title=" ">
<polygon fill="#e0e0e0" stroke="#999999" points="361.38,-73 318.38,-73 318.38,-54.5 361.38,-54.5 361.38,-73"/>
<text text-anchor="middle" x="339.88" y="-59.5" font-family="Helvetica,sans-Serif" font-size="10.00">cmath</text>
</a>
</g>
</g>
<!-- Node9&#45;&gt;Node10 -->
<g id="edge10_Node000009_Node000010" class="edge">
<title>Node9&#45;&gt;Node10</title>
<g id="a_edge10_Node000009_Node000010"><a xlink:title=" ">
<path fill="none" stroke="#63b8ff" d="M285.61,-108.58C295.07,-100.94 309.1,-89.61 320.52,-80.38"/>
<polygon fill="#63b8ff" stroke="#63b8ff" points="322.58,-83.22 328.16,-74.21 318.19,-77.77 322.58,-83.22"/>
</a>
</g>
</g>
<!-- Node11 -->
<g id="Node000011" class="node">
<title>Node11</title>
<g id="a_Node000011"><a xlink:title=" ">
<polygon fill="#e0e0e0" stroke="#999999" points="299.88,-73 247.88,-73 247.88,-54.5 299.88,-54.5 299.88,-73"/>
<text text-anchor="middle" x="273.88" y="-59.5" font-family="Helvetica,sans-Serif" font-size="10.00">memory</text>
</a>
</g>
</g>
<!-- Node9&#45;&gt;Node11 -->
<g id="edge11_Node000009_Node000011" class="edge">
<title>Node9&#45;&gt;Node11</title>
<g id="a_edge11_Node000009_Node000011"><a xlink:title=" ">
<path fill="none" stroke="#63b8ff" d="M274.71,-108.58C274.59,-102.08 274.41,-92.92 274.25,-84.66"/>
<polygon fill="#63b8ff" stroke="#63b8ff" points="277.76,-84.7 274.07,-74.77 270.76,-84.84 277.76,-84.7"/>
</a>
</g>
</g>
</g>
</svg>
