<?xml version="1.0" encoding="UTF-8" standalone="no"?>
<!DOCTYPE svg PUBLIC "-//W3C//DTD SVG 1.1//EN"
 "http://www.w3.org/Graphics/SVG/1.1/DTD/svg11.dtd">
<!-- Generated by graphviz version 12.1.2 (0)
 -->
<!-- Title: plotter.h Pages: 1 -->
<svg width="1001pt" height="201pt"
 viewBox="0.00 0.00 1000.50 200.50" xmlns="http://www.w3.org/2000/svg" xmlns:xlink="http://www.w3.org/1999/xlink">
<g id="graph0" class="graph" transform="scale(1 1) rotate(0) translate(4 196.5)">
<title>plotter.h</title>
<!-- Node1 -->
<g id="Node000001" class="node">
<title>Node1</title>
<g id="a_Node000001"><a xlink:title="Class to plot the map.">
<polygon fill="#999999" stroke="#666666" points="415.5,-192.5 364.25,-192.5 364.25,-174 415.5,-174 415.5,-192.5"/>
<text text-anchor="middle" x="389.88" y="-179" font-family="Helvetica,sans-Serif" font-size="10.00">plotter.h</text>
</a>
</g>
</g>
<!-- Node2 -->
<g id="Node000002" class="node">
<title>Node2</title>
<g id="a_Node000002"><a xlink:href="coverage__system_8cpp.html" target="_top" xlink:title="Contains the implementation of the CoverageSystem class.">
<polygon fill="white" stroke="#666666" points="109.75,-78.25 0,-78.25 0,-59.75 109.75,-59.75 109.75,-78.25"/>
<text text-anchor="middle" x="54.88" y="-64.75" font-family="Helvetica,sans-Serif" font-size="10.00">coverage_system.cpp</text>
</a>
</g>
</g>
<!-- Node1&#45;&gt;Node2 -->
<g id="edge1_Node000001_Node000002" class="edge">
<title>Node1&#45;&gt;Node2</title>
<g id="a_edge1_Node000001_Node000002"><a xlink:title=" ">
<path fill="none" stroke="#63b8ff" d="M353.2,-169.96C284.87,-147.06 139.67,-98.41 80.64,-78.63"/>
<polygon fill="#63b8ff" stroke="#63b8ff" points="351.84,-173.2 362.43,-173.05 354.06,-166.56 351.84,-173.2"/>
</a>
</g>
</g>
<!-- Node3 -->
<g id="Node000003" class="node">
<title>Node3</title>
<g id="a_Node000003"><a xlink:href="coverage__system_8h.html" target="_top" xlink:title="The file contains the CoverageSystem class, which is the main class for the coverage control library.">
<polygon fill="white" stroke="#666666" points="439.5,-138 340.25,-138 340.25,-119.5 439.5,-119.5 439.5,-138"/>
<text text-anchor="middle" x="389.88" y="-124.5" font-family="Helvetica,sans-Serif" font-size="10.00">coverage_system.h</text>
</a>
</g>
</g>
<!-- Node1&#45;&gt;Node3 -->
<g id="edge2_Node000001_Node000003" class="edge">
<title>Node1&#45;&gt;Node3</title>
<g id="a_edge2_Node000001_Node000003"><a xlink:title=" ">
<path fill="none" stroke="#63b8ff" d="M389.88,-162.14C389.88,-153.86 389.88,-144.71 389.88,-138.26"/>
<polygon fill="#63b8ff" stroke="#63b8ff" points="386.38,-162.07 389.88,-172.07 393.38,-162.07 386.38,-162.07"/>
</a>
</g>
</g>
<!-- Node12 -->
<g id="Node000012" class="node">
<title>Node12</title>
<g id="a_Node000012"><a xlink:href="plotter_8cpp.html" target="_top" xlink:title="Helper function to plot maps.">
<polygon fill="white" stroke="#666666" points="519.75,-138 458,-138 458,-119.5 519.75,-119.5 519.75,-138"/>
<text text-anchor="middle" x="488.88" y="-124.5" font-family="Helvetica,sans-Serif" font-size="10.00">plotter.cpp</text>
</a>
</g>
</g>
<!-- Node1&#45;&gt;Node12 -->
<g id="edge13_Node000001_Node000012" class="edge">
<title>Node1&#45;&gt;Node12</title>
<g id="a_edge13_Node000001_Node000012"><a xlink:title=" ">
<path fill="none" stroke="#63b8ff" d="M416.31,-168.23C434.19,-158.75 457.23,-146.53 472.5,-138.43"/>
<polygon fill="#63b8ff" stroke="#63b8ff" points="414.75,-165.09 407.56,-172.87 418.03,-171.28 414.75,-165.09"/>
</a>
</g>
</g>
<!-- Node3&#45;&gt;Node2 -->
<g id="edge7_Node000003_Node000002" class="edge">
<title>Node3&#45;&gt;Node2</title>
<g id="a_edge7_Node000003_Node000002"><a xlink:title=" ">
<path fill="none" stroke="#63b8ff" d="M328.5,-118.55C273.48,-110.11 190.62,-96.92 118.88,-83.5 111.06,-82.04 102.74,-80.37 94.76,-78.71"/>
<polygon fill="#63b8ff" stroke="#63b8ff" points="327.9,-122 338.31,-120.05 328.95,-115.08 327.9,-122"/>
</a>
</g>
</g>
<!-- Node4 -->
<g id="Node000004" class="node">
<title>Node4</title>
<g id="a_Node000004"><a xlink:href="centralized__cvt_8h.html" target="_top" xlink:title="Contains the class CentralizedCVT.">
<polygon fill="white" stroke="#666666" points="216.25,-78.25 127.5,-78.25 127.5,-59.75 216.25,-59.75 216.25,-78.25"/>
<text text-anchor="middle" x="171.88" y="-64.75" font-family="Helvetica,sans-Serif" font-size="10.00">centralized_cvt.h</text>
</a>
</g>
</g>
<!-- Node3&#45;&gt;Node4 -->
<g id="edge3_Node000003_Node000004" class="edge">
<title>Node3&#45;&gt;Node4</title>
<g id="a_edge3_Node000003_Node000004"><a xlink:title=" ">
<path fill="none" stroke="#63b8ff" d="M346.3,-116.21C304.55,-105.15 242.48,-88.7 204.73,-78.7"/>
<polygon fill="#63b8ff" stroke="#63b8ff" points="345.21,-119.54 355.78,-118.72 347,-112.77 345.21,-119.54"/>
</a>
</g>
</g>
<!-- Node5 -->
<g id="Node000005" class="node">
<title>Node5</title>
<g id="a_Node000005"><a xlink:href="clairvoyant__cvt_8h.html" target="_top" xlink:title="Clairvoyant CVT algorithm.">
<polygon fill="white" stroke="#666666" points="323.25,-78.25 234.5,-78.25 234.5,-59.75 323.25,-59.75 323.25,-78.25"/>
<text text-anchor="middle" x="278.88" y="-64.75" font-family="Helvetica,sans-Serif" font-size="10.00">clairvoyant_cvt.h</text>
</a>
</g>
</g>
<!-- Node3&#45;&gt;Node5 -->
<g id="edge4_Node000003_Node000005" class="edge">
<title>Node3&#45;&gt;Node5</title>
<g id="a_edge4_Node000003_Node000005"><a xlink:title=" ">
<path fill="none" stroke="#63b8ff" d="M363.31,-113.93C342.31,-103 313.63,-88.08 295.68,-78.75"/>
<polygon fill="#63b8ff" stroke="#63b8ff" points="361.67,-117.02 372.15,-118.53 364.9,-110.81 361.67,-117.02"/>
</a>
</g>
</g>
<!-- Node6 -->
<g id="Node000006" class="node">
<title>Node6</title>
<g id="a_Node000006"><a xlink:href="coverage__algorithm_8cpp.html" target="_top" xlink:title="Program to test the CVT&#45;based (Lloyd&#39;s) coverage control algorithms.">
<polygon fill="white" stroke="#666666" points="374.25,-18.5 255.5,-18.5 255.5,0 374.25,0 374.25,-18.5"/>
<text text-anchor="middle" x="314.88" y="-5" font-family="Helvetica,sans-Serif" font-size="10.00">coverage_algorithm.cpp</text>
</a>
</g>
</g>
<!-- Node3&#45;&gt;Node6 -->
<g id="edge6_Node000003_Node000006" class="edge">
<title>Node3&#45;&gt;Node6</title>
<g id="a_edge6_Node000003_Node000006"><a xlink:title=" ">
<path fill="none" stroke="#63b8ff" d="M378.35,-109.69C361.97,-84.04 332.62,-38.05 320.42,-18.94"/>
<polygon fill="#63b8ff" stroke="#63b8ff" points="375.34,-111.48 383.67,-118.02 381.24,-107.71 375.34,-111.48"/>
</a>
</g>
</g>
<!-- Node7 -->
<g id="Node000007" class="node">
<title>Node7</title>
<g id="a_Node000007"><a xlink:href="decentralized__cvt_8h.html" target="_top" xlink:title="Contains the DecentralizedCVT class.">
<polygon fill="white" stroke="#666666" points="478.5,-78.25 379.25,-78.25 379.25,-59.75 478.5,-59.75 478.5,-78.25"/>
<text text-anchor="middle" x="428.88" y="-64.75" font-family="Helvetica,sans-Serif" font-size="10.00">decentralized_cvt.h</text>
</a>
</g>
</g>
<!-- Node3&#45;&gt;Node7 -->
<g id="edge8_Node000003_Node000007" class="edge">
<title>Node3&#45;&gt;Node7</title>
<g id="a_edge8_Node000003_Node000007"><a xlink:title=" ">
<path fill="none" stroke="#63b8ff" d="M401.99,-109.81C409.02,-99.39 417.56,-86.76 423.1,-78.56"/>
<polygon fill="#63b8ff" stroke="#63b8ff" points="399.17,-107.73 396.48,-117.97 404.97,-111.65 399.17,-107.73"/>
</a>
</g>
</g>
<!-- Node8 -->
<g id="Node000008" class="node">
<title>Node8</title>
<g id="a_Node000008"><a xlink:href="near__optimal__cvt_8h.html" target="_top" xlink:title="NearOptimalCVT class Global offline oracle: has complete information about the environment....">
<polygon fill="white" stroke="#666666" points="594.75,-78.25 497,-78.25 497,-59.75 594.75,-59.75 594.75,-78.25"/>
<text text-anchor="middle" x="545.88" y="-64.75" font-family="Helvetica,sans-Serif" font-size="10.00">near_optimal_cvt.h</text>
</a>
</g>
</g>
<!-- Node3&#45;&gt;Node8 -->
<g id="edge9_Node000003_Node000008" class="edge">
<title>Node3&#45;&gt;Node8</title>
<g id="a_edge9_Node000003_Node000008"><a xlink:title=" ">
<path fill="none" stroke="#63b8ff" d="M423.97,-115.13C453.75,-104.1 496.22,-88.38 522.36,-78.7"/>
<polygon fill="#63b8ff" stroke="#63b8ff" points="422.81,-111.82 414.65,-118.58 425.24,-118.39 422.81,-111.82"/>
</a>
</g>
</g>
<!-- Node9 -->
<g id="Node000009" class="node">
<title>Node9</title>
<g id="a_Node000009"><a xlink:href="oracle__bang__explore__exploit_8h.html" target="_top" xlink:title="First trial of oracle with exploration and exploitation. The oracle uses complete information about t...">
<polygon fill="white" stroke="#666666" points="718.5,-83.5 613.25,-83.5 613.25,-54.5 718.5,-54.5 718.5,-83.5"/>
<text text-anchor="start" x="621.25" y="-70" font-family="Helvetica,sans-Serif" font-size="10.00">oracle_bang_explore</text>
<text text-anchor="middle" x="665.88" y="-59.5" font-family="Helvetica,sans-Serif" font-size="10.00">_exploit.h</text>
</a>
</g>
</g>
<!-- Node3&#45;&gt;Node9 -->
<g id="edge10_Node000003_Node000009" class="edge">
<title>Node3&#45;&gt;Node9</title>
<g id="a_edge10_Node000003_Node000009"><a xlink:title=" ">
<path fill="none" stroke="#63b8ff" d="M443.67,-116.79C486.96,-107.93 549.37,-95.07 603.88,-83.5 606.78,-82.88 609.77,-82.24 612.78,-81.6"/>
<polygon fill="#63b8ff" stroke="#63b8ff" points="443.11,-113.33 434.02,-118.76 444.52,-120.19 443.11,-113.33"/>
</a>
</g>
</g>
<!-- Node10 -->
<g id="Node000010" class="node">
<title>Node10</title>
<g id="a_Node000010"><a xlink:href="oracle__explore__exploit_8h.html" target="_top" xlink:title="Old trial of exploration and exploitation Uses system map for exploration as well.">
<polygon fill="white" stroke="#666666" points="857,-78.25 736.75,-78.25 736.75,-59.75 857,-59.75 857,-78.25"/>
<text text-anchor="middle" x="796.88" y="-64.75" font-family="Helvetica,sans-Serif" font-size="10.00">oracle_explore_exploit.h</text>
</a>
</g>
</g>
<!-- Node3&#45;&gt;Node10 -->
<g id="edge11_Node000003_Node000010" class="edge">
<title>Node3&#45;&gt;Node10</title>
<g id="a_edge11_Node000003_Node000010"><a xlink:title=" ">
<path fill="none" stroke="#63b8ff" d="M450.83,-119.26C574.66,-102.86 607.95,-102.95 727.88,-83.5 736.55,-82.09 745.8,-80.41 754.62,-78.72"/>
<polygon fill="#63b8ff" stroke="#63b8ff" points="450.71,-115.74 441.26,-120.54 451.64,-122.68 450.71,-115.74"/>
</a>
</g>
</g>
<!-- Node11 -->
<g id="Node000011" class="node">
<title>Node11</title>
<g id="a_Node000011"><a xlink:href="simul__explore__exploit_8h.html" target="_top" xlink:title="Simultaneous exploration and exploitation algorithm Uses frontier&#45;based exploration with bias towards...">
<polygon fill="white" stroke="#666666" points="992.5,-78.25 875.25,-78.25 875.25,-59.75 992.5,-59.75 992.5,-78.25"/>
<text text-anchor="middle" x="933.88" y="-64.75" font-family="Helvetica,sans-Serif" font-size="10.00">simul_explore_exploit.h</text>
</a>
</g>
</g>
<!-- Node3&#45;&gt;Node11 -->
<g id="edge12_Node000003_Node000011" class="edge">
<title>Node3&#45;&gt;Node11</title>
<g id="a_edge12_Node000003_Node000011"><a xlink:title=" ">
<path fill="none" stroke="#63b8ff" d="M450.95,-119.34C635.65,-99.03 685.3,-109.14 865.88,-83.5 874.93,-82.21 884.6,-80.5 893.73,-78.73"/>
<polygon fill="#63b8ff" stroke="#63b8ff" points="450.8,-115.83 441.25,-120.42 451.58,-122.79 450.8,-115.83"/>
</a>
</g>
</g>
<!-- Node5&#45;&gt;Node6 -->
<g id="edge5_Node000005_Node000006" class="edge">
<title>Node5&#45;&gt;Node6</title>
<g id="a_edge5_Node000005_Node000006"><a xlink:title=" ">
<path fill="none" stroke="#63b8ff" d="M290.26,-49.73C296.72,-39.38 304.48,-26.92 309.54,-18.81"/>
<polygon fill="#63b8ff" stroke="#63b8ff" points="287.31,-47.86 284.99,-58.19 293.25,-51.56 287.31,-47.86"/>
</a>
</g>
</g>
</g>
</svg>
