<?xml version="1.0" encoding="UTF-8" standalone="no"?>
<!DOCTYPE svg PUBLIC "-//W3C//DTD SVG 1.1//EN"
 "http://www.w3.org/Graphics/SVG/1.1/DTD/svg11.dtd">
<!-- Generated by graphviz version 12.1.2 (0)
 -->
<!-- Title: polygon_utils.cpp Pages: 1 -->
<svg width="2155pt" height="232pt"
 viewBox="0.00 0.00 2155.12 232.00" xmlns="http://www.w3.org/2000/svg" xmlns:xlink="http://www.w3.org/1999/xlink">
<g id="graph0" class="graph" transform="scale(1 1) rotate(0) translate(4 228)">
<title>polygon_utils.cpp</title>
<!-- Node1 -->
<g id="Node000001" class="node">
<title>Node1</title>
<g id="a_Node000001"><a xlink:title="Helper functions for polygon operations using CGAL.">
<polygon fill="#999999" stroke="#666666" points="373.62,-224 282.62,-224 282.62,-205.5 373.62,-205.5 373.62,-224"/>
<text text-anchor="middle" x="328.12" y="-210.5" font-family="Helvetica,sans-Serif" font-size="10.00">polygon_utils.cpp</text>
</a>
</g>
</g>
<!-- Node2 -->
<g id="Node000002" class="node">
<title>Node2</title>
<g id="a_Node000002"><a xlink:title=" ">
<polygon fill="#e0e0e0" stroke="#999999" points="77.53,-99.25 48.73,-99.25 48.73,-80.75 77.53,-80.75 77.53,-99.25"/>
<text text-anchor="middle" x="63.12" y="-85.75" font-family="Helvetica,sans-Serif" font-size="10.00">list</text>
</a>
</g>
</g>
<!-- Node1&#45;&gt;Node2 -->
<g id="edge1_Node000001_Node000002" class="edge">
<title>Node1&#45;&gt;Node2</title>
<g id="a_edge1_Node000001_Node000002"><a xlink:title=" ">
<path fill="none" stroke="#63b8ff" d="M323.46,-205.12C314.53,-189.52 293.49,-156.74 266.12,-140.5 197.84,-99.97 166.35,-129.94 91.12,-104.5 90.16,-104.17 89.19,-103.82 88.22,-103.45"/>
<polygon fill="#63b8ff" stroke="#63b8ff" points="89.91,-100.37 79.34,-99.59 87.11,-106.79 89.91,-100.37"/>
</a>
</g>
</g>
<!-- Node3 -->
<g id="Node000003" class="node">
<title>Node3</title>
<g id="a_Node000003"><a xlink:title=" ">
<polygon fill="#e0e0e0" stroke="#999999" points="42.25,-29 0,-29 0,-10.5 42.25,-10.5 42.25,-29"/>
<text text-anchor="middle" x="21.12" y="-15.5" font-family="Helvetica,sans-Serif" font-size="10.00">vector</text>
</a>
</g>
</g>
<!-- Node1&#45;&gt;Node3 -->
<g id="edge2_Node000001_Node000003" class="edge">
<title>Node1&#45;&gt;Node3</title>
<g id="a_edge2_Node000001_Node000003"><a xlink:title=" ">
<path fill="none" stroke="#63b8ff" d="M282.34,-214.01C210.52,-211.54 74.13,-194.58 21.12,-104.5 9.68,-85.04 12.11,-58.39 15.81,-40.41"/>
<polygon fill="#63b8ff" stroke="#63b8ff" points="19.18,-41.34 18.12,-30.8 12.38,-39.7 19.18,-41.34"/>
</a>
</g>
</g>
<!-- Node4 -->
<g id="Node000004" class="node">
<title>Node4</title>
<g id="a_Node000004"><a xlink:href="config_8h.html" target="_top" xlink:title="Contains the configuration for the CGAL library.">
<polygon fill="white" stroke="#666666" points="1040,-104.5 930.25,-104.5 930.25,-75.5 1040,-75.5 1040,-104.5"/>
<text text-anchor="start" x="938.25" y="-91" font-family="Helvetica,sans-Serif" font-size="10.00">CoverageControl/cgal</text>
<text text-anchor="middle" x="985.12" y="-80.5" font-family="Helvetica,sans-Serif" font-size="10.00">/config.h</text>
</a>
</g>
</g>
<!-- Node1&#45;&gt;Node4 -->
<g id="edge3_Node000001_Node000004" class="edge">
<title>Node1&#45;&gt;Node4</title>
<g id="a_edge3_Node000001_Node000004"><a xlink:title=" ">
<path fill="none" stroke="#63b8ff" d="M374.06,-205.17C488.23,-183.84 785.2,-128.35 918.57,-103.43"/>
<polygon fill="#63b8ff" stroke="#63b8ff" points="919.13,-106.89 928.32,-101.61 917.85,-100.01 919.13,-106.89"/>
</a>
</g>
</g>
<!-- Node19 -->
<g id="Node000019" class="node">
<title>Node19</title>
<g id="a_Node000019"><a xlink:href="polygon__utils_8h.html" target="_top" xlink:title="Provides utilities for polygon manipulation using CGAL.">
<polygon fill="white" stroke="#666666" points="257,-169.5 147.25,-169.5 147.25,-140.5 257,-140.5 257,-169.5"/>
<text text-anchor="start" x="155.25" y="-156" font-family="Helvetica,sans-Serif" font-size="10.00">CoverageControl/cgal</text>
<text text-anchor="middle" x="202.12" y="-145.5" font-family="Helvetica,sans-Serif" font-size="10.00">/polygon_utils.h</text>
</a>
</g>
</g>
<!-- Node1&#45;&gt;Node19 -->
<g id="edge18_Node000001_Node000019" class="edge">
<title>Node1&#45;&gt;Node19</title>
<g id="a_edge18_Node000001_Node000019"><a xlink:title=" ">
<path fill="none" stroke="#63b8ff" d="M309.26,-205.1C291.72,-197.06 265,-184.82 242.64,-174.57"/>
<polygon fill="#63b8ff" stroke="#63b8ff" points="244.32,-171.49 233.77,-170.5 241.4,-177.85 244.32,-171.49"/>
</a>
</g>
</g>
<!-- Node23 -->
<g id="Node000023" class="node">
<title>Node23</title>
<g id="a_Node000023"><a xlink:href="utilities_8h.html" target="_top" xlink:title="Contains utility functions for CGAL.">
<polygon fill="white" stroke="#666666" points="426,-169.5 316.25,-169.5 316.25,-140.5 426,-140.5 426,-169.5"/>
<text text-anchor="start" x="324.25" y="-156" font-family="Helvetica,sans-Serif" font-size="10.00">CoverageControl/cgal</text>
<text text-anchor="middle" x="371.12" y="-145.5" font-family="Helvetica,sans-Serif" font-size="10.00">/utilities.h</text>
</a>
</g>
</g>
<!-- Node1&#45;&gt;Node23 -->
<g id="edge24_Node000001_Node000023" class="edge">
<title>Node1&#45;&gt;Node23</title>
<g id="a_edge24_Node000001_Node000023"><a xlink:title=" ">
<path fill="none" stroke="#63b8ff" d="M334.47,-205.23C339.6,-198.34 347.08,-188.29 353.94,-179.08"/>
<polygon fill="#63b8ff" stroke="#63b8ff" points="356.68,-181.26 359.85,-171.15 351.07,-177.08 356.68,-181.26"/>
</a>
</g>
</g>
<!-- Node27 -->
<g id="Node000027" class="node">
<title>Node27</title>
<g id="a_Node000027"><a xlink:href="constants_8h.html" target="_top" xlink:title="Constants for the CoverageControl library.">
<polygon fill="white" stroke="#666666" points="1179.5,-164.25 1036.75,-164.25 1036.75,-145.75 1179.5,-145.75 1179.5,-164.25"/>
<text text-anchor="middle" x="1108.12" y="-150.75" font-family="Helvetica,sans-Serif" font-size="10.00">CoverageControl/constants.h</text>
</a>
</g>
</g>
<!-- Node1&#45;&gt;Node27 -->
<g id="edge32_Node000001_Node000027" class="edge">
<title>Node1&#45;&gt;Node27</title>
<g id="a_edge32_Node000001_Node000027"><a xlink:title=" ">
<path fill="none" stroke="#63b8ff" d="M374.01,-210.35C501.41,-200.92 860.9,-174.3 1024.81,-162.17"/>
<polygon fill="#63b8ff" stroke="#63b8ff" points="1025.04,-165.66 1034.76,-161.43 1024.53,-158.68 1025.04,-165.66"/>
</a>
</g>
</g>
<!-- Node5 -->
<g id="Node000005" class="node">
<title>Node5</title>
<g id="a_Node000005"><a xlink:title=" ">
<polygon fill="#e0e0e0" stroke="#999999" points="1051.25,-29 919,-29 919,-10.5 1051.25,-10.5 1051.25,-29"/>
<text text-anchor="middle" x="985.12" y="-15.5" font-family="Helvetica,sans-Serif" font-size="10.00">CGAL/Arr_linear_traits_2.h</text>
</a>
</g>
</g>
<!-- Node4&#45;&gt;Node5 -->
<g id="edge4_Node000004_Node000005" class="edge">
<title>Node4&#45;&gt;Node5</title>
<g id="a_edge4_Node000004_Node000005"><a xlink:title=" ">
<path fill="none" stroke="#63b8ff" d="M985.12,-75.19C985.12,-65.23 985.12,-51.63 985.12,-40.52"/>
<polygon fill="#63b8ff" stroke="#63b8ff" points="988.63,-40.87 985.13,-30.87 981.63,-40.87 988.63,-40.87"/>
</a>
</g>
</g>
<!-- Node6 -->
<g id="Node000006" class="node">
<title>Node6</title>
<g id="a_Node000006"><a xlink:title=" ">
<polygon fill="#e0e0e0" stroke="#999999" points="1188.88,-29 1069.38,-29 1069.38,-10.5 1188.88,-10.5 1188.88,-29"/>
<text text-anchor="middle" x="1129.12" y="-15.5" font-family="Helvetica,sans-Serif" font-size="10.00">CGAL/Arrangement_2.h</text>
</a>
</g>
</g>
<!-- Node4&#45;&gt;Node6 -->
<g id="edge5_Node000004_Node000006" class="edge">
<title>Node4&#45;&gt;Node6</title>
<g id="a_edge5_Node000004_Node000006"><a xlink:title=" ">
<path fill="none" stroke="#63b8ff" d="M1014.61,-75.02C1039.84,-63.07 1075.92,-45.97 1100.81,-34.17"/>
<polygon fill="#63b8ff" stroke="#63b8ff" points="1102.15,-37.41 1109.68,-29.96 1099.15,-31.08 1102.15,-37.41"/>
</a>
</g>
</g>
<!-- Node7 -->
<g id="Node000007" class="node">
<title>Node7</title>
<g id="a_Node000007"><a xlink:title=" ">
<polygon fill="#e0e0e0" stroke="#999999" points="1369.62,-29 1206.62,-29 1206.62,-10.5 1369.62,-10.5 1369.62,-29"/>
<text text-anchor="middle" x="1288.12" y="-15.5" font-family="Helvetica,sans-Serif" font-size="10.00">CGAL/Delaunay_triangulation_2.h</text>
</a>
</g>
</g>
<!-- Node4&#45;&gt;Node7 -->
<g id="edge6_Node000004_Node000007" class="edge">
<title>Node4&#45;&gt;Node7</title>
<g id="a_edge6_Node000004_Node000007"><a xlink:title=" ">
<path fill="none" stroke="#63b8ff" d="M1040.35,-76.56C1096.92,-63.82 1184.08,-44.19 1238.51,-31.92"/>
<polygon fill="#63b8ff" stroke="#63b8ff" points="1239.15,-35.37 1248.14,-29.76 1237.61,-28.54 1239.15,-35.37"/>
</a>
</g>
</g>
<!-- Node8 -->
<g id="Node000008" class="node">
<title>Node8</title>
<g id="a_Node000008"><a xlink:title=" ">
<polygon fill="#e0e0e0" stroke="#999999" points="1508.25,-39.5 1388,-39.5 1388,0 1508.25,0 1508.25,-39.5"/>
<text text-anchor="start" x="1396" y="-26" font-family="Helvetica,sans-Serif" font-size="10.00">CGAL/Exact_predicates</text>
<text text-anchor="start" x="1396" y="-15.5" font-family="Helvetica,sans-Serif" font-size="10.00">_exact_constructions</text>
<text text-anchor="middle" x="1448.12" y="-5" font-family="Helvetica,sans-Serif" font-size="10.00">_kernel.h</text>
</a>
</g>
</g>
<!-- Node4&#45;&gt;Node8 -->
<g id="edge7_Node000004_Node000008" class="edge">
<title>Node4&#45;&gt;Node8</title>
<g id="a_edge7_Node000004_Node000008"><a xlink:title=" ">
<path fill="none" stroke="#63b8ff" d="M1040.22,-77.02C1043.23,-76.48 1046.21,-75.97 1049.12,-75.5 1191.26,-52.81 1232.18,-66.23 1376.63,-39.81"/>
<polygon fill="#63b8ff" stroke="#63b8ff" points="1376.99,-43.31 1386.18,-38.03 1375.71,-36.42 1376.99,-43.31"/>
</a>
</g>
</g>
<!-- Node9 -->
<g id="Node000009" class="node">
<title>Node9</title>
<g id="a_Node000009"><a xlink:title=" ">
<polygon fill="#e0e0e0" stroke="#999999" points="1654,-29 1526.25,-29 1526.25,-10.5 1654,-10.5 1654,-29"/>
<text text-anchor="middle" x="1590.12" y="-15.5" font-family="Helvetica,sans-Serif" font-size="10.00">CGAL/Partition_traits_2.h</text>
</a>
</g>
</g>
<!-- Node4&#45;&gt;Node9 -->
<g id="edge8_Node000004_Node000009" class="edge">
<title>Node4&#45;&gt;Node9</title>
<g id="a_edge8_Node000004_Node000009"><a xlink:title=" ">
<path fill="none" stroke="#63b8ff" d="M1040.2,-76.9C1043.21,-76.39 1046.2,-75.92 1049.12,-75.5 1255.63,-45.91 1311.31,-73.58 1517.12,-39.5 1527.93,-37.71 1539.48,-35.09 1550.12,-32.36"/>
<polygon fill="#63b8ff" stroke="#63b8ff" points="1551.02,-35.75 1559.78,-29.8 1549.22,-28.98 1551.02,-35.75"/>
</a>
</g>
</g>
<!-- Node10 -->
<g id="Node000010" class="node">
<title>Node10</title>
<g id="a_Node000010"><a xlink:title=" ">
<polygon fill="#e0e0e0" stroke="#999999" points="1822.25,-29 1672,-29 1672,-10.5 1822.25,-10.5 1822.25,-29"/>
<text text-anchor="middle" x="1747.12" y="-15.5" font-family="Helvetica,sans-Serif" font-size="10.00">CGAL/Polygon_with_holes_2.h</text>
</a>
</g>
</g>
<!-- Node4&#45;&gt;Node10 -->
<g id="edge9_Node000004_Node000010" class="edge">
<title>Node4&#45;&gt;Node10</title>
<g id="a_edge9_Node000004_Node000010"><a xlink:title=" ">
<path fill="none" stroke="#63b8ff" d="M1040.19,-76.84C1043.21,-76.34 1046.2,-75.89 1049.12,-75.5 1320.06,-39.19 1392.41,-77.4 1663.12,-39.5 1676.17,-37.67 1690.2,-34.88 1702.98,-32"/>
<polygon fill="#63b8ff" stroke="#63b8ff" points="1703.41,-35.5 1712.36,-29.82 1701.83,-28.68 1703.41,-35.5"/>
</a>
</g>
</g>
<!-- Node11 -->
<g id="Node000011" class="node">
<title>Node11</title>
<g id="a_Node000011"><a xlink:title=" ">
<polygon fill="#e0e0e0" stroke="#999999" points="1929.88,-29 1840.38,-29 1840.38,-10.5 1929.88,-10.5 1929.88,-29"/>
<text text-anchor="middle" x="1885.12" y="-15.5" font-family="Helvetica,sans-Serif" font-size="10.00">CGAL/Random.h</text>
</a>
</g>
</g>
<!-- Node4&#45;&gt;Node11 -->
<g id="edge10_Node000004_Node000011" class="edge">
<title>Node4&#45;&gt;Node11</title>
<g id="a_edge10_Node000004_Node000011"><a xlink:title=" ">
<path fill="none" stroke="#63b8ff" d="M1040.19,-76.79C1043.2,-76.31 1046.2,-75.87 1049.12,-75.5 1394.25,-31.45 1489.47,-105.24 1831.12,-39.5 1838.63,-38.06 1846.51,-35.78 1853.86,-33.31"/>
<polygon fill="#63b8ff" stroke="#63b8ff" points="1854.83,-36.68 1863.06,-30 1852.46,-30.09 1854.83,-36.68"/>
</a>
</g>
</g>
<!-- Node12 -->
<g id="Node000012" class="node">
<title>Node12</title>
<g id="a_Node000012"><a xlink:title=" ">
<polygon fill="#e0e0e0" stroke="#999999" points="2040.75,-29 1947.5,-29 1947.5,-10.5 2040.75,-10.5 2040.75,-29"/>
<text text-anchor="middle" x="1994.12" y="-15.5" font-family="Helvetica,sans-Serif" font-size="10.00">CGAL/algorithm.h</text>
</a>
</g>
</g>
<!-- Node4&#45;&gt;Node12 -->
<g id="edge11_Node000004_Node000012" class="edge">
<title>Node4&#45;&gt;Node12</title>
<g id="a_edge11_Node000004_Node000012"><a xlink:title=" ">
<path fill="none" stroke="#63b8ff" d="M1040.18,-76.77C1043.2,-76.3 1046.2,-75.87 1049.12,-75.5 1441.96,-26.47 1549.96,-112.12 1939.12,-39.5 1946.92,-38.05 1955.11,-35.72 1962.73,-33.19"/>
<polygon fill="#63b8ff" stroke="#63b8ff" points="1963.67,-36.57 1971.92,-29.92 1961.33,-29.97 1963.67,-36.57"/>
</a>
</g>
</g>
<!-- Node13 -->
<g id="Node000013" class="node">
<title>Node13</title>
<g id="a_Node000013"><a xlink:title=" ">
<polygon fill="#e0e0e0" stroke="#999999" points="2147.12,-29 2059.12,-29 2059.12,-10.5 2147.12,-10.5 2147.12,-29"/>
<text text-anchor="middle" x="2103.12" y="-15.5" font-family="Helvetica,sans-Serif" font-size="10.00">CGAL/centroid.h</text>
</a>
</g>
</g>
<!-- Node4&#45;&gt;Node13 -->
<g id="edge12_Node000004_Node000013" class="edge">
<title>Node4&#45;&gt;Node13</title>
<g id="a_edge12_Node000004_Node000013"><a xlink:title=" ">
<path fill="none" stroke="#63b8ff" d="M1040.18,-76.76C1043.2,-76.28 1046.19,-75.86 1049.12,-75.5 1491,-21.36 1612.79,-122.7 2050.12,-39.5 2057.49,-38.1 2065.2,-35.85 2072.39,-33.39"/>
<polygon fill="#63b8ff" stroke="#63b8ff" points="2073.54,-36.7 2081.72,-29.97 2071.13,-30.13 2073.54,-36.7"/>
</a>
</g>
</g>
<!-- Node14 -->
<g id="Node000014" class="node">
<title>Node14</title>
<g id="a_Node000014"><a xlink:title=" ">
<polygon fill="#e0e0e0" stroke="#999999" points="309.75,-29 210.5,-29 210.5,-10.5 309.75,-10.5 309.75,-29"/>
<text text-anchor="middle" x="260.12" y="-15.5" font-family="Helvetica,sans-Serif" font-size="10.00">CGAL/partition_2.h</text>
</a>
</g>
</g>
<!-- Node4&#45;&gt;Node14 -->
<g id="edge13_Node000004_Node000014" class="edge">
<title>Node4&#45;&gt;Node14</title>
<g id="a_edge13_Node000004_Node000014"><a xlink:title=" ">
<path fill="none" stroke="#63b8ff" d="M930,-86.56C792.25,-80.21 435.74,-62.04 319.12,-39.5 310.78,-37.89 301.96,-35.48 293.76,-32.93"/>
<polygon fill="#63b8ff" stroke="#63b8ff" points="295.09,-29.68 284.5,-29.89 292.91,-36.33 295.09,-29.68"/>
</a>
</g>
</g>
<!-- Node15 -->
<g id="Node000015" class="node">
<title>Node15</title>
<g id="a_Node000015"><a xlink:title=" ">
<polygon fill="#e0e0e0" stroke="#999999" points="464.5,-29 327.75,-29 327.75,-10.5 464.5,-10.5 464.5,-29"/>
<text text-anchor="middle" x="396.12" y="-15.5" font-family="Helvetica,sans-Serif" font-size="10.00">CGAL/point_generators_2.h</text>
</a>
</g>
</g>
<!-- Node4&#45;&gt;Node15 -->
<g id="edge14_Node000004_Node000015" class="edge">
<title>Node4&#45;&gt;Node15</title>
<g id="a_edge14_Node000004_Node000015"><a xlink:title=" ">
<path fill="none" stroke="#63b8ff" d="M929.97,-86.18C835.92,-80.82 638.72,-67.12 474.12,-39.5 462.59,-37.56 450.22,-34.88 438.82,-32.15"/>
<polygon fill="#63b8ff" stroke="#63b8ff" points="439.81,-28.79 429.27,-29.79 438.13,-35.58 439.81,-28.79"/>
</a>
</g>
</g>
<!-- Node16 -->
<g id="Node000016" class="node">
<title>Node16</title>
<g id="a_Node000016"><a xlink:title=" ">
<polygon fill="#e0e0e0" stroke="#999999" points="617.38,-29 482.88,-29 482.88,-10.5 617.38,-10.5 617.38,-29"/>
<text text-anchor="middle" x="550.12" y="-15.5" font-family="Helvetica,sans-Serif" font-size="10.00">CGAL/random_polygon_2.h</text>
</a>
</g>
</g>
<!-- Node4&#45;&gt;Node16 -->
<g id="edge15_Node000004_Node000016" class="edge">
<title>Node4&#45;&gt;Node16</title>
<g id="a_edge15_Node000004_Node000016"><a xlink:title=" ">
<path fill="none" stroke="#63b8ff" d="M929.79,-83.19C859.02,-75.35 732.87,-59.97 626.12,-39.5 615.33,-37.43 603.76,-34.8 593,-32.16"/>
<polygon fill="#63b8ff" stroke="#63b8ff" points="594.15,-28.84 583.6,-29.81 592.45,-35.63 594.15,-28.84"/>
</a>
</g>
</g>
<!-- Node17 -->
<g id="Node000017" class="node">
<title>Node17</title>
<g id="a_Node000017"><a xlink:title=" ">
<polygon fill="#e0e0e0" stroke="#999999" points="758.75,-34.25 635.5,-34.25 635.5,-5.25 758.75,-5.25 758.75,-34.25"/>
<text text-anchor="start" x="643.5" y="-20.75" font-family="Helvetica,sans-Serif" font-size="10.00">CGAL/Arr_point_location</text>
<text text-anchor="middle" x="697.12" y="-10.25" font-family="Helvetica,sans-Serif" font-size="10.00">_result.h</text>
</a>
</g>
</g>
<!-- Node4&#45;&gt;Node17 -->
<g id="edge16_Node000004_Node000017" class="edge">
<title>Node4&#45;&gt;Node17</title>
<g id="a_edge16_Node000004_Node000017"><a xlink:title=" ">
<path fill="none" stroke="#63b8ff" d="M930.16,-77C886.22,-67.28 823.1,-53.02 768.12,-39.5 765.51,-38.86 762.85,-38.19 760.16,-37.52"/>
<polygon fill="#63b8ff" stroke="#63b8ff" points="761.05,-34.13 750.5,-35.05 759.32,-40.91 761.05,-34.13"/>
</a>
</g>
</g>
<!-- Node18 -->
<g id="Node000018" class="node">
<title>Node18</title>
<g id="a_Node000018"><a xlink:title=" ">
<polygon fill="#e0e0e0" stroke="#999999" points="901.12,-34.25 777.12,-34.25 777.12,-5.25 901.12,-5.25 901.12,-34.25"/>
<text text-anchor="start" x="785.12" y="-20.75" font-family="Helvetica,sans-Serif" font-size="10.00">CGAL/Arr_batched_point</text>
<text text-anchor="middle" x="839.12" y="-10.25" font-family="Helvetica,sans-Serif" font-size="10.00">_location.h</text>
</a>
</g>
</g>
<!-- Node4&#45;&gt;Node18 -->
<g id="edge17_Node000004_Node000018" class="edge">
<title>Node4&#45;&gt;Node18</title>
<g id="a_edge17_Node000004_Node000018"><a xlink:title=" ">
<path fill="none" stroke="#63b8ff" d="M955.23,-75.02C933.28,-64.76 903.24,-50.72 879.21,-39.49"/>
<polygon fill="#63b8ff" stroke="#63b8ff" points="880.89,-36.41 870.35,-35.35 877.93,-42.75 880.89,-36.41"/>
</a>
</g>
</g>
<!-- Node19&#45;&gt;Node3 -->
<g id="edge19_Node000019_Node000003" class="edge">
<title>Node19&#45;&gt;Node3</title>
<g id="a_edge19_Node000019_Node000003"><a xlink:title=" ">
<path fill="none" stroke="#63b8ff" d="M147.04,-150.94C111.69,-146.03 67.45,-133.91 40.12,-104.5 24.13,-87.28 20.63,-59.52 20.3,-40.72"/>
<polygon fill="#63b8ff" stroke="#63b8ff" points="23.8,-40.94 20.44,-30.89 16.8,-40.84 23.8,-40.94"/>
</a>
</g>
</g>
<!-- Node20 -->
<g id="Node000020" class="node">
<title>Node20</title>
<g id="a_Node000020"><a xlink:href="typedefs_8h.html" target="_top" xlink:title="Contains typedefs for the library.">
<polygon fill="white" stroke="#666666" points="270.88,-99.25 133.38,-99.25 133.38,-80.75 270.88,-80.75 270.88,-99.25"/>
<text text-anchor="middle" x="202.12" y="-85.75" font-family="Helvetica,sans-Serif" font-size="10.00">CoverageControl/typedefs.h</text>
</a>
</g>
</g>
<!-- Node19&#45;&gt;Node20 -->
<g id="edge20_Node000019_Node000020" class="edge">
<title>Node19&#45;&gt;Node20</title>
<g id="a_edge20_Node000019_Node000020"><a xlink:title=" ">
<path fill="none" stroke="#63b8ff" d="M202.12,-140.02C202.12,-131.54 202.12,-120.59 202.12,-111.19"/>
<polygon fill="#63b8ff" stroke="#63b8ff" points="205.63,-111.22 202.13,-101.22 198.63,-111.22 205.63,-111.22"/>
</a>
</g>
</g>
<!-- Node20&#45;&gt;Node3 -->
<g id="edge23_Node000020_Node000003" class="edge">
<title>Node20&#45;&gt;Node3</title>
<g id="a_edge23_Node000020_Node000003"><a xlink:title=" ">
<path fill="none" stroke="#63b8ff" d="M167.64,-80.26C136.43,-71.76 89.61,-57.51 51.12,-39.5 48.5,-38.27 45.82,-36.86 43.19,-35.37"/>
<polygon fill="#63b8ff" stroke="#63b8ff" points="45.23,-32.51 34.88,-30.28 41.58,-38.48 45.23,-32.51"/>
</a>
</g>
</g>
<!-- Node21 -->
<g id="Node000021" class="node">
<title>Node21</title>
<g id="a_Node000021"><a xlink:title=" ">
<polygon fill="#e0e0e0" stroke="#999999" points="192.25,-29 120,-29 120,-10.5 192.25,-10.5 192.25,-29"/>
<text text-anchor="middle" x="156.12" y="-15.5" font-family="Helvetica,sans-Serif" font-size="10.00">Eigen/Dense</text>
</a>
</g>
</g>
<!-- Node20&#45;&gt;Node21 -->
<g id="edge21_Node000020_Node000021" class="edge">
<title>Node20&#45;&gt;Node21</title>
<g id="a_edge21_Node000020_Node000021"><a xlink:title=" ">
<path fill="none" stroke="#63b8ff" d="M196.3,-80.36C189.21,-69.84 177.06,-51.81 167.98,-38.33"/>
<polygon fill="#63b8ff" stroke="#63b8ff" points="171.1,-36.7 162.61,-30.37 165.29,-40.61 171.1,-36.7"/>
</a>
</g>
</g>
<!-- Node22 -->
<g id="Node000022" class="node">
<title>Node22</title>
<g id="a_Node000022"><a xlink:title=" ">
<polygon fill="#e0e0e0" stroke="#999999" points="102.25,-29 60,-29 60,-10.5 102.25,-10.5 102.25,-29"/>
<text text-anchor="middle" x="81.12" y="-15.5" font-family="Helvetica,sans-Serif" font-size="10.00">queue</text>
</a>
</g>
</g>
<!-- Node20&#45;&gt;Node22 -->
<g id="edge22_Node000020_Node000022" class="edge">
<title>Node20&#45;&gt;Node22</title>
<g id="a_edge22_Node000020_Node000022"><a xlink:title=" ">
<path fill="none" stroke="#63b8ff" d="M185.52,-80.35C167.15,-70.7 136.75,-54.46 111.12,-39.5 108.8,-38.14 106.39,-36.7 103.99,-35.24"/>
<polygon fill="#63b8ff" stroke="#63b8ff" points="106.09,-32.42 95.75,-30.12 102.4,-38.37 106.09,-32.42"/>
</a>
</g>
</g>
<!-- Node23&#45;&gt;Node2 -->
<g id="edge28_Node000023_Node000002" class="edge">
<title>Node23&#45;&gt;Node2</title>
<g id="a_edge28_Node000023_Node000002"><a xlink:title=" ">
<path fill="none" stroke="#63b8ff" d="M316.12,-143.28C311.05,-142.33 306,-141.39 301.12,-140.5 207.96,-123.53 181.32,-133.34 91.12,-104.5 90.16,-104.19 89.18,-103.85 88.2,-103.5"/>
<polygon fill="#63b8ff" stroke="#63b8ff" points="89.88,-100.41 79.31,-99.68 87.12,-106.84 89.88,-100.41"/>
</a>
</g>
</g>
<!-- Node23&#45;&gt;Node3 -->
<g id="edge29_Node000023_Node000003" class="edge">
<title>Node23&#45;&gt;Node3</title>
<g id="a_edge29_Node000023_Node000003"><a xlink:title=" ">
<path fill="none" stroke="#63b8ff" d="M315.79,-143.61C245.67,-130.34 132.8,-108.59 124.12,-104.5 119.35,-102.25 68.62,-60.29 40.18,-36.64"/>
<polygon fill="#63b8ff" stroke="#63b8ff" points="42.58,-34.08 32.65,-30.37 38.1,-39.46 42.58,-34.08"/>
</a>
</g>
</g>
<!-- Node23&#45;&gt;Node4 -->
<g id="edge30_Node000023_Node000004" class="edge">
<title>Node23&#45;&gt;Node4</title>
<g id="a_edge30_Node000023_Node000004"><a xlink:title=" ">
<path fill="none" stroke="#63b8ff" d="M426.42,-148.33C539.51,-136.72 796.79,-110.32 918.69,-97.82"/>
<polygon fill="#63b8ff" stroke="#63b8ff" points="918.96,-101.31 928.55,-96.8 918.25,-94.34 918.96,-101.31"/>
</a>
</g>
</g>
<!-- Node23&#45;&gt;Node20 -->
<g id="edge31_Node000023_Node000020" class="edge">
<title>Node23&#45;&gt;Node20</title>
<g id="a_edge31_Node000023_Node000020"><a xlink:title=" ">
<path fill="none" stroke="#63b8ff" d="M333.62,-140.02C304.43,-129.14 264.27,-114.17 236.04,-103.64"/>
<polygon fill="#63b8ff" stroke="#63b8ff" points="237.49,-100.45 226.9,-100.23 235.05,-107.01 237.49,-100.45"/>
</a>
</g>
</g>
<!-- Node24 -->
<g id="Node000024" class="node">
<title>Node24</title>
<g id="a_Node000024"><a xlink:title=" ">
<polygon fill="#e0e0e0" stroke="#999999" points="457.25,-99.25 289,-99.25 289,-80.75 457.25,-80.75 457.25,-99.25"/>
<text text-anchor="middle" x="373.12" y="-85.75" font-family="Helvetica,sans-Serif" font-size="10.00">CGAL/Boolean_set_operations_2.h</text>
</a>
</g>
</g>
<!-- Node23&#45;&gt;Node24 -->
<g id="edge25_Node000023_Node000024" class="edge">
<title>Node23&#45;&gt;Node24</title>
<g id="a_edge25_Node000023_Node000024"><a xlink:title=" ">
<path fill="none" stroke="#63b8ff" d="M371.57,-140.02C371.84,-131.54 372.19,-120.59 372.48,-111.19"/>
<polygon fill="#63b8ff" stroke="#63b8ff" points="375.98,-111.32 372.8,-101.22 368.98,-111.1 375.98,-111.32"/>
</a>
</g>
</g>
<!-- Node25 -->
<g id="Node000025" class="node">
<title>Node25</title>
<g id="a_Node000025"><a xlink:title=" ">
<polygon fill="#e0e0e0" stroke="#999999" points="624.5,-99.25 475.75,-99.25 475.75,-80.75 624.5,-80.75 624.5,-99.25"/>
<text text-anchor="middle" x="550.12" y="-85.75" font-family="Helvetica,sans-Serif" font-size="10.00">CGAL/Polygon_2_algorithms.h</text>
</a>
</g>
</g>
<!-- Node23&#45;&gt;Node25 -->
<g id="edge26_Node000023_Node000025" class="edge">
<title>Node23&#45;&gt;Node25</title>
<g id="a_edge26_Node000023_Node000025"><a xlink:title=" ">
<path fill="none" stroke="#63b8ff" d="M410.85,-140.02C441.9,-129.09 484.68,-114.04 514.6,-103.5"/>
<polygon fill="#63b8ff" stroke="#63b8ff" points="515.69,-106.83 523.96,-100.21 513.37,-100.23 515.69,-106.83"/>
</a>
</g>
</g>
<!-- Node26 -->
<g id="Node000026" class="node">
<title>Node26</title>
<g id="a_Node000026"><a xlink:title=" ">
<polygon fill="#e0e0e0" stroke="#999999" points="685.62,-99.25 642.62,-99.25 642.62,-80.75 685.62,-80.75 685.62,-99.25"/>
<text text-anchor="middle" x="664.12" y="-85.75" font-family="Helvetica,sans-Serif" font-size="10.00">omp.h</text>
</a>
</g>
</g>
<!-- Node23&#45;&gt;Node26 -->
<g id="edge27_Node000023_Node000026" class="edge">
<title>Node23&#45;&gt;Node26</title>
<g id="a_edge27_Node000023_Node000026"><a xlink:title=" ">
<path fill="none" stroke="#63b8ff" d="M426.44,-147.22C480.07,-139.79 563.34,-125.99 633.12,-104.5 633.92,-104.25 634.73,-103.99 635.54,-103.72"/>
<polygon fill="#63b8ff" stroke="#63b8ff" points="636.53,-107.09 644.61,-100.23 634.02,-100.56 636.53,-107.09"/>
</a>
</g>
</g>
<!-- Node28 -->
<g id="Node000028" class="node">
<title>Node28</title>
<g id="a_Node000028"><a xlink:title=" ">
<polygon fill="#e0e0e0" stroke="#999999" points="1100.62,-99.25 1057.62,-99.25 1057.62,-80.75 1100.62,-80.75 1100.62,-99.25"/>
<text text-anchor="middle" x="1079.12" y="-85.75" font-family="Helvetica,sans-Serif" font-size="10.00">cmath</text>
</a>
</g>
</g>
<!-- Node27&#45;&gt;Node28 -->
<g id="edge33_Node000027_Node000028" class="edge">
<title>Node27&#45;&gt;Node28</title>
<g id="a_edge33_Node000027_Node000028"><a xlink:title=" ">
<path fill="none" stroke="#63b8ff" d="M1104.21,-145.5C1100,-136.34 1093.15,-121.47 1087.67,-109.57"/>
<polygon fill="#63b8ff" stroke="#63b8ff" points="1090.97,-108.36 1083.61,-100.74 1084.61,-111.28 1090.97,-108.36"/>
</a>
</g>
</g>
<!-- Node29 -->
<g id="Node000029" class="node">
<title>Node29</title>
<g id="a_Node000029"><a xlink:title=" ">
<polygon fill="#e0e0e0" stroke="#999999" points="1157.75,-99.25 1118.5,-99.25 1118.5,-80.75 1157.75,-80.75 1157.75,-99.25"/>
<text text-anchor="middle" x="1138.12" y="-85.75" font-family="Helvetica,sans-Serif" font-size="10.00">limits</text>
</a>
</g>
</g>
<!-- Node27&#45;&gt;Node29 -->
<g id="edge34_Node000027_Node000029" class="edge">
<title>Node27&#45;&gt;Node29</title>
<g id="a_edge34_Node000027_Node000029"><a xlink:title=" ">
<path fill="none" stroke="#63b8ff" d="M1112.17,-145.5C1116.53,-136.34 1123.62,-121.47 1129.28,-109.57"/>
<polygon fill="#63b8ff" stroke="#63b8ff" points="1132.35,-111.26 1133.49,-100.73 1126.03,-108.25 1132.35,-111.26"/>
</a>
</g>
</g>
<!-- Node30 -->
<g id="Node000030" class="node">
<title>Node30</title>
<g id="a_Node000030"><a xlink:title=" ">
<polygon fill="#e0e0e0" stroke="#999999" points="1304.38,-99.25 1175.88,-99.25 1175.88,-80.75 1304.38,-80.75 1304.38,-99.25"/>
<text text-anchor="middle" x="1240.12" y="-85.75" font-family="Helvetica,sans-Serif" font-size="10.00">CoverageControl/Config.h</text>
</a>
</g>
</g>
<!-- Node27&#45;&gt;Node30 -->
<g id="edge35_Node000027_Node000030" class="edge">
<title>Node27&#45;&gt;Node30</title>
<g id="a_edge35_Node000027_Node000030"><a xlink:title=" ">
<path fill="none" stroke="#63b8ff" d="M1126.2,-145.37C1148.2,-134.87 1185.6,-117.02 1211.52,-104.65"/>
<polygon fill="#63b8ff" stroke="#63b8ff" points="1212.96,-107.84 1220.48,-100.38 1209.94,-101.53 1212.96,-107.84"/>
</a>
</g>
</g>
</g>
</svg>
