<?xml version="1.0" encoding="UTF-8" standalone="no"?>
<!DOCTYPE svg PUBLIC "-//W3C//DTD SVG 1.1//EN"
 "http://www.w3.org/Graphics/SVG/1.1/DTD/svg11.dtd">
<!-- Generated by graphviz version 10.0.1 (0)
 -->
<!-- Title: polygon_utils.h Pages: 1 -->
<svg width="922pt" height="364pt"
 viewBox="0.00 0.00 921.75 364.00" xmlns="http://www.w3.org/2000/svg" xmlns:xlink="http://www.w3.org/1999/xlink">
<g id="graph0" class="graph" transform="scale(1 1) rotate(0) translate(4 360)">
<title>polygon_utils.h</title>
<!-- Node1 -->
<g id="Node000001" class="node">
<title>Node1</title>
<g id="a_Node000001"><a xlink:title="Provides utilities for polygon manipulation using CGAL.">
<polygon fill="#999999" stroke="#666666" points="517.62,-356 437.12,-356 437.12,-337.5 517.62,-337.5 517.62,-356"/>
<text text-anchor="middle" x="477.38" y="-342.5" font-family="Helvetica,sans-Serif" font-size="10.00">polygon_utils.h</text>
</a>
</g>
</g>
<!-- Node2 -->
<g id="Node000002" class="node">
<title>Node2</title>
<g id="a_Node000002"><a xlink:href="polygon__utils_8cpp.html" target="_top" xlink:title="Helper functions for polygon operations using CGAL.">
<polygon fill="white" stroke="#666666" points="448.88,-301.5 357.88,-301.5 357.88,-283 448.88,-283 448.88,-301.5"/>
<text text-anchor="middle" x="403.38" y="-288" font-family="Helvetica,sans-Serif" font-size="10.00">polygon_utils.cpp</text>
</a>
</g>
</g>
<!-- Node1&#45;&gt;Node2 -->
<g id="edge1_Node000001_Node000002" class="edge">
<title>Node1&#45;&gt;Node2</title>
<g id="a_edge1_Node000001_Node000002"><a xlink:title=" ">
<path fill="none" stroke="#63b8ff" d="M455.9,-330.52C442.81,-321.23 426.54,-309.69 415.61,-301.93"/>
<polygon fill="#63b8ff" stroke="#63b8ff" points="453.74,-333.27 463.92,-336.2 457.79,-327.56 453.74,-333.27"/>
</a>
</g>
</g>
<!-- Node3 -->
<g id="Node000003" class="node">
<title>Node3</title>
<g id="a_Node000003"><a xlink:href="world__idf_8cpp.html" target="_top" xlink:title="Contains the implementation of the WorldIDF class.">
<polygon fill="white" stroke="#666666" points="511.5,-247 439.25,-247 439.25,-228.5 511.5,-228.5 511.5,-247"/>
<text text-anchor="middle" x="475.38" y="-233.5" font-family="Helvetica,sans-Serif" font-size="10.00">world_idf.cpp</text>
</a>
</g>
</g>
<!-- Node1&#45;&gt;Node3 -->
<g id="edge2_Node000001_Node000003" class="edge">
<title>Node1&#45;&gt;Node3</title>
<g id="a_edge2_Node000001_Node000003"><a xlink:title=" ">
<path fill="none" stroke="#63b8ff" d="M477.01,-326.06C476.57,-302.59 475.85,-264.41 475.54,-247.4"/>
<polygon fill="#63b8ff" stroke="#63b8ff" points="473.5,-325.91 477.19,-335.84 480.5,-325.78 473.5,-325.91"/>
</a>
</g>
</g>
<!-- Node4 -->
<g id="Node000004" class="node">
<title>Node4</title>
<g id="a_Node000004"><a xlink:href="world__idf_8h.html" target="_top" xlink:title="Contains the class for Importance Density Function (IDF) for the world.">
<polygon fill="white" stroke="#666666" points="570.25,-301.5 508.5,-301.5 508.5,-283 570.25,-283 570.25,-301.5"/>
<text text-anchor="middle" x="539.38" y="-288" font-family="Helvetica,sans-Serif" font-size="10.00">world_idf.h</text>
</a>
</g>
</g>
<!-- Node1&#45;&gt;Node4 -->
<g id="edge3_Node000001_Node000004" class="edge">
<title>Node1&#45;&gt;Node4</title>
<g id="a_edge3_Node000001_Node000004"><a xlink:title=" ">
<path fill="none" stroke="#63b8ff" d="M496.4,-329.64C507.26,-320.44 520.45,-309.27 529.33,-301.76"/>
<polygon fill="#63b8ff" stroke="#63b8ff" points="494.14,-326.97 488.77,-336.1 498.66,-332.31 494.14,-326.97"/>
</a>
</g>
</g>
<!-- Node4&#45;&gt;Node3 -->
<g id="edge26_Node000004_Node000003" class="edge">
<title>Node4&#45;&gt;Node3</title>
<g id="a_edge26_Node000004_Node000003"><a xlink:title=" ">
<path fill="none" stroke="#63b8ff" d="M520.08,-275.42C508.8,-266.17 495,-254.85 485.75,-247.26"/>
<polygon fill="#63b8ff" stroke="#63b8ff" points="517.69,-277.98 527.64,-281.62 522.12,-272.57 517.69,-277.98"/>
</a>
</g>
</g>
<!-- Node5 -->
<g id="Node000005" class="node">
<title>Node5</title>
<g id="a_Node000005"><a xlink:href="coverage__algorithm_8cpp.html" target="_top" xlink:title="Program to test the CVT&#45;based (Lloyd&#39;s) coverage control algorithms.">
<polygon fill="white" stroke="#666666" points="913.75,-18.5 795,-18.5 795,0 913.75,0 913.75,-18.5"/>
<text text-anchor="middle" x="854.38" y="-5" font-family="Helvetica,sans-Serif" font-size="10.00">coverage_algorithm.cpp</text>
</a>
</g>
</g>
<!-- Node4&#45;&gt;Node5 -->
<g id="edge4_Node000004_Node000005" class="edge">
<title>Node4&#45;&gt;Node5</title>
<g id="a_edge4_Node000004_Node000005"><a xlink:title=" ">
<path fill="none" stroke="#63b8ff" d="M582.06,-287.38C676,-277.7 892.38,-248.43 892.38,-184.25 892.38,-184.25 892.38,-184.25 892.38,-127.75 892.38,-85.09 869.41,-37.75 859.19,-18.79"/>
<polygon fill="#63b8ff" stroke="#63b8ff" points="581.81,-283.89 572.21,-288.37 582.51,-290.86 581.81,-283.89"/>
</a>
</g>
</g>
<!-- Node6 -->
<g id="Node000006" class="node">
<title>Node6</title>
<g id="a_Node000006"><a xlink:href="coverage__system_8h.html" target="_top" xlink:title="The file contains the CoverageSystem class, which is the main class for the coverage control library.">
<polygon fill="white" stroke="#666666" points="589,-192.5 489.75,-192.5 489.75,-174 589,-174 589,-192.5"/>
<text text-anchor="middle" x="539.38" y="-179" font-family="Helvetica,sans-Serif" font-size="10.00">coverage_system.h</text>
</a>
</g>
</g>
<!-- Node4&#45;&gt;Node6 -->
<g id="edge5_Node000004_Node000006" class="edge">
<title>Node4&#45;&gt;Node6</title>
<g id="a_edge5_Node000004_Node000006"><a xlink:title=" ">
<path fill="none" stroke="#63b8ff" d="M539.38,-271.56C539.38,-248.09 539.38,-209.91 539.38,-192.9"/>
<polygon fill="#63b8ff" stroke="#63b8ff" points="535.88,-271.34 539.38,-281.34 542.88,-271.34 535.88,-271.34"/>
</a>
</g>
</g>
<!-- Node16 -->
<g id="Node000016" class="node">
<title>Node16</title>
<g id="a_Node000016"><a xlink:href="robot__model_8h.html" target="_top" xlink:title="Class for handling the robot model.">
<polygon fill="white" stroke="#666666" points="645.12,-247 567.62,-247 567.62,-228.5 645.12,-228.5 645.12,-247"/>
<text text-anchor="middle" x="606.38" y="-233.5" font-family="Helvetica,sans-Serif" font-size="10.00">robot_model.h</text>
</a>
</g>
</g>
<!-- Node4&#45;&gt;Node16 -->
<g id="edge24_Node000004_Node000016" class="edge">
<title>Node4&#45;&gt;Node16</title>
<g id="a_edge24_Node000004_Node000016"><a xlink:title=" ">
<path fill="none" stroke="#63b8ff" d="M559.22,-275.7C571.1,-266.39 585.73,-254.93 595.52,-247.26"/>
<polygon fill="#63b8ff" stroke="#63b8ff" points="557.34,-272.72 551.63,-281.65 561.66,-278.23 557.34,-272.72"/>
</a>
</g>
</g>
<!-- Node6&#45;&gt;Node5 -->
<g id="edge17_Node000006_Node000005" class="edge">
<title>Node6&#45;&gt;Node5</title>
<g id="a_edge17_Node000006_Node000005"><a xlink:title=" ">
<path fill="none" stroke="#63b8ff" d="M600.59,-175.23C643.42,-168.92 701.32,-157.54 749.38,-138 791.29,-120.95 808.72,-120.07 835.38,-83.5 849.92,-63.54 853.35,-33.39 854.15,-18.78"/>
<polygon fill="#63b8ff" stroke="#63b8ff" points="600.12,-171.76 590.71,-176.63 601.11,-178.69 600.12,-171.76"/>
</a>
</g>
</g>
<!-- Node7 -->
<g id="Node000007" class="node">
<title>Node7</title>
<g id="a_Node000007"><a xlink:href="abstract__controller_8h.html" target="_top" xlink:title="Contains the abstract class for coverage control algorithms.">
<polygon fill="white" stroke="#666666" points="511.62,-138 407.12,-138 407.12,-119.5 511.62,-119.5 511.62,-138"/>
<text text-anchor="middle" x="459.38" y="-124.5" font-family="Helvetica,sans-Serif" font-size="10.00">abstract_controller.h</text>
</a>
</g>
</g>
<!-- Node6&#45;&gt;Node7 -->
<g id="edge6_Node000006_Node000007" class="edge">
<title>Node6&#45;&gt;Node7</title>
<g id="a_edge6_Node000006_Node000007"><a xlink:title=" ">
<path fill="none" stroke="#63b8ff" d="M516.58,-167.29C502.35,-157.95 484.54,-146.26 472.6,-138.43"/>
<polygon fill="#63b8ff" stroke="#63b8ff" points="514.62,-170.19 524.9,-172.75 518.46,-164.34 514.62,-170.19"/>
</a>
</g>
</g>
<!-- Node8 -->
<g id="Node000008" class="node">
<title>Node8</title>
<g id="a_Node000008"><a xlink:href="centralized__cvt_8h.html" target="_top" xlink:title="Contains the class CentralizedCVT.">
<polygon fill="white" stroke="#666666" points="88.75,-78.25 0,-78.25 0,-59.75 88.75,-59.75 88.75,-78.25"/>
<text text-anchor="middle" x="44.38" y="-64.75" font-family="Helvetica,sans-Serif" font-size="10.00">centralized_cvt.h</text>
</a>
</g>
</g>
<!-- Node6&#45;&gt;Node8 -->
<g id="edge15_Node000006_Node000008" class="edge">
<title>Node6&#45;&gt;Node8</title>
<g id="a_edge15_Node000006_Node000008"><a xlink:title=" ">
<path fill="none" stroke="#63b8ff" d="M478.42,-173.06C427.81,-165.03 354.07,-152.43 290.38,-138 210.64,-119.94 118.06,-92.59 72.57,-78.72"/>
<polygon fill="#63b8ff" stroke="#63b8ff" points="477.58,-176.47 488,-174.56 478.66,-169.55 477.58,-176.47"/>
</a>
</g>
</g>
<!-- Node9 -->
<g id="Node000009" class="node">
<title>Node9</title>
<g id="a_Node000009"><a xlink:href="clairvoyant__cvt_8h.html" target="_top" xlink:title="Clairvoyant CVT algorithm.">
<polygon fill="white" stroke="#666666" points="826.75,-78.25 738,-78.25 738,-59.75 826.75,-59.75 826.75,-78.25"/>
<text text-anchor="middle" x="782.38" y="-64.75" font-family="Helvetica,sans-Serif" font-size="10.00">clairvoyant_cvt.h</text>
</a>
</g>
</g>
<!-- Node6&#45;&gt;Node9 -->
<g id="edge16_Node000006_Node000009" class="edge">
<title>Node6&#45;&gt;Node9</title>
<g id="a_edge16_Node000006_Node000009"><a xlink:title=" ">
<path fill="none" stroke="#63b8ff" d="M600.72,-177.28C638.62,-171.95 686.99,-160.91 724.38,-138 749.25,-122.76 768.87,-93.23 777.54,-78.62"/>
<polygon fill="#63b8ff" stroke="#63b8ff" points="600.29,-173.81 590.82,-178.57 601.19,-180.75 600.29,-173.81"/>
</a>
</g>
</g>
<!-- Node10 -->
<g id="Node000010" class="node">
<title>Node10</title>
<g id="a_Node000010"><a xlink:href="decentralized__cvt_8h.html" target="_top" xlink:title="Contains the DecentralizedCVT class.">
<polygon fill="white" stroke="#666666" points="206,-78.25 106.75,-78.25 106.75,-59.75 206,-59.75 206,-78.25"/>
<text text-anchor="middle" x="156.38" y="-64.75" font-family="Helvetica,sans-Serif" font-size="10.00">decentralized_cvt.h</text>
</a>
</g>
</g>
<!-- Node6&#45;&gt;Node10 -->
<g id="edge19_Node000006_Node000010" class="edge">
<title>Node6&#45;&gt;Node10</title>
<g id="a_edge19_Node000006_Node000010"><a xlink:title=" ">
<path fill="none" stroke="#63b8ff" d="M484.15,-171.29C445.54,-163.2 392.95,-151.32 347.38,-138 285.04,-119.79 213.35,-92.51 178.16,-78.69"/>
<polygon fill="#63b8ff" stroke="#63b8ff" points="483.17,-174.66 493.67,-173.27 484.59,-167.81 483.17,-174.66"/>
</a>
</g>
</g>
<!-- Node11 -->
<g id="Node000011" class="node">
<title>Node11</title>
<g id="a_Node000011"><a xlink:href="near__optimal__cvt_8h.html" target="_top" xlink:title="NearOptimalCVT class Global offline oracle: has complete information about the environment....">
<polygon fill="white" stroke="#666666" points="322.25,-78.25 224.5,-78.25 224.5,-59.75 322.25,-59.75 322.25,-78.25"/>
<text text-anchor="middle" x="273.38" y="-64.75" font-family="Helvetica,sans-Serif" font-size="10.00">near_optimal_cvt.h</text>
</a>
</g>
</g>
<!-- Node6&#45;&gt;Node11 -->
<g id="edge20_Node000006_Node000011" class="edge">
<title>Node6&#45;&gt;Node11</title>
<g id="a_edge20_Node000006_Node000011"><a xlink:title=" ">
<path fill="none" stroke="#63b8ff" d="M487.61,-170.85C457.41,-163.32 418.96,-152.22 386.38,-138 347.35,-120.96 305.38,-92.79 285.35,-78.65"/>
<polygon fill="#63b8ff" stroke="#63b8ff" points="486.74,-174.24 497.28,-173.2 488.39,-167.43 486.74,-174.24"/>
</a>
</g>
</g>
<!-- Node12 -->
<g id="Node000012" class="node">
<title>Node12</title>
<g id="a_Node000012"><a xlink:href="oracle__bang__explore__exploit_8h.html" target="_top" xlink:title="First trial of oracle with exploration and exploitation. The oracle uses complete information about t...">
<polygon fill="white" stroke="#666666" points="446,-83.5 340.75,-83.5 340.75,-54.5 446,-54.5 446,-83.5"/>
<text text-anchor="start" x="348.75" y="-70" font-family="Helvetica,sans-Serif" font-size="10.00">oracle_bang_explore</text>
<text text-anchor="middle" x="393.38" y="-59.5" font-family="Helvetica,sans-Serif" font-size="10.00">_exploit.h</text>
</a>
</g>
</g>
<!-- Node6&#45;&gt;Node12 -->
<g id="edge21_Node000006_Node000012" class="edge">
<title>Node6&#45;&gt;Node12</title>
<g id="a_edge21_Node000006_Node000012"><a xlink:title=" ">
<path fill="none" stroke="#63b8ff" d="M478.19,-178.44C449.47,-173.29 417.43,-162.05 398.38,-138 386.25,-122.69 387.67,-98.87 390.22,-83.87"/>
<polygon fill="#63b8ff" stroke="#63b8ff" points="477.5,-181.87 487.92,-179.95 478.57,-174.95 477.5,-181.87"/>
</a>
</g>
</g>
<!-- Node13 -->
<g id="Node000013" class="node">
<title>Node13</title>
<g id="a_Node000013"><a xlink:href="oracle__explore__exploit_8h.html" target="_top" xlink:title="Old trial of exploration and exploitation Uses system map for exploration as well.">
<polygon fill="white" stroke="#666666" points="584.5,-78.25 464.25,-78.25 464.25,-59.75 584.5,-59.75 584.5,-78.25"/>
<text text-anchor="middle" x="524.38" y="-64.75" font-family="Helvetica,sans-Serif" font-size="10.00">oracle_explore_exploit.h</text>
</a>
</g>
</g>
<!-- Node6&#45;&gt;Node13 -->
<g id="edge22_Node000006_Node000013" class="edge">
<title>Node6&#45;&gt;Node13</title>
<g id="a_edge22_Node000006_Node000013"><a xlink:title=" ">
<path fill="none" stroke="#63b8ff" d="M536.75,-162.6C533.44,-137.83 527.89,-96.34 525.52,-78.53"/>
<polygon fill="#63b8ff" stroke="#63b8ff" points="533.25,-162.86 538.05,-172.31 540.19,-161.94 533.25,-162.86"/>
</a>
</g>
</g>
<!-- Node14 -->
<g id="Node000014" class="node">
<title>Node14</title>
<g id="a_Node000014"><a xlink:href="simul__explore__exploit_8h.html" target="_top" xlink:title="Simultaneous exploration and exploitation algorithm Uses frontier&#45;based exploration with bias towards...">
<polygon fill="white" stroke="#666666" points="720,-78.25 602.75,-78.25 602.75,-59.75 720,-59.75 720,-78.25"/>
<text text-anchor="middle" x="661.38" y="-64.75" font-family="Helvetica,sans-Serif" font-size="10.00">simul_explore_exploit.h</text>
</a>
</g>
</g>
<!-- Node6&#45;&gt;Node14 -->
<g id="edge23_Node000006_Node000014" class="edge">
<title>Node6&#45;&gt;Node14</title>
<g id="a_edge23_Node000006_Node000014"><a xlink:title=" ">
<path fill="none" stroke="#63b8ff" d="M553.4,-165.18C564.48,-152.1 580.66,-133.91 596.38,-119.5 613.52,-103.78 635.37,-87.89 648.87,-78.49"/>
<polygon fill="#63b8ff" stroke="#63b8ff" points="550.99,-162.6 547.27,-172.51 556.37,-167.08 550.99,-162.6"/>
</a>
</g>
</g>
<!-- Node15 -->
<g id="Node000015" class="node">
<title>Node15</title>
<g id="a_Node000015"><a xlink:href="coverage__system_8cpp.html" target="_top" xlink:title="Contains the implementation of the CoverageSystem class.">
<polygon fill="white" stroke="#666666" points="715.25,-138 605.5,-138 605.5,-119.5 715.25,-119.5 715.25,-138"/>
<text text-anchor="middle" x="660.38" y="-124.5" font-family="Helvetica,sans-Serif" font-size="10.00">coverage_system.cpp</text>
</a>
</g>
</g>
<!-- Node6&#45;&gt;Node15 -->
<g id="edge18_Node000006_Node000015" class="edge">
<title>Node6&#45;&gt;Node15</title>
<g id="a_edge18_Node000006_Node000015"><a xlink:title=" ">
<path fill="none" stroke="#63b8ff" d="M569.85,-169.03C591.94,-159.44 621.18,-146.76 640.36,-138.43"/>
<polygon fill="#63b8ff" stroke="#63b8ff" points="568.52,-165.79 560.74,-172.98 571.31,-172.21 568.52,-165.79"/>
</a>
</g>
</g>
<!-- Node7&#45;&gt;Node8 -->
<g id="edge7_Node000007_Node000008" class="edge">
<title>Node7&#45;&gt;Node8</title>
<g id="a_edge7_Node000007_Node000008"><a xlink:title=" ">
<path fill="none" stroke="#63b8ff" d="M395.68,-122.45C323.08,-115.83 201.04,-102.96 97.38,-83.5 90.38,-82.19 82.93,-80.48 75.9,-78.73"/>
<polygon fill="#63b8ff" stroke="#63b8ff" points="395.12,-125.91 405.39,-123.32 395.74,-118.94 395.12,-125.91"/>
</a>
</g>
</g>
<!-- Node7&#45;&gt;Node9 -->
<g id="edge8_Node000007_Node000009" class="edge">
<title>Node7&#45;&gt;Node9</title>
<g id="a_edge8_Node000007_Node000009"><a xlink:title=" ">
<path fill="none" stroke="#63b8ff" d="M523.19,-118.89C578.09,-110.89 659.27,-98.14 729.38,-83.5 736.07,-82.1 743.19,-80.42 749.97,-78.73"/>
<polygon fill="#63b8ff" stroke="#63b8ff" points="522.78,-115.41 513.39,-120.31 523.79,-122.34 522.78,-115.41"/>
</a>
</g>
</g>
<!-- Node7&#45;&gt;Node10 -->
<g id="edge10_Node000007_Node000010" class="edge">
<title>Node7&#45;&gt;Node10</title>
<g id="a_edge10_Node000007_Node000010"><a xlink:title=" ">
<path fill="none" stroke="#63b8ff" d="M396.22,-117.11C346.87,-108.6 276.61,-96.05 215.38,-83.5 208.17,-82.02 200.49,-80.34 193.14,-78.68"/>
<polygon fill="#63b8ff" stroke="#63b8ff" points="395.42,-120.52 405.87,-118.77 396.61,-113.62 395.42,-120.52"/>
</a>
</g>
</g>
<!-- Node7&#45;&gt;Node11 -->
<g id="edge11_Node000007_Node000011" class="edge">
<title>Node7&#45;&gt;Node11</title>
<g id="a_edge11_Node000007_Node000011"><a xlink:title=" ">
<path fill="none" stroke="#63b8ff" d="M420.59,-115.71C385,-104.66 333.13,-88.55 301.41,-78.7"/>
<polygon fill="#63b8ff" stroke="#63b8ff" points="419.5,-119.03 430.08,-118.66 421.57,-112.35 419.5,-119.03"/>
</a>
</g>
</g>
<!-- Node7&#45;&gt;Node12 -->
<g id="edge12_Node000007_Node000012" class="edge">
<title>Node7&#45;&gt;Node12</title>
<g id="a_edge12_Node000007_Node000012"><a xlink:title=" ">
<path fill="none" stroke="#63b8ff" d="M441.24,-111.88C431.24,-103.13 418.93,-92.36 409.3,-83.93"/>
<polygon fill="#63b8ff" stroke="#63b8ff" points="438.67,-114.28 448.5,-118.23 443.28,-109.01 438.67,-114.28"/>
</a>
</g>
</g>
<!-- Node7&#45;&gt;Node13 -->
<g id="edge13_Node000007_Node000013" class="edge">
<title>Node7&#45;&gt;Node13</title>
<g id="a_edge13_Node000007_Node000013"><a xlink:title=" ">
<path fill="none" stroke="#63b8ff" d="M477.41,-111.73C489.49,-100.99 504.94,-87.27 514.74,-78.56"/>
<polygon fill="#63b8ff" stroke="#63b8ff" points="475.25,-108.97 470.1,-118.22 479.9,-114.2 475.25,-108.97"/>
</a>
</g>
</g>
<!-- Node7&#45;&gt;Node14 -->
<g id="edge14_Node000007_Node000014" class="edge">
<title>Node7&#45;&gt;Node14</title>
<g id="a_edge14_Node000007_Node000014"><a xlink:title=" ">
<path fill="none" stroke="#63b8ff" d="M500.49,-115.99C539.17,-104.94 596.18,-88.64 630.93,-78.7"/>
<polygon fill="#63b8ff" stroke="#63b8ff" points="499.72,-112.57 491.07,-118.69 501.65,-119.3 499.72,-112.57"/>
</a>
</g>
</g>
<!-- Node9&#45;&gt;Node5 -->
<g id="edge9_Node000009_Node000005" class="edge">
<title>Node9&#45;&gt;Node5</title>
<g id="a_edge9_Node000009_Node000005"><a xlink:title=" ">
<path fill="none" stroke="#63b8ff" d="M801.96,-52.29C815.4,-41.51 832.74,-27.61 843.71,-18.81"/>
<polygon fill="#63b8ff" stroke="#63b8ff" points="799.79,-49.54 794.18,-58.53 804.17,-55.01 799.79,-49.54"/>
</a>
</g>
</g>
<!-- Node16&#45;&gt;Node6 -->
<g id="edge25_Node000016_Node000006" class="edge">
<title>Node16&#45;&gt;Node6</title>
<g id="a_edge25_Node000016_Node000006"><a xlink:title=" ">
<path fill="none" stroke="#63b8ff" d="M586.53,-221.2C574.65,-211.89 560.02,-200.43 550.23,-192.76"/>
<polygon fill="#63b8ff" stroke="#63b8ff" points="584.09,-223.73 594.12,-227.15 588.41,-218.22 584.09,-223.73"/>
</a>
</g>
</g>
</g>
</svg>
