<?xml version="1.0" encoding="UTF-8" standalone="no"?>
<!DOCTYPE svg PUBLIC "-//W3C//DTD SVG 1.1//EN"
 "http://www.w3.org/Graphics/SVG/1.1/DTD/svg11.dtd">
<!-- Generated by graphviz version 10.0.1 (0)
 -->
<!-- Title: polygon_utils.h Pages: 1 -->
<svg width="205pt" height="136pt"
 viewBox="0.00 0.00 205.25 135.50" xmlns="http://www.w3.org/2000/svg" xmlns:xlink="http://www.w3.org/1999/xlink">

<svg id="main" version="1.1" xmlns="http://www.w3.org/2000/svg" xmlns:xlink="http://www.w3.org/1999/xlink" xml:space="preserve" onload="init(evt)">
<style type="text/css"><![CDATA[
.node, .edge {opacity: 0.7;}
.node.selected, .edge.selected {opacity: 1;}
.edge:hover path { stroke: red; }
.edge:hover polygon { stroke: red; fill: red; }
]]></style>
<script type="application/ecmascript" xlink:href="svg.min.js"/>
<svg id="graph" class="graph">
<g id="graph0" class="graph" transform="scale(1 1) rotate(0) translate(4 131.5)">
<title>polygon_utils.h</title>
<!-- Node1 -->
<g id="Node000001" class="node">
<title>Node1</title>
<g id="a_Node000001"><a xlink:title="Provides utilities for polygon manipulation using CGAL.">
<polygon fill="#999999" stroke="#666666" points="98.38,-127.5 17.88,-127.5 17.88,-109 98.38,-109 98.38,-127.5"/>
<text text-anchor="middle" x="58.12" y="-114" font-family="Helvetica,sans-Serif" font-size="10.00">polygon_utils.h</text>
</a>
</g>
</g>
<!-- Node2 -->
<g id="Node000002" class="node">
<title>Node2</title>
<g id="a_Node000002"><a xlink:title=" ">
<polygon fill="#e0e0e0" stroke="#999999" points="42.25,-18.5 0,-18.5 0,0 42.25,0 42.25,-18.5"/>
<text text-anchor="middle" x="21.12" y="-5" font-family="Helvetica,sans-Serif" font-size="10.00">vector</text>
</a>
</g>
</g>
<!-- Node1&#45;&gt;Node2 -->
<g id="edge1_Node000001_Node000002" class="edge">
<title>Node1&#45;&gt;Node2</title>
<g id="a_edge1_Node000001_Node000002"><a xlink:title=" ">
<path fill="none" stroke="#63b8ff" d="M50.84,-108.75C44.02,-100.28 34.15,-86.62 29.12,-73 24.05,-59.24 22.09,-42.75 21.38,-30.13"/>
<polygon fill="#63b8ff" stroke="#63b8ff" points="24.88,-30.05 21.06,-20.17 17.88,-30.27 24.88,-30.05"/>
</a>
</g>
</g>
<!-- Node3 -->
<g id="Node000003" class="node">
<title>Node3</title>
<g id="a_Node000003"><a xlink:href="typedefs_8h.html" target="_top" xlink:title="Contains typedefs for the library.">
<polygon fill="white" stroke="#666666" points="175.88,-73 38.38,-73 38.38,-54.5 175.88,-54.5 175.88,-73"/>
<text text-anchor="middle" x="107.12" y="-59.5" font-family="Helvetica,sans-Serif" font-size="10.00">CoverageControl/typedefs.h</text>
</a>
</g>
</g>
<!-- Node1&#45;&gt;Node3 -->
<g id="edge2_Node000001_Node000003" class="edge">
<title>Node1&#45;&gt;Node3</title>
<g id="a_edge2_Node000001_Node000003"><a xlink:title=" ">
<path fill="none" stroke="#63b8ff" d="M66.22,-108.58C73.07,-101.24 83.08,-90.51 91.49,-81.5"/>
<polygon fill="#63b8ff" stroke="#63b8ff" points="93.89,-84.06 98.15,-74.36 88.77,-79.29 93.89,-84.06"/>
</a>
</g>
</g>
<!-- Node3&#45;&gt;Node2 -->
<g id="edge5_Node000003_Node000002" class="edge">
<title>Node3&#45;&gt;Node2</title>
<g id="a_edge5_Node000003_Node000002"><a xlink:title=" ">
<path fill="none" stroke="#63b8ff" d="M92.92,-54.08C79.85,-46.1 60.21,-34.11 44.77,-24.69"/>
<polygon fill="#63b8ff" stroke="#63b8ff" points="47,-21.94 36.64,-19.72 43.35,-27.92 47,-21.94"/>
</a>
</g>
</g>
<!-- Node4 -->
<g id="Node000004" class="node">
<title>Node4</title>
<g id="a_Node000004"><a xlink:title=" ">
<polygon fill="#e0e0e0" stroke="#999999" points="137.25,-18.5 65,-18.5 65,0 137.25,0 137.25,-18.5"/>
<text text-anchor="middle" x="101.12" y="-5" font-family="Helvetica,sans-Serif" font-size="10.00">Eigen/Dense</text>
</a>
</g>
</g>
<!-- Node3&#45;&gt;Node4 -->
<g id="edge3_Node000003_Node000004" class="edge">
<title>Node3&#45;&gt;Node4</title>
<g id="a_edge3_Node000003_Node000004"><a xlink:title=" ">
<path fill="none" stroke="#63b8ff" d="M106.13,-54.08C105.39,-47.58 104.34,-38.42 103.4,-30.16"/>
<polygon fill="#63b8ff" stroke="#63b8ff" points="106.88,-29.8 102.27,-20.26 99.93,-30.59 106.88,-29.8"/>
</a>
</g>
</g>
<!-- Node5 -->
<g id="Node000005" class="node">
<title>Node5</title>
<g id="a_Node000005"><a xlink:title=" ">
<polygon fill="#e0e0e0" stroke="#999999" points="197.25,-18.5 155,-18.5 155,0 197.25,0 197.25,-18.5"/>
<text text-anchor="middle" x="176.12" y="-5" font-family="Helvetica,sans-Serif" font-size="10.00">queue</text>
</a>
</g>
</g>
<!-- Node3&#45;&gt;Node5 -->
<g id="edge4_Node000003_Node000005" class="edge">
<title>Node3&#45;&gt;Node5</title>
<g id="a_edge4_Node000003_Node000005"><a xlink:title=" ">
<path fill="none" stroke="#63b8ff" d="M118.52,-54.08C128.67,-46.36 143.75,-34.88 155.94,-25.61"/>
<polygon fill="#63b8ff" stroke="#63b8ff" points="157.9,-28.52 163.74,-19.67 153.66,-22.94 157.9,-28.52"/>
</a>
</g>
</g>
</g>
</svg>
</svg>

<style type='text/css'>
<![CDATA[
[data-mouse-over-selected='false'] { opacity: 0.7; }
[data-mouse-over-selected='true']  { opacity: 1.0; }
]]>
</style>
<script type="application/ecmascript"><![CDATA[
document.addEventListener('DOMContentLoaded', (event) => {
  highlightEdges();
  highlightAdjacentNodes();
});
]]></script>
</svg>
