<?xml version="1.0" encoding="UTF-8" standalone="no"?>
<!DOCTYPE svg PUBLIC "-//W3C//DTD SVG 1.1//EN"
 "http://www.w3.org/Graphics/SVG/1.1/DTD/svg11.dtd">
<!-- Generated by graphviz version 10.0.1 (0)
 -->
<!-- Title: polygon_utils.cpp Pages: 1 -->
<!--zoomable 232 -->

<svg id="main" version="1.1" xmlns="http://www.w3.org/2000/svg" xmlns:xlink="http://www.w3.org/1999/xlink" xml:space="preserve" onload="init(evt)">
<style type="text/css"><![CDATA[
.node, .edge {opacity: 0.7;}
.node.selected, .edge.selected {opacity: 1;}
.edge:hover path { stroke: red; }
.edge:hover polygon { stroke: red; fill: red; }
]]></style>

<defs>
  <circle id="rim" cx="0" cy="0" r="7"/>
  <circle id="rim2" cx="0" cy="0" r="3.5"/>
  <g id="zoomPlus">
    <use xlink:href="#rim" fill="#404040"><set attributeName="fill" to="#808080" begin="zoomplus.mouseover" end="zoomplus.mouseout"/></use>
    <path d="M-4,0h8M0,-4v8" fill="none" stroke="white" stroke-width="1.5" pointer-events="none"/>
  </g>
  <g id="zoomMin">
    <use xlink:href="#rim" fill="#404040"><set attributeName="fill" to="#808080" begin="zoomminus.mouseover" end="zoomminus.mouseout"/></use>
    <path d="M-4,0h8" fill="none" stroke="white" stroke-width="1.5" pointer-events="none"/>
  </g>
  <g id="arrowUp" transform="translate(30 24)">
    <use xlink:href="#rim"/>
    <path pointer-events="none" fill="none" stroke="white" stroke-width="1.5" d="M0,-3.0v7 M-2.5,-0.5L0,-3.0L2.5,-0.5"/>
  </g>
  <g id="arrowRight" transform="rotate(90) translate(36 -43)">
    <use xlink:href="#rim"/>
    <path pointer-events="none" fill="none" stroke="white" stroke-width="1.5" d="M0,-3.0v7 M-2.5,-0.5L0,-3.0L2.5,-0.5"/>
  </g>
  <g id="arrowDown" transform="rotate(180) translate(-30 -48)">
    <use xlink:href="#rim"/>
    <path pointer-events="none" fill="none" stroke="white" stroke-width="1.5" d="M0,-3.0v7 M-2.5,-0.5L0,-3.0L2.5,-0.5"/>
  </g>
  <g id="arrowLeft" transform="rotate(270) translate(-36 17)">
    <use xlink:href="#rim"/>
    <path pointer-events="none" fill="none" stroke="white" stroke-width="1.5" d="M0,-3.0v7 M-2.5,-0.5L0,-3.0L2.5,-0.5"/>
  </g>
  <g id="resetDef">
    <use xlink:href="#rim2" fill="#404040"><set attributeName="fill" to="#808080" begin="reset.mouseover" end="reset.mouseout"/></use>
  </g>
</defs>
<script type="application/ecmascript">
var viewWidth = 2064;
var viewHeight = 232;
var sectionId = 'dynsection-0';
</script>
<script type="application/ecmascript" xlink:href="svg.min.js"/>
<svg id="graph" class="graph">
<g id="viewport">
<title>polygon_utils.cpp</title>
<!-- Node1 -->
<g id="Node000001" class="node">
<title>Node1</title>
<g id="a_Node000001"><a xlink:title="Helper functions for polygon operations using CGAL.">
<polygon fill="#999999" stroke="#666666" points="376.62,-224 285.62,-224 285.62,-205.5 376.62,-205.5 376.62,-224"/>
<text text-anchor="middle" x="331.12" y="-210.5" font-family="Helvetica,sans-Serif" font-size="10.00">polygon_utils.cpp</text>
</a>
</g>
</g>
<!-- Node2 -->
<g id="Node000002" class="node">
<title>Node2</title>
<g id="a_Node000002"><a xlink:title=" ">
<polygon fill="#e0e0e0" stroke="#999999" points="77.53,-99.25 48.73,-99.25 48.73,-80.75 77.53,-80.75 77.53,-99.25"/>
<text text-anchor="middle" x="63.12" y="-85.75" font-family="Helvetica,sans-Serif" font-size="10.00">list</text>
</a>
</g>
</g>
<!-- Node1&#45;&gt;Node2 -->
<g id="edge1_Node000001_Node000002" class="edge">
<title>Node1&#45;&gt;Node2</title>
<g id="a_edge1_Node000001_Node000002"><a xlink:title=" ">
<path fill="none" stroke="#63b8ff" d="M326.12,-205.12C316.59,-189.53 294.24,-156.75 266.12,-140.5 197.37,-100.77 166.35,-129.94 91.12,-104.5 90.16,-104.17 89.19,-103.82 88.22,-103.45"/>
<polygon fill="#63b8ff" stroke="#63b8ff" points="89.91,-100.37 79.34,-99.59 87.11,-106.79 89.91,-100.37"/>
</a>
</g>
</g>
<!-- Node3 -->
<g id="Node000003" class="node">
<title>Node3</title>
<g id="a_Node000003"><a xlink:title=" ">
<polygon fill="#e0e0e0" stroke="#999999" points="42.25,-29 0,-29 0,-10.5 42.25,-10.5 42.25,-29"/>
<text text-anchor="middle" x="21.12" y="-15.5" font-family="Helvetica,sans-Serif" font-size="10.00">vector</text>
</a>
</g>
</g>
<!-- Node1&#45;&gt;Node3 -->
<g id="edge2_Node000001_Node000003" class="edge">
<title>Node1&#45;&gt;Node3</title>
<g id="a_edge2_Node000001_Node000003"><a xlink:title=" ">
<path fill="none" stroke="#63b8ff" d="M285.41,-214.09C213.31,-211.75 75.88,-195 22.12,-104.5 10.6,-85.09 12.68,-58.42 16.11,-40.44"/>
<polygon fill="#63b8ff" stroke="#63b8ff" points="19.5,-41.34 18.28,-30.81 12.67,-39.8 19.5,-41.34"/>
</a>
</g>
</g>
<!-- Node4 -->
<g id="Node000004" class="node">
<title>Node4</title>
<g id="a_Node000004"><a xlink:href="config_8h.html" target="_top" xlink:title="Contains the configuration for the CGAL library.">
<polygon fill="white" stroke="#666666" points="926,-104.5 816.25,-104.5 816.25,-75.5 926,-75.5 926,-104.5"/>
<text text-anchor="start" x="824.25" y="-91" font-family="Helvetica,sans-Serif" font-size="10.00">CoverageControl/cgal</text>
<text text-anchor="middle" x="871.12" y="-80.5" font-family="Helvetica,sans-Serif" font-size="10.00">/config.h</text>
</a>
</g>
</g>
<!-- Node1&#45;&gt;Node4 -->
<g id="edge3_Node000001_Node000004" class="edge">
<title>Node1&#45;&gt;Node4</title>
<g id="a_edge3_Node000001_Node000004"><a xlink:title=" ">
<path fill="none" stroke="#63b8ff" d="M369.53,-205.02C460.7,-184.29 691.09,-131.92 805.11,-106.01"/>
<polygon fill="#63b8ff" stroke="#63b8ff" points="805.66,-109.47 814.63,-103.84 804.1,-102.65 805.66,-109.47"/>
</a>
</g>
</g>
<!-- Node19 -->
<g id="Node000019" class="node">
<title>Node19</title>
<g id="a_Node000019"><a xlink:href="polygon__utils_8h.html" target="_top" xlink:title="Provides utilities for polygon manipulation using CGAL.">
<polygon fill="white" stroke="#666666" points="257,-169.5 147.25,-169.5 147.25,-140.5 257,-140.5 257,-169.5"/>
<text text-anchor="start" x="155.25" y="-156" font-family="Helvetica,sans-Serif" font-size="10.00">CoverageControl/cgal</text>
<text text-anchor="middle" x="202.12" y="-145.5" font-family="Helvetica,sans-Serif" font-size="10.00">/polygon_utils.h</text>
</a>
</g>
</g>
<!-- Node1&#45;&gt;Node19 -->
<g id="edge18_Node000001_Node000019" class="edge">
<title>Node1&#45;&gt;Node19</title>
<g id="a_edge18_Node000001_Node000019"><a xlink:title=" ">
<path fill="none" stroke="#63b8ff" d="M311.81,-205.1C293.85,-197.06 266.5,-184.82 243.6,-174.57"/>
<polygon fill="#63b8ff" stroke="#63b8ff" points="245.05,-171.38 234.49,-170.49 242.19,-177.77 245.05,-171.38"/>
</a>
</g>
</g>
<!-- Node23 -->
<g id="Node000023" class="node">
<title>Node23</title>
<g id="a_Node000023"><a xlink:href="utilities_8h.html" target="_top" xlink:title="Contains utility functions for CGAL.">
<polygon fill="white" stroke="#666666" points="427,-169.5 317.25,-169.5 317.25,-140.5 427,-140.5 427,-169.5"/>
<text text-anchor="start" x="325.25" y="-156" font-family="Helvetica,sans-Serif" font-size="10.00">CoverageControl/cgal</text>
<text text-anchor="middle" x="372.12" y="-145.5" font-family="Helvetica,sans-Serif" font-size="10.00">/utilities.h</text>
</a>
</g>
</g>
<!-- Node1&#45;&gt;Node23 -->
<g id="edge24_Node000001_Node000023" class="edge">
<title>Node1&#45;&gt;Node23</title>
<g id="a_edge24_Node000001_Node000023"><a xlink:title=" ">
<path fill="none" stroke="#63b8ff" d="M337.17,-205.23C342.07,-198.34 349.2,-188.29 355.74,-179.08"/>
<polygon fill="#63b8ff" stroke="#63b8ff" points="358.42,-181.35 361.36,-171.17 352.71,-177.3 358.42,-181.35"/>
</a>
</g>
</g>
<!-- Node27 -->
<g id="Node000027" class="node">
<title>Node27</title>
<g id="a_Node000027"><a xlink:href="constants_8h.html" target="_top" xlink:title="Constants for the CoverageControl library.">
<polygon fill="white" stroke="#666666" points="1183.5,-164.25 1040.75,-164.25 1040.75,-145.75 1183.5,-145.75 1183.5,-164.25"/>
<text text-anchor="middle" x="1112.12" y="-150.75" font-family="Helvetica,sans-Serif" font-size="10.00">CoverageControl/constants.h</text>
</a>
</g>
</g>
<!-- Node1&#45;&gt;Node27 -->
<g id="edge32_Node000001_Node000027" class="edge">
<title>Node1&#45;&gt;Node27</title>
<g id="a_edge32_Node000001_Node000027"><a xlink:title=" ">
<path fill="none" stroke="#63b8ff" d="M377.06,-210.35C504.71,-200.91 865.03,-174.27 1029.01,-162.15"/>
<polygon fill="#63b8ff" stroke="#63b8ff" points="1029.25,-165.64 1038.96,-161.41 1028.73,-158.66 1029.25,-165.64"/>
</a>
</g>
</g>
<!-- Node5 -->
<g id="Node000005" class="node">
<title>Node5</title>
<g id="a_Node000005"><a xlink:title=" ">
<polygon fill="#e0e0e0" stroke="#999999" points="937.25,-29 805,-29 805,-10.5 937.25,-10.5 937.25,-29"/>
<text text-anchor="middle" x="871.12" y="-15.5" font-family="Helvetica,sans-Serif" font-size="10.00">CGAL/Arr_linear_traits_2.h</text>
</a>
</g>
</g>
<!-- Node4&#45;&gt;Node5 -->
<g id="edge4_Node000004_Node000005" class="edge">
<title>Node4&#45;&gt;Node5</title>
<g id="a_edge4_Node000004_Node000005"><a xlink:title=" ">
<path fill="none" stroke="#63b8ff" d="M871.12,-75.19C871.12,-65.23 871.12,-51.63 871.12,-40.52"/>
<polygon fill="#63b8ff" stroke="#63b8ff" points="874.63,-40.87 871.13,-30.87 867.63,-40.87 874.63,-40.87"/>
</a>
</g>
</g>
<!-- Node6 -->
<g id="Node000006" class="node">
<title>Node6</title>
<g id="a_Node000006"><a xlink:title=" ">
<polygon fill="#e0e0e0" stroke="#999999" points="1066.75,-34.25 955.5,-34.25 955.5,-5.25 1066.75,-5.25 1066.75,-34.25"/>
<text text-anchor="start" x="963.5" y="-20.75" font-family="Helvetica,sans-Serif" font-size="10.00">CGAL/Arr_walk_along</text>
<text text-anchor="middle" x="1011.12" y="-10.25" font-family="Helvetica,sans-Serif" font-size="10.00">_line_point_location.h</text>
</a>
</g>
</g>
<!-- Node4&#45;&gt;Node6 -->
<g id="edge5_Node000004_Node000006" class="edge">
<title>Node4&#45;&gt;Node6</title>
<g id="a_edge5_Node000004_Node000006"><a xlink:title=" ">
<path fill="none" stroke="#63b8ff" d="M899.79,-75.02C920.74,-64.81 949.39,-50.85 972.38,-39.64"/>
<polygon fill="#63b8ff" stroke="#63b8ff" points="973.68,-42.9 981.13,-35.37 970.61,-36.61 973.68,-42.9"/>
</a>
</g>
</g>
<!-- Node7 -->
<g id="Node000007" class="node">
<title>Node7</title>
<g id="a_Node000007"><a xlink:title=" ">
<polygon fill="#e0e0e0" stroke="#999999" points="1203.88,-29 1084.38,-29 1084.38,-10.5 1203.88,-10.5 1203.88,-29"/>
<text text-anchor="middle" x="1144.12" y="-15.5" font-family="Helvetica,sans-Serif" font-size="10.00">CGAL/Arrangement_2.h</text>
</a>
</g>
</g>
<!-- Node4&#45;&gt;Node7 -->
<g id="edge6_Node000004_Node000007" class="edge">
<title>Node4&#45;&gt;Node7</title>
<g id="a_edge6_Node000004_Node000007"><a xlink:title=" ">
<path fill="none" stroke="#63b8ff" d="M926.49,-76.14C967.82,-66.42 1025.61,-52.56 1076.12,-39.5 1084.62,-37.3 1093.68,-34.87 1102.33,-32.5"/>
<polygon fill="#63b8ff" stroke="#63b8ff" points="1103.21,-35.89 1111.92,-29.86 1101.35,-29.14 1103.21,-35.89"/>
</a>
</g>
</g>
<!-- Node8 -->
<g id="Node000008" class="node">
<title>Node8</title>
<g id="a_Node000008"><a xlink:title=" ">
<polygon fill="#e0e0e0" stroke="#999999" points="1384.62,-29 1221.62,-29 1221.62,-10.5 1384.62,-10.5 1384.62,-29"/>
<text text-anchor="middle" x="1303.12" y="-15.5" font-family="Helvetica,sans-Serif" font-size="10.00">CGAL/Delaunay_triangulation_2.h</text>
</a>
</g>
</g>
<!-- Node4&#45;&gt;Node8 -->
<g id="edge7_Node000004_Node000008" class="edge">
<title>Node4&#45;&gt;Node8</title>
<g id="a_edge7_Node000004_Node000008"><a xlink:title=" ">
<path fill="none" stroke="#63b8ff" d="M926.23,-77.09C929.23,-76.53 932.21,-75.99 935.12,-75.5 1057.95,-54.63 1090.27,-60.22 1213.12,-39.5 1226.27,-37.28 1240.42,-34.52 1253.52,-31.79"/>
<polygon fill="#63b8ff" stroke="#63b8ff" points="1254.17,-35.24 1263.23,-29.74 1252.72,-28.39 1254.17,-35.24"/>
</a>
</g>
</g>
<!-- Node9 -->
<g id="Node000009" class="node">
<title>Node9</title>
<g id="a_Node000009"><a xlink:title=" ">
<polygon fill="#e0e0e0" stroke="#999999" points="1523.25,-39.5 1403,-39.5 1403,0 1523.25,0 1523.25,-39.5"/>
<text text-anchor="start" x="1411" y="-26" font-family="Helvetica,sans-Serif" font-size="10.00">CGAL/Exact_predicates</text>
<text text-anchor="start" x="1411" y="-15.5" font-family="Helvetica,sans-Serif" font-size="10.00">_exact_constructions</text>
<text text-anchor="middle" x="1463.12" y="-5" font-family="Helvetica,sans-Serif" font-size="10.00">_kernel.h</text>
</a>
</g>
</g>
<!-- Node4&#45;&gt;Node9 -->
<g id="edge8_Node000004_Node000009" class="edge">
<title>Node4&#45;&gt;Node9</title>
<g id="a_edge8_Node000004_Node000009"><a xlink:title=" ">
<path fill="none" stroke="#63b8ff" d="M926.2,-76.91C929.21,-76.4 932.2,-75.92 935.12,-75.5 1134,-46.85 1190.48,-73.48 1391.45,-39.78"/>
<polygon fill="#63b8ff" stroke="#63b8ff" points="1391.93,-43.25 1401.19,-38.12 1390.75,-36.35 1391.93,-43.25"/>
</a>
</g>
</g>
<!-- Node10 -->
<g id="Node000010" class="node">
<title>Node10</title>
<g id="a_Node000010"><a xlink:title=" ">
<polygon fill="#e0e0e0" stroke="#999999" points="1669,-29 1541.25,-29 1541.25,-10.5 1669,-10.5 1669,-29"/>
<text text-anchor="middle" x="1605.12" y="-15.5" font-family="Helvetica,sans-Serif" font-size="10.00">CGAL/Partition_traits_2.h</text>
</a>
</g>
</g>
<!-- Node4&#45;&gt;Node10 -->
<g id="edge9_Node000004_Node000010" class="edge">
<title>Node4&#45;&gt;Node10</title>
<g id="a_edge9_Node000004_Node000010"><a xlink:title=" ">
<path fill="none" stroke="#63b8ff" d="M926.19,-76.85C929.21,-76.35 932.2,-75.89 935.12,-75.5 1198.56,-39.97 1269.53,-80.75 1532.12,-39.5 1543.16,-37.77 1554.95,-35.11 1565.77,-32.33"/>
<polygon fill="#63b8ff" stroke="#63b8ff" points="1566.4,-35.78 1575.15,-29.81 1564.59,-29.02 1566.4,-35.78"/>
</a>
</g>
</g>
<!-- Node11 -->
<g id="Node000011" class="node">
<title>Node11</title>
<g id="a_Node000011"><a xlink:title=" ">
<polygon fill="#e0e0e0" stroke="#999999" points="1837.25,-29 1687,-29 1687,-10.5 1837.25,-10.5 1837.25,-29"/>
<text text-anchor="middle" x="1762.12" y="-15.5" font-family="Helvetica,sans-Serif" font-size="10.00">CGAL/Polygon_with_holes_2.h</text>
</a>
</g>
</g>
<!-- Node4&#45;&gt;Node11 -->
<g id="edge10_Node000004_Node000011" class="edge">
<title>Node4&#45;&gt;Node11</title>
<g id="a_edge10_Node000004_Node000011"><a xlink:title=" ">
<path fill="none" stroke="#63b8ff" d="M926.19,-76.8C929.2,-76.32 932.2,-75.88 935.12,-75.5 1263.02,-33.25 1350.48,-83.67 1678.12,-39.5 1691.3,-37.72 1705.46,-34.92 1718.33,-32.01"/>
<polygon fill="#63b8ff" stroke="#63b8ff" points="1718.83,-35.49 1727.77,-29.8 1717.24,-28.67 1718.83,-35.49"/>
</a>
</g>
</g>
<!-- Node12 -->
<g id="Node000012" class="node">
<title>Node12</title>
<g id="a_Node000012"><a xlink:title=" ">
<polygon fill="#e0e0e0" stroke="#999999" points="1944.88,-29 1855.38,-29 1855.38,-10.5 1944.88,-10.5 1944.88,-29"/>
<text text-anchor="middle" x="1900.12" y="-15.5" font-family="Helvetica,sans-Serif" font-size="10.00">CGAL/Random.h</text>
</a>
</g>
</g>
<!-- Node4&#45;&gt;Node12 -->
<g id="edge11_Node000004_Node000012" class="edge">
<title>Node4&#45;&gt;Node12</title>
<g id="a_edge11_Node000004_Node000012"><a xlink:title=" ">
<path fill="none" stroke="#63b8ff" d="M926.18,-76.77C929.2,-76.29 932.2,-75.86 935.12,-75.5 1337.23,-25.51 1447.97,-114.77 1846.12,-39.5 1853.7,-38.07 1861.65,-35.78 1869.05,-33.28"/>
<polygon fill="#63b8ff" stroke="#63b8ff" points="1870.1,-36.62 1878.32,-29.94 1867.73,-30.04 1870.1,-36.62"/>
</a>
</g>
</g>
<!-- Node13 -->
<g id="Node000013" class="node">
<title>Node13</title>
<g id="a_Node000013"><a xlink:title=" ">
<polygon fill="#e0e0e0" stroke="#999999" points="2055.75,-29 1962.5,-29 1962.5,-10.5 2055.75,-10.5 2055.75,-29"/>
<text text-anchor="middle" x="2009.12" y="-15.5" font-family="Helvetica,sans-Serif" font-size="10.00">CGAL/algorithm.h</text>
</a>
</g>
</g>
<!-- Node4&#45;&gt;Node13 -->
<g id="edge12_Node000004_Node000013" class="edge">
<title>Node4&#45;&gt;Node13</title>
<g id="a_edge12_Node000004_Node000013"><a xlink:title=" ">
<path fill="none" stroke="#63b8ff" d="M926.18,-76.76C929.2,-76.28 932.19,-75.86 935.12,-75.5 1384.95,-20.53 1508.43,-121.49 1954.12,-39.5 1961.92,-38.07 1970.12,-35.74 1977.73,-33.22"/>
<polygon fill="#63b8ff" stroke="#63b8ff" points="1978.68,-36.59 1986.93,-29.95 1976.33,-30 1978.68,-36.59"/>
</a>
</g>
</g>
<!-- Node14 -->
<g id="Node000014" class="node">
<title>Node14</title>
<g id="a_Node000014"><a xlink:title=" ">
<polygon fill="#e0e0e0" stroke="#999999" points="298.12,-29 210.12,-29 210.12,-10.5 298.12,-10.5 298.12,-29"/>
<text text-anchor="middle" x="254.12" y="-15.5" font-family="Helvetica,sans-Serif" font-size="10.00">CGAL/centroid.h</text>
</a>
</g>
</g>
<!-- Node4&#45;&gt;Node14 -->
<g id="edge13_Node000004_Node000014" class="edge">
<title>Node4&#45;&gt;Node14</title>
<g id="a_edge13_Node000004_Node000014"><a xlink:title=" ">
<path fill="none" stroke="#63b8ff" d="M815.82,-84.53C678.6,-73.37 331.74,-44.84 307.12,-39.5 300.07,-37.97 292.68,-35.76 285.72,-33.39"/>
<polygon fill="#63b8ff" stroke="#63b8ff" points="286.94,-30.11 276.34,-29.99 284.55,-36.69 286.94,-30.11"/>
</a>
</g>
</g>
<!-- Node15 -->
<g id="Node000015" class="node">
<title>Node15</title>
<g id="a_Node000015"><a xlink:title=" ">
<polygon fill="#e0e0e0" stroke="#999999" points="415.75,-29 316.5,-29 316.5,-10.5 415.75,-10.5 415.75,-29"/>
<text text-anchor="middle" x="366.12" y="-15.5" font-family="Helvetica,sans-Serif" font-size="10.00">CGAL/partition_2.h</text>
</a>
</g>
</g>
<!-- Node4&#45;&gt;Node15 -->
<g id="edge14_Node000004_Node000015" class="edge">
<title>Node4&#45;&gt;Node15</title>
<g id="a_edge14_Node000004_Node000015"><a xlink:title=" ">
<path fill="none" stroke="#63b8ff" d="M815.95,-84.25C713.7,-75.21 498.48,-55.07 425.12,-39.5 417.05,-37.79 408.51,-35.41 400.51,-32.93"/>
<polygon fill="#63b8ff" stroke="#63b8ff" points="401.7,-29.64 391.11,-29.87 399.53,-36.29 401.7,-29.64"/>
</a>
</g>
</g>
<!-- Node16 -->
<g id="Node000016" class="node">
<title>Node16</title>
<g id="a_Node000016"><a xlink:title=" ">
<polygon fill="#e0e0e0" stroke="#999999" points="570.5,-29 433.75,-29 433.75,-10.5 570.5,-10.5 570.5,-29"/>
<text text-anchor="middle" x="502.12" y="-15.5" font-family="Helvetica,sans-Serif" font-size="10.00">CGAL/point_generators_2.h</text>
</a>
</g>
</g>
<!-- Node4&#45;&gt;Node16 -->
<g id="edge15_Node000004_Node000016" class="edge">
<title>Node4&#45;&gt;Node16</title>
<g id="a_edge15_Node000004_Node000016"><a xlink:title=" ">
<path fill="none" stroke="#63b8ff" d="M815.94,-80.75C757.26,-71.71 661.83,-56.25 580.12,-39.5 569.39,-37.3 557.89,-34.68 547.1,-32.11"/>
<polygon fill="#63b8ff" stroke="#63b8ff" points="548.2,-28.77 537.66,-29.82 546.55,-35.58 548.2,-28.77"/>
</a>
</g>
</g>
<!-- Node17 -->
<g id="Node000017" class="node">
<title>Node17</title>
<g id="a_Node000017"><a xlink:title=" ">
<polygon fill="#e0e0e0" stroke="#999999" points="723.38,-29 588.88,-29 588.88,-10.5 723.38,-10.5 723.38,-29"/>
<text text-anchor="middle" x="656.12" y="-15.5" font-family="Helvetica,sans-Serif" font-size="10.00">CGAL/random_polygon_2.h</text>
</a>
</g>
</g>
<!-- Node4&#45;&gt;Node17 -->
<g id="edge16_Node000004_Node000017" class="edge">
<title>Node4&#45;&gt;Node17</title>
<g id="a_edge16_Node000004_Node000017"><a xlink:title=" ">
<path fill="none" stroke="#63b8ff" d="M827.1,-75.02C788.02,-62.62 731.5,-44.68 694.3,-32.87"/>
<polygon fill="#63b8ff" stroke="#63b8ff" points="695.45,-29.56 684.86,-29.87 693.33,-36.23 695.45,-29.56"/>
</a>
</g>
</g>
<!-- Node18 -->
<g id="Node000018" class="node">
<title>Node18</title>
<g id="a_Node000018"><a xlink:title=" ">
<polygon fill="#e0e0e0" stroke="#999999" points="787.12,-29 741.12,-29 741.12,-10.5 787.12,-10.5 787.12,-29"/>
<text text-anchor="middle" x="764.12" y="-15.5" font-family="Helvetica,sans-Serif" font-size="10.00">iterator</text>
</a>
</g>
</g>
<!-- Node4&#45;&gt;Node18 -->
<g id="edge17_Node000004_Node000018" class="edge">
<title>Node4&#45;&gt;Node18</title>
<g id="a_edge17_Node000004_Node000018"><a xlink:title=" ">
<path fill="none" stroke="#63b8ff" d="M849.21,-75.02C831.14,-63.49 805.57,-47.19 787.19,-35.46"/>
<polygon fill="#63b8ff" stroke="#63b8ff" points="789.14,-32.56 778.83,-30.13 785.38,-38.46 789.14,-32.56"/>
</a>
</g>
</g>
<!-- Node19&#45;&gt;Node3 -->
<g id="edge19_Node000019_Node000003" class="edge">
<title>Node19&#45;&gt;Node3</title>
<g id="a_edge19_Node000019_Node000003"><a xlink:title=" ">
<path fill="none" stroke="#63b8ff" d="M147.04,-150.94C111.69,-146.03 67.45,-133.91 40.12,-104.5 24.13,-87.28 20.63,-59.52 20.3,-40.72"/>
<polygon fill="#63b8ff" stroke="#63b8ff" points="23.8,-40.94 20.44,-30.89 16.8,-40.84 23.8,-40.94"/>
</a>
</g>
</g>
<!-- Node20 -->
<g id="Node000020" class="node">
<title>Node20</title>
<g id="a_Node000020"><a xlink:href="typedefs_8h.html" target="_top" xlink:title="Contains typedefs for the library.">
<polygon fill="white" stroke="#666666" points="270.88,-99.25 133.38,-99.25 133.38,-80.75 270.88,-80.75 270.88,-99.25"/>
<text text-anchor="middle" x="202.12" y="-85.75" font-family="Helvetica,sans-Serif" font-size="10.00">CoverageControl/typedefs.h</text>
</a>
</g>
</g>
<!-- Node19&#45;&gt;Node20 -->
<g id="edge20_Node000019_Node000020" class="edge">
<title>Node19&#45;&gt;Node20</title>
<g id="a_edge20_Node000019_Node000020"><a xlink:title=" ">
<path fill="none" stroke="#63b8ff" d="M202.12,-140.02C202.12,-131.54 202.12,-120.59 202.12,-111.19"/>
<polygon fill="#63b8ff" stroke="#63b8ff" points="205.63,-111.22 202.13,-101.22 198.63,-111.22 205.63,-111.22"/>
</a>
</g>
</g>
<!-- Node20&#45;&gt;Node3 -->
<g id="edge23_Node000020_Node000003" class="edge">
<title>Node20&#45;&gt;Node3</title>
<g id="a_edge23_Node000020_Node000003"><a xlink:title=" ">
<path fill="none" stroke="#63b8ff" d="M167.64,-80.26C136.43,-71.76 89.61,-57.51 51.12,-39.5 48.5,-38.27 45.82,-36.86 43.19,-35.37"/>
<polygon fill="#63b8ff" stroke="#63b8ff" points="45.23,-32.51 34.88,-30.28 41.58,-38.48 45.23,-32.51"/>
</a>
</g>
</g>
<!-- Node21 -->
<g id="Node000021" class="node">
<title>Node21</title>
<g id="a_Node000021"><a xlink:title=" ">
<polygon fill="#e0e0e0" stroke="#999999" points="192.25,-29 120,-29 120,-10.5 192.25,-10.5 192.25,-29"/>
<text text-anchor="middle" x="156.12" y="-15.5" font-family="Helvetica,sans-Serif" font-size="10.00">Eigen/Dense</text>
</a>
</g>
</g>
<!-- Node20&#45;&gt;Node21 -->
<g id="edge21_Node000020_Node000021" class="edge">
<title>Node20&#45;&gt;Node21</title>
<g id="a_edge21_Node000020_Node000021"><a xlink:title=" ">
<path fill="none" stroke="#63b8ff" d="M196.3,-80.36C189.21,-69.84 177.06,-51.81 167.98,-38.33"/>
<polygon fill="#63b8ff" stroke="#63b8ff" points="171.1,-36.7 162.61,-30.37 165.29,-40.61 171.1,-36.7"/>
</a>
</g>
</g>
<!-- Node22 -->
<g id="Node000022" class="node">
<title>Node22</title>
<g id="a_Node000022"><a xlink:title=" ">
<polygon fill="#e0e0e0" stroke="#999999" points="102.25,-29 60,-29 60,-10.5 102.25,-10.5 102.25,-29"/>
<text text-anchor="middle" x="81.12" y="-15.5" font-family="Helvetica,sans-Serif" font-size="10.00">queue</text>
</a>
</g>
</g>
<!-- Node20&#45;&gt;Node22 -->
<g id="edge22_Node000020_Node000022" class="edge">
<title>Node20&#45;&gt;Node22</title>
<g id="a_edge22_Node000020_Node000022"><a xlink:title=" ">
<path fill="none" stroke="#63b8ff" d="M185.52,-80.35C167.15,-70.7 136.75,-54.46 111.12,-39.5 108.8,-38.14 106.39,-36.7 103.99,-35.24"/>
<polygon fill="#63b8ff" stroke="#63b8ff" points="106.09,-32.42 95.75,-30.12 102.4,-38.37 106.09,-32.42"/>
</a>
</g>
</g>
<!-- Node23&#45;&gt;Node2 -->
<g id="edge29_Node000023_Node000002" class="edge">
<title>Node23&#45;&gt;Node2</title>
<g id="a_edge29_Node000023_Node000002"><a xlink:title=" ">
<path fill="none" stroke="#63b8ff" d="M317.1,-143.44C311.71,-142.43 306.31,-141.44 301.12,-140.5 207.94,-123.66 181.32,-133.34 91.12,-104.5 90.16,-104.19 89.18,-103.85 88.2,-103.5"/>
<polygon fill="#63b8ff" stroke="#63b8ff" points="89.88,-100.41 79.31,-99.68 87.12,-106.84 89.88,-100.41"/>
</a>
</g>
</g>
<!-- Node23&#45;&gt;Node3 -->
<g id="edge28_Node000023_Node000003" class="edge">
<title>Node23&#45;&gt;Node3</title>
<g id="a_edge28_Node000023_Node000003"><a xlink:title=" ">
<path fill="none" stroke="#63b8ff" d="M316.87,-143.67C246.48,-130.4 132.85,-108.61 124.12,-104.5 119.35,-102.25 68.62,-60.29 40.18,-36.64"/>
<polygon fill="#63b8ff" stroke="#63b8ff" points="42.58,-34.08 32.65,-30.37 38.1,-39.46 42.58,-34.08"/>
</a>
</g>
</g>
<!-- Node23&#45;&gt;Node4 -->
<g id="edge31_Node000023_Node000004" class="edge">
<title>Node23&#45;&gt;Node4</title>
<g id="a_edge31_Node000023_Node000004"><a xlink:title=" ">
<path fill="none" stroke="#63b8ff" d="M427.43,-147.02C519.82,-135.35 705.17,-111.95 804.56,-99.4"/>
<polygon fill="#63b8ff" stroke="#63b8ff" points="804.97,-102.88 814.45,-98.16 804.09,-95.94 804.97,-102.88"/>
</a>
</g>
</g>
<!-- Node23&#45;&gt;Node20 -->
<g id="edge30_Node000023_Node000020" class="edge">
<title>Node23&#45;&gt;Node20</title>
<g id="a_edge30_Node000023_Node000020"><a xlink:title=" ">
<path fill="none" stroke="#63b8ff" d="M334.4,-140.02C305.04,-129.14 264.64,-114.17 236.24,-103.64"/>
<polygon fill="#63b8ff" stroke="#63b8ff" points="237.63,-100.43 227.04,-100.23 235.2,-106.99 237.63,-100.43"/>
</a>
</g>
</g>
<!-- Node24 -->
<g id="Node000024" class="node">
<title>Node24</title>
<g id="a_Node000024"><a xlink:title=" ">
<polygon fill="#e0e0e0" stroke="#999999" points="457.25,-99.25 289,-99.25 289,-80.75 457.25,-80.75 457.25,-99.25"/>
<text text-anchor="middle" x="373.12" y="-85.75" font-family="Helvetica,sans-Serif" font-size="10.00">CGAL/Boolean_set_operations_2.h</text>
</a>
</g>
</g>
<!-- Node23&#45;&gt;Node24 -->
<g id="edge25_Node000023_Node000024" class="edge">
<title>Node23&#45;&gt;Node24</title>
<g id="a_edge25_Node000023_Node000024"><a xlink:title=" ">
<path fill="none" stroke="#63b8ff" d="M372.35,-140.02C372.48,-131.54 372.66,-120.59 372.8,-111.19"/>
<polygon fill="#63b8ff" stroke="#63b8ff" points="376.3,-111.27 372.96,-101.22 369.3,-111.16 376.3,-111.27"/>
</a>
</g>
</g>
<!-- Node25 -->
<g id="Node000025" class="node">
<title>Node25</title>
<g id="a_Node000025"><a xlink:title=" ">
<polygon fill="#e0e0e0" stroke="#999999" points="624.5,-99.25 475.75,-99.25 475.75,-80.75 624.5,-80.75 624.5,-99.25"/>
<text text-anchor="middle" x="550.12" y="-85.75" font-family="Helvetica,sans-Serif" font-size="10.00">CGAL/Polygon_2_algorithms.h</text>
</a>
</g>
</g>
<!-- Node23&#45;&gt;Node25 -->
<g id="edge26_Node000023_Node000025" class="edge">
<title>Node23&#45;&gt;Node25</title>
<g id="a_edge26_Node000023_Node000025"><a xlink:title=" ">
<path fill="none" stroke="#63b8ff" d="M411.63,-140.02C442.51,-129.09 485.04,-114.04 514.8,-103.5"/>
<polygon fill="#63b8ff" stroke="#63b8ff" points="515.84,-106.85 524.1,-100.21 513.51,-100.25 515.84,-106.85"/>
</a>
</g>
</g>
<!-- Node26 -->
<g id="Node000026" class="node">
<title>Node26</title>
<g id="a_Node000026"><a xlink:title=" ">
<polygon fill="#e0e0e0" stroke="#999999" points="685.62,-99.25 642.62,-99.25 642.62,-80.75 685.62,-80.75 685.62,-99.25"/>
<text text-anchor="middle" x="664.12" y="-85.75" font-family="Helvetica,sans-Serif" font-size="10.00">omp.h</text>
</a>
</g>
</g>
<!-- Node23&#45;&gt;Node26 -->
<g id="edge27_Node000023_Node000026" class="edge">
<title>Node23&#45;&gt;Node26</title>
<g id="a_edge27_Node000023_Node000026"><a xlink:title=" ">
<path fill="none" stroke="#63b8ff" d="M427.48,-147.16C480.92,-139.71 563.71,-125.9 633.12,-104.5 633.92,-104.25 634.73,-103.99 635.54,-103.72"/>
<polygon fill="#63b8ff" stroke="#63b8ff" points="636.53,-107.09 644.61,-100.23 634.02,-100.55 636.53,-107.09"/>
</a>
</g>
</g>
<!-- Node28 -->
<g id="Node000028" class="node">
<title>Node28</title>
<g id="a_Node000028"><a xlink:title=" ">
<polygon fill="#e0e0e0" stroke="#999999" points="1133.62,-99.25 1090.62,-99.25 1090.62,-80.75 1133.62,-80.75 1133.62,-99.25"/>
<text text-anchor="middle" x="1112.12" y="-85.75" font-family="Helvetica,sans-Serif" font-size="10.00">cmath</text>
</a>
</g>
</g>
<!-- Node27&#45;&gt;Node28 -->
<g id="edge33_Node000027_Node000028" class="edge">
<title>Node27&#45;&gt;Node28</title>
<g id="a_edge33_Node000027_Node000028"><a xlink:title=" ">
<path fill="none" stroke="#63b8ff" d="M1112.12,-145.5C1112.12,-136.62 1112.12,-122.38 1112.12,-110.68"/>
<polygon fill="#63b8ff" stroke="#63b8ff" points="1115.63,-110.88 1112.13,-100.88 1108.63,-110.88 1115.63,-110.88"/>
</a>
</g>
</g>
<!-- Node29 -->
<g id="Node000029" class="node">
<title>Node29</title>
<g id="a_Node000029"><a xlink:title=" ">
<polygon fill="#e0e0e0" stroke="#999999" points="1190.75,-99.25 1151.5,-99.25 1151.5,-80.75 1190.75,-80.75 1190.75,-99.25"/>
<text text-anchor="middle" x="1171.12" y="-85.75" font-family="Helvetica,sans-Serif" font-size="10.00">limits</text>
</a>
</g>
</g>
<!-- Node27&#45;&gt;Node29 -->
<g id="edge34_Node000027_Node000029" class="edge">
<title>Node27&#45;&gt;Node29</title>
<g id="a_edge34_Node000027_Node000029"><a xlink:title=" ">
<path fill="none" stroke="#63b8ff" d="M1120.08,-145.5C1129.11,-135.87 1144.04,-119.92 1155.43,-107.76"/>
<polygon fill="#63b8ff" stroke="#63b8ff" points="1157.98,-110.16 1162.26,-100.47 1152.87,-105.37 1157.98,-110.16"/>
</a>
</g>
</g>
<!-- Node30 -->
<g id="Node000030" class="node">
<title>Node30</title>
<g id="a_Node000030"><a xlink:title=" ">
<polygon fill="#e0e0e0" stroke="#999999" points="1249.12,-99.25 1209.12,-99.25 1209.12,-80.75 1249.12,-80.75 1249.12,-99.25"/>
<text text-anchor="middle" x="1229.12" y="-85.75" font-family="Helvetica,sans-Serif" font-size="10.00">string</text>
</a>
</g>
</g>
<!-- Node27&#45;&gt;Node30 -->
<g id="edge35_Node000027_Node000030" class="edge">
<title>Node27&#45;&gt;Node30</title>
<g id="a_edge35_Node000027_Node000030"><a xlink:title=" ">
<path fill="none" stroke="#63b8ff" d="M1127.9,-145.5C1147.18,-135.12 1180.07,-117.42 1203.11,-105.01"/>
<polygon fill="#63b8ff" stroke="#63b8ff" points="1204.74,-108.1 1211.89,-100.28 1201.43,-101.94 1204.74,-108.1"/>
</a>
</g>
</g>
<!-- Node31 -->
<g id="Node000031" class="node">
<title>Node31</title>
<g id="a_Node000031"><a xlink:title=" ">
<polygon fill="#e0e0e0" stroke="#999999" points="1072.38,-99.25 943.88,-99.25 943.88,-80.75 1072.38,-80.75 1072.38,-99.25"/>
<text text-anchor="middle" x="1008.12" y="-85.75" font-family="Helvetica,sans-Serif" font-size="10.00">CoverageControl/Config.h</text>
</a>
</g>
</g>
<!-- Node27&#45;&gt;Node31 -->
<g id="edge36_Node000027_Node000031" class="edge">
<title>Node27&#45;&gt;Node31</title>
<g id="a_edge36_Node000027_Node000031"><a xlink:title=" ">
<path fill="none" stroke="#63b8ff" d="M1098.1,-145.5C1081.2,-135.26 1052.52,-117.9 1032.09,-105.52"/>
<polygon fill="#63b8ff" stroke="#63b8ff" points="1033.92,-102.53 1023.56,-100.35 1030.3,-108.52 1033.92,-102.53"/>
</a>
</g>
</g>
</g>
</svg>

<g id="navigator" transform="translate(0 0)" fill="#404254">
  <rect fill="#f2f5e9" fill-opacity="0.5" stroke="#606060" stroke-width=".5" x="0" y="0" width="60" height="60"/>
  <use id="zoomplus" xlink:href="#zoomPlus" x="17" y="9" onmousedown="handleZoom(evt,'in')"/>
  <use id="zoomminus" xlink:href="#zoomMin" x="42" y="9" onmousedown="handleZoom(evt,'out')"/>
  <use id="reset" xlink:href="#resetDef" x="30" y="36" onmousedown="handleReset()"/>
   <use id="arrowup" xlink:href="#arrowUp" x="0" y="0" onmousedown="handlePan(0,-1)"/>
  <use id="arrowright" xlink:href="#arrowRight" x="0" y="0" onmousedown="handlePan(1,0)"/>
  <use id="arrowdown" xlink:href="#arrowDown" x="0" y="0" onmousedown="handlePan(0,1)"/>
  <use id="arrowleft" xlink:href="#arrowLeft" x="0" y="0" onmousedown="handlePan(-1,0)"/>
</g>
<svg viewBox="0 0 15 15" width="100%" height="30px" preserveAspectRatio="xMaxYMin meet">
 <g id="arrow_out" transform="scale(0.3 0.3)">
  <a xlink:href="polygon__utils_8cpp__incl_org.svg" target="_base">
   <rect id="button" ry="5" rx="5" y="6" x="6" height="38" width="38"
        fill="#f2f5e9" fill-opacity="0.5" stroke="#606060" stroke-width="1.0"/>
   <path id="arrow"
     d="M 11.500037,31.436501 C 11.940474,20.09759 22.043105,11.32322 32.158766,21.979434 L 37.068811,17.246167 C 37.068811,17.246167 37.088388,32 37.088388,32 L 22.160133,31.978069 C 22.160133,31.978069 26.997745,27.140456 26.997745,27.140456 C 18.528582,18.264221 13.291696,25.230495 11.500037,31.436501 z"
     style="fill:#404040;"/>
  </a>
 </g>
</svg>

<style type='text/css'>
<![CDATA[
[data-mouse-over-selected='false'] { opacity: 0.7; }
[data-mouse-over-selected='true']  { opacity: 1.0; }
]]>
</style>
<script type="application/ecmascript"><![CDATA[
document.addEventListener('DOMContentLoaded', (event) => {
  highlightEdges();
  highlightAdjacentNodes();
});
]]></script>
</svg>
