<?xml version="1.0" encoding="UTF-8" standalone="no"?>
<!DOCTYPE svg PUBLIC "-//W3C//DTD SVG 1.1//EN"
 "http://www.w3.org/Graphics/SVG/1.1/DTD/svg11.dtd">
<!-- Generated by graphviz version 10.0.1 (0)
 -->
<!-- Title: polygon_utils.cpp Pages: 1 -->
<!--zoomable 232 -->

<svg id="main" version="1.1" xmlns="http://www.w3.org/2000/svg" xmlns:xlink="http://www.w3.org/1999/xlink" xml:space="preserve" onload="init(evt)">
<style type="text/css"><![CDATA[
.node, .edge {opacity: 0.7;}
.node.selected, .edge.selected {opacity: 1;}
.edge:hover path { stroke: red; }
.edge:hover polygon { stroke: red; fill: red; }
]]></style>

<defs>
  <circle id="rim" cx="0" cy="0" r="7"/>
  <circle id="rim2" cx="0" cy="0" r="3.5"/>
  <g id="zoomPlus">
    <use xlink:href="#rim" fill="#404040"><set attributeName="fill" to="#808080" begin="zoomplus.mouseover" end="zoomplus.mouseout"/></use>
    <path d="M-4,0h8M0,-4v8" fill="none" stroke="white" stroke-width="1.5" pointer-events="none"/>
  </g>
  <g id="zoomMin">
    <use xlink:href="#rim" fill="#404040"><set attributeName="fill" to="#808080" begin="zoomminus.mouseover" end="zoomminus.mouseout"/></use>
    <path d="M-4,0h8" fill="none" stroke="white" stroke-width="1.5" pointer-events="none"/>
  </g>
  <g id="arrowUp" transform="translate(30 24)">
    <use xlink:href="#rim"/>
    <path pointer-events="none" fill="none" stroke="white" stroke-width="1.5" d="M0,-3.0v7 M-2.5,-0.5L0,-3.0L2.5,-0.5"/>
  </g>
  <g id="arrowRight" transform="rotate(90) translate(36 -43)">
    <use xlink:href="#rim"/>
    <path pointer-events="none" fill="none" stroke="white" stroke-width="1.5" d="M0,-3.0v7 M-2.5,-0.5L0,-3.0L2.5,-0.5"/>
  </g>
  <g id="arrowDown" transform="rotate(180) translate(-30 -48)">
    <use xlink:href="#rim"/>
    <path pointer-events="none" fill="none" stroke="white" stroke-width="1.5" d="M0,-3.0v7 M-2.5,-0.5L0,-3.0L2.5,-0.5"/>
  </g>
  <g id="arrowLeft" transform="rotate(270) translate(-36 17)">
    <use xlink:href="#rim"/>
    <path pointer-events="none" fill="none" stroke="white" stroke-width="1.5" d="M0,-3.0v7 M-2.5,-0.5L0,-3.0L2.5,-0.5"/>
  </g>
  <g id="resetDef">
    <use xlink:href="#rim2" fill="#404040"><set attributeName="fill" to="#808080" begin="reset.mouseover" end="reset.mouseout"/></use>
  </g>
</defs>
<script type="application/ecmascript">
var viewWidth = 1965;
var viewHeight = 232;
var sectionId = 'dynsection-0';
</script>
<script type="application/ecmascript" xlink:href="svg.min.js"/>
<svg id="graph" class="graph">
<g id="viewport">
<title>polygon_utils.cpp</title>
<!-- Node1 -->
<g id="Node000001" class="node">
<title>Node1</title>
<g id="a_Node000001"><a xlink:title="Helper functions for polygon operations using CGAL.">
<polygon fill="#999999" stroke="#666666" points="354.64,-224 263.64,-224 263.64,-205.5 354.64,-205.5 354.64,-224"/>
<text text-anchor="middle" x="309.14" y="-210.5" font-family="Helvetica,sans-Serif" font-size="10.00">polygon_utils.cpp</text>
</a>
</g>
</g>
<!-- Node2 -->
<g id="Node000002" class="node">
<title>Node2</title>
<g id="a_Node000002"><a xlink:title=" ">
<polygon fill="#e0e0e0" stroke="#999999" points="52.54,-99.25 23.74,-99.25 23.74,-80.75 52.54,-80.75 52.54,-99.25"/>
<text text-anchor="middle" x="38.14" y="-85.75" font-family="Helvetica,sans-Serif" font-size="10.00">list</text>
</a>
</g>
</g>
<!-- Node1&#45;&gt;Node2 -->
<g id="edge1_Node000001_Node000002" class="edge">
<title>Node1&#45;&gt;Node2</title>
<g id="a_edge1_Node000001_Node000002"><a xlink:title=" ">
<path fill="none" stroke="#63b8ff" d="M287.67,-205.07C246.02,-188.06 151.27,-148.53 63.15,-104.73"/>
<polygon fill="#63b8ff" stroke="#63b8ff" points="64.86,-101.67 54.35,-100.33 61.73,-107.93 64.86,-101.67"/>
</a>
</g>
</g>
<!-- Node3 -->
<g id="Node000003" class="node">
<title>Node3</title>
<g id="a_Node000003"><a xlink:title=" ">
<polygon fill="#e0e0e0" stroke="#999999" points="423.26,-29 381.01,-29 381.01,-10.5 423.26,-10.5 423.26,-29"/>
<text text-anchor="middle" x="402.14" y="-15.5" font-family="Helvetica,sans-Serif" font-size="10.00">vector</text>
</a>
</g>
</g>
<!-- Node1&#45;&gt;Node3 -->
<g id="edge2_Node000001_Node000003" class="edge">
<title>Node1&#45;&gt;Node3</title>
<g id="a_edge2_Node000001_Node000003"><a xlink:title=" ">
<path fill="none" stroke="#63b8ff" d="M263.22,-209.11C163.33,-197.33 -59.02,-160.88 15.14,-75.5 61.04,-22.65 284.33,-19.42 369.26,-20.16"/>
<polygon fill="#63b8ff" stroke="#63b8ff" points="368.97,-23.66 379.01,-20.28 369.05,-16.66 368.97,-23.66"/>
</a>
</g>
</g>
<!-- Node4 -->
<g id="Node000004" class="node">
<title>Node4</title>
<g id="a_Node000004"><a xlink:href="config_8h.html" target="_top" xlink:title="Contains the configuration for the CGAL library.">
<polygon fill="white" stroke="#666666" points="1175.01,-104.5 1065.26,-104.5 1065.26,-75.5 1175.01,-75.5 1175.01,-104.5"/>
<text text-anchor="start" x="1073.26" y="-91" font-family="Helvetica,sans-Serif" font-size="10.00">CoverageControl/cgal</text>
<text text-anchor="middle" x="1120.14" y="-80.5" font-family="Helvetica,sans-Serif" font-size="10.00">/config.h</text>
</a>
</g>
</g>
<!-- Node1&#45;&gt;Node4 -->
<g id="edge3_Node000001_Node000004" class="edge">
<title>Node1&#45;&gt;Node4</title>
<g id="a_edge3_Node000001_Node000004"><a xlink:title=" ">
<path fill="none" stroke="#63b8ff" d="M355.07,-206.8C491.36,-186.17 893.93,-125.24 1053.7,-101.06"/>
<polygon fill="#63b8ff" stroke="#63b8ff" points="1053.92,-104.56 1063.29,-99.61 1052.87,-97.64 1053.92,-104.56"/>
</a>
</g>
</g>
<!-- Node15 -->
<g id="Node000015" class="node">
<title>Node15</title>
<g id="a_Node000015"><a xlink:href="polygon__utils_8h.html" target="_top" xlink:title="Provides utilities for polygon manipulation using CGAL.">
<polygon fill="white" stroke="#666666" points="588.01,-169.5 478.26,-169.5 478.26,-140.5 588.01,-140.5 588.01,-169.5"/>
<text text-anchor="start" x="486.26" y="-156" font-family="Helvetica,sans-Serif" font-size="10.00">CoverageControl/cgal</text>
<text text-anchor="middle" x="533.14" y="-145.5" font-family="Helvetica,sans-Serif" font-size="10.00">/polygon_utils.h</text>
</a>
</g>
</g>
<!-- Node1&#45;&gt;Node15 -->
<g id="edge14_Node000001_Node000015" class="edge">
<title>Node1&#45;&gt;Node15</title>
<g id="a_edge14_Node000001_Node000015"><a xlink:title=" ">
<path fill="none" stroke="#63b8ff" d="M342.67,-205.1C375.65,-196.6 426.88,-183.4 467.9,-172.82"/>
<polygon fill="#63b8ff" stroke="#63b8ff" points="468.63,-176.25 477.44,-170.36 466.88,-169.47 468.63,-176.25"/>
</a>
</g>
</g>
<!-- Node19 -->
<g id="Node000019" class="node">
<title>Node19</title>
<g id="a_Node000019"><a xlink:href="utilities_8h.html" target="_top" xlink:title="Contains utility functions for CGAL.">
<polygon fill="white" stroke="#666666" points="364.01,-169.5 254.26,-169.5 254.26,-140.5 364.01,-140.5 364.01,-169.5"/>
<text text-anchor="start" x="262.26" y="-156" font-family="Helvetica,sans-Serif" font-size="10.00">CoverageControl/cgal</text>
<text text-anchor="middle" x="309.14" y="-145.5" font-family="Helvetica,sans-Serif" font-size="10.00">/utilities.h</text>
</a>
</g>
</g>
<!-- Node1&#45;&gt;Node19 -->
<g id="edge20_Node000001_Node000019" class="edge">
<title>Node1&#45;&gt;Node19</title>
<g id="a_edge20_Node000001_Node000019"><a xlink:title=" ">
<path fill="none" stroke="#63b8ff" d="M309.14,-205.23C309.14,-198.92 309.14,-189.96 309.14,-181.42"/>
<polygon fill="#63b8ff" stroke="#63b8ff" points="312.64,-181.45 309.14,-171.45 305.64,-181.45 312.64,-181.45"/>
</a>
</g>
</g>
<!-- Node5 -->
<g id="Node000005" class="node">
<title>Node5</title>
<g id="a_Node000005"><a xlink:title=" ">
<polygon fill="#e0e0e0" stroke="#999999" points="833.26,-29 701.01,-29 701.01,-10.5 833.26,-10.5 833.26,-29"/>
<text text-anchor="middle" x="767.14" y="-15.5" font-family="Helvetica,sans-Serif" font-size="10.00">CGAL/Arr_linear_traits_2.h</text>
</a>
</g>
</g>
<!-- Node4&#45;&gt;Node5 -->
<g id="edge4_Node000004_Node000005" class="edge">
<title>Node4&#45;&gt;Node5</title>
<g id="a_edge4_Node000004_Node000005"><a xlink:title=" ">
<path fill="none" stroke="#63b8ff" d="M1064.8,-80.3C1008.54,-71.18 918.96,-55.92 842.14,-39.5 832.03,-37.34 821.22,-34.78 811.04,-32.26"/>
<polygon fill="#63b8ff" stroke="#63b8ff" points="811.9,-28.87 801.35,-29.82 810.19,-35.66 811.9,-28.87"/>
</a>
</g>
</g>
<!-- Node6 -->
<g id="Node000006" class="node">
<title>Node6</title>
<g id="a_Node000006"><a xlink:title=" ">
<polygon fill="#e0e0e0" stroke="#999999" points="962.76,-34.25 851.51,-34.25 851.51,-5.25 962.76,-5.25 962.76,-34.25"/>
<text text-anchor="start" x="859.51" y="-20.75" font-family="Helvetica,sans-Serif" font-size="10.00">CGAL/Arr_walk_along</text>
<text text-anchor="middle" x="907.14" y="-10.25" font-family="Helvetica,sans-Serif" font-size="10.00">_line_point_location.h</text>
</a>
</g>
</g>
<!-- Node4&#45;&gt;Node6 -->
<g id="edge5_Node000004_Node000006" class="edge">
<title>Node4&#45;&gt;Node6</title>
<g id="a_edge5_Node000004_Node000006"><a xlink:title=" ">
<path fill="none" stroke="#63b8ff" d="M1076.52,-75.02C1043.21,-64.35 997.11,-49.58 961.42,-38.14"/>
<polygon fill="#63b8ff" stroke="#63b8ff" points="962.73,-34.89 952.14,-35.17 960.59,-41.55 962.73,-34.89"/>
</a>
</g>
</g>
<!-- Node7 -->
<g id="Node000007" class="node">
<title>Node7</title>
<g id="a_Node000007"><a xlink:title=" ">
<polygon fill="#e0e0e0" stroke="#999999" points="1099.89,-29 980.39,-29 980.39,-10.5 1099.89,-10.5 1099.89,-29"/>
<text text-anchor="middle" x="1040.14" y="-15.5" font-family="Helvetica,sans-Serif" font-size="10.00">CGAL/Arrangement_2.h</text>
</a>
</g>
</g>
<!-- Node4&#45;&gt;Node7 -->
<g id="edge6_Node000004_Node000007" class="edge">
<title>Node4&#45;&gt;Node7</title>
<g id="a_edge6_Node000004_Node000007"><a xlink:title=" ">
<path fill="none" stroke="#63b8ff" d="M1103.95,-75.19C1090.89,-64.05 1072.51,-48.37 1058.83,-36.7"/>
<polygon fill="#63b8ff" stroke="#63b8ff" points="1061.26,-34.17 1051.38,-30.34 1056.72,-39.49 1061.26,-34.17"/>
</a>
</g>
</g>
<!-- Node8 -->
<g id="Node000008" class="node">
<title>Node8</title>
<g id="a_Node000008"><a xlink:title=" ">
<polygon fill="#e0e0e0" stroke="#999999" points="1280.64,-29 1117.64,-29 1117.64,-10.5 1280.64,-10.5 1280.64,-29"/>
<text text-anchor="middle" x="1199.14" y="-15.5" font-family="Helvetica,sans-Serif" font-size="10.00">CGAL/Delaunay_triangulation_2.h</text>
</a>
</g>
</g>
<!-- Node4&#45;&gt;Node8 -->
<g id="edge7_Node000004_Node000008" class="edge">
<title>Node4&#45;&gt;Node8</title>
<g id="a_edge7_Node000004_Node000008"><a xlink:title=" ">
<path fill="none" stroke="#63b8ff" d="M1136.13,-75.19C1149.02,-64.05 1167.17,-48.37 1180.68,-36.7"/>
<polygon fill="#63b8ff" stroke="#63b8ff" points="1182.75,-39.53 1188.03,-30.35 1178.17,-34.24 1182.75,-39.53"/>
</a>
</g>
</g>
<!-- Node9 -->
<g id="Node000009" class="node">
<title>Node9</title>
<g id="a_Node000009"><a xlink:title=" ">
<polygon fill="#e0e0e0" stroke="#999999" points="1419.26,-39.5 1299.01,-39.5 1299.01,0 1419.26,0 1419.26,-39.5"/>
<text text-anchor="start" x="1307.01" y="-26" font-family="Helvetica,sans-Serif" font-size="10.00">CGAL/Exact_predicates</text>
<text text-anchor="start" x="1307.01" y="-15.5" font-family="Helvetica,sans-Serif" font-size="10.00">_exact_constructions</text>
<text text-anchor="middle" x="1359.14" y="-5" font-family="Helvetica,sans-Serif" font-size="10.00">_kernel.h</text>
</a>
</g>
</g>
<!-- Node4&#45;&gt;Node9 -->
<g id="edge8_Node000004_Node000009" class="edge">
<title>Node4&#45;&gt;Node9</title>
<g id="a_edge8_Node000004_Node000009"><a xlink:title=" ">
<path fill="none" stroke="#63b8ff" d="M1169.08,-75.02C1203.41,-65.22 1249.84,-51.96 1288.22,-41"/>
<polygon fill="#63b8ff" stroke="#63b8ff" points="1288.7,-44.5 1297.36,-38.39 1286.78,-37.77 1288.7,-44.5"/>
</a>
</g>
</g>
<!-- Node10 -->
<g id="Node000010" class="node">
<title>Node10</title>
<g id="a_Node000010"><a xlink:title=" ">
<polygon fill="#e0e0e0" stroke="#999999" points="1565.01,-29 1437.26,-29 1437.26,-10.5 1565.01,-10.5 1565.01,-29"/>
<text text-anchor="middle" x="1501.14" y="-15.5" font-family="Helvetica,sans-Serif" font-size="10.00">CGAL/Partition_traits_2.h</text>
</a>
</g>
</g>
<!-- Node4&#45;&gt;Node10 -->
<g id="edge9_Node000004_Node000010" class="edge">
<title>Node4&#45;&gt;Node10</title>
<g id="a_edge9_Node000004_Node000010"><a xlink:title=" ">
<path fill="none" stroke="#63b8ff" d="M1175.5,-81.67C1237.37,-73.11 1340.39,-57.78 1428.14,-39.5 1438.19,-37.41 1448.94,-34.83 1459.01,-32.27"/>
<polygon fill="#63b8ff" stroke="#63b8ff" points="1459.76,-35.7 1468.56,-29.79 1458,-28.92 1459.76,-35.7"/>
</a>
</g>
</g>
<!-- Node11 -->
<g id="Node000011" class="node">
<title>Node11</title>
<g id="a_Node000011"><a xlink:title=" ">
<polygon fill="#e0e0e0" stroke="#999999" points="1733.26,-29 1583.01,-29 1583.01,-10.5 1733.26,-10.5 1733.26,-29"/>
<text text-anchor="middle" x="1658.14" y="-15.5" font-family="Helvetica,sans-Serif" font-size="10.00">CGAL/Polygon_with_holes_2.h</text>
</a>
</g>
</g>
<!-- Node4&#45;&gt;Node11 -->
<g id="edge10_Node000004_Node000011" class="edge">
<title>Node4&#45;&gt;Node11</title>
<g id="a_edge10_Node000004_Node000011"><a xlink:title=" ">
<path fill="none" stroke="#63b8ff" d="M1175.27,-84.98C1260.97,-78.27 1431.19,-63.17 1574.14,-39.5 1586.55,-37.44 1599.89,-34.71 1612.2,-31.97"/>
<polygon fill="#63b8ff" stroke="#63b8ff" points="1612.71,-35.44 1621.68,-29.81 1611.16,-28.62 1612.71,-35.44"/>
</a>
</g>
</g>
<!-- Node12 -->
<g id="Node000012" class="node">
<title>Node12</title>
<g id="a_Node000012"><a xlink:title=" ">
<polygon fill="#e0e0e0" stroke="#999999" points="1839.14,-29 1751.14,-29 1751.14,-10.5 1839.14,-10.5 1839.14,-29"/>
<text text-anchor="middle" x="1795.14" y="-15.5" font-family="Helvetica,sans-Serif" font-size="10.00">CGAL/centroid.h</text>
</a>
</g>
</g>
<!-- Node4&#45;&gt;Node12 -->
<g id="edge11_Node000004_Node000012" class="edge">
<title>Node4&#45;&gt;Node12</title>
<g id="a_edge11_Node000004_Node000012"><a xlink:title=" ">
<path fill="none" stroke="#63b8ff" d="M1175.32,-89.4C1284.73,-89.13 1536.32,-83.31 1742.14,-39.5 1749.34,-37.97 1756.91,-35.71 1763.99,-33.28"/>
<polygon fill="#63b8ff" stroke="#63b8ff" points="1764.98,-36.65 1773.18,-29.94 1762.59,-30.07 1764.98,-36.65"/>
</a>
</g>
</g>
<!-- Node13 -->
<g id="Node000013" class="node">
<title>Node13</title>
<g id="a_Node000013"><a xlink:title=" ">
<polygon fill="#e0e0e0" stroke="#999999" points="1956.76,-29 1857.51,-29 1857.51,-10.5 1956.76,-10.5 1956.76,-29"/>
<text text-anchor="middle" x="1907.14" y="-15.5" font-family="Helvetica,sans-Serif" font-size="10.00">CGAL/partition_2.h</text>
</a>
</g>
</g>
<!-- Node4&#45;&gt;Node13 -->
<g id="edge12_Node000004_Node000013" class="edge">
<title>Node4&#45;&gt;Node13</title>
<g id="a_edge12_Node000004_Node000013"><a xlink:title=" ">
<path fill="none" stroke="#63b8ff" d="M1175.51,-89.73C1297.95,-90.37 1600.48,-86.56 1848.14,-39.5 1856.49,-37.91 1865.31,-35.52 1873.51,-32.97"/>
<polygon fill="#63b8ff" stroke="#63b8ff" points="1874.37,-36.37 1882.77,-29.92 1872.18,-29.72 1874.37,-36.37"/>
</a>
</g>
</g>
<!-- Node14 -->
<g id="Node000014" class="node">
<title>Node14</title>
<g id="a_Node000014"><a xlink:title=" ">
<polygon fill="#e0e0e0" stroke="#999999" points="683.14,-29 637.14,-29 637.14,-10.5 683.14,-10.5 683.14,-29"/>
<text text-anchor="middle" x="660.14" y="-15.5" font-family="Helvetica,sans-Serif" font-size="10.00">iterator</text>
</a>
</g>
</g>
<!-- Node4&#45;&gt;Node14 -->
<g id="edge13_Node000004_Node000014" class="edge">
<title>Node4&#45;&gt;Node14</title>
<g id="a_edge13_Node000004_Node000014"><a xlink:title=" ">
<path fill="none" stroke="#63b8ff" d="M1064.86,-89.8C981.78,-89.41 820.72,-82.48 692.14,-39.5 688.71,-38.35 685.24,-36.81 681.92,-35.09"/>
<polygon fill="#63b8ff" stroke="#63b8ff" points="683.73,-32.1 673.33,-30.08 680.2,-38.14 683.73,-32.1"/>
</a>
</g>
</g>
<!-- Node15&#45;&gt;Node3 -->
<g id="edge15_Node000015_Node000003" class="edge">
<title>Node15&#45;&gt;Node3</title>
<g id="a_edge15_Node000015_Node000003"><a xlink:title=" ">
<path fill="none" stroke="#63b8ff" d="M533.22,-140.26C532.63,-123.27 529.24,-94.3 514.14,-75.5 494.16,-50.63 460.05,-36.24 434.71,-28.52"/>
<polygon fill="#63b8ff" stroke="#63b8ff" points="435.8,-25.19 425.22,-25.84 433.89,-31.92 435.8,-25.19"/>
</a>
</g>
</g>
<!-- Node16 -->
<g id="Node000016" class="node">
<title>Node16</title>
<g id="a_Node000016"><a xlink:href="typedefs_8h.html" target="_top" xlink:title="Contains typedefs for the library.">
<polygon fill="white" stroke="#666666" points="698.89,-99.25 561.39,-99.25 561.39,-80.75 698.89,-80.75 698.89,-99.25"/>
<text text-anchor="middle" x="630.14" y="-85.75" font-family="Helvetica,sans-Serif" font-size="10.00">CoverageControl/typedefs.h</text>
</a>
</g>
</g>
<!-- Node15&#45;&gt;Node16 -->
<g id="edge16_Node000015_Node000016" class="edge">
<title>Node15&#45;&gt;Node16</title>
<g id="a_edge16_Node000015_Node000016"><a xlink:title=" ">
<path fill="none" stroke="#63b8ff" d="M554.67,-140.02C570.23,-129.91 591.24,-116.27 607.13,-105.94"/>
<polygon fill="#63b8ff" stroke="#63b8ff" points="608.98,-108.91 615.46,-100.53 605.17,-103.04 608.98,-108.91"/>
</a>
</g>
</g>
<!-- Node16&#45;&gt;Node3 -->
<g id="edge19_Node000016_Node000003" class="edge">
<title>Node16&#45;&gt;Node3</title>
<g id="a_edge19_Node000016_Node000003"><a xlink:title=" ">
<path fill="none" stroke="#63b8ff" d="M601.26,-80.36C558.6,-67.59 478.99,-43.76 434.45,-30.42"/>
<polygon fill="#63b8ff" stroke="#63b8ff" points="435.69,-27.14 425.11,-27.63 433.68,-33.85 435.69,-27.14"/>
</a>
</g>
</g>
<!-- Node17 -->
<g id="Node000017" class="node">
<title>Node17</title>
<g id="a_Node000017"><a xlink:title=" ">
<polygon fill="#e0e0e0" stroke="#999999" points="619.26,-29 547.01,-29 547.01,-10.5 619.26,-10.5 619.26,-29"/>
<text text-anchor="middle" x="583.14" y="-15.5" font-family="Helvetica,sans-Serif" font-size="10.00">Eigen/Dense</text>
</a>
</g>
</g>
<!-- Node16&#45;&gt;Node17 -->
<g id="edge17_Node000016_Node000017" class="edge">
<title>Node16&#45;&gt;Node17</title>
<g id="a_edge17_Node000016_Node000017"><a xlink:title=" ">
<path fill="none" stroke="#63b8ff" d="M624.19,-80.36C616.94,-69.84 604.53,-51.81 595.25,-38.33"/>
<polygon fill="#63b8ff" stroke="#63b8ff" points="598.31,-36.61 589.75,-30.36 592.54,-40.58 598.31,-36.61"/>
</a>
</g>
</g>
<!-- Node18 -->
<g id="Node000018" class="node">
<title>Node18</title>
<g id="a_Node000018"><a xlink:title=" ">
<polygon fill="#e0e0e0" stroke="#999999" points="529.26,-29 487.01,-29 487.01,-10.5 529.26,-10.5 529.26,-29"/>
<text text-anchor="middle" x="508.14" y="-15.5" font-family="Helvetica,sans-Serif" font-size="10.00">queue</text>
</a>
</g>
</g>
<!-- Node16&#45;&gt;Node18 -->
<g id="edge18_Node000016_Node000018" class="edge">
<title>Node16&#45;&gt;Node18</title>
<g id="a_edge18_Node000016_Node000018"><a xlink:title=" ">
<path fill="none" stroke="#63b8ff" d="M613.34,-80.38C594.76,-70.75 564.02,-54.53 538.14,-39.5 535.81,-38.15 533.4,-36.71 531,-35.25"/>
<polygon fill="#63b8ff" stroke="#63b8ff" points="533.1,-32.43 522.75,-30.14 529.41,-38.38 533.1,-32.43"/>
</a>
</g>
</g>
<!-- Node19&#45;&gt;Node2 -->
<g id="edge25_Node000019_Node000002" class="edge">
<title>Node19&#45;&gt;Node2</title>
<g id="a_edge25_Node000019_Node000002"><a xlink:title=" ">
<path fill="none" stroke="#63b8ff" d="M253.82,-147.97C205.23,-141.56 132.87,-129.29 62.16,-103.52"/>
<polygon fill="#63b8ff" stroke="#63b8ff" points="63.75,-100.38 53.16,-100.15 61.3,-106.94 63.75,-100.38"/>
</a>
</g>
</g>
<!-- Node19&#45;&gt;Node3 -->
<g id="edge24_Node000019_Node000003" class="edge">
<title>Node19&#45;&gt;Node3</title>
<g id="a_edge24_Node000019_Node000003"><a xlink:title=" ">
<path fill="none" stroke="#63b8ff" d="M309.67,-140.1C310.91,-123.46 314.96,-95.37 328.14,-75.5 339.59,-58.24 358.41,-44.42 374.21,-34.99"/>
<polygon fill="#63b8ff" stroke="#63b8ff" points="375.74,-38.14 382.73,-30.17 372.3,-32.05 375.74,-38.14"/>
</a>
</g>
</g>
<!-- Node19&#45;&gt;Node4 -->
<g id="edge27_Node000019_Node000004" class="edge">
<title>Node19&#45;&gt;Node4</title>
<g id="a_edge27_Node000019_Node000004"><a xlink:title=" ">
<path fill="none" stroke="#63b8ff" d="M364.3,-149.23C395.13,-146.6 434.27,-143.3 469.14,-140.5 682.63,-123.38 935.63,-104.56 1053.51,-95.88"/>
<polygon fill="#63b8ff" stroke="#63b8ff" points="1053.6,-99.39 1063.32,-95.16 1053.09,-92.4 1053.6,-99.39"/>
</a>
</g>
</g>
<!-- Node19&#45;&gt;Node16 -->
<g id="edge26_Node000019_Node000016" class="edge">
<title>Node19&#45;&gt;Node16</title>
<g id="a_edge26_Node000019_Node000016"><a xlink:title=" ">
<path fill="none" stroke="#63b8ff" d="M364.32,-143.17C423.26,-131.6 516.13,-113.38 575.04,-101.81"/>
<polygon fill="#63b8ff" stroke="#63b8ff" points="575.36,-105.32 584.5,-99.96 574.01,-98.45 575.36,-105.32"/>
</a>
</g>
</g>
<!-- Node20 -->
<g id="Node000020" class="node">
<title>Node20</title>
<g id="a_Node000020"><a xlink:title=" ">
<polygon fill="#e0e0e0" stroke="#999999" points="505.26,-99.25 337.01,-99.25 337.01,-80.75 505.26,-80.75 505.26,-99.25"/>
<text text-anchor="middle" x="421.14" y="-85.75" font-family="Helvetica,sans-Serif" font-size="10.00">CGAL/Boolean_set_operations_2.h</text>
</a>
</g>
</g>
<!-- Node19&#45;&gt;Node20 -->
<g id="edge21_Node000019_Node000020" class="edge">
<title>Node19&#45;&gt;Node20</title>
<g id="a_edge21_Node000019_Node000020"><a xlink:title=" ">
<path fill="none" stroke="#63b8ff" d="M334,-140.02C352.4,-129.67 377.38,-115.62 395.88,-105.21"/>
<polygon fill="#63b8ff" stroke="#63b8ff" points="397.34,-108.4 404.34,-100.45 393.91,-102.3 397.34,-108.4"/>
</a>
</g>
</g>
<!-- Node21 -->
<g id="Node000021" class="node">
<title>Node21</title>
<g id="a_Node000021"><a xlink:title=" ">
<polygon fill="#e0e0e0" stroke="#999999" points="219.51,-99.25 70.76,-99.25 70.76,-80.75 219.51,-80.75 219.51,-99.25"/>
<text text-anchor="middle" x="145.14" y="-85.75" font-family="Helvetica,sans-Serif" font-size="10.00">CGAL/Polygon_2_algorithms.h</text>
</a>
</g>
</g>
<!-- Node19&#45;&gt;Node21 -->
<g id="edge22_Node000019_Node000021" class="edge">
<title>Node19&#45;&gt;Node21</title>
<g id="a_edge22_Node000019_Node000021"><a xlink:title=" ">
<path fill="none" stroke="#63b8ff" d="M272.74,-140.02C244.54,-129.19 205.79,-114.3 178.41,-103.78"/>
<polygon fill="#63b8ff" stroke="#63b8ff" points="179.81,-100.57 169.22,-100.25 177.29,-107.1 179.81,-100.57"/>
</a>
</g>
</g>
<!-- Node22 -->
<g id="Node000022" class="node">
<title>Node22</title>
<g id="a_Node000022"><a xlink:title=" ">
<polygon fill="#e0e0e0" stroke="#999999" points="280.64,-99.25 237.64,-99.25 237.64,-80.75 280.64,-80.75 280.64,-99.25"/>
<text text-anchor="middle" x="259.14" y="-85.75" font-family="Helvetica,sans-Serif" font-size="10.00">omp.h</text>
</a>
</g>
</g>
<!-- Node19&#45;&gt;Node22 -->
<g id="edge23_Node000019_Node000022" class="edge">
<title>Node19&#45;&gt;Node22</title>
<g id="a_edge23_Node000019_Node000022"><a xlink:title=" ">
<path fill="none" stroke="#63b8ff" d="M298.04,-140.02C290.71,-130.77 281.03,-118.58 273.16,-108.67"/>
<polygon fill="#63b8ff" stroke="#63b8ff" points="275.95,-106.55 266.99,-100.89 270.46,-110.9 275.95,-106.55"/>
</a>
</g>
</g>
</g>
</svg>

<g id="navigator" transform="translate(0 0)" fill="#404254">
  <rect fill="#f2f5e9" fill-opacity="0.5" stroke="#606060" stroke-width=".5" x="0" y="0" width="60" height="60"/>
  <use id="zoomplus" xlink:href="#zoomPlus" x="17" y="9" onmousedown="handleZoom(evt,'in')"/>
  <use id="zoomminus" xlink:href="#zoomMin" x="42" y="9" onmousedown="handleZoom(evt,'out')"/>
  <use id="reset" xlink:href="#resetDef" x="30" y="36" onmousedown="handleReset()"/>
   <use id="arrowup" xlink:href="#arrowUp" x="0" y="0" onmousedown="handlePan(0,-1)"/>
  <use id="arrowright" xlink:href="#arrowRight" x="0" y="0" onmousedown="handlePan(1,0)"/>
  <use id="arrowdown" xlink:href="#arrowDown" x="0" y="0" onmousedown="handlePan(0,1)"/>
  <use id="arrowleft" xlink:href="#arrowLeft" x="0" y="0" onmousedown="handlePan(-1,0)"/>
</g>
<svg viewBox="0 0 15 15" width="100%" height="30px" preserveAspectRatio="xMaxYMin meet">
 <g id="arrow_out" transform="scale(0.3 0.3)">
  <a xlink:href="polygon__utils_8cpp__incl_org.svg" target="_base">
   <rect id="button" ry="5" rx="5" y="6" x="6" height="38" width="38"
        fill="#f2f5e9" fill-opacity="0.5" stroke="#606060" stroke-width="1.0"/>
   <path id="arrow"
     d="M 11.500037,31.436501 C 11.940474,20.09759 22.043105,11.32322 32.158766,21.979434 L 37.068811,17.246167 C 37.068811,17.246167 37.088388,32 37.088388,32 L 22.160133,31.978069 C 22.160133,31.978069 26.997745,27.140456 26.997745,27.140456 C 18.528582,18.264221 13.291696,25.230495 11.500037,31.436501 z"
     style="fill:#404040;"/>
  </a>
 </g>
</svg>

<style type='text/css'>
<![CDATA[
[data-mouse-over-selected='false'] { opacity: 0.7; }
[data-mouse-over-selected='true']  { opacity: 1.0; }
]]>
</style>
<script type="application/ecmascript"><![CDATA[
document.addEventListener('DOMContentLoaded', (event) => {
  highlightEdges();
  highlightAdjacentNodes();
});
]]></script>
</svg>
