<?xml version="1.0" encoding="UTF-8" standalone="no"?>
<!DOCTYPE svg PUBLIC "-//W3C//DTD SVG 1.1//EN"
 "http://www.w3.org/Graphics/SVG/1.1/DTD/svg11.dtd">
<!-- Generated by graphviz version 10.0.1 (0)
 -->
<!-- Title: robot_model.h Pages: 1 -->
<svg width="1293pt" height="276pt"
 viewBox="0.00 0.00 1293.02 276.00" xmlns="http://www.w3.org/2000/svg" xmlns:xlink="http://www.w3.org/1999/xlink">
<g id="graph0" class="graph" transform="scale(1 1) rotate(0) translate(4 272)">
<title>robot_model.h</title>
<!-- Node1 -->
<g id="Node000001" class="node">
<title>Node1</title>
<g id="a_Node000001"><a xlink:title="Class for handling the robot model.">
<polygon fill="#999999" stroke="#666666" points="387.65,-268 310.15,-268 310.15,-249.5 387.65,-249.5 387.65,-268"/>
<text text-anchor="middle" x="348.9" y="-254.5" font-family="Helvetica,sans-Serif" font-size="10.00">robot_model.h</text>
</a>
</g>
</g>
<!-- Node2 -->
<g id="Node000002" class="node">
<title>Node2</title>
<g id="a_Node000002"><a xlink:title=" ">
<polygon fill="#e0e0e0" stroke="#999999" points="189.4,-18.5 146.4,-18.5 146.4,0 189.4,0 189.4,-18.5"/>
<text text-anchor="middle" x="167.9" y="-5" font-family="Helvetica,sans-Serif" font-size="10.00">cmath</text>
</a>
</g>
</g>
<!-- Node1&#45;&gt;Node2 -->
<g id="edge1_Node000001_Node000002" class="edge">
<title>Node1&#45;&gt;Node2</title>
<g id="a_edge1_Node000001_Node000002"><a xlink:title=" ">
<path fill="none" stroke="#63b8ff" d="M309.74,-257.17C263.15,-254.91 184.33,-246.08 125.9,-213.5 56.96,-175.07 33.79,-156.95 4.9,-83.5 0.18,-71.51 -2.93,-64.74 4.9,-54.5 20.57,-34.01 91.7,-20.78 134.66,-14.51"/>
<polygon fill="#63b8ff" stroke="#63b8ff" points="135.04,-17.99 144.45,-13.14 134.06,-11.06 135.04,-17.99"/>
</a>
</g>
</g>
<!-- Node3 -->
<g id="Node000003" class="node">
<title>Node3</title>
<g id="a_Node000003"><a xlink:title=" ">
<polygon fill="#e0e0e0" stroke="#999999" points="593.65,-18.5 540.15,-18.5 540.15,0 593.65,0 593.65,-18.5"/>
<text text-anchor="middle" x="566.9" y="-5" font-family="Helvetica,sans-Serif" font-size="10.00">iostream</text>
</a>
</g>
</g>
<!-- Node1&#45;&gt;Node3 -->
<g id="edge2_Node000001_Node000003" class="edge">
<title>Node1&#45;&gt;Node3</title>
<g id="a_edge2_Node000001_Node000003"><a xlink:title=" ">
<path fill="none" stroke="#63b8ff" d="M349.87,-249.39C353.87,-218.7 371.89,-111.12 432.9,-54.5 459.22,-30.08 499.32,-19.12 528.79,-14.21"/>
<polygon fill="#63b8ff" stroke="#63b8ff" points="529.04,-17.71 538.42,-12.78 528.01,-10.79 529.04,-17.71"/>
</a>
</g>
</g>
<!-- Node4 -->
<g id="Node000004" class="node">
<title>Node4</title>
<g id="a_Node000004"><a xlink:title=" ">
<polygon fill="#e0e0e0" stroke="#999999" points="65.9,-78.25 13.9,-78.25 13.9,-59.75 65.9,-59.75 65.9,-78.25"/>
<text text-anchor="middle" x="39.9" y="-64.75" font-family="Helvetica,sans-Serif" font-size="10.00">memory</text>
</a>
</g>
</g>
<!-- Node1&#45;&gt;Node4 -->
<g id="edge3_Node000001_Node000004" class="edge">
<title>Node1&#45;&gt;Node4</title>
<g id="a_edge3_Node000001_Node000004"><a xlink:title=" ">
<path fill="none" stroke="#63b8ff" d="M309.81,-254.6C271.46,-250.09 212.42,-239.25 167.9,-213.5 113.36,-181.95 69.66,-118.92 50.47,-87.98"/>
<polygon fill="#63b8ff" stroke="#63b8ff" points="53.67,-86.52 45.51,-79.77 47.68,-90.14 53.67,-86.52"/>
</a>
</g>
</g>
<!-- Node5 -->
<g id="Node000005" class="node">
<title>Node5</title>
<g id="a_Node000005"><a xlink:title=" ">
<polygon fill="#e0e0e0" stroke="#999999" points="249.77,-208.25 194.02,-208.25 194.02,-189.75 249.77,-189.75 249.77,-208.25"/>
<text text-anchor="middle" x="221.9" y="-194.75" font-family="Helvetica,sans-Serif" font-size="10.00">algorithm</text>
</a>
</g>
</g>
<!-- Node1&#45;&gt;Node5 -->
<g id="edge4_Node000001_Node000005" class="edge">
<title>Node1&#45;&gt;Node5</title>
<g id="a_edge4_Node000001_Node000005"><a xlink:title=" ">
<path fill="none" stroke="#63b8ff" d="M329.89,-249.1C309.12,-239.66 275.61,-224.42 251.42,-213.42"/>
<polygon fill="#63b8ff" stroke="#63b8ff" points="252.97,-210.28 242.42,-209.33 250.08,-216.66 252.97,-210.28"/>
</a>
</g>
</g>
<!-- Node6 -->
<g id="Node000006" class="node">
<title>Node6</title>
<g id="a_Node000006"><a xlink:title=" ">
<polygon fill="#e0e0e0" stroke="#999999" points="1068.02,-18.5 1025.77,-18.5 1025.77,0 1068.02,0 1068.02,-18.5"/>
<text text-anchor="middle" x="1046.9" y="-5" font-family="Helvetica,sans-Serif" font-size="10.00">vector</text>
</a>
</g>
</g>
<!-- Node1&#45;&gt;Node6 -->
<g id="edge5_Node000001_Node000006" class="edge">
<title>Node1&#45;&gt;Node6</title>
<g id="a_edge5_Node000001_Node000006"><a xlink:title=" ">
<path fill="none" stroke="#63b8ff" d="M387.82,-256.52C510.38,-252.44 887.34,-238.16 1006.9,-213.5 1091.84,-195.98 1120.68,-199.41 1190.9,-148.5 1229.21,-120.72 1270.41,-91.49 1240.9,-54.5 1221.1,-29.67 1129.69,-17.68 1079.73,-12.9"/>
<polygon fill="#63b8ff" stroke="#63b8ff" points="1080.07,-9.41 1069.79,-11.99 1079.43,-16.39 1080.07,-9.41"/>
</a>
</g>
</g>
<!-- Node7 -->
<g id="Node000007" class="node">
<title>Node7</title>
<g id="a_Node000007"><a xlink:href="constants_8h.html" target="_top" xlink:title="Constants for the CoverageControl library.">
<polygon fill="white" stroke="#666666" points="756.27,-78.25 613.52,-78.25 613.52,-59.75 756.27,-59.75 756.27,-78.25"/>
<text text-anchor="middle" x="684.9" y="-64.75" font-family="Helvetica,sans-Serif" font-size="10.00">CoverageControl/constants.h</text>
</a>
</g>
</g>
<!-- Node1&#45;&gt;Node7 -->
<g id="edge6_Node000001_Node000007" class="edge">
<title>Node1&#45;&gt;Node7</title>
<g id="a_edge6_Node000001_Node000007"><a xlink:title=" ">
<path fill="none" stroke="#63b8ff" d="M388.07,-251.47C471.52,-237.2 662.3,-199.58 699.9,-148.5 712.72,-131.08 704.37,-105.78 695.87,-88.64"/>
<polygon fill="#63b8ff" stroke="#63b8ff" points="699.06,-87.18 691.22,-80.06 692.91,-90.52 699.06,-87.18"/>
</a>
</g>
</g>
<!-- Node11 -->
<g id="Node000011" class="node">
<title>Node11</title>
<g id="a_Node000011"><a xlink:href="map__utils_8h.html" target="_top" xlink:title="Utility functions for transforming maps.">
<polygon fill="white" stroke="#666666" points="225.15,-148.5 114.65,-148.5 114.65,-119.5 225.15,-119.5 225.15,-148.5"/>
<text text-anchor="start" x="122.65" y="-135" font-family="Helvetica,sans-Serif" font-size="10.00">CoverageControl/map</text>
<text text-anchor="middle" x="169.9" y="-124.5" font-family="Helvetica,sans-Serif" font-size="10.00">_utils.h</text>
</a>
</g>
</g>
<!-- Node1&#45;&gt;Node11 -->
<g id="edge11_Node000001_Node000011" class="edge">
<title>Node1&#45;&gt;Node11</title>
<g id="a_edge11_Node000001_Node000011"><a xlink:title=" ">
<path fill="none" stroke="#63b8ff" d="M309.84,-258.31C272.33,-256.62 216.79,-247.87 184.9,-213.5 171.76,-199.34 168.48,-177.37 168.21,-160.27"/>
<polygon fill="#63b8ff" stroke="#63b8ff" points="171.71,-160.44 168.43,-150.37 164.71,-160.29 171.71,-160.44"/>
</a>
</g>
</g>
<!-- Node12 -->
<g id="Node000012" class="node">
<title>Node12</title>
<g id="a_Node000012"><a xlink:href="parameters_8h.html" target="_top" xlink:title="Contains parameters.">
<polygon fill="white" stroke="#666666" points="347.65,-78.25 198.15,-78.25 198.15,-59.75 347.65,-59.75 347.65,-78.25"/>
<text text-anchor="middle" x="272.9" y="-64.75" font-family="Helvetica,sans-Serif" font-size="10.00">CoverageControl/parameters.h</text>
</a>
</g>
</g>
<!-- Node1&#45;&gt;Node12 -->
<g id="edge19_Node000001_Node000012" class="edge">
<title>Node1&#45;&gt;Node12</title>
<g id="a_edge19_Node000001_Node000012"><a xlink:title=" ">
<path fill="none" stroke="#63b8ff" d="M345.44,-249.19C333.94,-220.79 296.84,-129.14 280.61,-89.06"/>
<polygon fill="#63b8ff" stroke="#63b8ff" points="283.95,-87.96 276.95,-80.01 277.46,-90.59 283.95,-87.96"/>
</a>
</g>
</g>
<!-- Node14 -->
<g id="Node000014" class="node">
<title>Node14</title>
<g id="a_Node000014"><a xlink:href="typedefs_8h.html" target="_top" xlink:title="Contains typedefs for the library.">
<polygon fill="white" stroke="#666666" points="1231.65,-78.25 1094.15,-78.25 1094.15,-59.75 1231.65,-59.75 1231.65,-78.25"/>
<text text-anchor="middle" x="1162.9" y="-64.75" font-family="Helvetica,sans-Serif" font-size="10.00">CoverageControl/typedefs.h</text>
</a>
</g>
</g>
<!-- Node1&#45;&gt;Node14 -->
<g id="edge20_Node000001_Node000014" class="edge">
<title>Node1&#45;&gt;Node14</title>
<g id="a_edge20_Node000001_Node000014"><a xlink:title=" ">
<path fill="none" stroke="#63b8ff" d="M387.89,-255.7C544.82,-247.04 1124.17,-211 1173.9,-148.5 1187.33,-131.63 1180.2,-106 1172.64,-88.66"/>
<polygon fill="#63b8ff" stroke="#63b8ff" points="1175.97,-87.5 1168.49,-80 1169.66,-90.53 1175.97,-87.5"/>
</a>
</g>
</g>
<!-- Node17 -->
<g id="Node000017" class="node">
<title>Node17</title>
<g id="a_Node000017"><a xlink:href="voronoi_8h.html" target="_top" xlink:title="Class for computing Voronoi cells.">
<polygon fill="white" stroke="#666666" points="545.27,-143.25 414.52,-143.25 414.52,-124.75 545.27,-124.75 545.27,-143.25"/>
<text text-anchor="middle" x="479.9" y="-129.75" font-family="Helvetica,sans-Serif" font-size="10.00">CoverageControl/voronoi.h</text>
</a>
</g>
</g>
<!-- Node1&#45;&gt;Node17 -->
<g id="edge24_Node000001_Node000017" class="edge">
<title>Node1&#45;&gt;Node17</title>
<g id="a_edge24_Node000001_Node000017"><a xlink:title=" ">
<path fill="none" stroke="#63b8ff" d="M357.9,-249.31C379.5,-229.08 434.53,-177.52 462.7,-151.11"/>
<polygon fill="#63b8ff" stroke="#63b8ff" points="464.82,-153.92 469.73,-144.53 460.04,-148.81 464.82,-153.92"/>
</a>
</g>
</g>
<!-- Node19 -->
<g id="Node000019" class="node">
<title>Node19</title>
<g id="a_Node000019"><a xlink:href="world__idf_8h.html" target="_top" xlink:title="Contains the class for Importance Density Function (IDF) for the world.">
<polygon fill="white" stroke="#666666" points="883.02,-213.5 768.77,-213.5 768.77,-184.5 883.02,-184.5 883.02,-213.5"/>
<text text-anchor="start" x="776.77" y="-200" font-family="Helvetica,sans-Serif" font-size="10.00">CoverageControl/world</text>
<text text-anchor="middle" x="825.9" y="-189.5" font-family="Helvetica,sans-Serif" font-size="10.00">_idf.h</text>
</a>
</g>
</g>
<!-- Node1&#45;&gt;Node19 -->
<g id="edge32_Node000001_Node000019" class="edge">
<title>Node1&#45;&gt;Node19</title>
<g id="a_edge32_Node000001_Node000019"><a xlink:title=" ">
<path fill="none" stroke="#63b8ff" d="M387.92,-253.64C457.37,-246.23 606.96,-229.89 732.9,-213.5 740.71,-212.48 748.88,-211.37 756.99,-210.23"/>
<polygon fill="#63b8ff" stroke="#63b8ff" points="757.48,-213.7 766.89,-208.83 756.5,-206.77 757.48,-213.7"/>
</a>
</g>
</g>
<!-- Node7&#45;&gt;Node2 -->
<g id="edge7_Node000007_Node000002" class="edge">
<title>Node7&#45;&gt;Node2</title>
<g id="a_edge7_Node000007_Node000002"><a xlink:title=" ">
<path fill="none" stroke="#63b8ff" d="M613.39,-60.49C524.42,-51.06 367.87,-34.22 233.9,-18.5 223.23,-17.25 211.61,-15.82 201.13,-14.5"/>
<polygon fill="#63b8ff" stroke="#63b8ff" points="201.75,-11.05 191.39,-13.27 200.87,-18 201.75,-11.05"/>
</a>
</g>
</g>
<!-- Node8 -->
<g id="Node000008" class="node">
<title>Node8</title>
<g id="a_Node000008"><a xlink:title=" ">
<polygon fill="#e0e0e0" stroke="#999999" points="890.52,-18.5 851.27,-18.5 851.27,0 890.52,0 890.52,-18.5"/>
<text text-anchor="middle" x="870.9" y="-5" font-family="Helvetica,sans-Serif" font-size="10.00">limits</text>
</a>
</g>
</g>
<!-- Node7&#45;&gt;Node8 -->
<g id="edge8_Node000007_Node000008" class="edge">
<title>Node7&#45;&gt;Node8</title>
<g id="a_edge8_Node000007_Node000008"><a xlink:title=" ">
<path fill="none" stroke="#63b8ff" d="M712.75,-59.35C746.95,-48.74 804.77,-30.78 840.22,-19.78"/>
<polygon fill="#63b8ff" stroke="#63b8ff" points="840.93,-23.22 849.44,-16.91 838.85,-16.54 840.93,-23.22"/>
</a>
</g>
</g>
<!-- Node9 -->
<g id="Node000009" class="node">
<title>Node9</title>
<g id="a_Node000009"><a xlink:title=" ">
<polygon fill="#e0e0e0" stroke="#999999" points="397.9,-18.5 357.9,-18.5 357.9,0 397.9,0 397.9,-18.5"/>
<text text-anchor="middle" x="377.9" y="-5" font-family="Helvetica,sans-Serif" font-size="10.00">string</text>
</a>
</g>
</g>
<!-- Node7&#45;&gt;Node9 -->
<g id="edge9_Node000007_Node000009" class="edge">
<title>Node7&#45;&gt;Node9</title>
<g id="a_edge9_Node000007_Node000009"><a xlink:title=" ">
<path fill="none" stroke="#63b8ff" d="M638.61,-59.29C575.38,-47.4 463.69,-26.39 409.35,-16.17"/>
<polygon fill="#63b8ff" stroke="#63b8ff" points="410.01,-12.73 399.54,-14.32 408.72,-19.61 410.01,-12.73"/>
</a>
</g>
</g>
<!-- Node10 -->
<g id="Node000010" class="node">
<title>Node10</title>
<g id="a_Node000010"><a xlink:title=" ">
<polygon fill="#e0e0e0" stroke="#999999" points="833.15,-18.5 704.65,-18.5 704.65,0 833.15,0 833.15,-18.5"/>
<text text-anchor="middle" x="768.9" y="-5" font-family="Helvetica,sans-Serif" font-size="10.00">CoverageControl/Config.h</text>
</a>
</g>
</g>
<!-- Node7&#45;&gt;Node10 -->
<g id="edge10_Node000007_Node000010" class="edge">
<title>Node7&#45;&gt;Node10</title>
<g id="a_edge10_Node000007_Node000010"><a xlink:title=" ">
<path fill="none" stroke="#63b8ff" d="M697.29,-59.48C710.37,-50.49 731.24,-36.14 747.08,-25.25"/>
<polygon fill="#63b8ff" stroke="#63b8ff" points="748.67,-28.4 754.93,-19.85 744.71,-22.63 748.67,-28.4"/>
</a>
</g>
</g>
<!-- Node11&#45;&gt;Node2 -->
<g id="edge12_Node000011_Node000002" class="edge">
<title>Node11&#45;&gt;Node2</title>
<g id="a_edge12_Node000011_Node000002"><a xlink:title=" ">
<path fill="none" stroke="#63b8ff" d="M148.35,-119.04C136.98,-110.34 124.14,-98.05 117.9,-83.5 112.82,-71.65 112.61,-66.25 117.9,-54.5 123.18,-42.77 133.29,-32.89 143.03,-25.47"/>
<polygon fill="#63b8ff" stroke="#63b8ff" points="145.03,-28.34 151.23,-19.75 141.03,-22.6 145.03,-28.34"/>
</a>
</g>
</g>
<!-- Node11&#45;&gt;Node9 -->
<g id="edge13_Node000011_Node000009" class="edge">
<title>Node11&#45;&gt;Node9</title>
<g id="a_edge13_Node000011_Node000009"><a xlink:title=" ">
<path fill="none" stroke="#63b8ff" d="M169.17,-119.29C169.03,-101.78 171.58,-71.69 188.9,-54.5 200.05,-43.43 295.31,-25 346.18,-15.81"/>
<polygon fill="#63b8ff" stroke="#63b8ff" points="346.77,-19.26 356,-14.05 345.54,-12.37 346.77,-19.26"/>
</a>
</g>
</g>
<!-- Node11&#45;&gt;Node12 -->
<g id="edge14_Node000011_Node000012" class="edge">
<title>Node11&#45;&gt;Node12</title>
<g id="a_edge14_Node000011_Node000012"><a xlink:title=" ">
<path fill="none" stroke="#63b8ff" d="M192.76,-119.02C209.45,-108.81 232.02,-95.01 248.95,-84.65"/>
<polygon fill="#63b8ff" stroke="#63b8ff" points="250.67,-87.7 257.37,-79.5 247.02,-81.73 250.67,-87.7"/>
</a>
</g>
</g>
<!-- Node12&#45;&gt;Node2 -->
<g id="edge15_Node000012_Node000002" class="edge">
<title>Node12&#45;&gt;Node2</title>
<g id="a_edge15_Node000012_Node000002"><a xlink:title=" ">
<path fill="none" stroke="#63b8ff" d="M257.41,-59.48C240.68,-50.28 213.74,-35.46 193.79,-24.49"/>
<polygon fill="#63b8ff" stroke="#63b8ff" points="195.58,-21.48 185.13,-19.72 192.2,-27.61 195.58,-21.48"/>
</a>
</g>
</g>
<!-- Node12&#45;&gt;Node3 -->
<g id="edge17_Node000012_Node000003" class="edge">
<title>Node12&#45;&gt;Node3</title>
<g id="a_edge17_Node000012_Node000003"><a xlink:title=" ">
<path fill="none" stroke="#63b8ff" d="M317.23,-59.29C374.77,-47.99 474.22,-28.45 528.62,-17.77"/>
<polygon fill="#63b8ff" stroke="#63b8ff" points="529.21,-21.22 538.35,-15.86 527.86,-14.35 529.21,-21.22"/>
</a>
</g>
</g>
<!-- Node12&#45;&gt;Node9 -->
<g id="edge18_Node000012_Node000009" class="edge">
<title>Node12&#45;&gt;Node9</title>
<g id="a_edge18_Node000012_Node000009"><a xlink:title=" ">
<path fill="none" stroke="#63b8ff" d="M288.39,-59.48C305.12,-50.28 332.06,-35.46 352.01,-24.49"/>
<polygon fill="#63b8ff" stroke="#63b8ff" points="353.6,-27.61 360.67,-19.72 350.22,-21.48 353.6,-27.61"/>
</a>
</g>
</g>
<!-- Node13 -->
<g id="Node000013" class="node">
<title>Node13</title>
<g id="a_Node000013"><a xlink:title=" ">
<polygon fill="#e0e0e0" stroke="#999999" points="302.65,-18.5 243.15,-18.5 243.15,0 302.65,0 302.65,-18.5"/>
<text text-anchor="middle" x="272.9" y="-5" font-family="Helvetica,sans-Serif" font-size="10.00">filesystem</text>
</a>
</g>
</g>
<!-- Node12&#45;&gt;Node13 -->
<g id="edge16_Node000012_Node000013" class="edge">
<title>Node12&#45;&gt;Node13</title>
<g id="a_edge16_Node000012_Node000013"><a xlink:title=" ">
<path fill="none" stroke="#63b8ff" d="M272.9,-59.48C272.9,-51.8 272.9,-40.22 272.9,-30.22"/>
<polygon fill="#63b8ff" stroke="#63b8ff" points="276.4,-30.32 272.9,-20.32 269.4,-30.32 276.4,-30.32"/>
</a>
</g>
</g>
<!-- Node14&#45;&gt;Node6 -->
<g id="edge23_Node000014_Node000006" class="edge">
<title>Node14&#45;&gt;Node6</title>
<g id="a_edge23_Node000014_Node000006"><a xlink:title=" ">
<path fill="none" stroke="#63b8ff" d="M1145.53,-59.35C1126.74,-50 1096.51,-34.95 1074.46,-23.97"/>
<polygon fill="#63b8ff" stroke="#63b8ff" points="1076.25,-20.95 1065.74,-19.63 1073.13,-27.22 1076.25,-20.95"/>
</a>
</g>
</g>
<!-- Node15 -->
<g id="Node000015" class="node">
<title>Node15</title>
<g id="a_Node000015"><a xlink:title=" ">
<polygon fill="#e0e0e0" stroke="#999999" points="1285.02,-18.5 1212.77,-18.5 1212.77,0 1285.02,0 1285.02,-18.5"/>
<text text-anchor="middle" x="1248.9" y="-5" font-family="Helvetica,sans-Serif" font-size="10.00">Eigen/Dense</text>
</a>
</g>
</g>
<!-- Node14&#45;&gt;Node15 -->
<g id="edge21_Node000014_Node000015" class="edge">
<title>Node14&#45;&gt;Node15</title>
<g id="a_edge21_Node000014_Node000015"><a xlink:title=" ">
<path fill="none" stroke="#63b8ff" d="M1175.59,-59.48C1188.98,-50.49 1210.34,-36.14 1226.56,-25.25"/>
<polygon fill="#63b8ff" stroke="#63b8ff" points="1228.27,-28.32 1234.62,-19.84 1224.37,-22.51 1228.27,-28.32"/>
</a>
</g>
</g>
<!-- Node16 -->
<g id="Node000016" class="node">
<title>Node16</title>
<g id="a_Node000016"><a xlink:title=" ">
<polygon fill="#e0e0e0" stroke="#999999" points="1184.02,-18.5 1141.77,-18.5 1141.77,0 1184.02,0 1184.02,-18.5"/>
<text text-anchor="middle" x="1162.9" y="-5" font-family="Helvetica,sans-Serif" font-size="10.00">queue</text>
</a>
</g>
</g>
<!-- Node14&#45;&gt;Node16 -->
<g id="edge22_Node000014_Node000016" class="edge">
<title>Node14&#45;&gt;Node16</title>
<g id="a_edge22_Node000014_Node000016"><a xlink:title=" ">
<path fill="none" stroke="#63b8ff" d="M1162.9,-59.48C1162.9,-51.8 1162.9,-40.22 1162.9,-30.22"/>
<polygon fill="#63b8ff" stroke="#63b8ff" points="1166.4,-30.32 1162.9,-20.32 1159.4,-30.32 1166.4,-30.32"/>
</a>
</g>
</g>
<!-- Node17&#45;&gt;Node2 -->
<g id="edge25_Node000017_Node000002" class="edge">
<title>Node17&#45;&gt;Node2</title>
<g id="a_edge25_Node000017_Node000002"><a xlink:title=" ">
<path fill="none" stroke="#63b8ff" d="M414.1,-129.81C338.69,-124.81 221.31,-112.51 188.9,-83.5 173.82,-70 169.26,-46.47 168.04,-29.73"/>
<polygon fill="#63b8ff" stroke="#63b8ff" points="171.55,-29.9 167.69,-20.03 164.55,-30.15 171.55,-29.9"/>
</a>
</g>
</g>
<!-- Node17&#45;&gt;Node3 -->
<g id="edge26_Node000017_Node000003" class="edge">
<title>Node17&#45;&gt;Node3</title>
<g id="a_edge26_Node000017_Node000003"><a xlink:title=" ">
<path fill="none" stroke="#63b8ff" d="M485.88,-124.56C499.91,-104.77 535.19,-54.98 554.24,-28.11"/>
<polygon fill="#63b8ff" stroke="#63b8ff" points="557.08,-30.16 560,-19.98 551.36,-26.12 557.08,-30.16"/>
</a>
</g>
</g>
<!-- Node17&#45;&gt;Node4 -->
<g id="edge27_Node000017_Node000004" class="edge">
<title>Node17&#45;&gt;Node4</title>
<g id="a_edge27_Node000017_Node000004"><a xlink:title=" ">
<path fill="none" stroke="#63b8ff" d="M414.07,-124.71C341.45,-115.4 221.17,-99.49 117.9,-83.5 104.69,-81.46 90.27,-79.02 77.45,-76.78"/>
<polygon fill="#63b8ff" stroke="#63b8ff" points="78.16,-73.35 67.71,-75.06 76.95,-80.24 78.16,-73.35"/>
</a>
</g>
</g>
<!-- Node17&#45;&gt;Node6 -->
<g id="edge29_Node000017_Node000006" class="edge">
<title>Node17&#45;&gt;Node6</title>
<g id="a_edge29_Node000017_Node000006"><a xlink:title=" ">
<path fill="none" stroke="#63b8ff" d="M523.62,-124.32C533.54,-122.54 544.06,-120.82 553.9,-119.5 646.09,-107.14 886.22,-121.98 970.9,-83.5 997.68,-71.33 1020.75,-45.63 1034.24,-28.15"/>
<polygon fill="#63b8ff" stroke="#63b8ff" points="1037,-30.3 1040.13,-20.18 1031.37,-26.14 1037,-30.3"/>
</a>
</g>
</g>
<!-- Node17&#45;&gt;Node7 -->
<g id="edge30_Node000017_Node000007" class="edge">
<title>Node17&#45;&gt;Node7</title>
<g id="a_edge30_Node000017_Node000007"><a xlink:title=" ">
<path fill="none" stroke="#63b8ff" d="M507.97,-124.37C543.66,-113.41 605.45,-94.42 645.75,-82.03"/>
<polygon fill="#63b8ff" stroke="#63b8ff" points="646.53,-85.45 655.06,-79.17 644.47,-78.76 646.53,-85.45"/>
</a>
</g>
</g>
<!-- Node17&#45;&gt;Node14 -->
<g id="edge31_Node000017_Node000014" class="edge">
<title>Node17&#45;&gt;Node14</title>
<g id="a_edge31_Node000017_Node000014"><a xlink:title=" ">
<path fill="none" stroke="#63b8ff" d="M523.61,-124.27C533.54,-122.5 544.06,-120.79 553.9,-119.5 752.84,-93.46 803.94,-99.99 1003.9,-83.5 1029.52,-81.39 1057.45,-79.03 1082.66,-76.89"/>
<polygon fill="#63b8ff" stroke="#63b8ff" points="1082.86,-80.39 1092.53,-76.05 1082.27,-73.41 1082.86,-80.39"/>
</a>
</g>
</g>
<!-- Node18 -->
<g id="Node000018" class="node">
<title>Node18</title>
<g id="a_Node000018"><a xlink:title=" ">
<polygon fill="#e0e0e0" stroke="#999999" points="481.52,-78.25 442.27,-78.25 442.27,-59.75 481.52,-59.75 481.52,-78.25"/>
<text text-anchor="middle" x="461.9" y="-64.75" font-family="Helvetica,sans-Serif" font-size="10.00">utility</text>
</a>
</g>
</g>
<!-- Node17&#45;&gt;Node18 -->
<g id="edge28_Node000017_Node000018" class="edge">
<title>Node17&#45;&gt;Node18</title>
<g id="a_edge28_Node000017_Node000018"><a xlink:title=" ">
<path fill="none" stroke="#63b8ff" d="M477.47,-124.5C474.91,-115.53 470.78,-101.08 467.42,-89.31"/>
<polygon fill="#63b8ff" stroke="#63b8ff" points="470.82,-88.47 464.7,-79.82 464.09,-90.39 470.82,-88.47"/>
</a>
</g>
</g>
<!-- Node19&#45;&gt;Node3 -->
<g id="edge35_Node000019_Node000003" class="edge">
<title>Node19&#45;&gt;Node3</title>
<g id="a_edge35_Node000019_Node000003"><a xlink:title=" ">
<path fill="none" stroke="#63b8ff" d="M821.85,-184.36C812,-152.01 786.01,-72.08 764.9,-54.5 740.98,-34.58 655.72,-21.08 605.21,-14.62"/>
<polygon fill="#63b8ff" stroke="#63b8ff" points="605.95,-11.19 595.59,-13.43 605.08,-18.13 605.95,-11.19"/>
</a>
</g>
</g>
<!-- Node19&#45;&gt;Node6 -->
<g id="edge37_Node000019_Node000006" class="edge">
<title>Node19&#45;&gt;Node6</title>
<g id="a_edge37_Node000019_Node000006"><a xlink:title=" ">
<path fill="none" stroke="#63b8ff" d="M863.01,-184.08C884.29,-175.32 911.04,-162.94 932.9,-148.5 968.87,-124.74 977.84,-117.06 1004.9,-83.5 1018.54,-66.59 1030.46,-44.7 1038.09,-29.27"/>
<polygon fill="#63b8ff" stroke="#63b8ff" points="1041.23,-30.82 1042.38,-20.29 1034.91,-27.8 1041.23,-30.82"/>
</a>
</g>
</g>
<!-- Node19&#45;&gt;Node7 -->
<g id="edge54_Node000019_Node000007" class="edge">
<title>Node19&#45;&gt;Node7</title>
<g id="a_edge54_Node000019_Node000007"><a xlink:title=" ">
<path fill="none" stroke="#63b8ff" d="M810.54,-184.06C784.25,-160.19 730.76,-111.63 702.81,-86.26"/>
<polygon fill="#63b8ff" stroke="#63b8ff" points="705.27,-83.76 695.51,-79.63 700.56,-88.94 705.27,-83.76"/>
</a>
</g>
</g>
<!-- Node19&#45;&gt;Node9 -->
<g id="edge36_Node000019_Node000009" class="edge">
<title>Node19&#45;&gt;Node9</title>
<g id="a_edge36_Node000019_Node000009"><a xlink:title=" ">
<path fill="none" stroke="#63b8ff" d="M768.54,-194.94C659.79,-188.61 432.1,-172.62 405.9,-148.5 372.8,-118.02 372.79,-60.07 375.42,-29.79"/>
<polygon fill="#63b8ff" stroke="#63b8ff" points="378.87,-30.49 376.46,-20.17 371.91,-29.73 378.87,-30.49"/>
</a>
</g>
</g>
<!-- Node19&#45;&gt;Node10 -->
<g id="edge38_Node000019_Node000010" class="edge">
<title>Node19&#45;&gt;Node10</title>
<g id="a_edge38_Node000019_Node000010"><a xlink:title=" ">
<path fill="none" stroke="#63b8ff" d="M848.95,-184.11C860.89,-175.51 874.31,-163.29 880.9,-148.5 886.14,-136.73 886.14,-131.27 880.9,-119.5 871.17,-97.65 858.18,-100.04 840.9,-83.5 821.27,-64.71 799.5,-42.34 785.09,-27.31"/>
<polygon fill="#63b8ff" stroke="#63b8ff" points="787.64,-24.9 778.2,-20.09 782.57,-29.74 787.64,-24.9"/>
</a>
</g>
</g>
<!-- Node19&#45;&gt;Node11 -->
<g id="edge55_Node000019_Node000011" class="edge">
<title>Node19&#45;&gt;Node11</title>
<g id="a_edge55_Node000019_Node000011"><a xlink:title=" ">
<path fill="none" stroke="#63b8ff" d="M768.34,-192.85C671.15,-184.11 468.31,-165.63 296.9,-148.5 277.35,-146.55 256.12,-144.33 236.71,-142.26"/>
<polygon fill="#63b8ff" stroke="#63b8ff" points="237.34,-138.81 227.03,-141.23 236.6,-145.77 237.34,-138.81"/>
</a>
</g>
</g>
<!-- Node19&#45;&gt;Node12 -->
<g id="edge56_Node000019_Node000012" class="edge">
<title>Node19&#45;&gt;Node12</title>
<g id="a_edge56_Node000019_Node000012"><a xlink:title=" ">
<path fill="none" stroke="#63b8ff" d="M768.3,-195.64C662.88,-190.68 443.23,-177.18 372.9,-148.5 338.83,-134.61 306.72,-105.52 288.47,-86.91"/>
<polygon fill="#63b8ff" stroke="#63b8ff" points="291.16,-84.66 281.72,-79.83 286.09,-89.49 291.16,-84.66"/>
</a>
</g>
</g>
<!-- Node19&#45;&gt;Node14 -->
<g id="edge57_Node000019_Node000014" class="edge">
<title>Node19&#45;&gt;Node14</title>
<g id="a_edge57_Node000019_Node000014"><a xlink:title=" ">
<path fill="none" stroke="#63b8ff" d="M883.5,-197.43C967.49,-195.3 1117.56,-186.16 1153.9,-148.5 1168.62,-133.25 1168.85,-107.81 1166.72,-90.04"/>
<polygon fill="#63b8ff" stroke="#63b8ff" points="1170.18,-89.54 1165.16,-80.21 1163.27,-90.63 1170.18,-89.54"/>
</a>
</g>
</g>
<!-- Node19&#45;&gt;Node15 -->
<g id="edge33_Node000019_Node000015" class="edge">
<title>Node19&#45;&gt;Node15</title>
<g id="a_edge33_Node000019_Node000015"><a xlink:title=" ">
<path fill="none" stroke="#63b8ff" d="M883.47,-194.14C968.76,-187.69 1123.97,-172.98 1173.9,-148.5 1211.15,-130.24 1222.68,-120.77 1240.9,-83.5 1249.06,-66.8 1250.54,-45.46 1250.28,-30.12"/>
<polygon fill="#63b8ff" stroke="#63b8ff" points="1253.79,-30.23 1249.84,-20.4 1246.8,-30.55 1253.79,-30.23"/>
</a>
</g>
</g>
<!-- Node20 -->
<g id="Node000020" class="node">
<title>Node20</title>
<g id="a_Node000020"><a xlink:title=" ">
<polygon fill="#e0e0e0" stroke="#999999" points="872.4,-143.25 823.4,-143.25 823.4,-124.75 872.4,-124.75 872.4,-143.25"/>
<text text-anchor="middle" x="847.9" y="-129.75" font-family="Helvetica,sans-Serif" font-size="10.00">fstream</text>
</a>
</g>
</g>
<!-- Node19&#45;&gt;Node20 -->
<g id="edge34_Node000019_Node000020" class="edge">
<title>Node19&#45;&gt;Node20</title>
<g id="a_edge34_Node000019_Node000020"><a xlink:title=" ">
<path fill="none" stroke="#63b8ff" d="M830.78,-184.02C833.81,-175.35 837.74,-164.09 841.07,-154.55"/>
<polygon fill="#63b8ff" stroke="#63b8ff" points="844.37,-155.73 844.36,-145.14 837.76,-153.42 844.37,-155.73"/>
</a>
</g>
</g>
<!-- Node21 -->
<g id="Node000021" class="node">
<title>Node21</title>
<g id="a_Node000021"><a xlink:href="cuda__utils_8h.html" target="_top" xlink:title="Utility functions for CUDA.">
<polygon fill="white" stroke="#666666" points="962.27,-83.5 849.52,-83.5 849.52,-54.5 962.27,-54.5 962.27,-83.5"/>
<text text-anchor="start" x="857.52" y="-70" font-family="Helvetica,sans-Serif" font-size="10.00">CoverageControl/cuda</text>
<text text-anchor="middle" x="905.9" y="-59.5" font-family="Helvetica,sans-Serif" font-size="10.00">_utils.h</text>
</a>
</g>
</g>
<!-- Node19&#45;&gt;Node21 -->
<g id="edge39_Node000019_Node000021" class="edge">
<title>Node19&#45;&gt;Node21</title>
<g id="a_edge39_Node000019_Node000021"><a xlink:title=" ">
<path fill="none" stroke="#63b8ff" d="M871.04,-184C887.87,-176.34 905.22,-164.96 914.9,-148.5 924.5,-132.17 921.12,-110.61 915.98,-94.21"/>
<polygon fill="#63b8ff" stroke="#63b8ff" points="919.43,-93.49 912.78,-85.24 912.84,-95.84 919.43,-93.49"/>
</a>
</g>
</g>
<!-- Node23 -->
<g id="Node000023" class="node">
<title>Node23</title>
<g id="a_Node000023"><a xlink:href="bivariate__normal__distribution_8h.html" target="_top" xlink:title="Class for Bivariate Normal Distribution.">
<polygon fill="white" stroke="#666666" points="690.77,-148.5 563.02,-148.5 563.02,-119.5 690.77,-119.5 690.77,-148.5"/>
<text text-anchor="start" x="571.02" y="-135" font-family="Helvetica,sans-Serif" font-size="10.00">CoverageControl/bivariate</text>
<text text-anchor="middle" x="626.9" y="-124.5" font-family="Helvetica,sans-Serif" font-size="10.00">_normal_distribution.h</text>
</a>
</g>
</g>
<!-- Node19&#45;&gt;Node23 -->
<g id="edge45_Node000019_Node000023" class="edge">
<title>Node19&#45;&gt;Node23</title>
<g id="a_edge45_Node000019_Node000023"><a xlink:title=" ">
<path fill="none" stroke="#63b8ff" d="M781.74,-184.02C752.24,-174.68 713.22,-162.33 681.74,-152.36"/>
<polygon fill="#63b8ff" stroke="#63b8ff" points="682.97,-149.08 672.38,-149.4 680.86,-155.75 682.97,-149.08"/>
</a>
</g>
</g>
<!-- Node24 -->
<g id="Node000024" class="node">
<title>Node24</title>
<g id="a_Node000024"><a xlink:href="polygon__utils_8h.html" target="_top" xlink:title="Provides utilities for polygon manipulation using CGAL.">
<polygon fill="white" stroke="#666666" points="1144.77,-148.5 1035.02,-148.5 1035.02,-119.5 1144.77,-119.5 1144.77,-148.5"/>
<text text-anchor="start" x="1043.02" y="-135" font-family="Helvetica,sans-Serif" font-size="10.00">CoverageControl/cgal</text>
<text text-anchor="middle" x="1089.9" y="-124.5" font-family="Helvetica,sans-Serif" font-size="10.00">/polygon_utils.h</text>
</a>
</g>
</g>
<!-- Node19&#45;&gt;Node24 -->
<g id="edge51_Node000019_Node000024" class="edge">
<title>Node19&#45;&gt;Node24</title>
<g id="a_edge51_Node000019_Node000024"><a xlink:title=" ">
<path fill="none" stroke="#63b8ff" d="M883.51,-184.25C924.82,-174.39 980.57,-161.09 1023.71,-150.8"/>
<polygon fill="#63b8ff" stroke="#63b8ff" points="1024.29,-154.26 1033.2,-148.53 1022.66,-147.45 1024.29,-154.26"/>
</a>
</g>
</g>
<!-- Node21&#45;&gt;Node3 -->
<g id="edge41_Node000021_Node000003" class="edge">
<title>Node21&#45;&gt;Node3</title>
<g id="a_edge41_Node000021_Node000003"><a xlink:title=" ">
<path fill="none" stroke="#63b8ff" d="M849.16,-58.33C779.89,-46.53 664.64,-26.9 605.1,-16.76"/>
<polygon fill="#63b8ff" stroke="#63b8ff" points="605.91,-13.34 595.46,-15.12 604.73,-20.25 605.91,-13.34"/>
</a>
</g>
</g>
<!-- Node21&#45;&gt;Node6 -->
<g id="edge44_Node000021_Node000006" class="edge">
<title>Node21&#45;&gt;Node6</title>
<g id="a_edge44_Node000021_Node000006"><a xlink:title=" ">
<path fill="none" stroke="#63b8ff" d="M940.03,-54.02C962.9,-44.65 992.8,-32.41 1015.16,-23.25"/>
<polygon fill="#63b8ff" stroke="#63b8ff" points="1016.44,-26.51 1024.37,-19.48 1013.79,-20.03 1016.44,-26.51"/>
</a>
</g>
</g>
<!-- Node21&#45;&gt;Node8 -->
<g id="edge42_Node000021_Node000008" class="edge">
<title>Node21&#45;&gt;Node8</title>
<g id="a_edge42_Node000021_Node000008"><a xlink:title=" ">
<path fill="none" stroke="#63b8ff" d="M897.43,-54.02C892.81,-46.41 887.05,-36.89 882.07,-28.68"/>
<polygon fill="#63b8ff" stroke="#63b8ff" points="885.11,-26.94 876.93,-20.2 879.12,-30.56 885.11,-26.94"/>
</a>
</g>
</g>
<!-- Node21&#45;&gt;Node10 -->
<g id="edge40_Node000021_Node000010" class="edge">
<title>Node21&#45;&gt;Node10</title>
<g id="a_edge40_Node000021_Node000010"><a xlink:title=" ">
<path fill="none" stroke="#63b8ff" d="M872.74,-54.02C850.52,-44.65 821.46,-32.41 799.74,-23.25"/>
<polygon fill="#63b8ff" stroke="#63b8ff" points="801.4,-20.15 790.82,-19.49 798.68,-26.6 801.4,-20.15"/>
</a>
</g>
</g>
<!-- Node22 -->
<g id="Node000022" class="node">
<title>Node22</title>
<g id="a_Node000022"><a xlink:title=" ">
<polygon fill="#e0e0e0" stroke="#999999" points="959.52,-18.5 908.27,-18.5 908.27,0 959.52,0 959.52,-18.5"/>
<text text-anchor="middle" x="933.9" y="-5" font-family="Helvetica,sans-Serif" font-size="10.00">sstream</text>
</a>
</g>
</g>
<!-- Node21&#45;&gt;Node22 -->
<g id="edge43_Node000021_Node000022" class="edge">
<title>Node21&#45;&gt;Node22</title>
<g id="a_edge43_Node000021_Node000022"><a xlink:title=" ">
<path fill="none" stroke="#63b8ff" d="M912.68,-54.02C916.29,-46.58 920.78,-37.32 924.69,-29.24"/>
<polygon fill="#63b8ff" stroke="#63b8ff" points="927.83,-30.79 929.04,-20.27 921.53,-27.74 927.83,-30.79"/>
</a>
</g>
</g>
<!-- Node23&#45;&gt;Node2 -->
<g id="edge46_Node000023_Node000002" class="edge">
<title>Node23&#45;&gt;Node2</title>
<g id="a_edge46_Node000023_Node000002"><a xlink:title=" ">
<path fill="none" stroke="#63b8ff" d="M608.23,-119.04C583.02,-100.96 536.04,-69.95 490.9,-54.5 477.24,-49.82 280.19,-24.5 200.75,-14.4"/>
<polygon fill="#63b8ff" stroke="#63b8ff" points="201.34,-10.95 190.98,-13.16 200.46,-17.9 201.34,-10.95"/>
</a>
</g>
</g>
<!-- Node23&#45;&gt;Node3 -->
<g id="edge47_Node000023_Node000003" class="edge">
<title>Node23&#45;&gt;Node3</title>
<g id="a_edge47_Node000023_Node000003"><a xlink:title=" ">
<path fill="none" stroke="#63b8ff" d="M620.25,-119.39C609.5,-97.41 588.29,-54.02 576.1,-29.08"/>
<polygon fill="#63b8ff" stroke="#63b8ff" points="579.27,-27.58 571.73,-20.14 572.98,-30.66 579.27,-27.58"/>
</a>
</g>
</g>
<!-- Node23&#45;&gt;Node7 -->
<g id="edge48_Node000023_Node000007" class="edge">
<title>Node23&#45;&gt;Node7</title>
<g id="a_edge48_Node000023_Node000007"><a xlink:title=" ">
<path fill="none" stroke="#63b8ff" d="M639.77,-119.02C648.46,-109.58 659.98,-97.07 669.2,-87.05"/>
<polygon fill="#63b8ff" stroke="#63b8ff" points="671.66,-89.55 675.86,-79.82 666.51,-84.81 671.66,-89.55"/>
</a>
</g>
</g>
<!-- Node23&#45;&gt;Node12 -->
<g id="edge49_Node000023_Node000012" class="edge">
<title>Node23&#45;&gt;Node12</title>
<g id="a_edge49_Node000023_Node000012"><a xlink:title=" ">
<path fill="none" stroke="#63b8ff" d="M562.81,-121.12C559.8,-120.57 556.82,-120.03 553.9,-119.5 478.42,-105.87 391.45,-90.62 334.5,-80.7"/>
<polygon fill="#63b8ff" stroke="#63b8ff" points="335.12,-77.25 324.67,-78.98 333.92,-84.15 335.12,-77.25"/>
</a>
</g>
</g>
<!-- Node23&#45;&gt;Node14 -->
<g id="edge50_Node000023_Node000014" class="edge">
<title>Node23&#45;&gt;Node14</title>
<g id="a_edge50_Node000023_Node000014"><a xlink:title=" ">
<path fill="none" stroke="#63b8ff" d="M691.02,-125.46C789.01,-113.95 975.88,-91.98 1082.7,-79.43"/>
<polygon fill="#63b8ff" stroke="#63b8ff" points="1083.03,-82.91 1092.55,-78.27 1082.21,-75.96 1083.03,-82.91"/>
</a>
</g>
</g>
<!-- Node24&#45;&gt;Node6 -->
<g id="edge52_Node000024_Node000006" class="edge">
<title>Node24&#45;&gt;Node6</title>
<g id="a_edge52_Node000024_Node000006"><a xlink:title=" ">
<path fill="none" stroke="#63b8ff" d="M1085.13,-119.39C1077.47,-97.51 1062.37,-54.41 1053.62,-29.42"/>
<polygon fill="#63b8ff" stroke="#63b8ff" points="1057,-28.49 1050.39,-20.21 1050.39,-30.8 1057,-28.49"/>
</a>
</g>
</g>
<!-- Node24&#45;&gt;Node14 -->
<g id="edge53_Node000024_Node000014" class="edge">
<title>Node24&#45;&gt;Node14</title>
<g id="a_edge53_Node000024_Node000014"><a xlink:title=" ">
<path fill="none" stroke="#63b8ff" d="M1106.1,-119.02C1117.37,-109.29 1132.42,-96.3 1144.2,-86.14"/>
<polygon fill="#63b8ff" stroke="#63b8ff" points="1146.38,-88.88 1151.67,-79.69 1141.81,-83.58 1146.38,-88.88"/>
</a>
</g>
</g>
</g>
</svg>
