<?xml version="1.0" encoding="UTF-8" standalone="no"?>
<!DOCTYPE svg PUBLIC "-//W3C//DTD SVG 1.1//EN"
 "http://www.w3.org/Graphics/SVG/1.1/DTD/svg11.dtd">
<!-- Generated by graphviz version 12.1.2 (0)
 -->
<!-- Title: robot_model.h Pages: 1 -->
<svg width="1304pt" height="266pt"
 viewBox="0.00 0.00 1304.40 265.50" xmlns="http://www.w3.org/2000/svg" xmlns:xlink="http://www.w3.org/1999/xlink">
<g id="graph0" class="graph" transform="scale(1 1) rotate(0) translate(4 261.5)">
<title>robot_model.h</title>
<!-- Node1 -->
<g id="Node000001" class="node">
<title>Node1</title>
<g id="a_Node000001"><a xlink:title="Class for handling the robot model.">
<polygon fill="#999999" stroke="#666666" points="654.62,-257.5 577.12,-257.5 577.12,-239 654.62,-239 654.62,-257.5"/>
<text text-anchor="middle" x="615.88" y="-244" font-family="Helvetica,sans-Serif" font-size="10.00">robot_model.h</text>
</a>
</g>
</g>
<!-- Node2 -->
<g id="Node000002" class="node">
<title>Node2</title>
<g id="a_Node000002"><a xlink:title=" ">
<polygon fill="#e0e0e0" stroke="#999999" points="55.75,-197.75 0,-197.75 0,-179.25 55.75,-179.25 55.75,-197.75"/>
<text text-anchor="middle" x="27.88" y="-184.25" font-family="Helvetica,sans-Serif" font-size="10.00">algorithm</text>
</a>
</g>
</g>
<!-- Node1&#45;&gt;Node2 -->
<g id="edge1_Node000001_Node000002" class="edge">
<title>Node1&#45;&gt;Node2</title>
<g id="a_edge1_Node000001_Node000002"><a xlink:title=" ">
<path fill="none" stroke="#63b8ff" d="M576.72,-247.15C486.46,-246.25 257.14,-240.17 69.88,-203 67.43,-202.52 64.93,-201.94 62.43,-201.29"/>
<polygon fill="#63b8ff" stroke="#63b8ff" points="63.64,-198 53.07,-198.6 61.71,-204.73 63.64,-198"/>
</a>
</g>
</g>
<!-- Node3 -->
<g id="Node000003" class="node">
<title>Node3</title>
<g id="a_Node000003"><a xlink:title=" ">
<polygon fill="#e0e0e0" stroke="#999999" points="493.38,-18.5 450.38,-18.5 450.38,0 493.38,0 493.38,-18.5"/>
<text text-anchor="middle" x="471.88" y="-5" font-family="Helvetica,sans-Serif" font-size="10.00">cmath</text>
</a>
</g>
</g>
<!-- Node1&#45;&gt;Node3 -->
<g id="edge2_Node000001_Node000003" class="edge">
<title>Node1&#45;&gt;Node3</title>
<g id="a_edge2_Node000001_Node000003"><a xlink:title=" ">
<path fill="none" stroke="#63b8ff" d="M576.87,-245.33C467.07,-239 159.68,-214.62 102.88,-138 16.38,-21.32 333.1,-10.46 438.72,-10.03"/>
<polygon fill="#63b8ff" stroke="#63b8ff" points="438.45,-13.53 448.44,-10.02 438.44,-6.53 438.45,-13.53"/>
</a>
</g>
</g>
<!-- Node4 -->
<g id="Node000004" class="node">
<title>Node4</title>
<g id="a_Node000004"><a xlink:title=" ">
<polygon fill="#e0e0e0" stroke="#999999" points="512.62,-73 459.12,-73 459.12,-54.5 512.62,-54.5 512.62,-73"/>
<text text-anchor="middle" x="485.88" y="-59.5" font-family="Helvetica,sans-Serif" font-size="10.00">iostream</text>
</a>
</g>
</g>
<!-- Node1&#45;&gt;Node4 -->
<g id="edge3_Node000001_Node000004" class="edge">
<title>Node1&#45;&gt;Node4</title>
<g id="a_edge3_Node000001_Node000004"><a xlink:title=" ">
<path fill="none" stroke="#63b8ff" d="M597.67,-238.52C583.2,-230.82 563.22,-218.45 549.88,-203 518.69,-166.91 499.69,-113.07 491.17,-84.39"/>
<polygon fill="#63b8ff" stroke="#63b8ff" points="494.58,-83.58 488.49,-74.91 487.84,-85.48 494.58,-83.58"/>
</a>
</g>
</g>
<!-- Node5 -->
<g id="Node000005" class="node">
<title>Node5</title>
<g id="a_Node000005"><a xlink:title=" ">
<polygon fill="#e0e0e0" stroke="#999999" points="1271.88,-73 1219.88,-73 1219.88,-54.5 1271.88,-54.5 1271.88,-73"/>
<text text-anchor="middle" x="1245.88" y="-59.5" font-family="Helvetica,sans-Serif" font-size="10.00">memory</text>
</a>
</g>
</g>
<!-- Node1&#45;&gt;Node5 -->
<g id="edge4_Node000001_Node000005" class="edge">
<title>Node1&#45;&gt;Node5</title>
<g id="a_edge4_Node000001_Node000005"><a xlink:title=" ">
<path fill="none" stroke="#63b8ff" d="M655.09,-245.76C755.97,-241.6 1022.48,-228.47 1106.88,-203 1164.94,-185.47 1189.49,-185.76 1226.88,-138 1238.89,-122.65 1243.36,-100.5 1244.99,-84.57"/>
<polygon fill="#63b8ff" stroke="#63b8ff" points="1248.46,-85.12 1245.68,-74.9 1241.48,-84.63 1248.46,-85.12"/>
</a>
</g>
</g>
<!-- Node6 -->
<g id="Node000006" class="node">
<title>Node6</title>
<g id="a_Node000006"><a xlink:title=" ">
<polygon fill="#e0e0e0" stroke="#999999" points="1137,-18.5 1094.75,-18.5 1094.75,0 1137,0 1137,-18.5"/>
<text text-anchor="middle" x="1115.88" y="-5" font-family="Helvetica,sans-Serif" font-size="10.00">vector</text>
</a>
</g>
</g>
<!-- Node1&#45;&gt;Node6 -->
<g id="edge5_Node000001_Node000006" class="edge">
<title>Node1&#45;&gt;Node6</title>
<g id="a_edge5_Node000001_Node000006"><a xlink:title=" ">
<path fill="none" stroke="#63b8ff" d="M654.94,-246.9C763.86,-245.49 1069.01,-238.39 1161.88,-203 1240.91,-172.89 1332.35,-121.6 1280.88,-54.5 1264.91,-33.69 1192.24,-20.51 1148.85,-14.35"/>
<polygon fill="#63b8ff" stroke="#63b8ff" points="1149.33,-10.89 1138.95,-13.01 1148.39,-17.83 1149.33,-10.89"/>
</a>
</g>
</g>
<!-- Node7 -->
<g id="Node000007" class="node">
<title>Node7</title>
<g id="a_Node000007"><a xlink:href="constants_8h.html" target="_top" xlink:title="Constants for the CoverageControl library.">
<polygon fill="white" stroke="#666666" points="856.25,-73 713.5,-73 713.5,-54.5 856.25,-54.5 856.25,-73"/>
<text text-anchor="middle" x="784.88" y="-59.5" font-family="Helvetica,sans-Serif" font-size="10.00">CoverageControl/constants.h</text>
</a>
</g>
</g>
<!-- Node1&#45;&gt;Node7 -->
<g id="edge6_Node000001_Node000007" class="edge">
<title>Node1&#45;&gt;Node7</title>
<g id="a_edge6_Node000001_Node000007"><a xlink:title=" ">
<path fill="none" stroke="#63b8ff" d="M654.96,-243.1C712.44,-234.67 818.02,-209.73 864.88,-138 871.92,-127.21 871.42,-120.1 864.88,-109 856.44,-94.7 841.54,-84.7 826.87,-77.87"/>
<polygon fill="#63b8ff" stroke="#63b8ff" points="828.29,-74.67 817.72,-74.03 825.58,-81.12 828.29,-74.67"/>
</a>
</g>
</g>
<!-- Node10 -->
<g id="Node000010" class="node">
<title>Node10</title>
<g id="a_Node000010"><a xlink:href="map__utils_8h.html" target="_top" xlink:title="Utility functions for transforming maps.">
<polygon fill="white" stroke="#666666" points="428.12,-138 317.62,-138 317.62,-109 428.12,-109 428.12,-138"/>
<text text-anchor="start" x="325.62" y="-124.5" font-family="Helvetica,sans-Serif" font-size="10.00">CoverageControl/map</text>
<text text-anchor="middle" x="372.88" y="-114" font-family="Helvetica,sans-Serif" font-size="10.00">_utils.h</text>
</a>
</g>
</g>
<!-- Node1&#45;&gt;Node10 -->
<g id="edge10_Node000001_Node000010" class="edge">
<title>Node1&#45;&gt;Node10</title>
<g id="a_edge10_Node000001_Node000010"><a xlink:title=" ">
<path fill="none" stroke="#63b8ff" d="M576.66,-243.98C539.6,-239.41 483.61,-228.55 441.88,-203 419.16,-189.09 399.8,-165.32 387.43,-147.57"/>
<polygon fill="#63b8ff" stroke="#63b8ff" points="390.61,-146.04 382.13,-139.69 384.8,-149.94 390.61,-146.04"/>
</a>
</g>
</g>
<!-- Node13 -->
<g id="Node000013" class="node">
<title>Node13</title>
<g id="a_Node000013"><a xlink:href="typedefs_8h.html" target="_top" xlink:title="Contains typedefs for the library.">
<polygon fill="white" stroke="#666666" points="1087.62,-73 950.12,-73 950.12,-54.5 1087.62,-54.5 1087.62,-73"/>
<text text-anchor="middle" x="1018.88" y="-59.5" font-family="Helvetica,sans-Serif" font-size="10.00">CoverageControl/typedefs.h</text>
</a>
</g>
</g>
<!-- Node1&#45;&gt;Node13 -->
<g id="edge22_Node000001_Node000013" class="edge">
<title>Node1&#45;&gt;Node13</title>
<g id="a_edge22_Node000001_Node000013"><a xlink:title=" ">
<path fill="none" stroke="#63b8ff" d="M655.05,-245.11C726.01,-239.28 877.18,-217.69 970.88,-138 988.58,-122.94 1002.26,-99.74 1010.41,-83.5"/>
<polygon fill="#63b8ff" stroke="#63b8ff" points="1013.56,-85.02 1014.69,-74.48 1007.24,-82.01 1013.56,-85.02"/>
</a>
</g>
</g>
<!-- Node16 -->
<g id="Node000016" class="node">
<title>Node16</title>
<g id="a_Node000016"><a xlink:href="parameters_8h.html" target="_top" xlink:title="Contains parameters.">
<polygon fill="white" stroke="#666666" points="261.62,-132.75 112.12,-132.75 112.12,-114.25 261.62,-114.25 261.62,-132.75"/>
<text text-anchor="middle" x="186.88" y="-119.25" font-family="Helvetica,sans-Serif" font-size="10.00">CoverageControl/parameters.h</text>
</a>
</g>
</g>
<!-- Node1&#45;&gt;Node16 -->
<g id="edge19_Node000001_Node000016" class="edge">
<title>Node1&#45;&gt;Node16</title>
<g id="a_edge19_Node000001_Node000016"><a xlink:title=" ">
<path fill="none" stroke="#63b8ff" d="M576.78,-240.66C534.32,-233.13 464.67,-219.65 405.88,-203 337.92,-183.76 260.61,-154.17 218.44,-137.36"/>
<polygon fill="#63b8ff" stroke="#63b8ff" points="220,-134.21 209.41,-133.73 217.39,-140.71 220,-134.21"/>
</a>
</g>
</g>
<!-- Node17 -->
<g id="Node000017" class="node">
<title>Node17</title>
<g id="a_Node000017"><a xlink:href="voronoi_8h.html" target="_top" xlink:title="Class for computing Voronoi cells.">
<polygon fill="white" stroke="#666666" points="1218.25,-132.75 1087.5,-132.75 1087.5,-114.25 1218.25,-114.25 1218.25,-132.75"/>
<text text-anchor="middle" x="1152.88" y="-119.25" font-family="Helvetica,sans-Serif" font-size="10.00">CoverageControl/voronoi.h</text>
</a>
</g>
</g>
<!-- Node1&#45;&gt;Node17 -->
<g id="edge23_Node000001_Node000017" class="edge">
<title>Node1&#45;&gt;Node17</title>
<g id="a_edge23_Node000001_Node000017"><a xlink:title=" ">
<path fill="none" stroke="#63b8ff" d="M655.05,-246.82C751.87,-245.21 999.95,-237.74 1073.88,-203 1102.67,-189.47 1127.08,-160.91 1140.85,-142.22"/>
<polygon fill="#63b8ff" stroke="#63b8ff" points="1143.57,-144.44 1146.49,-134.25 1137.86,-140.39 1143.57,-144.44"/>
</a>
</g>
</g>
<!-- Node18 -->
<g id="Node000018" class="node">
<title>Node18</title>
<g id="a_Node000018"><a xlink:href="world__idf_8h.html" target="_top" xlink:title="Contains the class for Importance Density Function (IDF) for the world.">
<polygon fill="white" stroke="#666666" points="673,-203 558.75,-203 558.75,-174 673,-174 673,-203"/>
<text text-anchor="start" x="566.75" y="-189.5" font-family="Helvetica,sans-Serif" font-size="10.00">CoverageControl/world</text>
<text text-anchor="middle" x="615.88" y="-179" font-family="Helvetica,sans-Serif" font-size="10.00">_idf.h</text>
</a>
</g>
</g>
<!-- Node1&#45;&gt;Node18 -->
<g id="edge28_Node000001_Node000018" class="edge">
<title>Node1&#45;&gt;Node18</title>
<g id="a_edge28_Node000001_Node000018"><a xlink:title=" ">
<path fill="none" stroke="#63b8ff" d="M615.88,-238.73C615.88,-232.42 615.88,-223.46 615.88,-214.92"/>
<polygon fill="#63b8ff" stroke="#63b8ff" points="619.38,-214.95 615.88,-204.95 612.38,-214.95 619.38,-214.95"/>
</a>
</g>
</g>
<!-- Node7&#45;&gt;Node3 -->
<g id="edge7_Node000007_Node000003" class="edge">
<title>Node7&#45;&gt;Node3</title>
<g id="a_edge7_Node000007_Node000003"><a xlink:title=" ">
<path fill="none" stroke="#63b8ff" d="M732.84,-54.02C667.9,-43.13 558.79,-24.83 504.54,-15.73"/>
<polygon fill="#63b8ff" stroke="#63b8ff" points="505.46,-12.33 495.02,-14.13 504.3,-19.24 505.46,-12.33"/>
</a>
</g>
</g>
<!-- Node8 -->
<g id="Node000008" class="node">
<title>Node8</title>
<g id="a_Node000008"><a xlink:title=" ">
<polygon fill="#e0e0e0" stroke="#999999" points="806.5,-18.5 767.25,-18.5 767.25,0 806.5,0 806.5,-18.5"/>
<text text-anchor="middle" x="786.88" y="-5" font-family="Helvetica,sans-Serif" font-size="10.00">limits</text>
</a>
</g>
</g>
<!-- Node7&#45;&gt;Node8 -->
<g id="edge8_Node000007_Node000008" class="edge">
<title>Node7&#45;&gt;Node8</title>
<g id="a_edge8_Node000007_Node000008"><a xlink:title=" ">
<path fill="none" stroke="#63b8ff" d="M785.21,-54.08C785.45,-47.58 785.8,-38.42 786.12,-30.16"/>
<polygon fill="#63b8ff" stroke="#63b8ff" points="789.61,-30.4 786.49,-20.27 782.62,-30.13 789.61,-30.4"/>
</a>
</g>
</g>
<!-- Node9 -->
<g id="Node000009" class="node">
<title>Node9</title>
<g id="a_Node000009"><a xlink:title=" ">
<polygon fill="#e0e0e0" stroke="#999999" points="749.12,-18.5 620.62,-18.5 620.62,0 749.12,0 749.12,-18.5"/>
<text text-anchor="middle" x="684.88" y="-5" font-family="Helvetica,sans-Serif" font-size="10.00">CoverageControl/Config.h</text>
</a>
</g>
</g>
<!-- Node7&#45;&gt;Node9 -->
<g id="edge9_Node000007_Node000009" class="edge">
<title>Node7&#45;&gt;Node9</title>
<g id="a_edge9_Node000007_Node000009"><a xlink:title=" ">
<path fill="none" stroke="#63b8ff" d="M768.36,-54.08C752.87,-45.95 729.45,-33.65 711.35,-24.15"/>
<polygon fill="#63b8ff" stroke="#63b8ff" points="713.23,-21.19 702.75,-19.64 709.98,-27.38 713.23,-21.19"/>
</a>
</g>
</g>
<!-- Node10&#45;&gt;Node3 -->
<g id="edge11_Node000010_Node000003" class="edge">
<title>Node10&#45;&gt;Node3</title>
<g id="a_edge11_Node000010_Node000003"><a xlink:title=" ">
<path fill="none" stroke="#63b8ff" d="M371.37,-108.6C370.51,-93.79 371.38,-70.34 382.88,-54.5 396.34,-35.94 419.82,-24.72 439.28,-18.23"/>
<polygon fill="#63b8ff" stroke="#63b8ff" points="440.16,-21.62 448.72,-15.37 438.13,-14.92 440.16,-21.62"/>
</a>
</g>
</g>
<!-- Node10&#45;&gt;Node4 -->
<g id="edge13_Node000010_Node000004" class="edge">
<title>Node10&#45;&gt;Node4</title>
<g id="a_edge13_Node000010_Node000004"><a xlink:title=" ">
<path fill="none" stroke="#63b8ff" d="M400.23,-108.52C417.97,-99.45 440.99,-87.69 458.7,-78.64"/>
<polygon fill="#63b8ff" stroke="#63b8ff" points="460.28,-81.76 467.59,-74.09 457.1,-75.53 460.28,-81.76"/>
</a>
</g>
</g>
<!-- Node11 -->
<g id="Node000011" class="node">
<title>Node11</title>
<g id="a_Node000011"><a xlink:title=" ">
<polygon fill="#e0e0e0" stroke="#999999" points="441.38,-73 392.38,-73 392.38,-54.5 441.38,-54.5 441.38,-73"/>
<text text-anchor="middle" x="416.88" y="-59.5" font-family="Helvetica,sans-Serif" font-size="10.00">fstream</text>
</a>
</g>
</g>
<!-- Node10&#45;&gt;Node11 -->
<g id="edge12_Node000010_Node000011" class="edge">
<title>Node10&#45;&gt;Node11</title>
<g id="a_edge12_Node000010_Node000011"><a xlink:title=" ">
<path fill="none" stroke="#63b8ff" d="M383.53,-108.52C389.52,-100.65 397.07,-90.75 403.46,-82.35"/>
<polygon fill="#63b8ff" stroke="#63b8ff" points="406.09,-84.68 409.36,-74.61 400.52,-80.44 406.09,-84.68"/>
</a>
</g>
</g>
<!-- Node12 -->
<g id="Node000012" class="node">
<title>Node12</title>
<g id="a_Node000012"><a xlink:title=" ">
<polygon fill="#e0e0e0" stroke="#999999" points="322.88,-73 282.88,-73 282.88,-54.5 322.88,-54.5 322.88,-73"/>
<text text-anchor="middle" x="302.88" y="-59.5" font-family="Helvetica,sans-Serif" font-size="10.00">string</text>
</a>
</g>
</g>
<!-- Node10&#45;&gt;Node12 -->
<g id="edge14_Node000010_Node000012" class="edge">
<title>Node10&#45;&gt;Node12</title>
<g id="a_edge14_Node000010_Node000012"><a xlink:title=" ">
<path fill="none" stroke="#63b8ff" d="M355.93,-108.52C345.67,-100.05 332.55,-89.23 321.92,-80.47"/>
<polygon fill="#63b8ff" stroke="#63b8ff" points="324.47,-78.03 314.53,-74.37 320.02,-83.43 324.47,-78.03"/>
</a>
</g>
</g>
<!-- Node10&#45;&gt;Node13 -->
<g id="edge15_Node000010_Node000013" class="edge">
<title>Node10&#45;&gt;Node13</title>
<g id="a_edge15_Node000010_Node000013"><a xlink:title=" ">
<path fill="none" stroke="#63b8ff" d="M428.51,-117.53C543,-107.29 805.36,-83.84 938.38,-71.95"/>
<polygon fill="#63b8ff" stroke="#63b8ff" points="938.52,-75.45 948.17,-71.07 937.89,-68.48 938.52,-75.45"/>
</a>
</g>
</g>
<!-- Node13&#45;&gt;Node6 -->
<g id="edge18_Node000013_Node000006" class="edge">
<title>Node13&#45;&gt;Node6</title>
<g id="a_edge18_Node000013_Node000006"><a xlink:title=" ">
<path fill="none" stroke="#63b8ff" d="M1034.89,-54.08C1049.92,-45.95 1072.64,-33.65 1090.19,-24.15"/>
<polygon fill="#63b8ff" stroke="#63b8ff" points="1091.37,-27.49 1098.5,-19.65 1088.04,-21.33 1091.37,-27.49"/>
</a>
</g>
</g>
<!-- Node14 -->
<g id="Node000014" class="node">
<title>Node14</title>
<g id="a_Node000014"><a xlink:title=" ">
<polygon fill="#e0e0e0" stroke="#999999" points="969,-18.5 896.75,-18.5 896.75,0 969,0 969,-18.5"/>
<text text-anchor="middle" x="932.88" y="-5" font-family="Helvetica,sans-Serif" font-size="10.00">Eigen/Dense</text>
</a>
</g>
</g>
<!-- Node13&#45;&gt;Node14 -->
<g id="edge16_Node000013_Node000014" class="edge">
<title>Node13&#45;&gt;Node14</title>
<g id="a_edge16_Node000013_Node000014"><a xlink:title=" ">
<path fill="none" stroke="#63b8ff" d="M1004.67,-54.08C991.6,-46.1 971.96,-34.11 956.52,-24.69"/>
<polygon fill="#63b8ff" stroke="#63b8ff" points="958.75,-21.94 948.39,-19.72 955.1,-27.92 958.75,-21.94"/>
</a>
</g>
</g>
<!-- Node15 -->
<g id="Node000015" class="node">
<title>Node15</title>
<g id="a_Node000015"><a xlink:title=" ">
<polygon fill="#e0e0e0" stroke="#999999" points="1040,-18.5 997.75,-18.5 997.75,0 1040,0 1040,-18.5"/>
<text text-anchor="middle" x="1018.88" y="-5" font-family="Helvetica,sans-Serif" font-size="10.00">queue</text>
</a>
</g>
</g>
<!-- Node13&#45;&gt;Node15 -->
<g id="edge17_Node000013_Node000015" class="edge">
<title>Node13&#45;&gt;Node15</title>
<g id="a_edge17_Node000013_Node000015"><a xlink:title=" ">
<path fill="none" stroke="#63b8ff" d="M1018.88,-54.08C1018.88,-47.58 1018.88,-38.42 1018.88,-30.16"/>
<polygon fill="#63b8ff" stroke="#63b8ff" points="1022.38,-30.27 1018.88,-20.27 1015.38,-30.27 1022.38,-30.27"/>
</a>
</g>
</g>
<!-- Node16&#45;&gt;Node3 -->
<g id="edge20_Node000016_Node000003" class="edge">
<title>Node16&#45;&gt;Node3</title>
<g id="a_edge20_Node000016_Node000003"><a xlink:title=" ">
<path fill="none" stroke="#63b8ff" d="M195.13,-113.92C209.65,-99.36 241.29,-69.9 273.88,-54.5 328.24,-28.79 398.17,-17.69 438.71,-13.15"/>
<polygon fill="#63b8ff" stroke="#63b8ff" points="438.97,-16.64 448.55,-12.12 438.24,-9.68 438.97,-16.64"/>
</a>
</g>
</g>
<!-- Node16&#45;&gt;Node12 -->
<g id="edge21_Node000016_Node000012" class="edge">
<title>Node16&#45;&gt;Node12</title>
<g id="a_edge21_Node000016_Node000012"><a xlink:title=" ">
<path fill="none" stroke="#63b8ff" d="M204.24,-113.85C223.03,-104.5 253.27,-89.45 275.31,-78.47"/>
<polygon fill="#63b8ff" stroke="#63b8ff" points="276.64,-81.72 284.03,-74.13 273.52,-75.45 276.64,-81.72"/>
</a>
</g>
</g>
<!-- Node17&#45;&gt;Node3 -->
<g id="edge24_Node000017_Node000003" class="edge">
<title>Node17&#45;&gt;Node3</title>
<g id="a_edge24_Node000017_Node000003"><a xlink:title=" ">
<path fill="none" stroke="#63b8ff" d="M1148.78,-113.93C1141.04,-98.83 1122.7,-67.82 1096.88,-54.5 1083.59,-47.65 631.94,-19.92 504.85,-12.23"/>
<polygon fill="#63b8ff" stroke="#63b8ff" points="505.29,-8.75 495.1,-11.64 504.87,-15.74 505.29,-8.75"/>
</a>
</g>
</g>
<!-- Node17&#45;&gt;Node5 -->
<g id="edge25_Node000017_Node000005" class="edge">
<title>Node17&#45;&gt;Node5</title>
<g id="a_edge25_Node000017_Node000005"><a xlink:title=" ">
<path fill="none" stroke="#63b8ff" d="M1166.6,-113.98C1181.21,-104.9 1204.61,-90.37 1222.21,-79.44"/>
<polygon fill="#63b8ff" stroke="#63b8ff" points="1223.86,-82.54 1230.51,-74.29 1220.16,-76.6 1223.86,-82.54"/>
</a>
</g>
</g>
<!-- Node17&#45;&gt;Node6 -->
<g id="edge26_Node000017_Node000006" class="edge">
<title>Node17&#45;&gt;Node6</title>
<g id="a_edge26_Node000017_Node000006"><a xlink:title=" ">
<path fill="none" stroke="#63b8ff" d="M1157.98,-114.18C1165.37,-100.99 1177.21,-74.69 1167.88,-54.5 1162.34,-42.51 1151.77,-32.58 1141.6,-25.18"/>
<polygon fill="#63b8ff" stroke="#63b8ff" points="1143.67,-22.36 1133.41,-19.72 1139.79,-28.18 1143.67,-22.36"/>
</a>
</g>
</g>
<!-- Node17&#45;&gt;Node13 -->
<g id="edge27_Node000017_Node000013" class="edge">
<title>Node17&#45;&gt;Node13</title>
<g id="a_edge27_Node000017_Node000013"><a xlink:title=" ">
<path fill="none" stroke="#63b8ff" d="M1132.81,-113.85C1110.71,-104.33 1074.91,-88.9 1049.34,-77.88"/>
<polygon fill="#63b8ff" stroke="#63b8ff" points="1051.03,-74.8 1040.46,-74.05 1048.26,-81.23 1051.03,-74.8"/>
</a>
</g>
</g>
<!-- Node18&#45;&gt;Node4 -->
<g id="edge31_Node000018_Node000004" class="edge">
<title>Node18&#45;&gt;Node4</title>
<g id="a_edge31_Node000018_Node000004"><a xlink:title=" ">
<path fill="none" stroke="#63b8ff" d="M595.45,-173.51C582.22,-164.08 564.91,-151.02 550.88,-138 531.86,-120.36 512.42,-97.72 499.82,-82.32"/>
<polygon fill="#63b8ff" stroke="#63b8ff" points="502.55,-80.13 493.55,-74.54 497.1,-84.52 502.55,-80.13"/>
</a>
</g>
</g>
<!-- Node18&#45;&gt;Node6 -->
<g id="edge33_Node000018_Node000006" class="edge">
<title>Node18&#45;&gt;Node6</title>
<g id="a_edge33_Node000018_Node000006"><a xlink:title=" ">
<path fill="none" stroke="#63b8ff" d="M673.44,-185.42C744.77,-181.5 869.3,-170.25 970.88,-138 1030.93,-118.93 1056.56,-121.43 1096.88,-73 1106.92,-60.94 1111.66,-43.66 1113.89,-30.28"/>
<polygon fill="#63b8ff" stroke="#63b8ff" points="1117.35,-30.82 1115.16,-20.46 1110.41,-29.93 1117.35,-30.82"/>
</a>
</g>
</g>
<!-- Node18&#45;&gt;Node9 -->
<g id="edge34_Node000018_Node000009" class="edge">
<title>Node18&#45;&gt;Node9</title>
<g id="a_edge34_Node000018_Node000009"><a xlink:title=" ">
<path fill="none" stroke="#63b8ff" d="M644.15,-173.66C657.82,-165.35 672.95,-153.38 680.88,-138 698.69,-103.42 693.98,-56.29 689.24,-30.02"/>
<polygon fill="#63b8ff" stroke="#63b8ff" points="692.72,-29.54 687.31,-20.42 685.85,-30.92 692.72,-29.54"/>
</a>
</g>
</g>
<!-- Node18&#45;&gt;Node10 -->
<g id="edge45_Node000018_Node000010" class="edge">
<title>Node18&#45;&gt;Node10</title>
<g id="a_edge45_Node000018_Node000010"><a xlink:title=" ">
<path fill="none" stroke="#63b8ff" d="M561.95,-173.52C525.14,-163.98 476.2,-151.29 437.33,-141.21"/>
<polygon fill="#63b8ff" stroke="#63b8ff" points="438.68,-137.94 428.12,-138.82 436.92,-144.72 438.68,-137.94"/>
</a>
</g>
</g>
<!-- Node18&#45;&gt;Node11 -->
<g id="edge30_Node000018_Node000011" class="edge">
<title>Node18&#45;&gt;Node11</title>
<g id="a_edge30_Node000018_Node000011"><a xlink:title=" ">
<path fill="none" stroke="#63b8ff" d="M585.96,-173.68C566.45,-164.32 540.67,-151.28 518.88,-138 489.12,-119.86 456.75,-95.82 436.64,-80.31"/>
<polygon fill="#63b8ff" stroke="#63b8ff" points="439.05,-77.76 429.01,-74.38 434.76,-83.28 439.05,-77.76"/>
</a>
</g>
</g>
<!-- Node18&#45;&gt;Node12 -->
<g id="edge32_Node000018_Node000012" class="edge">
<title>Node18&#45;&gt;Node12</title>
<g id="a_edge32_Node000018_Node000012"><a xlink:title=" ">
<path fill="none" stroke="#63b8ff" d="M558.5,-186.4C479.09,-183.57 341.73,-173.52 308.88,-138 295.76,-123.82 296.06,-100.79 298.49,-84.34"/>
<polygon fill="#63b8ff" stroke="#63b8ff" points="301.88,-85.26 300.3,-74.78 295,-83.96 301.88,-85.26"/>
</a>
</g>
</g>
<!-- Node18&#45;&gt;Node13 -->
<g id="edge47_Node000018_Node000013" class="edge">
<title>Node18&#45;&gt;Node13</title>
<g id="a_edge47_Node000018_Node000013"><a xlink:title=" ">
<path fill="none" stroke="#63b8ff" d="M673.3,-188.18C739.6,-186.85 850.49,-178.02 935.88,-138 964.07,-124.79 989.82,-98.96 1004.92,-81.78"/>
<polygon fill="#63b8ff" stroke="#63b8ff" points="1007.38,-84.3 1011.19,-74.41 1002.05,-79.76 1007.38,-84.3"/>
</a>
</g>
</g>
<!-- Node18&#45;&gt;Node14 -->
<g id="edge29_Node000018_Node000014" class="edge">
<title>Node18&#45;&gt;Node14</title>
<g id="a_edge29_Node000018_Node000014"><a xlink:title=" ">
<path fill="none" stroke="#63b8ff" d="M673.38,-181.8C737.21,-174.5 835.16,-160.08 864.88,-138 901.42,-110.85 920.3,-58.14 928.21,-29.65"/>
<polygon fill="#63b8ff" stroke="#63b8ff" points="931.53,-30.78 930.65,-20.22 924.76,-29.02 931.53,-30.78"/>
</a>
</g>
</g>
<!-- Node18&#45;&gt;Node16 -->
<g id="edge46_Node000018_Node000016" class="edge">
<title>Node18&#45;&gt;Node16</title>
<g id="a_edge46_Node000018_Node000016"><a xlink:title=" ">
<path fill="none" stroke="#63b8ff" d="M558.41,-179.24C490.79,-169.5 375.15,-152.76 275.88,-138 269.16,-137 262.16,-135.95 255.17,-134.9"/>
<polygon fill="#63b8ff" stroke="#63b8ff" points="255.75,-131.45 245.34,-133.42 254.7,-138.37 255.75,-131.45"/>
</a>
</g>
</g>
<!-- Node19 -->
<g id="Node000019" class="node">
<title>Node19</title>
<g id="a_Node000019"><a xlink:href="bivariate__normal__distribution_8h.html" target="_top" xlink:title="Class for Bivariate Normal Distribution.">
<polygon fill="white" stroke="#666666" points="855.75,-138 728,-138 728,-109 855.75,-109 855.75,-138"/>
<text text-anchor="start" x="736" y="-124.5" font-family="Helvetica,sans-Serif" font-size="10.00">CoverageControl/bivariate</text>
<text text-anchor="middle" x="791.88" y="-114" font-family="Helvetica,sans-Serif" font-size="10.00">_normal_distribution.h</text>
</a>
</g>
</g>
<!-- Node18&#45;&gt;Node19 -->
<g id="edge35_Node000018_Node000019" class="edge">
<title>Node18&#45;&gt;Node19</title>
<g id="a_edge35_Node000018_Node000019"><a xlink:title=" ">
<path fill="none" stroke="#63b8ff" d="M654.94,-173.52C680.68,-164.3 714.63,-152.15 742.28,-142.25"/>
<polygon fill="#63b8ff" stroke="#63b8ff" points="743.26,-145.62 751.5,-138.95 740.9,-139.03 743.26,-145.62"/>
</a>
</g>
</g>
<!-- Node20 -->
<g id="Node000020" class="node">
<title>Node20</title>
<g id="a_Node000020"><a xlink:href="cuda__utils_8h.html" target="_top" xlink:title="Utility functions for CUDA.">
<polygon fill="white" stroke="#666666" points="672.25,-138 559.5,-138 559.5,-109 672.25,-109 672.25,-138"/>
<text text-anchor="start" x="567.5" y="-124.5" font-family="Helvetica,sans-Serif" font-size="10.00">CoverageControl/cuda</text>
<text text-anchor="middle" x="615.88" y="-114" font-family="Helvetica,sans-Serif" font-size="10.00">_utils.h</text>
</a>
</g>
</g>
<!-- Node18&#45;&gt;Node20 -->
<g id="edge39_Node000018_Node000020" class="edge">
<title>Node18&#45;&gt;Node20</title>
<g id="a_edge39_Node000018_Node000020"><a xlink:title=" ">
<path fill="none" stroke="#63b8ff" d="M615.88,-173.52C615.88,-166.59 615.88,-157.99 615.88,-149.95"/>
<polygon fill="#63b8ff" stroke="#63b8ff" points="619.38,-149.96 615.88,-139.96 612.38,-149.96 619.38,-149.96"/>
</a>
</g>
</g>
<!-- Node19&#45;&gt;Node3 -->
<g id="edge36_Node000019_Node000003" class="edge">
<title>Node19&#45;&gt;Node3</title>
<g id="a_edge36_Node000019_Node000003"><a xlink:title=" ">
<path fill="none" stroke="#63b8ff" d="M751.99,-108.51C687.93,-86.04 563.33,-42.33 504.34,-21.64"/>
<polygon fill="#63b8ff" stroke="#63b8ff" points="505.81,-18.44 495.21,-18.44 503.49,-25.05 505.81,-18.44"/>
</a>
</g>
</g>
<!-- Node19&#45;&gt;Node7 -->
<g id="edge37_Node000019_Node000007" class="edge">
<title>Node19&#45;&gt;Node7</title>
<g id="a_edge37_Node000019_Node000007"><a xlink:title=" ">
<path fill="none" stroke="#63b8ff" d="M790.18,-108.52C789.31,-101.33 788.23,-92.46 787.28,-84.58"/>
<polygon fill="#63b8ff" stroke="#63b8ff" points="790.78,-84.41 786.11,-74.91 783.83,-85.25 790.78,-84.41"/>
</a>
</g>
</g>
<!-- Node19&#45;&gt;Node13 -->
<g id="edge38_Node000019_Node000013" class="edge">
<title>Node19&#45;&gt;Node13</title>
<g id="a_edge38_Node000019_Node000013"><a xlink:title=" ">
<path fill="none" stroke="#63b8ff" d="M846.83,-108.52C885.71,-98.63 937.22,-85.52 973.71,-76.24"/>
<polygon fill="#63b8ff" stroke="#63b8ff" points="974.23,-79.72 983.06,-73.86 972.5,-72.94 974.23,-79.72"/>
</a>
</g>
</g>
<!-- Node20&#45;&gt;Node4 -->
<g id="edge40_Node000020_Node000004" class="edge">
<title>Node20&#45;&gt;Node4</title>
<g id="a_edge40_Node000020_Node000004"><a xlink:title=" ">
<path fill="none" stroke="#63b8ff" d="M584.41,-108.52C563.51,-99.24 536.26,-87.13 515.71,-78"/>
<polygon fill="#63b8ff" stroke="#63b8ff" points="517.3,-74.88 506.74,-74.02 514.46,-81.28 517.3,-74.88"/>
</a>
</g>
</g>
<!-- Node20&#45;&gt;Node6 -->
<g id="edge43_Node000020_Node000006" class="edge">
<title>Node20&#45;&gt;Node6</title>
<g id="a_edge43_Node000020_Node000006"><a xlink:title=" ">
<path fill="none" stroke="#63b8ff" d="M672.41,-112.08C722.99,-102.56 799.07,-87.76 864.88,-73 886.23,-68.21 1020.51,-34.35 1083.43,-18.46"/>
<polygon fill="#63b8ff" stroke="#63b8ff" points="1084,-21.92 1092.83,-16.08 1082.28,-15.14 1084,-21.92"/>
</a>
</g>
</g>
<!-- Node20&#45;&gt;Node9 -->
<g id="edge44_Node000020_Node000009" class="edge">
<title>Node20&#45;&gt;Node9</title>
<g id="a_edge44_Node000020_Node000009"><a xlink:title=" ">
<path fill="none" stroke="#63b8ff" d="M624.34,-108.74C636.71,-88.61 659.75,-51.12 673.57,-28.65"/>
<polygon fill="#63b8ff" stroke="#63b8ff" points="676.47,-30.61 678.73,-20.25 670.51,-26.94 676.47,-30.61"/>
</a>
</g>
</g>
<!-- Node20&#45;&gt;Node12 -->
<g id="edge42_Node000020_Node000012" class="edge">
<title>Node20&#45;&gt;Node12</title>
<g id="a_edge42_Node000020_Node000012"><a xlink:title=" ">
<path fill="none" stroke="#63b8ff" d="M559.19,-112.04C493.33,-99.89 386.98,-80.27 334.39,-70.57"/>
<polygon fill="#63b8ff" stroke="#63b8ff" points="335.08,-67.13 324.61,-68.76 333.81,-74.02 335.08,-67.13"/>
</a>
</g>
</g>
<!-- Node21 -->
<g id="Node000021" class="node">
<title>Node21</title>
<g id="a_Node000021"><a xlink:title=" ">
<polygon fill="#e0e0e0" stroke="#999999" points="581.5,-73 530.25,-73 530.25,-54.5 581.5,-54.5 581.5,-73"/>
<text text-anchor="middle" x="555.88" y="-59.5" font-family="Helvetica,sans-Serif" font-size="10.00">sstream</text>
</a>
</g>
</g>
<!-- Node20&#45;&gt;Node21 -->
<g id="edge41_Node000020_Node000021" class="edge">
<title>Node20&#45;&gt;Node21</title>
<g id="a_edge41_Node000020_Node000021"><a xlink:title=" ">
<path fill="none" stroke="#63b8ff" d="M601.35,-108.52C592.82,-100.31 581.99,-89.88 573.04,-81.27"/>
<polygon fill="#63b8ff" stroke="#63b8ff" points="575.59,-78.87 565.96,-74.45 570.73,-83.91 575.59,-78.87"/>
</a>
</g>
</g>
</g>
</svg>
