<?xml version="1.0" encoding="UTF-8" standalone="no"?>
<!DOCTYPE svg PUBLIC "-//W3C//DTD SVG 1.1//EN"
 "http://www.w3.org/Graphics/SVG/1.1/DTD/svg11.dtd">
<!-- Generated by graphviz version 10.0.1 (0)
 -->
<!-- Title: robot_model.h Pages: 1 -->
<!--zoomable 276 -->

<svg id="main" version="1.1" xmlns="http://www.w3.org/2000/svg" xmlns:xlink="http://www.w3.org/1999/xlink" xml:space="preserve" onload="init(evt)">
<style type="text/css"><![CDATA[
.node, .edge {opacity: 0.7;}
.node.selected, .edge.selected {opacity: 1;}
.edge:hover path { stroke: red; }
.edge:hover polygon { stroke: red; fill: red; }
]]></style>

<defs>
  <circle id="rim" cx="0" cy="0" r="7"/>
  <circle id="rim2" cx="0" cy="0" r="3.5"/>
  <g id="zoomPlus">
    <use xlink:href="#rim" fill="#404040"><set attributeName="fill" to="#808080" begin="zoomplus.mouseover" end="zoomplus.mouseout"/></use>
    <path d="M-4,0h8M0,-4v8" fill="none" stroke="white" stroke-width="1.5" pointer-events="none"/>
  </g>
  <g id="zoomMin">
    <use xlink:href="#rim" fill="#404040"><set attributeName="fill" to="#808080" begin="zoomminus.mouseover" end="zoomminus.mouseout"/></use>
    <path d="M-4,0h8" fill="none" stroke="white" stroke-width="1.5" pointer-events="none"/>
  </g>
  <g id="arrowUp" transform="translate(30 24)">
    <use xlink:href="#rim"/>
    <path pointer-events="none" fill="none" stroke="white" stroke-width="1.5" d="M0,-3.0v7 M-2.5,-0.5L0,-3.0L2.5,-0.5"/>
  </g>
  <g id="arrowRight" transform="rotate(90) translate(36 -43)">
    <use xlink:href="#rim"/>
    <path pointer-events="none" fill="none" stroke="white" stroke-width="1.5" d="M0,-3.0v7 M-2.5,-0.5L0,-3.0L2.5,-0.5"/>
  </g>
  <g id="arrowDown" transform="rotate(180) translate(-30 -48)">
    <use xlink:href="#rim"/>
    <path pointer-events="none" fill="none" stroke="white" stroke-width="1.5" d="M0,-3.0v7 M-2.5,-0.5L0,-3.0L2.5,-0.5"/>
  </g>
  <g id="arrowLeft" transform="rotate(270) translate(-36 17)">
    <use xlink:href="#rim"/>
    <path pointer-events="none" fill="none" stroke="white" stroke-width="1.5" d="M0,-3.0v7 M-2.5,-0.5L0,-3.0L2.5,-0.5"/>
  </g>
  <g id="resetDef">
    <use xlink:href="#rim2" fill="#404040"><set attributeName="fill" to="#808080" begin="reset.mouseover" end="reset.mouseout"/></use>
  </g>
</defs>
<script type="application/ecmascript">
var viewWidth = 1329;
var viewHeight = 276;
var sectionId = 'dynsection-0';
</script>
<script type="application/ecmascript" xlink:href="svg.min.js"/>
<svg id="graph" class="graph">
<g id="viewport">
<title>robot_model.h</title>
<!-- Node1 -->
<g id="Node000001" class="node">
<title>Node1</title>
<g id="a_Node000001"><a xlink:title="Class for handling the robot model.">
<polygon fill="#999999" stroke="#666666" points="320.64,-268 243.14,-268 243.14,-249.5 320.64,-249.5 320.64,-268"/>
<text text-anchor="middle" x="281.89" y="-254.5" font-family="Helvetica,sans-Serif" font-size="10.00">robot_model.h</text>
</a>
</g>
</g>
<!-- Node2 -->
<g id="Node000002" class="node">
<title>Node2</title>
<g id="a_Node000002"><a xlink:title=" ">
<polygon fill="#e0e0e0" stroke="#999999" points="389.39,-18.5 346.39,-18.5 346.39,0 389.39,0 389.39,-18.5"/>
<text text-anchor="middle" x="367.89" y="-5" font-family="Helvetica,sans-Serif" font-size="10.00">cmath</text>
</a>
</g>
</g>
<!-- Node1&#45;&gt;Node2 -->
<g id="edge1_Node000001_Node000002" class="edge">
<title>Node1&#45;&gt;Node2</title>
<g id="a_edge1_Node000001_Node000002"><a xlink:title=" ">
<path fill="none" stroke="#63b8ff" d="M242.94,-251.79C208.12,-245.46 156.34,-233.54 114.89,-213.5 40.57,-177.57 -35.92,-116.23 18.89,-54.5 63.76,-3.96 254.02,-28.35 320.89,-18.5 325.37,-17.84 330.08,-17.09 334.72,-16.31"/>
<polygon fill="#63b8ff" stroke="#63b8ff" points="335.18,-19.78 344.44,-14.62 333.99,-12.88 335.18,-19.78"/>
</a>
</g>
</g>
<!-- Node3 -->
<g id="Node000003" class="node">
<title>Node3</title>
<g id="a_Node000003"><a xlink:title=" ">
<polygon fill="#e0e0e0" stroke="#999999" points="545.64,-18.5 492.14,-18.5 492.14,0 545.64,0 545.64,-18.5"/>
<text text-anchor="middle" x="518.89" y="-5" font-family="Helvetica,sans-Serif" font-size="10.00">iostream</text>
</a>
</g>
</g>
<!-- Node1&#45;&gt;Node3 -->
<g id="edge2_Node000001_Node000003" class="edge">
<title>Node1&#45;&gt;Node3</title>
<g id="a_edge2_Node000001_Node000003"><a xlink:title=" ">
<path fill="none" stroke="#63b8ff" d="M277.22,-249.18C268.52,-233.98 248.36,-202.2 222.89,-184.5 181.33,-155.63 157.72,-175.44 114.89,-148.5 72.31,-121.73 18.04,-91.7 51.89,-54.5 59.1,-46.57 370.42,-21.75 480.68,-13.19"/>
<polygon fill="#63b8ff" stroke="#63b8ff" points="480.69,-16.7 490.39,-12.43 480.15,-9.72 480.69,-16.7"/>
</a>
</g>
</g>
<!-- Node4 -->
<g id="Node000004" class="node">
<title>Node4</title>
<g id="a_Node000004"><a xlink:title=" ">
<polygon fill="#e0e0e0" stroke="#999999" points="112.89,-78.25 60.89,-78.25 60.89,-59.75 112.89,-59.75 112.89,-78.25"/>
<text text-anchor="middle" x="86.89" y="-64.75" font-family="Helvetica,sans-Serif" font-size="10.00">memory</text>
</a>
</g>
</g>
<!-- Node1&#45;&gt;Node4 -->
<g id="edge3_Node000001_Node000004" class="edge">
<title>Node1&#45;&gt;Node4</title>
<g id="a_edge3_Node000001_Node000004"><a xlink:title=" ">
<path fill="none" stroke="#63b8ff" d="M242.92,-254.81C211.46,-250.48 167.96,-239.81 139.89,-213.5 104.27,-180.13 92.48,-120.74 88.66,-89.87"/>
<polygon fill="#63b8ff" stroke="#63b8ff" points="92.15,-89.62 87.62,-80.05 85.19,-90.36 92.15,-89.62"/>
</a>
</g>
</g>
<!-- Node5 -->
<g id="Node000005" class="node">
<title>Node5</title>
<g id="a_Node000005"><a xlink:title=" ">
<polygon fill="#e0e0e0" stroke="#999999" points="213.76,-208.25 158.01,-208.25 158.01,-189.75 213.76,-189.75 213.76,-208.25"/>
<text text-anchor="middle" x="185.89" y="-194.75" font-family="Helvetica,sans-Serif" font-size="10.00">algorithm</text>
</a>
</g>
</g>
<!-- Node1&#45;&gt;Node5 -->
<g id="edge4_Node000001_Node000005" class="edge">
<title>Node1&#45;&gt;Node5</title>
<g id="a_edge4_Node000001_Node000005"><a xlink:title=" ">
<path fill="none" stroke="#63b8ff" d="M267.72,-249.23C252.56,-240.11 228.25,-225.49 210.06,-214.54"/>
<polygon fill="#63b8ff" stroke="#63b8ff" points="212.09,-211.68 201.72,-209.53 208.48,-217.68 212.09,-211.68"/>
</a>
</g>
</g>
<!-- Node6 -->
<g id="Node000006" class="node">
<title>Node6</title>
<g id="a_Node000006"><a xlink:title=" ">
<polygon fill="#e0e0e0" stroke="#999999" points="1091.01,-18.5 1048.76,-18.5 1048.76,0 1091.01,0 1091.01,-18.5"/>
<text text-anchor="middle" x="1069.89" y="-5" font-family="Helvetica,sans-Serif" font-size="10.00">vector</text>
</a>
</g>
</g>
<!-- Node1&#45;&gt;Node6 -->
<g id="edge5_Node000001_Node000006" class="edge">
<title>Node1&#45;&gt;Node6</title>
<g id="a_edge5_Node000001_Node000006"><a xlink:title=" ">
<path fill="none" stroke="#63b8ff" d="M320.79,-257.19C464.98,-254.88 968.65,-244.71 1125.89,-213.5 1210.96,-196.61 1259.8,-219.31 1309.89,-148.5 1366.54,-68.4 1180.45,-28.16 1102.55,-15.13"/>
<polygon fill="#63b8ff" stroke="#63b8ff" points="1103.38,-11.72 1092.95,-13.57 1102.26,-18.63 1103.38,-11.72"/>
</a>
</g>
</g>
<!-- Node7 -->
<g id="Node000007" class="node">
<title>Node7</title>
<g id="a_Node000007"><a xlink:href="constants_8h.html" target="_top" xlink:title="Constants for the CoverageControl library.">
<polygon fill="white" stroke="#666666" points="765.26,-78.25 622.51,-78.25 622.51,-59.75 765.26,-59.75 765.26,-78.25"/>
<text text-anchor="middle" x="693.89" y="-64.75" font-family="Helvetica,sans-Serif" font-size="10.00">CoverageControl/constants.h</text>
</a>
</g>
</g>
<!-- Node1&#45;&gt;Node7 -->
<g id="edge6_Node000001_Node000007" class="edge">
<title>Node1&#45;&gt;Node7</title>
<g id="a_edge6_Node000001_Node000007"><a xlink:title=" ">
<path fill="none" stroke="#63b8ff" d="M321.04,-253.88C418.06,-243.41 665.23,-210.99 713.89,-148.5 727.62,-130.86 716.58,-104.85 706.24,-87.67"/>
<polygon fill="#63b8ff" stroke="#63b8ff" points="709.34,-86.01 700.95,-79.54 703.47,-89.83 709.34,-86.01"/>
</a>
</g>
</g>
<!-- Node11 -->
<g id="Node000011" class="node">
<title>Node11</title>
<g id="a_Node000011"><a xlink:href="map__utils_8h.html" target="_top" xlink:title="Utility functions for transforming maps.">
<polygon fill="white" stroke="#666666" points="234.14,-148.5 123.64,-148.5 123.64,-119.5 234.14,-119.5 234.14,-148.5"/>
<text text-anchor="start" x="131.64" y="-135" font-family="Helvetica,sans-Serif" font-size="10.00">CoverageControl/map</text>
<text text-anchor="middle" x="178.89" y="-124.5" font-family="Helvetica,sans-Serif" font-size="10.00">_utils.h</text>
</a>
</g>
</g>
<!-- Node1&#45;&gt;Node11 -->
<g id="edge11_Node000001_Node000011" class="edge">
<title>Node1&#45;&gt;Node11</title>
<g id="a_edge11_Node000001_Node000011"><a xlink:title=" ">
<path fill="none" stroke="#63b8ff" d="M242.72,-256.43C211.67,-253.07 170.09,-242.91 148.89,-213.5 136.76,-196.68 147.34,-174.35 159.15,-157.8"/>
<polygon fill="#63b8ff" stroke="#63b8ff" points="161.83,-160.07 165.17,-150.01 156.29,-155.79 161.83,-160.07"/>
</a>
</g>
</g>
<!-- Node12 -->
<g id="Node000012" class="node">
<title>Node12</title>
<g id="a_Node000012"><a xlink:href="parameters_8h.html" target="_top" xlink:title="Contains parameters.">
<polygon fill="white" stroke="#666666" points="356.64,-78.25 207.14,-78.25 207.14,-59.75 356.64,-59.75 356.64,-78.25"/>
<text text-anchor="middle" x="281.89" y="-64.75" font-family="Helvetica,sans-Serif" font-size="10.00">CoverageControl/parameters.h</text>
</a>
</g>
</g>
<!-- Node1&#45;&gt;Node12 -->
<g id="edge19_Node000001_Node000012" class="edge">
<title>Node1&#45;&gt;Node12</title>
<g id="a_edge19_Node000001_Node000012"><a xlink:title=" ">
<path fill="none" stroke="#63b8ff" d="M281.89,-249.19C281.89,-221.03 281.89,-130.71 281.89,-90.1"/>
<polygon fill="#63b8ff" stroke="#63b8ff" points="285.39,-90.12 281.89,-80.12 278.39,-90.12 285.39,-90.12"/>
</a>
</g>
</g>
<!-- Node14 -->
<g id="Node000014" class="node">
<title>Node14</title>
<g id="a_Node000014"><a xlink:href="typedefs_8h.html" target="_top" xlink:title="Contains typedefs for the library.">
<polygon fill="white" stroke="#666666" points="1240.64,-78.25 1103.14,-78.25 1103.14,-59.75 1240.64,-59.75 1240.64,-78.25"/>
<text text-anchor="middle" x="1171.89" y="-64.75" font-family="Helvetica,sans-Serif" font-size="10.00">CoverageControl/typedefs.h</text>
</a>
</g>
</g>
<!-- Node1&#45;&gt;Node14 -->
<g id="edge20_Node000001_Node000014" class="edge">
<title>Node1&#45;&gt;Node14</title>
<g id="a_edge20_Node000001_Node000014"><a xlink:title=" ">
<path fill="none" stroke="#63b8ff" d="M321.13,-256.63C499.6,-251.11 1228.76,-224.04 1292.89,-148.5 1318.95,-117.79 1264.48,-94.68 1220.39,-81.74"/>
<polygon fill="#63b8ff" stroke="#63b8ff" points="1221.5,-78.42 1210.92,-79.08 1219.6,-85.16 1221.5,-78.42"/>
</a>
</g>
</g>
<!-- Node17 -->
<g id="Node000017" class="node">
<title>Node17</title>
<g id="a_Node000017"><a xlink:href="voronoi_8h.html" target="_top" xlink:title="Class for computing Voronoi cells.">
<polygon fill="white" stroke="#666666" points="513.26,-143.25 382.51,-143.25 382.51,-124.75 513.26,-124.75 513.26,-143.25"/>
<text text-anchor="middle" x="447.89" y="-129.75" font-family="Helvetica,sans-Serif" font-size="10.00">CoverageControl/voronoi.h</text>
</a>
</g>
</g>
<!-- Node1&#45;&gt;Node17 -->
<g id="edge24_Node000001_Node000017" class="edge">
<title>Node1&#45;&gt;Node17</title>
<g id="a_edge24_Node000001_Node000017"><a xlink:title=" ">
<path fill="none" stroke="#63b8ff" d="M293.56,-249.12C321.49,-228.47 392.44,-176 427.56,-150.03"/>
<polygon fill="#63b8ff" stroke="#63b8ff" points="429.27,-153.12 435.23,-144.36 425.11,-147.49 429.27,-153.12"/>
</a>
</g>
</g>
<!-- Node19 -->
<g id="Node000019" class="node">
<title>Node19</title>
<g id="a_Node000019"><a xlink:href="world__idf_8h.html" target="_top" xlink:title="Contains the class for Importance Density Function (IDF) for the world.">
<polygon fill="white" stroke="#666666" points="889.01,-213.5 774.76,-213.5 774.76,-184.5 889.01,-184.5 889.01,-213.5"/>
<text text-anchor="start" x="782.76" y="-200" font-family="Helvetica,sans-Serif" font-size="10.00">CoverageControl/world</text>
<text text-anchor="middle" x="831.89" y="-189.5" font-family="Helvetica,sans-Serif" font-size="10.00">_idf.h</text>
</a>
</g>
</g>
<!-- Node1&#45;&gt;Node19 -->
<g id="edge32_Node000001_Node000019" class="edge">
<title>Node1&#45;&gt;Node19</title>
<g id="a_edge32_Node000001_Node000019"><a xlink:title=" ">
<path fill="none" stroke="#63b8ff" d="M320.86,-254.87C400.88,-248.78 589.41,-233.48 746.89,-213.5 752.17,-212.83 757.62,-212.09 763.11,-211.3"/>
<polygon fill="#63b8ff" stroke="#63b8ff" points="763.47,-214.78 772.85,-209.86 762.44,-207.86 763.47,-214.78"/>
</a>
</g>
</g>
<!-- Node7&#45;&gt;Node2 -->
<g id="edge7_Node000007_Node000002" class="edge">
<title>Node7&#45;&gt;Node2</title>
<g id="a_edge7_Node000007_Node000002"><a xlink:title=" ">
<path fill="none" stroke="#63b8ff" d="M644.73,-59.29C577.47,-47.38 458.57,-26.31 400.98,-16.11"/>
<polygon fill="#63b8ff" stroke="#63b8ff" points="401.61,-12.67 391.16,-14.37 400.39,-19.56 401.61,-12.67"/>
</a>
</g>
</g>
<!-- Node8 -->
<g id="Node000008" class="node">
<title>Node8</title>
<g id="a_Node000008"><a xlink:title=" ">
<polygon fill="#e0e0e0" stroke="#999999" points="781.51,-18.5 742.26,-18.5 742.26,0 781.51,0 781.51,-18.5"/>
<text text-anchor="middle" x="761.89" y="-5" font-family="Helvetica,sans-Serif" font-size="10.00">limits</text>
</a>
</g>
</g>
<!-- Node7&#45;&gt;Node8 -->
<g id="edge8_Node000007_Node000008" class="edge">
<title>Node7&#45;&gt;Node8</title>
<g id="a_edge8_Node000007_Node000008"><a xlink:title=" ">
<path fill="none" stroke="#63b8ff" d="M703.92,-59.48C714.26,-50.69 730.63,-36.79 743.34,-26"/>
<polygon fill="#63b8ff" stroke="#63b8ff" points="745.3,-28.93 750.66,-19.79 740.77,-23.59 745.3,-28.93"/>
</a>
</g>
</g>
<!-- Node9 -->
<g id="Node000009" class="node">
<title>Node9</title>
<g id="a_Node000009"><a xlink:title=" ">
<polygon fill="#e0e0e0" stroke="#999999" points="713.89,-18.5 673.89,-18.5 673.89,0 713.89,0 713.89,-18.5"/>
<text text-anchor="middle" x="693.89" y="-5" font-family="Helvetica,sans-Serif" font-size="10.00">string</text>
</a>
</g>
</g>
<!-- Node7&#45;&gt;Node9 -->
<g id="edge9_Node000007_Node000009" class="edge">
<title>Node7&#45;&gt;Node9</title>
<g id="a_edge9_Node000007_Node000009"><a xlink:title=" ">
<path fill="none" stroke="#63b8ff" d="M693.89,-59.48C693.89,-51.8 693.89,-40.22 693.89,-30.22"/>
<polygon fill="#63b8ff" stroke="#63b8ff" points="697.39,-30.32 693.89,-20.32 690.39,-30.32 697.39,-30.32"/>
</a>
</g>
</g>
<!-- Node10 -->
<g id="Node000010" class="node">
<title>Node10</title>
<g id="a_Node000010"><a xlink:title=" ">
<polygon fill="#e0e0e0" stroke="#999999" points="1016.14,-18.5 887.64,-18.5 887.64,0 1016.14,0 1016.14,-18.5"/>
<text text-anchor="middle" x="951.89" y="-5" font-family="Helvetica,sans-Serif" font-size="10.00">CoverageControl/Config.h</text>
</a>
</g>
</g>
<!-- Node7&#45;&gt;Node10 -->
<g id="edge10_Node000007_Node000010" class="edge">
<title>Node7&#45;&gt;Node10</title>
<g id="a_edge10_Node000007_Node000010"><a xlink:title=" ">
<path fill="none" stroke="#63b8ff" d="M732.79,-59.29C777.98,-49.18 852.62,-32.47 902.03,-21.41"/>
<polygon fill="#63b8ff" stroke="#63b8ff" points="902.62,-24.87 911.61,-19.27 901.09,-18.03 902.62,-24.87"/>
</a>
</g>
</g>
<!-- Node11&#45;&gt;Node2 -->
<g id="edge12_Node000011_Node000002" class="edge">
<title>Node11&#45;&gt;Node2</title>
<g id="a_edge12_Node000011_Node000002"><a xlink:title=" ">
<path fill="none" stroke="#63b8ff" d="M170.53,-119.18C161.4,-102.11 149.95,-73.04 164.89,-54.5 170.25,-47.85 278.93,-26.79 335.01,-16.31"/>
<polygon fill="#63b8ff" stroke="#63b8ff" points="335.44,-19.79 344.64,-14.51 334.16,-12.9 335.44,-19.79"/>
</a>
</g>
</g>
<!-- Node11&#45;&gt;Node9 -->
<g id="edge13_Node000011_Node000009" class="edge">
<title>Node11&#45;&gt;Node9</title>
<g id="a_edge13_Node000011_Node000009"><a xlink:title=" ">
<path fill="none" stroke="#63b8ff" d="M177.8,-119.21C177.24,-101.32 179.29,-70.52 197.89,-54.5 215.54,-39.29 555.54,-18.3 662.17,-12.06"/>
<polygon fill="#63b8ff" stroke="#63b8ff" points="662.14,-15.57 671.92,-11.5 661.74,-8.58 662.14,-15.57"/>
</a>
</g>
</g>
<!-- Node11&#45;&gt;Node12 -->
<g id="edge14_Node000011_Node000012" class="edge">
<title>Node11&#45;&gt;Node12</title>
<g id="a_edge14_Node000011_Node000012"><a xlink:title=" ">
<path fill="none" stroke="#63b8ff" d="M201.74,-119.02C218.43,-108.81 241,-95.01 257.94,-84.65"/>
<polygon fill="#63b8ff" stroke="#63b8ff" points="259.66,-87.7 266.36,-79.5 256,-81.73 259.66,-87.7"/>
</a>
</g>
</g>
<!-- Node12&#45;&gt;Node2 -->
<g id="edge15_Node000012_Node000002" class="edge">
<title>Node12&#45;&gt;Node2</title>
<g id="a_edge15_Node000012_Node000002"><a xlink:title=" ">
<path fill="none" stroke="#63b8ff" d="M294.57,-59.48C307.96,-50.49 329.33,-36.14 345.54,-25.25"/>
<polygon fill="#63b8ff" stroke="#63b8ff" points="347.25,-28.32 353.61,-19.84 343.35,-22.51 347.25,-28.32"/>
</a>
</g>
</g>
<!-- Node12&#45;&gt;Node3 -->
<g id="edge17_Node000012_Node000003" class="edge">
<title>Node12&#45;&gt;Node3</title>
<g id="a_edge17_Node000012_Node000003"><a xlink:title=" ">
<path fill="none" stroke="#63b8ff" d="M317.62,-59.29C361.52,-48.6 435.68,-30.53 480.67,-19.56"/>
<polygon fill="#63b8ff" stroke="#63b8ff" points="481.36,-23 490.25,-17.23 479.71,-16.19 481.36,-23"/>
</a>
</g>
</g>
<!-- Node12&#45;&gt;Node9 -->
<g id="edge18_Node000012_Node000009" class="edge">
<title>Node12&#45;&gt;Node9</title>
<g id="a_edge18_Node000012_Node000009"><a xlink:title=" ">
<path fill="none" stroke="#63b8ff" d="M344.01,-59.29C433.29,-46.78 594.58,-24.17 662.45,-14.66"/>
<polygon fill="#63b8ff" stroke="#63b8ff" points="662.71,-18.15 672.13,-13.3 661.74,-11.22 662.71,-18.15"/>
</a>
</g>
</g>
<!-- Node13 -->
<g id="Node000013" class="node">
<title>Node13</title>
<g id="a_Node000013"><a xlink:title=" ">
<polygon fill="#e0e0e0" stroke="#999999" points="311.64,-18.5 252.14,-18.5 252.14,0 311.64,0 311.64,-18.5"/>
<text text-anchor="middle" x="281.89" y="-5" font-family="Helvetica,sans-Serif" font-size="10.00">filesystem</text>
</a>
</g>
</g>
<!-- Node12&#45;&gt;Node13 -->
<g id="edge16_Node000012_Node000013" class="edge">
<title>Node12&#45;&gt;Node13</title>
<g id="a_edge16_Node000012_Node000013"><a xlink:title=" ">
<path fill="none" stroke="#63b8ff" d="M281.89,-59.48C281.89,-51.8 281.89,-40.22 281.89,-30.22"/>
<polygon fill="#63b8ff" stroke="#63b8ff" points="285.39,-30.32 281.89,-20.32 278.39,-30.32 285.39,-30.32"/>
</a>
</g>
</g>
<!-- Node14&#45;&gt;Node6 -->
<g id="edge23_Node000014_Node000006" class="edge">
<title>Node14&#45;&gt;Node6</title>
<g id="a_edge23_Node000014_Node000006"><a xlink:title=" ">
<path fill="none" stroke="#63b8ff" d="M1156.83,-59.48C1140.66,-50.32 1114.66,-35.6 1095.3,-24.64"/>
<polygon fill="#63b8ff" stroke="#63b8ff" points="1097.08,-21.62 1086.65,-19.74 1093.63,-27.71 1097.08,-21.62"/>
</a>
</g>
</g>
<!-- Node15 -->
<g id="Node000015" class="node">
<title>Node15</title>
<g id="a_Node000015"><a xlink:title=" ">
<polygon fill="#e0e0e0" stroke="#999999" points="1294.01,-18.5 1221.76,-18.5 1221.76,0 1294.01,0 1294.01,-18.5"/>
<text text-anchor="middle" x="1257.89" y="-5" font-family="Helvetica,sans-Serif" font-size="10.00">Eigen/Dense</text>
</a>
</g>
</g>
<!-- Node14&#45;&gt;Node15 -->
<g id="edge21_Node000014_Node000015" class="edge">
<title>Node14&#45;&gt;Node15</title>
<g id="a_edge21_Node000014_Node000015"><a xlink:title=" ">
<path fill="none" stroke="#63b8ff" d="M1184.57,-59.48C1197.96,-50.49 1219.33,-36.14 1235.54,-25.25"/>
<polygon fill="#63b8ff" stroke="#63b8ff" points="1237.25,-28.32 1243.61,-19.84 1233.35,-22.51 1237.25,-28.32"/>
</a>
</g>
</g>
<!-- Node16 -->
<g id="Node000016" class="node">
<title>Node16</title>
<g id="a_Node000016"><a xlink:title=" ">
<polygon fill="#e0e0e0" stroke="#999999" points="1193.01,-18.5 1150.76,-18.5 1150.76,0 1193.01,0 1193.01,-18.5"/>
<text text-anchor="middle" x="1171.89" y="-5" font-family="Helvetica,sans-Serif" font-size="10.00">queue</text>
</a>
</g>
</g>
<!-- Node14&#45;&gt;Node16 -->
<g id="edge22_Node000014_Node000016" class="edge">
<title>Node14&#45;&gt;Node16</title>
<g id="a_edge22_Node000014_Node000016"><a xlink:title=" ">
<path fill="none" stroke="#63b8ff" d="M1171.89,-59.48C1171.89,-51.8 1171.89,-40.22 1171.89,-30.22"/>
<polygon fill="#63b8ff" stroke="#63b8ff" points="1175.39,-30.32 1171.89,-20.32 1168.39,-30.32 1175.39,-30.32"/>
</a>
</g>
</g>
<!-- Node17&#45;&gt;Node2 -->
<g id="edge25_Node000017_Node000002" class="edge">
<title>Node17&#45;&gt;Node2</title>
<g id="a_edge25_Node000017_Node000002"><a xlink:title=" ">
<path fill="none" stroke="#63b8ff" d="M439,-124.48C429.5,-115.06 414.4,-99.15 403.89,-83.5 392.17,-66.07 381.95,-44.27 375.43,-29"/>
<polygon fill="#63b8ff" stroke="#63b8ff" points="378.83,-28.08 371.77,-20.18 372.36,-30.75 378.83,-28.08"/>
</a>
</g>
</g>
<!-- Node17&#45;&gt;Node3 -->
<g id="edge26_Node000017_Node000003" class="edge">
<title>Node17&#45;&gt;Node3</title>
<g id="a_edge26_Node000017_Node000003"><a xlink:title=" ">
<path fill="none" stroke="#63b8ff" d="M452.77,-124.56C464.17,-104.85 492.76,-55.42 508.35,-28.47"/>
<polygon fill="#63b8ff" stroke="#63b8ff" points="511.24,-30.47 513.21,-20.06 505.18,-26.96 511.24,-30.47"/>
</a>
</g>
</g>
<!-- Node17&#45;&gt;Node4 -->
<g id="edge27_Node000017_Node000004" class="edge">
<title>Node17&#45;&gt;Node4</title>
<g id="a_edge27_Node000017_Node000004"><a xlink:title=" ">
<path fill="none" stroke="#63b8ff" d="M398.07,-124.31C324.72,-111.51 189.31,-87.87 124.01,-76.48"/>
<polygon fill="#63b8ff" stroke="#63b8ff" points="124.98,-73.1 114.53,-74.82 123.78,-79.99 124.98,-73.1"/>
</a>
</g>
</g>
<!-- Node17&#45;&gt;Node6 -->
<g id="edge29_Node000017_Node000006" class="edge">
<title>Node17&#45;&gt;Node6</title>
<g id="a_edge29_Node000017_Node000006"><a xlink:title=" ">
<path fill="none" stroke="#63b8ff" d="M513.57,-125.42C531.2,-123.43 550.27,-121.34 567.89,-119.5 733.97,-102.17 782.75,-134.1 941.89,-83.5 982.88,-70.47 1025.19,-42.99 1049.44,-25.65"/>
<polygon fill="#63b8ff" stroke="#63b8ff" points="1051.44,-28.52 1057.45,-19.8 1047.31,-22.87 1051.44,-28.52"/>
</a>
</g>
</g>
<!-- Node17&#45;&gt;Node7 -->
<g id="edge30_Node000017_Node000007" class="edge">
<title>Node17&#45;&gt;Node7</title>
<g id="a_edge30_Node000017_Node000007"><a xlink:title=" ">
<path fill="none" stroke="#63b8ff" d="M481.83,-124.31C525.27,-113.18 600.65,-93.88 648.85,-81.53"/>
<polygon fill="#63b8ff" stroke="#63b8ff" points="649.61,-84.95 658.43,-79.08 647.87,-78.17 649.61,-84.95"/>
</a>
</g>
</g>
<!-- Node17&#45;&gt;Node14 -->
<g id="edge31_Node000017_Node000014" class="edge">
<title>Node17&#45;&gt;Node14</title>
<g id="a_edge31_Node000017_Node000014"><a xlink:title=" ">
<path fill="none" stroke="#63b8ff" d="M513.55,-125.24C531.19,-123.25 550.25,-121.2 567.89,-119.5 765.39,-100.41 815.14,-99.89 1012.89,-83.5 1038.5,-81.38 1066.44,-79.02 1091.65,-76.88"/>
<polygon fill="#63b8ff" stroke="#63b8ff" points="1091.84,-80.37 1101.51,-76.04 1091.25,-73.4 1091.84,-80.37"/>
</a>
</g>
</g>
<!-- Node18 -->
<g id="Node000018" class="node">
<title>Node18</title>
<g id="a_Node000018"><a xlink:title=" ">
<polygon fill="#e0e0e0" stroke="#999999" points="452.51,-78.25 413.26,-78.25 413.26,-59.75 452.51,-59.75 452.51,-78.25"/>
<text text-anchor="middle" x="432.89" y="-64.75" font-family="Helvetica,sans-Serif" font-size="10.00">utility</text>
</a>
</g>
</g>
<!-- Node17&#45;&gt;Node18 -->
<g id="edge28_Node000017_Node000018" class="edge">
<title>Node17&#45;&gt;Node18</title>
<g id="a_edge28_Node000017_Node000018"><a xlink:title=" ">
<path fill="none" stroke="#63b8ff" d="M445.86,-124.5C443.73,-115.53 440.28,-101.08 437.48,-89.31"/>
<polygon fill="#63b8ff" stroke="#63b8ff" points="440.95,-88.75 435.23,-79.83 434.14,-90.37 440.95,-88.75"/>
</a>
</g>
</g>
<!-- Node19&#45;&gt;Node3 -->
<g id="edge35_Node000019_Node000003" class="edge">
<title>Node19&#45;&gt;Node3</title>
<g id="a_edge35_Node000019_Node000003"><a xlink:title=" ">
<path fill="none" stroke="#63b8ff" d="M774.51,-193.88C706.42,-187.88 598.27,-174.5 567.89,-148.5 532.33,-118.08 522.57,-60.1 519.9,-29.8"/>
<polygon fill="#63b8ff" stroke="#63b8ff" points="523.41,-29.91 519.23,-20.18 516.43,-30.4 523.41,-29.91"/>
</a>
</g>
</g>
<!-- Node19&#45;&gt;Node6 -->
<g id="edge37_Node000019_Node000006" class="edge">
<title>Node19&#45;&gt;Node6</title>
<g id="a_edge37_Node000019_Node000006"><a xlink:title=" ">
<path fill="none" stroke="#63b8ff" d="M861.01,-184.06C878.92,-174.94 902,-162.21 920.89,-148.5 974,-109.95 1028.58,-54.45 1054.46,-26.97"/>
<polygon fill="#63b8ff" stroke="#63b8ff" points="1056.8,-29.6 1061.06,-19.9 1051.68,-24.82 1056.8,-29.6"/>
</a>
</g>
</g>
<!-- Node19&#45;&gt;Node7 -->
<g id="edge55_Node000019_Node000007" class="edge">
<title>Node19&#45;&gt;Node7</title>
<g id="a_edge55_Node000019_Node000007"><a xlink:title=" ">
<path fill="none" stroke="#63b8ff" d="M816.85,-184.06C791.12,-160.19 738.77,-111.63 711.41,-86.26"/>
<polygon fill="#63b8ff" stroke="#63b8ff" points="713.99,-83.88 704.28,-79.64 709.23,-89.01 713.99,-83.88"/>
</a>
</g>
</g>
<!-- Node19&#45;&gt;Node9 -->
<g id="edge36_Node000019_Node000009" class="edge">
<title>Node19&#45;&gt;Node9</title>
<g id="a_edge36_Node000019_Node000009"><a xlink:title=" ">
<path fill="none" stroke="#63b8ff" d="M829.49,-184.12C824.09,-156.45 808.63,-93.73 773.89,-54.5 760.59,-39.49 740.94,-28.52 724.44,-21.25"/>
<polygon fill="#63b8ff" stroke="#63b8ff" points="726.13,-18.17 715.55,-17.59 723.46,-24.64 726.13,-18.17"/>
</a>
</g>
</g>
<!-- Node19&#45;&gt;Node10 -->
<g id="edge38_Node000019_Node000010" class="edge">
<title>Node19&#45;&gt;Node10</title>
<g id="a_edge38_Node000019_Node000010"><a xlink:title=" ">
<path fill="none" stroke="#63b8ff" d="M851.21,-184.24C876.69,-164.92 920.76,-127.17 941.89,-83.5 950.01,-66.71 952.13,-45.38 952.45,-30.07"/>
<polygon fill="#63b8ff" stroke="#63b8ff" points="955.95,-30.36 952.39,-20.38 948.95,-30.4 955.95,-30.36"/>
</a>
</g>
</g>
<!-- Node19&#45;&gt;Node11 -->
<g id="edge56_Node000019_Node000011" class="edge">
<title>Node19&#45;&gt;Node11</title>
<g id="a_edge56_Node000019_Node000011"><a xlink:title=" ">
<path fill="none" stroke="#63b8ff" d="M774.51,-192.46C653.82,-180.82 374.26,-153.85 245.73,-141.45"/>
<polygon fill="#63b8ff" stroke="#63b8ff" points="246.31,-137.99 236.02,-140.51 245.63,-144.96 246.31,-137.99"/>
</a>
</g>
</g>
<!-- Node19&#45;&gt;Node12 -->
<g id="edge57_Node000019_Node000012" class="edge">
<title>Node19&#45;&gt;Node12</title>
<g id="a_edge57_Node000019_Node000012"><a xlink:title=" ">
<path fill="none" stroke="#63b8ff" d="M774.37,-196C667.92,-191.61 444.57,-178.97 373.89,-148.5 342.03,-134.77 312.98,-106.07 296.37,-87.44"/>
<polygon fill="#63b8ff" stroke="#63b8ff" points="299.05,-85.18 289.87,-79.89 293.75,-89.75 299.05,-85.18"/>
</a>
</g>
</g>
<!-- Node19&#45;&gt;Node14 -->
<g id="edge58_Node000019_Node000014" class="edge">
<title>Node19&#45;&gt;Node14</title>
<g id="a_edge58_Node000019_Node000014"><a xlink:title=" ">
<path fill="none" stroke="#63b8ff" d="M889.49,-196.23C970.19,-192.58 1111.26,-181.52 1148.89,-148.5 1165.55,-133.88 1170.44,-107.9 1171.72,-89.85"/>
<polygon fill="#63b8ff" stroke="#63b8ff" points="1175.22,-90.02 1172.08,-79.9 1168.22,-89.77 1175.22,-90.02"/>
</a>
</g>
</g>
<!-- Node19&#45;&gt;Node15 -->
<g id="edge33_Node000019_Node000015" class="edge">
<title>Node19&#45;&gt;Node15</title>
<g id="a_edge33_Node000019_Node000015"><a xlink:title=" ">
<path fill="none" stroke="#63b8ff" d="M889.34,-198.86C958.92,-197.85 1078.29,-189.49 1170.89,-148.5 1212.46,-130.1 1228.26,-123.5 1249.89,-83.5 1258.72,-67.15 1260.11,-45.76 1259.65,-30.32"/>
<polygon fill="#63b8ff" stroke="#63b8ff" points="1263.15,-30.27 1259.05,-20.5 1256.17,-30.7 1263.15,-30.27"/>
</a>
</g>
</g>
<!-- Node20 -->
<g id="Node000020" class="node">
<title>Node20</title>
<g id="a_Node000020"><a xlink:title=" ">
<polygon fill="#e0e0e0" stroke="#999999" points="1283.39,-143.25 1234.39,-143.25 1234.39,-124.75 1283.39,-124.75 1283.39,-143.25"/>
<text text-anchor="middle" x="1258.89" y="-129.75" font-family="Helvetica,sans-Serif" font-size="10.00">fstream</text>
</a>
</g>
</g>
<!-- Node19&#45;&gt;Node20 -->
<g id="edge34_Node000019_Node000020" class="edge">
<title>Node19&#45;&gt;Node20</title>
<g id="a_edge34_Node000019_Node000020"><a xlink:title=" ">
<path fill="none" stroke="#63b8ff" d="M889.41,-194.38C965.75,-188.74 1104.34,-175.56 1219.89,-148.5 1221.76,-148.06 1223.66,-147.57 1225.58,-147.03"/>
<polygon fill="#63b8ff" stroke="#63b8ff" points="1226.48,-150.42 1234.99,-144.11 1224.4,-143.73 1226.48,-150.42"/>
</a>
</g>
</g>
<!-- Node21 -->
<g id="Node000021" class="node">
<title>Node21</title>
<g id="a_Node000021"><a xlink:href="cuda__utils_8h.html" target="_top" xlink:title="Utility functions for CUDA.">
<polygon fill="white" stroke="#666666" points="933.26,-83.5 820.51,-83.5 820.51,-54.5 933.26,-54.5 933.26,-83.5"/>
<text text-anchor="start" x="828.51" y="-70" font-family="Helvetica,sans-Serif" font-size="10.00">CoverageControl/cuda</text>
<text text-anchor="middle" x="876.89" y="-59.5" font-family="Helvetica,sans-Serif" font-size="10.00">_utils.h</text>
</a>
</g>
</g>
<!-- Node19&#45;&gt;Node21 -->
<g id="edge39_Node000019_Node000021" class="edge">
<title>Node19&#45;&gt;Node21</title>
<g id="a_edge39_Node000019_Node000021"><a xlink:title=" ">
<path fill="none" stroke="#63b8ff" d="M836.7,-184.3C844.21,-162.95 858.8,-121.43 868.19,-94.75"/>
<polygon fill="#63b8ff" stroke="#63b8ff" points="871.45,-96.01 871.47,-85.42 864.85,-93.69 871.45,-96.01"/>
</a>
</g>
</g>
<!-- Node23 -->
<g id="Node000023" class="node">
<title>Node23</title>
<g id="a_Node000023"><a xlink:href="bivariate__normal__distribution_8h.html" target="_top" xlink:title="Class for Bivariate Normal Distribution.">
<polygon fill="white" stroke="#666666" points="704.76,-148.5 577.01,-148.5 577.01,-119.5 704.76,-119.5 704.76,-148.5"/>
<text text-anchor="start" x="585.01" y="-135" font-family="Helvetica,sans-Serif" font-size="10.00">CoverageControl/bivariate</text>
<text text-anchor="middle" x="640.89" y="-124.5" font-family="Helvetica,sans-Serif" font-size="10.00">_normal_distribution.h</text>
</a>
</g>
</g>
<!-- Node19&#45;&gt;Node23 -->
<g id="edge46_Node000019_Node000023" class="edge">
<title>Node19&#45;&gt;Node23</title>
<g id="a_edge46_Node000019_Node000023"><a xlink:title=" ">
<path fill="none" stroke="#63b8ff" d="M789.5,-184.02C761.31,-174.72 724.06,-162.44 693.91,-152.49"/>
<polygon fill="#63b8ff" stroke="#63b8ff" points="695.19,-149.23 684.59,-149.42 692.99,-155.87 695.19,-149.23"/>
</a>
</g>
</g>
<!-- Node24 -->
<g id="Node000024" class="node">
<title>Node24</title>
<g id="a_Node000024"><a xlink:href="polygon__utils_8h.html" target="_top" xlink:title="Provides utilities for polygon manipulation using CGAL.">
<polygon fill="white" stroke="#666666" points="1139.76,-148.5 1030.01,-148.5 1030.01,-119.5 1139.76,-119.5 1139.76,-148.5"/>
<text text-anchor="start" x="1038.01" y="-135" font-family="Helvetica,sans-Serif" font-size="10.00">CoverageControl/cgal</text>
<text text-anchor="middle" x="1084.89" y="-124.5" font-family="Helvetica,sans-Serif" font-size="10.00">/polygon_utils.h</text>
</a>
</g>
</g>
<!-- Node19&#45;&gt;Node24 -->
<g id="edge52_Node000019_Node000024" class="edge">
<title>Node19&#45;&gt;Node24</title>
<g id="a_edge52_Node000019_Node000024"><a xlink:title=" ">
<path fill="none" stroke="#63b8ff" d="M888.03,-184.02C926.62,-174.41 978.02,-161.61 1018.62,-151.5"/>
<polygon fill="#63b8ff" stroke="#63b8ff" points="1019.44,-154.9 1028.29,-149.09 1017.75,-148.11 1019.44,-154.9"/>
</a>
</g>
</g>
<!-- Node21&#45;&gt;Node3 -->
<g id="edge40_Node000021_Node000003" class="edge">
<title>Node21&#45;&gt;Node3</title>
<g id="a_edge40_Node000021_Node000003"><a xlink:title=" ">
<path fill="none" stroke="#63b8ff" d="M820.16,-58.85C746.47,-46.96 619.83,-26.53 556.81,-16.37"/>
<polygon fill="#63b8ff" stroke="#63b8ff" points="557.73,-12.97 547.3,-14.83 556.62,-19.88 557.73,-12.97"/>
</a>
</g>
</g>
<!-- Node21&#45;&gt;Node6 -->
<g id="edge43_Node000021_Node000006" class="edge">
<title>Node21&#45;&gt;Node6</title>
<g id="a_edge43_Node000021_Node000006"><a xlink:title=" ">
<path fill="none" stroke="#63b8ff" d="M923.61,-54.02C958.98,-43.44 1006.64,-29.18 1037.8,-19.85"/>
<polygon fill="#63b8ff" stroke="#63b8ff" points="1038.45,-23.31 1047.03,-17.09 1036.45,-16.6 1038.45,-23.31"/>
</a>
</g>
</g>
<!-- Node21&#45;&gt;Node8 -->
<g id="edge41_Node000021_Node000008" class="edge">
<title>Node21&#45;&gt;Node8</title>
<g id="a_edge41_Node000021_Node000008"><a xlink:title=" ">
<path fill="none" stroke="#63b8ff" d="M849.05,-54.02C830.91,-44.91 807.34,-33.08 789.29,-24.01"/>
<polygon fill="#63b8ff" stroke="#63b8ff" points="790.98,-20.94 780.47,-19.58 787.84,-27.2 790.98,-20.94"/>
</a>
</g>
</g>
<!-- Node21&#45;&gt;Node9 -->
<g id="edge44_Node000021_Node000009" class="edge">
<title>Node21&#45;&gt;Node9</title>
<g id="a_edge44_Node000021_Node000009"><a xlink:title=" ">
<path fill="none" stroke="#63b8ff" d="M832.59,-54.02C799.34,-43.53 754.65,-29.43 725.09,-20.1"/>
<polygon fill="#63b8ff" stroke="#63b8ff" points="726.21,-16.78 715.62,-17.11 724.11,-23.46 726.21,-16.78"/>
</a>
</g>
</g>
<!-- Node21&#45;&gt;Node10 -->
<g id="edge45_Node000021_Node000010" class="edge">
<title>Node21&#45;&gt;Node10</title>
<g id="a_edge45_Node000021_Node000010"><a xlink:title=" ">
<path fill="none" stroke="#63b8ff" d="M895.04,-54.02C906.15,-45.47 920.38,-34.51 931.82,-25.7"/>
<polygon fill="#63b8ff" stroke="#63b8ff" points="933.66,-28.7 939.45,-19.83 929.39,-23.15 933.66,-28.7"/>
</a>
</g>
</g>
<!-- Node22 -->
<g id="Node000022" class="node">
<title>Node22</title>
<g id="a_Node000022"><a xlink:title=" ">
<polygon fill="#e0e0e0" stroke="#999999" points="869.51,-18.5 818.26,-18.5 818.26,0 869.51,0 869.51,-18.5"/>
<text text-anchor="middle" x="843.89" y="-5" font-family="Helvetica,sans-Serif" font-size="10.00">sstream</text>
</a>
</g>
</g>
<!-- Node21&#45;&gt;Node22 -->
<g id="edge42_Node000021_Node000022" class="edge">
<title>Node21&#45;&gt;Node22</title>
<g id="a_edge42_Node000021_Node000022"><a xlink:title=" ">
<path fill="none" stroke="#63b8ff" d="M868.9,-54.02C864.55,-46.41 859.11,-36.89 854.42,-28.68"/>
<polygon fill="#63b8ff" stroke="#63b8ff" points="857.58,-27.16 849.58,-20.22 851.5,-30.64 857.58,-27.16"/>
</a>
</g>
</g>
<!-- Node23&#45;&gt;Node2 -->
<g id="edge47_Node000023_Node000002" class="edge">
<title>Node23&#45;&gt;Node2</title>
<g id="a_edge47_Node000023_Node000002"><a xlink:title=" ">
<path fill="none" stroke="#63b8ff" d="M609.83,-119.04C556.73,-95.16 449.19,-46.81 397.26,-23.46"/>
<polygon fill="#63b8ff" stroke="#63b8ff" points="399,-20.4 388.44,-19.49 396.13,-26.79 399,-20.4"/>
</a>
</g>
</g>
<!-- Node23&#45;&gt;Node3 -->
<g id="edge48_Node000023_Node000003" class="edge">
<title>Node23&#45;&gt;Node3</title>
<g id="a_edge48_Node000023_Node000003"><a xlink:title=" ">
<path fill="none" stroke="#63b8ff" d="M629.54,-119.15C616.12,-103.05 592.83,-75.94 570.89,-54.5 560.73,-44.58 548.7,-34.26 538.77,-26.08"/>
<polygon fill="#63b8ff" stroke="#63b8ff" points="541.17,-23.52 531.2,-19.94 536.76,-28.96 541.17,-23.52"/>
</a>
</g>
</g>
<!-- Node23&#45;&gt;Node7 -->
<g id="edge49_Node000023_Node000007" class="edge">
<title>Node23&#45;&gt;Node7</title>
<g id="a_edge49_Node000023_Node000007"><a xlink:title=" ">
<path fill="none" stroke="#63b8ff" d="M652.65,-119.02C660.51,-109.68 670.9,-97.32 679.28,-87.36"/>
<polygon fill="#63b8ff" stroke="#63b8ff" points="681.83,-89.77 685.59,-79.86 676.47,-85.26 681.83,-89.77"/>
</a>
</g>
</g>
<!-- Node23&#45;&gt;Node12 -->
<g id="edge50_Node000023_Node000012" class="edge">
<title>Node23&#45;&gt;Node12</title>
<g id="a_edge50_Node000023_Node000012"><a xlink:title=" ">
<path fill="none" stroke="#63b8ff" d="M576.7,-121.74C510.49,-110.12 407.98,-92.13 342.94,-80.71"/>
<polygon fill="#63b8ff" stroke="#63b8ff" points="343.59,-77.28 333.14,-78.99 342.38,-84.17 343.59,-77.28"/>
</a>
</g>
</g>
<!-- Node23&#45;&gt;Node14 -->
<g id="edge51_Node000023_Node000014" class="edge">
<title>Node23&#45;&gt;Node14</title>
<g id="a_edge51_Node000023_Node000014"><a xlink:title=" ">
<path fill="none" stroke="#63b8ff" d="M705.2,-125.37C802.17,-113.86 985.69,-92.09 1091.4,-79.55"/>
<polygon fill="#63b8ff" stroke="#63b8ff" points="1091.62,-83.05 1101.14,-78.39 1090.79,-76.1 1091.62,-83.05"/>
</a>
</g>
</g>
<!-- Node24&#45;&gt;Node6 -->
<g id="edge53_Node000024_Node000006" class="edge">
<title>Node24&#45;&gt;Node6</title>
<g id="a_edge53_Node000024_Node000006"><a xlink:title=" ">
<path fill="none" stroke="#63b8ff" d="M1083.22,-119.39C1080.57,-97.71 1075.38,-55.19 1072.31,-30.11"/>
<polygon fill="#63b8ff" stroke="#63b8ff" points="1075.8,-29.78 1071.11,-20.28 1068.85,-30.63 1075.8,-29.78"/>
</a>
</g>
</g>
<!-- Node24&#45;&gt;Node14 -->
<g id="edge54_Node000024_Node000014" class="edge">
<title>Node24&#45;&gt;Node14</title>
<g id="a_edge54_Node000024_Node000014"><a xlink:title=" ">
<path fill="none" stroke="#63b8ff" d="M1104.19,-119.02C1118.02,-109 1136.63,-95.53 1150.84,-85.24"/>
<polygon fill="#63b8ff" stroke="#63b8ff" points="1152.59,-88.29 1158.64,-79.59 1148.48,-82.62 1152.59,-88.29"/>
</a>
</g>
</g>
</g>
</svg>

<g id="navigator" transform="translate(0 0)" fill="#404254">
  <rect fill="#f2f5e9" fill-opacity="0.5" stroke="#606060" stroke-width=".5" x="0" y="0" width="60" height="60"/>
  <use id="zoomplus" xlink:href="#zoomPlus" x="17" y="9" onmousedown="handleZoom(evt,'in')"/>
  <use id="zoomminus" xlink:href="#zoomMin" x="42" y="9" onmousedown="handleZoom(evt,'out')"/>
  <use id="reset" xlink:href="#resetDef" x="30" y="36" onmousedown="handleReset()"/>
   <use id="arrowup" xlink:href="#arrowUp" x="0" y="0" onmousedown="handlePan(0,-1)"/>
  <use id="arrowright" xlink:href="#arrowRight" x="0" y="0" onmousedown="handlePan(1,0)"/>
  <use id="arrowdown" xlink:href="#arrowDown" x="0" y="0" onmousedown="handlePan(0,1)"/>
  <use id="arrowleft" xlink:href="#arrowLeft" x="0" y="0" onmousedown="handlePan(-1,0)"/>
</g>
<svg viewBox="0 0 15 15" width="100%" height="30px" preserveAspectRatio="xMaxYMin meet">
 <g id="arrow_out" transform="scale(0.3 0.3)">
  <a xlink:href="robot__model_8h__incl_org.svg" target="_base">
   <rect id="button" ry="5" rx="5" y="6" x="6" height="38" width="38"
        fill="#f2f5e9" fill-opacity="0.5" stroke="#606060" stroke-width="1.0"/>
   <path id="arrow"
     d="M 11.500037,31.436501 C 11.940474,20.09759 22.043105,11.32322 32.158766,21.979434 L 37.068811,17.246167 C 37.068811,17.246167 37.088388,32 37.088388,32 L 22.160133,31.978069 C 22.160133,31.978069 26.997745,27.140456 26.997745,27.140456 C 18.528582,18.264221 13.291696,25.230495 11.500037,31.436501 z"
     style="fill:#404040;"/>
  </a>
 </g>
</svg>

<style type='text/css'>
<![CDATA[
[data-mouse-over-selected='false'] { opacity: 0.7; }
[data-mouse-over-selected='true']  { opacity: 1.0; }
]]>
</style>
<script type="application/ecmascript"><![CDATA[
document.addEventListener('DOMContentLoaded', (event) => {
  highlightEdges();
  highlightAdjacentNodes();
});
]]></script>
</svg>
