<?xml version="1.0" encoding="UTF-8" standalone="no"?>
<!DOCTYPE svg PUBLIC "-//W3C//DTD SVG 1.1//EN"
 "http://www.w3.org/Graphics/SVG/1.1/DTD/svg11.dtd">
<!-- Generated by graphviz version 10.0.1 (0)
 -->
<!-- Title: robot_model.h Pages: 1 -->
<!--zoomable 266 -->

<svg id="main" version="1.1" xmlns="http://www.w3.org/2000/svg" xmlns:xlink="http://www.w3.org/1999/xlink" xml:space="preserve" onload="init(evt)">
<style type="text/css"><![CDATA[
.node, .edge {opacity: 0.7;}
.node.selected, .edge.selected {opacity: 1;}
.edge:hover path { stroke: red; }
.edge:hover polygon { stroke: red; fill: red; }
]]></style>

<defs>
  <circle id="rim" cx="0" cy="0" r="7"/>
  <circle id="rim2" cx="0" cy="0" r="3.5"/>
  <g id="zoomPlus">
    <use xlink:href="#rim" fill="#404040"><set attributeName="fill" to="#808080" begin="zoomplus.mouseover" end="zoomplus.mouseout"/></use>
    <path d="M-4,0h8M0,-4v8" fill="none" stroke="white" stroke-width="1.5" pointer-events="none"/>
  </g>
  <g id="zoomMin">
    <use xlink:href="#rim" fill="#404040"><set attributeName="fill" to="#808080" begin="zoomminus.mouseover" end="zoomminus.mouseout"/></use>
    <path d="M-4,0h8" fill="none" stroke="white" stroke-width="1.5" pointer-events="none"/>
  </g>
  <g id="arrowUp" transform="translate(30 24)">
    <use xlink:href="#rim"/>
    <path pointer-events="none" fill="none" stroke="white" stroke-width="1.5" d="M0,-3.0v7 M-2.5,-0.5L0,-3.0L2.5,-0.5"/>
  </g>
  <g id="arrowRight" transform="rotate(90) translate(36 -43)">
    <use xlink:href="#rim"/>
    <path pointer-events="none" fill="none" stroke="white" stroke-width="1.5" d="M0,-3.0v7 M-2.5,-0.5L0,-3.0L2.5,-0.5"/>
  </g>
  <g id="arrowDown" transform="rotate(180) translate(-30 -48)">
    <use xlink:href="#rim"/>
    <path pointer-events="none" fill="none" stroke="white" stroke-width="1.5" d="M0,-3.0v7 M-2.5,-0.5L0,-3.0L2.5,-0.5"/>
  </g>
  <g id="arrowLeft" transform="rotate(270) translate(-36 17)">
    <use xlink:href="#rim"/>
    <path pointer-events="none" fill="none" stroke="white" stroke-width="1.5" d="M0,-3.0v7 M-2.5,-0.5L0,-3.0L2.5,-0.5"/>
  </g>
  <g id="resetDef">
    <use xlink:href="#rim2" fill="#404040"><set attributeName="fill" to="#808080" begin="reset.mouseover" end="reset.mouseout"/></use>
  </g>
</defs>
<script type="application/ecmascript">
var viewWidth = 1247;
var viewHeight = 266;
var sectionId = 'dynsection-0';
</script>
<script type="application/ecmascript" xlink:href="svg.min.js"/>
<svg id="graph" class="graph">
<g id="viewport">
<title>robot_model.h</title>
<!-- Node1 -->
<g id="Node000001" class="node">
<title>Node1</title>
<g id="a_Node000001"><a xlink:title="Class for handling the robot model.">
<polygon fill="#999999" stroke="#666666" points="689.59,-257.5 612.09,-257.5 612.09,-239 689.59,-239 689.59,-257.5"/>
<text text-anchor="middle" x="650.84" y="-244" font-family="Helvetica,sans-Serif" font-size="10.00">robot_model.h</text>
</a>
</g>
</g>
<!-- Node2 -->
<g id="Node000002" class="node">
<title>Node2</title>
<g id="a_Node000002"><a xlink:title=" ">
<polygon fill="#e0e0e0" stroke="#999999" points="274.34,-18.5 231.34,-18.5 231.34,0 274.34,0 274.34,-18.5"/>
<text text-anchor="middle" x="252.84" y="-5" font-family="Helvetica,sans-Serif" font-size="10.00">cmath</text>
</a>
</g>
</g>
<!-- Node1&#45;&gt;Node2 -->
<g id="edge1_Node000001_Node000002" class="edge">
<title>Node1&#45;&gt;Node2</title>
<g id="a_edge1_Node000001_Node000002"><a xlink:title=" ">
<path fill="none" stroke="#63b8ff" d="M611.6,-244.86C541.84,-240.05 399.55,-227.48 356.84,-203 292.4,-166.07 276.59,-143.03 251.84,-73 246.94,-59.13 247.49,-42.44 249.1,-29.76"/>
<polygon fill="#63b8ff" stroke="#63b8ff" points="252.51,-30.59 250.66,-20.16 245.6,-29.47 252.51,-30.59"/>
</a>
</g>
</g>
<!-- Node3 -->
<g id="Node000003" class="node">
<title>Node3</title>
<g id="a_Node000003"><a xlink:title=" ">
<polygon fill="#e0e0e0" stroke="#999999" points="571.59,-18.5 518.09,-18.5 518.09,0 571.59,0 571.59,-18.5"/>
<text text-anchor="middle" x="544.84" y="-5" font-family="Helvetica,sans-Serif" font-size="10.00">iostream</text>
</a>
</g>
</g>
<!-- Node1&#45;&gt;Node3 -->
<g id="edge2_Node000001_Node000003" class="edge">
<title>Node1&#45;&gt;Node3</title>
<g id="a_edge2_Node000001_Node000003"><a xlink:title=" ">
<path fill="none" stroke="#63b8ff" d="M651.33,-238.68C652.26,-216.25 652.62,-154.38 631.84,-109 616.25,-74.95 584.96,-44.02 564.47,-26.18"/>
<polygon fill="#63b8ff" stroke="#63b8ff" points="566.95,-23.7 557.06,-19.91 562.43,-29.04 566.95,-23.7"/>
</a>
</g>
</g>
<!-- Node4 -->
<g id="Node000004" class="node">
<title>Node4</title>
<g id="a_Node000004"><a xlink:title=" ">
<polygon fill="#e0e0e0" stroke="#999999" points="1041.84,-73 989.84,-73 989.84,-54.5 1041.84,-54.5 1041.84,-73"/>
<text text-anchor="middle" x="1015.84" y="-59.5" font-family="Helvetica,sans-Serif" font-size="10.00">memory</text>
</a>
</g>
</g>
<!-- Node1&#45;&gt;Node4 -->
<g id="edge3_Node000001_Node000004" class="edge">
<title>Node1&#45;&gt;Node4</title>
<g id="a_edge3_Node000001_Node000004"><a xlink:title=" ">
<path fill="none" stroke="#63b8ff" d="M689.99,-242.79C783.28,-231.28 1014.35,-197.24 1059.84,-138 1074.15,-119.36 1053.91,-95.75 1036.39,-80.45"/>
<polygon fill="#63b8ff" stroke="#63b8ff" points="1038.79,-77.89 1028.85,-74.24 1034.35,-83.3 1038.79,-77.89"/>
</a>
</g>
</g>
<!-- Node5 -->
<g id="Node000005" class="node">
<title>Node5</title>
<g id="a_Node000005"><a xlink:title=" ">
<polygon fill="#e0e0e0" stroke="#999999" points="1238.72,-197.75 1182.97,-197.75 1182.97,-179.25 1238.72,-179.25 1238.72,-197.75"/>
<text text-anchor="middle" x="1210.84" y="-184.25" font-family="Helvetica,sans-Serif" font-size="10.00">algorithm</text>
</a>
</g>
</g>
<!-- Node1&#45;&gt;Node5 -->
<g id="edge4_Node000001_Node000005" class="edge">
<title>Node1&#45;&gt;Node5</title>
<g id="a_edge4_Node000001_Node000005"><a xlink:title=" ">
<path fill="none" stroke="#63b8ff" d="M689.93,-246.91C776.87,-245.5 992.52,-238.4 1168.84,-203 1171.28,-202.51 1173.78,-201.93 1176.28,-201.28"/>
<polygon fill="#63b8ff" stroke="#63b8ff" points="1177.01,-204.71 1185.65,-198.58 1175.07,-197.99 1177.01,-204.71"/>
</a>
</g>
</g>
<!-- Node6 -->
<g id="Node000006" class="node">
<title>Node6</title>
<g id="a_Node000006"><a xlink:title=" ">
<polygon fill="#e0e0e0" stroke="#999999" points="1090.97,-18.5 1048.72,-18.5 1048.72,0 1090.97,0 1090.97,-18.5"/>
<text text-anchor="middle" x="1069.84" y="-5" font-family="Helvetica,sans-Serif" font-size="10.00">vector</text>
</a>
</g>
</g>
<!-- Node1&#45;&gt;Node6 -->
<g id="edge5_Node000001_Node000006" class="edge">
<title>Node1&#45;&gt;Node6</title>
<g id="a_edge5_Node000001_Node000006"><a xlink:title=" ">
<path fill="none" stroke="#63b8ff" d="M689.89,-247.08C751.61,-245.68 874.66,-238.23 971.84,-203 1023.08,-184.42 1043.24,-181.68 1075.84,-138 1098.55,-107.58 1103.18,-91.3 1093.84,-54.5 1091.53,-45.4 1086.94,-36.15 1082.38,-28.48"/>
<polygon fill="#63b8ff" stroke="#63b8ff" points="1085.37,-26.65 1077.02,-20.13 1079.48,-30.44 1085.37,-26.65"/>
</a>
</g>
</g>
<!-- Node7 -->
<g id="Node000007" class="node">
<title>Node7</title>
<g id="a_Node000007"><a xlink:href="constants_8h.html" target="_top" xlink:title="Constants for the CoverageControl library.">
<polygon fill="white" stroke="#666666" points="403.22,-73 260.47,-73 260.47,-54.5 403.22,-54.5 403.22,-73"/>
<text text-anchor="middle" x="331.84" y="-59.5" font-family="Helvetica,sans-Serif" font-size="10.00">CoverageControl/constants.h</text>
</a>
</g>
</g>
<!-- Node1&#45;&gt;Node7 -->
<g id="edge6_Node000001_Node000007" class="edge">
<title>Node1&#45;&gt;Node7</title>
<g id="a_edge6_Node000001_Node000007"><a xlink:title=" ">
<path fill="none" stroke="#63b8ff" d="M611.6,-248.05C539.79,-247.07 388.82,-233.19 325.84,-138 315.29,-122.06 319.14,-99.69 324.16,-83.88"/>
<polygon fill="#63b8ff" stroke="#63b8ff" points="327.36,-85.29 327.48,-74.7 320.78,-82.91 327.36,-85.29"/>
</a>
</g>
</g>
<!-- Node11 -->
<g id="Node000011" class="node">
<title>Node11</title>
<g id="a_Node000011"><a xlink:href="map__utils_8h.html" target="_top" xlink:title="Utility functions for transforming maps.">
<polygon fill="white" stroke="#666666" points="143.09,-138 32.59,-138 32.59,-109 143.09,-109 143.09,-138"/>
<text text-anchor="start" x="40.59" y="-124.5" font-family="Helvetica,sans-Serif" font-size="10.00">CoverageControl/map</text>
<text text-anchor="middle" x="87.84" y="-114" font-family="Helvetica,sans-Serif" font-size="10.00">_utils.h</text>
</a>
</g>
</g>
<!-- Node1&#45;&gt;Node11 -->
<g id="edge11_Node000001_Node000011" class="edge">
<title>Node1&#45;&gt;Node11</title>
<g id="a_edge11_Node000001_Node000011"><a xlink:title=" ">
<path fill="none" stroke="#63b8ff" d="M611.84,-247.44C509.59,-247.36 236.22,-243.28 156.84,-203 132.92,-190.86 113.62,-166.57 101.58,-148.21"/>
<polygon fill="#63b8ff" stroke="#63b8ff" points="104.57,-146.39 96.3,-139.76 98.63,-150.09 104.57,-146.39"/>
</a>
</g>
</g>
<!-- Node12 -->
<g id="Node000012" class="node">
<title>Node12</title>
<g id="a_Node000012"><a xlink:href="parameters_8h.html" target="_top" xlink:title="Contains parameters.">
<polygon fill="white" stroke="#666666" points="204.59,-73 55.09,-73 55.09,-54.5 204.59,-54.5 204.59,-73"/>
<text text-anchor="middle" x="129.84" y="-59.5" font-family="Helvetica,sans-Serif" font-size="10.00">CoverageControl/parameters.h</text>
</a>
</g>
</g>
<!-- Node1&#45;&gt;Node12 -->
<g id="edge19_Node000001_Node000012" class="edge">
<title>Node1&#45;&gt;Node12</title>
<g id="a_edge19_Node000001_Node000012"><a xlink:title=" ">
<path fill="none" stroke="#63b8ff" d="M611.94,-245.68C507.83,-241.18 228.48,-226.98 194.84,-203 157.43,-176.33 171.62,-150.46 151.84,-109 147.82,-100.57 143.24,-91.31 139.3,-83.45"/>
<polygon fill="#63b8ff" stroke="#63b8ff" points="142.44,-81.9 134.82,-74.55 136.19,-85.05 142.44,-81.9"/>
</a>
</g>
</g>
<!-- Node14 -->
<g id="Node000014" class="node">
<title>Node14</title>
<g id="a_Node000014"><a xlink:href="typedefs_8h.html" target="_top" xlink:title="Contains typedefs for the library.">
<polygon fill="white" stroke="#666666" points="876.59,-73 739.09,-73 739.09,-54.5 876.59,-54.5 876.59,-73"/>
<text text-anchor="middle" x="807.84" y="-59.5" font-family="Helvetica,sans-Serif" font-size="10.00">CoverageControl/typedefs.h</text>
</a>
</g>
</g>
<!-- Node1&#45;&gt;Node14 -->
<g id="edge20_Node000001_Node000014" class="edge">
<title>Node1&#45;&gt;Node14</title>
<g id="a_edge20_Node000001_Node000014"><a xlink:title=" ">
<path fill="none" stroke="#63b8ff" d="M657.99,-238.93C682.11,-210.91 760.71,-119.54 793.39,-81.55"/>
<polygon fill="#63b8ff" stroke="#63b8ff" points="795.79,-84.13 799.66,-74.26 790.48,-79.56 795.79,-84.13"/>
</a>
</g>
</g>
<!-- Node17 -->
<g id="Node000017" class="node">
<title>Node17</title>
<g id="a_Node000017"><a xlink:href="voronoi_8h.html" target="_top" xlink:title="Class for computing Voronoi cells.">
<polygon fill="white" stroke="#666666" points="923.22,-132.75 792.47,-132.75 792.47,-114.25 923.22,-114.25 923.22,-132.75"/>
<text text-anchor="middle" x="857.84" y="-119.25" font-family="Helvetica,sans-Serif" font-size="10.00">CoverageControl/voronoi.h</text>
</a>
</g>
</g>
<!-- Node1&#45;&gt;Node17 -->
<g id="edge24_Node000001_Node000017" class="edge">
<title>Node1&#45;&gt;Node17</title>
<g id="a_edge24_Node000001_Node000017"><a xlink:title=" ">
<path fill="none" stroke="#63b8ff" d="M689.81,-238.66C716.26,-231.69 751.31,-220.17 778.84,-203 805.42,-186.43 830,-159.39 844.46,-141.78"/>
<polygon fill="#63b8ff" stroke="#63b8ff" points="846.95,-144.26 850.46,-134.27 841.48,-139.89 846.95,-144.26"/>
</a>
</g>
</g>
<!-- Node19 -->
<g id="Node000019" class="node">
<title>Node19</title>
<g id="a_Node000019"><a xlink:href="world__idf_8h.html" target="_top" xlink:title="Contains the class for Importance Density Function (IDF) for the world.">
<polygon fill="white" stroke="#666666" points="601.97,-203 487.72,-203 487.72,-174 601.97,-174 601.97,-203"/>
<text text-anchor="start" x="495.72" y="-189.5" font-family="Helvetica,sans-Serif" font-size="10.00">CoverageControl/world</text>
<text text-anchor="middle" x="544.84" y="-179" font-family="Helvetica,sans-Serif" font-size="10.00">_idf.h</text>
</a>
</g>
</g>
<!-- Node1&#45;&gt;Node19 -->
<g id="edge32_Node000001_Node000019" class="edge">
<title>Node1&#45;&gt;Node19</title>
<g id="a_edge32_Node000001_Node000019"><a xlink:title=" ">
<path fill="none" stroke="#63b8ff" d="M635.2,-238.73C620.82,-230.89 598.97,-218.99 580.35,-208.85"/>
<polygon fill="#63b8ff" stroke="#63b8ff" points="582.2,-205.87 571.74,-204.16 578.85,-212.02 582.2,-205.87"/>
</a>
</g>
</g>
<!-- Node7&#45;&gt;Node2 -->
<g id="edge8_Node000007_Node000002" class="edge">
<title>Node7&#45;&gt;Node2</title>
<g id="a_edge8_Node000007_Node000002"><a xlink:title=" ">
<path fill="none" stroke="#63b8ff" d="M318.8,-54.08C307.02,-46.25 289.43,-34.57 275.38,-25.23"/>
<polygon fill="#63b8ff" stroke="#63b8ff" points="277.43,-22.39 267.17,-19.77 273.56,-28.22 277.43,-22.39"/>
</a>
</g>
</g>
<!-- Node8 -->
<g id="Node000008" class="node">
<title>Node8</title>
<g id="a_Node000008"><a xlink:title=" ">
<polygon fill="#e0e0e0" stroke="#999999" points="497.59,-18.5 372.09,-18.5 372.09,0 497.59,0 497.59,-18.5"/>
<text text-anchor="middle" x="434.84" y="-5" font-family="Helvetica,sans-Serif" font-size="10.00">CoverageControlConfig.h</text>
</a>
</g>
</g>
<!-- Node7&#45;&gt;Node8 -->
<g id="edge7_Node000007_Node000008" class="edge">
<title>Node7&#45;&gt;Node8</title>
<g id="a_edge7_Node000007_Node000008"><a xlink:title=" ">
<path fill="none" stroke="#63b8ff" d="M348.85,-54.08C364.8,-45.95 388.93,-33.65 407.57,-24.15"/>
<polygon fill="#63b8ff" stroke="#63b8ff" points="409.14,-27.28 416.46,-19.62 405.96,-21.04 409.14,-27.28"/>
</a>
</g>
</g>
<!-- Node9 -->
<g id="Node000009" class="node">
<title>Node9</title>
<g id="a_Node000009"><a xlink:title=" ">
<polygon fill="#e0e0e0" stroke="#999999" points="351.47,-18.5 312.22,-18.5 312.22,0 351.47,0 351.47,-18.5"/>
<text text-anchor="middle" x="331.84" y="-5" font-family="Helvetica,sans-Serif" font-size="10.00">limits</text>
</a>
</g>
</g>
<!-- Node7&#45;&gt;Node9 -->
<g id="edge9_Node000007_Node000009" class="edge">
<title>Node7&#45;&gt;Node9</title>
<g id="a_edge9_Node000007_Node000009"><a xlink:title=" ">
<path fill="none" stroke="#63b8ff" d="M331.84,-54.08C331.84,-47.58 331.84,-38.42 331.84,-30.16"/>
<polygon fill="#63b8ff" stroke="#63b8ff" points="335.34,-30.27 331.84,-20.27 328.34,-30.27 335.34,-30.27"/>
</a>
</g>
</g>
<!-- Node10 -->
<g id="Node000010" class="node">
<title>Node10</title>
<g id="a_Node000010"><a xlink:title=" ">
<polygon fill="#e0e0e0" stroke="#999999" points="45.84,-18.5 5.84,-18.5 5.84,0 45.84,0 45.84,-18.5"/>
<text text-anchor="middle" x="25.84" y="-5" font-family="Helvetica,sans-Serif" font-size="10.00">string</text>
</a>
</g>
</g>
<!-- Node7&#45;&gt;Node10 -->
<g id="edge10_Node000007_Node000010" class="edge">
<title>Node7&#45;&gt;Node10</title>
<g id="a_edge10_Node000007_Node000010"><a xlink:title=" ">
<path fill="none" stroke="#63b8ff" d="M280.97,-54.02C217.29,-43.1 110.19,-24.72 57.32,-15.65"/>
<polygon fill="#63b8ff" stroke="#63b8ff" points="58.23,-12.26 47.79,-14.02 57.05,-19.16 58.23,-12.26"/>
</a>
</g>
</g>
<!-- Node11&#45;&gt;Node2 -->
<g id="edge12_Node000011_Node000002" class="edge">
<title>Node11&#45;&gt;Node2</title>
<g id="a_edge12_Node000011_Node000002"><a xlink:title=" ">
<path fill="none" stroke="#63b8ff" d="M68.98,-108.53C52.03,-94.29 31.79,-71.87 45.84,-54.5 56.74,-41.02 163.99,-23.38 219.67,-15.03"/>
<polygon fill="#63b8ff" stroke="#63b8ff" points="220.15,-18.49 229.53,-13.57 219.13,-11.57 220.15,-18.49"/>
</a>
</g>
</g>
<!-- Node11&#45;&gt;Node10 -->
<g id="edge13_Node000011_Node000010" class="edge">
<title>Node11&#45;&gt;Node10</title>
<g id="a_edge13_Node000011_Node000010"><a xlink:title=" ">
<path fill="none" stroke="#63b8ff" d="M52.78,-108.58C37.62,-100.59 21.42,-88.94 12.84,-73 5.5,-59.36 9.99,-42 15.61,-29"/>
<polygon fill="#63b8ff" stroke="#63b8ff" points="18.64,-30.77 19.91,-20.25 12.35,-27.68 18.64,-30.77"/>
</a>
</g>
</g>
<!-- Node11&#45;&gt;Node12 -->
<g id="edge14_Node000011_Node000012" class="edge">
<title>Node11&#45;&gt;Node12</title>
<g id="a_edge14_Node000011_Node000012"><a xlink:title=" ">
<path fill="none" stroke="#63b8ff" d="M98.01,-108.52C103.67,-100.74 110.78,-90.96 116.84,-82.63"/>
<polygon fill="#63b8ff" stroke="#63b8ff" points="119.61,-84.77 122.66,-74.63 113.94,-80.66 119.61,-84.77"/>
</a>
</g>
</g>
<!-- Node12&#45;&gt;Node2 -->
<g id="edge15_Node000012_Node000002" class="edge">
<title>Node12&#45;&gt;Node2</title>
<g id="a_edge15_Node000012_Node000002"><a xlink:title=" ">
<path fill="none" stroke="#63b8ff" d="M150.15,-54.08C169.74,-45.72 199.64,-32.96 222.13,-23.36"/>
<polygon fill="#63b8ff" stroke="#63b8ff" points="223.28,-26.67 231.11,-19.53 220.54,-20.23 223.28,-26.67"/>
</a>
</g>
</g>
<!-- Node12&#45;&gt;Node3 -->
<g id="edge17_Node000012_Node000003" class="edge">
<title>Node12&#45;&gt;Node3</title>
<g id="a_edge17_Node000012_Node000003"><a xlink:title=" ">
<path fill="none" stroke="#63b8ff" d="M204.89,-56.1C278.73,-49.07 394.89,-36.71 506.76,-18.29"/>
<polygon fill="#63b8ff" stroke="#63b8ff" points="507.13,-21.78 516.42,-16.68 505.98,-14.87 507.13,-21.78"/>
</a>
</g>
</g>
<!-- Node12&#45;&gt;Node10 -->
<g id="edge18_Node000012_Node000010" class="edge">
<title>Node12&#45;&gt;Node10</title>
<g id="a_edge18_Node000012_Node000010"><a xlink:title=" ">
<path fill="none" stroke="#63b8ff" d="M112.67,-54.08C96.48,-45.91 71.97,-33.54 53.11,-24.02"/>
<polygon fill="#63b8ff" stroke="#63b8ff" points="54.89,-21 44.39,-19.61 51.74,-27.25 54.89,-21"/>
</a>
</g>
</g>
<!-- Node13 -->
<g id="Node000013" class="node">
<title>Node13</title>
<g id="a_Node000013"><a xlink:title=" ">
<polygon fill="#e0e0e0" stroke="#999999" points="159.59,-18.5 100.09,-18.5 100.09,0 159.59,0 159.59,-18.5"/>
<text text-anchor="middle" x="129.84" y="-5" font-family="Helvetica,sans-Serif" font-size="10.00">filesystem</text>
</a>
</g>
</g>
<!-- Node12&#45;&gt;Node13 -->
<g id="edge16_Node000012_Node000013" class="edge">
<title>Node12&#45;&gt;Node13</title>
<g id="a_edge16_Node000012_Node000013"><a xlink:title=" ">
<path fill="none" stroke="#63b8ff" d="M129.84,-54.08C129.84,-47.58 129.84,-38.42 129.84,-30.16"/>
<polygon fill="#63b8ff" stroke="#63b8ff" points="133.34,-30.27 129.84,-20.27 126.34,-30.27 133.34,-30.27"/>
</a>
</g>
</g>
<!-- Node14&#45;&gt;Node6 -->
<g id="edge23_Node000014_Node000006" class="edge">
<title>Node14&#45;&gt;Node6</title>
<g id="a_edge23_Node000014_Node000006"><a xlink:title=" ">
<path fill="none" stroke="#63b8ff" d="M851.4,-54.02C903.85,-43.51 990.71,-26.11 1037.54,-16.72"/>
<polygon fill="#63b8ff" stroke="#63b8ff" points="1037.94,-20.21 1047.05,-14.82 1036.56,-13.35 1037.94,-20.21"/>
</a>
</g>
</g>
<!-- Node15 -->
<g id="Node000015" class="node">
<title>Node15</title>
<g id="a_Node000015"><a xlink:title=" ">
<polygon fill="#e0e0e0" stroke="#999999" points="719.97,-18.5 647.72,-18.5 647.72,0 719.97,0 719.97,-18.5"/>
<text text-anchor="middle" x="683.84" y="-5" font-family="Helvetica,sans-Serif" font-size="10.00">Eigen/Dense</text>
</a>
</g>
</g>
<!-- Node14&#45;&gt;Node15 -->
<g id="edge21_Node000014_Node000015" class="edge">
<title>Node14&#45;&gt;Node15</title>
<g id="a_edge21_Node000014_Node000015"><a xlink:title=" ">
<path fill="none" stroke="#63b8ff" d="M787.36,-54.08C767.62,-45.72 737.48,-32.96 714.8,-23.36"/>
<polygon fill="#63b8ff" stroke="#63b8ff" points="716.31,-20.2 705.74,-19.52 713.58,-26.64 716.31,-20.2"/>
</a>
</g>
</g>
<!-- Node16 -->
<g id="Node000016" class="node">
<title>Node16</title>
<g id="a_Node000016"><a xlink:title=" ">
<polygon fill="#e0e0e0" stroke="#999999" points="828.97,-18.5 786.72,-18.5 786.72,0 828.97,0 828.97,-18.5"/>
<text text-anchor="middle" x="807.84" y="-5" font-family="Helvetica,sans-Serif" font-size="10.00">queue</text>
</a>
</g>
</g>
<!-- Node14&#45;&gt;Node16 -->
<g id="edge22_Node000014_Node000016" class="edge">
<title>Node14&#45;&gt;Node16</title>
<g id="a_edge22_Node000014_Node000016"><a xlink:title=" ">
<path fill="none" stroke="#63b8ff" d="M807.84,-54.08C807.84,-47.58 807.84,-38.42 807.84,-30.16"/>
<polygon fill="#63b8ff" stroke="#63b8ff" points="811.34,-30.27 807.84,-20.27 804.34,-30.27 811.34,-30.27"/>
</a>
</g>
</g>
<!-- Node17&#45;&gt;Node2 -->
<g id="edge25_Node000017_Node000002" class="edge">
<title>Node17&#45;&gt;Node2</title>
<g id="a_edge25_Node000017_Node000002"><a xlink:title=" ">
<path fill="none" stroke="#63b8ff" d="M810.87,-113.79C693.08,-91.93 387.35,-35.21 286.01,-16.4"/>
<polygon fill="#63b8ff" stroke="#63b8ff" points="286.65,-12.96 276.18,-14.58 285.38,-19.85 286.65,-12.96"/>
</a>
</g>
</g>
<!-- Node17&#45;&gt;Node3 -->
<g id="edge26_Node000017_Node000003" class="edge">
<title>Node17&#45;&gt;Node3</title>
<g id="a_edge26_Node000017_Node000003"><a xlink:title=" ">
<path fill="none" stroke="#63b8ff" d="M834.61,-113.82C808.89,-104.13 766.24,-87.86 729.84,-73 710.58,-65.14 706.35,-61.72 686.84,-54.5 652.1,-41.65 611.7,-29.31 582.9,-20.94"/>
<polygon fill="#63b8ff" stroke="#63b8ff" points="584.11,-17.65 573.53,-18.24 582.18,-24.37 584.11,-17.65"/>
</a>
</g>
</g>
<!-- Node17&#45;&gt;Node4 -->
<g id="edge27_Node000017_Node000004" class="edge">
<title>Node17&#45;&gt;Node4</title>
<g id="a_edge27_Node000017_Node000004"><a xlink:title=" ">
<path fill="none" stroke="#63b8ff" d="M881.49,-113.85C908.02,-104.16 951.28,-88.35 981.53,-77.29"/>
<polygon fill="#63b8ff" stroke="#63b8ff" points="982.41,-80.69 990.6,-73.97 980.01,-74.12 982.41,-80.69"/>
</a>
</g>
</g>
<!-- Node17&#45;&gt;Node6 -->
<g id="edge29_Node000017_Node000006" class="edge">
<title>Node17&#45;&gt;Node6</title>
<g id="a_edge29_Node000017_Node000006"><a xlink:title=" ">
<path fill="none" stroke="#63b8ff" d="M872.87,-113.91C895.94,-100.8 941.52,-75.13 980.84,-54.5 1001.09,-43.88 1024.22,-32.4 1041.82,-23.79"/>
<polygon fill="#63b8ff" stroke="#63b8ff" points="1043.17,-27.03 1050.63,-19.5 1040.11,-20.73 1043.17,-27.03"/>
</a>
</g>
</g>
<!-- Node17&#45;&gt;Node7 -->
<g id="edge30_Node000017_Node000007" class="edge">
<title>Node17&#45;&gt;Node7</title>
<g id="a_edge30_Node000017_Node000007"><a xlink:title=" ">
<path fill="none" stroke="#63b8ff" d="M792.02,-115.27C696.5,-104.79 519.5,-85.35 415.05,-73.89"/>
<polygon fill="#63b8ff" stroke="#63b8ff" points="415.45,-70.41 405.13,-72.8 414.68,-77.37 415.45,-70.41"/>
</a>
</g>
</g>
<!-- Node17&#45;&gt;Node14 -->
<g id="edge31_Node000017_Node000014" class="edge">
<title>Node17&#45;&gt;Node14</title>
<g id="a_edge31_Node000017_Node000014"><a xlink:title=" ">
<path fill="none" stroke="#63b8ff" d="M850.46,-113.98C843.15,-105.53 831.75,-92.36 822.58,-81.77"/>
<polygon fill="#63b8ff" stroke="#63b8ff" points="825.43,-79.72 816.24,-74.45 820.14,-84.3 825.43,-79.72"/>
</a>
</g>
</g>
<!-- Node18 -->
<g id="Node000018" class="node">
<title>Node18</title>
<g id="a_Node000018"><a xlink:title=" ">
<polygon fill="#e0e0e0" stroke="#999999" points="933.47,-73 894.22,-73 894.22,-54.5 933.47,-54.5 933.47,-73"/>
<text text-anchor="middle" x="913.84" y="-59.5" font-family="Helvetica,sans-Serif" font-size="10.00">utility</text>
</a>
</g>
</g>
<!-- Node17&#45;&gt;Node18 -->
<g id="edge28_Node000017_Node000018" class="edge">
<title>Node17&#45;&gt;Node18</title>
<g id="a_edge28_Node000017_Node000018"><a xlink:title=" ">
<path fill="none" stroke="#63b8ff" d="M866.1,-113.98C874.37,-105.45 887.32,-92.1 897.65,-81.45"/>
<polygon fill="#63b8ff" stroke="#63b8ff" points="900.04,-84.01 904.49,-74.39 895.02,-79.14 900.04,-84.01"/>
</a>
</g>
</g>
<!-- Node19&#45;&gt;Node3 -->
<g id="edge35_Node000019_Node000003" class="edge">
<title>Node19&#45;&gt;Node3</title>
<g id="a_edge35_Node000019_Node000003"><a xlink:title=" ">
<path fill="none" stroke="#63b8ff" d="M544.84,-173.59C544.84,-142.34 544.84,-66.45 544.84,-30.19"/>
<polygon fill="#63b8ff" stroke="#63b8ff" points="548.34,-30.29 544.84,-20.29 541.34,-30.29 548.34,-30.29"/>
</a>
</g>
</g>
<!-- Node19&#45;&gt;Node6 -->
<g id="edge37_Node000019_Node000006" class="edge">
<title>Node19&#45;&gt;Node6</title>
<g id="a_edge37_Node000019_Node000006"><a xlink:title=" ">
<path fill="none" stroke="#63b8ff" d="M602.38,-185.92C729.85,-181.88 1027.35,-169.16 1059.84,-138 1088.79,-110.23 1081.92,-58.2 1075.33,-29.86"/>
<polygon fill="#63b8ff" stroke="#63b8ff" points="1078.79,-29.28 1072.91,-20.46 1072.01,-31.02 1078.79,-29.28"/>
</a>
</g>
</g>
<!-- Node19&#45;&gt;Node7 -->
<g id="edge48_Node000019_Node000007" class="edge">
<title>Node19&#45;&gt;Node7</title>
<g id="a_edge48_Node000019_Node000007"><a xlink:title=" ">
<path fill="none" stroke="#63b8ff" d="M487.31,-180.72C434.32,-173.24 361.09,-159.35 341.84,-138 328.83,-123.57 327.71,-100.58 328.97,-84.21"/>
<polygon fill="#63b8ff" stroke="#63b8ff" points="332.39,-85.07 330.06,-74.74 325.44,-84.27 332.39,-85.07"/>
</a>
</g>
</g>
<!-- Node19&#45;&gt;Node8 -->
<g id="edge38_Node000019_Node000008" class="edge">
<title>Node19&#45;&gt;Node8</title>
<g id="a_edge38_Node000019_Node000008"><a xlink:title=" ">
<path fill="none" stroke="#63b8ff" d="M536.21,-173.59C516.47,-141.79 468.06,-63.78 446.05,-28.32"/>
<polygon fill="#63b8ff" stroke="#63b8ff" points="449.18,-26.71 440.93,-20.06 443.23,-30.41 449.18,-26.71"/>
</a>
</g>
</g>
<!-- Node19&#45;&gt;Node10 -->
<g id="edge36_Node000019_Node000010" class="edge">
<title>Node19&#45;&gt;Node10</title>
<g id="a_edge36_Node000019_Node000010"><a xlink:title=" ">
<path fill="none" stroke="#63b8ff" d="M487.4,-185.67C359.31,-181.08 58.78,-167.3 23.84,-138 -5.25,-113.61 -2.16,-91.61 5.84,-54.5 7.75,-45.64 11.58,-36.42 15.39,-28.7"/>
<polygon fill="#63b8ff" stroke="#63b8ff" points="18.39,-30.5 20,-20.02 12.21,-27.21 18.39,-30.5"/>
</a>
</g>
</g>
<!-- Node19&#45;&gt;Node11 -->
<g id="edge49_Node000019_Node000011" class="edge">
<title>Node19&#45;&gt;Node11</title>
<g id="a_edge49_Node000019_Node000011"><a xlink:title=" ">
<path fill="none" stroke="#63b8ff" d="M487.42,-179.58C402.59,-167.89 244.15,-146.05 154.37,-133.67"/>
<polygon fill="#63b8ff" stroke="#63b8ff" points="155.12,-130.24 144.74,-132.34 154.17,-137.18 155.12,-130.24"/>
</a>
</g>
</g>
<!-- Node19&#45;&gt;Node12 -->
<g id="edge50_Node000019_Node000012" class="edge">
<title>Node19&#45;&gt;Node12</title>
<g id="a_edge50_Node000019_Node000012"><a xlink:title=" ">
<path fill="none" stroke="#63b8ff" d="M487.57,-176.77C443.07,-167.89 380,-154.16 325.84,-138 266.44,-120.27 199.13,-93.63 160.86,-77.84"/>
<polygon fill="#63b8ff" stroke="#63b8ff" points="162.39,-74.68 151.81,-74.07 159.7,-81.14 162.39,-74.68"/>
</a>
</g>
</g>
<!-- Node19&#45;&gt;Node14 -->
<g id="edge51_Node000019_Node000014" class="edge">
<title>Node19&#45;&gt;Node14</title>
<g id="a_edge51_Node000019_Node000014"><a xlink:title=" ">
<path fill="none" stroke="#63b8ff" d="M602.39,-174.02C633.08,-165.71 670.97,-153.64 702.84,-138 720.1,-129.53 762,-99.04 787.34,-80.17"/>
<polygon fill="#63b8ff" stroke="#63b8ff" points="789.34,-83.05 795.25,-74.26 785.15,-77.45 789.34,-83.05"/>
</a>
</g>
</g>
<!-- Node19&#45;&gt;Node15 -->
<g id="edge33_Node000019_Node000015" class="edge">
<title>Node19&#45;&gt;Node15</title>
<g id="a_edge33_Node000019_Node000015"><a xlink:title=" ">
<path fill="none" stroke="#63b8ff" d="M581.2,-173.5C598.45,-165.34 618.2,-153.55 631.84,-138 659.92,-105.99 674.08,-56.8 680.11,-29.75"/>
<polygon fill="#63b8ff" stroke="#63b8ff" points="683.49,-30.71 682.08,-20.2 676.63,-29.29 683.49,-30.71"/>
</a>
</g>
</g>
<!-- Node20 -->
<g id="Node000020" class="node">
<title>Node20</title>
<g id="a_Node000020"><a xlink:title=" ">
<polygon fill="#e0e0e0" stroke="#999999" points="622.34,-132.75 573.34,-132.75 573.34,-114.25 622.34,-114.25 622.34,-132.75"/>
<text text-anchor="middle" x="597.84" y="-119.25" font-family="Helvetica,sans-Serif" font-size="10.00">fstream</text>
</a>
</g>
</g>
<!-- Node19&#45;&gt;Node20 -->
<g id="edge34_Node000019_Node000020" class="edge">
<title>Node19&#45;&gt;Node20</title>
<g id="a_edge34_Node000019_Node000020"><a xlink:title=" ">
<path fill="none" stroke="#63b8ff" d="M556.6,-173.52C564.46,-164.18 574.85,-151.82 583.24,-141.86"/>
<polygon fill="#63b8ff" stroke="#63b8ff" points="585.78,-144.27 589.54,-134.36 580.43,-139.76 585.78,-144.27"/>
</a>
</g>
</g>
<!-- Node21 -->
<g id="Node000021" class="node">
<title>Node21</title>
<g id="a_Node000021"><a xlink:href="bivariate__normal__distribution_8h.html" target="_top" xlink:title="Class for Bivariate Normal Distribution.">
<polygon fill="white" stroke="#666666" points="478.72,-138 350.97,-138 350.97,-109 478.72,-109 478.72,-138"/>
<text text-anchor="start" x="358.97" y="-124.5" font-family="Helvetica,sans-Serif" font-size="10.00">CoverageControl/bivariate</text>
<text text-anchor="middle" x="414.84" y="-114" font-family="Helvetica,sans-Serif" font-size="10.00">_normal_distribution.h</text>
</a>
</g>
</g>
<!-- Node19&#45;&gt;Node21 -->
<g id="edge39_Node000019_Node000021" class="edge">
<title>Node19&#45;&gt;Node21</title>
<g id="a_edge39_Node000019_Node000021"><a xlink:title=" ">
<path fill="none" stroke="#63b8ff" d="M515.99,-173.52C497.73,-164.67 473.89,-153.11 453.94,-143.45"/>
<polygon fill="#63b8ff" stroke="#63b8ff" points="455.5,-140.31 444.97,-139.1 452.45,-146.61 455.5,-140.31"/>
</a>
</g>
</g>
<!-- Node22 -->
<g id="Node000022" class="node">
<title>Node22</title>
<g id="a_Node000022"><a xlink:href="polygon__utils_8h.html" target="_top" xlink:title="Provides utilities for polygon manipulation using CGAL.">
<polygon fill="white" stroke="#666666" points="1050.72,-138 940.97,-138 940.97,-109 1050.72,-109 1050.72,-138"/>
<text text-anchor="start" x="948.97" y="-124.5" font-family="Helvetica,sans-Serif" font-size="10.00">CoverageControl/cgal</text>
<text text-anchor="middle" x="995.84" y="-114" font-family="Helvetica,sans-Serif" font-size="10.00">/polygon_utils.h</text>
</a>
</g>
</g>
<!-- Node19&#45;&gt;Node22 -->
<g id="edge45_Node000019_Node000022" class="edge">
<title>Node19&#45;&gt;Node22</title>
<g id="a_edge45_Node000019_Node000022"><a xlink:title=" ">
<path fill="none" stroke="#63b8ff" d="M602.43,-181.6C676,-173.74 807.48,-158.6 929.7,-138.27"/>
<polygon fill="#63b8ff" stroke="#63b8ff" points="929.96,-141.78 939.24,-136.67 928.8,-134.87 929.96,-141.78"/>
</a>
</g>
</g>
<!-- Node21&#45;&gt;Node2 -->
<g id="edge40_Node000021_Node000002" class="edge">
<title>Node21&#45;&gt;Node2</title>
<g id="a_edge40_Node000021_Node000002"><a xlink:title=" ">
<path fill="none" stroke="#63b8ff" d="M418.57,-108.62C421.71,-93.6 423.97,-69.76 411.84,-54.5 403.9,-44.51 330.06,-27.01 285.85,-17.28"/>
<polygon fill="#63b8ff" stroke="#63b8ff" points="286.77,-13.9 276.26,-15.19 285.28,-20.73 286.77,-13.9"/>
</a>
</g>
</g>
<!-- Node21&#45;&gt;Node3 -->
<g id="edge41_Node000021_Node000003" class="edge">
<title>Node21&#45;&gt;Node3</title>
<g id="a_edge41_Node000021_Node000003"><a xlink:title=" ">
<path fill="none" stroke="#63b8ff" d="M431.04,-108.51C455.29,-87.57 500.89,-48.2 526.39,-26.18"/>
<polygon fill="#63b8ff" stroke="#63b8ff" points="528.37,-29.1 533.65,-19.91 523.79,-23.8 528.37,-29.1"/>
</a>
</g>
</g>
<!-- Node21&#45;&gt;Node7 -->
<g id="edge42_Node000021_Node000007" class="edge">
<title>Node21&#45;&gt;Node7</title>
<g id="a_edge42_Node000021_Node000007"><a xlink:title=" ">
<path fill="none" stroke="#63b8ff" d="M394.75,-108.52C382.33,-99.88 366.39,-88.79 353.67,-79.94"/>
<polygon fill="#63b8ff" stroke="#63b8ff" points="355.73,-77.11 345.52,-74.27 351.73,-82.85 355.73,-77.11"/>
</a>
</g>
</g>
<!-- Node21&#45;&gt;Node12 -->
<g id="edge43_Node000021_Node000012" class="edge">
<title>Node21&#45;&gt;Node12</title>
<g id="a_edge43_Node000021_Node000012"><a xlink:title=" ">
<path fill="none" stroke="#63b8ff" d="M350.53,-109.47C300.32,-99.3 231.37,-85.32 183.97,-75.72"/>
<polygon fill="#63b8ff" stroke="#63b8ff" points="184.69,-72.29 174.19,-73.74 183.29,-79.15 184.69,-72.29"/>
</a>
</g>
</g>
<!-- Node21&#45;&gt;Node14 -->
<g id="edge44_Node000021_Node000014" class="edge">
<title>Node21&#45;&gt;Node14</title>
<g id="a_edge44_Node000021_Node000014"><a xlink:title=" ">
<path fill="none" stroke="#63b8ff" d="M478.86,-113.09C549.82,-102.67 663.92,-85.9 737.38,-75.1"/>
<polygon fill="#63b8ff" stroke="#63b8ff" points="737.47,-78.63 746.86,-73.71 736.46,-71.7 737.47,-78.63"/>
</a>
</g>
</g>
<!-- Node22&#45;&gt;Node6 -->
<g id="edge46_Node000022_Node000006" class="edge">
<title>Node22&#45;&gt;Node6</title>
<g id="a_edge46_Node000022_Node000006"><a xlink:title=" ">
<path fill="none" stroke="#63b8ff" d="M1016.19,-108.57C1027.84,-99.64 1041.88,-87.1 1050.84,-73 1059.17,-59.89 1064.01,-42.94 1066.73,-29.96"/>
<polygon fill="#63b8ff" stroke="#63b8ff" points="1070.11,-30.94 1068.45,-20.47 1063.22,-29.69 1070.11,-30.94"/>
</a>
</g>
</g>
<!-- Node22&#45;&gt;Node14 -->
<g id="edge47_Node000022_Node000014" class="edge">
<title>Node22&#45;&gt;Node14</title>
<g id="a_edge47_Node000022_Node000014"><a xlink:title=" ">
<path fill="none" stroke="#63b8ff" d="M950.33,-108.52C918.82,-98.84 877.3,-86.09 847.21,-76.85"/>
<polygon fill="#63b8ff" stroke="#63b8ff" points="848.32,-73.52 837.73,-73.93 846.27,-80.22 848.32,-73.52"/>
</a>
</g>
</g>
</g>
</svg>

<g id="navigator" transform="translate(0 0)" fill="#404254">
  <rect fill="#f2f5e9" fill-opacity="0.5" stroke="#606060" stroke-width=".5" x="0" y="0" width="60" height="60"/>
  <use id="zoomplus" xlink:href="#zoomPlus" x="17" y="9" onmousedown="handleZoom(evt,'in')"/>
  <use id="zoomminus" xlink:href="#zoomMin" x="42" y="9" onmousedown="handleZoom(evt,'out')"/>
  <use id="reset" xlink:href="#resetDef" x="30" y="36" onmousedown="handleReset()"/>
   <use id="arrowup" xlink:href="#arrowUp" x="0" y="0" onmousedown="handlePan(0,-1)"/>
  <use id="arrowright" xlink:href="#arrowRight" x="0" y="0" onmousedown="handlePan(1,0)"/>
  <use id="arrowdown" xlink:href="#arrowDown" x="0" y="0" onmousedown="handlePan(0,1)"/>
  <use id="arrowleft" xlink:href="#arrowLeft" x="0" y="0" onmousedown="handlePan(-1,0)"/>
</g>
<svg viewBox="0 0 15 15" width="100%" height="30px" preserveAspectRatio="xMaxYMin meet">
 <g id="arrow_out" transform="scale(0.3 0.3)">
  <a xlink:href="robot__model_8h__incl_org.svg" target="_base">
   <rect id="button" ry="5" rx="5" y="6" x="6" height="38" width="38"
        fill="#f2f5e9" fill-opacity="0.5" stroke="#606060" stroke-width="1.0"/>
   <path id="arrow"
     d="M 11.500037,31.436501 C 11.940474,20.09759 22.043105,11.32322 32.158766,21.979434 L 37.068811,17.246167 C 37.068811,17.246167 37.088388,32 37.088388,32 L 22.160133,31.978069 C 22.160133,31.978069 26.997745,27.140456 26.997745,27.140456 C 18.528582,18.264221 13.291696,25.230495 11.500037,31.436501 z"
     style="fill:#404040;"/>
  </a>
 </g>
</svg>

<style type='text/css'>
<![CDATA[
[data-mouse-over-selected='false'] { opacity: 0.7; }
[data-mouse-over-selected='true']  { opacity: 1.0; }
]]>
</style>
<script type="application/ecmascript"><![CDATA[
document.addEventListener('DOMContentLoaded', (event) => {
  highlightEdges();
  highlightAdjacentNodes();
});
]]></script>
</svg>
