<?xml version="1.0" encoding="UTF-8" standalone="no"?>
<!DOCTYPE svg PUBLIC "-//W3C//DTD SVG 1.1//EN"
 "http://www.w3.org/Graphics/SVG/1.1/DTD/svg11.dtd">
<!-- Generated by graphviz version 10.0.1 (0)
 -->
<!-- Title: robot_model.h Pages: 1 -->
<!--zoomable 276 -->

<svg id="main" version="1.1" xmlns="http://www.w3.org/2000/svg" xmlns:xlink="http://www.w3.org/1999/xlink" xml:space="preserve" onload="init(evt)">
<style type="text/css"><![CDATA[
.node, .edge {opacity: 0.7;}
.node.selected, .edge.selected {opacity: 1;}
.edge:hover path { stroke: red; }
.edge:hover polygon { stroke: red; fill: red; }
]]></style>

<defs>
  <circle id="rim" cx="0" cy="0" r="7"/>
  <circle id="rim2" cx="0" cy="0" r="3.5"/>
  <g id="zoomPlus">
    <use xlink:href="#rim" fill="#404040"><set attributeName="fill" to="#808080" begin="zoomplus.mouseover" end="zoomplus.mouseout"/></use>
    <path d="M-4,0h8M0,-4v8" fill="none" stroke="white" stroke-width="1.5" pointer-events="none"/>
  </g>
  <g id="zoomMin">
    <use xlink:href="#rim" fill="#404040"><set attributeName="fill" to="#808080" begin="zoomminus.mouseover" end="zoomminus.mouseout"/></use>
    <path d="M-4,0h8" fill="none" stroke="white" stroke-width="1.5" pointer-events="none"/>
  </g>
  <g id="arrowUp" transform="translate(30 24)">
    <use xlink:href="#rim"/>
    <path pointer-events="none" fill="none" stroke="white" stroke-width="1.5" d="M0,-3.0v7 M-2.5,-0.5L0,-3.0L2.5,-0.5"/>
  </g>
  <g id="arrowRight" transform="rotate(90) translate(36 -43)">
    <use xlink:href="#rim"/>
    <path pointer-events="none" fill="none" stroke="white" stroke-width="1.5" d="M0,-3.0v7 M-2.5,-0.5L0,-3.0L2.5,-0.5"/>
  </g>
  <g id="arrowDown" transform="rotate(180) translate(-30 -48)">
    <use xlink:href="#rim"/>
    <path pointer-events="none" fill="none" stroke="white" stroke-width="1.5" d="M0,-3.0v7 M-2.5,-0.5L0,-3.0L2.5,-0.5"/>
  </g>
  <g id="arrowLeft" transform="rotate(270) translate(-36 17)">
    <use xlink:href="#rim"/>
    <path pointer-events="none" fill="none" stroke="white" stroke-width="1.5" d="M0,-3.0v7 M-2.5,-0.5L0,-3.0L2.5,-0.5"/>
  </g>
  <g id="resetDef">
    <use xlink:href="#rim2" fill="#404040"><set attributeName="fill" to="#808080" begin="reset.mouseover" end="reset.mouseout"/></use>
  </g>
</defs>
<script type="application/ecmascript">
var viewWidth = 1391;
var viewHeight = 276;
var sectionId = 'dynsection-0';
</script>
<script type="application/ecmascript" xlink:href="svg.min.js"/>
<svg id="graph" class="graph">
<g id="viewport">
<title>robot_model.h</title>
<!-- Node1 -->
<g id="Node000001" class="node">
<title>Node1</title>
<g id="a_Node000001"><a xlink:title="Class for handling the robot model.">
<polygon fill="#999999" stroke="#666666" points="474.62,-268 397.12,-268 397.12,-249.5 474.62,-249.5 474.62,-268"/>
<text text-anchor="middle" x="435.88" y="-254.5" font-family="Helvetica,sans-Serif" font-size="10.00">robot_model.h</text>
</a>
</g>
</g>
<!-- Node2 -->
<g id="Node000002" class="node">
<title>Node2</title>
<g id="a_Node000002"><a xlink:title=" ">
<polygon fill="#e0e0e0" stroke="#999999" points="55.75,-208.25 0,-208.25 0,-189.75 55.75,-189.75 55.75,-208.25"/>
<text text-anchor="middle" x="27.88" y="-194.75" font-family="Helvetica,sans-Serif" font-size="10.00">algorithm</text>
</a>
</g>
</g>
<!-- Node1&#45;&gt;Node2 -->
<g id="edge1_Node000001_Node000002" class="edge">
<title>Node1&#45;&gt;Node2</title>
<g id="a_edge1_Node000001_Node000002"><a xlink:title=" ">
<path fill="none" stroke="#63b8ff" d="M396.73,-255.47C329.33,-251.01 187.26,-239.21 69.88,-213.5 67.6,-213 65.26,-212.43 62.92,-211.81"/>
<polygon fill="#63b8ff" stroke="#63b8ff" points="64.12,-208.51 53.54,-209.07 62.16,-215.23 64.12,-208.51"/>
</a>
</g>
</g>
<!-- Node3 -->
<g id="Node000003" class="node">
<title>Node3</title>
<g id="a_Node000003"><a xlink:title=" ">
<polygon fill="#e0e0e0" stroke="#999999" points="268.38,-18.5 225.38,-18.5 225.38,0 268.38,0 268.38,-18.5"/>
<text text-anchor="middle" x="246.88" y="-5" font-family="Helvetica,sans-Serif" font-size="10.00">cmath</text>
</a>
</g>
</g>
<!-- Node1&#45;&gt;Node3 -->
<g id="edge2_Node000001_Node000003" class="edge">
<title>Node1&#45;&gt;Node3</title>
<g id="a_edge2_Node000001_Node000003"><a xlink:title=" ">
<path fill="none" stroke="#63b8ff" d="M396.66,-255.35C354.86,-251.4 287.81,-240.96 236.88,-213.5 163.84,-174.12 135.21,-159.92 102.88,-83.5 97.85,-71.63 95.22,-64.87 102.88,-54.5 128.25,-20.16 179.82,-11.62 213.86,-9.94"/>
<polygon fill="#63b8ff" stroke="#63b8ff" points="213.69,-13.45 223.58,-9.65 213.48,-6.45 213.69,-13.45"/>
</a>
</g>
</g>
<!-- Node4 -->
<g id="Node000004" class="node">
<title>Node4</title>
<g id="a_Node000004"><a xlink:title=" ">
<polygon fill="#e0e0e0" stroke="#999999" points="615.62,-18.5 562.12,-18.5 562.12,0 615.62,0 615.62,-18.5"/>
<text text-anchor="middle" x="588.88" y="-5" font-family="Helvetica,sans-Serif" font-size="10.00">iostream</text>
</a>
</g>
</g>
<!-- Node1&#45;&gt;Node4 -->
<g id="edge3_Node000001_Node000004" class="edge">
<title>Node1&#45;&gt;Node4</title>
<g id="a_edge3_Node000001_Node000004"><a xlink:title=" ">
<path fill="none" stroke="#63b8ff" d="M435.36,-249.19C433.98,-217.83 433.71,-108.18 492.88,-54.5 509.46,-39.45 532.05,-28.69 551.15,-21.56"/>
<polygon fill="#63b8ff" stroke="#63b8ff" points="552.22,-24.89 560.5,-18.27 549.9,-18.29 552.22,-24.89"/>
</a>
</g>
</g>
<!-- Node5 -->
<g id="Node000005" class="node">
<title>Node5</title>
<g id="a_Node000005"><a xlink:title=" ">
<polygon fill="#e0e0e0" stroke="#999999" points="163.88,-78.25 111.88,-78.25 111.88,-59.75 163.88,-59.75 163.88,-78.25"/>
<text text-anchor="middle" x="137.88" y="-64.75" font-family="Helvetica,sans-Serif" font-size="10.00">memory</text>
</a>
</g>
</g>
<!-- Node1&#45;&gt;Node5 -->
<g id="edge4_Node000001_Node000005" class="edge">
<title>Node1&#45;&gt;Node5</title>
<g id="a_edge4_Node000001_Node000005"><a xlink:title=" ">
<path fill="none" stroke="#63b8ff" d="M396.88,-252.52C363.68,-246.76 315.67,-235.28 278.88,-213.5 222.17,-179.93 172.46,-117.9 150.24,-87.59"/>
<polygon fill="#63b8ff" stroke="#63b8ff" points="153.35,-85.92 144.67,-79.84 147.66,-90.01 153.35,-85.92"/>
</a>
</g>
</g>
<!-- Node6 -->
<g id="Node000006" class="node">
<title>Node6</title>
<g id="a_Node000006"><a xlink:title=" ">
<polygon fill="#e0e0e0" stroke="#999999" points="1154,-18.5 1111.75,-18.5 1111.75,0 1154,0 1154,-18.5"/>
<text text-anchor="middle" x="1132.88" y="-5" font-family="Helvetica,sans-Serif" font-size="10.00">vector</text>
</a>
</g>
</g>
<!-- Node1&#45;&gt;Node6 -->
<g id="edge5_Node000001_Node000006" class="edge">
<title>Node1&#45;&gt;Node6</title>
<g id="a_edge5_Node000001_Node000006"><a xlink:title=" ">
<path fill="none" stroke="#63b8ff" d="M475.12,-256.73C606.39,-253.12 1029.33,-239.68 1162.88,-213.5 1251.28,-196.17 1302.37,-221.71 1354.88,-148.5 1369.98,-127.44 1349.32,-64.64 1338.88,-54.5 1314.52,-30.86 1217.26,-18.24 1165.56,-13.09"/>
<polygon fill="#63b8ff" stroke="#63b8ff" points="1166.16,-9.63 1155.87,-12.16 1165.49,-16.6 1166.16,-9.63"/>
</a>
</g>
</g>
<!-- Node7 -->
<g id="Node000007" class="node">
<title>Node7</title>
<g id="a_Node000007"><a xlink:href="constants_8h.html" target="_top" xlink:title="Constants for the CoverageControl library.">
<polygon fill="white" stroke="#666666" points="854.25,-78.25 711.5,-78.25 711.5,-59.75 854.25,-59.75 854.25,-78.25"/>
<text text-anchor="middle" x="782.88" y="-64.75" font-family="Helvetica,sans-Serif" font-size="10.00">CoverageControl/constants.h</text>
</a>
</g>
</g>
<!-- Node1&#45;&gt;Node7 -->
<g id="edge6_Node000001_Node000007" class="edge">
<title>Node1&#45;&gt;Node7</title>
<g id="a_edge6_Node000001_Node000007"><a xlink:title=" ">
<path fill="none" stroke="#63b8ff" d="M475.05,-251.47C558.5,-237.2 749.28,-199.58 786.88,-148.5 799.37,-131.53 795.33,-106.46 790.16,-89.25"/>
<polygon fill="#63b8ff" stroke="#63b8ff" points="793.54,-88.31 787,-79.98 786.92,-90.58 793.54,-88.31"/>
</a>
</g>
</g>
<!-- Node11 -->
<g id="Node000011" class="node">
<title>Node11</title>
<g id="a_Node000011"><a xlink:href="map__utils_8h.html" target="_top" xlink:title="Utility functions for transforming maps.">
<polygon fill="white" stroke="#666666" points="370.12,-148.5 259.62,-148.5 259.62,-119.5 370.12,-119.5 370.12,-148.5"/>
<text text-anchor="start" x="267.62" y="-135" font-family="Helvetica,sans-Serif" font-size="10.00">CoverageControl/map</text>
<text text-anchor="middle" x="314.88" y="-124.5" font-family="Helvetica,sans-Serif" font-size="10.00">_utils.h</text>
</a>
</g>
</g>
<!-- Node1&#45;&gt;Node11 -->
<g id="edge11_Node000001_Node000011" class="edge">
<title>Node1&#45;&gt;Node11</title>
<g id="a_edge11_Node000001_Node000011"><a xlink:title=" ">
<path fill="none" stroke="#63b8ff" d="M427.56,-249.31C408.98,-230.46 363.6,-184.43 336.43,-156.87"/>
<polygon fill="#63b8ff" stroke="#63b8ff" points="339.21,-154.7 329.7,-150.04 334.23,-159.62 339.21,-154.7"/>
</a>
</g>
</g>
<!-- Node12 -->
<g id="Node000012" class="node">
<title>Node12</title>
<g id="a_Node000012"><a xlink:href="parameters_8h.html" target="_top" xlink:title="Contains parameters.">
<polygon fill="white" stroke="#666666" points="407.62,-78.25 258.12,-78.25 258.12,-59.75 407.62,-59.75 407.62,-78.25"/>
<text text-anchor="middle" x="332.88" y="-64.75" font-family="Helvetica,sans-Serif" font-size="10.00">CoverageControl/parameters.h</text>
</a>
</g>
</g>
<!-- Node1&#45;&gt;Node12 -->
<g id="edge19_Node000001_Node000012" class="edge">
<title>Node1&#45;&gt;Node12</title>
<g id="a_edge19_Node000001_Node000012"><a xlink:title=" ">
<path fill="none" stroke="#63b8ff" d="M402.13,-249C358.22,-235.6 283.32,-205.36 250.88,-148.5 244.49,-137.31 244.54,-130.72 250.88,-119.5 260.42,-102.59 278.32,-90.81 294.96,-82.99"/>
<polygon fill="#63b8ff" stroke="#63b8ff" points="295.89,-86.4 303.69,-79.23 293.12,-79.98 295.89,-86.4"/>
</a>
</g>
</g>
<!-- Node14 -->
<g id="Node000014" class="node">
<title>Node14</title>
<g id="a_Node000014"><a xlink:href="typedefs_8h.html" target="_top" xlink:title="Contains typedefs for the library.">
<polygon fill="white" stroke="#666666" points="1329.62,-78.25 1192.12,-78.25 1192.12,-59.75 1329.62,-59.75 1329.62,-78.25"/>
<text text-anchor="middle" x="1260.88" y="-64.75" font-family="Helvetica,sans-Serif" font-size="10.00">CoverageControl/typedefs.h</text>
</a>
</g>
</g>
<!-- Node1&#45;&gt;Node14 -->
<g id="edge20_Node000001_Node000014" class="edge">
<title>Node1&#45;&gt;Node14</title>
<g id="a_edge20_Node000001_Node000014"><a xlink:title=" ">
<path fill="none" stroke="#63b8ff" d="M475.05,-256.11C641.3,-248.72 1282.59,-216 1338.88,-148.5 1359.13,-124.21 1321.09,-98.71 1291.35,-83.59"/>
<polygon fill="#63b8ff" stroke="#63b8ff" points="1293.17,-80.58 1282.65,-79.36 1290.11,-86.88 1293.17,-80.58"/>
</a>
</g>
</g>
<!-- Node17 -->
<g id="Node000017" class="node">
<title>Node17</title>
<g id="a_Node000017"><a xlink:href="voronoi_8h.html" target="_top" xlink:title="Class for computing Voronoi cells.">
<polygon fill="white" stroke="#666666" points="594.25,-143.25 463.5,-143.25 463.5,-124.75 594.25,-124.75 594.25,-143.25"/>
<text text-anchor="middle" x="528.88" y="-129.75" font-family="Helvetica,sans-Serif" font-size="10.00">CoverageControl/voronoi.h</text>
</a>
</g>
</g>
<!-- Node1&#45;&gt;Node17 -->
<g id="edge24_Node000001_Node000017" class="edge">
<title>Node1&#45;&gt;Node17</title>
<g id="a_edge24_Node000001_Node000017"><a xlink:title=" ">
<path fill="none" stroke="#63b8ff" d="M442.27,-249.31C457.33,-229.43 495.32,-179.29 515.61,-152.51"/>
<polygon fill="#63b8ff" stroke="#63b8ff" points="518.27,-154.79 521.52,-144.7 512.7,-150.56 518.27,-154.79"/>
</a>
</g>
</g>
<!-- Node19 -->
<g id="Node000019" class="node">
<title>Node19</title>
<g id="a_Node000019"><a xlink:href="world__idf_8h.html" target="_top" xlink:title="Contains the class for Importance Density Function (IDF) for the world.">
<polygon fill="white" stroke="#666666" points="974,-213.5 859.75,-213.5 859.75,-184.5 974,-184.5 974,-213.5"/>
<text text-anchor="start" x="867.75" y="-200" font-family="Helvetica,sans-Serif" font-size="10.00">CoverageControl/world</text>
<text text-anchor="middle" x="916.88" y="-189.5" font-family="Helvetica,sans-Serif" font-size="10.00">_idf.h</text>
</a>
</g>
</g>
<!-- Node1&#45;&gt;Node19 -->
<g id="edge32_Node000001_Node000019" class="edge">
<title>Node1&#45;&gt;Node19</title>
<g id="a_edge32_Node000001_Node000019"><a xlink:title=" ">
<path fill="none" stroke="#63b8ff" d="M474.88,-253.56C544.32,-246.04 693.89,-229.52 819.88,-213.5 829.09,-212.33 838.79,-211.04 848.34,-209.74"/>
<polygon fill="#63b8ff" stroke="#63b8ff" points="848.53,-213.25 857.96,-208.42 847.58,-206.32 848.53,-213.25"/>
</a>
</g>
</g>
<!-- Node7&#45;&gt;Node3 -->
<g id="edge7_Node000007_Node000003" class="edge">
<title>Node7&#45;&gt;Node3</title>
<g id="a_edge7_Node000007_Node000003"><a xlink:title=" ">
<path fill="none" stroke="#63b8ff" d="M711.02,-59.98C694.24,-58.14 676.43,-56.22 659.88,-54.5 497.3,-37.58 455.82,-40.65 293.88,-18.5 289.39,-17.89 284.67,-17.16 280.03,-16.39"/>
<polygon fill="#63b8ff" stroke="#63b8ff" points="280.76,-12.97 270.31,-14.71 279.57,-19.87 280.76,-12.97"/>
</a>
</g>
</g>
<!-- Node8 -->
<g id="Node000008" class="node">
<title>Node8</title>
<g id="a_Node000008"><a xlink:title=" ">
<polygon fill="#e0e0e0" stroke="#999999" points="865.5,-18.5 826.25,-18.5 826.25,0 865.5,0 865.5,-18.5"/>
<text text-anchor="middle" x="845.88" y="-5" font-family="Helvetica,sans-Serif" font-size="10.00">limits</text>
</a>
</g>
</g>
<!-- Node7&#45;&gt;Node8 -->
<g id="edge8_Node000007_Node000008" class="edge">
<title>Node7&#45;&gt;Node8</title>
<g id="a_edge8_Node000007_Node000008"><a xlink:title=" ">
<path fill="none" stroke="#63b8ff" d="M792.17,-59.48C801.66,-50.78 816.63,-37.06 828.35,-26.31"/>
<polygon fill="#63b8ff" stroke="#63b8ff" points="830.42,-29.17 835.43,-19.83 825.69,-24.01 830.42,-29.17"/>
</a>
</g>
</g>
<!-- Node9 -->
<g id="Node000009" class="node">
<title>Node9</title>
<g id="a_Node000009"><a xlink:title=" ">
<polygon fill="#e0e0e0" stroke="#999999" points="802.88,-18.5 762.88,-18.5 762.88,0 802.88,0 802.88,-18.5"/>
<text text-anchor="middle" x="782.88" y="-5" font-family="Helvetica,sans-Serif" font-size="10.00">string</text>
</a>
</g>
</g>
<!-- Node7&#45;&gt;Node9 -->
<g id="edge9_Node000007_Node000009" class="edge">
<title>Node7&#45;&gt;Node9</title>
<g id="a_edge9_Node000007_Node000009"><a xlink:title=" ">
<path fill="none" stroke="#63b8ff" d="M782.88,-59.48C782.88,-51.8 782.88,-40.22 782.88,-30.22"/>
<polygon fill="#63b8ff" stroke="#63b8ff" points="786.38,-30.32 782.88,-20.32 779.38,-30.32 786.38,-30.32"/>
</a>
</g>
</g>
<!-- Node10 -->
<g id="Node000010" class="node">
<title>Node10</title>
<g id="a_Node000010"><a xlink:title=" ">
<polygon fill="#e0e0e0" stroke="#999999" points="1022.12,-18.5 893.62,-18.5 893.62,0 1022.12,0 1022.12,-18.5"/>
<text text-anchor="middle" x="957.88" y="-5" font-family="Helvetica,sans-Serif" font-size="10.00">CoverageControl/Config.h</text>
</a>
</g>
</g>
<!-- Node7&#45;&gt;Node10 -->
<g id="edge10_Node000007_Node000010" class="edge">
<title>Node7&#45;&gt;Node10</title>
<g id="a_edge10_Node000007_Node000010"><a xlink:title=" ">
<path fill="none" stroke="#63b8ff" d="M809.07,-59.35C838.71,-49.57 887.21,-33.57 920.75,-22.5"/>
<polygon fill="#63b8ff" stroke="#63b8ff" points="921.66,-25.89 930.06,-19.43 919.47,-19.24 921.66,-25.89"/>
</a>
</g>
</g>
<!-- Node11&#45;&gt;Node3 -->
<g id="edge12_Node000011_Node000003" class="edge">
<title>Node11&#45;&gt;Node3</title>
<g id="a_edge12_Node000011_Node000003"><a xlink:title=" ">
<path fill="none" stroke="#63b8ff" d="M261.95,-119.02C244.16,-111.53 226.23,-100.25 215.88,-83.5 204.69,-65.41 218.19,-42.57 230.72,-27.24"/>
<polygon fill="#63b8ff" stroke="#63b8ff" points="233.18,-29.74 237.16,-19.92 227.93,-25.12 233.18,-29.74"/>
</a>
</g>
</g>
<!-- Node11&#45;&gt;Node9 -->
<g id="edge13_Node000011_Node000009" class="edge">
<title>Node11&#45;&gt;Node9</title>
<g id="a_edge13_Node000011_Node000009"><a xlink:title=" ">
<path fill="none" stroke="#63b8ff" d="M343.85,-119.1C386.27,-98.95 463.45,-63.07 492.88,-54.5 584.48,-27.82 697.31,-16.49 751.24,-12.34"/>
<polygon fill="#63b8ff" stroke="#63b8ff" points="751.21,-15.85 760.93,-11.62 750.7,-8.87 751.21,-15.85"/>
</a>
</g>
</g>
<!-- Node11&#45;&gt;Node12 -->
<g id="edge14_Node000011_Node000012" class="edge">
<title>Node11&#45;&gt;Node12</title>
<g id="a_edge14_Node000011_Node000012"><a xlink:title=" ">
<path fill="none" stroke="#63b8ff" d="M318.87,-119.02C321.35,-110.35 324.56,-99.09 327.29,-89.55"/>
<polygon fill="#63b8ff" stroke="#63b8ff" points="330.59,-90.74 329.97,-80.16 323.86,-88.82 330.59,-90.74"/>
</a>
</g>
</g>
<!-- Node12&#45;&gt;Node3 -->
<g id="edge15_Node000012_Node000003" class="edge">
<title>Node12&#45;&gt;Node3</title>
<g id="a_edge15_Node000012_Node000003"><a xlink:title=" ">
<path fill="none" stroke="#63b8ff" d="M320.19,-59.48C306.8,-50.49 285.43,-36.14 269.22,-25.25"/>
<polygon fill="#63b8ff" stroke="#63b8ff" points="271.41,-22.51 261.16,-19.84 267.51,-28.32 271.41,-22.51"/>
</a>
</g>
</g>
<!-- Node12&#45;&gt;Node4 -->
<g id="edge17_Node000012_Node000004" class="edge">
<title>Node12&#45;&gt;Node4</title>
<g id="a_edge17_Node000012_Node000004"><a xlink:title=" ">
<path fill="none" stroke="#63b8ff" d="M371.48,-59.29C419.87,-48.38 502.3,-29.78 550.56,-18.89"/>
<polygon fill="#63b8ff" stroke="#63b8ff" points="551.3,-22.31 560.28,-16.7 549.76,-15.49 551.3,-22.31"/>
</a>
</g>
</g>
<!-- Node12&#45;&gt;Node9 -->
<g id="edge18_Node000012_Node000009" class="edge">
<title>Node12&#45;&gt;Node9</title>
<g id="a_edge18_Node000012_Node000009"><a xlink:title=" ">
<path fill="none" stroke="#63b8ff" d="M400.73,-59.29C499.58,-46.61 679.25,-23.55 751.52,-14.27"/>
<polygon fill="#63b8ff" stroke="#63b8ff" points="751.59,-17.79 761.06,-13.05 750.7,-10.85 751.59,-17.79"/>
</a>
</g>
</g>
<!-- Node13 -->
<g id="Node000013" class="node">
<title>Node13</title>
<g id="a_Node000013"><a xlink:title=" ">
<polygon fill="#e0e0e0" stroke="#999999" points="362.62,-18.5 303.12,-18.5 303.12,0 362.62,0 362.62,-18.5"/>
<text text-anchor="middle" x="332.88" y="-5" font-family="Helvetica,sans-Serif" font-size="10.00">filesystem</text>
</a>
</g>
</g>
<!-- Node12&#45;&gt;Node13 -->
<g id="edge16_Node000012_Node000013" class="edge">
<title>Node12&#45;&gt;Node13</title>
<g id="a_edge16_Node000012_Node000013"><a xlink:title=" ">
<path fill="none" stroke="#63b8ff" d="M332.88,-59.48C332.88,-51.8 332.88,-40.22 332.88,-30.22"/>
<polygon fill="#63b8ff" stroke="#63b8ff" points="336.38,-30.32 332.88,-20.32 329.38,-30.32 336.38,-30.32"/>
</a>
</g>
</g>
<!-- Node14&#45;&gt;Node6 -->
<g id="edge23_Node000014_Node000006" class="edge">
<title>Node14&#45;&gt;Node6</title>
<g id="a_edge23_Node000014_Node000006"><a xlink:title=" ">
<path fill="none" stroke="#63b8ff" d="M1241.71,-59.35C1220.79,-49.91 1187.01,-34.67 1162.63,-23.67"/>
<polygon fill="#63b8ff" stroke="#63b8ff" points="1164.1,-20.5 1153.55,-19.58 1161.22,-26.88 1164.1,-20.5"/>
</a>
</g>
</g>
<!-- Node15 -->
<g id="Node000015" class="node">
<title>Node15</title>
<g id="a_Node000015"><a xlink:title=" ">
<polygon fill="#e0e0e0" stroke="#999999" points="1383,-18.5 1310.75,-18.5 1310.75,0 1383,0 1383,-18.5"/>
<text text-anchor="middle" x="1346.88" y="-5" font-family="Helvetica,sans-Serif" font-size="10.00">Eigen/Dense</text>
</a>
</g>
</g>
<!-- Node14&#45;&gt;Node15 -->
<g id="edge21_Node000014_Node000015" class="edge">
<title>Node14&#45;&gt;Node15</title>
<g id="a_edge21_Node000014_Node000015"><a xlink:title=" ">
<path fill="none" stroke="#63b8ff" d="M1273.56,-59.48C1286.95,-50.49 1308.32,-36.14 1324.53,-25.25"/>
<polygon fill="#63b8ff" stroke="#63b8ff" points="1326.24,-28.32 1332.59,-19.84 1322.34,-22.51 1326.24,-28.32"/>
</a>
</g>
</g>
<!-- Node16 -->
<g id="Node000016" class="node">
<title>Node16</title>
<g id="a_Node000016"><a xlink:title=" ">
<polygon fill="#e0e0e0" stroke="#999999" points="1282,-18.5 1239.75,-18.5 1239.75,0 1282,0 1282,-18.5"/>
<text text-anchor="middle" x="1260.88" y="-5" font-family="Helvetica,sans-Serif" font-size="10.00">queue</text>
</a>
</g>
</g>
<!-- Node14&#45;&gt;Node16 -->
<g id="edge22_Node000014_Node000016" class="edge">
<title>Node14&#45;&gt;Node16</title>
<g id="a_edge22_Node000014_Node000016"><a xlink:title=" ">
<path fill="none" stroke="#63b8ff" d="M1260.88,-59.48C1260.88,-51.8 1260.88,-40.22 1260.88,-30.22"/>
<polygon fill="#63b8ff" stroke="#63b8ff" points="1264.38,-30.32 1260.88,-20.32 1257.38,-30.32 1264.38,-30.32"/>
</a>
</g>
</g>
<!-- Node17&#45;&gt;Node3 -->
<g id="edge25_Node000017_Node000003" class="edge">
<title>Node17&#45;&gt;Node3</title>
<g id="a_edge25_Node000017_Node000003"><a xlink:title=" ">
<path fill="none" stroke="#63b8ff" d="M463.04,-125.74C384.72,-116.44 262.76,-99.6 248.88,-83.5 236.3,-68.91 237.9,-45.96 241.3,-29.64"/>
<polygon fill="#63b8ff" stroke="#63b8ff" points="244.64,-30.72 243.69,-20.16 237.85,-29.01 244.64,-30.72"/>
</a>
</g>
</g>
<!-- Node17&#45;&gt;Node4 -->
<g id="edge26_Node000017_Node000004" class="edge">
<title>Node17&#45;&gt;Node4</title>
<g id="a_edge26_Node000017_Node000004"><a xlink:title=" ">
<path fill="none" stroke="#63b8ff" d="M533,-124.56C542.59,-104.94 566.58,-55.86 579.79,-28.83"/>
<polygon fill="#63b8ff" stroke="#63b8ff" points="582.81,-30.63 584.06,-20.11 576.52,-27.55 582.81,-30.63"/>
</a>
</g>
</g>
<!-- Node17&#45;&gt;Node5 -->
<g id="edge27_Node000017_Node000005" class="edge">
<title>Node17&#45;&gt;Node5</title>
<g id="a_edge27_Node000017_Node000005"><a xlink:title=" ">
<path fill="none" stroke="#63b8ff" d="M472.01,-124.26C409.25,-114.56 305.3,-98.31 215.88,-83.5 202.69,-81.32 188.27,-78.84 175.45,-76.62"/>
<polygon fill="#63b8ff" stroke="#63b8ff" points="176.16,-73.19 165.71,-74.92 174.96,-80.08 176.16,-73.19"/>
</a>
</g>
</g>
<!-- Node17&#45;&gt;Node6 -->
<g id="edge29_Node000017_Node000006" class="edge">
<title>Node17&#45;&gt;Node6</title>
<g id="a_edge29_Node000017_Node000006"><a xlink:title=" ">
<path fill="none" stroke="#63b8ff" d="M594.58,-124.77C609.77,-122.95 625.88,-121.1 640.88,-119.5 813.97,-101.08 867.81,-144.4 1030.88,-83.5 1064.57,-70.91 1097.21,-44.12 1116.15,-26.67"/>
<polygon fill="#63b8ff" stroke="#63b8ff" points="1118.34,-29.41 1123.19,-19.99 1113.53,-24.33 1118.34,-29.41"/>
</a>
</g>
</g>
<!-- Node17&#45;&gt;Node7 -->
<g id="edge30_Node000017_Node000007" class="edge">
<title>Node17&#45;&gt;Node7</title>
<g id="a_edge30_Node000017_Node000007"><a xlink:title=" ">
<path fill="none" stroke="#63b8ff" d="M563.93,-124.31C608.87,-113.16 686.94,-93.8 736.69,-81.45"/>
<polygon fill="#63b8ff" stroke="#63b8ff" points="737.44,-84.87 746.31,-79.07 735.76,-78.08 737.44,-84.87"/>
</a>
</g>
</g>
<!-- Node17&#45;&gt;Node14 -->
<g id="edge31_Node000017_Node000014" class="edge">
<title>Node17&#45;&gt;Node14</title>
<g id="a_edge31_Node000017_Node000014"><a xlink:title=" ">
<path fill="none" stroke="#63b8ff" d="M594.56,-124.61C609.76,-122.8 625.87,-120.99 640.88,-119.5 845.38,-99.2 897.04,-100.19 1101.88,-83.5 1127.5,-81.41 1155.43,-79.06 1180.64,-76.92"/>
<polygon fill="#63b8ff" stroke="#63b8ff" points="1180.84,-80.41 1190.5,-76.08 1180.24,-73.44 1180.84,-80.41"/>
</a>
</g>
</g>
<!-- Node18 -->
<g id="Node000018" class="node">
<title>Node18</title>
<g id="a_Node000018"><a xlink:title=" ">
<polygon fill="#e0e0e0" stroke="#999999" points="541.5,-78.25 502.25,-78.25 502.25,-59.75 541.5,-59.75 541.5,-78.25"/>
<text text-anchor="middle" x="521.88" y="-64.75" font-family="Helvetica,sans-Serif" font-size="10.00">utility</text>
</a>
</g>
</g>
<!-- Node17&#45;&gt;Node18 -->
<g id="edge28_Node000017_Node000018" class="edge">
<title>Node17&#45;&gt;Node18</title>
<g id="a_edge28_Node000017_Node000018"><a xlink:title=" ">
<path fill="none" stroke="#63b8ff" d="M527.93,-124.5C526.94,-115.62 525.36,-101.38 524.06,-89.68"/>
<polygon fill="#63b8ff" stroke="#63b8ff" points="527.55,-89.42 522.97,-79.87 520.6,-90.19 527.55,-89.42"/>
</a>
</g>
</g>
<!-- Node19&#45;&gt;Node4 -->
<g id="edge35_Node000019_Node000004" class="edge">
<title>Node19&#45;&gt;Node4</title>
<g id="a_edge35_Node000019_Node000004"><a xlink:title=" ">
<path fill="none" stroke="#63b8ff" d="M859.47,-194.31C788.57,-188.65 673.33,-175.52 640.88,-148.5 604.66,-118.35 593.64,-60.26 590.31,-29.87"/>
<polygon fill="#63b8ff" stroke="#63b8ff" points="593.82,-29.85 589.44,-20.21 586.85,-30.48 593.82,-29.85"/>
</a>
</g>
</g>
<!-- Node19&#45;&gt;Node6 -->
<g id="edge37_Node000019_Node000006" class="edge">
<title>Node19&#45;&gt;Node6</title>
<g id="a_edge37_Node000019_Node000006"><a xlink:title=" ">
<path fill="none" stroke="#63b8ff" d="M949.83,-184.04C968.65,-175.26 992.15,-162.88 1010.88,-148.5 1057.9,-112.37 1100.75,-56.14 1120.85,-27.81"/>
<polygon fill="#63b8ff" stroke="#63b8ff" points="1123.47,-30.18 1126.32,-19.97 1117.73,-26.17 1123.47,-30.18"/>
</a>
</g>
</g>
<!-- Node19&#45;&gt;Node7 -->
<g id="edge55_Node000019_Node000007" class="edge">
<title>Node19&#45;&gt;Node7</title>
<g id="a_edge55_Node000019_Node000007"><a xlink:title=" ">
<path fill="none" stroke="#63b8ff" d="M902.28,-184.06C877.29,-160.19 826.45,-111.63 799.9,-86.26"/>
<polygon fill="#63b8ff" stroke="#63b8ff" points="802.64,-84.04 792.99,-79.66 797.8,-89.1 802.64,-84.04"/>
</a>
</g>
</g>
<!-- Node19&#45;&gt;Node9 -->
<g id="edge36_Node000019_Node000009" class="edge">
<title>Node19&#45;&gt;Node9</title>
<g id="a_edge36_Node000019_Node000009"><a xlink:title=" ">
<path fill="none" stroke="#63b8ff" d="M914.92,-184.13C910.38,-156.48 896.82,-93.77 862.88,-54.5 849.76,-39.33 830.11,-28.36 813.57,-21.13"/>
<polygon fill="#63b8ff" stroke="#63b8ff" points="815.23,-18.03 804.64,-17.49 812.58,-24.51 815.23,-18.03"/>
</a>
</g>
</g>
<!-- Node19&#45;&gt;Node10 -->
<g id="edge38_Node000019_Node000010" class="edge">
<title>Node19&#45;&gt;Node10</title>
<g id="a_edge38_Node000019_Node000010"><a xlink:title=" ">
<path fill="none" stroke="#63b8ff" d="M938.74,-184.17C966.28,-165.3 1012.25,-128.61 1030.88,-83.5 1035.79,-71.59 1037.2,-65.73 1030.88,-54.5 1023.05,-40.61 1008.91,-30.58 995.15,-23.62"/>
<polygon fill="#63b8ff" stroke="#63b8ff" points="996.73,-20.49 986.18,-19.51 993.81,-26.86 996.73,-20.49"/>
</a>
</g>
</g>
<!-- Node19&#45;&gt;Node11 -->
<g id="edge56_Node000019_Node000011" class="edge">
<title>Node19&#45;&gt;Node11</title>
<g id="a_edge56_Node000019_Node000011"><a xlink:title=" ">
<path fill="none" stroke="#63b8ff" d="M859.47,-194.57C761.55,-188.29 556.12,-173.28 383.88,-148.5 383.2,-148.4 382.51,-148.3 381.83,-148.2"/>
<polygon fill="#63b8ff" stroke="#63b8ff" points="382.45,-144.76 372.02,-146.63 381.34,-151.67 382.45,-144.76"/>
</a>
</g>
</g>
<!-- Node19&#45;&gt;Node12 -->
<g id="edge57_Node000019_Node000012" class="edge">
<title>Node19&#45;&gt;Node12</title>
<g id="a_edge57_Node000019_Node000012"><a xlink:title=" ">
<path fill="none" stroke="#63b8ff" d="M859.63,-195.17C753.01,-189.35 528.19,-174.37 454.88,-148.5 414.56,-134.27 374.07,-104.4 351.36,-85.88"/>
<polygon fill="#63b8ff" stroke="#63b8ff" points="353.85,-83.41 343.93,-79.69 349.37,-88.78 353.85,-83.41"/>
</a>
</g>
</g>
<!-- Node19&#45;&gt;Node14 -->
<g id="edge58_Node000019_Node000014" class="edge">
<title>Node19&#45;&gt;Node14</title>
<g id="a_edge58_Node000019_Node000014"><a xlink:title=" ">
<path fill="none" stroke="#63b8ff" d="M974.38,-195.9C1054.58,-191.84 1194.49,-180.29 1232.88,-148.5 1250.35,-134.02 1256.93,-107.81 1259.39,-89.68"/>
<polygon fill="#63b8ff" stroke="#63b8ff" points="1262.86,-90.24 1260.39,-79.94 1255.89,-89.53 1262.86,-90.24"/>
</a>
</g>
</g>
<!-- Node19&#45;&gt;Node15 -->
<g id="edge33_Node000019_Node000015" class="edge">
<title>Node19&#45;&gt;Node15</title>
<g id="a_edge33_Node000019_Node000015"><a xlink:title=" ">
<path fill="none" stroke="#63b8ff" d="M974.4,-195.3C1084.05,-189.58 1314.3,-174.57 1338.88,-148.5 1369.03,-116.51 1360.19,-59.67 1352.67,-29.82"/>
<polygon fill="#63b8ff" stroke="#63b8ff" points="1356.08,-29 1350.05,-20.28 1349.33,-30.85 1356.08,-29"/>
</a>
</g>
</g>
<!-- Node20 -->
<g id="Node000020" class="node">
<title>Node20</title>
<g id="a_Node000020"><a xlink:title=" ">
<polygon fill="#e0e0e0" stroke="#999999" points="1329.38,-143.25 1280.38,-143.25 1280.38,-124.75 1329.38,-124.75 1329.38,-143.25"/>
<text text-anchor="middle" x="1304.88" y="-129.75" font-family="Helvetica,sans-Serif" font-size="10.00">fstream</text>
</a>
</g>
</g>
<!-- Node19&#45;&gt;Node20 -->
<g id="edge34_Node000019_Node000020" class="edge">
<title>Node19&#45;&gt;Node20</title>
<g id="a_edge34_Node000019_Node000020"><a xlink:title=" ">
<path fill="none" stroke="#63b8ff" d="M974.33,-193.27C1044.03,-186.74 1164.75,-172.93 1265.88,-148.5 1267.61,-148.08 1269.38,-147.61 1271.16,-147.12"/>
<polygon fill="#63b8ff" stroke="#63b8ff" points="1272.04,-150.5 1280.55,-144.19 1269.96,-143.82 1272.04,-150.5"/>
</a>
</g>
</g>
<!-- Node21 -->
<g id="Node000021" class="node">
<title>Node21</title>
<g id="a_Node000021"><a xlink:href="cuda__utils_8h.html" target="_top" xlink:title="Utility functions for CUDA.">
<polygon fill="white" stroke="#666666" points="1022.25,-83.5 909.5,-83.5 909.5,-54.5 1022.25,-54.5 1022.25,-83.5"/>
<text text-anchor="start" x="917.5" y="-70" font-family="Helvetica,sans-Serif" font-size="10.00">CoverageControl/cuda</text>
<text text-anchor="middle" x="965.88" y="-59.5" font-family="Helvetica,sans-Serif" font-size="10.00">_utils.h</text>
</a>
</g>
</g>
<!-- Node19&#45;&gt;Node21 -->
<g id="edge39_Node000019_Node000021" class="edge">
<title>Node19&#45;&gt;Node21</title>
<g id="a_edge39_Node000019_Node000021"><a xlink:title=" ">
<path fill="none" stroke="#63b8ff" d="M922.12,-184.3C930.33,-162.86 946.33,-121.06 956.54,-94.39"/>
<polygon fill="#63b8ff" stroke="#63b8ff" points="959.67,-95.99 959.98,-85.4 953.14,-93.49 959.67,-95.99"/>
</a>
</g>
</g>
<!-- Node23 -->
<g id="Node000023" class="node">
<title>Node23</title>
<g id="a_Node000023"><a xlink:href="bivariate__normal__distribution_8h.html" target="_top" xlink:title="Class for Bivariate Normal Distribution.">
<polygon fill="white" stroke="#666666" points="777.75,-148.5 650,-148.5 650,-119.5 777.75,-119.5 777.75,-148.5"/>
<text text-anchor="start" x="658" y="-135" font-family="Helvetica,sans-Serif" font-size="10.00">CoverageControl/bivariate</text>
<text text-anchor="middle" x="713.88" y="-124.5" font-family="Helvetica,sans-Serif" font-size="10.00">_normal_distribution.h</text>
</a>
</g>
</g>
<!-- Node19&#45;&gt;Node23 -->
<g id="edge46_Node000019_Node000023" class="edge">
<title>Node19&#45;&gt;Node23</title>
<g id="a_edge46_Node000019_Node000023"><a xlink:title=" ">
<path fill="none" stroke="#63b8ff" d="M871.82,-184.02C841.6,-174.64 801.58,-162.22 769.39,-152.23"/>
<polygon fill="#63b8ff" stroke="#63b8ff" points="770.83,-149.01 760.25,-149.39 768.76,-155.7 770.83,-149.01"/>
</a>
</g>
</g>
<!-- Node24 -->
<g id="Node000024" class="node">
<title>Node24</title>
<g id="a_Node000024"><a xlink:href="polygon__utils_8h.html" target="_top" xlink:title="Provides utilities for polygon manipulation using CGAL.">
<polygon fill="white" stroke="#666666" points="1223.75,-148.5 1114,-148.5 1114,-119.5 1223.75,-119.5 1223.75,-148.5"/>
<text text-anchor="start" x="1122" y="-135" font-family="Helvetica,sans-Serif" font-size="10.00">CoverageControl/cgal</text>
<text text-anchor="middle" x="1168.88" y="-124.5" font-family="Helvetica,sans-Serif" font-size="10.00">/polygon_utils.h</text>
</a>
</g>
</g>
<!-- Node19&#45;&gt;Node24 -->
<g id="edge52_Node000019_Node000024" class="edge">
<title>Node19&#45;&gt;Node24</title>
<g id="a_edge52_Node000019_Node000024"><a xlink:title=" ">
<path fill="none" stroke="#63b8ff" d="M972.8,-184.02C1011.11,-174.44 1062.08,-161.7 1102.45,-151.61"/>
<polygon fill="#63b8ff" stroke="#63b8ff" points="1103.22,-155.02 1112.07,-149.2 1101.52,-148.23 1103.22,-155.02"/>
</a>
</g>
</g>
<!-- Node21&#45;&gt;Node4 -->
<g id="edge40_Node000021_Node000004" class="edge">
<title>Node21&#45;&gt;Node4</title>
<g id="a_edge40_Node000021_Node000004"><a xlink:title=" ">
<path fill="none" stroke="#63b8ff" d="M909.03,-59.29C831.21,-47.37 693.62,-26.29 627.05,-16.1"/>
<polygon fill="#63b8ff" stroke="#63b8ff" points="627.77,-12.67 617.36,-14.61 626.71,-19.59 627.77,-12.67"/>
</a>
</g>
</g>
<!-- Node21&#45;&gt;Node6 -->
<g id="edge44_Node000021_Node000006" class="edge">
<title>Node21&#45;&gt;Node6</title>
<g id="a_edge44_Node000021_Node000006"><a xlink:title=" ">
<path fill="none" stroke="#63b8ff" d="M1006.3,-54.02C1035.36,-43.97 1074,-30.61 1100.91,-21.3"/>
<polygon fill="#63b8ff" stroke="#63b8ff" points="1101.92,-24.66 1110.23,-18.08 1099.64,-18.04 1101.92,-24.66"/>
</a>
</g>
</g>
<!-- Node21&#45;&gt;Node8 -->
<g id="edge41_Node000021_Node000008" class="edge">
<title>Node21&#45;&gt;Node8</title>
<g id="a_edge41_Node000021_Node000008"><a xlink:title=" ">
<path fill="none" stroke="#63b8ff" d="M936.83,-54.02C917.81,-44.87 893.08,-32.97 874.2,-23.88"/>
<polygon fill="#63b8ff" stroke="#63b8ff" points="875.75,-20.74 865.22,-19.56 872.71,-27.05 875.75,-20.74"/>
</a>
</g>
</g>
<!-- Node21&#45;&gt;Node9 -->
<g id="edge43_Node000021_Node000009" class="edge">
<title>Node21&#45;&gt;Node9</title>
<g id="a_edge43_Node000021_Node000009"><a xlink:title=" ">
<path fill="none" stroke="#63b8ff" d="M921.58,-54.02C888.33,-43.53 843.64,-29.43 814.08,-20.1"/>
<polygon fill="#63b8ff" stroke="#63b8ff" points="815.2,-16.78 804.61,-17.11 813.1,-23.46 815.2,-16.78"/>
</a>
</g>
</g>
<!-- Node21&#45;&gt;Node10 -->
<g id="edge45_Node000021_Node000010" class="edge">
<title>Node21&#45;&gt;Node10</title>
<g id="a_edge45_Node000021_Node000010"><a xlink:title=" ">
<path fill="none" stroke="#63b8ff" d="M963.94,-54.02C962.94,-46.83 961.71,-37.96 960.62,-30.08"/>
<polygon fill="#63b8ff" stroke="#63b8ff" points="964.12,-29.83 959.28,-20.4 957.19,-30.79 964.12,-29.83"/>
</a>
</g>
</g>
<!-- Node22 -->
<g id="Node000022" class="node">
<title>Node22</title>
<g id="a_Node000022"><a xlink:title=" ">
<polygon fill="#e0e0e0" stroke="#999999" points="1091.5,-18.5 1040.25,-18.5 1040.25,0 1091.5,0 1091.5,-18.5"/>
<text text-anchor="middle" x="1065.88" y="-5" font-family="Helvetica,sans-Serif" font-size="10.00">sstream</text>
</a>
</g>
</g>
<!-- Node21&#45;&gt;Node22 -->
<g id="edge42_Node000021_Node000022" class="edge">
<title>Node21&#45;&gt;Node22</title>
<g id="a_edge42_Node000021_Node000022"><a xlink:title=" ">
<path fill="none" stroke="#63b8ff" d="M990.08,-54.02C1005.49,-45.12 1025.39,-33.63 1040.93,-24.65"/>
<polygon fill="#63b8ff" stroke="#63b8ff" points="1042.67,-27.69 1049.58,-19.66 1039.17,-21.63 1042.67,-27.69"/>
</a>
</g>
</g>
<!-- Node23&#45;&gt;Node3 -->
<g id="edge47_Node000023_Node000003" class="edge">
<title>Node23&#45;&gt;Node3</title>
<g id="a_edge47_Node000023_Node000003"><a xlink:title=" ">
<path fill="none" stroke="#63b8ff" d="M690.78,-119.03C660.01,-101.09 603.33,-70.38 550.88,-54.5 440.49,-21.08 407.8,-36.47 293.88,-18.5 289.4,-17.79 284.69,-17.01 280.05,-16.22"/>
<polygon fill="#63b8ff" stroke="#63b8ff" points="280.79,-12.8 270.34,-14.53 279.59,-19.69 280.79,-12.8"/>
</a>
</g>
</g>
<!-- Node23&#45;&gt;Node4 -->
<g id="edge48_Node000023_Node000004" class="edge">
<title>Node23&#45;&gt;Node4</title>
<g id="a_edge48_Node000023_Node000004"><a xlink:title=" ">
<path fill="none" stroke="#63b8ff" d="M706.73,-119.25C697.55,-102.5 680.32,-74.04 659.88,-54.5 647.32,-42.5 631.02,-32.06 617.19,-24.34"/>
<polygon fill="#63b8ff" stroke="#63b8ff" points="619.01,-21.35 608.55,-19.7 615.7,-27.51 619.01,-21.35"/>
</a>
</g>
</g>
<!-- Node23&#45;&gt;Node7 -->
<g id="edge49_Node000023_Node000007" class="edge">
<title>Node23&#45;&gt;Node7</title>
<g id="a_edge49_Node000023_Node000007"><a xlink:title=" ">
<path fill="none" stroke="#63b8ff" d="M729.19,-119.02C739.73,-109.39 753.79,-96.56 764.87,-86.44"/>
<polygon fill="#63b8ff" stroke="#63b8ff" points="767.2,-89.05 772.22,-79.73 762.48,-83.88 767.2,-89.05"/>
</a>
</g>
</g>
<!-- Node23&#45;&gt;Node12 -->
<g id="edge50_Node000023_Node000012" class="edge">
<title>Node23&#45;&gt;Node12</title>
<g id="a_edge50_Node000023_Node000012"><a xlink:title=" ">
<path fill="none" stroke="#63b8ff" d="M649.67,-122.38C579.36,-110.76 467.27,-92.22 396.99,-80.6"/>
<polygon fill="#63b8ff" stroke="#63b8ff" points="397.59,-77.15 387.15,-78.98 396.45,-84.06 397.59,-77.15"/>
</a>
</g>
</g>
<!-- Node23&#45;&gt;Node14 -->
<g id="edge51_Node000023_Node000014" class="edge">
<title>Node23&#45;&gt;Node14</title>
<g id="a_edge51_Node000023_Node000014"><a xlink:title=" ">
<path fill="none" stroke="#63b8ff" d="M778.23,-125.59C878.47,-114.04 1071.68,-91.79 1180.78,-79.22"/>
<polygon fill="#63b8ff" stroke="#63b8ff" points="1181.01,-82.72 1190.54,-78.1 1180.21,-75.77 1181.01,-82.72"/>
</a>
</g>
</g>
<!-- Node24&#45;&gt;Node6 -->
<g id="edge53_Node000024_Node000006" class="edge">
<title>Node24&#45;&gt;Node6</title>
<g id="a_edge53_Node000024_Node000006"><a xlink:title=" ">
<path fill="none" stroke="#63b8ff" d="M1164.88,-119.39C1158.5,-97.61 1145.94,-54.8 1138.6,-29.76"/>
<polygon fill="#63b8ff" stroke="#63b8ff" points="1141.97,-28.84 1135.8,-20.23 1135.26,-30.81 1141.97,-28.84"/>
</a>
</g>
</g>
<!-- Node24&#45;&gt;Node14 -->
<g id="edge54_Node000024_Node000014" class="edge">
<title>Node24&#45;&gt;Node14</title>
<g id="a_edge54_Node000024_Node000014"><a xlink:title=" ">
<path fill="none" stroke="#63b8ff" d="M1189.29,-119.02C1204.06,-108.91 1223.98,-95.27 1239.06,-84.94"/>
<polygon fill="#63b8ff" stroke="#63b8ff" points="1240.64,-88.1 1246.91,-79.56 1236.68,-82.32 1240.64,-88.1"/>
</a>
</g>
</g>
</g>
</svg>

<g id="navigator" transform="translate(0 0)" fill="#404254">
  <rect fill="#f2f5e9" fill-opacity="0.5" stroke="#606060" stroke-width=".5" x="0" y="0" width="60" height="60"/>
  <use id="zoomplus" xlink:href="#zoomPlus" x="17" y="9" onmousedown="handleZoom(evt,'in')"/>
  <use id="zoomminus" xlink:href="#zoomMin" x="42" y="9" onmousedown="handleZoom(evt,'out')"/>
  <use id="reset" xlink:href="#resetDef" x="30" y="36" onmousedown="handleReset()"/>
   <use id="arrowup" xlink:href="#arrowUp" x="0" y="0" onmousedown="handlePan(0,-1)"/>
  <use id="arrowright" xlink:href="#arrowRight" x="0" y="0" onmousedown="handlePan(1,0)"/>
  <use id="arrowdown" xlink:href="#arrowDown" x="0" y="0" onmousedown="handlePan(0,1)"/>
  <use id="arrowleft" xlink:href="#arrowLeft" x="0" y="0" onmousedown="handlePan(-1,0)"/>
</g>
<svg viewBox="0 0 15 15" width="100%" height="30px" preserveAspectRatio="xMaxYMin meet">
 <g id="arrow_out" transform="scale(0.3 0.3)">
  <a xlink:href="robot__model_8h__incl_org.svg" target="_base">
   <rect id="button" ry="5" rx="5" y="6" x="6" height="38" width="38"
        fill="#f2f5e9" fill-opacity="0.5" stroke="#606060" stroke-width="1.0"/>
   <path id="arrow"
     d="M 11.500037,31.436501 C 11.940474,20.09759 22.043105,11.32322 32.158766,21.979434 L 37.068811,17.246167 C 37.068811,17.246167 37.088388,32 37.088388,32 L 22.160133,31.978069 C 22.160133,31.978069 26.997745,27.140456 26.997745,27.140456 C 18.528582,18.264221 13.291696,25.230495 11.500037,31.436501 z"
     style="fill:#404040;"/>
  </a>
 </g>
</svg>

<style type='text/css'>
<![CDATA[
[data-mouse-over-selected='false'] { opacity: 0.7; }
[data-mouse-over-selected='true']  { opacity: 1.0; }
]]>
</style>
<script type="application/ecmascript"><![CDATA[
document.addEventListener('DOMContentLoaded', (event) => {
  highlightEdges();
  highlightAdjacentNodes();
});
]]></script>
</svg>
