<?xml version="1.0" encoding="UTF-8" standalone="no"?>
<!DOCTYPE svg PUBLIC "-//W3C//DTD SVG 1.1//EN"
 "http://www.w3.org/Graphics/SVG/1.1/DTD/svg11.dtd">
<!-- Generated by graphviz version 10.0.1 (0)
 -->
<!-- Title: robot_model.h Pages: 1 -->
<svg width="921pt" height="310pt"
 viewBox="0.00 0.00 920.82 309.50" xmlns="http://www.w3.org/2000/svg" xmlns:xlink="http://www.w3.org/1999/xlink">
<g id="graph0" class="graph" transform="scale(1 1) rotate(0) translate(4 305.5)">
<title>robot_model.h</title>
<!-- Node1 -->
<g id="Node000001" class="node">
<title>Node1</title>
<g id="a_Node000001"><a xlink:title="Class for handling the robot model.">
<polygon fill="#999999" stroke="#666666" points="728.87,-301.5 651.37,-301.5 651.37,-283 728.87,-283 728.87,-301.5"/>
<text text-anchor="middle" x="690.12" y="-288" font-family="Helvetica,sans-Serif" font-size="10.00">robot_model.h</text>
</a>
</g>
</g>
<!-- Node2 -->
<g id="Node000002" class="node">
<title>Node2</title>
<g id="a_Node000002"><a xlink:href="core__binds_8h.html" target="_top" xlink:title="Provides python bindings for the core CoverageControl library using pybind11.">
<polygon fill="white" stroke="#666666" points="555.87,-73 484.37,-73 484.37,-54.5 555.87,-54.5 555.87,-73"/>
<text text-anchor="middle" x="520.12" y="-59.5" font-family="Helvetica,sans-Serif" font-size="10.00">core_binds.h</text>
</a>
</g>
</g>
<!-- Node1&#45;&gt;Node2 -->
<g id="edge1_Node000001_Node000002" class="edge">
<title>Node1&#45;&gt;Node2</title>
<g id="a_edge1_Node000001_Node000002"><a xlink:title=" ">
<path fill="none" stroke="#63b8ff" d="M725.68,-278.87C800.38,-251.06 961.69,-180.45 898.12,-109 875.58,-83.67 646.2,-70.51 556.13,-66.29"/>
<polygon fill="#63b8ff" stroke="#63b8ff" points="724.93,-275.42 716.74,-282.14 727.33,-281.99 724.93,-275.42"/>
</a>
</g>
</g>
<!-- Node4 -->
<g id="Node000004" class="node">
<title>Node4</title>
<g id="a_Node000004"><a xlink:href="coverage__system_8h.html" target="_top" xlink:title="The file contains the CoverageSystem class, which is the main class for the coverage control library.">
<polygon fill="white" stroke="#666666" points="506.74,-247 407.49,-247 407.49,-228.5 506.74,-228.5 506.74,-247"/>
<text text-anchor="middle" x="457.12" y="-233.5" font-family="Helvetica,sans-Serif" font-size="10.00">coverage_system.h</text>
</a>
</g>
</g>
<!-- Node1&#45;&gt;Node4 -->
<g id="edge3_Node000001_Node000004" class="edge">
<title>Node1&#45;&gt;Node4</title>
<g id="a_edge3_Node000001_Node000004"><a xlink:title=" ">
<path fill="none" stroke="#63b8ff" d="M640.28,-280.02C597.11,-270.29 535.54,-256.42 495.95,-247.5"/>
<polygon fill="#63b8ff" stroke="#63b8ff" points="639.38,-283.41 649.9,-282.19 640.92,-276.58 639.38,-283.41"/>
</a>
</g>
</g>
<!-- Node3 -->
<g id="Node000003" class="node">
<title>Node3</title>
<g id="a_Node000003"><a xlink:href="python__binds_8cpp.html" target="_top" xlink:title="Python bindings for the CoverageControl library using pybind11 (core_binds.h)">
<polygon fill="white" stroke="#666666" points="262.37,-18.5 169.87,-18.5 169.87,0 262.37,0 262.37,-18.5"/>
<text text-anchor="middle" x="216.12" y="-5" font-family="Helvetica,sans-Serif" font-size="10.00">python_binds.cpp</text>
</a>
</g>
</g>
<!-- Node2&#45;&gt;Node3 -->
<g id="edge2_Node000002_Node000003" class="edge">
<title>Node2&#45;&gt;Node3</title>
<g id="a_edge2_Node000002_Node000003"><a xlink:title=" ">
<path fill="none" stroke="#63b8ff" d="M472.79,-54.58C415.54,-44.69 319.78,-28.15 262.82,-18.32"/>
<polygon fill="#63b8ff" stroke="#63b8ff" points="472.11,-58.01 482.56,-56.26 473.3,-51.11 472.11,-58.01"/>
</a>
</g>
</g>
<!-- Node4&#45;&gt;Node2 -->
<g id="edge22_Node000004_Node000002" class="edge">
<title>Node4&#45;&gt;Node2</title>
<g id="a_edge22_Node000004_Node000002"><a xlink:title=" ">
<path fill="none" stroke="#63b8ff" d="M518.1,-231.67C624.37,-221.41 836.45,-194.26 881.12,-138 889.13,-127.91 889.66,-118.65 881.12,-109 859.78,-84.88 643.21,-71.1 556.11,-66.5"/>
<polygon fill="#63b8ff" stroke="#63b8ff" points="518.06,-228.16 508.43,-232.58 518.71,-235.13 518.06,-228.16"/>
</a>
</g>
</g>
<!-- Node4&#45;&gt;Node3 -->
<g id="edge29_Node000004_Node000003" class="edge">
<title>Node4&#45;&gt;Node3</title>
<g id="a_edge29_Node000004_Node000003"><a xlink:title=" ">
<path fill="none" stroke="#63b8ff" d="M395.89,-233.65C306.49,-228.4 145.09,-215.96 92.12,-192.5 58.26,-177.51 48.9,-169.29 29.12,-138 8.83,-105.91 -12.73,-84.04 11.12,-54.5 30.67,-30.28 115.57,-18.67 169.79,-13.63"/>
<polygon fill="#63b8ff" stroke="#63b8ff" points="395.52,-237.14 405.71,-234.21 395.92,-230.15 395.52,-237.14"/>
</a>
</g>
</g>
<!-- Node5 -->
<g id="Node000005" class="node">
<title>Node5</title>
<g id="a_Node000005"><a xlink:href="abstract__controller_8h.html" target="_top" xlink:title="Contains the abstract class for coverage control algorithms.">
<polygon fill="white" stroke="#666666" points="509.37,-192.5 404.87,-192.5 404.87,-174 509.37,-174 509.37,-192.5"/>
<text text-anchor="middle" x="457.12" y="-179" font-family="Helvetica,sans-Serif" font-size="10.00">abstract_controller.h</text>
</a>
</g>
</g>
<!-- Node4&#45;&gt;Node5 -->
<g id="edge4_Node000004_Node000005" class="edge">
<title>Node4&#45;&gt;Node5</title>
<g id="a_edge4_Node000004_Node000005"><a xlink:title=" ">
<path fill="none" stroke="#63b8ff" d="M457.12,-216.64C457.12,-208.36 457.12,-199.21 457.12,-192.76"/>
<polygon fill="#63b8ff" stroke="#63b8ff" points="453.62,-216.57 457.12,-226.57 460.62,-216.57 453.62,-216.57"/>
</a>
</g>
</g>
<!-- Node6 -->
<g id="Node000006" class="node">
<title>Node6</title>
<g id="a_Node000006"><a xlink:href="centralized__cvt_8h.html" target="_top" xlink:title="Contains the class CentralizedCVT.">
<polygon fill="white" stroke="#666666" points="754.49,-132.75 665.74,-132.75 665.74,-114.25 754.49,-114.25 754.49,-132.75"/>
<text text-anchor="middle" x="710.12" y="-119.25" font-family="Helvetica,sans-Serif" font-size="10.00">centralized_cvt.h</text>
</a>
</g>
</g>
<!-- Node4&#45;&gt;Node6 -->
<g id="edge20_Node000004_Node000006" class="edge">
<title>Node4&#45;&gt;Node6</title>
<g id="a_edge20_Node000004_Node000006"><a xlink:title=" ">
<path fill="none" stroke="#63b8ff" d="M486.85,-223.56C539.23,-200.32 646.59,-152.69 690.62,-133.15"/>
<polygon fill="#63b8ff" stroke="#63b8ff" points="485.65,-220.26 477.93,-227.51 488.49,-226.66 485.65,-220.26"/>
</a>
</g>
</g>
<!-- Node7 -->
<g id="Node000007" class="node">
<title>Node7</title>
<g id="a_Node000007"><a xlink:href="clairvoyant__cvt_8h.html" target="_top" xlink:title="Clairvoyant CVT algorithm.">
<polygon fill="white" stroke="#666666" points="134.49,-132.75 45.74,-132.75 45.74,-114.25 134.49,-114.25 134.49,-132.75"/>
<text text-anchor="middle" x="90.12" y="-119.25" font-family="Helvetica,sans-Serif" font-size="10.00">clairvoyant_cvt.h</text>
</a>
</g>
</g>
<!-- Node4&#45;&gt;Node7 -->
<g id="edge21_Node000004_Node000007" class="edge">
<title>Node4&#45;&gt;Node7</title>
<g id="a_edge21_Node000004_Node000007"><a xlink:title=" ">
<path fill="none" stroke="#63b8ff" d="M395.91,-228.75C350.51,-221.82 287.5,-210.11 234.12,-192.5 185.02,-176.31 130.81,-147.49 105.16,-133.13"/>
<polygon fill="#63b8ff" stroke="#63b8ff" points="395.16,-232.17 405.56,-230.18 396.19,-225.25 395.16,-232.17"/>
</a>
</g>
</g>
<!-- Node8 -->
<g id="Node000008" class="node">
<title>Node8</title>
<g id="a_Node000008"><a xlink:href="coverage__algorithm_8cpp.html" target="_top" xlink:title="Program to test the CVT&#45;based (Lloyd&#39;s) coverage control algorithms.">
<polygon fill="white" stroke="#666666" points="138.49,-73 19.74,-73 19.74,-54.5 138.49,-54.5 138.49,-73"/>
<text text-anchor="middle" x="79.12" y="-59.5" font-family="Helvetica,sans-Serif" font-size="10.00">coverage_algorithm.cpp</text>
</a>
</g>
</g>
<!-- Node4&#45;&gt;Node8 -->
<g id="edge23_Node000004_Node000008" class="edge">
<title>Node4&#45;&gt;Node8</title>
<g id="a_edge23_Node000004_Node000008"><a xlink:title=" ">
<path fill="none" stroke="#63b8ff" d="M396.02,-232.08C289.66,-222.49 77.9,-196.35 37.12,-138 21.58,-115.77 50.43,-87.42 67.63,-73.4"/>
<polygon fill="#63b8ff" stroke="#63b8ff" points="395.43,-235.55 405.7,-232.94 396.05,-228.57 395.43,-235.55"/>
</a>
</g>
</g>
<!-- Node9 -->
<g id="Node000009" class="node">
<title>Node9</title>
<g id="a_Node000009"><a xlink:href="decentralized__cvt_8h.html" target="_top" xlink:title="Contains the DecentralizedCVT class.">
<polygon fill="white" stroke="#666666" points="871.74,-132.75 772.49,-132.75 772.49,-114.25 871.74,-114.25 871.74,-132.75"/>
<text text-anchor="middle" x="822.12" y="-119.25" font-family="Helvetica,sans-Serif" font-size="10.00">decentralized_cvt.h</text>
</a>
</g>
</g>
<!-- Node4&#45;&gt;Node9 -->
<g id="edge25_Node000004_Node000009" class="edge">
<title>Node4&#45;&gt;Node9</title>
<g id="a_edge25_Node000004_Node000009"><a xlink:title=" ">
<path fill="none" stroke="#63b8ff" d="M496.15,-224.75C570.11,-202 729.05,-153.12 793.8,-133.21"/>
<polygon fill="#63b8ff" stroke="#63b8ff" points="495.43,-221.31 486.9,-227.59 497.49,-228 495.43,-221.31"/>
</a>
</g>
</g>
<!-- Node10 -->
<g id="Node000010" class="node">
<title>Node10</title>
<g id="a_Node000010"><a xlink:href="near__optimal__cvt_8h.html" target="_top" xlink:title="NearOptimalCVT class Global offline oracle: has complete information about the environment....">
<polygon fill="white" stroke="#666666" points="249.99,-132.75 152.24,-132.75 152.24,-114.25 249.99,-114.25 249.99,-132.75"/>
<text text-anchor="middle" x="201.12" y="-119.25" font-family="Helvetica,sans-Serif" font-size="10.00">near_optimal_cvt.h</text>
</a>
</g>
</g>
<!-- Node4&#45;&gt;Node10 -->
<g id="edge26_Node000004_Node000010" class="edge">
<title>Node4&#45;&gt;Node10</title>
<g id="a_edge26_Node000004_Node000010"><a xlink:title=" ">
<path fill="none" stroke="#63b8ff" d="M395.96,-232.95C355.08,-228.12 301.42,-217.18 260.12,-192.5 234.89,-177.43 214.9,-147.82 206.05,-133.15"/>
<polygon fill="#63b8ff" stroke="#63b8ff" points="395.57,-236.43 405.89,-234.02 396.32,-229.47 395.57,-236.43"/>
</a>
</g>
</g>
<!-- Node11 -->
<g id="Node000011" class="node">
<title>Node11</title>
<g id="a_Node000011"><a xlink:href="oracle__bang__explore__exploit_8h.html" target="_top" xlink:title="First trial of oracle with exploration and exploitation. The oracle uses complete information about t...">
<polygon fill="white" stroke="#666666" points="373.74,-138 268.49,-138 268.49,-109 373.74,-109 373.74,-138"/>
<text text-anchor="start" x="276.49" y="-124.5" font-family="Helvetica,sans-Serif" font-size="10.00">oracle_bang_explore</text>
<text text-anchor="middle" x="321.12" y="-114" font-family="Helvetica,sans-Serif" font-size="10.00">_exploit.h</text>
</a>
</g>
</g>
<!-- Node4&#45;&gt;Node11 -->
<g id="edge27_Node000004_Node000011" class="edge">
<title>Node4&#45;&gt;Node11</title>
<g id="a_edge27_Node000004_Node000011"><a xlink:title=" ">
<path fill="none" stroke="#63b8ff" d="M396,-230.61C347.02,-224.28 283.95,-212.47 268.12,-192.5 253.33,-173.85 277.36,-152.14 297.69,-138.36"/>
<polygon fill="#63b8ff" stroke="#63b8ff" points="395.31,-234.05 405.66,-231.81 396.17,-227.11 395.31,-234.05"/>
</a>
</g>
</g>
<!-- Node12 -->
<g id="Node000012" class="node">
<title>Node12</title>
<g id="a_Node000012"><a xlink:href="oracle__explore__exploit_8h.html" target="_top" xlink:title="Old trial of exploration and exploitation Uses system map for exploration as well.">
<polygon fill="white" stroke="#666666" points="512.24,-132.75 391.99,-132.75 391.99,-114.25 512.24,-114.25 512.24,-132.75"/>
<text text-anchor="middle" x="452.12" y="-119.25" font-family="Helvetica,sans-Serif" font-size="10.00">oracle_explore_exploit.h</text>
</a>
</g>
</g>
<!-- Node4&#45;&gt;Node12 -->
<g id="edge28_Node000004_Node000012" class="edge">
<title>Node4&#45;&gt;Node12</title>
<g id="a_edge28_Node000004_Node000012"><a xlink:title=" ">
<path fill="none" stroke="#63b8ff" d="M486.95,-222.8C506.97,-211.32 528,-193.76 518.12,-174 508.57,-154.91 487.78,-141.27 472.07,-133.21"/>
<polygon fill="#63b8ff" stroke="#63b8ff" points="485.57,-219.58 478.39,-227.37 488.86,-225.75 485.57,-219.58"/>
</a>
</g>
</g>
<!-- Node13 -->
<g id="Node000013" class="node">
<title>Node13</title>
<g id="a_Node000013"><a xlink:href="simul__explore__exploit_8h.html" target="_top" xlink:title="Simultaneous exploration and exploitation algorithm Uses frontier&#45;based exploration with bias towards...">
<polygon fill="white" stroke="#666666" points="647.74,-132.75 530.49,-132.75 530.49,-114.25 647.74,-114.25 647.74,-132.75"/>
<text text-anchor="middle" x="589.12" y="-119.25" font-family="Helvetica,sans-Serif" font-size="10.00">simul_explore_exploit.h</text>
</a>
</g>
</g>
<!-- Node4&#45;&gt;Node13 -->
<g id="edge30_Node000004_Node000013" class="edge">
<title>Node4&#45;&gt;Node13</title>
<g id="a_edge30_Node000004_Node000013"><a xlink:title=" ">
<path fill="none" stroke="#63b8ff" d="M486.3,-222.89C501.14,-215.09 518.98,-204.52 533.12,-192.5 554.79,-174.08 574.53,-146.53 583.71,-132.84"/>
<polygon fill="#63b8ff" stroke="#63b8ff" points="484.8,-219.73 477.47,-227.38 487.97,-225.97 484.8,-219.73"/>
</a>
</g>
</g>
<!-- Node14 -->
<g id="Node000014" class="node">
<title>Node14</title>
<g id="a_Node000014"><a xlink:href="coverage__system_8cpp.html" target="_top" xlink:title="Contains the implementation of the CoverageSystem class.">
<polygon fill="white" stroke="#666666" points="386.99,-192.5 277.24,-192.5 277.24,-174 386.99,-174 386.99,-192.5"/>
<text text-anchor="middle" x="332.12" y="-179" font-family="Helvetica,sans-Serif" font-size="10.00">coverage_system.cpp</text>
</a>
</g>
</g>
<!-- Node4&#45;&gt;Node14 -->
<g id="edge24_Node000004_Node000014" class="edge">
<title>Node4&#45;&gt;Node14</title>
<g id="a_edge24_Node000004_Node000014"><a xlink:title=" ">
<path fill="none" stroke="#63b8ff" d="M425.94,-223.66C403.09,-214.06 372.7,-201.3 352.79,-192.93"/>
<polygon fill="#63b8ff" stroke="#63b8ff" points="424.5,-226.85 435.08,-227.49 427.21,-220.4 424.5,-226.85"/>
</a>
</g>
</g>
<!-- Node5&#45;&gt;Node6 -->
<g id="edge5_Node000005_Node000006" class="edge">
<title>Node5&#45;&gt;Node6</title>
<g id="a_edge5_Node000005_Node000006"><a xlink:title=" ">
<path fill="none" stroke="#63b8ff" d="M509.38,-171.16C549.79,-162.47 607.1,-149.9 657.12,-138 663.4,-136.51 670.08,-134.85 676.51,-133.23"/>
<polygon fill="#63b8ff" stroke="#63b8ff" points="508.71,-167.72 499.67,-173.24 510.18,-174.57 508.71,-167.72"/>
</a>
</g>
</g>
<!-- Node5&#45;&gt;Node7 -->
<g id="edge7_Node000005_Node000007" class="edge">
<title>Node5&#45;&gt;Node7</title>
<g id="a_edge7_Node000005_Node000007"><a xlink:title=" ">
<path fill="none" stroke="#63b8ff" d="M393.19,-173.42C304.95,-161.21 155.24,-140.39 143.12,-138 136.22,-136.64 128.89,-134.94 121.94,-133.21"/>
<polygon fill="#63b8ff" stroke="#63b8ff" points="392.54,-176.87 402.92,-174.77 393.5,-169.93 392.54,-176.87"/>
</a>
</g>
</g>
<!-- Node5&#45;&gt;Node9 -->
<g id="edge10_Node000005_Node000009" class="edge">
<title>Node5&#45;&gt;Node9</title>
<g id="a_edge10_Node000005_Node000009"><a xlink:title=" ">
<path fill="none" stroke="#63b8ff" d="M521.03,-174.55C583.11,-166.7 679.91,-153.51 763.12,-138 770.55,-136.61 778.47,-134.94 786.02,-133.25"/>
<polygon fill="#63b8ff" stroke="#63b8ff" points="520.84,-171.04 511.35,-175.76 521.71,-177.99 520.84,-171.04"/>
</a>
</g>
</g>
<!-- Node5&#45;&gt;Node10 -->
<g id="edge12_Node000005_Node000010" class="edge">
<title>Node5&#45;&gt;Node10</title>
<g id="a_edge12_Node000005_Node000010"><a xlink:title=" ">
<path fill="none" stroke="#63b8ff" d="M406.58,-171.08C366.55,-162.21 309.23,-149.43 259.12,-138 252.36,-136.46 245.17,-134.8 238.23,-133.19"/>
<polygon fill="#63b8ff" stroke="#63b8ff" points="405.65,-174.46 416.17,-173.21 407.16,-167.63 405.65,-174.46"/>
</a>
</g>
</g>
<!-- Node5&#45;&gt;Node11 -->
<g id="edge14_Node000005_Node000011" class="edge">
<title>Node5&#45;&gt;Node11</title>
<g id="a_edge14_Node000005_Node000011"><a xlink:title=" ">
<path fill="none" stroke="#63b8ff" d="M426.22,-169.13C404.69,-159.99 376.01,-147.81 354.05,-138.48"/>
<polygon fill="#63b8ff" stroke="#63b8ff" points="424.79,-172.33 435.36,-173.01 427.53,-165.88 424.79,-172.33"/>
</a>
</g>
</g>
<!-- Node5&#45;&gt;Node12 -->
<g id="edge16_Node000005_Node000012" class="edge">
<title>Node5&#45;&gt;Node12</title>
<g id="a_edge16_Node000005_Node000012"><a xlink:title=" ">
<path fill="none" stroke="#63b8ff" d="M455.39,-162.33C454.53,-152.33 453.52,-140.75 452.86,-133.06"/>
<polygon fill="#63b8ff" stroke="#63b8ff" points="451.9,-162.56 456.25,-172.22 458.87,-161.96 451.9,-162.56"/>
</a>
</g>
</g>
<!-- Node5&#45;&gt;Node13 -->
<g id="edge18_Node000005_Node000013" class="edge">
<title>Node5&#45;&gt;Node13</title>
<g id="a_edge18_Node000005_Node000013"><a xlink:title=" ">
<path fill="none" stroke="#63b8ff" d="M487.3,-169.04C512.43,-158.05 547.49,-142.71 569.22,-133.2"/>
<polygon fill="#63b8ff" stroke="#63b8ff" points="486.02,-165.78 478.26,-173 488.83,-172.2 486.02,-165.78"/>
</a>
</g>
</g>
<!-- Node6&#45;&gt;Node2 -->
<g id="edge6_Node000006_Node000002" class="edge">
<title>Node6&#45;&gt;Node2</title>
<g id="a_edge6_Node000006_Node000002"><a xlink:title=" ">
<path fill="none" stroke="#63b8ff" d="M670.97,-110.6C634.6,-99.55 581.3,-83.35 548.76,-73.45"/>
<polygon fill="#63b8ff" stroke="#63b8ff" points="669.64,-113.85 680.22,-113.41 671.67,-107.16 669.64,-113.85"/>
</a>
</g>
</g>
<!-- Node7&#45;&gt;Node2 -->
<g id="edge8_Node000007_Node000002" class="edge">
<title>Node7&#45;&gt;Node2</title>
<g id="a_edge8_Node000007_Node000002"><a xlink:title=" ">
<path fill="none" stroke="#63b8ff" d="M132.24,-111.23C135.91,-110.42 139.57,-109.66 143.12,-109 267.21,-86.02 416.6,-72.66 484.01,-67.38"/>
<polygon fill="#63b8ff" stroke="#63b8ff" points="131.75,-107.75 122.82,-113.46 133.36,-114.56 131.75,-107.75"/>
</a>
</g>
</g>
<!-- Node7&#45;&gt;Node8 -->
<g id="edge9_Node000007_Node000008" class="edge">
<title>Node7&#45;&gt;Node8</title>
<g id="a_edge9_Node000007_Node000008"><a xlink:title=" ">
<path fill="none" stroke="#63b8ff" d="M86.38,-102.91C84.47,-92.84 82.23,-81.08 80.75,-73.31"/>
<polygon fill="#63b8ff" stroke="#63b8ff" points="82.9,-103.32 88.21,-112.49 89.78,-102.01 82.9,-103.32"/>
</a>
</g>
</g>
<!-- Node9&#45;&gt;Node2 -->
<g id="edge11_Node000009_Node000002" class="edge">
<title>Node9&#45;&gt;Node2</title>
<g id="a_edge11_Node000009_Node000002"><a xlink:title=" ">
<path fill="none" stroke="#63b8ff" d="M774.18,-111.34C770.44,-110.53 766.72,-109.74 763.12,-109 689.82,-93.95 603.54,-78.86 556.03,-70.77"/>
<polygon fill="#63b8ff" stroke="#63b8ff" points="773.35,-114.74 783.87,-113.49 774.87,-107.91 773.35,-114.74"/>
</a>
</g>
</g>
<!-- Node10&#45;&gt;Node2 -->
<g id="edge13_Node000010_Node000002" class="edge">
<title>Node10&#45;&gt;Node2</title>
<g id="a_edge13_Node000010_Node000002"><a xlink:title=" ">
<path fill="none" stroke="#63b8ff" d="M248.07,-111.32C251.8,-110.51 255.52,-109.72 259.12,-109 339.09,-92.93 433.64,-77.87 484.1,-70.15"/>
<polygon fill="#63b8ff" stroke="#63b8ff" points="247.4,-107.88 238.41,-113.47 248.93,-114.71 247.4,-107.88"/>
</a>
</g>
</g>
<!-- Node11&#45;&gt;Node2 -->
<g id="edge15_Node000011_Node000002" class="edge">
<title>Node11&#45;&gt;Node2</title>
<g id="a_edge15_Node000011_Node000002"><a xlink:title=" ">
<path fill="none" stroke="#63b8ff" d="M380.2,-105.35C416.31,-94.87 460.99,-81.91 490,-73.49"/>
<polygon fill="#63b8ff" stroke="#63b8ff" points="379.37,-101.95 370.74,-108.1 381.32,-108.67 379.37,-101.95"/>
</a>
</g>
</g>
<!-- Node12&#45;&gt;Node2 -->
<g id="edge17_Node000012_Node000002" class="edge">
<title>Node12&#45;&gt;Node2</title>
<g id="a_edge17_Node000012_Node000002"><a xlink:title=" ">
<path fill="none" stroke="#63b8ff" d="M470.61,-106.79C483.31,-96.01 499.68,-82.11 510.04,-73.31"/>
<polygon fill="#63b8ff" stroke="#63b8ff" points="468.66,-103.86 463.3,-113 473.19,-109.19 468.66,-103.86"/>
</a>
</g>
</g>
<!-- Node13&#45;&gt;Node2 -->
<g id="edge19_Node000013_Node000002" class="edge">
<title>Node13&#45;&gt;Node2</title>
<g id="a_edge19_Node000013_Node000002"><a xlink:title=" ">
<path fill="none" stroke="#63b8ff" d="M570.35,-106.79C557.47,-96.01 540.85,-82.11 530.34,-73.31"/>
<polygon fill="#63b8ff" stroke="#63b8ff" points="567.86,-109.27 577.77,-113.01 572.35,-103.91 567.86,-109.27"/>
</a>
</g>
</g>
</g>
</svg>
