<?xml version="1.0" encoding="UTF-8" standalone="no"?>
<!DOCTYPE svg PUBLIC "-//W3C//DTD SVG 1.1//EN"
 "http://www.w3.org/Graphics/SVG/1.1/DTD/svg11.dtd">
<!-- Generated by graphviz version 10.0.1 (0)
 -->
<!-- Title: typedefs.h Pages: 1 -->
<svg width="1211pt" height="419pt"
 viewBox="0.00 0.00 1210.50 418.50" xmlns="http://www.w3.org/2000/svg" xmlns:xlink="http://www.w3.org/1999/xlink">
<g id="graph0" class="graph" transform="scale(1 1) rotate(0) translate(4 414.5)">
<title>typedefs.h</title>
<!-- Node1 -->
<g id="Node000001" class="node">
<title>Node1</title>
<g id="a_Node000001"><a xlink:title="Contains typedefs for the library.">
<polygon fill="#999999" stroke="#666666" points="611.88,-410.5 550.12,-410.5 550.12,-392 611.88,-392 611.88,-410.5"/>
<text text-anchor="middle" x="581" y="-397" font-family="Helvetica,sans-Serif" font-size="10.00">typedefs.h</text>
</a>
</g>
</g>
<!-- Node2 -->
<g id="Node000002" class="node">
<title>Node2</title>
<g id="a_Node000002"><a xlink:href="abstract__controller_8h.html" target="_top" xlink:title="Contains the abstract class for coverage control algorithms.">
<polygon fill="white" stroke="#666666" points="469.25,-138 364.75,-138 364.75,-119.5 469.25,-119.5 469.25,-138"/>
<text text-anchor="middle" x="417" y="-124.5" font-family="Helvetica,sans-Serif" font-size="10.00">abstract_controller.h</text>
</a>
</g>
</g>
<!-- Node1&#45;&gt;Node2 -->
<g id="edge1_Node000001_Node000002" class="edge">
<title>Node1&#45;&gt;Node2</title>
<g id="a_edge1_Node000001_Node000002"><a xlink:title=" ">
<path fill="none" stroke="#63b8ff" d="M538.41,-400.27C457.53,-399.43 285.86,-393.19 242,-356 219.77,-337.15 223,-322.39 223,-293.25 223,-293.25 223,-293.25 223,-236.75 223,-171.94 307.05,-146.09 364.5,-135.99"/>
<polygon fill="#63b8ff" stroke="#63b8ff" points="538.35,-403.77 548.37,-400.35 538.4,-396.77 538.35,-403.77"/>
</a>
</g>
</g>
<!-- Node3 -->
<g id="Node000003" class="node">
<title>Node3</title>
<g id="a_Node000003"><a xlink:href="centralized__cvt_8h.html" target="_top" xlink:title="Contains the class CentralizedCVT.">
<polygon fill="white" stroke="#666666" points="154.38,-78.25 65.62,-78.25 65.62,-59.75 154.38,-59.75 154.38,-78.25"/>
<text text-anchor="middle" x="110" y="-64.75" font-family="Helvetica,sans-Serif" font-size="10.00">centralized_cvt.h</text>
</a>
</g>
</g>
<!-- Node1&#45;&gt;Node3 -->
<g id="edge28_Node000001_Node000003" class="edge">
<title>Node1&#45;&gt;Node3</title>
<g id="a_edge28_Node000001_Node000003"><a xlink:title=" ">
<path fill="none" stroke="#63b8ff" d="M538.61,-399.96C440.22,-398.66 199.34,-391.82 128,-356 94.33,-339.09 71,-330.93 71,-293.25 71,-293.25 71,-293.25 71,-182.25 71,-141.61 94.09,-97.04 104.74,-78.66"/>
<polygon fill="#63b8ff" stroke="#63b8ff" points="538.33,-403.45 548.37,-400.07 538.41,-396.45 538.33,-403.45"/>
</a>
</g>
</g>
<!-- Node4 -->
<g id="Node000004" class="node">
<title>Node4</title>
<g id="a_Node000004"><a xlink:href="clairvoyant__cvt_8h.html" target="_top" xlink:title="Clairvoyant CVT algorithm.">
<polygon fill="white" stroke="#666666" points="674.38,-78.25 585.62,-78.25 585.62,-59.75 674.38,-59.75 674.38,-78.25"/>
<text text-anchor="middle" x="630" y="-64.75" font-family="Helvetica,sans-Serif" font-size="10.00">clairvoyant_cvt.h</text>
</a>
</g>
</g>
<!-- Node1&#45;&gt;Node4 -->
<g id="edge29_Node000001_Node000004" class="edge">
<title>Node1&#45;&gt;Node4</title>
<g id="a_edge29_Node000001_Node000004"><a xlink:title=" ">
<path fill="none" stroke="#63b8ff" d="M623.16,-399.31C690.54,-395.31 815,-376.65 815,-293.25 815,-293.25 815,-293.25 815,-182.25 815,-153.11 816.65,-140.06 796,-119.5 778.85,-102.42 717.61,-87.24 674.53,-78.33"/>
<polygon fill="#63b8ff" stroke="#63b8ff" points="623.4,-395.79 613.59,-399.79 623.75,-402.78 623.4,-395.79"/>
</a>
</g>
</g>
<!-- Node5 -->
<g id="Node000005" class="node">
<title>Node5</title>
<g id="a_Node000005"><a xlink:href="coverage__algorithm_8cpp.html" target="_top" xlink:title="Program to test the CVT&#45;based (Lloyd&#39;s) coverage control algorithms.">
<polygon fill="white" stroke="#666666" points="357.38,-18.5 238.62,-18.5 238.62,0 357.38,0 357.38,-18.5"/>
<text text-anchor="middle" x="298" y="-5" font-family="Helvetica,sans-Serif" font-size="10.00">coverage_algorithm.cpp</text>
</a>
</g>
</g>
<!-- Node1&#45;&gt;Node5 -->
<g id="edge30_Node000001_Node000005" class="edge">
<title>Node1&#45;&gt;Node5</title>
<g id="a_edge30_Node000001_Node000005"><a xlink:title=" ">
<path fill="none" stroke="#63b8ff" d="M538.54,-399.18C435.16,-396.12 172.89,-385.6 91,-356 44.8,-339.3 0,-342.38 0,-293.25 0,-293.25 0,-293.25 0,-127.75 0,-88.83 15.51,-75.93 48,-54.5 78.54,-34.36 174.59,-21.73 238.35,-15.34"/>
<polygon fill="#63b8ff" stroke="#63b8ff" points="538.16,-402.67 548.25,-399.45 538.36,-395.67 538.16,-402.67"/>
</a>
</g>
</g>
<!-- Node6 -->
<g id="Node000006" class="node">
<title>Node6</title>
<g id="a_Node000006"><a xlink:href="decentralized__cvt_8h.html" target="_top" xlink:title="Contains the DecentralizedCVT class.">
<polygon fill="white" stroke="#666666" points="529.62,-78.25 430.38,-78.25 430.38,-59.75 529.62,-59.75 529.62,-78.25"/>
<text text-anchor="middle" x="480" y="-64.75" font-family="Helvetica,sans-Serif" font-size="10.00">decentralized_cvt.h</text>
</a>
</g>
</g>
<!-- Node1&#45;&gt;Node6 -->
<g id="edge32_Node000001_Node000006" class="edge">
<title>Node1&#45;&gt;Node6</title>
<g id="a_edge32_Node000001_Node000006"><a xlink:title=" ">
<path fill="none" stroke="#63b8ff" d="M538.43,-399.49C455.35,-397.3 275.26,-388.79 224,-356 196.34,-338.31 185,-326.09 185,-293.25 185,-293.25 185,-293.25 185,-182.25 185,-154.37 371.41,-99.88 447.87,-78.71"/>
<polygon fill="#63b8ff" stroke="#63b8ff" points="538.12,-402.99 548.21,-399.73 538.29,-395.99 538.12,-402.99"/>
</a>
</g>
</g>
<!-- Node7 -->
<g id="Node000007" class="node">
<title>Node7</title>
<g id="a_Node000007"><a xlink:href="near__optimal__cvt_8h.html" target="_top" xlink:title="NearOptimalCVT class Global offline oracle: has complete information about the environment....">
<polygon fill="white" stroke="#666666" points="823.88,-78.25 726.12,-78.25 726.12,-59.75 823.88,-59.75 823.88,-78.25"/>
<text text-anchor="middle" x="775" y="-64.75" font-family="Helvetica,sans-Serif" font-size="10.00">near_optimal_cvt.h</text>
</a>
</g>
</g>
<!-- Node1&#45;&gt;Node7 -->
<g id="edge34_Node000001_Node000007" class="edge">
<title>Node1&#45;&gt;Node7</title>
<g id="a_edge34_Node000001_Node000007"><a xlink:title=" ">
<path fill="none" stroke="#63b8ff" d="M623.78,-400.74C671.68,-399.37 749.91,-391.25 806,-356 835.5,-337.46 853,-328.09 853,-293.25 853,-293.25 853,-293.25 853,-182.25 853,-136.45 808.67,-95.91 786.85,-78.73"/>
<polygon fill="#63b8ff" stroke="#63b8ff" points="623.74,-397.24 613.8,-400.92 623.87,-404.24 623.74,-397.24"/>
</a>
</g>
</g>
<!-- Node8 -->
<g id="Node000008" class="node">
<title>Node8</title>
<g id="a_Node000008"><a xlink:href="oracle__bang__explore__exploit_8h.html" target="_top" xlink:title="First trial of oracle with exploration and exploitation. The oracle uses complete information about t...">
<polygon fill="white" stroke="#666666" points="277.62,-83.5 172.38,-83.5 172.38,-54.5 277.62,-54.5 277.62,-83.5"/>
<text text-anchor="start" x="180.38" y="-70" font-family="Helvetica,sans-Serif" font-size="10.00">oracle_bang_explore</text>
<text text-anchor="middle" x="225" y="-59.5" font-family="Helvetica,sans-Serif" font-size="10.00">_exploit.h</text>
</a>
</g>
</g>
<!-- Node1&#45;&gt;Node8 -->
<g id="edge38_Node000001_Node000008" class="edge">
<title>Node1&#45;&gt;Node8</title>
<g id="a_edge38_Node000001_Node000008"><a xlink:title=" ">
<path fill="none" stroke="#63b8ff" d="M538.46,-399.62C445.71,-397.63 228.47,-389.43 164,-356 131.08,-338.93 109,-330.34 109,-293.25 109,-293.25 109,-293.25 109,-182.25 109,-135.17 158.96,-101.54 193.3,-83.98"/>
<polygon fill="#63b8ff" stroke="#63b8ff" points="538.33,-403.12 548.4,-399.82 538.47,-396.12 538.33,-403.12"/>
</a>
</g>
</g>
<!-- Node9 -->
<g id="Node000009" class="node">
<title>Node9</title>
<g id="a_Node000009"><a xlink:href="oracle__explore__exploit_8h.html" target="_top" xlink:title="Old trial of exploration and exploitation Uses system map for exploration as well.">
<polygon fill="white" stroke="#666666" points="979.12,-78.25 858.88,-78.25 858.88,-59.75 979.12,-59.75 979.12,-78.25"/>
<text text-anchor="middle" x="919" y="-64.75" font-family="Helvetica,sans-Serif" font-size="10.00">oracle_explore_exploit.h</text>
</a>
</g>
</g>
<!-- Node1&#45;&gt;Node9 -->
<g id="edge39_Node000001_Node000009" class="edge">
<title>Node1&#45;&gt;Node9</title>
<g id="a_edge39_Node000001_Node000009"><a xlink:title=" ">
<path fill="none" stroke="#63b8ff" d="M623.57,-399.62C739.65,-396.75 1053,-380.88 1053,-293.25 1053,-293.25 1053,-293.25 1053,-182.25 1053,-153.11 1053.41,-141.23 1034,-119.5 1015.03,-98.27 985.36,-85.8 960.91,-78.69"/>
<polygon fill="#63b8ff" stroke="#63b8ff" points="623.77,-396.11 613.85,-399.83 623.92,-403.11 623.77,-396.11"/>
</a>
</g>
</g>
<!-- Node10 -->
<g id="Node000010" class="node">
<title>Node10</title>
<g id="a_Node000010"><a xlink:href="simul__explore__exploit_8h.html" target="_top" xlink:title="Simultaneous exploration and exploitation algorithm Uses frontier&#45;based exploration with bias towards...">
<polygon fill="white" stroke="#666666" points="412.62,-78.25 295.38,-78.25 295.38,-59.75 412.62,-59.75 412.62,-78.25"/>
<text text-anchor="middle" x="354" y="-64.75" font-family="Helvetica,sans-Serif" font-size="10.00">simul_explore_exploit.h</text>
</a>
</g>
</g>
<!-- Node1&#45;&gt;Node10 -->
<g id="edge49_Node000001_Node000010" class="edge">
<title>Node1&#45;&gt;Node10</title>
<g id="a_edge49_Node000001_Node000010"><a xlink:title=" ">
<path fill="none" stroke="#63b8ff" d="M538.35,-399.39C450.94,-396.98 254.79,-388.05 197,-356 165.82,-338.7 147,-328.91 147,-293.25 147,-293.25 147,-293.25 147,-182.25 147,-141.98 269.58,-97.22 326.08,-78.72"/>
<polygon fill="#63b8ff" stroke="#63b8ff" points="538.09,-402.88 548.18,-399.64 538.28,-395.89 538.09,-402.88"/>
</a>
</g>
</g>
<!-- Node11 -->
<g id="Node000011" class="node">
<title>Node11</title>
<g id="a_Node000011"><a xlink:href="bivariate__normal__distribution_8h.html" target="_top" xlink:title="Class for Bivariate Normal Distribution.">
<polygon fill="white" stroke="#666666" points="398.62,-356 251.38,-356 251.38,-337.5 398.62,-337.5 398.62,-356"/>
<text text-anchor="middle" x="325" y="-342.5" font-family="Helvetica,sans-Serif" font-size="10.00">bivariate_normal_distribution.h</text>
</a>
</g>
</g>
<!-- Node1&#45;&gt;Node11 -->
<g id="edge10_Node000001_Node000011" class="edge">
<title>Node1&#45;&gt;Node11</title>
<g id="a_edge10_Node000001_Node000011"><a xlink:title=" ">
<path fill="none" stroke="#63b8ff" d="M538.76,-391.59C491.35,-381.86 414.86,-366.18 367.39,-356.44"/>
<polygon fill="#63b8ff" stroke="#63b8ff" points="537.88,-394.98 548.38,-393.56 539.29,-388.12 537.88,-394.98"/>
</a>
</g>
</g>
<!-- Node12 -->
<g id="Node000012" class="node">
<title>Node12</title>
<g id="a_Node000012"><a xlink:href="coverage__system_8h.html" target="_top" xlink:title="The file contains the CoverageSystem class, which is the main class for the coverage control library.">
<polygon fill="white" stroke="#666666" points="576.62,-192.5 477.38,-192.5 477.38,-174 576.62,-174 576.62,-192.5"/>
<text text-anchor="middle" x="527" y="-179" font-family="Helvetica,sans-Serif" font-size="10.00">coverage_system.h</text>
</a>
</g>
</g>
<!-- Node1&#45;&gt;Node12 -->
<g id="edge31_Node000001_Node000012" class="edge">
<title>Node1&#45;&gt;Node12</title>
<g id="a_edge31_Node000001_Node000012"><a xlink:title=" ">
<path fill="none" stroke="#63b8ff" d="M617.74,-387.39C634.98,-380.09 654.98,-369.64 670,-356 696.5,-331.94 713.85,-317.41 704,-283 696.14,-255.55 692.61,-245.93 670,-228.5 643.14,-207.8 606.5,-196.7 577.04,-190.8"/>
<polygon fill="#63b8ff" stroke="#63b8ff" points="616.81,-384 608.84,-390.97 619.42,-390.49 616.81,-384"/>
</a>
</g>
</g>
<!-- Node14 -->
<g id="Node000014" class="node">
<title>Node14</title>
<g id="a_Node000014"><a xlink:href="world__idf_8h.html" target="_top" xlink:title="Contains the class for Importance Density Function (IDF) for the world.">
<polygon fill="white" stroke="#666666" points="397.88,-301.5 336.12,-301.5 336.12,-283 397.88,-283 397.88,-301.5"/>
<text text-anchor="middle" x="367" y="-288" font-family="Helvetica,sans-Serif" font-size="10.00">world_idf.h</text>
</a>
</g>
</g>
<!-- Node1&#45;&gt;Node14 -->
<g id="edge58_Node000001_Node000014" class="edge">
<title>Node1&#45;&gt;Node14</title>
<g id="a_edge58_Node000001_Node000014"><a xlink:title=" ">
<path fill="none" stroke="#63b8ff" d="M538.89,-390.58C511.44,-383.29 475.39,-371.83 446,-356 417.62,-340.72 389.23,-314.99 375.5,-301.72"/>
<polygon fill="#63b8ff" stroke="#63b8ff" points="537.69,-393.88 548.24,-392.97 539.43,-387.1 537.69,-393.88"/>
</a>
</g>
</g>
<!-- Node15 -->
<g id="Node000015" class="node">
<title>Node15</title>
<g id="a_Node000015"><a xlink:href="robot__model_8h.html" target="_top" xlink:title="Class for handling the robot model.">
<polygon fill="white" stroke="#666666" points="556.75,-247 479.25,-247 479.25,-228.5 556.75,-228.5 556.75,-247"/>
<text text-anchor="middle" x="518" y="-233.5" font-family="Helvetica,sans-Serif" font-size="10.00">robot_model.h</text>
</a>
</g>
</g>
<!-- Node1&#45;&gt;Node15 -->
<g id="edge48_Node000001_Node000015" class="edge">
<title>Node1&#45;&gt;Node15</title>
<g id="a_edge48_Node000001_Node000015"><a xlink:title=" ">
<path fill="none" stroke="#63b8ff" d="M599.87,-384.06C611.84,-371.72 623.88,-354.09 617,-337.5 599.6,-295.57 554.8,-262.21 531.91,-247.27"/>
<polygon fill="#63b8ff" stroke="#63b8ff" points="597.78,-381.22 592.93,-390.64 602.6,-386.3 597.78,-381.22"/>
</a>
</g>
</g>
<!-- Node17 -->
<g id="Node000017" class="node">
<title>Node17</title>
<g id="a_Node000017"><a xlink:href="geographiclib__wrapper_8h.html" target="_top" xlink:title="Wrappers for GeographicLib functions.">
<polygon fill="white" stroke="#666666" points="1202.5,-356 1081.5,-356 1081.5,-337.5 1202.5,-337.5 1202.5,-356"/>
<text text-anchor="middle" x="1142" y="-342.5" font-family="Helvetica,sans-Serif" font-size="10.00">geographiclib_wrapper.h</text>
</a>
</g>
</g>
<!-- Node1&#45;&gt;Node17 -->
<g id="edge33_Node000001_Node000017" class="edge">
<title>Node1&#45;&gt;Node17</title>
<g id="a_edge33_Node000001_Node000017"><a xlink:title=" ">
<path fill="none" stroke="#63b8ff" d="M623.72,-396.63C708.36,-389.4 903.32,-372.45 1067,-356 1071.56,-355.54 1076.28,-355.05 1081.02,-354.55"/>
<polygon fill="#63b8ff" stroke="#63b8ff" points="623.47,-393.14 613.8,-397.48 624.06,-400.12 623.47,-393.14"/>
</a>
</g>
</g>
<!-- Node18 -->
<g id="Node000018" class="node">
<title>Node18</title>
<g id="a_Node000018"><a xlink:href="near__optimal__cvt__algorithm_8h.html" target="_top" xlink:title="Near Optimal Centroidal Voronoi Tessellation (CVT) algorithm Near&#45;optimal Centroidal Voronoi Tessella...">
<polygon fill="white" stroke="#666666" points="1024.75,-138 881.25,-138 881.25,-119.5 1024.75,-119.5 1024.75,-138"/>
<text text-anchor="middle" x="953" y="-124.5" font-family="Helvetica,sans-Serif" font-size="10.00">near_optimal_cvt_algorithm.h</text>
</a>
</g>
</g>
<!-- Node1&#45;&gt;Node18 -->
<g id="edge35_Node000001_Node000018" class="edge">
<title>Node1&#45;&gt;Node18</title>
<g id="a_edge35_Node000001_Node000018"><a xlink:title=" ">
<path fill="none" stroke="#63b8ff" d="M623.49,-397.24C692.63,-391.76 825.89,-378.58 867,-356 899.5,-338.15 922,-330.34 922,-293.25 922,-293.25 922,-293.25 922,-236.75 922,-198.84 940.17,-156.26 948.69,-138.38"/>
<polygon fill="#63b8ff" stroke="#63b8ff" points="623.38,-393.74 613.68,-398 623.91,-400.72 623.38,-393.74"/>
</a>
</g>
</g>
<!-- Node19 -->
<g id="Node000019" class="node">
<title>Node19</title>
<g id="a_Node000019"><a xlink:href="plotter_8h.html" target="_top" xlink:title="Class to plot the map.">
<polygon fill="white" stroke="#666666" points="786.62,-247 735.38,-247 735.38,-228.5 786.62,-228.5 786.62,-247"/>
<text text-anchor="middle" x="761" y="-233.5" font-family="Helvetica,sans-Serif" font-size="10.00">plotter.h</text>
</a>
</g>
</g>
<!-- Node1&#45;&gt;Node19 -->
<g id="edge40_Node000001_Node000019" class="edge">
<title>Node1&#45;&gt;Node19</title>
<g id="a_edge40_Node000001_Node000019"><a xlink:title=" ">
<path fill="none" stroke="#63b8ff" d="M623.2,-399.94C658.91,-397.32 708.81,-387.65 738,-356 766.69,-324.89 764.26,-268.91 762.09,-247.45"/>
<polygon fill="#63b8ff" stroke="#63b8ff" points="623.45,-396.43 613.66,-400.48 623.84,-403.41 623.45,-396.43"/>
</a>
</g>
</g>
<!-- Node21 -->
<g id="Node000021" class="node">
<title>Node21</title>
<g id="a_Node000021"><a xlink:href="polygon__utils_8h.html" target="_top" xlink:title="Provides utilities for polygon manipulation using CGAL.">
<polygon fill="white" stroke="#666666" points="535.25,-356 454.75,-356 454.75,-337.5 535.25,-337.5 535.25,-356"/>
<text text-anchor="middle" x="495" y="-342.5" font-family="Helvetica,sans-Serif" font-size="10.00">polygon_utils.h</text>
</a>
</g>
</g>
<!-- Node1&#45;&gt;Node21 -->
<g id="edge44_Node000001_Node000021" class="edge">
<title>Node1&#45;&gt;Node21</title>
<g id="a_edge44_Node000001_Node000021"><a xlink:title=" ">
<path fill="none" stroke="#63b8ff" d="M557.38,-385.83C541.94,-376.41 522.3,-364.42 509.22,-356.43"/>
<polygon fill="#63b8ff" stroke="#63b8ff" points="555.15,-388.57 565.51,-390.79 558.8,-382.59 555.15,-388.57"/>
</a>
</g>
</g>
<!-- Node23 -->
<g id="Node000023" class="node">
<title>Node23</title>
<g id="a_Node000023"><a xlink:href="utilities_8h.html" target="_top" xlink:title="Contains utility functions for CGAL.">
<polygon fill="white" stroke="#666666" points="608.5,-356 553.5,-356 553.5,-337.5 608.5,-337.5 608.5,-356"/>
<text text-anchor="middle" x="581" y="-342.5" font-family="Helvetica,sans-Serif" font-size="10.00">utilities.h</text>
</a>
</g>
</g>
<!-- Node1&#45;&gt;Node23 -->
<g id="edge50_Node000001_Node000023" class="edge">
<title>Node1&#45;&gt;Node23</title>
<g id="a_edge50_Node000001_Node000023"><a xlink:title=" ">
<path fill="none" stroke="#63b8ff" d="M581,-380.14C581,-371.86 581,-362.71 581,-356.26"/>
<polygon fill="#63b8ff" stroke="#63b8ff" points="577.5,-380.07 581,-390.07 584.5,-380.07 577.5,-380.07"/>
</a>
</g>
</g>
<!-- Node25 -->
<g id="Node000025" class="node">
<title>Node25</title>
<g id="a_Node000025"><a xlink:href="voronoi_8h.html" target="_top" xlink:title="Class for computing Voronoi cells.">
<polygon fill="white" stroke="#666666" points="695.5,-301.5 640.5,-301.5 640.5,-283 695.5,-283 695.5,-301.5"/>
<text text-anchor="middle" x="668" y="-288" font-family="Helvetica,sans-Serif" font-size="10.00">voronoi.h</text>
</a>
</g>
</g>
<!-- Node1&#45;&gt;Node25 -->
<g id="edge53_Node000001_Node000025" class="edge">
<title>Node1&#45;&gt;Node25</title>
<g id="a_edge53_Node000001_Node000025"><a xlink:title=" ">
<path fill="none" stroke="#63b8ff" d="M613.04,-386.52C626.54,-379.25 641.34,-369.09 651,-356 663.2,-339.47 666.64,-314.73 667.62,-301.81"/>
<polygon fill="#63b8ff" stroke="#63b8ff" points="611.8,-383.23 604.42,-390.83 614.93,-389.49 611.8,-383.23"/>
</a>
</g>
</g>
<!-- Node2&#45;&gt;Node3 -->
<g id="edge2_Node000002_Node000003" class="edge">
<title>Node2&#45;&gt;Node3</title>
<g id="a_edge2_Node000002_Node000003"><a xlink:title=" ">
<path fill="none" stroke="#63b8ff" d="M353.44,-118.07C301.9,-109.88 227.5,-97.31 163,-83.5 156.41,-82.09 149.4,-80.42 142.7,-78.75"/>
<polygon fill="#63b8ff" stroke="#63b8ff" points="352.8,-121.51 363.23,-119.61 353.89,-114.6 352.8,-121.51"/>
</a>
</g>
</g>
<!-- Node2&#45;&gt;Node4 -->
<g id="edge3_Node000002_Node000004" class="edge">
<title>Node2&#45;&gt;Node4</title>
<g id="a_edge3_Node000002_Node000004"><a xlink:title=" ">
<path fill="none" stroke="#63b8ff" d="M459.83,-116.14C500.62,-105.08 561.1,-88.68 597.89,-78.7"/>
<polygon fill="#63b8ff" stroke="#63b8ff" points="459.08,-112.71 450.35,-118.71 460.92,-119.47 459.08,-112.71"/>
</a>
</g>
</g>
<!-- Node2&#45;&gt;Node6 -->
<g id="edge5_Node000002_Node000006" class="edge">
<title>Node2&#45;&gt;Node6</title>
<g id="a_edge5_Node000002_Node000006"><a xlink:title=" ">
<path fill="none" stroke="#63b8ff" d="M434.48,-111.73C446.19,-100.99 461.16,-87.27 470.67,-78.56"/>
<polygon fill="#63b8ff" stroke="#63b8ff" points="432.42,-108.87 427.41,-118.21 437.15,-114.03 432.42,-108.87"/>
</a>
</g>
</g>
<!-- Node2&#45;&gt;Node7 -->
<g id="edge6_Node000002_Node000007" class="edge">
<title>Node2&#45;&gt;Node7</title>
<g id="a_edge6_Node000002_Node000007"><a xlink:title=" ">
<path fill="none" stroke="#63b8ff" d="M480.76,-117.46C550.92,-106.15 662.17,-88.2 725.88,-77.92"/>
<polygon fill="#63b8ff" stroke="#63b8ff" points="480.25,-114 470.93,-119.05 481.36,-120.91 480.25,-114"/>
</a>
</g>
</g>
<!-- Node2&#45;&gt;Node8 -->
<g id="edge7_Node000002_Node000008" class="edge">
<title>Node2&#45;&gt;Node8</title>
<g id="a_edge7_Node000002_Node000008"><a xlink:title=" ">
<path fill="none" stroke="#63b8ff" d="M377.5,-115.87C346.72,-106.61 303.92,-93.74 271.49,-83.98"/>
<polygon fill="#63b8ff" stroke="#63b8ff" points="376.22,-119.14 386.81,-118.67 378.24,-112.44 376.22,-119.14"/>
</a>
</g>
</g>
<!-- Node2&#45;&gt;Node9 -->
<g id="edge8_Node000002_Node000009" class="edge">
<title>Node2&#45;&gt;Node9</title>
<g id="a_edge8_Node000002_Node000009"><a xlink:title=" ">
<path fill="none" stroke="#63b8ff" d="M480.98,-121.94C562.76,-114.29 708.65,-99.86 833,-83.5 843.79,-82.08 855.31,-80.39 866.3,-78.7"/>
<polygon fill="#63b8ff" stroke="#63b8ff" points="480.77,-118.44 471.14,-122.86 481.42,-125.41 480.77,-118.44"/>
</a>
</g>
</g>
<!-- Node2&#45;&gt;Node10 -->
<g id="edge9_Node000002_Node000010" class="edge">
<title>Node2&#45;&gt;Node10</title>
<g id="a_edge9_Node000002_Node000010"><a xlink:title=" ">
<path fill="none" stroke="#63b8ff" d="M399.52,-111.73C387.81,-100.99 372.84,-87.27 363.33,-78.56"/>
<polygon fill="#63b8ff" stroke="#63b8ff" points="396.85,-114.03 406.59,-118.21 401.58,-108.87 396.85,-114.03"/>
</a>
</g>
</g>
<!-- Node4&#45;&gt;Node5 -->
<g id="edge4_Node000004_Node000005" class="edge">
<title>Node4&#45;&gt;Node5</title>
<g id="a_edge4_Node000004_Node000005"><a xlink:title=" ">
<path fill="none" stroke="#63b8ff" d="M583.05,-56.78C579.32,-55.98 575.6,-55.21 572,-54.5 498.6,-40.05 413.46,-26.85 357.81,-18.7"/>
<polygon fill="#63b8ff" stroke="#63b8ff" points="582.19,-60.18 592.72,-58.93 583.71,-53.35 582.19,-60.18"/>
</a>
</g>
</g>
<!-- Node11&#45;&gt;Node12 -->
<g id="edge11_Node000011_Node000012" class="edge">
<title>Node11&#45;&gt;Node12</title>
<g id="a_edge11_Node000011_Node000012"><a xlink:title=" ">
<path fill="none" stroke="#63b8ff" d="M322.7,-326.27C321.9,-313.6 322.2,-296.91 327,-283 336.81,-254.6 342.27,-245.56 367,-228.5 399.74,-205.92 443.68,-194.83 477.22,-189.4"/>
<polygon fill="#63b8ff" stroke="#63b8ff" points="319.18,-326.21 323.59,-335.84 326.15,-325.56 319.18,-326.21"/>
</a>
</g>
</g>
<!-- Node11&#45;&gt;Node14 -->
<g id="edge22_Node000011_Node000014" class="edge">
<title>Node11&#45;&gt;Node14</title>
<g id="a_edge22_Node000011_Node000014"><a xlink:title=" ">
<path fill="none" stroke="#63b8ff" d="M339.01,-328.23C346.14,-319.32 354.48,-308.9 360.19,-301.76"/>
<polygon fill="#63b8ff" stroke="#63b8ff" points="336.39,-325.9 332.88,-335.9 341.86,-330.28 336.39,-325.9"/>
</a>
</g>
</g>
<!-- Node12&#45;&gt;Node2 -->
<g id="edge12_Node000012_Node000002" class="edge">
<title>Node12&#45;&gt;Node2</title>
<g id="a_edge12_Node000012_Node000002"><a xlink:title=" ">
<path fill="none" stroke="#63b8ff" d="M498.46,-168.63C478.49,-159.1 452.4,-146.64 435.19,-138.43"/>
<polygon fill="#63b8ff" stroke="#63b8ff" points="496.94,-171.78 507.47,-172.93 499.95,-165.46 496.94,-171.78"/>
</a>
</g>
</g>
<!-- Node12&#45;&gt;Node3 -->
<g id="edge13_Node000012_Node000003" class="edge">
<title>Node12&#45;&gt;Node3</title>
<g id="a_edge13_Node000012_Node000003"><a xlink:title=" ">
<path fill="none" stroke="#63b8ff" d="M465.86,-172.52C420.74,-164.76 358.06,-152.76 304,-138 240.13,-120.56 166.96,-92.69 131.5,-78.66"/>
<polygon fill="#63b8ff" stroke="#63b8ff" points="465,-175.92 475.44,-174.14 466.17,-169.02 465,-175.92"/>
</a>
</g>
</g>
<!-- Node12&#45;&gt;Node4 -->
<g id="edge14_Node000012_Node000004" class="edge">
<title>Node12&#45;&gt;Node4</title>
<g id="a_edge14_Node000012_Node000004"><a xlink:title=" ">
<path fill="none" stroke="#63b8ff" d="M542.3,-165.58C564.58,-141.29 605.16,-97.07 622.17,-78.53"/>
<polygon fill="#63b8ff" stroke="#63b8ff" points="539.95,-162.96 535.77,-172.7 545.1,-167.7 539.95,-162.96"/>
</a>
</g>
</g>
<!-- Node12&#45;&gt;Node5 -->
<g id="edge15_Node000012_Node000005" class="edge">
<title>Node12&#45;&gt;Node5</title>
<g id="a_edge15_Node000012_Node000005"><a xlink:title=" ">
<path fill="none" stroke="#63b8ff" d="M536.28,-163.42C548.26,-136.09 564.7,-85.35 539,-54.5 516.37,-27.33 421.49,-16.79 357.75,-12.74"/>
<polygon fill="#63b8ff" stroke="#63b8ff" points="533.24,-161.65 532.19,-172.2 539.59,-164.61 533.24,-161.65"/>
</a>
</g>
</g>
<!-- Node12&#45;&gt;Node6 -->
<g id="edge17_Node000012_Node000006" class="edge">
<title>Node12&#45;&gt;Node6</title>
<g id="a_edge17_Node000012_Node000006"><a xlink:title=" ">
<path fill="none" stroke="#63b8ff" d="M519.05,-163.27C508.72,-138.59 491.1,-96.5 483.57,-78.53"/>
<polygon fill="#63b8ff" stroke="#63b8ff" points="515.79,-164.54 522.88,-172.42 522.25,-161.84 515.79,-164.54"/>
</a>
</g>
</g>
<!-- Node12&#45;&gt;Node7 -->
<g id="edge18_Node000012_Node000007" class="edge">
<title>Node12&#45;&gt;Node7</title>
<g id="a_edge18_Node000012_Node000007"><a xlink:title=" ">
<path fill="none" stroke="#63b8ff" d="M549.34,-167.61C570.73,-154 604.21,-133.73 635,-119.5 671.97,-102.41 716.64,-87.56 745.41,-78.69"/>
<polygon fill="#63b8ff" stroke="#63b8ff" points="547.66,-164.53 541.15,-172.88 551.45,-170.42 547.66,-164.53"/>
</a>
</g>
</g>
<!-- Node12&#45;&gt;Node8 -->
<g id="edge19_Node000012_Node000008" class="edge">
<title>Node12&#45;&gt;Node8</title>
<g id="a_edge19_Node000012_Node000008"><a xlink:title=" ">
<path fill="none" stroke="#63b8ff" d="M466.36,-171.89C430.33,-164.66 384.18,-153.51 345,-138 308.04,-123.37 268.56,-99.12 245.36,-83.88"/>
<polygon fill="#63b8ff" stroke="#63b8ff" points="465.22,-175.23 475.71,-173.71 466.57,-168.36 465.22,-175.23"/>
</a>
</g>
</g>
<!-- Node12&#45;&gt;Node9 -->
<g id="edge20_Node000012_Node000009" class="edge">
<title>Node12&#45;&gt;Node9</title>
<g id="a_edge20_Node000012_Node000009"><a xlink:title=" ">
<path fill="none" stroke="#63b8ff" d="M560.25,-169.27C581.31,-160.83 609,-149.32 633,-138 648.91,-130.49 651.42,-125.38 668,-119.5 703.59,-106.89 802.6,-89.2 865.1,-78.74"/>
<polygon fill="#63b8ff" stroke="#63b8ff" points="559,-166 551,-172.95 561.58,-172.51 559,-166"/>
</a>
</g>
</g>
<!-- Node12&#45;&gt;Node10 -->
<g id="edge21_Node000012_Node000010" class="edge">
<title>Node12&#45;&gt;Node10</title>
<g id="a_edge21_Node000012_Node000010"><a xlink:title=" ">
<path fill="none" stroke="#63b8ff" d="M465.88,-174.25C422.58,-167.2 369.83,-155.33 356,-138 342.3,-120.83 347.45,-92.71 351.29,-78.62"/>
<polygon fill="#63b8ff" stroke="#63b8ff" points="465.31,-177.7 475.73,-175.79 466.39,-170.78 465.31,-177.7"/>
</a>
</g>
</g>
<!-- Node13 -->
<g id="Node000013" class="node">
<title>Node13</title>
<g id="a_Node000013"><a xlink:href="coverage__system_8cpp.html" target="_top" xlink:title="Contains the implementation of the CoverageSystem class.">
<polygon fill="white" stroke="#666666" points="786.88,-138 677.12,-138 677.12,-119.5 786.88,-119.5 786.88,-138"/>
<text text-anchor="middle" x="732" y="-124.5" font-family="Helvetica,sans-Serif" font-size="10.00">coverage_system.cpp</text>
</a>
</g>
</g>
<!-- Node12&#45;&gt;Node13 -->
<g id="edge16_Node000012_Node000013" class="edge">
<title>Node12&#45;&gt;Node13</title>
<g id="a_edge16_Node000012_Node000013"><a xlink:title=" ">
<path fill="none" stroke="#63b8ff" d="M571.62,-170.82C609.65,-161.08 663.51,-147.29 698.1,-138.43"/>
<polygon fill="#63b8ff" stroke="#63b8ff" points="571.14,-167.33 562.32,-173.21 572.87,-174.11 571.14,-167.33"/>
</a>
</g>
</g>
<!-- Node14&#45;&gt;Node5 -->
<g id="edge23_Node000014_Node000005" class="edge">
<title>Node14&#45;&gt;Node5</title>
<g id="a_edge23_Node000014_Node000005"><a xlink:title=" ">
<path fill="none" stroke="#63b8ff" d="M328.23,-278.91C258.84,-254.45 115.19,-192.55 57,-83.5 50.93,-72.13 48.75,-64.4 57,-54.5 79.63,-27.33 174.51,-16.79 238.25,-12.74"/>
<polygon fill="#63b8ff" stroke="#63b8ff" points="326.69,-282.07 337.28,-282.02 328.96,-275.46 326.69,-282.07"/>
</a>
</g>
</g>
<!-- Node14&#45;&gt;Node12 -->
<g id="edge24_Node000014_Node000012" class="edge">
<title>Node14&#45;&gt;Node12</title>
<g id="a_edge24_Node000014_Node000012"><a xlink:title=" ">
<path fill="none" stroke="#63b8ff" d="M366.1,-271.61C366.54,-257.9 369.42,-240.06 380,-228.5 404.66,-201.57 445.02,-190.79 477.22,-186.59"/>
<polygon fill="#63b8ff" stroke="#63b8ff" points="362.6,-271.26 366.21,-281.22 369.6,-271.18 362.6,-271.26"/>
</a>
</g>
</g>
<!-- Node14&#45;&gt;Node15 -->
<g id="edge25_Node000014_Node000015" class="edge">
<title>Node14&#45;&gt;Node15</title>
<g id="a_edge25_Node000014_Node000015"><a xlink:title=" ">
<path fill="none" stroke="#63b8ff" d="M402.79,-278.81C430.59,-269.14 468.43,-255.99 493.03,-247.43"/>
<polygon fill="#63b8ff" stroke="#63b8ff" points="401.66,-275.49 393.36,-282.08 403.96,-282.11 401.66,-275.49"/>
</a>
</g>
</g>
<!-- Node16 -->
<g id="Node000016" class="node">
<title>Node16</title>
<g id="a_Node000016"><a xlink:href="world__idf_8cpp.html" target="_top" xlink:title="Contains the implementation of the WorldIDF class.">
<polygon fill="white" stroke="#666666" points="461.12,-247 388.88,-247 388.88,-228.5 461.12,-228.5 461.12,-247"/>
<text text-anchor="middle" x="425" y="-233.5" font-family="Helvetica,sans-Serif" font-size="10.00">world_idf.cpp</text>
</a>
</g>
</g>
<!-- Node14&#45;&gt;Node16 -->
<g id="edge27_Node000014_Node000016" class="edge">
<title>Node14&#45;&gt;Node16</title>
<g id="a_edge27_Node000014_Node000016"><a xlink:title=" ">
<path fill="none" stroke="#63b8ff" d="M385.1,-274.86C395.21,-265.72 407.38,-254.7 415.6,-247.26"/>
<polygon fill="#63b8ff" stroke="#63b8ff" points="382.76,-272.26 377.7,-281.56 387.46,-277.45 382.76,-272.26"/>
</a>
</g>
</g>
<!-- Node15&#45;&gt;Node12 -->
<g id="edge26_Node000015_Node000012" class="edge">
<title>Node15&#45;&gt;Node12</title>
<g id="a_edge26_Node000015_Node000012"><a xlink:title=" ">
<path fill="none" stroke="#63b8ff" d="M521.4,-216.93C522.83,-208.57 524.42,-199.29 525.54,-192.76"/>
<polygon fill="#63b8ff" stroke="#63b8ff" points="517.98,-216.14 519.74,-226.59 524.88,-217.32 517.98,-216.14"/>
</a>
</g>
</g>
<!-- Node18&#45;&gt;Node7 -->
<g id="edge36_Node000018_Node000007" class="edge">
<title>Node18&#45;&gt;Node7</title>
<g id="a_edge36_Node000018_Node000007"><a xlink:title=" ">
<path fill="none" stroke="#63b8ff" d="M915.44,-115.56C881.4,-104.52 832.06,-88.51 801.83,-78.7"/>
<polygon fill="#63b8ff" stroke="#63b8ff" points="914.32,-118.88 924.91,-118.64 916.48,-112.22 914.32,-118.88"/>
</a>
</g>
</g>
<!-- Node18&#45;&gt;Node9 -->
<g id="edge37_Node000018_Node000009" class="edge">
<title>Node18&#45;&gt;Node9</title>
<g id="a_edge37_Node000018_Node000009"><a xlink:title=" ">
<path fill="none" stroke="#63b8ff" d="M942.24,-109.48C936.15,-99.13 928.82,-86.67 924.04,-78.56"/>
<polygon fill="#63b8ff" stroke="#63b8ff" points="939.13,-111.08 947.22,-117.92 945.16,-107.53 939.13,-111.08"/>
</a>
</g>
</g>
<!-- Node19&#45;&gt;Node12 -->
<g id="edge42_Node000019_Node000012" class="edge">
<title>Node19&#45;&gt;Node12</title>
<g id="a_edge42_Node000019_Node000012"><a xlink:title=" ">
<path fill="none" stroke="#63b8ff" d="M723.93,-228.43C680.77,-218.75 609.79,-202.82 565.86,-192.97"/>
<polygon fill="#63b8ff" stroke="#63b8ff" points="723.06,-231.83 733.59,-230.6 724.6,-225 723.06,-231.83"/>
</a>
</g>
</g>
<!-- Node19&#45;&gt;Node13 -->
<g id="edge41_Node000019_Node000013" class="edge">
<title>Node19&#45;&gt;Node13</title>
<g id="a_edge41_Node000019_Node000013"><a xlink:title=" ">
<path fill="none" stroke="#63b8ff" d="M755.75,-217.38C749.4,-193.94 738.98,-155.49 734.35,-138.4"/>
<polygon fill="#63b8ff" stroke="#63b8ff" points="752.33,-218.16 758.33,-226.89 759.09,-216.33 752.33,-218.16"/>
</a>
</g>
</g>
<!-- Node20 -->
<g id="Node000020" class="node">
<title>Node20</title>
<g id="a_Node000020"><a xlink:href="plotter_8cpp.html" target="_top" xlink:title="Helper function to plot maps.">
<polygon fill="white" stroke="#666666" points="732.88,-192.5 671.12,-192.5 671.12,-174 732.88,-174 732.88,-192.5"/>
<text text-anchor="middle" x="702" y="-179" font-family="Helvetica,sans-Serif" font-size="10.00">plotter.cpp</text>
</a>
</g>
</g>
<!-- Node19&#45;&gt;Node20 -->
<g id="edge43_Node000019_Node000020" class="edge">
<title>Node19&#45;&gt;Node20</title>
<g id="a_edge43_Node000019_Node000020"><a xlink:title=" ">
<path fill="none" stroke="#63b8ff" d="M742.9,-220.64C732.56,-211.44 720.01,-200.27 711.56,-192.76"/>
<polygon fill="#63b8ff" stroke="#63b8ff" points="740.33,-223.04 750.13,-227.07 744.98,-217.81 740.33,-223.04"/>
</a>
</g>
</g>
<!-- Node21&#45;&gt;Node14 -->
<g id="edge47_Node000021_Node000014" class="edge">
<title>Node21&#45;&gt;Node14</title>
<g id="a_edge47_Node000021_Node000014"><a xlink:title=" ">
<path fill="none" stroke="#63b8ff" d="M463.4,-332.79C439.96,-323.17 408.65,-310.33 388.17,-301.93"/>
<polygon fill="#63b8ff" stroke="#63b8ff" points="461.88,-335.95 472.46,-336.51 464.54,-329.47 461.88,-335.95"/>
</a>
</g>
</g>
<!-- Node21&#45;&gt;Node16 -->
<g id="edge46_Node000021_Node000016" class="edge">
<title>Node21&#45;&gt;Node16</title>
<g id="a_edge46_Node000021_Node000016"><a xlink:title=" ">
<path fill="none" stroke="#63b8ff" d="M472.57,-330.23C462.92,-322.56 452.21,-312.57 445,-301.5 433.77,-284.26 428.44,-260.24 426.27,-247.5"/>
<polygon fill="#63b8ff" stroke="#63b8ff" points="470.4,-332.97 480.5,-336.18 474.6,-327.38 470.4,-332.97"/>
</a>
</g>
</g>
<!-- Node22 -->
<g id="Node000022" class="node">
<title>Node22</title>
<g id="a_Node000022"><a xlink:href="polygon__utils_8cpp.html" target="_top" xlink:title="Helper functions for polygon operations using CGAL.">
<polygon fill="white" stroke="#666666" points="545.5,-301.5 454.5,-301.5 454.5,-283 545.5,-283 545.5,-301.5"/>
<text text-anchor="middle" x="500" y="-288" font-family="Helvetica,sans-Serif" font-size="10.00">polygon_utils.cpp</text>
</a>
</g>
</g>
<!-- Node21&#45;&gt;Node22 -->
<g id="edge45_Node000021_Node000022" class="edge">
<title>Node21&#45;&gt;Node22</title>
<g id="a_edge45_Node000021_Node000022"><a xlink:title=" ">
<path fill="none" stroke="#63b8ff" d="M496.92,-325.64C497.7,-317.36 498.58,-308.21 499.19,-301.76"/>
<polygon fill="#63b8ff" stroke="#63b8ff" points="493.43,-325.29 495.97,-335.57 500.4,-325.95 493.43,-325.29"/>
</a>
</g>
</g>
<!-- Node23&#45;&gt;Node22 -->
<g id="edge51_Node000023_Node000022" class="edge">
<title>Node23&#45;&gt;Node22</title>
<g id="a_edge51_Node000023_Node000022"><a xlink:title=" ">
<path fill="none" stroke="#63b8ff" d="M558.33,-331.06C543.86,-321.68 525.6,-309.84 513.4,-301.93"/>
<polygon fill="#63b8ff" stroke="#63b8ff" points="556.06,-333.76 566.35,-336.26 559.87,-327.88 556.06,-333.76"/>
</a>
</g>
</g>
<!-- Node24 -->
<g id="Node000024" class="node">
<title>Node24</title>
<g id="a_Node000024"><a xlink:href="voronoi_8cpp.html" target="_top" xlink:title="Functions to compute Centroidal Voronoi Tessellation.">
<polygon fill="white" stroke="#666666" points="640.75,-247 575.25,-247 575.25,-228.5 640.75,-228.5 640.75,-247"/>
<text text-anchor="middle" x="608" y="-233.5" font-family="Helvetica,sans-Serif" font-size="10.00">voronoi.cpp</text>
</a>
</g>
</g>
<!-- Node23&#45;&gt;Node24 -->
<g id="edge52_Node000023_Node000024" class="edge">
<title>Node23&#45;&gt;Node24</title>
<g id="a_edge52_Node000023_Node000024"><a xlink:title=" ">
<path fill="none" stroke="#63b8ff" d="M585.89,-326.38C591.8,-302.94 601.5,-264.49 605.82,-247.4"/>
<polygon fill="#63b8ff" stroke="#63b8ff" points="582.54,-325.33 583.49,-335.89 589.33,-327.05 582.54,-325.33"/>
</a>
</g>
</g>
<!-- Node25&#45;&gt;Node12 -->
<g id="edge54_Node000025_Node000012" class="edge">
<title>Node25&#45;&gt;Node12</title>
<g id="a_edge54_Node000025_Node000012"><a xlink:title=" ">
<path fill="none" stroke="#63b8ff" d="M666.97,-271.66C665.26,-257.99 660.91,-240.16 650,-228.5 631,-208.2 602.02,-197.2 576.96,-191.24"/>
<polygon fill="#63b8ff" stroke="#63b8ff" points="663.45,-271.59 667.78,-281.26 670.43,-271 663.45,-271.59"/>
</a>
</g>
</g>
<!-- Node25&#45;&gt;Node15 -->
<g id="edge56_Node000025_Node000015" class="edge">
<title>Node25&#45;&gt;Node15</title>
<g id="a_edge56_Node000025_Node000015"><a xlink:title=" ">
<path fill="none" stroke="#63b8ff" d="M632.45,-278.81C604.83,-269.14 567.25,-255.99 542.81,-247.43"/>
<polygon fill="#63b8ff" stroke="#63b8ff" points="631.21,-282.08 641.8,-282.08 633.52,-275.47 631.21,-282.08"/>
</a>
</g>
</g>
<!-- Node25&#45;&gt;Node19 -->
<g id="edge55_Node000025_Node000019" class="edge">
<title>Node25&#45;&gt;Node19</title>
<g id="a_edge55_Node000025_Node000019"><a xlink:title=" ">
<path fill="none" stroke="#63b8ff" d="M693.07,-277.1C709.83,-267.64 731.34,-255.49 745.62,-247.43"/>
<polygon fill="#63b8ff" stroke="#63b8ff" points="691.66,-273.87 684.68,-281.84 695.1,-279.97 691.66,-273.87"/>
</a>
</g>
</g>
<!-- Node25&#45;&gt;Node24 -->
<g id="edge57_Node000025_Node000024" class="edge">
<title>Node25&#45;&gt;Node24</title>
<g id="a_edge57_Node000025_Node000024"><a xlink:title=" ">
<path fill="none" stroke="#63b8ff" d="M649.59,-275.14C639.07,-265.94 626.31,-254.77 617.72,-247.26"/>
<polygon fill="#63b8ff" stroke="#63b8ff" points="647.12,-277.63 656.95,-281.58 651.73,-272.36 647.12,-277.63"/>
</a>
</g>
</g>
</g>
</svg>
