<?xml version="1.0" encoding="UTF-8" standalone="no"?>
<!DOCTYPE svg PUBLIC "-//W3C//DTD SVG 1.1//EN"
 "http://www.w3.org/Graphics/SVG/1.1/DTD/svg11.dtd">
<!-- Generated by graphviz version 10.0.1 (0)
 -->
<!-- Title: typedefs.h Pages: 1 -->
<svg width="1444pt" height="473pt"
 viewBox="0.00 0.00 1443.50 473.00" xmlns="http://www.w3.org/2000/svg" xmlns:xlink="http://www.w3.org/1999/xlink">
<g id="graph0" class="graph" transform="scale(1 1) rotate(0) translate(4 469)">
<title>typedefs.h</title>
<!-- Node1 -->
<g id="Node000001" class="node">
<title>Node1</title>
<g id="a_Node000001"><a xlink:title="Contains typedefs for the library.">
<polygon fill="#999999" stroke="#666666" points="772.88,-465 711.12,-465 711.12,-446.5 772.88,-446.5 772.88,-465"/>
<text text-anchor="middle" x="742" y="-451.5" font-family="Helvetica,sans-Serif" font-size="10.00">typedefs.h</text>
</a>
</g>
</g>
<!-- Node2 -->
<g id="Node000002" class="node">
<title>Node2</title>
<g id="a_Node000002"><a xlink:href="abstract__controller_8h.html" target="_top" xlink:title="Contains the abstract class for coverage control algorithms.">
<polygon fill="white" stroke="#666666" points="560.25,-192.5 455.75,-192.5 455.75,-174 560.25,-174 560.25,-192.5"/>
<text text-anchor="middle" x="508" y="-179" font-family="Helvetica,sans-Serif" font-size="10.00">abstract_controller.h</text>
</a>
</g>
</g>
<!-- Node1&#45;&gt;Node2 -->
<g id="edge1_Node000001_Node000002" class="edge">
<title>Node1&#45;&gt;Node2</title>
<g id="a_edge1_Node000001_Node000002"><a xlink:title=" ">
<path fill="none" stroke="#63b8ff" d="M699.27,-453.81C626.78,-451.35 483.97,-442.46 447,-410.5 424.96,-391.44 428,-376.89 428,-347.75 428,-347.75 428,-347.75 428,-291.25 428,-246.95 472.53,-209.19 495.15,-192.87"/>
<polygon fill="#63b8ff" stroke="#63b8ff" points="699.07,-457.31 709.18,-454.12 699.29,-450.31 699.07,-457.31"/>
</a>
</g>
</g>
<!-- Node3 -->
<g id="Node000003" class="node">
<title>Node3</title>
<g id="a_Node000003"><a xlink:href="centralized__cvt_8h.html" target="_top" xlink:title="Contains the class CentralizedCVT.">
<polygon fill="white" stroke="#666666" points="740.38,-132.75 651.62,-132.75 651.62,-114.25 740.38,-114.25 740.38,-132.75"/>
<text text-anchor="middle" x="696" y="-119.25" font-family="Helvetica,sans-Serif" font-size="10.00">centralized_cvt.h</text>
</a>
</g>
</g>
<!-- Node1&#45;&gt;Node3 -->
<g id="edge40_Node000001_Node000003" class="edge">
<title>Node1&#45;&gt;Node3</title>
<g id="a_edge40_Node000001_Node000003"><a xlink:title=" ">
<path fill="none" stroke="#63b8ff" d="M784.42,-451.24C857.93,-443.04 998.48,-416.83 969,-337.5 926.38,-222.83 779.01,-155.87 720.36,-133.23"/>
<polygon fill="#63b8ff" stroke="#63b8ff" points="784.32,-447.74 774.74,-452.25 785.05,-454.7 784.32,-447.74"/>
</a>
</g>
</g>
<!-- Node4 -->
<g id="Node000004" class="node">
<title>Node4</title>
<g id="a_Node000004"><a xlink:href="core__binds_8h.html" target="_top" xlink:title="Provides python bindings for the core CoverageControl library using pybind11.">
<polygon fill="white" stroke="#666666" points="695.75,-73 624.25,-73 624.25,-54.5 695.75,-54.5 695.75,-73"/>
<text text-anchor="middle" x="660" y="-59.5" font-family="Helvetica,sans-Serif" font-size="10.00">core_binds.h</text>
</a>
</g>
</g>
<!-- Node1&#45;&gt;Node4 -->
<g id="edge42_Node000001_Node000004" class="edge">
<title>Node1&#45;&gt;Node4</title>
<g id="a_edge42_Node000001_Node000004"><a xlink:title=" ">
<path fill="none" stroke="#63b8ff" d="M784.71,-454.76C906.7,-453.66 1248,-442.14 1248,-347.75 1248,-347.75 1248,-347.75 1248,-236.75 1248,-136.46 1156.01,-143.93 1062,-109 995.2,-84.18 781.56,-70.9 695.97,-66.46"/>
<polygon fill="#63b8ff" stroke="#63b8ff" points="784.76,-451.26 774.78,-454.83 784.81,-458.26 784.76,-451.26"/>
</a>
</g>
</g>
<!-- Node6 -->
<g id="Node000006" class="node">
<title>Node6</title>
<g id="a_Node000006"><a xlink:href="clairvoyant__cvt_8h.html" target="_top" xlink:title="Clairvoyant CVT algorithm.">
<polygon fill="white" stroke="#666666" points="1020.38,-132.75 931.62,-132.75 931.62,-114.25 1020.38,-114.25 1020.38,-132.75"/>
<text text-anchor="middle" x="976" y="-119.25" font-family="Helvetica,sans-Serif" font-size="10.00">clairvoyant_cvt.h</text>
</a>
</g>
</g>
<!-- Node1&#45;&gt;Node6 -->
<g id="edge41_Node000001_Node000006" class="edge">
<title>Node1&#45;&gt;Node6</title>
<g id="a_edge41_Node000001_Node000006"><a xlink:title=" ">
<path fill="none" stroke="#63b8ff" d="M784.64,-452.88C857.49,-448.96 1002.1,-437.91 1044,-410.5 1133.99,-351.64 1154.67,-263.45 1095,-174 1084.82,-158.74 1038.84,-142.71 1007.12,-133.17"/>
<polygon fill="#63b8ff" stroke="#63b8ff" points="784.49,-449.38 774.69,-453.39 784.85,-456.37 784.49,-449.38"/>
</a>
</g>
</g>
<!-- Node7 -->
<g id="Node000007" class="node">
<title>Node7</title>
<g id="a_Node000007"><a xlink:href="coverage__algorithm_8cpp.html" target="_top" xlink:title="Program to test the CVT&#45;based (Lloyd&#39;s) coverage control algorithms.">
<polygon fill="white" stroke="#666666" points="1252.38,-73 1133.62,-73 1133.62,-54.5 1252.38,-54.5 1252.38,-73"/>
<text text-anchor="middle" x="1193" y="-59.5" font-family="Helvetica,sans-Serif" font-size="10.00">coverage_algorithm.cpp</text>
</a>
</g>
</g>
<!-- Node1&#45;&gt;Node7 -->
<g id="edge43_Node000001_Node000007" class="edge">
<title>Node1&#45;&gt;Node7</title>
<g id="a_edge43_Node000001_Node000007"><a xlink:title=" ">
<path fill="none" stroke="#63b8ff" d="M784.46,-455.39C912.48,-456.21 1286,-449.84 1286,-347.75 1286,-347.75 1286,-347.75 1286,-182.25 1286,-132.04 1233.14,-90.75 1207.12,-73.47"/>
<polygon fill="#63b8ff" stroke="#63b8ff" points="784.74,-451.9 774.72,-455.31 784.69,-458.9 784.74,-451.9"/>
</a>
</g>
</g>
<!-- Node8 -->
<g id="Node000008" class="node">
<title>Node8</title>
<g id="a_Node000008"><a xlink:href="decentralized__cvt_8h.html" target="_top" xlink:title="Contains the DecentralizedCVT class.">
<polygon fill="white" stroke="#666666" points="434.62,-132.75 335.38,-132.75 335.38,-114.25 434.62,-114.25 434.62,-132.75"/>
<text text-anchor="middle" x="385" y="-119.25" font-family="Helvetica,sans-Serif" font-size="10.00">decentralized_cvt.h</text>
</a>
</g>
</g>
<!-- Node1&#45;&gt;Node8 -->
<g id="edge45_Node000001_Node000008" class="edge">
<title>Node1&#45;&gt;Node8</title>
<g id="a_edge45_Node000001_Node000008"><a xlink:title=" ">
<path fill="none" stroke="#63b8ff" d="M699.75,-453.17C620.3,-449.57 452.09,-438.76 402,-410.5 370.94,-392.98 352,-383.41 352,-347.75 352,-347.75 352,-347.75 352,-236.75 352,-196.53 371.74,-151.38 380.69,-132.98"/>
<polygon fill="#63b8ff" stroke="#63b8ff" points="699.15,-456.65 709.3,-453.59 699.46,-449.66 699.15,-456.65"/>
</a>
</g>
</g>
<!-- Node9 -->
<g id="Node000009" class="node">
<title>Node9</title>
<g id="a_Node000009"><a xlink:href="near__optimal__cvt_8h.html" target="_top" xlink:title="NearOptimalCVT class Global offline oracle: has complete information about the environment....">
<polygon fill="white" stroke="#666666" points="316.88,-132.75 219.12,-132.75 219.12,-114.25 316.88,-114.25 316.88,-132.75"/>
<text text-anchor="middle" x="268" y="-119.25" font-family="Helvetica,sans-Serif" font-size="10.00">near_optimal_cvt.h</text>
</a>
</g>
</g>
<!-- Node1&#45;&gt;Node9 -->
<g id="edge47_Node000001_Node000009" class="edge">
<title>Node1&#45;&gt;Node9</title>
<g id="a_edge47_Node000001_Node000009"><a xlink:title=" ">
<path fill="none" stroke="#63b8ff" d="M699.46,-454.73C577.95,-453.53 238,-441.78 238,-347.75 238,-347.75 238,-347.75 238,-236.75 238,-196.81 255.95,-151.5 264.08,-133.02"/>
<polygon fill="#63b8ff" stroke="#63b8ff" points="699.31,-458.23 709.34,-454.8 699.37,-451.23 699.31,-458.23"/>
</a>
</g>
</g>
<!-- Node10 -->
<g id="Node000010" class="node">
<title>Node10</title>
<g id="a_Node000010"><a xlink:href="oracle__bang__explore__exploit_8h.html" target="_top" xlink:title="First trial of oracle with exploration and exploitation. The oracle uses complete information about t...">
<polygon fill="white" stroke="#666666" points="557.62,-138 452.38,-138 452.38,-109 557.62,-109 557.62,-138"/>
<text text-anchor="start" x="460.38" y="-124.5" font-family="Helvetica,sans-Serif" font-size="10.00">oracle_bang_explore</text>
<text text-anchor="middle" x="505" y="-114" font-family="Helvetica,sans-Serif" font-size="10.00">_exploit.h</text>
</a>
</g>
</g>
<!-- Node1&#45;&gt;Node10 -->
<g id="edge51_Node000001_Node000010" class="edge">
<title>Node1&#45;&gt;Node10</title>
<g id="a_edge51_Node000001_Node000010"><a xlink:title=" ">
<path fill="none" stroke="#63b8ff" d="M699.4,-453.14C624.44,-449.59 472.75,-439.01 429,-410.5 401.49,-392.57 390,-380.59 390,-347.75 390,-347.75 390,-347.75 390,-236.75 390,-189.74 439.82,-155.98 473.88,-138.4"/>
<polygon fill="#63b8ff" stroke="#63b8ff" points="699.08,-456.63 709.23,-453.58 699.4,-449.63 699.08,-456.63"/>
</a>
</g>
</g>
<!-- Node11 -->
<g id="Node000011" class="node">
<title>Node11</title>
<g id="a_Node000011"><a xlink:href="oracle__explore__exploit_8h.html" target="_top" xlink:title="Old trial of exploration and exploitation Uses system map for exploration as well.">
<polygon fill="white" stroke="#666666" points="201.12,-132.75 80.88,-132.75 80.88,-114.25 201.12,-114.25 201.12,-132.75"/>
<text text-anchor="middle" x="141" y="-119.25" font-family="Helvetica,sans-Serif" font-size="10.00">oracle_explore_exploit.h</text>
</a>
</g>
</g>
<!-- Node1&#45;&gt;Node11 -->
<g id="edge52_Node000001_Node000011" class="edge">
<title>Node1&#45;&gt;Node11</title>
<g id="a_edge52_Node000001_Node000011"><a xlink:title=" ">
<path fill="none" stroke="#63b8ff" d="M700.02,-453.16C543.11,-446.66 0,-419.01 0,-347.75 0,-347.75 0,-347.75 0,-236.75 0,-180.12 70.48,-147.45 111.78,-133.18"/>
<polygon fill="#63b8ff" stroke="#63b8ff" points="699.42,-456.64 709.55,-453.55 699.7,-449.64 699.42,-456.64"/>
</a>
</g>
</g>
<!-- Node12 -->
<g id="Node000012" class="node">
<title>Node12</title>
<g id="a_Node000012"><a xlink:href="simul__explore__exploit_8h.html" target="_top" xlink:title="Simultaneous exploration and exploitation algorithm Uses frontier&#45;based exploration with bias towards...">
<polygon fill="white" stroke="#666666" points="875.62,-132.75 758.38,-132.75 758.38,-114.25 875.62,-114.25 875.62,-132.75"/>
<text text-anchor="middle" x="817" y="-119.25" font-family="Helvetica,sans-Serif" font-size="10.00">simul_explore_exploit.h</text>
</a>
</g>
</g>
<!-- Node1&#45;&gt;Node12 -->
<g id="edge61_Node000001_Node000012" class="edge">
<title>Node1&#45;&gt;Node12</title>
<g id="a_edge61_Node000001_Node000012"><a xlink:title=" ">
<path fill="none" stroke="#63b8ff" d="M784.56,-453.25C853.64,-449.99 985.96,-439.96 1021,-410.5 1079.8,-361.07 1064.38,-322.77 1077,-247 1082.33,-215 1097.69,-199 1077,-174 1064.26,-158.6 948.72,-141.27 876.02,-131.74"/>
<polygon fill="#63b8ff" stroke="#63b8ff" points="784.59,-449.75 774.75,-453.69 784.9,-456.74 784.59,-449.75"/>
</a>
</g>
</g>
<!-- Node13 -->
<g id="Node000013" class="node">
<title>Node13</title>
<g id="a_Node000013"><a xlink:href="bivariate__normal__distribution_8h.html" target="_top" xlink:title="Class for Bivariate Normal Distribution.">
<polygon fill="white" stroke="#666666" points="603.62,-410.5 456.38,-410.5 456.38,-392 603.62,-392 603.62,-410.5"/>
<text text-anchor="middle" x="530" y="-397" font-family="Helvetica,sans-Serif" font-size="10.00">bivariate_normal_distribution.h</text>
</a>
</g>
</g>
<!-- Node1&#45;&gt;Node13 -->
<g id="edge18_Node000001_Node000013" class="edge">
<title>Node1&#45;&gt;Node13</title>
<g id="a_edge18_Node000001_Node000013"><a xlink:title=" ">
<path fill="none" stroke="#63b8ff" d="M699.64,-444.26C660.25,-434.5 602.25,-420.14 565.3,-410.99"/>
<polygon fill="#63b8ff" stroke="#63b8ff" points="698.7,-447.63 709.25,-446.64 700.38,-440.84 698.7,-447.63"/>
</a>
</g>
</g>
<!-- Node14 -->
<g id="Node000014" class="node">
<title>Node14</title>
<g id="a_Node000014"><a xlink:href="coverage__system_8h.html" target="_top" xlink:title="The file contains the CoverageSystem class, which is the main class for the coverage control library.">
<polygon fill="white" stroke="#666666" points="753.62,-247 654.38,-247 654.38,-228.5 753.62,-228.5 753.62,-247"/>
<text text-anchor="middle" x="704" y="-233.5" font-family="Helvetica,sans-Serif" font-size="10.00">coverage_system.h</text>
</a>
</g>
</g>
<!-- Node1&#45;&gt;Node14 -->
<g id="edge44_Node000001_Node000014" class="edge">
<title>Node1&#45;&gt;Node14</title>
<g id="a_edge44_Node000001_Node000014"><a xlink:title=" ">
<path fill="none" stroke="#63b8ff" d="M717.08,-439.96C705.63,-432.25 692.52,-422.03 683,-410.5 648.71,-368.95 642.09,-353.99 630,-301.5 628.16,-293.49 625.94,-290.15 630,-283 639.9,-265.55 659.71,-254.25 676.34,-247.43"/>
<polygon fill="#63b8ff" stroke="#63b8ff" points="715,-442.78 725.3,-445.23 718.77,-436.89 715,-442.78"/>
</a>
</g>
</g>
<!-- Node16 -->
<g id="Node000016" class="node">
<title>Node16</title>
<g id="a_Node000016"><a xlink:href="world__idf_8h.html" target="_top" xlink:title="Contains the class for Importance Density Function (IDF) for the world.">
<polygon fill="white" stroke="#666666" points="738.88,-356 677.12,-356 677.12,-337.5 738.88,-337.5 738.88,-356"/>
<text text-anchor="middle" x="708" y="-342.5" font-family="Helvetica,sans-Serif" font-size="10.00">world_idf.h</text>
</a>
</g>
</g>
<!-- Node1&#45;&gt;Node16 -->
<g id="edge71_Node000001_Node000016" class="edge">
<title>Node1&#45;&gt;Node16</title>
<g id="a_edge71_Node000001_Node000016"><a xlink:title=" ">
<path fill="none" stroke="#63b8ff" d="M735.31,-435.48C732.67,-427.73 729.63,-418.71 727,-410.5 720.81,-391.21 714.04,-368.41 710.49,-356.3"/>
<polygon fill="#63b8ff" stroke="#63b8ff" points="731.98,-436.55 738.55,-444.86 738.6,-434.27 731.98,-436.55"/>
</a>
</g>
</g>
<!-- Node17 -->
<g id="Node000017" class="node">
<title>Node17</title>
<g id="a_Node000017"><a xlink:href="robot__model_8h.html" target="_top" xlink:title="Class for handling the robot model.">
<polygon fill="white" stroke="#666666" points="716.75,-301.5 639.25,-301.5 639.25,-283 716.75,-283 716.75,-301.5"/>
<text text-anchor="middle" x="678" y="-288" font-family="Helvetica,sans-Serif" font-size="10.00">robot_model.h</text>
</a>
</g>
</g>
<!-- Node1&#45;&gt;Node17 -->
<g id="edge60_Node000001_Node000017" class="edge">
<title>Node1&#45;&gt;Node17</title>
<g id="a_edge60_Node000001_Node000017"><a xlink:title=" ">
<path fill="none" stroke="#63b8ff" d="M724.26,-438.33C706.11,-420.21 679.06,-389.19 668,-356 661.79,-337.37 669.05,-314.31 674.05,-301.99"/>
<polygon fill="#63b8ff" stroke="#63b8ff" points="721.63,-440.66 731.26,-445.09 726.5,-435.63 721.63,-440.66"/>
</a>
</g>
</g>
<!-- Node18 -->
<g id="Node000018" class="node">
<title>Node18</title>
<g id="a_Node000018"><a xlink:href="geographiclib__wrapper_8h.html" target="_top" xlink:title="Wrappers for GeographicLib functions.">
<polygon fill="white" stroke="#666666" points="1435.5,-410.5 1314.5,-410.5 1314.5,-392 1435.5,-392 1435.5,-410.5"/>
<text text-anchor="middle" x="1375" y="-397" font-family="Helvetica,sans-Serif" font-size="10.00">geographiclib_wrapper.h</text>
</a>
</g>
</g>
<!-- Node1&#45;&gt;Node18 -->
<g id="edge46_Node000001_Node000018" class="edge">
<title>Node1&#45;&gt;Node18</title>
<g id="a_edge46_Node000001_Node000018"><a xlink:title=" ">
<path fill="none" stroke="#63b8ff" d="M784.39,-451.83C877.67,-445.31 1107.72,-428.7 1300,-410.5 1304.56,-410.07 1309.28,-409.6 1314.03,-409.11"/>
<polygon fill="#63b8ff" stroke="#63b8ff" points="784.43,-448.32 774.69,-452.51 784.91,-455.3 784.43,-448.32"/>
</a>
</g>
</g>
<!-- Node19 -->
<g id="Node000019" class="node">
<title>Node19</title>
<g id="a_Node000019"><a xlink:href="near__optimal__cvt__algorithm_8h.html" target="_top" xlink:title="Near Optimal Centroidal Voronoi Tessellation (CVT) algorithm Near&#45;optimal Centroidal Voronoi Tessella...">
<polygon fill="white" stroke="#666666" points="209.75,-192.5 66.25,-192.5 66.25,-174 209.75,-174 209.75,-192.5"/>
<text text-anchor="middle" x="138" y="-179" font-family="Helvetica,sans-Serif" font-size="10.00">near_optimal_cvt_algorithm.h</text>
</a>
</g>
</g>
<!-- Node1&#45;&gt;Node19 -->
<g id="edge48_Node000001_Node000019" class="edge">
<title>Node1&#45;&gt;Node19</title>
<g id="a_edge48_Node000001_Node000019"><a xlink:title=" ">
<path fill="none" stroke="#63b8ff" d="M699.21,-455.15C590.57,-455.53 306.78,-452.36 224,-410.5 190.91,-393.77 169,-384.84 169,-347.75 169,-347.75 169,-347.75 169,-291.25 169,-253.34 150.83,-210.76 142.31,-192.88"/>
<polygon fill="#63b8ff" stroke="#63b8ff" points="699.18,-458.65 709.16,-455.1 699.14,-451.65 699.18,-458.65"/>
</a>
</g>
</g>
<!-- Node20 -->
<g id="Node000020" class="node">
<title>Node20</title>
<g id="a_Node000020"><a xlink:href="plotter_8h.html" target="_top" xlink:title="Class to plot the map.">
<polygon fill="white" stroke="#666666" points="1036.62,-301.5 985.38,-301.5 985.38,-283 1036.62,-283 1036.62,-301.5"/>
<text text-anchor="middle" x="1011" y="-288" font-family="Helvetica,sans-Serif" font-size="10.00">plotter.h</text>
</a>
</g>
</g>
<!-- Node1&#45;&gt;Node20 -->
<g id="edge53_Node000001_Node000020" class="edge">
<title>Node1&#45;&gt;Node20</title>
<g id="a_edge53_Node000001_Node000020"><a xlink:title=" ">
<path fill="none" stroke="#63b8ff" d="M784.43,-453.64C850.52,-450.96 973.48,-441.78 1002,-410.5 1030.06,-379.73 1019.12,-323.54 1013.51,-301.99"/>
<polygon fill="#63b8ff" stroke="#63b8ff" points="784.54,-450.14 774.68,-454 784.8,-457.13 784.54,-450.14"/>
</a>
</g>
</g>
<!-- Node22 -->
<g id="Node000022" class="node">
<title>Node22</title>
<g id="a_Node000022"><a xlink:href="polygon__utils_8h.html" target="_top" xlink:title="Provides utilities for polygon manipulation using CGAL.">
<polygon fill="white" stroke="#666666" points="816.25,-410.5 735.75,-410.5 735.75,-392 816.25,-392 816.25,-410.5"/>
<text text-anchor="middle" x="776" y="-397" font-family="Helvetica,sans-Serif" font-size="10.00">polygon_utils.h</text>
</a>
</g>
</g>
<!-- Node1&#45;&gt;Node22 -->
<g id="edge57_Node000001_Node000022" class="edge">
<title>Node1&#45;&gt;Node22</title>
<g id="a_edge57_Node000001_Node000022"><a xlink:title=" ">
<path fill="none" stroke="#63b8ff" d="M753.71,-436.66C759.4,-427.88 765.97,-417.74 770.49,-410.76"/>
<polygon fill="#63b8ff" stroke="#63b8ff" points="750.94,-434.51 748.44,-444.81 756.81,-438.32 750.94,-434.51"/>
</a>
</g>
</g>
<!-- Node24 -->
<g id="Node000024" class="node">
<title>Node24</title>
<g id="a_Node000024"><a xlink:href="utilities_8h.html" target="_top" xlink:title="Contains utility functions for CGAL.">
<polygon fill="white" stroke="#666666" points="889.5,-410.5 834.5,-410.5 834.5,-392 889.5,-392 889.5,-410.5"/>
<text text-anchor="middle" x="862" y="-397" font-family="Helvetica,sans-Serif" font-size="10.00">utilities.h</text>
</a>
</g>
</g>
<!-- Node1&#45;&gt;Node24 -->
<g id="edge62_Node000001_Node000024" class="edge">
<title>Node1&#45;&gt;Node24</title>
<g id="a_edge62_Node000001_Node000024"><a xlink:title=" ">
<path fill="none" stroke="#63b8ff" d="M772.23,-441.53C794.13,-431.94 823.12,-419.26 842.16,-410.93"/>
<polygon fill="#63b8ff" stroke="#63b8ff" points="770.96,-438.26 763.2,-445.47 773.77,-444.67 770.96,-438.26"/>
</a>
</g>
</g>
<!-- Node26 -->
<g id="Node000026" class="node">
<title>Node26</title>
<g id="a_Node000026"><a xlink:href="voronoi_8h.html" target="_top" xlink:title="Class for computing Voronoi cells.">
<polygon fill="white" stroke="#666666" points="959.5,-356 904.5,-356 904.5,-337.5 959.5,-337.5 959.5,-356"/>
<text text-anchor="middle" x="932" y="-342.5" font-family="Helvetica,sans-Serif" font-size="10.00">voronoi.h</text>
</a>
</g>
</g>
<!-- Node1&#45;&gt;Node26 -->
<g id="edge65_Node000001_Node000026" class="edge">
<title>Node1&#45;&gt;Node26</title>
<g id="a_edge65_Node000001_Node000026"><a xlink:title=" ">
<path fill="none" stroke="#63b8ff" d="M784.47,-451.68C818.39,-447.27 865.47,-436.55 898,-410.5 915.79,-396.25 925.57,-370.07 929.67,-356.47"/>
<polygon fill="#63b8ff" stroke="#63b8ff" points="784.11,-448.2 774.57,-452.82 784.91,-455.15 784.11,-448.2"/>
</a>
</g>
</g>
<!-- Node2&#45;&gt;Node3 -->
<g id="edge2_Node000002_Node000003" class="edge">
<title>Node2&#45;&gt;Node3</title>
<g id="a_edge2_Node000002_Node000003"><a xlink:title=" ">
<path fill="none" stroke="#63b8ff" d="M546.73,-170.35C582.72,-159.3 635.46,-143.1 667.66,-133.2"/>
<polygon fill="#63b8ff" stroke="#63b8ff" points="546.12,-166.88 537.59,-173.16 548.18,-173.57 546.12,-166.88"/>
</a>
</g>
</g>
<!-- Node2&#45;&gt;Node6 -->
<g id="edge5_Node000002_Node000006" class="edge">
<title>Node2&#45;&gt;Node6</title>
<g id="a_edge5_Node000002_Node000006"><a xlink:title=" ">
<path fill="none" stroke="#63b8ff" d="M571.63,-175.38C646.64,-167.14 775.02,-152.61 885,-138 900.04,-136 916.45,-133.63 931.14,-131.43"/>
<polygon fill="#63b8ff" stroke="#63b8ff" points="571.58,-171.86 562.02,-176.43 572.34,-178.82 571.58,-171.86"/>
</a>
</g>
</g>
<!-- Node2&#45;&gt;Node8 -->
<g id="edge8_Node000002_Node000008" class="edge">
<title>Node2&#45;&gt;Node8</title>
<g id="a_edge8_Node000002_Node000008"><a xlink:title=" ">
<path fill="none" stroke="#63b8ff" d="M479.24,-168.75C455.87,-157.78 423.61,-142.63 403.54,-133.2"/>
<polygon fill="#63b8ff" stroke="#63b8ff" points="477.68,-171.88 488.22,-172.96 480.65,-165.54 477.68,-171.88"/>
</a>
</g>
</g>
<!-- Node2&#45;&gt;Node9 -->
<g id="edge10_Node000002_Node000009" class="edge">
<title>Node2&#45;&gt;Node9</title>
<g id="a_edge10_Node000002_Node000009"><a xlink:title=" ">
<path fill="none" stroke="#63b8ff" d="M460.64,-170.85C414.64,-159.79 345.82,-143.22 304.09,-133.18"/>
<polygon fill="#63b8ff" stroke="#63b8ff" points="459.8,-174.25 470.34,-173.19 461.43,-167.45 459.8,-174.25"/>
</a>
</g>
</g>
<!-- Node2&#45;&gt;Node10 -->
<g id="edge12_Node000002_Node000010" class="edge">
<title>Node2&#45;&gt;Node10</title>
<g id="a_edge12_Node000002_Node000010"><a xlink:title=" ">
<path fill="none" stroke="#63b8ff" d="M506.96,-162.24C506.55,-154.39 506.09,-145.57 505.72,-138.43"/>
<polygon fill="#63b8ff" stroke="#63b8ff" points="503.46,-162.41 507.48,-172.22 510.46,-162.05 503.46,-162.41"/>
</a>
</g>
</g>
<!-- Node2&#45;&gt;Node11 -->
<g id="edge14_Node000002_Node000011" class="edge">
<title>Node2&#45;&gt;Node11</title>
<g id="a_edge14_Node000002_Node000011"><a xlink:title=" ">
<path fill="none" stroke="#63b8ff" d="M444.13,-173.63C383.7,-165.27 290.51,-151.85 210,-138 201.58,-136.55 192.6,-134.89 184.01,-133.23"/>
<polygon fill="#63b8ff" stroke="#63b8ff" points="443.52,-177.08 453.9,-174.97 444.47,-170.14 443.52,-177.08"/>
</a>
</g>
</g>
<!-- Node2&#45;&gt;Node12 -->
<g id="edge16_Node000002_Node000012" class="edge">
<title>Node2&#45;&gt;Node12</title>
<g id="a_edge16_Node000002_Node000012"><a xlink:title=" ">
<path fill="none" stroke="#63b8ff" d="M567.8,-171.52C616.6,-162.7 687.3,-149.79 749,-138 756.92,-136.49 765.35,-134.84 773.49,-133.24"/>
<polygon fill="#63b8ff" stroke="#63b8ff" points="567.22,-168.07 558,-173.29 568.46,-174.95 567.22,-168.07"/>
</a>
</g>
</g>
<!-- Node3&#45;&gt;Node4 -->
<g id="edge3_Node000003_Node000004" class="edge">
<title>Node3&#45;&gt;Node4</title>
<g id="a_edge3_Node000003_Node000004"><a xlink:title=" ">
<path fill="none" stroke="#63b8ff" d="M684.61,-104.23C678.16,-93.88 670.39,-81.42 665.33,-73.31"/>
<polygon fill="#63b8ff" stroke="#63b8ff" points="681.63,-106.06 689.89,-112.69 687.57,-102.36 681.63,-106.06"/>
</a>
</g>
</g>
<!-- Node5 -->
<g id="Node000005" class="node">
<title>Node5</title>
<g id="a_Node000005"><a xlink:href="python__binds_8cpp.html" target="_top" xlink:title="Python bindings for the CoverageControl library using pybind11 (core_binds.h)">
<polygon fill="white" stroke="#666666" points="882.25,-18.5 789.75,-18.5 789.75,0 882.25,0 882.25,-18.5"/>
<text text-anchor="middle" x="836" y="-5" font-family="Helvetica,sans-Serif" font-size="10.00">python_binds.cpp</text>
</a>
</g>
</g>
<!-- Node4&#45;&gt;Node5 -->
<g id="edge4_Node000004_Node000005" class="edge">
<title>Node4&#45;&gt;Node5</title>
<g id="a_edge4_Node000004_Node000005"><a xlink:title=" ">
<path fill="none" stroke="#63b8ff" d="M700,-50.82C732.54,-41.11 777.71,-27.64 806.89,-18.93"/>
<polygon fill="#63b8ff" stroke="#63b8ff" points="699.1,-47.44 690.51,-53.65 701.1,-54.14 699.1,-47.44"/>
</a>
</g>
</g>
<!-- Node6&#45;&gt;Node4 -->
<g id="edge6_Node000006_Node000004" class="edge">
<title>Node6&#45;&gt;Node4</title>
<g id="a_edge6_Node000006_Node000004"><a xlink:title=" ">
<path fill="none" stroke="#63b8ff" d="M929.04,-111.32C925.31,-110.51 921.6,-109.73 918,-109 839.15,-93.08 746,-78.02 696.02,-70.24"/>
<polygon fill="#63b8ff" stroke="#63b8ff" points="928.18,-114.72 938.7,-113.49 929.71,-107.89 928.18,-114.72"/>
</a>
</g>
</g>
<!-- Node6&#45;&gt;Node7 -->
<g id="edge7_Node000006_Node000007" class="edge">
<title>Node6&#45;&gt;Node7</title>
<g id="a_edge7_Node000006_Node000007"><a xlink:title=" ">
<path fill="none" stroke="#63b8ff" d="M1019.37,-110.96C1060.93,-99.9 1122.72,-83.45 1160.29,-73.45"/>
<polygon fill="#63b8ff" stroke="#63b8ff" points="1018.71,-107.51 1009.95,-113.46 1020.51,-114.28 1018.71,-107.51"/>
</a>
</g>
</g>
<!-- Node8&#45;&gt;Node4 -->
<g id="edge9_Node000008_Node000004" class="edge">
<title>Node8&#45;&gt;Node4</title>
<g id="a_edge9_Node000008_Node000004"><a xlink:title=" ">
<path fill="none" stroke="#63b8ff" d="M432.79,-111.27C436.24,-110.49 439.67,-109.73 443,-109 506.48,-95.14 580.72,-80.3 623.84,-71.81"/>
<polygon fill="#63b8ff" stroke="#63b8ff" points="432.23,-107.8 423.26,-113.44 433.79,-114.63 432.23,-107.8"/>
</a>
</g>
</g>
<!-- Node9&#45;&gt;Node4 -->
<g id="edge11_Node000009_Node000004" class="edge">
<title>Node9&#45;&gt;Node4</title>
<g id="a_edge11_Node000009_Node000004"><a xlink:title=" ">
<path fill="none" stroke="#63b8ff" d="M314.09,-111.35C318.11,-110.5 322.12,-109.71 326,-109 433.9,-89.34 562.91,-74.74 624.23,-68.34"/>
<polygon fill="#63b8ff" stroke="#63b8ff" points="313.35,-107.93 304.33,-113.49 314.85,-114.76 313.35,-107.93"/>
</a>
</g>
</g>
<!-- Node10&#45;&gt;Node4 -->
<g id="edge13_Node000010_Node000004" class="edge">
<title>Node10&#45;&gt;Node4</title>
<g id="a_edge13_Node000010_Node000004"><a xlink:title=" ">
<path fill="none" stroke="#63b8ff" d="M553.25,-104.52C581.06,-94.16 614.78,-81.6 636.77,-73.4"/>
<polygon fill="#63b8ff" stroke="#63b8ff" points="552.09,-101.22 543.94,-107.99 554.53,-107.78 552.09,-101.22"/>
</a>
</g>
</g>
<!-- Node11&#45;&gt;Node4 -->
<g id="edge15_Node000011_Node000004" class="edge">
<title>Node11&#45;&gt;Node4</title>
<g id="a_edge15_Node000011_Node000004"><a xlink:title=" ">
<path fill="none" stroke="#63b8ff" d="M193.01,-111.78C198.73,-110.76 204.48,-109.81 210,-109 363.21,-86.53 547.48,-72.42 623.98,-67.12"/>
<polygon fill="#63b8ff" stroke="#63b8ff" points="192.81,-108.26 183.61,-113.51 194.08,-115.14 192.81,-108.26"/>
</a>
</g>
</g>
<!-- Node12&#45;&gt;Node4 -->
<g id="edge17_Node000012_Node000004" class="edge">
<title>Node12&#45;&gt;Node4</title>
<g id="a_edge17_Node000012_Node000004"><a xlink:title=" ">
<path fill="none" stroke="#63b8ff" d="M782.69,-109.88C752.71,-98.85 709.98,-83.13 683.67,-73.45"/>
<polygon fill="#63b8ff" stroke="#63b8ff" points="781.48,-113.16 792.08,-113.33 783.9,-106.59 781.48,-113.16"/>
</a>
</g>
</g>
<!-- Node13&#45;&gt;Node4 -->
<g id="edge19_Node000013_Node000004" class="edge">
<title>Node13&#45;&gt;Node4</title>
<g id="a_edge19_Node000013_Node000004"><a xlink:title=" ">
<path fill="none" stroke="#63b8ff" d="M511.22,-384.66C494.01,-370.93 467.43,-351.06 442,-337.5 271.45,-246.57 -74.63,-234.92 72,-109 113.89,-73.03 502.81,-66.26 624.07,-65.02"/>
<polygon fill="#63b8ff" stroke="#63b8ff" points="508.6,-387.04 518.57,-390.63 513.01,-381.61 508.6,-387.04"/>
</a>
</g>
</g>
<!-- Node13&#45;&gt;Node14 -->
<g id="edge20_Node000013_Node000014" class="edge">
<title>Node13&#45;&gt;Node14</title>
<g id="a_edge20_Node000013_Node000014"><a xlink:title=" ">
<path fill="none" stroke="#63b8ff" d="M536.45,-381.09C545.95,-355.52 566.01,-310.28 597,-283 616.92,-265.47 644.74,-254.25 667.03,-247.5"/>
<polygon fill="#63b8ff" stroke="#63b8ff" points="533.27,-379.59 533.23,-390.19 539.87,-381.93 533.27,-379.59"/>
</a>
</g>
</g>
<!-- Node13&#45;&gt;Node16 -->
<g id="edge33_Node000013_Node000016" class="edge">
<title>Node13&#45;&gt;Node16</title>
<g id="a_edge33_Node000013_Node000016"><a xlink:title=" ">
<path fill="none" stroke="#63b8ff" d="M570.02,-388.44C602.97,-378.73 648.92,-365.18 678.56,-356.43"/>
<polygon fill="#63b8ff" stroke="#63b8ff" points="569.45,-384.97 560.84,-391.15 571.43,-391.68 569.45,-384.97"/>
</a>
</g>
</g>
<!-- Node14&#45;&gt;Node2 -->
<g id="edge21_Node000014_Node000002" class="edge">
<title>Node14&#45;&gt;Node2</title>
<g id="a_edge21_Node000014_Node000002"><a xlink:title=" ">
<path fill="none" stroke="#63b8ff" d="M660.87,-225.2C624.53,-215.46 573.34,-201.75 540.41,-192.93"/>
<polygon fill="#63b8ff" stroke="#63b8ff" points="659.61,-228.48 670.17,-227.69 661.42,-221.72 659.61,-228.48"/>
</a>
</g>
</g>
<!-- Node14&#45;&gt;Node3 -->
<g id="edge22_Node000014_Node000003" class="edge">
<title>Node14&#45;&gt;Node3</title>
<g id="a_edge22_Node000014_Node000003"><a xlink:title=" ">
<path fill="none" stroke="#63b8ff" d="M702.6,-217.1C700.83,-192.33 697.88,-150.84 696.61,-133.03"/>
<polygon fill="#63b8ff" stroke="#63b8ff" points="699.09,-217.08 703.29,-226.8 706.07,-216.58 699.09,-217.08"/>
</a>
</g>
</g>
<!-- Node14&#45;&gt;Node4 -->
<g id="edge24_Node000014_Node000004" class="edge">
<title>Node14&#45;&gt;Node4</title>
<g id="a_edge24_Node000014_Node000004"><a xlink:title=" ">
<path fill="none" stroke="#63b8ff" d="M688.95,-219.25C673.95,-200.57 651.91,-169.38 643,-138 636.44,-114.89 648.09,-87.16 655.17,-73.39"/>
<polygon fill="#63b8ff" stroke="#63b8ff" points="686.19,-221.41 695.27,-226.88 691.58,-216.95 686.19,-221.41"/>
</a>
</g>
</g>
<!-- Node14&#45;&gt;Node5 -->
<g id="edge31_Node000014_Node000005" class="edge">
<title>Node14&#45;&gt;Node5</title>
<g id="a_edge31_Node000014_Node000005"><a xlink:title=" ">
<path fill="none" stroke="#63b8ff" d="M742.91,-224.62C797.03,-207.76 890.2,-178.76 906,-174 960.53,-157.55 994.85,-183.58 1029,-138 1074.96,-76.66 945.28,-35.8 876.18,-18.96"/>
<polygon fill="#63b8ff" stroke="#63b8ff" points="741.95,-221.26 733.44,-227.57 744.03,-227.94 741.95,-221.26"/>
</a>
</g>
</g>
<!-- Node14&#45;&gt;Node6 -->
<g id="edge23_Node000014_Node000006" class="edge">
<title>Node14&#45;&gt;Node6</title>
<g id="a_edge23_Node000014_Node000006"><a xlink:title=" ">
<path fill="none" stroke="#63b8ff" d="M735.26,-223.85C791.32,-200.72 907.5,-152.77 955.04,-133.15"/>
<polygon fill="#63b8ff" stroke="#63b8ff" points="734.2,-220.5 726.29,-227.55 736.87,-226.97 734.2,-220.5"/>
</a>
</g>
</g>
<!-- Node14&#45;&gt;Node7 -->
<g id="edge25_Node000014_Node000007" class="edge">
<title>Node14&#45;&gt;Node7</title>
<g id="a_edge25_Node000014_Node000007"><a xlink:title=" ">
<path fill="none" stroke="#63b8ff" d="M765.4,-226.45C805.85,-218.9 859.71,-207.38 906,-192.5 925.81,-186.13 929.51,-181.28 949,-174 998.38,-155.56 1013.64,-158.97 1062,-138 1106.94,-118.51 1156.53,-88.14 1179.69,-73.38"/>
<polygon fill="#63b8ff" stroke="#63b8ff" points="764.79,-223.01 755.58,-228.25 766.05,-229.89 764.79,-223.01"/>
</a>
</g>
</g>
<!-- Node14&#45;&gt;Node8 -->
<g id="edge27_Node000014_Node000008" class="edge">
<title>Node14&#45;&gt;Node8</title>
<g id="a_edge27_Node000014_Node000008"><a xlink:title=" ">
<path fill="none" stroke="#63b8ff" d="M642.79,-237.21C588.29,-235.15 507.99,-225.9 447,-192.5 420.38,-177.92 399.12,-147.53 389.93,-132.82"/>
<polygon fill="#63b8ff" stroke="#63b8ff" points="642.4,-240.7 652.5,-237.5 642.61,-233.7 642.4,-240.7"/>
</a>
</g>
</g>
<!-- Node14&#45;&gt;Node9 -->
<g id="edge28_Node000014_Node000009" class="edge">
<title>Node14&#45;&gt;Node9</title>
<g id="a_edge28_Node000014_Node000009"><a xlink:title=" ">
<path fill="none" stroke="#63b8ff" d="M642.91,-231.96C584.69,-226.3 495.03,-214.69 420,-192.5 367.88,-177.08 310.34,-147.64 283.44,-133.08"/>
<polygon fill="#63b8ff" stroke="#63b8ff" points="642.33,-235.42 652.62,-232.88 642.99,-228.46 642.33,-235.42"/>
</a>
</g>
</g>
<!-- Node14&#45;&gt;Node10 -->
<g id="edge29_Node000014_Node000010" class="edge">
<title>Node14&#45;&gt;Node10</title>
<g id="a_edge29_Node000014_Node000010"><a xlink:title=" ">
<path fill="none" stroke="#63b8ff" d="M678.87,-222.57C640.53,-200.95 567.87,-159.96 529.76,-138.46"/>
<polygon fill="#63b8ff" stroke="#63b8ff" points="676.97,-225.52 687.4,-227.38 680.41,-219.42 676.97,-225.52"/>
</a>
</g>
</g>
<!-- Node14&#45;&gt;Node11 -->
<g id="edge30_Node000014_Node000011" class="edge">
<title>Node14&#45;&gt;Node11</title>
<g id="a_edge30_Node000014_Node000011"><a xlink:title=" ">
<path fill="none" stroke="#63b8ff" d="M642.64,-231.59C575.08,-225.22 463.5,-212.7 369,-192.5 293.46,-176.35 206.62,-147.51 165.3,-133.14"/>
<polygon fill="#63b8ff" stroke="#63b8ff" points="642.13,-235.06 652.41,-232.49 642.77,-228.09 642.13,-235.06"/>
</a>
</g>
</g>
<!-- Node14&#45;&gt;Node12 -->
<g id="edge32_Node000014_Node000012" class="edge">
<title>Node14&#45;&gt;Node12</title>
<g id="a_edge32_Node000014_Node000012"><a xlink:title=" ">
<path fill="none" stroke="#63b8ff" d="M720.46,-220.4C744.84,-196.18 789.67,-151.65 808.41,-133.03"/>
<polygon fill="#63b8ff" stroke="#63b8ff" points="718.2,-217.72 713.57,-227.25 723.13,-222.68 718.2,-217.72"/>
</a>
</g>
</g>
<!-- Node15 -->
<g id="Node000015" class="node">
<title>Node15</title>
<g id="a_Node000015"><a xlink:href="coverage__system_8cpp.html" target="_top" xlink:title="Contains the implementation of the CoverageSystem class.">
<polygon fill="white" stroke="#666666" points="1067.88,-192.5 958.12,-192.5 958.12,-174 1067.88,-174 1067.88,-192.5"/>
<text text-anchor="middle" x="1013" y="-179" font-family="Helvetica,sans-Serif" font-size="10.00">coverage_system.cpp</text>
</a>
</g>
</g>
<!-- Node14&#45;&gt;Node15 -->
<g id="edge26_Node000014_Node000015" class="edge">
<title>Node14&#45;&gt;Node15</title>
<g id="a_edge26_Node000014_Node000015"><a xlink:title=" ">
<path fill="none" stroke="#63b8ff" d="M765.09,-226.37C822.51,-216.62 907.48,-202.18 961.54,-192.99"/>
<polygon fill="#63b8ff" stroke="#63b8ff" points="764.75,-222.88 755.48,-228 765.93,-229.78 764.75,-222.88"/>
</a>
</g>
</g>
<!-- Node16&#45;&gt;Node4 -->
<g id="edge34_Node000016_Node000004" class="edge">
<title>Node16&#45;&gt;Node4</title>
<g id="a_edge34_Node000016_Node000004"><a xlink:title=" ">
<path fill="none" stroke="#63b8ff" d="M733.28,-331.54C796.58,-294.23 952.17,-190.66 885,-109 861.48,-80.41 753.36,-70 695.99,-66.45"/>
<polygon fill="#63b8ff" stroke="#63b8ff" points="731.82,-328.34 724.93,-336.39 735.33,-334.4 731.82,-328.34"/>
</a>
</g>
</g>
<!-- Node16&#45;&gt;Node7 -->
<g id="edge35_Node000016_Node000007" class="edge">
<title>Node16&#45;&gt;Node7</title>
<g id="a_edge35_Node000016_Node000007"><a xlink:title=" ">
<path fill="none" stroke="#63b8ff" d="M750.09,-337.33C829.31,-327.48 992.21,-335.79 1046,-301.5 1136.57,-243.77 1180.6,-108.13 1190.7,-73.11"/>
<polygon fill="#63b8ff" stroke="#63b8ff" points="749.93,-333.82 740.53,-338.71 750.93,-340.75 749.93,-333.82"/>
</a>
</g>
</g>
<!-- Node16&#45;&gt;Node14 -->
<g id="edge36_Node000016_Node000014" class="edge">
<title>Node16&#45;&gt;Node14</title>
<g id="a_edge36_Node000016_Node000014"><a xlink:title=" ">
<path fill="none" stroke="#63b8ff" d="M718.44,-327.28C724.2,-314.85 729.53,-298.04 726,-283 722.9,-269.8 715.25,-256.04 709.84,-247.44"/>
<polygon fill="#63b8ff" stroke="#63b8ff" points="715.45,-325.46 713.97,-335.95 721.67,-328.67 715.45,-325.46"/>
</a>
</g>
</g>
<!-- Node16&#45;&gt;Node17 -->
<g id="edge37_Node000016_Node000017" class="edge">
<title>Node16&#45;&gt;Node17</title>
<g id="a_edge37_Node000016_Node000017"><a xlink:title=" ">
<path fill="none" stroke="#63b8ff" d="M697.34,-327.09C692.39,-318.44 686.77,-308.59 682.86,-301.76"/>
<polygon fill="#63b8ff" stroke="#63b8ff" points="694.29,-328.82 702.3,-335.77 700.37,-325.35 694.29,-328.82"/>
</a>
</g>
</g>
<!-- Node17&#45;&gt;Node4 -->
<g id="edge38_Node000017_Node000004" class="edge">
<title>Node17&#45;&gt;Node4</title>
<g id="a_edge38_Node000017_Node000004"><a xlink:title=" ">
<path fill="none" stroke="#63b8ff" d="M661.75,-274.33C655.35,-266.61 648.67,-256.98 645,-247 623.8,-189.36 623.96,-168.79 638,-109 641.1,-95.8 648.75,-82.04 654.16,-73.44"/>
<polygon fill="#63b8ff" stroke="#63b8ff" points="658.92,-276.42 668.18,-281.56 664.15,-271.76 658.92,-276.42"/>
</a>
</g>
</g>
<!-- Node17&#45;&gt;Node14 -->
<g id="edge39_Node000017_Node000014" class="edge">
<title>Node17&#45;&gt;Node14</title>
<g id="a_edge39_Node000017_Node000014"><a xlink:title=" ">
<path fill="none" stroke="#63b8ff" d="M687.39,-272.3C691.63,-263.72 696.44,-254.02 699.79,-247.26"/>
<polygon fill="#63b8ff" stroke="#63b8ff" points="684.27,-270.71 682.97,-281.22 690.54,-273.82 684.27,-270.71"/>
</a>
</g>
</g>
<!-- Node19&#45;&gt;Node9 -->
<g id="edge49_Node000019_Node000009" class="edge">
<title>Node19&#45;&gt;Node9</title>
<g id="a_edge49_Node000019_Node000009"><a xlink:title=" ">
<path fill="none" stroke="#63b8ff" d="M167.73,-169.04C192.48,-158.05 227,-142.71 248.4,-133.2"/>
<polygon fill="#63b8ff" stroke="#63b8ff" points="166.56,-165.73 158.85,-172.99 169.41,-172.13 166.56,-165.73"/>
</a>
</g>
</g>
<!-- Node19&#45;&gt;Node11 -->
<g id="edge50_Node000019_Node000011" class="edge">
<title>Node19&#45;&gt;Node11</title>
<g id="a_edge50_Node000019_Node000011"><a xlink:title=" ">
<path fill="none" stroke="#63b8ff" d="M139.03,-162.33C139.55,-152.33 140.16,-140.75 140.56,-133.06"/>
<polygon fill="#63b8ff" stroke="#63b8ff" points="135.54,-162.05 138.52,-172.22 142.54,-162.41 135.54,-162.05"/>
</a>
</g>
</g>
<!-- Node20&#45;&gt;Node14 -->
<g id="edge55_Node000020_Node000014" class="edge">
<title>Node20&#45;&gt;Node14</title>
<g id="a_edge55_Node000020_Node000014"><a xlink:title=" ">
<path fill="none" stroke="#63b8ff" d="M973.79,-284.89C918.77,-275.48 815.59,-257.83 754.01,-247.3"/>
<polygon fill="#63b8ff" stroke="#63b8ff" points="973.15,-288.33 983.6,-286.56 974.33,-281.43 973.15,-288.33"/>
</a>
</g>
</g>
<!-- Node20&#45;&gt;Node15 -->
<g id="edge54_Node000020_Node000015" class="edge">
<title>Node20&#45;&gt;Node15</title>
<g id="a_edge54_Node000020_Node000015"><a xlink:title=" ">
<path fill="none" stroke="#63b8ff" d="M1002.82,-272.36C998.43,-259.95 994.4,-243.33 997,-228.5 999.26,-215.63 1004.94,-201.56 1008.89,-192.82"/>
<polygon fill="#63b8ff" stroke="#63b8ff" points="999.45,-273.36 1006.38,-281.37 1005.96,-270.78 999.45,-273.36"/>
</a>
</g>
</g>
<!-- Node21 -->
<g id="Node000021" class="node">
<title>Node21</title>
<g id="a_Node000021"><a xlink:href="plotter_8cpp.html" target="_top" xlink:title="Helper function to plot maps.">
<polygon fill="white" stroke="#666666" points="1067.88,-247 1006.12,-247 1006.12,-228.5 1067.88,-228.5 1067.88,-247"/>
<text text-anchor="middle" x="1037" y="-233.5" font-family="Helvetica,sans-Serif" font-size="10.00">plotter.cpp</text>
</a>
</g>
</g>
<!-- Node20&#45;&gt;Node21 -->
<g id="edge56_Node000020_Node000021" class="edge">
<title>Node20&#45;&gt;Node21</title>
<g id="a_edge56_Node000020_Node000021"><a xlink:title=" ">
<path fill="none" stroke="#63b8ff" d="M1020.39,-272.3C1024.63,-263.72 1029.44,-254.02 1032.79,-247.26"/>
<polygon fill="#63b8ff" stroke="#63b8ff" points="1017.27,-270.71 1015.97,-281.22 1023.54,-273.82 1017.27,-270.71"/>
</a>
</g>
</g>
<!-- Node22&#45;&gt;Node16 -->
<g id="edge59_Node000022_Node000016" class="edge">
<title>Node22&#45;&gt;Node16</title>
<g id="a_edge59_Node000022_Node000016"><a xlink:title=" ">
<path fill="none" stroke="#63b8ff" d="M755.85,-384.7C743.8,-375.39 728.95,-363.93 719.02,-356.26"/>
<polygon fill="#63b8ff" stroke="#63b8ff" points="753.52,-387.31 763.57,-390.66 757.8,-381.77 753.52,-387.31"/>
</a>
</g>
</g>
<!-- Node23 -->
<g id="Node000023" class="node">
<title>Node23</title>
<g id="a_Node000023"><a xlink:href="polygon__utils_8cpp.html" target="_top" xlink:title="Helper functions for polygon operations using CGAL.">
<polygon fill="white" stroke="#666666" points="847.5,-356 756.5,-356 756.5,-337.5 847.5,-337.5 847.5,-356"/>
<text text-anchor="middle" x="802" y="-342.5" font-family="Helvetica,sans-Serif" font-size="10.00">polygon_utils.cpp</text>
</a>
</g>
</g>
<!-- Node22&#45;&gt;Node23 -->
<g id="edge58_Node000022_Node000023" class="edge">
<title>Node22&#45;&gt;Node23</title>
<g id="a_edge58_Node000022_Node000023"><a xlink:title=" ">
<path fill="none" stroke="#63b8ff" d="M785.39,-381.3C789.63,-372.72 794.44,-363.02 797.79,-356.26"/>
<polygon fill="#63b8ff" stroke="#63b8ff" points="782.27,-379.71 780.97,-390.22 788.54,-382.82 782.27,-379.71"/>
</a>
</g>
</g>
<!-- Node24&#45;&gt;Node23 -->
<g id="edge63_Node000024_Node000023" class="edge">
<title>Node24&#45;&gt;Node23</title>
<g id="a_edge63_Node000024_Node000023"><a xlink:title=" ">
<path fill="none" stroke="#63b8ff" d="M843.59,-384.14C833.07,-374.94 820.31,-363.77 811.72,-356.26"/>
<polygon fill="#63b8ff" stroke="#63b8ff" points="841.12,-386.63 850.95,-390.58 845.73,-381.36 841.12,-386.63"/>
</a>
</g>
</g>
<!-- Node25 -->
<g id="Node000025" class="node">
<title>Node25</title>
<g id="a_Node000025"><a xlink:href="voronoi_8cpp.html" target="_top" xlink:title="Functions to compute Centroidal Voronoi Tessellation.">
<polygon fill="white" stroke="#666666" points="890.75,-301.5 825.25,-301.5 825.25,-283 890.75,-283 890.75,-301.5"/>
<text text-anchor="middle" x="858" y="-288" font-family="Helvetica,sans-Serif" font-size="10.00">voronoi.cpp</text>
</a>
</g>
</g>
<!-- Node24&#45;&gt;Node25 -->
<g id="edge64_Node000024_Node000025" class="edge">
<title>Node24&#45;&gt;Node25</title>
<g id="a_edge64_Node000024_Node000025"><a xlink:title=" ">
<path fill="none" stroke="#63b8ff" d="M861.26,-380.56C860.39,-357.09 858.96,-318.91 858.32,-301.9"/>
<polygon fill="#63b8ff" stroke="#63b8ff" points="857.76,-380.48 861.63,-390.34 864.75,-380.22 857.76,-380.48"/>
</a>
</g>
</g>
<!-- Node26&#45;&gt;Node4 -->
<g id="edge66_Node000026_Node000004" class="edge">
<title>Node26&#45;&gt;Node4</title>
<g id="a_edge66_Node000026_Node000004"><a xlink:title=" ">
<path fill="none" stroke="#63b8ff" d="M971.09,-346C1005.68,-343.88 1054.36,-334.65 1079,-301.5 1131.73,-230.56 1105.4,-153.46 1029,-109 972.96,-76.39 777.44,-67.71 696.02,-65.48"/>
<polygon fill="#63b8ff" stroke="#63b8ff" points="971.32,-342.49 961.47,-346.41 971.61,-349.48 971.32,-342.49"/>
</a>
</g>
</g>
<!-- Node26&#45;&gt;Node14 -->
<g id="edge67_Node000026_Node000014" class="edge">
<title>Node26&#45;&gt;Node14</title>
<g id="a_edge67_Node000026_Node000014"><a xlink:title=" ">
<path fill="none" stroke="#63b8ff" d="M926.95,-326.39C922.28,-312.27 913.89,-293.79 900,-283 858.13,-250.46 796.88,-240.96 754.03,-238.62"/>
<polygon fill="#63b8ff" stroke="#63b8ff" points="923.57,-327.3 929.74,-335.92 930.29,-325.34 923.57,-327.3"/>
</a>
</g>
</g>
<!-- Node26&#45;&gt;Node17 -->
<g id="edge69_Node000026_Node000017" class="edge">
<title>Node26&#45;&gt;Node17</title>
<g id="a_edge69_Node000026_Node000017"><a xlink:title=" ">
<path fill="none" stroke="#63b8ff" d="M893.25,-337.74C845.58,-327.89 765.12,-311.26 717.24,-301.36"/>
<polygon fill="#63b8ff" stroke="#63b8ff" points="892.35,-341.13 902.85,-339.73 893.77,-334.27 892.35,-341.13"/>
</a>
</g>
</g>
<!-- Node26&#45;&gt;Node20 -->
<g id="edge68_Node000026_Node000020" class="edge">
<title>Node26&#45;&gt;Node20</title>
<g id="a_edge68_Node000026_Node000020"><a xlink:title=" ">
<path fill="none" stroke="#63b8ff" d="M954.51,-330.79C968.56,-321.45 986.15,-309.76 997.94,-301.93"/>
<polygon fill="#63b8ff" stroke="#63b8ff" points="952.7,-327.79 946.31,-336.24 956.57,-333.62 952.7,-327.79"/>
</a>
</g>
</g>
<!-- Node26&#45;&gt;Node25 -->
<g id="edge70_Node000026_Node000025" class="edge">
<title>Node26&#45;&gt;Node25</title>
<g id="a_edge70_Node000026_Node000025"><a xlink:title=" ">
<path fill="none" stroke="#63b8ff" d="M910.53,-330.52C897.43,-321.23 881.17,-309.69 870.24,-301.93"/>
<polygon fill="#63b8ff" stroke="#63b8ff" points="908.36,-333.27 918.55,-336.2 912.42,-327.56 908.36,-333.27"/>
</a>
</g>
</g>
</g>
</svg>
