<?xml version="1.0" encoding="UTF-8" standalone="no"?>
<!DOCTYPE svg PUBLIC "-//W3C//DTD SVG 1.1//EN"
 "http://www.w3.org/Graphics/SVG/1.1/DTD/svg11.dtd">
<!-- Generated by graphviz version 10.0.1 (0)
 -->
<!-- Title: typedefs.h Pages: 1 -->
<svg width="200pt" height="81pt"
 viewBox="0.00 0.00 200.25 81.00" xmlns="http://www.w3.org/2000/svg" xmlns:xlink="http://www.w3.org/1999/xlink">
<g id="graph0" class="graph" transform="scale(1 1) rotate(0) translate(4 77)">
<title>typedefs.h</title>
<!-- Node1 -->
<g id="Node000001" class="node">
<title>Node1</title>
<g id="a_Node000001"><a xlink:title="Contains typedefs for the library.">
<polygon fill="#999999" stroke="#666666" points="142,-73 80.25,-73 80.25,-54.5 142,-54.5 142,-73"/>
<text text-anchor="middle" x="111.12" y="-59.5" font-family="Helvetica,sans-Serif" font-size="10.00">typedefs.h</text>
</a>
</g>
</g>
<!-- Node2 -->
<g id="Node000002" class="node">
<title>Node2</title>
<g id="a_Node000002"><a xlink:title=" ">
<polygon fill="#e0e0e0" stroke="#999999" points="72.25,-18.5 0,-18.5 0,0 72.25,0 72.25,-18.5"/>
<text text-anchor="middle" x="36.12" y="-5" font-family="Helvetica,sans-Serif" font-size="10.00">Eigen/Dense</text>
</a>
</g>
</g>
<!-- Node1&#45;&gt;Node2 -->
<g id="edge1_Node000001_Node000002" class="edge">
<title>Node1&#45;&gt;Node2</title>
<g id="a_edge1_Node000001_Node000002"><a xlink:title=" ">
<path fill="none" stroke="#63b8ff" d="M98.74,-54.08C87.67,-46.33 71.19,-34.79 57.91,-25.5"/>
<polygon fill="#63b8ff" stroke="#63b8ff" points="59.97,-22.67 49.77,-19.8 55.95,-28.4 59.97,-22.67"/>
</a>
</g>
</g>
<!-- Node3 -->
<g id="Node000003" class="node">
<title>Node3</title>
<g id="a_Node000003"><a xlink:title=" ">
<polygon fill="#e0e0e0" stroke="#999999" points="132.25,-18.5 90,-18.5 90,0 132.25,0 132.25,-18.5"/>
<text text-anchor="middle" x="111.12" y="-5" font-family="Helvetica,sans-Serif" font-size="10.00">queue</text>
</a>
</g>
</g>
<!-- Node1&#45;&gt;Node3 -->
<g id="edge2_Node000001_Node000003" class="edge">
<title>Node1&#45;&gt;Node3</title>
<g id="a_edge2_Node000001_Node000003"><a xlink:title=" ">
<path fill="none" stroke="#63b8ff" d="M111.12,-54.08C111.12,-47.58 111.12,-38.42 111.12,-30.16"/>
<polygon fill="#63b8ff" stroke="#63b8ff" points="114.63,-30.27 111.13,-20.27 107.63,-30.27 114.63,-30.27"/>
</a>
</g>
</g>
<!-- Node4 -->
<g id="Node000004" class="node">
<title>Node4</title>
<g id="a_Node000004"><a xlink:title=" ">
<polygon fill="#e0e0e0" stroke="#999999" points="192.25,-18.5 150,-18.5 150,0 192.25,0 192.25,-18.5"/>
<text text-anchor="middle" x="171.12" y="-5" font-family="Helvetica,sans-Serif" font-size="10.00">vector</text>
</a>
</g>
</g>
<!-- Node1&#45;&gt;Node4 -->
<g id="edge3_Node000001_Node000004" class="edge">
<title>Node1&#45;&gt;Node4</title>
<g id="a_edge3_Node000001_Node000004"><a xlink:title=" ">
<path fill="none" stroke="#63b8ff" d="M121.03,-54.08C129.68,-46.51 142.46,-35.33 152.94,-26.16"/>
<polygon fill="#63b8ff" stroke="#63b8ff" points="155.04,-28.97 160.26,-19.75 150.43,-23.71 155.04,-28.97"/>
</a>
</g>
</g>
</g>
</svg>
