<?xml version="1.0" encoding="UTF-8" standalone="no"?>
<!DOCTYPE svg PUBLIC "-//W3C//DTD SVG 1.1//EN"
 "http://www.w3.org/Graphics/SVG/1.1/DTD/svg11.dtd">
<!-- Generated by graphviz version 10.0.1 (0)
 -->
<!-- Title: typedefs.h Pages: 1 -->
<svg width="1238pt" height="419pt"
 viewBox="0.00 0.00 1237.88 418.50" xmlns="http://www.w3.org/2000/svg" xmlns:xlink="http://www.w3.org/1999/xlink">
<g id="graph0" class="graph" transform="scale(1 1) rotate(0) translate(4 414.5)">
<title>typedefs.h</title>
<!-- Node1 -->
<g id="Node000001" class="node">
<title>Node1</title>
<g id="a_Node000001"><a xlink:title="Contains typedefs for the library.">
<polygon fill="#999999" stroke="#666666" points="588.25,-410.5 526.5,-410.5 526.5,-392 588.25,-392 588.25,-410.5"/>
<text text-anchor="middle" x="557.38" y="-397" font-family="Helvetica,sans-Serif" font-size="10.00">typedefs.h</text>
</a>
</g>
</g>
<!-- Node2 -->
<g id="Node000002" class="node">
<title>Node2</title>
<g id="a_Node000002"><a xlink:href="abstract__controller_8h.html" target="_top" xlink:title="Contains the abstract class for coverage control algorithms.">
<polygon fill="white" stroke="#666666" points="420.62,-138 316.12,-138 316.12,-119.5 420.62,-119.5 420.62,-138"/>
<text text-anchor="middle" x="368.38" y="-124.5" font-family="Helvetica,sans-Serif" font-size="10.00">abstract_controller.h</text>
</a>
</g>
</g>
<!-- Node1&#45;&gt;Node2 -->
<g id="edge1_Node000001_Node000002" class="edge">
<title>Node1&#45;&gt;Node2</title>
<g id="a_edge1_Node000001_Node000002"><a xlink:title=" ">
<path fill="none" stroke="#63b8ff" d="M514.61,-397.92C449.66,-393.58 330.23,-382.21 297.38,-356 273.77,-337.18 271.38,-323.44 271.38,-293.25 271.38,-293.25 271.38,-293.25 271.38,-236.75 271.38,-189.61 323.69,-154 351.48,-138.41"/>
<polygon fill="#63b8ff" stroke="#63b8ff" points="514.36,-401.41 524.56,-398.56 514.8,-394.43 514.36,-401.41"/>
</a>
</g>
</g>
<!-- Node3 -->
<g id="Node000003" class="node">
<title>Node3</title>
<g id="a_Node000003"><a xlink:href="centralized__cvt_8h.html" target="_top" xlink:title="Contains the class CentralizedCVT.">
<polygon fill="white" stroke="#666666" points="88.75,-78.25 0,-78.25 0,-59.75 88.75,-59.75 88.75,-78.25"/>
<text text-anchor="middle" x="44.38" y="-64.75" font-family="Helvetica,sans-Serif" font-size="10.00">centralized_cvt.h</text>
</a>
</g>
</g>
<!-- Node1&#45;&gt;Node3 -->
<g id="edge27_Node000001_Node000003" class="edge">
<title>Node1&#45;&gt;Node3</title>
<g id="a_edge27_Node000001_Node000003"><a xlink:title=" ">
<path fill="none" stroke="#63b8ff" d="M515.02,-399.35C419.51,-396.79 190.21,-387.45 120.38,-356 82.88,-339.12 52.38,-334.37 52.38,-293.25 52.38,-293.25 52.38,-293.25 52.38,-182.25 52.38,-143.57 47.59,-97.57 45.42,-78.72"/>
<polygon fill="#63b8ff" stroke="#63b8ff" points="514.66,-402.84 524.74,-399.6 514.83,-395.85 514.66,-402.84"/>
</a>
</g>
</g>
<!-- Node4 -->
<g id="Node000004" class="node">
<title>Node4</title>
<g id="a_Node000004"><a xlink:href="clairvoyant__cvt_8h.html" target="_top" xlink:title="Clairvoyant CVT algorithm.">
<polygon fill="white" stroke="#666666" points="655.75,-78.25 567,-78.25 567,-59.75 655.75,-59.75 655.75,-78.25"/>
<text text-anchor="middle" x="611.38" y="-64.75" font-family="Helvetica,sans-Serif" font-size="10.00">clairvoyant_cvt.h</text>
</a>
</g>
</g>
<!-- Node1&#45;&gt;Node4 -->
<g id="edge28_Node000001_Node000004" class="edge">
<title>Node1&#45;&gt;Node4</title>
<g id="a_edge28_Node000001_Node000004"><a xlink:title=" ">
<path fill="none" stroke="#63b8ff" d="M600.17,-396.98C653.19,-391.94 738.92,-380.21 758.38,-356 777.25,-332.52 962.52,-410.85 747.38,-119.5 726.25,-90.9 686.93,-78.79 655.98,-73.68"/>
<polygon fill="#63b8ff" stroke="#63b8ff" points="599.9,-393.49 590.26,-397.88 600.53,-400.47 599.9,-393.49"/>
</a>
</g>
</g>
<!-- Node5 -->
<g id="Node000005" class="node">
<title>Node5</title>
<g id="a_Node000005"><a xlink:href="coverage__algorithm_8cpp.html" target="_top" xlink:title="Program to test the CVT&#45;based (Lloyd&#39;s) coverage control algorithms.">
<polygon fill="white" stroke="#666666" points="765.75,-18.5 647,-18.5 647,0 765.75,0 765.75,-18.5"/>
<text text-anchor="middle" x="706.38" y="-5" font-family="Helvetica,sans-Serif" font-size="10.00">coverage_algorithm.cpp</text>
</a>
</g>
</g>
<!-- Node1&#45;&gt;Node5 -->
<g id="edge29_Node000001_Node000005" class="edge">
<title>Node1&#45;&gt;Node5</title>
<g id="a_edge29_Node000001_Node000005"><a xlink:title=" ">
<path fill="none" stroke="#63b8ff" d="M599.84,-400.56C724.45,-400.33 1080.38,-391.11 1080.38,-293.25 1080.38,-293.25 1080.38,-293.25 1080.38,-127.75 1080.38,-87.57 1061.83,-75.18 1027.38,-54.5 984.51,-28.76 846.42,-17.43 766,-12.91"/>
<polygon fill="#63b8ff" stroke="#63b8ff" points="600.04,-397.06 590.04,-400.56 600.04,-404.06 600.04,-397.06"/>
</a>
</g>
</g>
<!-- Node6 -->
<g id="Node000006" class="node">
<title>Node6</title>
<g id="a_Node000006"><a xlink:href="decentralized__cvt_8h.html" target="_top" xlink:title="Contains the DecentralizedCVT class.">
<polygon fill="white" stroke="#666666" points="464,-78.25 364.75,-78.25 364.75,-59.75 464,-59.75 464,-78.25"/>
<text text-anchor="middle" x="414.38" y="-64.75" font-family="Helvetica,sans-Serif" font-size="10.00">decentralized_cvt.h</text>
</a>
</g>
</g>
<!-- Node1&#45;&gt;Node6 -->
<g id="edge31_Node000001_Node000006" class="edge">
<title>Node1&#45;&gt;Node6</title>
<g id="a_edge31_Node000001_Node000006"><a xlink:title=" ">
<path fill="none" stroke="#63b8ff" d="M514.57,-397.37C414.63,-389.48 174.38,-363.24 174.38,-293.25 174.38,-293.25 174.38,-293.25 174.38,-182.25 174.38,-137.63 312.2,-96.17 378.96,-78.71"/>
<polygon fill="#63b8ff" stroke="#63b8ff" points="514.29,-400.86 524.52,-398.13 514.82,-393.88 514.29,-400.86"/>
</a>
</g>
</g>
<!-- Node7 -->
<g id="Node000007" class="node">
<title>Node7</title>
<g id="a_Node000007"><a xlink:href="near__optimal__cvt_8h.html" target="_top" xlink:title="NearOptimalCVT class Global offline oracle: has complete information about the environment....">
<polygon fill="white" stroke="#666666" points="1018.25,-78.25 920.5,-78.25 920.5,-59.75 1018.25,-59.75 1018.25,-78.25"/>
<text text-anchor="middle" x="969.38" y="-64.75" font-family="Helvetica,sans-Serif" font-size="10.00">near_optimal_cvt.h</text>
</a>
</g>
</g>
<!-- Node1&#45;&gt;Node7 -->
<g id="edge33_Node000001_Node000007" class="edge">
<title>Node1&#45;&gt;Node7</title>
<g id="a_edge33_Node000001_Node000007"><a xlink:title=" ">
<path fill="none" stroke="#63b8ff" d="M599.89,-399.88C718.15,-397.7 1042.38,-383.49 1042.38,-293.25 1042.38,-293.25 1042.38,-293.25 1042.38,-182.25 1042.38,-153.11 1038.89,-144.17 1023.38,-119.5 1012.68,-102.49 994.61,-87.62 982.35,-78.73"/>
<polygon fill="#63b8ff" stroke="#63b8ff" points="599.91,-396.37 589.97,-400.04 600.02,-403.37 599.91,-396.37"/>
</a>
</g>
</g>
<!-- Node8 -->
<g id="Node000008" class="node">
<title>Node8</title>
<g id="a_Node000008"><a xlink:href="oracle__bang__explore__exploit_8h.html" target="_top" xlink:title="First trial of oracle with exploration and exploitation. The oracle uses complete information about t...">
<polygon fill="white" stroke="#666666" points="212,-83.5 106.75,-83.5 106.75,-54.5 212,-54.5 212,-83.5"/>
<text text-anchor="start" x="114.75" y="-70" font-family="Helvetica,sans-Serif" font-size="10.00">oracle_bang_explore</text>
<text text-anchor="middle" x="159.38" y="-59.5" font-family="Helvetica,sans-Serif" font-size="10.00">_exploit.h</text>
</a>
</g>
</g>
<!-- Node1&#45;&gt;Node8 -->
<g id="edge37_Node000001_Node000008" class="edge">
<title>Node1&#45;&gt;Node8</title>
<g id="a_edge37_Node000001_Node000008"><a xlink:title=" ">
<path fill="none" stroke="#63b8ff" d="M515.06,-398.97C426.35,-395.74 224.04,-385.3 162.38,-356 126.39,-338.9 98.38,-333.09 98.38,-293.25 98.38,-293.25 98.38,-293.25 98.38,-182.25 98.38,-142.77 127.87,-103.92 145.84,-83.92"/>
<polygon fill="#63b8ff" stroke="#63b8ff" points="514.67,-402.46 524.78,-399.31 514.91,-395.47 514.67,-402.46"/>
</a>
</g>
</g>
<!-- Node9 -->
<g id="Node000009" class="node">
<title>Node9</title>
<g id="a_Node000009"><a xlink:href="oracle__explore__exploit_8h.html" target="_top" xlink:title="Old trial of exploration and exploitation Uses system map for exploration as well.">
<polygon fill="white" stroke="#666666" points="902.5,-78.25 782.25,-78.25 782.25,-59.75 902.5,-59.75 902.5,-78.25"/>
<text text-anchor="middle" x="842.38" y="-64.75" font-family="Helvetica,sans-Serif" font-size="10.00">oracle_explore_exploit.h</text>
</a>
</g>
</g>
<!-- Node1&#45;&gt;Node9 -->
<g id="edge38_Node000001_Node000009" class="edge">
<title>Node1&#45;&gt;Node9</title>
<g id="a_edge38_Node000001_Node000009"><a xlink:title=" ">
<path fill="none" stroke="#63b8ff" d="M599.87,-395.8C655.11,-389.31 747.79,-375.84 775.38,-356 868.53,-289 849.69,-118.85 843.76,-78.62"/>
<polygon fill="#63b8ff" stroke="#63b8ff" points="599.73,-392.29 590.19,-396.9 600.52,-399.25 599.73,-392.29"/>
</a>
</g>
</g>
<!-- Node10 -->
<g id="Node000010" class="node">
<title>Node10</title>
<g id="a_Node000010"><a xlink:href="simul__explore__exploit_8h.html" target="_top" xlink:title="Simultaneous exploration and exploitation algorithm Uses frontier&#45;based exploration with bias towards...">
<polygon fill="white" stroke="#666666" points="347,-78.25 229.75,-78.25 229.75,-59.75 347,-59.75 347,-78.25"/>
<text text-anchor="middle" x="288.38" y="-64.75" font-family="Helvetica,sans-Serif" font-size="10.00">simul_explore_exploit.h</text>
</a>
</g>
</g>
<!-- Node1&#45;&gt;Node10 -->
<g id="edge47_Node000001_Node000010" class="edge">
<title>Node1&#45;&gt;Node10</title>
<g id="a_edge47_Node000001_Node000010"><a xlink:title=" ">
<path fill="none" stroke="#63b8ff" d="M515.02,-397.86C434.85,-392.85 264.14,-379.69 210.38,-356 170.92,-338.61 136.38,-336.37 136.38,-293.25 136.38,-293.25 136.38,-293.25 136.38,-182.25 136.38,-123.86 209.86,-92.4 254.64,-78.65"/>
<polygon fill="#63b8ff" stroke="#63b8ff" points="514.46,-401.33 524.66,-398.45 514.89,-394.35 514.46,-401.33"/>
</a>
</g>
</g>
<!-- Node11 -->
<g id="Node000011" class="node">
<title>Node11</title>
<g id="a_Node000011"><a xlink:href="bivariate__normal__distribution_8h.html" target="_top" xlink:title="Class for Bivariate Normal Distribution.">
<polygon fill="white" stroke="#666666" points="733,-356 585.75,-356 585.75,-337.5 733,-337.5 733,-356"/>
<text text-anchor="middle" x="659.38" y="-342.5" font-family="Helvetica,sans-Serif" font-size="10.00">bivariate_normal_distribution.h</text>
</a>
</g>
</g>
<!-- Node1&#45;&gt;Node11 -->
<g id="edge10_Node000001_Node000011" class="edge">
<title>Node1&#45;&gt;Node11</title>
<g id="a_edge10_Node000001_Node000011"><a xlink:title=" ">
<path fill="none" stroke="#63b8ff" d="M584.35,-386.36C602.81,-376.87 626.7,-364.57 642.51,-356.43"/>
<polygon fill="#63b8ff" stroke="#63b8ff" points="582.85,-383.2 575.56,-390.89 586.06,-389.42 582.85,-383.2"/>
</a>
</g>
</g>
<!-- Node12 -->
<g id="Node000012" class="node">
<title>Node12</title>
<g id="a_Node000012"><a xlink:href="coverage__system_8h.html" target="_top" xlink:title="The file contains the CoverageSystem class, which is the main class for the coverage control library.">
<polygon fill="white" stroke="#666666" points="555,-192.5 455.75,-192.5 455.75,-174 555,-174 555,-192.5"/>
<text text-anchor="middle" x="505.38" y="-179" font-family="Helvetica,sans-Serif" font-size="10.00">coverage_system.h</text>
</a>
</g>
</g>
<!-- Node1&#45;&gt;Node12 -->
<g id="edge30_Node000001_Node000012" class="edge">
<title>Node1&#45;&gt;Node12</title>
<g id="a_edge30_Node000001_Node000012"><a xlink:title=" ">
<path fill="none" stroke="#63b8ff" d="M515.13,-398.27C455.8,-394.5 352.46,-384 329.38,-356 306.25,-327.96 239,-349.88 349.38,-228.5 376.08,-199.13 420.69,-188.69 455.38,-185.24"/>
<polygon fill="#63b8ff" stroke="#63b8ff" points="514.67,-401.75 524.86,-398.85 515.08,-394.76 514.67,-401.75"/>
</a>
</g>
</g>
<!-- Node14 -->
<g id="Node000014" class="node">
<title>Node14</title>
<g id="a_Node000014"><a xlink:href="world__idf_8h.html" target="_top" xlink:title="Contains the class for Importance Density Function (IDF) for the world.">
<polygon fill="white" stroke="#666666" points="696.25,-301.5 634.5,-301.5 634.5,-283 696.25,-283 696.25,-301.5"/>
<text text-anchor="middle" x="665.38" y="-288" font-family="Helvetica,sans-Serif" font-size="10.00">world_idf.h</text>
</a>
</g>
</g>
<!-- Node1&#45;&gt;Node14 -->
<g id="edge56_Node000001_Node000014" class="edge">
<title>Node1&#45;&gt;Node14</title>
<g id="a_edge56_Node000001_Node000014"><a xlink:title=" ">
<path fill="none" stroke="#63b8ff" d="M599.8,-396.12C648.8,-390.37 724.95,-378.08 742.38,-356 760.53,-332.99 720.62,-312.87 691.75,-301.94"/>
<polygon fill="#63b8ff" stroke="#63b8ff" points="599.63,-392.62 590.08,-397.21 600.41,-399.57 599.63,-392.62"/>
</a>
</g>
</g>
<!-- Node15 -->
<g id="Node000015" class="node">
<title>Node15</title>
<g id="a_Node000015"><a xlink:href="robot__model_8h.html" target="_top" xlink:title="Class for handling the robot model.">
<polygon fill="white" stroke="#666666" points="578.12,-247 500.62,-247 500.62,-228.5 578.12,-228.5 578.12,-247"/>
<text text-anchor="middle" x="539.38" y="-233.5" font-family="Helvetica,sans-Serif" font-size="10.00">robot_model.h</text>
</a>
</g>
</g>
<!-- Node1&#45;&gt;Node15 -->
<g id="edge46_Node000001_Node000015" class="edge">
<title>Node1&#45;&gt;Node15</title>
<g id="a_edge46_Node000001_Node000015"><a xlink:title=" ">
<path fill="none" stroke="#63b8ff" d="M556.95,-380.22C556.23,-356.8 554.33,-316.91 549.38,-283 547.55,-270.53 544.1,-256.36 541.77,-247.49"/>
<polygon fill="#63b8ff" stroke="#63b8ff" points="553.45,-380.25 557.2,-390.16 560.44,-380.07 553.45,-380.25"/>
</a>
</g>
</g>
<!-- Node16 -->
<g id="Node000016" class="node">
<title>Node16</title>
<g id="a_Node000016"><a xlink:href="geographiclib__wrapper_8h.html" target="_top" xlink:title="Wrappers for GeographicLib functions.">
<polygon fill="white" stroke="#666666" points="1229.88,-356 1108.88,-356 1108.88,-337.5 1229.88,-337.5 1229.88,-356"/>
<text text-anchor="middle" x="1169.38" y="-342.5" font-family="Helvetica,sans-Serif" font-size="10.00">geographiclib_wrapper.h</text>
</a>
</g>
</g>
<!-- Node1&#45;&gt;Node16 -->
<g id="edge32_Node000001_Node000016" class="edge">
<title>Node1&#45;&gt;Node16</title>
<g id="a_edge32_Node000001_Node000016"><a xlink:title=" ">
<path fill="none" stroke="#63b8ff" d="M600.03,-397.13C690.96,-390.4 910.58,-373.68 1094.38,-356 1098.94,-355.56 1103.66,-355.09 1108.4,-354.6"/>
<polygon fill="#63b8ff" stroke="#63b8ff" points="599.8,-393.64 590.08,-397.87 600.32,-400.62 599.8,-393.64"/>
</a>
</g>
</g>
<!-- Node17 -->
<g id="Node000017" class="node">
<title>Node17</title>
<g id="a_Node000017"><a xlink:href="near__optimal__cvt__algorithm_8h.html" target="_top" xlink:title="Near Optimal Centroidal Voronoi Tessellation (CVT) algorithm Near&#45;optimal Centroidal Voronoi Tessella...">
<polygon fill="white" stroke="#666666" points="1014.12,-138 870.62,-138 870.62,-119.5 1014.12,-119.5 1014.12,-138"/>
<text text-anchor="middle" x="942.38" y="-124.5" font-family="Helvetica,sans-Serif" font-size="10.00">near_optimal_cvt_algorithm.h</text>
</a>
</g>
</g>
<!-- Node1&#45;&gt;Node17 -->
<g id="edge34_Node000001_Node000017" class="edge">
<title>Node1&#45;&gt;Node17</title>
<g id="a_edge34_Node000001_Node000017"><a xlink:title=" ">
<path fill="none" stroke="#63b8ff" d="M599.94,-398.93C678.37,-395.81 842.05,-385.82 889.38,-356 917.56,-338.24 930.38,-326.56 930.38,-293.25 930.38,-293.25 930.38,-293.25 930.38,-236.75 930.38,-199.93 937.48,-156.41 940.76,-138.31"/>
<polygon fill="#63b8ff" stroke="#63b8ff" points="599.93,-395.43 590.07,-399.31 600.19,-402.43 599.93,-395.43"/>
</a>
</g>
</g>
<!-- Node18 -->
<g id="Node000018" class="node">
<title>Node18</title>
<g id="a_Node000018"><a xlink:href="plotter_8h.html" target="_top" xlink:title="Class to plot the map.">
<polygon fill="white" stroke="#666666" points="724,-247 672.75,-247 672.75,-228.5 724,-228.5 724,-247"/>
<text text-anchor="middle" x="698.38" y="-233.5" font-family="Helvetica,sans-Serif" font-size="10.00">plotter.h</text>
</a>
</g>
</g>
<!-- Node1&#45;&gt;Node18 -->
<g id="edge39_Node000001_Node000018" class="edge">
<title>Node1&#45;&gt;Node18</title>
<g id="a_edge39_Node000001_Node000018"><a xlink:title=" ">
<path fill="none" stroke="#63b8ff" d="M600.17,-396.98C653.19,-391.94 738.92,-380.21 758.38,-356 787.31,-320 733.23,-267.81 709.12,-247.39"/>
<polygon fill="#63b8ff" stroke="#63b8ff" points="599.9,-393.49 590.26,-397.88 600.53,-400.47 599.9,-393.49"/>
</a>
</g>
</g>
<!-- Node20 -->
<g id="Node000020" class="node">
<title>Node20</title>
<g id="a_Node000020"><a xlink:href="polygon__utils_8h.html" target="_top" xlink:title="Provides utilities for polygon manipulation using CGAL.">
<polygon fill="white" stroke="#666666" points="491.62,-356 411.12,-356 411.12,-337.5 491.62,-337.5 491.62,-356"/>
<text text-anchor="middle" x="451.38" y="-342.5" font-family="Helvetica,sans-Serif" font-size="10.00">polygon_utils.h</text>
</a>
</g>
</g>
<!-- Node1&#45;&gt;Node20 -->
<g id="edge43_Node000001_Node000020" class="edge">
<title>Node1&#45;&gt;Node20</title>
<g id="a_edge43_Node000001_Node000020"><a xlink:title=" ">
<path fill="none" stroke="#63b8ff" d="M529.61,-386.5C510.39,-376.98 485.41,-364.61 468.9,-356.43"/>
<polygon fill="#63b8ff" stroke="#63b8ff" points="528,-389.61 538.51,-390.91 531.11,-383.33 528,-389.61"/>
</a>
</g>
</g>
<!-- Node22 -->
<g id="Node000022" class="node">
<title>Node22</title>
<g id="a_Node000022"><a xlink:href="utilities_8h.html" target="_top" xlink:title="Contains utility functions for CGAL.">
<polygon fill="white" stroke="#666666" points="392.88,-356 337.88,-356 337.88,-337.5 392.88,-337.5 392.88,-356"/>
<text text-anchor="middle" x="365.38" y="-342.5" font-family="Helvetica,sans-Serif" font-size="10.00">utilities.h</text>
</a>
</g>
</g>
<!-- Node1&#45;&gt;Node22 -->
<g id="edge48_Node000001_Node000022" class="edge">
<title>Node1&#45;&gt;Node22</title>
<g id="a_edge48_Node000001_Node000022"><a xlink:title=" ">
<path fill="none" stroke="#63b8ff" d="M515.14,-388.7C478.07,-378.56 425.2,-364.11 393.2,-355.36"/>
<polygon fill="#63b8ff" stroke="#63b8ff" points="514.07,-392.04 524.64,-391.3 515.92,-385.29 514.07,-392.04"/>
</a>
</g>
</g>
<!-- Node24 -->
<g id="Node000024" class="node">
<title>Node24</title>
<g id="a_Node000024"><a xlink:href="voronoi_8h.html" target="_top" xlink:title="Class for computing Voronoi cells.">
<polygon fill="white" stroke="#666666" points="539.88,-301.5 484.88,-301.5 484.88,-283 539.88,-283 539.88,-301.5"/>
<text text-anchor="middle" x="512.38" y="-288" font-family="Helvetica,sans-Serif" font-size="10.00">voronoi.h</text>
</a>
</g>
</g>
<!-- Node1&#45;&gt;Node24 -->
<g id="edge51_Node000001_Node000024" class="edge">
<title>Node1&#45;&gt;Node24</title>
<g id="a_edge51_Node000001_Node000024"><a xlink:title=" ">
<path fill="none" stroke="#63b8ff" d="M549.5,-381.53C539.67,-358.15 523.27,-319.15 516.01,-301.9"/>
<polygon fill="#63b8ff" stroke="#63b8ff" points="546.15,-382.6 553.26,-390.46 552.61,-379.88 546.15,-382.6"/>
</a>
</g>
</g>
<!-- Node2&#45;&gt;Node3 -->
<g id="edge2_Node000002_Node000003" class="edge">
<title>Node2&#45;&gt;Node3</title>
<g id="a_edge2_Node000002_Node000003"><a xlink:title=" ">
<path fill="none" stroke="#63b8ff" d="M304.32,-118.91C249.22,-110.91 167.74,-98.18 97.38,-83.5 90.68,-82.1 83.56,-80.43 76.78,-78.73"/>
<polygon fill="#63b8ff" stroke="#63b8ff" points="303.77,-122.36 314.17,-120.32 304.77,-115.43 303.77,-122.36"/>
</a>
</g>
</g>
<!-- Node2&#45;&gt;Node4 -->
<g id="edge3_Node000002_Node000004" class="edge">
<title>Node2&#45;&gt;Node4</title>
<g id="a_edge3_Node000002_Node000004"><a xlink:title=" ">
<path fill="none" stroke="#63b8ff" d="M416.03,-116.42C462.61,-105.36 532.49,-88.75 574.83,-78.68"/>
<polygon fill="#63b8ff" stroke="#63b8ff" points="415.41,-112.97 406.49,-118.69 417.03,-119.78 415.41,-112.97"/>
</a>
</g>
</g>
<!-- Node2&#45;&gt;Node6 -->
<g id="edge5_Node000002_Node000006" class="edge">
<title>Node2&#45;&gt;Node6</title>
<g id="a_edge5_Node000002_Node000006"><a xlink:title=" ">
<path fill="none" stroke="#63b8ff" d="M382.15,-110.45C390.54,-99.92 400.89,-86.93 407.56,-78.56"/>
<polygon fill="#63b8ff" stroke="#63b8ff" points="379.6,-108.04 376.11,-118.04 385.07,-112.4 379.6,-108.04"/>
</a>
</g>
</g>
<!-- Node2&#45;&gt;Node7 -->
<g id="edge6_Node000002_Node000007" class="edge">
<title>Node2&#45;&gt;Node7</title>
<g id="a_edge6_Node000002_Node000007"><a xlink:title=" ">
<path fill="none" stroke="#63b8ff" d="M432.41,-125.59C534.34,-121.46 739.51,-110.35 911.38,-83.5 919.34,-82.26 927.84,-80.52 935.8,-78.7"/>
<polygon fill="#63b8ff" stroke="#63b8ff" points="432.46,-122.08 422.61,-125.97 432.74,-129.08 432.46,-122.08"/>
</a>
</g>
</g>
<!-- Node2&#45;&gt;Node8 -->
<g id="edge7_Node000002_Node000008" class="edge">
<title>Node2&#45;&gt;Node8</title>
<g id="a_edge7_Node000002_Node000008"><a xlink:title=" ">
<path fill="none" stroke="#63b8ff" d="M326.26,-116.11C292.7,-106.84 245.59,-93.82 209.98,-83.98"/>
<polygon fill="#63b8ff" stroke="#63b8ff" points="325.06,-119.41 335.63,-118.7 326.92,-112.66 325.06,-119.41"/>
</a>
</g>
</g>
<!-- Node2&#45;&gt;Node9 -->
<g id="edge8_Node000002_Node000009" class="edge">
<title>Node2&#45;&gt;Node9</title>
<g id="a_edge8_Node000002_Node000009"><a xlink:title=" ">
<path fill="none" stroke="#63b8ff" d="M432.25,-119.97C524,-108.79 691.89,-88.33 781.78,-77.38"/>
<polygon fill="#63b8ff" stroke="#63b8ff" points="431.92,-116.48 422.41,-121.17 432.76,-123.43 431.92,-116.48"/>
</a>
</g>
</g>
<!-- Node2&#45;&gt;Node10 -->
<g id="edge9_Node000002_Node000010" class="edge">
<title>Node2&#45;&gt;Node10</title>
<g id="a_edge9_Node000002_Node000010"><a xlink:title=" ">
<path fill="none" stroke="#63b8ff" d="M347.54,-112.71C332.58,-101.91 312.95,-87.74 300.49,-78.75"/>
<polygon fill="#63b8ff" stroke="#63b8ff" points="345.19,-115.33 355.34,-118.34 349.28,-109.65 345.19,-115.33"/>
</a>
</g>
</g>
<!-- Node4&#45;&gt;Node5 -->
<g id="edge4_Node000004_Node000005" class="edge">
<title>Node4&#45;&gt;Node5</title>
<g id="a_edge4_Node000004_Node000005"><a xlink:title=" ">
<path fill="none" stroke="#63b8ff" d="M635.11,-53.57C652.98,-42.71 676.91,-28.16 691.99,-19"/>
<polygon fill="#63b8ff" stroke="#63b8ff" points="633.41,-50.51 626.69,-58.69 637.05,-56.49 633.41,-50.51"/>
</a>
</g>
</g>
<!-- Node11&#45;&gt;Node12 -->
<g id="edge11_Node000011_Node000012" class="edge">
<title>Node11&#45;&gt;Node12</title>
<g id="a_edge11_Node000011_Node000012"><a xlink:title=" ">
<path fill="none" stroke="#63b8ff" d="M645.04,-328.55C638.67,-320.56 631.3,-310.79 625.38,-301.5 605.71,-270.66 613.05,-254.56 587.38,-228.5 571.14,-212.02 547.46,-200.15 529.71,-192.87"/>
<polygon fill="#63b8ff" stroke="#63b8ff" points="642.15,-330.55 651.18,-336.09 647.57,-326.13 642.15,-330.55"/>
</a>
</g>
</g>
<!-- Node11&#45;&gt;Node14 -->
<g id="edge22_Node000011_Node000014" class="edge">
<title>Node11&#45;&gt;Node14</title>
<g id="a_edge22_Node000011_Node000014"><a xlink:title=" ">
<path fill="none" stroke="#63b8ff" d="M661.64,-325.93C662.6,-317.57 663.66,-308.29 664.4,-301.76"/>
<polygon fill="#63b8ff" stroke="#63b8ff" points="658.2,-325.24 660.54,-335.58 665.15,-326.04 658.2,-325.24"/>
</a>
</g>
</g>
<!-- Node12&#45;&gt;Node2 -->
<g id="edge12_Node000012_Node000002" class="edge">
<title>Node12&#45;&gt;Node2</title>
<g id="a_edge12_Node000012_Node000002"><a xlink:title=" ">
<path fill="none" stroke="#63b8ff" d="M472.23,-169.55C447.07,-159.91 413.16,-146.91 391.03,-138.43"/>
<polygon fill="#63b8ff" stroke="#63b8ff" points="470.75,-172.73 481.34,-173.04 473.25,-166.19 470.75,-172.73"/>
</a>
</g>
</g>
<!-- Node12&#45;&gt;Node3 -->
<g id="edge13_Node000012_Node000003" class="edge">
<title>Node12&#45;&gt;Node3</title>
<g id="a_edge13_Node000012_Node000003"><a xlink:title=" ">
<path fill="none" stroke="#63b8ff" d="M444.28,-174.47C391.65,-167.12 313.89,-154.74 247.38,-138 180.33,-121.13 103.55,-92.88 66.57,-78.69"/>
<polygon fill="#63b8ff" stroke="#63b8ff" points="443.56,-177.9 453.94,-175.79 444.51,-170.96 443.56,-177.9"/>
</a>
</g>
</g>
<!-- Node12&#45;&gt;Node4 -->
<g id="edge14_Node000012_Node000004" class="edge">
<title>Node12&#45;&gt;Node4</title>
<g id="a_edge14_Node000012_Node000004"><a xlink:title=" ">
<path fill="none" stroke="#63b8ff" d="M515.97,-163.76C523.96,-150.65 535.68,-133.05 548.38,-119.5 563.78,-103.06 584.92,-87.6 598.36,-78.47"/>
<polygon fill="#63b8ff" stroke="#63b8ff" points="513.04,-161.84 510.97,-172.23 519.07,-165.4 513.04,-161.84"/>
</a>
</g>
</g>
<!-- Node12&#45;&gt;Node5 -->
<g id="edge15_Node000012_Node000005" class="edge">
<title>Node12&#45;&gt;Node5</title>
<g id="a_edge15_Node000012_Node000005"><a xlink:title=" ">
<path fill="none" stroke="#63b8ff" d="M508.07,-162.47C512.96,-134.31 525.99,-82.95 558.38,-54.5 582.75,-33.08 617.15,-22.03 646.65,-16.32"/>
<polygon fill="#63b8ff" stroke="#63b8ff" points="504.65,-161.69 506.58,-172.11 511.57,-162.76 504.65,-161.69"/>
</a>
</g>
</g>
<!-- Node12&#45;&gt;Node6 -->
<g id="edge17_Node000012_Node000006" class="edge">
<title>Node12&#45;&gt;Node6</title>
<g id="a_edge17_Node000012_Node000006"><a xlink:title=" ">
<path fill="none" stroke="#63b8ff" d="M491.33,-164.93C471.54,-140.52 436.19,-96.91 421.29,-78.53"/>
<polygon fill="#63b8ff" stroke="#63b8ff" points="488.57,-167.07 497.58,-172.64 494,-162.67 488.57,-167.07"/>
</a>
</g>
</g>
<!-- Node12&#45;&gt;Node7 -->
<g id="edge18_Node000012_Node000007" class="edge">
<title>Node12&#45;&gt;Node7</title>
<g id="a_edge18_Node000012_Node000007"><a xlink:title=" ">
<path fill="none" stroke="#63b8ff" d="M530.98,-168.08C564.23,-149.69 618.19,-119.88 619.38,-119.5 743.79,-79.25 782.63,-106.35 911.38,-83.5 918.91,-82.16 926.93,-80.47 934.53,-78.74"/>
<polygon fill="#63b8ff" stroke="#63b8ff" points="529.39,-164.96 522.33,-172.86 532.78,-171.08 529.39,-164.96"/>
</a>
</g>
</g>
<!-- Node12&#45;&gt;Node8 -->
<g id="edge19_Node000012_Node000008" class="edge">
<title>Node12&#45;&gt;Node8</title>
<g id="a_edge19_Node000012_Node000008"><a xlink:title=" ">
<path fill="none" stroke="#63b8ff" d="M444.09,-173.98C400.88,-167.08 342.08,-155.51 292.38,-138 251.53,-123.61 207.37,-99.06 181.61,-83.72"/>
<polygon fill="#63b8ff" stroke="#63b8ff" points="443.37,-177.41 453.79,-175.49 444.45,-170.49 443.37,-177.41"/>
</a>
</g>
</g>
<!-- Node12&#45;&gt;Node9 -->
<g id="edge20_Node000012_Node000009" class="edge">
<title>Node12&#45;&gt;Node9</title>
<g id="a_edge20_Node000012_Node000009"><a xlink:title=" ">
<path fill="none" stroke="#63b8ff" d="M521.38,-166.1C536.71,-151.6 561.18,-130.91 586.38,-119.5 649.37,-90.99 728.33,-78.88 781.78,-73.75"/>
<polygon fill="#63b8ff" stroke="#63b8ff" points="519.28,-163.26 514.55,-172.75 524.16,-168.28 519.28,-163.26"/>
</a>
</g>
</g>
<!-- Node12&#45;&gt;Node10 -->
<g id="edge21_Node000012_Node000010" class="edge">
<title>Node12&#45;&gt;Node10</title>
<g id="a_edge21_Node000012_Node000010"><a xlink:title=" ">
<path fill="none" stroke="#63b8ff" d="M444.44,-175.52C393.77,-168.72 326.91,-156.54 307.38,-138 290.66,-122.14 288.25,-92.9 288.15,-78.49"/>
<polygon fill="#63b8ff" stroke="#63b8ff" points="443.76,-178.96 454.13,-176.78 444.66,-172.02 443.76,-178.96"/>
</a>
</g>
</g>
<!-- Node13 -->
<g id="Node000013" class="node">
<title>Node13</title>
<g id="a_Node000013"><a xlink:href="coverage__system_8cpp.html" target="_top" xlink:title="Contains the implementation of the CoverageSystem class.">
<polygon fill="white" stroke="#666666" points="738.25,-138 628.5,-138 628.5,-119.5 738.25,-119.5 738.25,-138"/>
<text text-anchor="middle" x="683.38" y="-124.5" font-family="Helvetica,sans-Serif" font-size="10.00">coverage_system.cpp</text>
</a>
</g>
</g>
<!-- Node12&#45;&gt;Node13 -->
<g id="edge16_Node000012_Node000013" class="edge">
<title>Node12&#45;&gt;Node13</title>
<g id="a_edge16_Node000012_Node000013"><a xlink:title=" ">
<path fill="none" stroke="#63b8ff" d="M545.4,-170.44C578.34,-160.73 624.29,-147.18 653.94,-138.43"/>
<polygon fill="#63b8ff" stroke="#63b8ff" points="544.82,-166.97 536.22,-173.15 546.8,-173.68 544.82,-166.97"/>
</a>
</g>
</g>
<!-- Node14&#45;&gt;Node5 -->
<g id="edge23_Node000014_Node000005" class="edge">
<title>Node14&#45;&gt;Node5</title>
<g id="a_edge23_Node000014_Node000005"><a xlink:title=" ">
<path fill="none" stroke="#63b8ff" d="M696.69,-277.32C709.8,-270.04 724.11,-259.91 733.38,-247 747.96,-226.68 744.24,-217.31 747.38,-192.5 751.44,-160.31 753.17,-151.42 747.38,-119.5 740.25,-80.23 719.81,-36.7 710.77,-18.73"/>
<polygon fill="#63b8ff" stroke="#63b8ff" points="695.18,-274.17 687.9,-281.87 698.4,-280.38 695.18,-274.17"/>
</a>
</g>
</g>
<!-- Node14&#45;&gt;Node12 -->
<g id="edge24_Node000014_Node000012" class="edge">
<title>Node14&#45;&gt;Node12</title>
<g id="a_edge24_Node000014_Node000012"><a xlink:title=" ">
<path fill="none" stroke="#63b8ff" d="M656.04,-272.85C648.18,-258.99 635.78,-240.4 620.38,-228.5 597.78,-211.04 567.48,-199.75 543.65,-192.95"/>
<polygon fill="#63b8ff" stroke="#63b8ff" points="652.81,-274.23 660.62,-281.4 658.98,-270.93 652.81,-274.23"/>
</a>
</g>
</g>
<!-- Node14&#45;&gt;Node15 -->
<g id="edge25_Node000014_Node000015" class="edge">
<title>Node14&#45;&gt;Node15</title>
<g id="a_edge25_Node000014_Node000015"><a xlink:title=" ">
<path fill="none" stroke="#63b8ff" d="M633.95,-278.16C610.92,-268.56 580.29,-255.8 560.21,-247.43"/>
<polygon fill="#63b8ff" stroke="#63b8ff" points="632.59,-281.38 643.17,-282 635.29,-274.92 632.59,-281.38"/>
</a>
</g>
</g>
<!-- Node15&#45;&gt;Node12 -->
<g id="edge26_Node000015_Node000012" class="edge">
<title>Node15&#45;&gt;Node12</title>
<g id="a_edge26_Node000015_Node000012"><a xlink:title=" ">
<path fill="none" stroke="#63b8ff" d="M527.66,-218.66C521.97,-209.88 515.41,-199.74 510.88,-192.76"/>
<polygon fill="#63b8ff" stroke="#63b8ff" points="524.56,-220.32 532.94,-226.81 530.44,-216.51 524.56,-220.32"/>
</a>
</g>
</g>
<!-- Node17&#45;&gt;Node7 -->
<g id="edge35_Node000017_Node000007" class="edge">
<title>Node17&#45;&gt;Node7</title>
<g id="a_edge35_Node000017_Node000007"><a xlink:title=" ">
<path fill="none" stroke="#63b8ff" d="M951.22,-108.82C956,-98.61 961.66,-86.5 965.37,-78.56"/>
<polygon fill="#63b8ff" stroke="#63b8ff" points="948.06,-107.32 947,-117.86 954.41,-110.28 948.06,-107.32"/>
</a>
</g>
</g>
<!-- Node17&#45;&gt;Node9 -->
<g id="edge36_Node000017_Node000009" class="edge">
<title>Node17&#45;&gt;Node9</title>
<g id="a_edge36_Node000017_Node000009"><a xlink:title=" ">
<path fill="none" stroke="#63b8ff" d="M917.66,-113.48C898.81,-102.59 873.46,-87.95 857.52,-78.75"/>
<polygon fill="#63b8ff" stroke="#63b8ff" points="915.9,-116.5 926.31,-118.47 919.4,-110.44 915.9,-116.5"/>
</a>
</g>
</g>
<!-- Node18&#45;&gt;Node12 -->
<g id="edge41_Node000018_Node000012" class="edge">
<title>Node18&#45;&gt;Node12</title>
<g id="a_edge41_Node000018_Node000012"><a xlink:title=" ">
<path fill="none" stroke="#63b8ff" d="M661.37,-226.68C625.46,-216.91 571.52,-202.24 537.4,-192.96"/>
<polygon fill="#63b8ff" stroke="#63b8ff" points="660.32,-230.02 670.89,-229.27 662.16,-223.27 660.32,-230.02"/>
</a>
</g>
</g>
<!-- Node18&#45;&gt;Node13 -->
<g id="edge40_Node000018_Node000013" class="edge">
<title>Node18&#45;&gt;Node13</title>
<g id="a_edge40_Node000018_Node000013"><a xlink:title=" ">
<path fill="none" stroke="#63b8ff" d="M682.6,-219.52C676.6,-211.84 670.47,-202.31 667.38,-192.5 661.36,-173.42 671.44,-150.53 678.15,-138.36"/>
<polygon fill="#63b8ff" stroke="#63b8ff" points="679.79,-221.62 688.92,-227 685.14,-217.1 679.79,-221.62"/>
</a>
</g>
</g>
<!-- Node19 -->
<g id="Node000019" class="node">
<title>Node19</title>
<g id="a_Node000019"><a xlink:href="plotter_8cpp.html" target="_top" xlink:title="Helper function to plot maps.">
<polygon fill="white" stroke="#666666" points="738.25,-192.5 676.5,-192.5 676.5,-174 738.25,-174 738.25,-192.5"/>
<text text-anchor="middle" x="707.38" y="-179" font-family="Helvetica,sans-Serif" font-size="10.00">plotter.cpp</text>
</a>
</g>
</g>
<!-- Node18&#45;&gt;Node19 -->
<g id="edge42_Node000018_Node000019" class="edge">
<title>Node18&#45;&gt;Node19</title>
<g id="a_edge42_Node000018_Node000019"><a xlink:title=" ">
<path fill="none" stroke="#63b8ff" d="M701.77,-216.93C703.21,-208.57 704.8,-199.29 705.92,-192.76"/>
<polygon fill="#63b8ff" stroke="#63b8ff" points="698.36,-216.14 700.12,-226.59 705.26,-217.32 698.36,-216.14"/>
</a>
</g>
</g>
<!-- Node20&#45;&gt;Node14 -->
<g id="edge45_Node000020_Node000014" class="edge">
<title>Node20&#45;&gt;Node14</title>
<g id="a_edge45_Node000020_Node000014"><a xlink:title=" ">
<path fill="none" stroke="#63b8ff" d="M497.85,-334.35C539.12,-324.22 598.31,-309.7 634.16,-300.91"/>
<polygon fill="#63b8ff" stroke="#63b8ff" points="497.06,-330.94 488.18,-336.72 498.73,-337.74 497.06,-330.94"/>
</a>
</g>
</g>
<!-- Node21 -->
<g id="Node000021" class="node">
<title>Node21</title>
<g id="a_Node000021"><a xlink:href="polygon__utils_8cpp.html" target="_top" xlink:title="Helper functions for polygon operations using CGAL.">
<polygon fill="white" stroke="#666666" points="466.88,-301.5 375.88,-301.5 375.88,-283 466.88,-283 466.88,-301.5"/>
<text text-anchor="middle" x="421.38" y="-288" font-family="Helvetica,sans-Serif" font-size="10.00">polygon_utils.cpp</text>
</a>
</g>
</g>
<!-- Node20&#45;&gt;Node21 -->
<g id="edge44_Node000020_Node000021" class="edge">
<title>Node20&#45;&gt;Node21</title>
<g id="a_edge44_Node000020_Node000021"><a xlink:title=" ">
<path fill="none" stroke="#63b8ff" d="M440.71,-327.09C435.77,-318.44 430.14,-308.59 426.24,-301.76"/>
<polygon fill="#63b8ff" stroke="#63b8ff" points="437.67,-328.82 445.67,-335.77 443.75,-325.35 437.67,-328.82"/>
</a>
</g>
</g>
<!-- Node22&#45;&gt;Node21 -->
<g id="edge49_Node000022_Node000021" class="edge">
<title>Node22&#45;&gt;Node21</title>
<g id="a_edge49_Node000022_Node000021"><a xlink:title=" ">
<path fill="none" stroke="#63b8ff" d="M382.86,-329.36C392.61,-320.22 404.36,-309.2 412.3,-301.76"/>
<polygon fill="#63b8ff" stroke="#63b8ff" points="380.63,-326.65 375.73,-336.05 385.42,-331.76 380.63,-326.65"/>
</a>
</g>
</g>
<!-- Node23 -->
<g id="Node000023" class="node">
<title>Node23</title>
<g id="a_Node000023"><a xlink:href="voronoi_8cpp.html" target="_top" xlink:title="Functions to compute Centroidal Voronoi Tessellation.">
<polygon fill="white" stroke="#666666" points="424.12,-247 358.62,-247 358.62,-228.5 424.12,-228.5 424.12,-247"/>
<text text-anchor="middle" x="391.38" y="-233.5" font-family="Helvetica,sans-Serif" font-size="10.00">voronoi.cpp</text>
</a>
</g>
</g>
<!-- Node22&#45;&gt;Node23 -->
<g id="edge50_Node000022_Node000023" class="edge">
<title>Node22&#45;&gt;Node23</title>
<g id="a_edge50_Node000022_Node000023"><a xlink:title=" ">
<path fill="none" stroke="#63b8ff" d="M363.68,-325.65C363.2,-313.16 363.61,-296.9 367.38,-283 370.98,-269.67 379.28,-255.94 385.1,-247.38"/>
<polygon fill="#63b8ff" stroke="#63b8ff" points="360.18,-325.77 364.31,-335.53 367.17,-325.33 360.18,-325.77"/>
</a>
</g>
</g>
<!-- Node24&#45;&gt;Node12 -->
<g id="edge52_Node000024_Node000012" class="edge">
<title>Node24&#45;&gt;Node12</title>
<g id="a_edge52_Node000024_Node000012"><a xlink:title=" ">
<path fill="none" stroke="#63b8ff" d="M501.25,-272.57C497.31,-264.92 493.36,-255.81 491.38,-247 487.01,-227.62 495.48,-204.85 501.05,-192.78"/>
<polygon fill="#63b8ff" stroke="#63b8ff" points="498.14,-274.17 506.06,-281.2 504.25,-270.76 498.14,-274.17"/>
</a>
</g>
</g>
<!-- Node24&#45;&gt;Node15 -->
<g id="edge54_Node000024_Node000015" class="edge">
<title>Node24&#45;&gt;Node15</title>
<g id="a_edge54_Node000024_Node000015"><a xlink:title=" ">
<path fill="none" stroke="#63b8ff" d="M521.97,-272.59C526.42,-263.94 531.49,-254.09 535,-247.26"/>
<polygon fill="#63b8ff" stroke="#63b8ff" points="518.99,-270.74 517.53,-281.23 525.21,-273.94 518.99,-270.74"/>
</a>
</g>
</g>
<!-- Node24&#45;&gt;Node18 -->
<g id="edge53_Node000024_Node000018" class="edge">
<title>Node24&#45;&gt;Node18</title>
<g id="a_edge53_Node000024_Node000018"><a xlink:title=" ">
<path fill="none" stroke="#63b8ff" d="M550.92,-280.37C587.31,-270.1 640.88,-254.98 672.44,-246.07"/>
<polygon fill="#63b8ff" stroke="#63b8ff" points="550.35,-276.89 541.68,-282.98 552.25,-283.63 550.35,-276.89"/>
</a>
</g>
</g>
<!-- Node24&#45;&gt;Node23 -->
<g id="edge55_Node000024_Node000023" class="edge">
<title>Node24&#45;&gt;Node23</title>
<g id="a_edge55_Node000024_Node000023"><a xlink:title=" ">
<path fill="none" stroke="#63b8ff" d="M481.9,-278.03C459.81,-268.44 430.57,-255.76 411.39,-247.43"/>
<polygon fill="#63b8ff" stroke="#63b8ff" points="480.44,-281.21 491.01,-281.98 483.23,-274.79 480.44,-281.21"/>
</a>
</g>
</g>
</g>
</svg>
