<?xml version="1.0" encoding="UTF-8" standalone="no"?>
<!DOCTYPE svg PUBLIC "-//W3C//DTD SVG 1.1//EN"
 "http://www.w3.org/Graphics/SVG/1.1/DTD/svg11.dtd">
<!-- Generated by graphviz version 12.1.2 (0)
 -->
<!-- Title: typedefs.h Pages: 1 -->
<svg width="1490pt" height="364pt"
 viewBox="0.00 0.00 1490.12 364.00" xmlns="http://www.w3.org/2000/svg" xmlns:xlink="http://www.w3.org/1999/xlink">
<g id="graph0" class="graph" transform="scale(1 1) rotate(0) translate(4 360)">
<title>typedefs.h</title>
<!-- Node1 -->
<g id="Node000001" class="node">
<title>Node1</title>
<g id="a_Node000001"><a xlink:title="Contains typedefs for the library.">
<polygon fill="#999999" stroke="#666666" points="731.5,-356 669.75,-356 669.75,-337.5 731.5,-337.5 731.5,-356"/>
<text text-anchor="middle" x="700.62" y="-342.5" font-family="Helvetica,sans-Serif" font-size="10.00">typedefs.h</text>
</a>
</g>
</g>
<!-- Node2 -->
<g id="Node000002" class="node">
<title>Node2</title>
<g id="a_Node000002"><a xlink:href="abstract__controller_8h.html" target="_top" xlink:title="Contains the abstract class for coverage control algorithms.">
<polygon fill="white" stroke="#666666" points="407.88,-138 303.38,-138 303.38,-119.5 407.88,-119.5 407.88,-138"/>
<text text-anchor="middle" x="355.62" y="-124.5" font-family="Helvetica,sans-Serif" font-size="10.00">abstract_controller.h</text>
</a>
</g>
</g>
<!-- Node1&#45;&gt;Node2 -->
<g id="edge1_Node000001_Node000002" class="edge">
<title>Node1&#45;&gt;Node2</title>
<g id="a_edge1_Node000001_Node000002"><a xlink:title=" ">
<path fill="none" stroke="#63b8ff" d="M658.13,-343.68C566.85,-338.81 358.59,-325.18 337.62,-301.5 295.09,-253.47 336.25,-165.72 350.9,-138.22"/>
<polygon fill="#63b8ff" stroke="#63b8ff" points="657.75,-347.17 667.92,-344.19 658.12,-340.18 657.75,-347.17"/>
</a>
</g>
</g>
<!-- Node3 -->
<g id="Node000003" class="node">
<title>Node3</title>
<g id="a_Node000003"><a xlink:href="centralized__cvt_8h.html" target="_top" xlink:title="Contains the class CentralizedCVT.">
<polygon fill="white" stroke="#666666" points="313,-78.25 224.25,-78.25 224.25,-59.75 313,-59.75 313,-78.25"/>
<text text-anchor="middle" x="268.62" y="-64.75" font-family="Helvetica,sans-Serif" font-size="10.00">centralized_cvt.h</text>
</a>
</g>
</g>
<!-- Node1&#45;&gt;Node3 -->
<g id="edge27_Node000001_Node000003" class="edge">
<title>Node1&#45;&gt;Node3</title>
<g id="a_edge27_Node000001_Node000003"><a xlink:title=" ">
<path fill="none" stroke="#63b8ff" d="M657.92,-345.67C536.78,-344.31 199.62,-332.14 199.62,-238.75 199.62,-238.75 199.62,-238.75 199.62,-182.25 199.62,-137.64 239.66,-95.86 258.74,-78.48"/>
<polygon fill="#63b8ff" stroke="#63b8ff" points="657.74,-349.17 667.77,-345.76 657.8,-342.17 657.74,-349.17"/>
</a>
</g>
</g>
<!-- Node4 -->
<g id="Node000004" class="node">
<title>Node4</title>
<g id="a_Node000004"><a xlink:href="clairvoyant__cvt_8h.html" target="_top" xlink:title="Clairvoyant CVT algorithm.">
<polygon fill="white" stroke="#666666" points="206,-78.25 117.25,-78.25 117.25,-59.75 206,-59.75 206,-78.25"/>
<text text-anchor="middle" x="161.62" y="-64.75" font-family="Helvetica,sans-Serif" font-size="10.00">clairvoyant_cvt.h</text>
</a>
</g>
</g>
<!-- Node1&#45;&gt;Node4 -->
<g id="edge28_Node000001_Node000004" class="edge">
<title>Node1&#45;&gt;Node4</title>
<g id="a_edge28_Node000001_Node000004"><a xlink:title=" ">
<path fill="none" stroke="#63b8ff" d="M658.12,-346.32C530.87,-346.88 161.62,-339.82 161.62,-238.75 161.62,-238.75 161.62,-238.75 161.62,-182.25 161.62,-143.66 161.62,-97.62 161.62,-78.73"/>
<polygon fill="#63b8ff" stroke="#63b8ff" points="657.83,-349.82 667.8,-346.25 657.78,-342.82 657.83,-349.82"/>
</a>
</g>
</g>
<!-- Node5 -->
<g id="Node000005" class="node">
<title>Node5</title>
<g id="a_Node000005"><a xlink:href="coverage__algorithm_8cpp.html" target="_top" xlink:title="Program to test the CVT&#45;based (Lloyd&#39;s) coverage control algorithms.">
<polygon fill="white" stroke="#666666" points="736,-18.5 617.25,-18.5 617.25,0 736,0 736,-18.5"/>
<text text-anchor="middle" x="676.62" y="-5" font-family="Helvetica,sans-Serif" font-size="10.00">coverage_algorithm.cpp</text>
</a>
</g>
</g>
<!-- Node1&#45;&gt;Node5 -->
<g id="edge29_Node000001_Node000005" class="edge">
<title>Node1&#45;&gt;Node5</title>
<g id="a_edge29_Node000001_Node000005"><a xlink:title=" ">
<path fill="none" stroke="#63b8ff" d="M743.19,-343.06C885.01,-333.52 1332.62,-298.69 1332.62,-238.75 1332.62,-238.75 1332.62,-238.75 1332.62,-127.75 1332.62,-67.48 898,-27.48 736.29,-14.68"/>
<polygon fill="#63b8ff" stroke="#63b8ff" points="743.22,-339.55 733.48,-343.7 743.69,-346.53 743.22,-339.55"/>
</a>
</g>
</g>
<!-- Node6 -->
<g id="Node000006" class="node">
<title>Node6</title>
<g id="a_Node000006"><a xlink:href="decentralized__cvt_8h.html" target="_top" xlink:title="Contains the DecentralizedCVT class.">
<polygon fill="white" stroke="#666666" points="99.25,-78.25 0,-78.25 0,-59.75 99.25,-59.75 99.25,-78.25"/>
<text text-anchor="middle" x="49.62" y="-64.75" font-family="Helvetica,sans-Serif" font-size="10.00">decentralized_cvt.h</text>
</a>
</g>
</g>
<!-- Node1&#45;&gt;Node6 -->
<g id="edge31_Node000001_Node000006" class="edge">
<title>Node1&#45;&gt;Node6</title>
<g id="a_edge31_Node000001_Node000006"><a xlink:title=" ">
<path fill="none" stroke="#63b8ff" d="M658.04,-344.41C552.4,-340.71 280.63,-328.75 194.62,-301.5 141.7,-284.73 86.62,-294.26 86.62,-238.75 86.62,-238.75 86.62,-238.75 86.62,-182.25 86.62,-141.83 64.71,-97.15 54.61,-78.7"/>
<polygon fill="#63b8ff" stroke="#63b8ff" points="657.87,-347.91 667.98,-344.75 658.11,-340.91 657.87,-347.91"/>
</a>
</g>
</g>
<!-- Node7 -->
<g id="Node000007" class="node">
<title>Node7</title>
<g id="a_Node000007"><a xlink:href="near__optimal__cvt_8h.html" target="_top" xlink:title="NearOptimalCVT class Global offline oracle: has complete information about the environment....">
<polygon fill="white" stroke="#666666" points="725.5,-78.25 627.75,-78.25 627.75,-59.75 725.5,-59.75 725.5,-78.25"/>
<text text-anchor="middle" x="676.62" y="-64.75" font-family="Helvetica,sans-Serif" font-size="10.00">near_optimal_cvt.h</text>
</a>
</g>
</g>
<!-- Node1&#45;&gt;Node7 -->
<g id="edge39_Node000001_Node000007" class="edge">
<title>Node1&#45;&gt;Node7</title>
<g id="a_edge39_Node000001_Node000007"><a xlink:title=" ">
<path fill="none" stroke="#63b8ff" d="M723.66,-330.54C732.94,-323.02 742.63,-313.07 747.62,-301.5 750.89,-293.95 748.94,-291.12 747.62,-283 734.26,-200.66 693.63,-107.14 680.65,-78.67"/>
<polygon fill="#63b8ff" stroke="#63b8ff" points="721.84,-327.53 715.91,-336.31 726.02,-333.14 721.84,-327.53"/>
</a>
</g>
</g>
<!-- Node8 -->
<g id="Node000008" class="node">
<title>Node8</title>
<g id="a_Node000008"><a xlink:href="oracle__bang__explore__exploit_8h.html" target="_top" xlink:title="First trial of oracle with exploration and exploitation. The oracle uses complete information about t...">
<polygon fill="white" stroke="#666666" points="436.25,-83.5 331,-83.5 331,-54.5 436.25,-54.5 436.25,-83.5"/>
<text text-anchor="start" x="339" y="-70" font-family="Helvetica,sans-Serif" font-size="10.00">oracle_bang_explore</text>
<text text-anchor="middle" x="383.62" y="-59.5" font-family="Helvetica,sans-Serif" font-size="10.00">_exploit.h</text>
</a>
</g>
</g>
<!-- Node1&#45;&gt;Node8 -->
<g id="edge43_Node000001_Node000008" class="edge">
<title>Node1&#45;&gt;Node8</title>
<g id="a_edge43_Node000001_Node000008"><a xlink:title=" ">
<path fill="none" stroke="#63b8ff" d="M657.99,-344.94C571.5,-342.62 378.89,-333.88 322.62,-301.5 292.43,-284.12 275.62,-273.59 275.62,-238.75 275.62,-238.75 275.62,-238.75 275.62,-182.25 275.62,-153.11 276.33,-142.18 294.62,-119.5 307.5,-103.53 326.98,-91.87 344.44,-83.9"/>
<polygon fill="#63b8ff" stroke="#63b8ff" points="657.86,-348.44 667.95,-345.19 658.04,-341.44 657.86,-348.44"/>
</a>
</g>
</g>
<!-- Node9 -->
<g id="Node000009" class="node">
<title>Node9</title>
<g id="a_Node000009"><a xlink:href="oracle__explore__exploit_8h.html" target="_top" xlink:title="Old trial of exploration and exploitation Uses system map for exploration as well.">
<polygon fill="white" stroke="#666666" points="930.75,-78.25 810.5,-78.25 810.5,-59.75 930.75,-59.75 930.75,-78.25"/>
<text text-anchor="middle" x="870.62" y="-64.75" font-family="Helvetica,sans-Serif" font-size="10.00">oracle_explore_exploit.h</text>
</a>
</g>
</g>
<!-- Node1&#45;&gt;Node9 -->
<g id="edge44_Node000001_Node000009" class="edge">
<title>Node1&#45;&gt;Node9</title>
<g id="a_edge44_Node000001_Node000009"><a xlink:title=" ">
<path fill="none" stroke="#63b8ff" d="M743.2,-342.81C821.9,-334.7 987.35,-304.48 1044.62,-192.5 1075.92,-131.32 969.88,-94.38 909.56,-78.75"/>
<polygon fill="#63b8ff" stroke="#63b8ff" points="742.92,-339.32 733.29,-343.75 743.58,-346.29 742.92,-339.32"/>
</a>
</g>
</g>
<!-- Node10 -->
<g id="Node000010" class="node">
<title>Node10</title>
<g id="a_Node000010"><a xlink:href="simul__explore__exploit_8h.html" target="_top" xlink:title="Simultaneous exploration and exploitation algorithm Uses frontier&#45;based exploration with bias towards...">
<polygon fill="white" stroke="#666666" points="571.25,-78.25 454,-78.25 454,-59.75 571.25,-59.75 571.25,-78.25"/>
<text text-anchor="middle" x="512.62" y="-64.75" font-family="Helvetica,sans-Serif" font-size="10.00">simul_explore_exploit.h</text>
</a>
</g>
</g>
<!-- Node1&#45;&gt;Node10 -->
<g id="edge54_Node000001_Node000010" class="edge">
<title>Node1&#45;&gt;Node10</title>
<g id="a_edge54_Node000001_Node000010"><a xlink:title=" ">
<path fill="none" stroke="#63b8ff" d="M658.29,-345.21C589.77,-343.33 459.33,-335.29 430.62,-301.5 370.17,-230.33 473.16,-111.51 504.19,-78.65"/>
<polygon fill="#63b8ff" stroke="#63b8ff" points="657.93,-348.7 668.02,-345.44 658.1,-341.7 657.93,-348.7"/>
</a>
</g>
</g>
<!-- Node11 -->
<g id="Node000011" class="node">
<title>Node11</title>
<g id="a_Node000011"><a xlink:href="bivariate__normal__distribution_8h.html" target="_top" xlink:title="Class for Bivariate Normal Distribution.">
<polygon fill="white" stroke="#666666" points="723.25,-301.5 576,-301.5 576,-283 723.25,-283 723.25,-301.5"/>
<text text-anchor="middle" x="649.62" y="-288" font-family="Helvetica,sans-Serif" font-size="10.00">bivariate_normal_distribution.h</text>
</a>
</g>
</g>
<!-- Node1&#45;&gt;Node11 -->
<g id="edge10_Node000001_Node000011" class="edge">
<title>Node1&#45;&gt;Node11</title>
<g id="a_edge10_Node000001_Node000011"><a xlink:title=" ">
<path fill="none" stroke="#63b8ff" d="M684.43,-329.08C675.6,-319.99 665.04,-309.12 657.89,-301.76"/>
<polygon fill="#63b8ff" stroke="#63b8ff" points="681.67,-331.26 691.15,-336 686.69,-326.38 681.67,-331.26"/>
</a>
</g>
</g>
<!-- Node12 -->
<g id="Node000012" class="node">
<title>Node12</title>
<g id="a_Node000012"><a xlink:href="coverage__system_8h.html" target="_top" xlink:title="The file contains the CoverageSystem class, which is the main class for the coverage control library.">
<polygon fill="white" stroke="#666666" points="625.25,-138 526,-138 526,-119.5 625.25,-119.5 625.25,-138"/>
<text text-anchor="middle" x="575.62" y="-124.5" font-family="Helvetica,sans-Serif" font-size="10.00">coverage_system.h</text>
</a>
</g>
</g>
<!-- Node1&#45;&gt;Node12 -->
<g id="edge30_Node000001_Node000012" class="edge">
<title>Node1&#45;&gt;Node12</title>
<g id="a_edge30_Node000001_Node000012"><a xlink:title=" ">
<path fill="none" stroke="#63b8ff" d="M658.57,-344.79C593.09,-342.3 471.48,-333.4 444.62,-301.5 393.78,-241.11 515.12,-163.91 559.86,-138.38"/>
<polygon fill="#63b8ff" stroke="#63b8ff" points="658.09,-348.27 668.21,-345.12 658.33,-341.28 658.09,-348.27"/>
</a>
</g>
</g>
<!-- Node14 -->
<g id="Node000014" class="node">
<title>Node14</title>
<g id="a_Node000014"><a xlink:href="world__idf_8h.html" target="_top" xlink:title="Contains the class for Importance Density Function (IDF) for the world.">
<polygon fill="white" stroke="#666666" points="707.5,-247 645.75,-247 645.75,-228.5 707.5,-228.5 707.5,-247"/>
<text text-anchor="middle" x="676.62" y="-233.5" font-family="Helvetica,sans-Serif" font-size="10.00">world_idf.h</text>
</a>
</g>
</g>
<!-- Node1&#45;&gt;Node14 -->
<g id="edge64_Node000001_Node000014" class="edge">
<title>Node1&#45;&gt;Node14</title>
<g id="a_edge64_Node000001_Node000014"><a xlink:title=" ">
<path fill="none" stroke="#63b8ff" d="M718.23,-329.13C729.33,-316.53 740.26,-298.76 732.62,-283 724.79,-266.83 707.87,-254.78 694.66,-247.37"/>
<polygon fill="#63b8ff" stroke="#63b8ff" points="715.84,-326.56 711.42,-336.19 720.88,-331.42 715.84,-326.56"/>
</a>
</g>
</g>
<!-- Node15 -->
<g id="Node000015" class="node">
<title>Node15</title>
<g id="a_Node000015"><a xlink:href="robot__model_8h.html" target="_top" xlink:title="Class for handling the robot model.">
<polygon fill="white" stroke="#666666" points="647.38,-192.5 569.88,-192.5 569.88,-174 647.38,-174 647.38,-192.5"/>
<text text-anchor="middle" x="608.62" y="-179" font-family="Helvetica,sans-Serif" font-size="10.00">robot_model.h</text>
</a>
</g>
</g>
<!-- Node1&#45;&gt;Node15 -->
<g id="edge53_Node000001_Node000015" class="edge">
<title>Node1&#45;&gt;Node15</title>
<g id="a_edge53_Node000001_Node000015"><a xlink:title=" ">
<path fill="none" stroke="#63b8ff" d="M658.05,-344.18C627.16,-340.53 587.31,-330.11 566.62,-301.5 541.04,-266.1 581.98,-213.56 600.39,-192.98"/>
<polygon fill="#63b8ff" stroke="#63b8ff" points="657.6,-347.65 667.88,-345.12 658.26,-340.68 657.6,-347.65"/>
</a>
</g>
</g>
<!-- Node17 -->
<g id="Node000017" class="node">
<title>Node17</title>
<g id="a_Node000017"><a xlink:href="geographiclib__wrapper_8h.html" target="_top" xlink:title="Wrappers for GeographicLib functions.">
<polygon fill="white" stroke="#666666" points="1482.12,-301.5 1361.12,-301.5 1361.12,-283 1482.12,-283 1482.12,-301.5"/>
<text text-anchor="middle" x="1421.62" y="-288" font-family="Helvetica,sans-Serif" font-size="10.00">geographiclib_wrapper.h</text>
</a>
</g>
</g>
<!-- Node1&#45;&gt;Node17 -->
<g id="edge32_Node000001_Node000017" class="edge">
<title>Node1&#45;&gt;Node17</title>
<g id="a_edge32_Node000001_Node000017"><a xlink:title=" ">
<path fill="none" stroke="#63b8ff" d="M743.11,-343.45C846.49,-337.71 1119.4,-321.77 1346.62,-301.5 1351.19,-301.09 1355.91,-300.64 1360.66,-300.17"/>
<polygon fill="#63b8ff" stroke="#63b8ff" points="743.22,-339.93 733.43,-343.98 743.61,-346.92 743.22,-339.93"/>
</a>
</g>
</g>
<!-- Node18 -->
<g id="Node000018" class="node">
<title>Node18</title>
<g id="a_Node000018"><a xlink:href="map__utils_8h.html" target="_top" xlink:title="Utility functions for transforming maps.">
<polygon fill="white" stroke="#666666" points="519.75,-301.5 453.5,-301.5 453.5,-283 519.75,-283 519.75,-301.5"/>
<text text-anchor="middle" x="486.62" y="-288" font-family="Helvetica,sans-Serif" font-size="10.00">map_utils.h</text>
</a>
</g>
</g>
<!-- Node1&#45;&gt;Node18 -->
<g id="edge33_Node000001_Node000018" class="edge">
<title>Node1&#45;&gt;Node18</title>
<g id="a_edge33_Node000001_Node000018"><a xlink:title=" ">
<path fill="none" stroke="#63b8ff" d="M658.36,-335.38C617.74,-325.42 557.19,-310.56 519.89,-301.41"/>
<polygon fill="#63b8ff" stroke="#63b8ff" points="657.49,-338.77 668.04,-337.76 659.16,-331.97 657.49,-338.77"/>
</a>
</g>
</g>
<!-- Node19 -->
<g id="Node000019" class="node">
<title>Node19</title>
<g id="a_Node000019"><a xlink:href="near__optimal__cvt__algorithm_8h.html" target="_top" xlink:title="Near Optimal Centroidal Voronoi Tessellation (CVT) algorithm Near&#45;optimal Centroidal Voronoi Tessella...">
<polygon fill="white" stroke="#666666" points="1003.38,-138 859.88,-138 859.88,-119.5 1003.38,-119.5 1003.38,-138"/>
<text text-anchor="middle" x="931.62" y="-124.5" font-family="Helvetica,sans-Serif" font-size="10.00">near_optimal_cvt_algorithm.h</text>
</a>
</g>
</g>
<!-- Node1&#45;&gt;Node19 -->
<g id="edge40_Node000001_Node000019" class="edge">
<title>Node1&#45;&gt;Node19</title>
<g id="a_edge40_Node000001_Node000019"><a xlink:title=" ">
<path fill="none" stroke="#63b8ff" d="M742.83,-340.38C777.35,-334.62 826.52,-323.2 864.62,-301.5 894.8,-284.31 905.64,-278.33 920.62,-247 938.45,-209.75 934.99,-158.28 932.74,-138.23"/>
<polygon fill="#63b8ff" stroke="#63b8ff" points="742.55,-336.88 733.22,-341.89 743.64,-343.8 742.55,-336.88"/>
</a>
</g>
</g>
<!-- Node20 -->
<g id="Node000020" class="node">
<title>Node20</title>
<g id="a_Node000020"><a xlink:href="plotter_8h.html" target="_top" xlink:title="Class to plot the map.">
<polygon fill="white" stroke="#666666" points="869.25,-192.5 818,-192.5 818,-174 869.25,-174 869.25,-192.5"/>
<text text-anchor="middle" x="843.62" y="-179" font-family="Helvetica,sans-Serif" font-size="10.00">plotter.h</text>
</a>
</g>
</g>
<!-- Node1&#45;&gt;Node20 -->
<g id="edge45_Node000001_Node000020" class="edge">
<title>Node1&#45;&gt;Node20</title>
<g id="a_edge45_Node000001_Node000020"><a xlink:title=" ">
<path fill="none" stroke="#63b8ff" d="M742.45,-336.4C763.32,-329.8 787.49,-318.93 803.62,-301.5 833.43,-269.3 841.13,-213.97 843.03,-192.81"/>
<polygon fill="#63b8ff" stroke="#63b8ff" points="741.66,-332.99 733.04,-339.14 743.62,-339.71 741.66,-332.99"/>
</a>
</g>
</g>
<!-- Node22 -->
<g id="Node000022" class="node">
<title>Node22</title>
<g id="a_Node000022"><a xlink:href="polygon__utils_8h.html" target="_top" xlink:title="Provides utilities for polygon manipulation using CGAL.">
<polygon fill="white" stroke="#666666" points="1255.88,-247 1175.38,-247 1175.38,-228.5 1255.88,-228.5 1255.88,-247"/>
<text text-anchor="middle" x="1215.62" y="-233.5" font-family="Helvetica,sans-Serif" font-size="10.00">polygon_utils.h</text>
</a>
</g>
</g>
<!-- Node1&#45;&gt;Node22 -->
<g id="edge49_Node000001_Node000022" class="edge">
<title>Node1&#45;&gt;Node22</title>
<g id="a_edge49_Node000001_Node000022"><a xlink:title=" ">
<path fill="none" stroke="#63b8ff" d="M743.12,-346.45C817.57,-346.51 975.65,-341.37 1101.62,-301.5 1141.69,-288.82 1183.71,-261.44 1203.7,-247.42"/>
<polygon fill="#63b8ff" stroke="#63b8ff" points="743.44,-342.95 733.42,-346.41 743.41,-349.95 743.44,-342.95"/>
</a>
</g>
</g>
<!-- Node24 -->
<g id="Node000024" class="node">
<title>Node24</title>
<g id="a_Node000024"><a xlink:href="utilities_8h.html" target="_top" xlink:title="Contains utility functions for CGAL.">
<polygon fill="white" stroke="#666666" points="1152.12,-247 1097.12,-247 1097.12,-228.5 1152.12,-228.5 1152.12,-247"/>
<text text-anchor="middle" x="1124.62" y="-233.5" font-family="Helvetica,sans-Serif" font-size="10.00">utilities.h</text>
</a>
</g>
</g>
<!-- Node1&#45;&gt;Node24 -->
<g id="edge55_Node000001_Node000024" class="edge">
<title>Node1&#45;&gt;Node24</title>
<g id="a_edge55_Node000001_Node000024"><a xlink:title=" ">
<path fill="none" stroke="#63b8ff" d="M743.47,-344.92C829.87,-342.57 1021.58,-333.77 1077.62,-301.5 1099.57,-288.87 1114.43,-261.47 1120.93,-247.43"/>
<polygon fill="#63b8ff" stroke="#63b8ff" points="743.42,-341.42 733.51,-345.17 743.6,-348.41 743.42,-341.42"/>
</a>
</g>
</g>
<!-- Node26 -->
<g id="Node000026" class="node">
<title>Node26</title>
<g id="a_Node000026"><a xlink:href="voronoi_8h.html" target="_top" xlink:title="Class for computing Voronoi cells.">
<polygon fill="white" stroke="#666666" points="911.12,-247 856.12,-247 856.12,-228.5 911.12,-228.5 911.12,-247"/>
<text text-anchor="middle" x="883.62" y="-233.5" font-family="Helvetica,sans-Serif" font-size="10.00">voronoi.h</text>
</a>
</g>
</g>
<!-- Node1&#45;&gt;Node26 -->
<g id="edge58_Node000001_Node000026" class="edge">
<title>Node1&#45;&gt;Node26</title>
<g id="a_edge58_Node000001_Node000026"><a xlink:title=" ">
<path fill="none" stroke="#63b8ff" d="M742.9,-340.11C772.84,-334.4 812.67,-323.18 841.62,-301.5 860.94,-287.05 874.18,-260.95 880.11,-247.42"/>
<polygon fill="#63b8ff" stroke="#63b8ff" points="742.68,-336.59 733.44,-341.77 743.89,-343.48 742.68,-336.59"/>
</a>
</g>
</g>
<!-- Node2&#45;&gt;Node3 -->
<g id="edge2_Node000002_Node000003" class="edge">
<title>Node2&#45;&gt;Node3</title>
<g id="a_edge2_Node000002_Node000003"><a xlink:title=" ">
<path fill="none" stroke="#63b8ff" d="M333.43,-113.02C317.11,-102.18 295.48,-87.82 281.8,-78.75"/>
<polygon fill="#63b8ff" stroke="#63b8ff" points="331.26,-115.78 341.53,-118.39 335.13,-109.95 331.26,-115.78"/>
</a>
</g>
</g>
<!-- Node2&#45;&gt;Node4 -->
<g id="edge3_Node000002_Node000004" class="edge">
<title>Node2&#45;&gt;Node4</title>
<g id="a_edge3_Node000002_Node000004"><a xlink:title=" ">
<path fill="none" stroke="#63b8ff" d="M315.65,-115.85C278.52,-104.8 224.1,-88.6 190.87,-78.7"/>
<polygon fill="#63b8ff" stroke="#63b8ff" points="314.55,-119.17 325.13,-118.67 316.54,-112.46 314.55,-119.17"/>
</a>
</g>
</g>
<!-- Node2&#45;&gt;Node6 -->
<g id="edge5_Node000002_Node000006" class="edge">
<title>Node2&#45;&gt;Node6</title>
<g id="a_edge5_Node000002_Node000006"><a xlink:title=" ">
<path fill="none" stroke="#63b8ff" d="M291.69,-117.16C241.73,-108.67 170.6,-96.13 108.62,-83.5 101.42,-82.03 93.74,-80.36 86.39,-78.7"/>
<polygon fill="#63b8ff" stroke="#63b8ff" points="291.03,-120.59 301.47,-118.81 292.2,-113.69 291.03,-120.59"/>
</a>
</g>
</g>
<!-- Node2&#45;&gt;Node7 -->
<g id="edge6_Node000002_Node000007" class="edge">
<title>Node2&#45;&gt;Node7</title>
<g id="a_edge6_Node000002_Node000007"><a xlink:title=" ">
<path fill="none" stroke="#63b8ff" d="M415.09,-117.05C476.46,-106.01 571.07,-88.99 628.09,-78.73"/>
<polygon fill="#63b8ff" stroke="#63b8ff" points="414.74,-113.56 405.52,-118.77 415.98,-120.45 414.74,-113.56"/>
</a>
</g>
</g>
<!-- Node2&#45;&gt;Node8 -->
<g id="edge7_Node000002_Node000008" class="edge">
<title>Node2&#45;&gt;Node8</title>
<g id="a_edge7_Node000002_Node000008"><a xlink:title=" ">
<path fill="none" stroke="#63b8ff" d="M364.65,-109.14C368.62,-100.96 373.2,-91.5 376.87,-83.93"/>
<polygon fill="#63b8ff" stroke="#63b8ff" points="361.63,-107.34 360.42,-117.87 367.93,-110.4 361.63,-107.34"/>
</a>
</g>
</g>
<!-- Node2&#45;&gt;Node9 -->
<g id="edge8_Node000002_Node000009" class="edge">
<title>Node2&#45;&gt;Node9</title>
<g id="a_edge8_Node000002_Node000009"><a xlink:title=" ">
<path fill="none" stroke="#63b8ff" d="M419.47,-120.59C519.56,-109.37 712.09,-87.78 810.09,-76.79"/>
<polygon fill="#63b8ff" stroke="#63b8ff" points="419.37,-117.08 409.82,-121.67 420.15,-124.04 419.37,-117.08"/>
</a>
</g>
</g>
<!-- Node2&#45;&gt;Node10 -->
<g id="edge9_Node000002_Node000010" class="edge">
<title>Node2&#45;&gt;Node10</title>
<g id="a_edge9_Node000002_Node000010"><a xlink:title=" ">
<path fill="none" stroke="#63b8ff" d="M389.93,-115.13C419.91,-104.1 462.65,-88.38 488.96,-78.7"/>
<polygon fill="#63b8ff" stroke="#63b8ff" points="388.73,-111.84 380.55,-118.58 391.14,-118.41 388.73,-111.84"/>
</a>
</g>
</g>
<!-- Node4&#45;&gt;Node5 -->
<g id="edge4_Node000004_Node000005" class="edge">
<title>Node4&#45;&gt;Node5</title>
<g id="a_edge4_Node000004_Node000005"><a xlink:title=" ">
<path fill="none" stroke="#63b8ff" d="M204.03,-56.77C207.94,-55.92 211.84,-55.15 215.62,-54.5 358.45,-29.93 528.7,-18.02 616.94,-13.13"/>
<polygon fill="#63b8ff" stroke="#63b8ff" points="203.58,-53.28 194.63,-58.94 205.16,-60.1 203.58,-53.28"/>
</a>
</g>
</g>
<!-- Node11&#45;&gt;Node12 -->
<g id="edge11_Node000011_Node000012" class="edge">
<title>Node11&#45;&gt;Node12</title>
<g id="a_edge11_Node000011_Node000012"><a xlink:title=" ">
<path fill="none" stroke="#63b8ff" d="M628.57,-275.77C606.81,-258.34 574.18,-227.78 560.62,-192.5 553.48,-173.89 563.52,-150.82 570.3,-138.49"/>
<polygon fill="#63b8ff" stroke="#63b8ff" points="626.17,-278.34 636.22,-281.7 630.46,-272.81 626.17,-278.34"/>
</a>
</g>
</g>
<!-- Node11&#45;&gt;Node14 -->
<g id="edge21_Node000011_Node000014" class="edge">
<title>Node11&#45;&gt;Node14</title>
<g id="a_edge21_Node000011_Node000014"><a xlink:title=" ">
<path fill="none" stroke="#63b8ff" d="M659.22,-272.59C663.67,-263.94 668.74,-254.09 672.25,-247.26"/>
<polygon fill="#63b8ff" stroke="#63b8ff" points="656.24,-270.74 654.78,-281.23 662.46,-273.94 656.24,-270.74"/>
</a>
</g>
</g>
<!-- Node12&#45;&gt;Node3 -->
<g id="edge12_Node000012_Node000003" class="edge">
<title>Node12&#45;&gt;Node3</title>
<g id="a_edge12_Node000012_Node000003"><a xlink:title=" ">
<path fill="none" stroke="#63b8ff" d="M514.48,-118.45C462.87,-110.28 387.14,-97.53 321.62,-83.5 315.03,-82.09 308.02,-80.42 301.33,-78.75"/>
<polygon fill="#63b8ff" stroke="#63b8ff" points="513.85,-121.89 524.27,-119.99 514.93,-114.98 513.85,-121.89"/>
</a>
</g>
</g>
<!-- Node12&#45;&gt;Node4 -->
<g id="edge13_Node000012_Node000004" class="edge">
<title>Node12&#45;&gt;Node4</title>
<g id="a_edge13_Node000012_Node000004"><a xlink:title=" ">
<path fill="none" stroke="#63b8ff" d="M514.44,-122.54C442.54,-115.88 319.79,-102.85 215.62,-83.5 208.5,-82.18 200.91,-80.47 193.75,-78.72"/>
<polygon fill="#63b8ff" stroke="#63b8ff" points="513.75,-125.99 524.03,-123.41 514.39,-119.02 513.75,-125.99"/>
</a>
</g>
</g>
<!-- Node12&#45;&gt;Node5 -->
<g id="edge14_Node000012_Node000005" class="edge">
<title>Node12&#45;&gt;Node5</title>
<g id="a_edge14_Node000012_Node000005"><a xlink:title=" ">
<path fill="none" stroke="#63b8ff" d="M583.9,-109.39C591.51,-93.74 603.83,-71.2 618.62,-54.5 631.56,-39.9 649.92,-26.85 662.5,-18.77"/>
<polygon fill="#63b8ff" stroke="#63b8ff" points="580.93,-107.47 579.87,-118.01 587.27,-110.44 580.93,-107.47"/>
</a>
</g>
</g>
<!-- Node12&#45;&gt;Node6 -->
<g id="edge16_Node000012_Node000006" class="edge">
<title>Node12&#45;&gt;Node6</title>
<g id="a_edge16_Node000012_Node000006"><a xlink:title=" ">
<path fill="none" stroke="#63b8ff" d="M514.29,-124.5C424.72,-119.17 253.05,-106.76 108.62,-83.5 100.64,-82.21 92.12,-80.48 84.11,-78.68"/>
<polygon fill="#63b8ff" stroke="#63b8ff" points="513.89,-127.98 524.08,-125.07 514.3,-120.99 513.89,-127.98"/>
</a>
</g>
</g>
<!-- Node12&#45;&gt;Node7 -->
<g id="edge17_Node000012_Node000007" class="edge">
<title>Node12&#45;&gt;Node7</title>
<g id="a_edge17_Node000012_Node000007"><a xlink:title=" ">
<path fill="none" stroke="#63b8ff" d="M600.32,-113.63C619.39,-102.73 645.15,-87.99 661.33,-78.75"/>
<polygon fill="#63b8ff" stroke="#63b8ff" points="598.79,-110.48 591.84,-118.48 602.26,-116.55 598.79,-110.48"/>
</a>
</g>
</g>
<!-- Node12&#45;&gt;Node8 -->
<g id="edge18_Node000012_Node000008" class="edge">
<title>Node12&#45;&gt;Node8</title>
<g id="a_edge18_Node000012_Node000008"><a xlink:title=" ">
<path fill="none" stroke="#63b8ff" d="M536.13,-115.87C505.35,-106.61 462.54,-93.74 430.11,-83.98"/>
<polygon fill="#63b8ff" stroke="#63b8ff" points="534.85,-119.14 545.43,-118.67 536.86,-112.44 534.85,-119.14"/>
</a>
</g>
</g>
<!-- Node12&#45;&gt;Node9 -->
<g id="edge19_Node000012_Node000009" class="edge">
<title>Node12&#45;&gt;Node9</title>
<g id="a_edge19_Node000012_Node000009"><a xlink:title=" ">
<path fill="none" stroke="#63b8ff" d="M631.34,-116.84C687.86,-105.78 774.21,-88.87 826.26,-78.68"/>
<polygon fill="#63b8ff" stroke="#63b8ff" points="630.74,-113.39 621.59,-118.75 632.08,-120.26 630.74,-113.39"/>
</a>
</g>
</g>
<!-- Node12&#45;&gt;Node10 -->
<g id="edge20_Node000012_Node000010" class="edge">
<title>Node12&#45;&gt;Node10</title>
<g id="a_edge20_Node000012_Node000010"><a xlink:title=" ">
<path fill="none" stroke="#63b8ff" d="M558.15,-111.73C546.43,-100.99 531.47,-87.27 521.96,-78.56"/>
<polygon fill="#63b8ff" stroke="#63b8ff" points="555.48,-114.03 565.21,-118.21 560.21,-108.87 555.48,-114.03"/>
</a>
</g>
</g>
<!-- Node13 -->
<g id="Node000013" class="node">
<title>Node13</title>
<g id="a_Node000013"><a xlink:href="coverage__system_8cpp.html" target="_top" xlink:title="Contains the implementation of the CoverageSystem class.">
<polygon fill="white" stroke="#666666" points="1086.5,-78.25 976.75,-78.25 976.75,-59.75 1086.5,-59.75 1086.5,-78.25"/>
<text text-anchor="middle" x="1031.62" y="-64.75" font-family="Helvetica,sans-Serif" font-size="10.00">coverage_system.cpp</text>
</a>
</g>
</g>
<!-- Node12&#45;&gt;Node13 -->
<g id="edge15_Node000012_Node000013" class="edge">
<title>Node12&#45;&gt;Node13</title>
<g id="a_edge15_Node000012_Node000013"><a xlink:title=" ">
<path fill="none" stroke="#63b8ff" d="M636.89,-120.77C709.27,-112.42 833.32,-97.76 939.62,-83.5 951.62,-81.89 964.49,-80.07 976.68,-78.29"/>
<polygon fill="#63b8ff" stroke="#63b8ff" points="636.76,-117.26 627.23,-121.88 637.56,-124.22 636.76,-117.26"/>
</a>
</g>
</g>
<!-- Node14&#45;&gt;Node5 -->
<g id="edge22_Node000014_Node000005" class="edge">
<title>Node14&#45;&gt;Node5</title>
<g id="a_edge22_Node000014_Node000005"><a xlink:title=" ">
<path fill="none" stroke="#63b8ff" d="M690.94,-219.05C716.08,-185.68 762.92,-111.68 734.62,-54.5 726.54,-38.15 709.2,-26.2 695.57,-18.86"/>
<polygon fill="#63b8ff" stroke="#63b8ff" points="688.25,-216.81 684.87,-226.85 693.78,-221.11 688.25,-216.81"/>
</a>
</g>
</g>
<!-- Node14&#45;&gt;Node12 -->
<g id="edge23_Node000014_Node000012" class="edge">
<title>Node14&#45;&gt;Node12</title>
<g id="a_edge23_Node000014_Node000012"><a xlink:title=" ">
<path fill="none" stroke="#63b8ff" d="M674.19,-216.78C671.69,-203.44 666.66,-186.17 656.62,-174 642.55,-156.94 620.12,-145.41 602.42,-138.41"/>
<polygon fill="#63b8ff" stroke="#63b8ff" points="670.72,-217.21 675.67,-226.58 677.64,-216.17 670.72,-217.21"/>
</a>
</g>
</g>
<!-- Node14&#45;&gt;Node15 -->
<g id="edge24_Node000014_Node000015" class="edge">
<title>Node14&#45;&gt;Node15</title>
<g id="a_edge24_Node000014_Node000015"><a xlink:title=" ">
<path fill="none" stroke="#63b8ff" d="M656.48,-221.2C644.43,-211.89 629.58,-200.43 619.64,-192.76"/>
<polygon fill="#63b8ff" stroke="#63b8ff" points="654.14,-223.81 664.2,-227.16 658.42,-218.27 654.14,-223.81"/>
</a>
</g>
</g>
<!-- Node16 -->
<g id="Node000016" class="node">
<title>Node16</title>
<g id="a_Node000016"><a xlink:href="world__idf_8cpp.html" target="_top" xlink:title="Contains the implementation of the WorldIDF class.">
<polygon fill="white" stroke="#666666" points="1035.75,-192.5 963.5,-192.5 963.5,-174 1035.75,-174 1035.75,-192.5"/>
<text text-anchor="middle" x="999.62" y="-179" font-family="Helvetica,sans-Serif" font-size="10.00">world_idf.cpp</text>
</a>
</g>
</g>
<!-- Node14&#45;&gt;Node16 -->
<g id="edge26_Node000014_Node000016" class="edge">
<title>Node14&#45;&gt;Node16</title>
<g id="a_edge26_Node000014_Node000016"><a xlink:title=" ">
<path fill="none" stroke="#63b8ff" d="M719.16,-229.84C783.13,-219.44 903.01,-199.95 963.19,-190.17"/>
<polygon fill="#63b8ff" stroke="#63b8ff" points="718.69,-226.37 709.38,-231.43 719.82,-233.28 718.69,-226.37"/>
</a>
</g>
</g>
<!-- Node15&#45;&gt;Node12 -->
<g id="edge25_Node000015_Node000012" class="edge">
<title>Node15&#45;&gt;Node12</title>
<g id="a_edge25_Node000015_Node000012"><a xlink:title=" ">
<path fill="none" stroke="#63b8ff" d="M597.08,-163.88C591.6,-155.16 585.32,-145.17 580.97,-138.26"/>
<polygon fill="#63b8ff" stroke="#63b8ff" points="594.09,-165.7 602.37,-172.3 600.01,-161.97 594.09,-165.7"/>
</a>
</g>
</g>
<!-- Node18&#45;&gt;Node6 -->
<g id="edge35_Node000018_Node000006" class="edge">
<title>Node18&#45;&gt;Node6</title>
<g id="a_edge35_Node000018_Node000006"><a xlink:title=" ">
<path fill="none" stroke="#63b8ff" d="M459.44,-277.49C377.32,-235.91 133.33,-112.38 66.64,-78.61"/>
<polygon fill="#63b8ff" stroke="#63b8ff" points="457.64,-280.5 468.14,-281.89 460.8,-274.25 457.64,-280.5"/>
</a>
</g>
</g>
<!-- Node18&#45;&gt;Node10 -->
<g id="edge37_Node000018_Node000010" class="edge">
<title>Node18&#45;&gt;Node10</title>
<g id="a_edge37_Node000018_Node000010"><a xlink:title=" ">
<path fill="none" stroke="#63b8ff" d="M488.96,-271.38C494.43,-224.84 507.89,-110.29 511.64,-78.38"/>
<polygon fill="#63b8ff" stroke="#63b8ff" points="485.51,-270.73 487.82,-281.07 492.46,-271.55 485.51,-270.73"/>
</a>
</g>
</g>
<!-- Node18&#45;&gt;Node12 -->
<g id="edge34_Node000018_Node000012" class="edge">
<title>Node18&#45;&gt;Node12</title>
<g id="a_edge34_Node000018_Node000012"><a xlink:title=" ">
<path fill="none" stroke="#63b8ff" d="M496.82,-272.75C516.01,-237.92 556.84,-163.83 570.82,-138.48"/>
<polygon fill="#63b8ff" stroke="#63b8ff" points="493.9,-270.79 492.14,-281.24 500.03,-274.17 493.9,-270.79"/>
</a>
</g>
</g>
<!-- Node18&#45;&gt;Node14 -->
<g id="edge38_Node000018_Node000014" class="edge">
<title>Node18&#45;&gt;Node14</title>
<g id="a_edge38_Node000018_Node000014"><a xlink:title=" ">
<path fill="none" stroke="#63b8ff" d="M528.92,-279.56C564.24,-269.8 613.76,-256.12 645.52,-247.34"/>
<polygon fill="#63b8ff" stroke="#63b8ff" points="528.17,-276.14 519.46,-282.18 530.03,-282.89 528.17,-276.14"/>
</a>
</g>
</g>
<!-- Node18&#45;&gt;Node15 -->
<g id="edge36_Node000018_Node000015" class="edge">
<title>Node18&#45;&gt;Node15</title>
<g id="a_edge36_Node000018_Node000015"><a xlink:title=" ">
<path fill="none" stroke="#63b8ff" d="M504.78,-275.33C530.93,-252.39 578.29,-210.86 598.76,-192.9"/>
<polygon fill="#63b8ff" stroke="#63b8ff" points="502.55,-272.63 497.34,-281.86 507.16,-277.89 502.55,-272.63"/>
</a>
</g>
</g>
<!-- Node19&#45;&gt;Node7 -->
<g id="edge41_Node000019_Node000007" class="edge">
<title>Node19&#45;&gt;Node7</title>
<g id="a_edge41_Node000019_Node000007"><a xlink:title=" ">
<path fill="none" stroke="#63b8ff" d="M882.23,-116.56C833.36,-105.5 759.59,-88.79 714.97,-78.68"/>
<polygon fill="#63b8ff" stroke="#63b8ff" points="881.17,-119.91 891.7,-118.71 882.72,-113.08 881.17,-119.91"/>
</a>
</g>
</g>
<!-- Node19&#45;&gt;Node9 -->
<g id="edge42_Node000019_Node000009" class="edge">
<title>Node19&#45;&gt;Node9</title>
<g id="a_edge42_Node000019_Node000009"><a xlink:title=" ">
<path fill="none" stroke="#63b8ff" d="M914.37,-111.41C903.08,-100.72 888.78,-87.18 879.66,-78.56"/>
<polygon fill="#63b8ff" stroke="#63b8ff" points="911.86,-113.85 921.53,-118.19 916.67,-108.77 911.86,-113.85"/>
</a>
</g>
</g>
<!-- Node20&#45;&gt;Node12 -->
<g id="edge47_Node000020_Node000012" class="edge">
<title>Node20&#45;&gt;Node12</title>
<g id="a_edge47_Node000020_Node000012"><a xlink:title=" ">
<path fill="none" stroke="#63b8ff" d="M806.68,-175.01C758.01,-165.48 672.48,-148.72 620.25,-138.49"/>
<polygon fill="#63b8ff" stroke="#63b8ff" points="805.96,-178.44 816.44,-176.93 807.3,-171.57 805.96,-178.44"/>
</a>
</g>
</g>
<!-- Node20&#45;&gt;Node13 -->
<g id="edge46_Node000020_Node000013" class="edge">
<title>Node20&#45;&gt;Node13</title>
<g id="a_edge46_Node000020_Node000013"><a xlink:title=" ">
<path fill="none" stroke="#63b8ff" d="M880.61,-182.69C918.74,-181.09 977.45,-172.6 1012.62,-138 1029.05,-121.84 1031.6,-92.74 1031.79,-78.42"/>
<polygon fill="#63b8ff" stroke="#63b8ff" points="880.9,-179.18 871,-182.95 881.09,-186.18 880.9,-179.18"/>
</a>
</g>
</g>
<!-- Node21 -->
<g id="Node000021" class="node">
<title>Node21</title>
<g id="a_Node000021"><a xlink:href="plotter_8cpp.html" target="_top" xlink:title="Helper function to plot maps.">
<polygon fill="white" stroke="#666666" points="841.5,-138 779.75,-138 779.75,-119.5 841.5,-119.5 841.5,-138"/>
<text text-anchor="middle" x="810.62" y="-124.5" font-family="Helvetica,sans-Serif" font-size="10.00">plotter.cpp</text>
</a>
</g>
</g>
<!-- Node20&#45;&gt;Node21 -->
<g id="edge48_Node000020_Node000021" class="edge">
<title>Node20&#45;&gt;Node21</title>
<g id="a_edge48_Node000020_Node000021"><a xlink:title=" ">
<path fill="none" stroke="#63b8ff" d="M832.08,-163.88C826.6,-155.16 820.32,-145.17 815.97,-138.26"/>
<polygon fill="#63b8ff" stroke="#63b8ff" points="829.09,-165.7 837.37,-172.3 835.01,-161.97 829.09,-165.7"/>
</a>
</g>
</g>
<!-- Node22&#45;&gt;Node13 -->
<g id="edge50_Node000022_Node000013" class="edge">
<title>Node22&#45;&gt;Node13</title>
<g id="a_edge50_Node000022_Node000013"><a xlink:title=" ">
<path fill="none" stroke="#63b8ff" d="M1244.94,-222.77C1265.75,-210.84 1287.98,-192.7 1275.62,-174 1233.86,-110.8 1145.02,-85.88 1086.85,-76.14"/>
<polygon fill="#63b8ff" stroke="#63b8ff" points="1243.48,-219.57 1236.32,-227.38 1246.79,-225.74 1243.48,-219.57"/>
</a>
</g>
</g>
<!-- Node22&#45;&gt;Node16 -->
<g id="edge52_Node000022_Node000016" class="edge">
<title>Node22&#45;&gt;Node16</title>
<g id="a_edge52_Node000022_Node000016"><a xlink:title=" ">
<path fill="none" stroke="#63b8ff" d="M1168.87,-225.39C1128.78,-215.64 1071.87,-201.81 1035.35,-192.93"/>
<polygon fill="#63b8ff" stroke="#63b8ff" points="1167.94,-228.76 1178.49,-227.72 1169.6,-221.96 1167.94,-228.76"/>
</a>
</g>
</g>
<!-- Node23 -->
<g id="Node000023" class="node">
<title>Node23</title>
<g id="a_Node000023"><a xlink:href="polygon__utils_8cpp.html" target="_top" xlink:title="Helper functions for polygon operations using CGAL.">
<polygon fill="white" stroke="#666666" points="1266.12,-192.5 1175.12,-192.5 1175.12,-174 1266.12,-174 1266.12,-192.5"/>
<text text-anchor="middle" x="1220.62" y="-179" font-family="Helvetica,sans-Serif" font-size="10.00">polygon_utils.cpp</text>
</a>
</g>
</g>
<!-- Node22&#45;&gt;Node23 -->
<g id="edge51_Node000022_Node000023" class="edge">
<title>Node22&#45;&gt;Node23</title>
<g id="a_edge51_Node000022_Node000023"><a xlink:title=" ">
<path fill="none" stroke="#63b8ff" d="M1217.54,-216.64C1218.33,-208.36 1219.2,-199.21 1219.81,-192.76"/>
<polygon fill="#63b8ff" stroke="#63b8ff" points="1214.06,-216.29 1216.59,-226.57 1221.03,-216.95 1214.06,-216.29"/>
</a>
</g>
</g>
<!-- Node24&#45;&gt;Node23 -->
<g id="edge56_Node000024_Node000023" class="edge">
<title>Node24&#45;&gt;Node23</title>
<g id="a_edge56_Node000024_Node000023"><a xlink:title=" ">
<path fill="none" stroke="#63b8ff" d="M1150.5,-222.6C1167.8,-213.14 1190.01,-200.99 1204.75,-192.93"/>
<polygon fill="#63b8ff" stroke="#63b8ff" points="1148.9,-219.49 1141.81,-227.35 1152.26,-225.63 1148.9,-219.49"/>
</a>
</g>
</g>
<!-- Node25 -->
<g id="Node000025" class="node">
<title>Node25</title>
<g id="a_Node000025"><a xlink:href="voronoi_8cpp.html" target="_top" xlink:title="Functions to compute Centroidal Voronoi Tessellation.">
<polygon fill="white" stroke="#666666" points="1157.38,-192.5 1091.88,-192.5 1091.88,-174 1157.38,-174 1157.38,-192.5"/>
<text text-anchor="middle" x="1124.62" y="-179" font-family="Helvetica,sans-Serif" font-size="10.00">voronoi.cpp</text>
</a>
</g>
</g>
<!-- Node24&#45;&gt;Node25 -->
<g id="edge57_Node000024_Node000025" class="edge">
<title>Node24&#45;&gt;Node25</title>
<g id="a_edge57_Node000024_Node000025"><a xlink:title=" ">
<path fill="none" stroke="#63b8ff" d="M1124.62,-216.64C1124.62,-208.36 1124.62,-199.21 1124.62,-192.76"/>
<polygon fill="#63b8ff" stroke="#63b8ff" points="1121.13,-216.57 1124.63,-226.57 1128.13,-216.57 1121.13,-216.57"/>
</a>
</g>
</g>
<!-- Node26&#45;&gt;Node12 -->
<g id="edge59_Node000026_Node000012" class="edge">
<title>Node26&#45;&gt;Node12</title>
<g id="a_edge59_Node000026_Node000012"><a xlink:title=" ">
<path fill="none" stroke="#63b8ff" d="M848.09,-224.41C785.13,-202.53 655.46,-157.49 600.8,-138.5"/>
<polygon fill="#63b8ff" stroke="#63b8ff" points="846.66,-227.61 857.25,-227.59 848.95,-221 846.66,-227.61"/>
</a>
</g>
</g>
<!-- Node26&#45;&gt;Node15 -->
<g id="edge62_Node000026_Node000015" class="edge">
<title>Node26&#45;&gt;Node15</title>
<g id="a_edge62_Node000026_Node000015"><a xlink:title=" ">
<path fill="none" stroke="#63b8ff" d="M844.59,-229.3C792.25,-219.3 699.86,-201.67 647.57,-191.68"/>
<polygon fill="#63b8ff" stroke="#63b8ff" points="843.78,-232.71 854.26,-231.14 845.09,-225.83 843.78,-232.71"/>
</a>
</g>
</g>
<!-- Node26&#45;&gt;Node19 -->
<g id="edge60_Node000026_Node000019" class="edge">
<title>Node26&#45;&gt;Node19</title>
<g id="a_edge60_Node000026_Node000019"><a xlink:title=" ">
<path fill="none" stroke="#63b8ff" d="M892.02,-218.03C902.51,-194.65 920.01,-155.65 927.74,-138.4"/>
<polygon fill="#63b8ff" stroke="#63b8ff" points="888.91,-216.42 888.01,-226.97 895.3,-219.28 888.91,-216.42"/>
</a>
</g>
</g>
<!-- Node26&#45;&gt;Node20 -->
<g id="edge61_Node000026_Node000020" class="edge">
<title>Node26&#45;&gt;Node20</title>
<g id="a_edge61_Node000026_Node000020"><a xlink:title=" ">
<path fill="none" stroke="#63b8ff" d="M870.06,-218.95C863.32,-210.1 855.49,-199.82 850.11,-192.76"/>
<polygon fill="#63b8ff" stroke="#63b8ff" points="867.26,-221.04 876.1,-226.88 872.83,-216.8 867.26,-221.04"/>
</a>
</g>
</g>
<!-- Node26&#45;&gt;Node25 -->
<g id="edge63_Node000026_Node000025" class="edge">
<title>Node26&#45;&gt;Node25</title>
<g id="a_edge63_Node000026_Node000025"><a xlink:title=" ">
<path fill="none" stroke="#63b8ff" d="M922.48,-228.29C969.37,-218.07 1047.4,-201.07 1091.55,-191.46"/>
<polygon fill="#63b8ff" stroke="#63b8ff" points="921.78,-224.86 912.75,-230.41 923.27,-231.7 921.78,-224.86"/>
</a>
</g>
</g>
</g>
</svg>
