<?xml version="1.0" encoding="UTF-8" standalone="no"?>
<!DOCTYPE svg PUBLIC "-//W3C//DTD SVG 1.1//EN"
 "http://www.w3.org/Graphics/SVG/1.1/DTD/svg11.dtd">
<!-- Generated by graphviz version 10.0.1 (0)
 -->
<!-- Title: utilities.h Pages: 1 -->
<svg width="1942pt" height="167pt"
 viewBox="0.00 0.00 1942.12 167.00" xmlns="http://www.w3.org/2000/svg" xmlns:xlink="http://www.w3.org/1999/xlink">
<g id="graph0" class="graph" transform="scale(1 1) rotate(0) translate(4 163)">
<title>utilities.h</title>
<!-- Node1 -->
<g id="Node000001" class="node">
<title>Node1</title>
<g id="a_Node000001"><a xlink:title="Contains utility functions for CGAL.">
<polygon fill="#999999" stroke="#666666" points="452.62,-159 397.62,-159 397.62,-140.5 452.62,-140.5 452.62,-159"/>
<text text-anchor="middle" x="425.12" y="-145.5" font-family="Helvetica,sans-Serif" font-size="10.00">utilities.h</text>
</a>
</g>
</g>
<!-- Node2 -->
<g id="Node000002" class="node">
<title>Node2</title>
<g id="a_Node000002"><a xlink:title=" ">
<polygon fill="#e0e0e0" stroke="#999999" points="168.25,-99.25 0,-99.25 0,-80.75 168.25,-80.75 168.25,-99.25"/>
<text text-anchor="middle" x="84.12" y="-85.75" font-family="Helvetica,sans-Serif" font-size="10.00">CGAL/Boolean_set_operations_2.h</text>
</a>
</g>
</g>
<!-- Node1&#45;&gt;Node2 -->
<g id="edge1_Node000001_Node000002" class="edge">
<title>Node1&#45;&gt;Node2</title>
<g id="a_edge1_Node000001_Node000002"><a xlink:title=" ">
<path fill="none" stroke="#63b8ff" d="M397.22,-144.02C342.83,-134.81 221.44,-114.25 146.8,-101.61"/>
<polygon fill="#63b8ff" stroke="#63b8ff" points="147.62,-98.2 137.18,-99.99 146.46,-105.11 147.62,-98.2"/>
</a>
</g>
</g>
<!-- Node3 -->
<g id="Node000003" class="node">
<title>Node3</title>
<g id="a_Node000003"><a xlink:title=" ">
<polygon fill="#e0e0e0" stroke="#999999" points="335.5,-99.25 186.75,-99.25 186.75,-80.75 335.5,-80.75 335.5,-99.25"/>
<text text-anchor="middle" x="261.12" y="-85.75" font-family="Helvetica,sans-Serif" font-size="10.00">CGAL/Polygon_2_algorithms.h</text>
</a>
</g>
</g>
<!-- Node1&#45;&gt;Node3 -->
<g id="edge2_Node000001_Node000003" class="edge">
<title>Node1&#45;&gt;Node3</title>
<g id="a_edge2_Node000001_Node000003"><a xlink:title=" ">
<path fill="none" stroke="#63b8ff" d="M400.57,-140.1C372.92,-130.37 327.74,-114.46 296.33,-103.4"/>
<polygon fill="#63b8ff" stroke="#63b8ff" points="297.87,-100.23 287.27,-100.21 295.54,-106.83 297.87,-100.23"/>
</a>
</g>
</g>
<!-- Node4 -->
<g id="Node000004" class="node">
<title>Node4</title>
<g id="a_Node000004"><a xlink:title=" ">
<polygon fill="#e0e0e0" stroke="#999999" points="396.62,-99.25 353.62,-99.25 353.62,-80.75 396.62,-80.75 396.62,-99.25"/>
<text text-anchor="middle" x="375.12" y="-85.75" font-family="Helvetica,sans-Serif" font-size="10.00">omp.h</text>
</a>
</g>
</g>
<!-- Node1&#45;&gt;Node4 -->
<g id="edge3_Node000001_Node000004" class="edge">
<title>Node1&#45;&gt;Node4</title>
<g id="a_edge3_Node000001_Node000004"><a xlink:title=" ">
<path fill="none" stroke="#63b8ff" d="M417.75,-140.23C410.44,-131.78 399.03,-118.61 389.86,-108.02"/>
<polygon fill="#63b8ff" stroke="#63b8ff" points="392.72,-105.97 383.52,-100.7 387.42,-110.55 392.72,-105.97"/>
</a>
</g>
</g>
<!-- Node5 -->
<g id="Node000005" class="node">
<title>Node5</title>
<g id="a_Node000005"><a xlink:title=" ">
<polygon fill="#e0e0e0" stroke="#999999" points="446.25,-29 404,-29 404,-10.5 446.25,-10.5 446.25,-29"/>
<text text-anchor="middle" x="425.12" y="-15.5" font-family="Helvetica,sans-Serif" font-size="10.00">vector</text>
</a>
</g>
</g>
<!-- Node1&#45;&gt;Node5 -->
<g id="edge4_Node000001_Node000005" class="edge">
<title>Node1&#45;&gt;Node5</title>
<g id="a_edge4_Node000001_Node000005"><a xlink:title=" ">
<path fill="none" stroke="#63b8ff" d="M425.12,-140.35C425.12,-120.29 425.12,-69.12 425.12,-40.64"/>
<polygon fill="#63b8ff" stroke="#63b8ff" points="428.63,-40.86 425.13,-30.86 421.63,-40.86 428.63,-40.86"/>
</a>
</g>
</g>
<!-- Node6 -->
<g id="Node000006" class="node">
<title>Node6</title>
<g id="a_Node000006"><a xlink:title=" ">
<polygon fill="#e0e0e0" stroke="#999999" points="481.52,-99.25 452.73,-99.25 452.73,-80.75 481.52,-80.75 481.52,-99.25"/>
<text text-anchor="middle" x="467.12" y="-85.75" font-family="Helvetica,sans-Serif" font-size="10.00">list</text>
</a>
</g>
</g>
<!-- Node1&#45;&gt;Node6 -->
<g id="edge5_Node000001_Node000006" class="edge">
<title>Node1&#45;&gt;Node6</title>
<g id="a_edge5_Node000001_Node000006"><a xlink:title=" ">
<path fill="none" stroke="#63b8ff" d="M431.32,-140.23C437.34,-131.95 446.66,-119.14 454.28,-108.66"/>
<polygon fill="#63b8ff" stroke="#63b8ff" points="456.96,-110.93 460.01,-100.78 451.3,-106.81 456.96,-110.93"/>
</a>
</g>
</g>
<!-- Node7 -->
<g id="Node000007" class="node">
<title>Node7</title>
<g id="a_Node000007"><a xlink:href="typedefs_8h.html" target="_top" xlink:title="Contains typedefs for the library.">
<polygon fill="white" stroke="#666666" points="636.88,-99.25 499.38,-99.25 499.38,-80.75 636.88,-80.75 636.88,-99.25"/>
<text text-anchor="middle" x="568.12" y="-85.75" font-family="Helvetica,sans-Serif" font-size="10.00">CoverageControl/typedefs.h</text>
</a>
</g>
</g>
<!-- Node1&#45;&gt;Node7 -->
<g id="edge6_Node000001_Node000007" class="edge">
<title>Node1&#45;&gt;Node7</title>
<g id="a_edge6_Node000001_Node000007"><a xlink:title=" ">
<path fill="none" stroke="#63b8ff" d="M446.53,-140.1C470.23,-130.54 508.67,-115.01 535.98,-103.98"/>
<polygon fill="#63b8ff" stroke="#63b8ff" points="537.2,-107.26 545.17,-100.27 534.58,-100.77 537.2,-107.26"/>
</a>
</g>
</g>
<!-- Node10 -->
<g id="Node000010" class="node">
<title>Node10</title>
<g id="a_Node000010"><a xlink:href="config_8h.html" target="_top" xlink:title="Contains the configuration for the CGAL library.">
<polygon fill="white" stroke="#666666" points="1327,-104.5 1217.25,-104.5 1217.25,-75.5 1327,-75.5 1327,-104.5"/>
<text text-anchor="start" x="1225.25" y="-91" font-family="Helvetica,sans-Serif" font-size="10.00">CoverageControl/cgal</text>
<text text-anchor="middle" x="1272.12" y="-80.5" font-family="Helvetica,sans-Serif" font-size="10.00">/config.h</text>
</a>
</g>
</g>
<!-- Node1&#45;&gt;Node10 -->
<g id="edge10_Node000001_Node000010" class="edge">
<title>Node1&#45;&gt;Node10</title>
<g id="a_edge10_Node000001_Node000010"><a xlink:title=" ">
<path fill="none" stroke="#63b8ff" d="M452.82,-146.86C570.64,-138.83 1031.94,-107.38 1205.56,-95.54"/>
<polygon fill="#63b8ff" stroke="#63b8ff" points="1205.57,-99.05 1215.3,-94.87 1205.09,-92.06 1205.57,-99.05"/>
</a>
</g>
</g>
<!-- Node7&#45;&gt;Node5 -->
<g id="edge9_Node000007_Node000005" class="edge">
<title>Node7&#45;&gt;Node5</title>
<g id="a_edge9_Node000007_Node000005"><a xlink:title=" ">
<path fill="none" stroke="#63b8ff" d="M545.59,-80.26C522.45,-71.03 485.62,-55.6 455.12,-39.5 452.7,-38.22 450.2,-36.81 447.74,-35.36"/>
<polygon fill="#63b8ff" stroke="#63b8ff" points="449.66,-32.44 439.31,-30.18 446,-38.4 449.66,-32.44"/>
</a>
</g>
</g>
<!-- Node8 -->
<g id="Node000008" class="node">
<title>Node8</title>
<g id="a_Node000008"><a xlink:title=" ">
<polygon fill="#e0e0e0" stroke="#999999" points="536.25,-29 464,-29 464,-10.5 536.25,-10.5 536.25,-29"/>
<text text-anchor="middle" x="500.12" y="-15.5" font-family="Helvetica,sans-Serif" font-size="10.00">Eigen/Dense</text>
</a>
</g>
</g>
<!-- Node7&#45;&gt;Node8 -->
<g id="edge7_Node000007_Node000008" class="edge">
<title>Node7&#45;&gt;Node8</title>
<g id="a_edge7_Node000007_Node000008"><a xlink:title=" ">
<path fill="none" stroke="#63b8ff" d="M559.51,-80.36C548.72,-69.53 530.01,-50.75 516.47,-37.16"/>
<polygon fill="#63b8ff" stroke="#63b8ff" points="519.06,-34.8 509.52,-30.18 514.1,-39.74 519.06,-34.8"/>
</a>
</g>
</g>
<!-- Node9 -->
<g id="Node000009" class="node">
<title>Node9</title>
<g id="a_Node000009"><a xlink:title=" ">
<polygon fill="#e0e0e0" stroke="#999999" points="596.25,-29 554,-29 554,-10.5 596.25,-10.5 596.25,-29"/>
<text text-anchor="middle" x="575.12" y="-15.5" font-family="Helvetica,sans-Serif" font-size="10.00">queue</text>
</a>
</g>
</g>
<!-- Node7&#45;&gt;Node9 -->
<g id="edge8_Node000007_Node000009" class="edge">
<title>Node7&#45;&gt;Node9</title>
<g id="a_edge8_Node000007_Node000009"><a xlink:title=" ">
<path fill="none" stroke="#63b8ff" d="M569.01,-80.36C570.04,-70.35 571.76,-53.56 573.11,-40.35"/>
<polygon fill="#63b8ff" stroke="#63b8ff" points="576.57,-40.92 574.11,-30.62 569.61,-40.21 576.57,-40.92"/>
</a>
</g>
</g>
<!-- Node11 -->
<g id="Node000011" class="node">
<title>Node11</title>
<g id="a_Node000011"><a xlink:title=" ">
<polygon fill="#e0e0e0" stroke="#999999" points="746.25,-29 614,-29 614,-10.5 746.25,-10.5 746.25,-29"/>
<text text-anchor="middle" x="680.12" y="-15.5" font-family="Helvetica,sans-Serif" font-size="10.00">CGAL/Arr_linear_traits_2.h</text>
</a>
</g>
</g>
<!-- Node10&#45;&gt;Node11 -->
<g id="edge11_Node000010_Node000011" class="edge">
<title>Node10&#45;&gt;Node11</title>
<g id="a_edge11_Node000010_Node000011"><a xlink:title=" ">
<path fill="none" stroke="#63b8ff" d="M1217.05,-86.44C1122.17,-81.42 921.97,-68.18 755.12,-39.5 744.13,-37.61 732.37,-34.97 721.5,-32.27"/>
<polygon fill="#63b8ff" stroke="#63b8ff" points="722.58,-28.93 712.02,-29.83 720.84,-35.71 722.58,-28.93"/>
</a>
</g>
</g>
<!-- Node12 -->
<g id="Node000012" class="node">
<title>Node12</title>
<g id="a_Node000012"><a xlink:title=" ">
<polygon fill="#e0e0e0" stroke="#999999" points="875.75,-34.25 764.5,-34.25 764.5,-5.25 875.75,-5.25 875.75,-34.25"/>
<text text-anchor="start" x="772.5" y="-20.75" font-family="Helvetica,sans-Serif" font-size="10.00">CGAL/Arr_walk_along</text>
<text text-anchor="middle" x="820.12" y="-10.25" font-family="Helvetica,sans-Serif" font-size="10.00">_line_point_location.h</text>
</a>
</g>
</g>
<!-- Node10&#45;&gt;Node12 -->
<g id="edge12_Node000010_Node000012" class="edge">
<title>Node10&#45;&gt;Node12</title>
<g id="a_edge12_Node000010_Node000012"><a xlink:title=" ">
<path fill="none" stroke="#63b8ff" d="M1217.05,-84.73C1141.43,-78.25 1001.45,-64.01 884.12,-39.5 881.2,-38.89 878.21,-38.21 875.2,-37.48"/>
<polygon fill="#63b8ff" stroke="#63b8ff" points="876.33,-34.16 865.77,-35.06 874.59,-40.94 876.33,-34.16"/>
</a>
</g>
</g>
<!-- Node13 -->
<g id="Node000013" class="node">
<title>Node13</title>
<g id="a_Node000013"><a xlink:title=" ">
<polygon fill="#e0e0e0" stroke="#999999" points="1012.88,-29 893.38,-29 893.38,-10.5 1012.88,-10.5 1012.88,-29"/>
<text text-anchor="middle" x="953.12" y="-15.5" font-family="Helvetica,sans-Serif" font-size="10.00">CGAL/Arrangement_2.h</text>
</a>
</g>
</g>
<!-- Node10&#45;&gt;Node13 -->
<g id="edge13_Node000010_Node000013" class="edge">
<title>Node10&#45;&gt;Node13</title>
<g id="a_edge13_Node000010_Node000013"><a xlink:title=" ">
<path fill="none" stroke="#63b8ff" d="M1217.03,-79.35C1166.01,-70.13 1088.13,-55.32 1021.12,-39.5 1012.24,-37.4 1002.77,-34.94 993.8,-32.5"/>
<polygon fill="#63b8ff" stroke="#63b8ff" points="994.82,-29.15 984.25,-29.85 992.95,-35.89 994.82,-29.15"/>
</a>
</g>
</g>
<!-- Node14 -->
<g id="Node000014" class="node">
<title>Node14</title>
<g id="a_Node000014"><a xlink:title=" ">
<polygon fill="#e0e0e0" stroke="#999999" points="1193.62,-29 1030.62,-29 1030.62,-10.5 1193.62,-10.5 1193.62,-29"/>
<text text-anchor="middle" x="1112.12" y="-15.5" font-family="Helvetica,sans-Serif" font-size="10.00">CGAL/Delaunay_triangulation_2.h</text>
</a>
</g>
</g>
<!-- Node10&#45;&gt;Node14 -->
<g id="edge14_Node000010_Node000014" class="edge">
<title>Node10&#45;&gt;Node14</title>
<g id="a_edge14_Node000010_Node000014"><a xlink:title=" ">
<path fill="none" stroke="#63b8ff" d="M1239.36,-75.02C1210.95,-62.9 1170.16,-45.5 1142.48,-33.7"/>
<polygon fill="#63b8ff" stroke="#63b8ff" points="1144.17,-30.61 1133.6,-29.91 1141.42,-37.05 1144.17,-30.61"/>
</a>
</g>
</g>
<!-- Node15 -->
<g id="Node000015" class="node">
<title>Node15</title>
<g id="a_Node000015"><a xlink:title=" ">
<polygon fill="#e0e0e0" stroke="#999999" points="1332.25,-39.5 1212,-39.5 1212,0 1332.25,0 1332.25,-39.5"/>
<text text-anchor="start" x="1220" y="-26" font-family="Helvetica,sans-Serif" font-size="10.00">CGAL/Exact_predicates</text>
<text text-anchor="start" x="1220" y="-15.5" font-family="Helvetica,sans-Serif" font-size="10.00">_exact_constructions</text>
<text text-anchor="middle" x="1272.12" y="-5" font-family="Helvetica,sans-Serif" font-size="10.00">_kernel.h</text>
</a>
</g>
</g>
<!-- Node10&#45;&gt;Node15 -->
<g id="edge15_Node000010_Node000015" class="edge">
<title>Node10&#45;&gt;Node15</title>
<g id="a_edge15_Node000010_Node000015"><a xlink:title=" ">
<path fill="none" stroke="#63b8ff" d="M1272.12,-75.19C1272.12,-68.31 1272.12,-59.69 1272.12,-51.35"/>
<polygon fill="#63b8ff" stroke="#63b8ff" points="1275.63,-51.48 1272.13,-41.49 1268.63,-51.49 1275.63,-51.48"/>
</a>
</g>
</g>
<!-- Node16 -->
<g id="Node000016" class="node">
<title>Node16</title>
<g id="a_Node000016"><a xlink:title=" ">
<polygon fill="#e0e0e0" stroke="#999999" points="1478,-29 1350.25,-29 1350.25,-10.5 1478,-10.5 1478,-29"/>
<text text-anchor="middle" x="1414.12" y="-15.5" font-family="Helvetica,sans-Serif" font-size="10.00">CGAL/Partition_traits_2.h</text>
</a>
</g>
</g>
<!-- Node10&#45;&gt;Node16 -->
<g id="edge16_Node000010_Node000016" class="edge">
<title>Node10&#45;&gt;Node16</title>
<g id="a_edge16_Node000010_Node000016"><a xlink:title=" ">
<path fill="none" stroke="#63b8ff" d="M1301.2,-75.02C1326.08,-63.07 1361.66,-45.97 1386.2,-34.17"/>
<polygon fill="#63b8ff" stroke="#63b8ff" points="1387.44,-37.46 1394.94,-29.97 1384.41,-31.15 1387.44,-37.46"/>
</a>
</g>
</g>
<!-- Node17 -->
<g id="Node000017" class="node">
<title>Node17</title>
<g id="a_Node000017"><a xlink:title=" ">
<polygon fill="#e0e0e0" stroke="#999999" points="1646.25,-29 1496,-29 1496,-10.5 1646.25,-10.5 1646.25,-29"/>
<text text-anchor="middle" x="1571.12" y="-15.5" font-family="Helvetica,sans-Serif" font-size="10.00">CGAL/Polygon_with_holes_2.h</text>
</a>
</g>
</g>
<!-- Node10&#45;&gt;Node17 -->
<g id="edge17_Node000010_Node000017" class="edge">
<title>Node10&#45;&gt;Node17</title>
<g id="a_edge17_Node000010_Node000017"><a xlink:title=" ">
<path fill="none" stroke="#63b8ff" d="M1327.31,-76.4C1383.08,-63.67 1468.44,-44.19 1521.95,-31.97"/>
<polygon fill="#63b8ff" stroke="#63b8ff" points="1522.42,-35.46 1531.39,-29.82 1520.86,-28.63 1522.42,-35.46"/>
</a>
</g>
</g>
<!-- Node18 -->
<g id="Node000018" class="node">
<title>Node18</title>
<g id="a_Node000018"><a xlink:title=" ">
<polygon fill="#e0e0e0" stroke="#999999" points="1752.12,-29 1664.12,-29 1664.12,-10.5 1752.12,-10.5 1752.12,-29"/>
<text text-anchor="middle" x="1708.12" y="-15.5" font-family="Helvetica,sans-Serif" font-size="10.00">CGAL/centroid.h</text>
</a>
</g>
</g>
<!-- Node10&#45;&gt;Node18 -->
<g id="edge18_Node000010_Node000018" class="edge">
<title>Node10&#45;&gt;Node18</title>
<g id="a_edge18_Node000010_Node000018"><a xlink:title=" ">
<path fill="none" stroke="#63b8ff" d="M1327.33,-85.54C1402.36,-80.02 1540.35,-66.89 1655.12,-39.5 1662.1,-37.83 1669.44,-35.58 1676.36,-33.21"/>
<polygon fill="#63b8ff" stroke="#63b8ff" points="1677.13,-36.66 1685.35,-29.98 1674.76,-30.07 1677.13,-36.66"/>
</a>
</g>
</g>
<!-- Node19 -->
<g id="Node000019" class="node">
<title>Node19</title>
<g id="a_Node000019"><a xlink:title=" ">
<polygon fill="#e0e0e0" stroke="#999999" points="1869.75,-29 1770.5,-29 1770.5,-10.5 1869.75,-10.5 1869.75,-29"/>
<text text-anchor="middle" x="1820.12" y="-15.5" font-family="Helvetica,sans-Serif" font-size="10.00">CGAL/partition_2.h</text>
</a>
</g>
</g>
<!-- Node10&#45;&gt;Node19 -->
<g id="edge19_Node000010_Node000019" class="edge">
<title>Node10&#45;&gt;Node19</title>
<g id="a_edge19_Node000010_Node000019"><a xlink:title=" ">
<path fill="none" stroke="#63b8ff" d="M1327.32,-87.13C1418.5,-83.21 1605.92,-71.66 1761.12,-39.5 1769.21,-37.83 1777.75,-35.47 1785.75,-32.99"/>
<polygon fill="#63b8ff" stroke="#63b8ff" points="1786.73,-36.35 1795.16,-29.93 1784.56,-29.69 1786.73,-36.35"/>
</a>
</g>
</g>
<!-- Node20 -->
<g id="Node000020" class="node">
<title>Node20</title>
<g id="a_Node000020"><a xlink:title=" ">
<polygon fill="#e0e0e0" stroke="#999999" points="1934.12,-29 1888.12,-29 1888.12,-10.5 1934.12,-10.5 1934.12,-29"/>
<text text-anchor="middle" x="1911.12" y="-15.5" font-family="Helvetica,sans-Serif" font-size="10.00">iterator</text>
</a>
</g>
</g>
<!-- Node10&#45;&gt;Node20 -->
<g id="edge20_Node000010_Node000020" class="edge">
<title>Node10&#45;&gt;Node20</title>
<g id="a_edge20_Node000010_Node000020"><a xlink:title=" ">
<path fill="none" stroke="#63b8ff" d="M1327.2,-87.64C1456.65,-83.94 1777.03,-71.72 1879.12,-39.5 1882.58,-38.41 1886.05,-36.9 1889.38,-35.2"/>
<polygon fill="#63b8ff" stroke="#63b8ff" points="1891.09,-38.25 1897.97,-30.19 1887.56,-32.2 1891.09,-38.25"/>
</a>
</g>
</g>
</g>
</svg>
