<?xml version="1.0" encoding="UTF-8" standalone="no"?>
<!DOCTYPE svg PUBLIC "-//W3C//DTD SVG 1.1//EN"
 "http://www.w3.org/Graphics/SVG/1.1/DTD/svg11.dtd">
<!-- Generated by graphviz version 12.1.2 (0)
 -->
<!-- Title: utilities.h Pages: 1 -->
<!--zoomable 167 -->

<svg id="main" version="1.1" xmlns="http://www.w3.org/2000/svg" xmlns:xlink="http://www.w3.org/1999/xlink" xml:space="preserve" onload="init(evt)">

<style type="text/css"><![CDATA[
.node, .edge {opacity: 0.7;}
.node.selected, .edge.selected {opacity: 1;}
.edge:hover path { stroke: red; }
.edge:hover polygon { stroke: red; fill: red; }
]]></style>

<defs>
  <circle id="rim" cx="0" cy="0" r="7"/>
  <circle id="rim2" cx="0" cy="0" r="3.5"/>
  <g id="zoomPlus">
    <use xlink:href="#rim" fill="#404040"><set attributeName="fill" to="#808080" begin="zoomplus.mouseover" end="zoomplus.mouseout"/></use>
    <path d="M-4,0h8M0,-4v8" fill="none" stroke="white" stroke-width="1.5" pointer-events="none"/>
  </g>
  <g id="zoomMin">
    <use xlink:href="#rim" fill="#404040"><set attributeName="fill" to="#808080" begin="zoomminus.mouseover" end="zoomminus.mouseout"/></use>
    <path d="M-4,0h8" fill="none" stroke="white" stroke-width="1.5" pointer-events="none"/>
  </g>
  <g id="arrowUp" transform="translate(30 24)">
    <use xlink:href="#rim"/>
    <path pointer-events="none" fill="none" stroke="white" stroke-width="1.5" d="M0,-3.0v7 M-2.5,-0.5L0,-3.0L2.5,-0.5"/>
  </g>
  <g id="arrowRight" transform="rotate(90) translate(36 -43)">
    <use xlink:href="#rim"/>
    <path pointer-events="none" fill="none" stroke="white" stroke-width="1.5" d="M0,-3.0v7 M-2.5,-0.5L0,-3.0L2.5,-0.5"/>
  </g>
  <g id="arrowDown" transform="rotate(180) translate(-30 -48)">
    <use xlink:href="#rim"/>
    <path pointer-events="none" fill="none" stroke="white" stroke-width="1.5" d="M0,-3.0v7 M-2.5,-0.5L0,-3.0L2.5,-0.5"/>
  </g>
  <g id="arrowLeft" transform="rotate(270) translate(-36 17)">
    <use xlink:href="#rim"/>
    <path pointer-events="none" fill="none" stroke="white" stroke-width="1.5" d="M0,-3.0v7 M-2.5,-0.5L0,-3.0L2.5,-0.5"/>
  </g>
  <g id="resetDef">
    <use xlink:href="#rim2" fill="#404040"><set attributeName="fill" to="#808080" begin="reset.mouseover" end="reset.mouseout"/></use>
  </g>
</defs>
<script type="application/ecmascript">
var viewWidth = 2155;
var viewHeight = 167;
var sectionId = 'dynsection-0';
</script>
<script type="application/ecmascript" xlink:href="svg.min.js"/>
<svg id="graph" class="graph">
<g id="viewport">
<title>utilities.h</title>
<!-- Node1 -->
<g id="Node000001" class="node">
<title>Node1</title>
<g id="a_Node000001"><a xlink:title="Contains utility functions for CGAL.">
<polygon fill="#999999" stroke="#666666" points="1030.25,-159 975.25,-159 975.25,-140.5 1030.25,-140.5 1030.25,-159"/>
<text text-anchor="middle" x="1002.75" y="-145.5" font-family="Helvetica,sans-Serif" font-size="10.00">utilities.h</text>
</a>
</g>
</g>
<!-- Node2 -->
<g id="Node000002" class="node">
<title>Node2</title>
<g id="a_Node000002"><a xlink:title=" ">
<polygon fill="#e0e0e0" stroke="#999999" points="741.88,-99.25 573.62,-99.25 573.62,-80.75 741.88,-80.75 741.88,-99.25"/>
<text text-anchor="middle" x="657.75" y="-85.75" font-family="Helvetica,sans-Serif" font-size="10.00">CGAL/Boolean_set_operations_2.h</text>
</a>
</g>
</g>
<!-- Node1&#45;&gt;Node2 -->
<g id="edge1_Node000001_Node000002" class="edge">
<title>Node1&#45;&gt;Node2</title>
<g id="a_edge1_Node000001_Node000002"><a xlink:title=" ">
<path fill="none" stroke="#63b8ff" d="M974.81,-144.07C919.88,-134.88 796.61,-114.24 720.98,-101.58"/>
<polygon fill="#63b8ff" stroke="#63b8ff" points="721.65,-98.15 711.21,-99.95 720.5,-105.05 721.65,-98.15"/>
</a>
</g>
</g>
<!-- Node3 -->
<g id="Node000003" class="node">
<title>Node3</title>
<g id="a_Node000003"><a xlink:title=" ">
<polygon fill="#e0e0e0" stroke="#999999" points="909.12,-99.25 760.38,-99.25 760.38,-80.75 909.12,-80.75 909.12,-99.25"/>
<text text-anchor="middle" x="834.75" y="-85.75" font-family="Helvetica,sans-Serif" font-size="10.00">CGAL/Polygon_2_algorithms.h</text>
</a>
</g>
</g>
<!-- Node1&#45;&gt;Node3 -->
<g id="edge2_Node000001_Node000003" class="edge">
<title>Node1&#45;&gt;Node3</title>
<g id="a_edge2_Node000001_Node000003"><a xlink:title=" ">
<path fill="none" stroke="#63b8ff" d="M977.6,-140.1C949.27,-130.37 902.99,-114.46 870.81,-103.4"/>
<polygon fill="#63b8ff" stroke="#63b8ff" points="872.1,-100.14 861.5,-100.2 869.82,-106.76 872.1,-100.14"/>
</a>
</g>
</g>
<!-- Node4 -->
<g id="Node000004" class="node">
<title>Node4</title>
<g id="a_Node000004"><a xlink:title=" ">
<polygon fill="#e0e0e0" stroke="#999999" points="970.25,-99.25 927.25,-99.25 927.25,-80.75 970.25,-80.75 970.25,-99.25"/>
<text text-anchor="middle" x="948.75" y="-85.75" font-family="Helvetica,sans-Serif" font-size="10.00">omp.h</text>
</a>
</g>
</g>
<!-- Node1&#45;&gt;Node4 -->
<g id="edge3_Node000001_Node000004" class="edge">
<title>Node1&#45;&gt;Node4</title>
<g id="a_edge3_Node000001_Node000004"><a xlink:title=" ">
<path fill="none" stroke="#63b8ff" d="M994.78,-140.23C986.81,-131.7 974.32,-118.35 964.36,-107.7"/>
<polygon fill="#63b8ff" stroke="#63b8ff" points="967.17,-105.58 957.78,-100.66 962.06,-110.36 967.17,-105.58"/>
</a>
</g>
</g>
<!-- Node5 -->
<g id="Node000005" class="node">
<title>Node5</title>
<g id="a_Node000005"><a xlink:title=" ">
<polygon fill="#e0e0e0" stroke="#999999" points="1017.15,-99.25 988.35,-99.25 988.35,-80.75 1017.15,-80.75 1017.15,-99.25"/>
<text text-anchor="middle" x="1002.75" y="-85.75" font-family="Helvetica,sans-Serif" font-size="10.00">list</text>
</a>
</g>
</g>
<!-- Node1&#45;&gt;Node5 -->
<g id="edge4_Node000001_Node000005" class="edge">
<title>Node1&#45;&gt;Node5</title>
<g id="a_edge4_Node000001_Node000005"><a xlink:title=" ">
<path fill="none" stroke="#63b8ff" d="M1002.75,-140.23C1002.75,-132.55 1002.75,-120.97 1002.75,-110.97"/>
<polygon fill="#63b8ff" stroke="#63b8ff" points="1006.25,-111.07 1002.75,-101.07 999.25,-111.07 1006.25,-111.07"/>
</a>
</g>
</g>
<!-- Node6 -->
<g id="Node000006" class="node">
<title>Node6</title>
<g id="a_Node000006"><a xlink:title=" ">
<polygon fill="#e0e0e0" stroke="#999999" points="1996.88,-29 1954.62,-29 1954.62,-10.5 1996.88,-10.5 1996.88,-29"/>
<text text-anchor="middle" x="1975.75" y="-15.5" font-family="Helvetica,sans-Serif" font-size="10.00">vector</text>
</a>
</g>
</g>
<!-- Node1&#45;&gt;Node6 -->
<g id="edge5_Node000001_Node000006" class="edge">
<title>Node1&#45;&gt;Node6</title>
<g id="a_edge5_Node000001_Node000006"><a xlink:title=" ">
<path fill="none" stroke="#63b8ff" d="M1030.41,-147.19C1166.96,-139.24 1769.6,-101.21 1945.75,-39.5 1948.9,-38.4 1952.07,-36.91 1955.1,-35.27"/>
<polygon fill="#63b8ff" stroke="#63b8ff" points="1956.74,-38.37 1963.39,-30.12 1953.05,-32.42 1956.74,-38.37"/>
</a>
</g>
</g>
<!-- Node7 -->
<g id="Node000007" class="node">
<title>Node7</title>
<g id="a_Node000007"><a xlink:href="config_8h.html" target="_top" xlink:title="Contains the configuration for the CGAL library.">
<polygon fill="white" stroke="#666666" points="1144.62,-104.5 1034.88,-104.5 1034.88,-75.5 1144.62,-75.5 1144.62,-104.5"/>
<text text-anchor="start" x="1042.88" y="-91" font-family="Helvetica,sans-Serif" font-size="10.00">CoverageControl/cgal</text>
<text text-anchor="middle" x="1089.75" y="-80.5" font-family="Helvetica,sans-Serif" font-size="10.00">/config.h</text>
</a>
</g>
</g>
<!-- Node1&#45;&gt;Node7 -->
<g id="edge6_Node000001_Node000007" class="edge">
<title>Node1&#45;&gt;Node7</title>
<g id="a_edge6_Node000001_Node000007"><a xlink:title=" ">
<path fill="none" stroke="#63b8ff" d="M1015.59,-140.23C1027.06,-132.61 1044.34,-121.15 1059.32,-111.2"/>
<polygon fill="#63b8ff" stroke="#63b8ff" points="1061.1,-114.22 1067.5,-105.77 1057.23,-108.39 1061.1,-114.22"/>
</a>
</g>
</g>
<!-- Node22 -->
<g id="Node000022" class="node">
<title>Node22</title>
<g id="a_Node000022"><a xlink:href="typedefs_8h.html" target="_top" xlink:title="Contains typedefs for the library.">
<polygon fill="white" stroke="#666666" points="2074.5,-99.25 1937,-99.25 1937,-80.75 2074.5,-80.75 2074.5,-99.25"/>
<text text-anchor="middle" x="2005.75" y="-85.75" font-family="Helvetica,sans-Serif" font-size="10.00">CoverageControl/typedefs.h</text>
</a>
</g>
</g>
<!-- Node1&#45;&gt;Node22 -->
<g id="edge21_Node000001_Node000022" class="edge">
<title>Node1&#45;&gt;Node22</title>
<g id="a_edge21_Node000001_Node000022"><a xlink:title=" ">
<path fill="none" stroke="#63b8ff" d="M1030.62,-147.15C1161.34,-139.62 1716.04,-107.68 1925.36,-95.63"/>
<polygon fill="#63b8ff" stroke="#63b8ff" points="1925.26,-99.14 1935.04,-95.07 1924.86,-92.15 1925.26,-99.14"/>
</a>
</g>
</g>
<!-- Node8 -->
<g id="Node000008" class="node">
<title>Node8</title>
<g id="a_Node000008"><a xlink:title=" ">
<polygon fill="#e0e0e0" stroke="#999999" points="1936.88,-29 1804.62,-29 1804.62,-10.5 1936.88,-10.5 1936.88,-29"/>
<text text-anchor="middle" x="1870.75" y="-15.5" font-family="Helvetica,sans-Serif" font-size="10.00">CGAL/Arr_linear_traits_2.h</text>
</a>
</g>
</g>
<!-- Node7&#45;&gt;Node8 -->
<g id="edge7_Node000007_Node000008" class="edge">
<title>Node7&#45;&gt;Node8</title>
<g id="a_edge7_Node000007_Node000008"><a xlink:title=" ">
<path fill="none" stroke="#63b8ff" d="M1145.05,-88.4C1264.54,-86.4 1555.48,-77.66 1795.75,-39.5 1806.97,-37.72 1818.96,-35.07 1829.99,-32.31"/>
<polygon fill="#63b8ff" stroke="#63b8ff" points="1830.8,-35.72 1839.61,-29.82 1829.05,-28.94 1830.8,-35.72"/>
</a>
</g>
</g>
<!-- Node9 -->
<g id="Node000009" class="node">
<title>Node9</title>
<g id="a_Node000009"><a xlink:title=" ">
<polygon fill="#e0e0e0" stroke="#999999" points="119.5,-29 0,-29 0,-10.5 119.5,-10.5 119.5,-29"/>
<text text-anchor="middle" x="59.75" y="-15.5" font-family="Helvetica,sans-Serif" font-size="10.00">CGAL/Arrangement_2.h</text>
</a>
</g>
</g>
<!-- Node7&#45;&gt;Node9 -->
<g id="edge8_Node000007_Node000009" class="edge">
<title>Node7&#45;&gt;Node9</title>
<g id="a_edge8_Node000007_Node000009"><a xlink:title=" ">
<path fill="none" stroke="#63b8ff" d="M1034.69,-76.77C1031.67,-76.3 1028.68,-75.87 1025.75,-75.5 629.38,-26.11 522.42,-100.99 127.75,-39.5 117.55,-37.91 106.7,-35.34 96.73,-32.6"/>
<polygon fill="#63b8ff" stroke="#63b8ff" points="97.96,-29.31 87.38,-29.9 96.01,-36.03 97.96,-29.31"/>
</a>
</g>
</g>
<!-- Node10 -->
<g id="Node000010" class="node">
<title>Node10</title>
<g id="a_Node000010"><a xlink:title=" ">
<polygon fill="#e0e0e0" stroke="#999999" points="300.25,-29 137.25,-29 137.25,-10.5 300.25,-10.5 300.25,-29"/>
<text text-anchor="middle" x="218.75" y="-15.5" font-family="Helvetica,sans-Serif" font-size="10.00">CGAL/Delaunay_triangulation_2.h</text>
</a>
</g>
</g>
<!-- Node7&#45;&gt;Node10 -->
<g id="edge9_Node000007_Node000010" class="edge">
<title>Node7&#45;&gt;Node10</title>
<g id="a_edge9_Node000007_Node000010"><a xlink:title=" ">
<path fill="none" stroke="#63b8ff" d="M1034.69,-76.81C1031.67,-76.32 1028.68,-75.88 1025.75,-75.5 709.78,-34.49 625.82,-79.77 309.75,-39.5 295.23,-37.65 279.57,-34.76 265.4,-31.79"/>
<polygon fill="#63b8ff" stroke="#63b8ff" points="266.4,-28.43 255.89,-29.73 264.93,-35.27 266.4,-28.43"/>
</a>
</g>
</g>
<!-- Node11 -->
<g id="Node000011" class="node">
<title>Node11</title>
<g id="a_Node000011"><a xlink:title=" ">
<polygon fill="#e0e0e0" stroke="#999999" points="438.88,-39.5 318.62,-39.5 318.62,0 438.88,0 438.88,-39.5"/>
<text text-anchor="start" x="326.62" y="-26" font-family="Helvetica,sans-Serif" font-size="10.00">CGAL/Exact_predicates</text>
<text text-anchor="start" x="326.62" y="-15.5" font-family="Helvetica,sans-Serif" font-size="10.00">_exact_constructions</text>
<text text-anchor="middle" x="378.75" y="-5" font-family="Helvetica,sans-Serif" font-size="10.00">_kernel.h</text>
</a>
</g>
</g>
<!-- Node7&#45;&gt;Node11 -->
<g id="edge10_Node000007_Node000011" class="edge">
<title>Node7&#45;&gt;Node11</title>
<g id="a_edge10_Node000007_Node000011"><a xlink:title=" ">
<path fill="none" stroke="#63b8ff" d="M1034.68,-76.85C1031.67,-76.35 1028.68,-75.9 1025.75,-75.5 774.32,-41.34 703.68,-80.33 450.22,-39.72"/>
<polygon fill="#63b8ff" stroke="#63b8ff" points="451.11,-36.32 440.67,-38.16 449.98,-43.22 451.11,-36.32"/>
</a>
</g>
</g>
<!-- Node12 -->
<g id="Node000012" class="node">
<title>Node12</title>
<g id="a_Node000012"><a xlink:title=" ">
<polygon fill="#e0e0e0" stroke="#999999" points="584.62,-29 456.88,-29 456.88,-10.5 584.62,-10.5 584.62,-29"/>
<text text-anchor="middle" x="520.75" y="-15.5" font-family="Helvetica,sans-Serif" font-size="10.00">CGAL/Partition_traits_2.h</text>
</a>
</g>
</g>
<!-- Node7&#45;&gt;Node12 -->
<g id="edge11_Node000007_Node000012" class="edge">
<title>Node7&#45;&gt;Node12</title>
<g id="a_edge11_Node000007_Node000012"><a xlink:title=" ">
<path fill="none" stroke="#63b8ff" d="M1034.67,-76.93C1031.66,-76.41 1028.67,-75.93 1025.75,-75.5 835.12,-47.56 783.73,-71.58 593.75,-39.5 583.04,-37.69 571.61,-35.09 561.04,-32.39"/>
<polygon fill="#63b8ff" stroke="#63b8ff" points="562.01,-29.03 551.45,-29.85 560.22,-35.79 562.01,-29.03"/>
</a>
</g>
</g>
<!-- Node13 -->
<g id="Node000013" class="node">
<title>Node13</title>
<g id="a_Node000013"><a xlink:title=" ">
<polygon fill="#e0e0e0" stroke="#999999" points="752.88,-29 602.62,-29 602.62,-10.5 752.88,-10.5 752.88,-29"/>
<text text-anchor="middle" x="677.75" y="-15.5" font-family="Helvetica,sans-Serif" font-size="10.00">CGAL/Polygon_with_holes_2.h</text>
</a>
</g>
</g>
<!-- Node7&#45;&gt;Node13 -->
<g id="edge12_Node000007_Node000013" class="edge">
<title>Node7&#45;&gt;Node13</title>
<g id="a_edge12_Node000007_Node000013"><a xlink:title=" ">
<path fill="none" stroke="#63b8ff" d="M1034.64,-77.11C1031.64,-76.55 1028.66,-76 1025.75,-75.5 909.07,-55.27 878.31,-60.42 761.75,-39.5 749.71,-37.34 736.79,-34.64 724.77,-31.98"/>
<polygon fill="#63b8ff" stroke="#63b8ff" points="725.59,-28.57 715.06,-29.78 724.04,-35.4 725.59,-28.57"/>
</a>
</g>
</g>
<!-- Node14 -->
<g id="Node000014" class="node">
<title>Node14</title>
<g id="a_Node000014"><a xlink:title=" ">
<polygon fill="#e0e0e0" stroke="#999999" points="860.5,-29 771,-29 771,-10.5 860.5,-10.5 860.5,-29"/>
<text text-anchor="middle" x="815.75" y="-15.5" font-family="Helvetica,sans-Serif" font-size="10.00">CGAL/Random.h</text>
</a>
</g>
</g>
<!-- Node7&#45;&gt;Node14 -->
<g id="edge13_Node000007_Node000014" class="edge">
<title>Node7&#45;&gt;Node14</title>
<g id="a_edge13_Node000007_Node000014"><a xlink:title=" ">
<path fill="none" stroke="#63b8ff" d="M1034.45,-76.98C974.3,-63.84 884.57,-44.05 868.75,-39.5 862.32,-37.65 855.53,-35.45 849.04,-33.21"/>
<polygon fill="#63b8ff" stroke="#63b8ff" points="850.53,-30.03 839.94,-29.98 848.19,-36.62 850.53,-30.03"/>
</a>
</g>
</g>
<!-- Node15 -->
<g id="Node000015" class="node">
<title>Node15</title>
<g id="a_Node000015"><a xlink:title=" ">
<polygon fill="#e0e0e0" stroke="#999999" points="971.38,-29 878.12,-29 878.12,-10.5 971.38,-10.5 971.38,-29"/>
<text text-anchor="middle" x="924.75" y="-15.5" font-family="Helvetica,sans-Serif" font-size="10.00">CGAL/algorithm.h</text>
</a>
</g>
</g>
<!-- Node7&#45;&gt;Node15 -->
<g id="edge14_Node000007_Node000015" class="edge">
<title>Node7&#45;&gt;Node15</title>
<g id="a_edge14_Node000007_Node000015"><a xlink:title=" ">
<path fill="none" stroke="#63b8ff" d="M1055.96,-75.02C1026.66,-62.9 984.59,-45.5 956.05,-33.7"/>
<polygon fill="#63b8ff" stroke="#63b8ff" points="957.44,-30.48 946.86,-29.89 954.76,-36.95 957.44,-30.48"/>
</a>
</g>
</g>
<!-- Node16 -->
<g id="Node000016" class="node">
<title>Node16</title>
<g id="a_Node000016"><a xlink:title=" ">
<polygon fill="#e0e0e0" stroke="#999999" points="1077.75,-29 989.75,-29 989.75,-10.5 1077.75,-10.5 1077.75,-29"/>
<text text-anchor="middle" x="1033.75" y="-15.5" font-family="Helvetica,sans-Serif" font-size="10.00">CGAL/centroid.h</text>
</a>
</g>
</g>
<!-- Node7&#45;&gt;Node16 -->
<g id="edge15_Node000007_Node000016" class="edge">
<title>Node7&#45;&gt;Node16</title>
<g id="a_edge15_Node000007_Node000016"><a xlink:title=" ">
<path fill="none" stroke="#63b8ff" d="M1078.42,-75.19C1069.63,-64.48 1057.39,-49.57 1047.95,-38.06"/>
<polygon fill="#63b8ff" stroke="#63b8ff" points="1050.82,-36.04 1041.77,-30.53 1045.41,-40.48 1050.82,-36.04"/>
</a>
</g>
</g>
<!-- Node17 -->
<g id="Node000017" class="node">
<title>Node17</title>
<g id="a_Node000017"><a xlink:title=" ">
<polygon fill="#e0e0e0" stroke="#999999" points="1195.38,-29 1096.12,-29 1096.12,-10.5 1195.38,-10.5 1195.38,-29"/>
<text text-anchor="middle" x="1145.75" y="-15.5" font-family="Helvetica,sans-Serif" font-size="10.00">CGAL/partition_2.h</text>
</a>
</g>
</g>
<!-- Node7&#45;&gt;Node17 -->
<g id="edge16_Node000007_Node000017" class="edge">
<title>Node7&#45;&gt;Node17</title>
<g id="a_edge16_Node000007_Node000017"><a xlink:title=" ">
<path fill="none" stroke="#63b8ff" d="M1101.08,-75.19C1109.87,-64.48 1122.11,-49.57 1131.55,-38.06"/>
<polygon fill="#63b8ff" stroke="#63b8ff" points="1134.09,-40.48 1137.73,-30.53 1128.68,-36.04 1134.09,-40.48"/>
</a>
</g>
</g>
<!-- Node18 -->
<g id="Node000018" class="node">
<title>Node18</title>
<g id="a_Node000018"><a xlink:title=" ">
<polygon fill="#e0e0e0" stroke="#999999" points="1350.12,-29 1213.38,-29 1213.38,-10.5 1350.12,-10.5 1350.12,-29"/>
<text text-anchor="middle" x="1281.75" y="-15.5" font-family="Helvetica,sans-Serif" font-size="10.00">CGAL/point_generators_2.h</text>
</a>
</g>
</g>
<!-- Node7&#45;&gt;Node18 -->
<g id="edge17_Node000007_Node000018" class="edge">
<title>Node7&#45;&gt;Node18</title>
<g id="a_edge17_Node000007_Node000018"><a xlink:title=" ">
<path fill="none" stroke="#63b8ff" d="M1129.07,-75.02C1163.66,-62.73 1213.57,-44.99 1246.79,-33.18"/>
<polygon fill="#63b8ff" stroke="#63b8ff" points="1247.7,-36.57 1255.95,-29.92 1245.36,-29.97 1247.7,-36.57"/>
</a>
</g>
</g>
<!-- Node19 -->
<g id="Node000019" class="node">
<title>Node19</title>
<g id="a_Node000019"><a xlink:title=" ">
<polygon fill="#e0e0e0" stroke="#999999" points="1503,-29 1368.5,-29 1368.5,-10.5 1503,-10.5 1503,-29"/>
<text text-anchor="middle" x="1435.75" y="-15.5" font-family="Helvetica,sans-Serif" font-size="10.00">CGAL/random_polygon_2.h</text>
</a>
</g>
</g>
<!-- Node7&#45;&gt;Node19 -->
<g id="edge18_Node000007_Node000019" class="edge">
<title>Node7&#45;&gt;Node19</title>
<g id="a_edge18_Node000007_Node000019"><a xlink:title=" ">
<path fill="none" stroke="#63b8ff" d="M1145.06,-79.77C1199.57,-70.45 1285.15,-55.22 1358.75,-39.5 1369.13,-37.28 1380.24,-34.7 1390.7,-32.18"/>
<polygon fill="#63b8ff" stroke="#63b8ff" points="1391.38,-35.61 1400.26,-29.84 1389.72,-28.81 1391.38,-35.61"/>
</a>
</g>
</g>
<!-- Node20 -->
<g id="Node000020" class="node">
<title>Node20</title>
<g id="a_Node000020"><a xlink:title=" ">
<polygon fill="#e0e0e0" stroke="#999999" points="1644.38,-34.25 1521.12,-34.25 1521.12,-5.25 1644.38,-5.25 1644.38,-34.25"/>
<text text-anchor="start" x="1529.12" y="-20.75" font-family="Helvetica,sans-Serif" font-size="10.00">CGAL/Arr_point_location</text>
<text text-anchor="middle" x="1582.75" y="-10.25" font-family="Helvetica,sans-Serif" font-size="10.00">_result.h</text>
</a>
</g>
</g>
<!-- Node7&#45;&gt;Node20 -->
<g id="edge19_Node000007_Node000020" class="edge">
<title>Node7&#45;&gt;Node20</title>
<g id="a_edge19_Node000007_Node000020"><a xlink:title=" ">
<path fill="none" stroke="#63b8ff" d="M1145.09,-85.02C1226.1,-78.63 1381.48,-64.21 1511.75,-39.5 1515.32,-38.82 1518.97,-38.06 1522.65,-37.25"/>
<polygon fill="#63b8ff" stroke="#63b8ff" points="1523.27,-40.7 1532.21,-35.01 1521.68,-33.88 1523.27,-40.7"/>
</a>
</g>
</g>
<!-- Node21 -->
<g id="Node000021" class="node">
<title>Node21</title>
<g id="a_Node000021"><a xlink:title=" ">
<polygon fill="#e0e0e0" stroke="#999999" points="1786.75,-34.25 1662.75,-34.25 1662.75,-5.25 1786.75,-5.25 1786.75,-34.25"/>
<text text-anchor="start" x="1670.75" y="-20.75" font-family="Helvetica,sans-Serif" font-size="10.00">CGAL/Arr_batched_point</text>
<text text-anchor="middle" x="1724.75" y="-10.25" font-family="Helvetica,sans-Serif" font-size="10.00">_location.h</text>
</a>
</g>
</g>
<!-- Node7&#45;&gt;Node21 -->
<g id="edge20_Node000007_Node000021" class="edge">
<title>Node7&#45;&gt;Node21</title>
<g id="a_edge20_Node000007_Node000021"><a xlink:title=" ">
<path fill="none" stroke="#63b8ff" d="M1145,-87.28C1246.46,-83.42 1469.05,-71.75 1653.75,-39.5 1657.57,-38.83 1661.49,-38.06 1665.42,-37.21"/>
<polygon fill="#63b8ff" stroke="#63b8ff" points="1666.05,-40.66 1675.01,-35.01 1664.48,-33.84 1666.05,-40.66"/>
</a>
</g>
</g>
<!-- Node22&#45;&gt;Node6 -->
<g id="edge24_Node000022_Node000006" class="edge">
<title>Node22&#45;&gt;Node6</title>
<g id="a_edge24_Node000022_Node000006"><a xlink:title=" ">
<path fill="none" stroke="#63b8ff" d="M2001.95,-80.36C1997.46,-70.15 1989.87,-52.87 1984.01,-39.53"/>
<polygon fill="#63b8ff" stroke="#63b8ff" points="1987.26,-38.24 1980.03,-30.5 1980.85,-41.06 1987.26,-38.24"/>
</a>
</g>
</g>
<!-- Node23 -->
<g id="Node000023" class="node">
<title>Node23</title>
<g id="a_Node000023"><a xlink:title=" ">
<polygon fill="#e0e0e0" stroke="#999999" points="2146.88,-29 2074.62,-29 2074.62,-10.5 2146.88,-10.5 2146.88,-29"/>
<text text-anchor="middle" x="2110.75" y="-15.5" font-family="Helvetica,sans-Serif" font-size="10.00">Eigen/Dense</text>
</a>
</g>
</g>
<!-- Node22&#45;&gt;Node23 -->
<g id="edge22_Node000022_Node000023" class="edge">
<title>Node22&#45;&gt;Node23</title>
<g id="a_edge22_Node000022_Node000023"><a xlink:title=" ">
<path fill="none" stroke="#63b8ff" d="M2019.05,-80.36C2036.41,-69.07 2067.04,-49.16 2088.1,-35.48"/>
<polygon fill="#63b8ff" stroke="#63b8ff" points="2089.81,-38.53 2096.29,-30.15 2086,-32.66 2089.81,-38.53"/>
</a>
</g>
</g>
<!-- Node24 -->
<g id="Node000024" class="node">
<title>Node24</title>
<g id="a_Node000024"><a xlink:title=" ">
<polygon fill="#e0e0e0" stroke="#999999" points="2056.88,-29 2014.62,-29 2014.62,-10.5 2056.88,-10.5 2056.88,-29"/>
<text text-anchor="middle" x="2035.75" y="-15.5" font-family="Helvetica,sans-Serif" font-size="10.00">queue</text>
</a>
</g>
</g>
<!-- Node22&#45;&gt;Node24 -->
<g id="edge23_Node000022_Node000024" class="edge">
<title>Node22&#45;&gt;Node24</title>
<g id="a_edge23_Node000022_Node000024"><a xlink:title=" ">
<path fill="none" stroke="#63b8ff" d="M2009.55,-80.36C2014.04,-70.15 2021.63,-52.87 2027.49,-39.53"/>
<polygon fill="#63b8ff" stroke="#63b8ff" points="2030.65,-41.06 2031.47,-30.5 2024.24,-38.24 2030.65,-41.06"/>
</a>
</g>
</g>
</g>
</svg>

<g id="navigator" transform="translate(0 0)" fill="#404254">
  <rect fill="#f2f5e9" fill-opacity="0.5" stroke="#606060" stroke-width=".5" x="0" y="0" width="60" height="60"/>
  <use id="zoomplus" xlink:href="#zoomPlus" x="17" y="9" onmousedown="handleZoom(evt,'in')"/>
  <use id="zoomminus" xlink:href="#zoomMin" x="42" y="9" onmousedown="handleZoom(evt,'out')"/>
  <use id="reset" xlink:href="#resetDef" x="30" y="36" onmousedown="handleReset()"/>
   <use id="arrowup" xlink:href="#arrowUp" x="0" y="0" onmousedown="handlePan(0,-1)"/>
  <use id="arrowright" xlink:href="#arrowRight" x="0" y="0" onmousedown="handlePan(1,0)"/>
  <use id="arrowdown" xlink:href="#arrowDown" x="0" y="0" onmousedown="handlePan(0,1)"/>
  <use id="arrowleft" xlink:href="#arrowLeft" x="0" y="0" onmousedown="handlePan(-1,0)"/>
</g>
<svg viewBox="0 0 15 15" width="100%" height="30px" preserveAspectRatio="xMaxYMin meet">
 <g id="arrow_out" transform="scale(0.3 0.3)">
  <a xlink:href="utilities_8h__incl_org.svg" target="_base">
   <rect id="button" ry="5" rx="5" y="6" x="6" height="38" width="38"
        fill="#f2f5e9" fill-opacity="0.5" stroke="#606060" stroke-width="1.0"/>
   <path id="arrow"
     d="M 11.500037,31.436501 C 11.940474,20.09759 22.043105,11.32322 32.158766,21.979434 L 37.068811,17.246167 C 37.068811,17.246167 37.088388,32 37.088388,32 L 22.160133,31.978069 C 22.160133,31.978069 26.997745,27.140456 26.997745,27.140456 C 18.528582,18.264221 13.291696,25.230495 11.500037,31.436501 z"
     style="fill:#404040;"/>
  </a>
 </g>
</svg>

<style type='text/css'>
<![CDATA[
[data-mouse-over-selected='false'] { opacity: 0.7; }
[data-mouse-over-selected='true']  { opacity: 1.0; }
]]>
</style>
<script type="application/ecmascript"><![CDATA[
document.addEventListener('DOMContentLoaded', (event) => {
  highlightEdges();
  highlightAdjacentNodes();
});
]]></script>
</svg>
