<?xml version="1.0" encoding="UTF-8" standalone="no"?>
<!DOCTYPE svg PUBLIC "-//W3C//DTD SVG 1.1//EN"
 "http://www.w3.org/Graphics/SVG/1.1/DTD/svg11.dtd">
<!-- Generated by graphviz version 10.0.1 (0)
 -->
<!-- Title: vec2d.h Pages: 1 -->
<svg width="310pt" height="136pt"
 viewBox="0.00 0.00 309.50 135.50" xmlns="http://www.w3.org/2000/svg" xmlns:xlink="http://www.w3.org/1999/xlink">
<g id="graph0" class="graph" transform="scale(1 1) rotate(0) translate(4 131.5)">
<title>vec2d.h</title>
<!-- Node1 -->
<g id="Node000001" class="node">
<title>Node1</title>
<g id="a_Node000001"><a xlink:title="Contains Vec2d class for 2D vector.">
<polygon fill="#999999" stroke="#666666" points="100.38,-127.5 50.62,-127.5 50.62,-109 100.38,-109 100.38,-127.5"/>
<text text-anchor="middle" x="75.5" y="-114" font-family="Helvetica,sans-Serif" font-size="10.00">vec2d.h</text>
</a>
</g>
</g>
<!-- Node2 -->
<g id="Node000002" class="node">
<title>Node2</title>
<g id="a_Node000002"><a xlink:title=" ">
<polygon fill="#e0e0e0" stroke="#999999" points="43,-18.5 0,-18.5 0,0 43,0 43,-18.5"/>
<text text-anchor="middle" x="21.5" y="-5" font-family="Helvetica,sans-Serif" font-size="10.00">cmath</text>
</a>
</g>
</g>
<!-- Node1&#45;&gt;Node2 -->
<g id="edge1_Node000001_Node000002" class="edge">
<title>Node1&#45;&gt;Node2</title>
<g id="a_edge1_Node000001_Node000002"><a xlink:title=" ">
<path fill="none" stroke="#63b8ff" d="M67.19,-108.79C59.32,-100.36 47.67,-86.72 40.5,-73 33.38,-59.38 28.49,-42.68 25.45,-29.93"/>
<polygon fill="#63b8ff" stroke="#63b8ff" points="28.89,-29.26 23.34,-20.24 22.05,-30.75 28.89,-29.26"/>
</a>
</g>
</g>
<!-- Node3 -->
<g id="Node000003" class="node">
<title>Node3</title>
<g id="a_Node000003"><a xlink:title=" ">
<polygon fill="#e0e0e0" stroke="#999999" points="101.12,-73 49.88,-73 49.88,-54.5 101.12,-54.5 101.12,-73"/>
<text text-anchor="middle" x="75.5" y="-59.5" font-family="Helvetica,sans-Serif" font-size="10.00">ostream</text>
</a>
</g>
</g>
<!-- Node1&#45;&gt;Node3 -->
<g id="edge2_Node000001_Node000003" class="edge">
<title>Node1&#45;&gt;Node3</title>
<g id="a_edge2_Node000001_Node000003"><a xlink:title=" ">
<path fill="none" stroke="#63b8ff" d="M75.5,-108.58C75.5,-102.08 75.5,-92.92 75.5,-84.66"/>
<polygon fill="#63b8ff" stroke="#63b8ff" points="79,-84.77 75.5,-74.77 72,-84.77 79,-84.77"/>
</a>
</g>
</g>
<!-- Node4 -->
<g id="Node000004" class="node">
<title>Node4</title>
<g id="a_Node000004"><a xlink:href="constants_8h.html" target="_top" xlink:title="Constants for the CoverageControl library.">
<polygon fill="white" stroke="#666666" points="261.88,-73 119.12,-73 119.12,-54.5 261.88,-54.5 261.88,-73"/>
<text text-anchor="middle" x="190.5" y="-59.5" font-family="Helvetica,sans-Serif" font-size="10.00">CoverageControl/constants.h</text>
</a>
</g>
</g>
<!-- Node1&#45;&gt;Node4 -->
<g id="edge3_Node000001_Node000004" class="edge">
<title>Node1&#45;&gt;Node4</title>
<g id="a_edge3_Node000001_Node000004"><a xlink:title=" ">
<path fill="none" stroke="#63b8ff" d="M94.49,-108.58C112.63,-100.3 140.25,-87.69 161.21,-78.12"/>
<polygon fill="#63b8ff" stroke="#63b8ff" points="162.46,-81.4 170.11,-74.06 159.55,-75.03 162.46,-81.4"/>
</a>
</g>
</g>
<!-- Node4&#45;&gt;Node2 -->
<g id="edge5_Node000004_Node000002" class="edge">
<title>Node4&#45;&gt;Node2</title>
<g id="a_edge5_Node000004_Node000002"><a xlink:title=" ">
<path fill="none" stroke="#63b8ff" d="M162.59,-54.08C132.78,-44.82 85.59,-30.16 54.09,-20.37"/>
<polygon fill="#63b8ff" stroke="#63b8ff" points="55.29,-17.08 44.71,-17.46 53.22,-23.77 55.29,-17.08"/>
</a>
</g>
</g>
<!-- Node5 -->
<g id="Node000005" class="node">
<title>Node5</title>
<g id="a_Node000005"><a xlink:title=" ">
<polygon fill="#e0e0e0" stroke="#999999" points="186.25,-18.5 60.75,-18.5 60.75,0 186.25,0 186.25,-18.5"/>
<text text-anchor="middle" x="123.5" y="-5" font-family="Helvetica,sans-Serif" font-size="10.00">CoverageControlConfig.h</text>
</a>
</g>
</g>
<!-- Node4&#45;&gt;Node5 -->
<g id="edge4_Node000004_Node000005" class="edge">
<title>Node4&#45;&gt;Node5</title>
<g id="a_edge4_Node000004_Node000005"><a xlink:title=" ">
<path fill="none" stroke="#63b8ff" d="M179.44,-54.08C169.58,-46.36 154.93,-34.88 143.1,-25.61"/>
<polygon fill="#63b8ff" stroke="#63b8ff" points="145.58,-23.1 135.55,-19.69 141.26,-28.61 145.58,-23.1"/>
</a>
</g>
</g>
<!-- Node6 -->
<g id="Node000006" class="node">
<title>Node6</title>
<g id="a_Node000006"><a xlink:title=" ">
<polygon fill="#e0e0e0" stroke="#999999" points="243.12,-18.5 203.88,-18.5 203.88,0 243.12,0 243.12,-18.5"/>
<text text-anchor="middle" x="223.5" y="-5" font-family="Helvetica,sans-Serif" font-size="10.00">limits</text>
</a>
</g>
</g>
<!-- Node4&#45;&gt;Node6 -->
<g id="edge6_Node000004_Node000006" class="edge">
<title>Node4&#45;&gt;Node6</title>
<g id="a_edge6_Node000004_Node000006"><a xlink:title=" ">
<path fill="none" stroke="#63b8ff" d="M195.95,-54.08C200.32,-47.12 206.61,-37.12 212.08,-28.42"/>
<polygon fill="#63b8ff" stroke="#63b8ff" points="214.99,-30.37 217.35,-20.04 209.06,-26.64 214.99,-30.37"/>
</a>
</g>
</g>
<!-- Node7 -->
<g id="Node000007" class="node">
<title>Node7</title>
<g id="a_Node000007"><a xlink:title=" ">
<polygon fill="#e0e0e0" stroke="#999999" points="301.5,-18.5 261.5,-18.5 261.5,0 301.5,0 301.5,-18.5"/>
<text text-anchor="middle" x="281.5" y="-5" font-family="Helvetica,sans-Serif" font-size="10.00">string</text>
</a>
</g>
</g>
<!-- Node4&#45;&gt;Node7 -->
<g id="edge7_Node000004_Node000007" class="edge">
<title>Node4&#45;&gt;Node7</title>
<g id="a_edge7_Node000004_Node000007"><a xlink:title=" ">
<path fill="none" stroke="#63b8ff" d="M205.53,-54.08C219.49,-46.03 240.54,-33.88 256.94,-24.42"/>
<polygon fill="#63b8ff" stroke="#63b8ff" points="258.23,-27.72 265.14,-19.69 254.73,-21.65 258.23,-27.72"/>
</a>
</g>
</g>
</g>
</svg>
