<?xml version="1.0" encoding="UTF-8" standalone="no"?>
<!DOCTYPE svg PUBLIC "-//W3C//DTD SVG 1.1//EN"
 "http://www.w3.org/Graphics/SVG/1.1/DTD/svg11.dtd">
<!-- Generated by graphviz version 10.0.1 (0)
 -->
<!-- Title: vec2d.h Pages: 1 -->
<svg width="339pt" height="136pt"
 viewBox="0.00 0.00 338.75 135.50" xmlns="http://www.w3.org/2000/svg" xmlns:xlink="http://www.w3.org/1999/xlink">

<svg id="main" version="1.1" xmlns="http://www.w3.org/2000/svg" xmlns:xlink="http://www.w3.org/1999/xlink" xml:space="preserve" onload="init(evt)">
<style type="text/css"><![CDATA[
.node, .edge {opacity: 0.7;}
.node.selected, .edge.selected {opacity: 1;}
.edge:hover path { stroke: red; }
.edge:hover polygon { stroke: red; fill: red; }
]]></style>
<script type="application/ecmascript" xlink:href="svg.min.js"/>
<svg id="graph" class="graph">
<g id="graph0" class="graph" transform="scale(1 1) rotate(0) translate(4 131.5)">
<title>vec2d.h</title>
<!-- Node1 -->
<g id="Node000001" class="node">
<title>Node1</title>
<g id="a_Node000001"><a xlink:title="Contains Vec2d class for 2D vector.">
<polygon fill="#999999" stroke="#666666" points="74.38,-127.5 24.62,-127.5 24.62,-109 74.38,-109 74.38,-127.5"/>
<text text-anchor="middle" x="49.5" y="-114" font-family="Helvetica,sans-Serif" font-size="10.00">vec2d.h</text>
</a>
</g>
</g>
<!-- Node2 -->
<g id="Node000002" class="node">
<title>Node2</title>
<g id="a_Node000002"><a xlink:title=" ">
<polygon fill="#e0e0e0" stroke="#999999" points="43,-18.5 0,-18.5 0,0 43,0 43,-18.5"/>
<text text-anchor="middle" x="21.5" y="-5" font-family="Helvetica,sans-Serif" font-size="10.00">cmath</text>
</a>
</g>
</g>
<!-- Node1&#45;&gt;Node2 -->
<g id="edge1_Node000001_Node000002" class="edge">
<title>Node1&#45;&gt;Node2</title>
<g id="a_edge1_Node000001_Node000002"><a xlink:title=" ">
<path fill="none" stroke="#63b8ff" d="M39.62,-108.56C31.11,-100.37 19.45,-87.25 14.5,-73 9.59,-58.88 11.9,-41.99 15.13,-29.29"/>
<polygon fill="#63b8ff" stroke="#63b8ff" points="18.37,-30.66 17.87,-20.08 11.66,-28.67 18.37,-30.66"/>
</a>
</g>
</g>
<!-- Node3 -->
<g id="Node000003" class="node">
<title>Node3</title>
<g id="a_Node000003"><a xlink:title=" ">
<polygon fill="#e0e0e0" stroke="#999999" points="75.12,-73 23.88,-73 23.88,-54.5 75.12,-54.5 75.12,-73"/>
<text text-anchor="middle" x="49.5" y="-59.5" font-family="Helvetica,sans-Serif" font-size="10.00">ostream</text>
</a>
</g>
</g>
<!-- Node1&#45;&gt;Node3 -->
<g id="edge2_Node000001_Node000003" class="edge">
<title>Node1&#45;&gt;Node3</title>
<g id="a_edge2_Node000001_Node000003"><a xlink:title=" ">
<path fill="none" stroke="#63b8ff" d="M49.5,-108.58C49.5,-102.08 49.5,-92.92 49.5,-84.66"/>
<polygon fill="#63b8ff" stroke="#63b8ff" points="53,-84.77 49.5,-74.77 46,-84.77 53,-84.77"/>
</a>
</g>
</g>
<!-- Node4 -->
<g id="Node000004" class="node">
<title>Node4</title>
<g id="a_Node000004"><a xlink:href="constants_8h.html" target="_top" xlink:title="Constants for the CoverageControl library.">
<polygon fill="white" stroke="#666666" points="235.88,-73 93.12,-73 93.12,-54.5 235.88,-54.5 235.88,-73"/>
<text text-anchor="middle" x="164.5" y="-59.5" font-family="Helvetica,sans-Serif" font-size="10.00">CoverageControl/constants.h</text>
</a>
</g>
</g>
<!-- Node1&#45;&gt;Node4 -->
<g id="edge3_Node000001_Node000004" class="edge">
<title>Node1&#45;&gt;Node4</title>
<g id="a_edge3_Node000001_Node000004"><a xlink:title=" ">
<path fill="none" stroke="#63b8ff" d="M68.49,-108.58C86.63,-100.3 114.25,-87.69 135.21,-78.12"/>
<polygon fill="#63b8ff" stroke="#63b8ff" points="136.46,-81.4 144.11,-74.06 133.55,-75.03 136.46,-81.4"/>
</a>
</g>
</g>
<!-- Node4&#45;&gt;Node2 -->
<g id="edge4_Node000004_Node000002" class="edge">
<title>Node4&#45;&gt;Node2</title>
<g id="a_edge4_Node000004_Node000002"><a xlink:title=" ">
<path fill="none" stroke="#63b8ff" d="M140.89,-54.08C117.15,-45.37 80.37,-31.86 53.91,-22.15"/>
<polygon fill="#63b8ff" stroke="#63b8ff" points="55.29,-18.93 44.69,-18.76 52.87,-25.5 55.29,-18.93"/>
</a>
</g>
</g>
<!-- Node5 -->
<g id="Node000005" class="node">
<title>Node5</title>
<g id="a_Node000005"><a xlink:title=" ">
<polygon fill="#e0e0e0" stroke="#999999" points="126.12,-18.5 86.88,-18.5 86.88,0 126.12,0 126.12,-18.5"/>
<text text-anchor="middle" x="106.5" y="-5" font-family="Helvetica,sans-Serif" font-size="10.00">limits</text>
</a>
</g>
</g>
<!-- Node4&#45;&gt;Node5 -->
<g id="edge5_Node000004_Node000005" class="edge">
<title>Node4&#45;&gt;Node5</title>
<g id="a_edge5_Node000004_Node000005"><a xlink:title=" ">
<path fill="none" stroke="#63b8ff" d="M154.92,-54.08C146.65,-46.59 134.46,-35.56 124.39,-26.44"/>
<polygon fill="#63b8ff" stroke="#63b8ff" points="126.78,-23.89 117.02,-19.77 122.09,-29.08 126.78,-23.89"/>
</a>
</g>
</g>
<!-- Node6 -->
<g id="Node000006" class="node">
<title>Node6</title>
<g id="a_Node000006"><a xlink:title=" ">
<polygon fill="#e0e0e0" stroke="#999999" points="184.5,-18.5 144.5,-18.5 144.5,0 184.5,0 184.5,-18.5"/>
<text text-anchor="middle" x="164.5" y="-5" font-family="Helvetica,sans-Serif" font-size="10.00">string</text>
</a>
</g>
</g>
<!-- Node4&#45;&gt;Node6 -->
<g id="edge6_Node000004_Node000006" class="edge">
<title>Node4&#45;&gt;Node6</title>
<g id="a_edge6_Node000004_Node000006"><a xlink:title=" ">
<path fill="none" stroke="#63b8ff" d="M164.5,-54.08C164.5,-47.58 164.5,-38.42 164.5,-30.16"/>
<polygon fill="#63b8ff" stroke="#63b8ff" points="168,-30.27 164.5,-20.27 161,-30.27 168,-30.27"/>
</a>
</g>
</g>
<!-- Node7 -->
<g id="Node000007" class="node">
<title>Node7</title>
<g id="a_Node000007"><a xlink:title=" ">
<polygon fill="#e0e0e0" stroke="#999999" points="330.75,-18.5 202.25,-18.5 202.25,0 330.75,0 330.75,-18.5"/>
<text text-anchor="middle" x="266.5" y="-5" font-family="Helvetica,sans-Serif" font-size="10.00">CoverageControl/Config.h</text>
</a>
</g>
</g>
<!-- Node4&#45;&gt;Node7 -->
<g id="edge7_Node000004_Node000007" class="edge">
<title>Node4&#45;&gt;Node7</title>
<g id="a_edge7_Node000004_Node000007"><a xlink:title=" ">
<path fill="none" stroke="#63b8ff" d="M181.34,-54.08C197.14,-45.95 221.03,-33.65 239.49,-24.15"/>
<polygon fill="#63b8ff" stroke="#63b8ff" points="241,-27.31 248.29,-19.62 237.79,-21.09 241,-27.31"/>
</a>
</g>
</g>
</g>
</svg>
</svg>

<style type='text/css'>
<![CDATA[
[data-mouse-over-selected='false'] { opacity: 0.7; }
[data-mouse-over-selected='true']  { opacity: 1.0; }
]]>
</style>
<script type="application/ecmascript"><![CDATA[
document.addEventListener('DOMContentLoaded', (event) => {
  highlightEdges();
  highlightAdjacentNodes();
});
]]></script>
</svg>
