<?xml version="1.0" encoding="UTF-8" standalone="no"?>
<!DOCTYPE svg PUBLIC "-//W3C//DTD SVG 1.1//EN"
 "http://www.w3.org/Graphics/SVG/1.1/DTD/svg11.dtd">
<!-- Generated by graphviz version 12.1.2 (0)
 -->
<!-- Title: voronoi.cpp Pages: 1 -->
<!--zoomable 232 -->

<svg id="main" version="1.1" xmlns="http://www.w3.org/2000/svg" xmlns:xlink="http://www.w3.org/1999/xlink" xml:space="preserve" onload="init(evt)">

<style type="text/css"><![CDATA[
.node, .edge {opacity: 0.7;}
.node.selected, .edge.selected {opacity: 1;}
.edge:hover path { stroke: red; }
.edge:hover polygon { stroke: red; fill: red; }
]]></style>

<defs>
  <circle id="rim" cx="0" cy="0" r="7"/>
  <circle id="rim2" cx="0" cy="0" r="3.5"/>
  <g id="zoomPlus">
    <use xlink:href="#rim" fill="#404040"><set attributeName="fill" to="#808080" begin="zoomplus.mouseover" end="zoomplus.mouseout"/></use>
    <path d="M-4,0h8M0,-4v8" fill="none" stroke="white" stroke-width="1.5" pointer-events="none"/>
  </g>
  <g id="zoomMin">
    <use xlink:href="#rim" fill="#404040"><set attributeName="fill" to="#808080" begin="zoomminus.mouseover" end="zoomminus.mouseout"/></use>
    <path d="M-4,0h8" fill="none" stroke="white" stroke-width="1.5" pointer-events="none"/>
  </g>
  <g id="arrowUp" transform="translate(30 24)">
    <use xlink:href="#rim"/>
    <path pointer-events="none" fill="none" stroke="white" stroke-width="1.5" d="M0,-3.0v7 M-2.5,-0.5L0,-3.0L2.5,-0.5"/>
  </g>
  <g id="arrowRight" transform="rotate(90) translate(36 -43)">
    <use xlink:href="#rim"/>
    <path pointer-events="none" fill="none" stroke="white" stroke-width="1.5" d="M0,-3.0v7 M-2.5,-0.5L0,-3.0L2.5,-0.5"/>
  </g>
  <g id="arrowDown" transform="rotate(180) translate(-30 -48)">
    <use xlink:href="#rim"/>
    <path pointer-events="none" fill="none" stroke="white" stroke-width="1.5" d="M0,-3.0v7 M-2.5,-0.5L0,-3.0L2.5,-0.5"/>
  </g>
  <g id="arrowLeft" transform="rotate(270) translate(-36 17)">
    <use xlink:href="#rim"/>
    <path pointer-events="none" fill="none" stroke="white" stroke-width="1.5" d="M0,-3.0v7 M-2.5,-0.5L0,-3.0L2.5,-0.5"/>
  </g>
  <g id="resetDef">
    <use xlink:href="#rim2" fill="#404040"><set attributeName="fill" to="#808080" begin="reset.mouseover" end="reset.mouseout"/></use>
  </g>
</defs>
<script type="application/ecmascript">
var viewWidth = 2388;
var viewHeight = 232;
var sectionId = 'dynsection-0';
</script>
<script type="application/ecmascript" xlink:href="svg.min.js"/>
<svg id="graph" class="graph">
<g id="viewport">
<title>voronoi.cpp</title>
<!-- Node1 -->
<g id="Node000001" class="node">
<title>Node1</title>
<g id="a_Node000001"><a xlink:title="Functions to compute Centroidal Voronoi Tessellation.">
<polygon fill="#999999" stroke="#666666" points="2014.38,-224 1948.88,-224 1948.88,-205.5 2014.38,-205.5 2014.38,-224"/>
<text text-anchor="middle" x="1981.62" y="-210.5" font-family="Helvetica,sans-Serif" font-size="10.00">voronoi.cpp</text>
</a>
</g>
</g>
<!-- Node2 -->
<g id="Node000002" class="node">
<title>Node2</title>
<g id="a_Node000002"><a xlink:title=" ">
<polygon fill="#e0e0e0" stroke="#999999" points="1225.12,-99.25 1182.12,-99.25 1182.12,-80.75 1225.12,-80.75 1225.12,-99.25"/>
<text text-anchor="middle" x="1203.62" y="-85.75" font-family="Helvetica,sans-Serif" font-size="10.00">omp.h</text>
</a>
</g>
</g>
<!-- Node1&#45;&gt;Node2 -->
<g id="edge1_Node000001_Node000002" class="edge">
<title>Node1&#45;&gt;Node2</title>
<g id="a_edge1_Node000001_Node000002"><a xlink:title=" ">
<path fill="none" stroke="#63b8ff" d="M1948.48,-211.68C1874.7,-206.79 1691.45,-193.15 1539.62,-169.5 1402.25,-148.1 1365.77,-147.72 1233.62,-104.5 1232.98,-104.29 1232.33,-104.07 1231.68,-103.84"/>
<polygon fill="#63b8ff" stroke="#63b8ff" points="1233.13,-100.65 1222.55,-100.2 1230.54,-107.15 1233.13,-100.65"/>
</a>
</g>
</g>
<!-- Node3 -->
<g id="Node000003" class="node">
<title>Node3</title>
<g id="a_Node000003"><a xlink:title=" ">
<polygon fill="#e0e0e0" stroke="#999999" points="2295.62,-164.25 2237.62,-164.25 2237.62,-145.75 2295.62,-145.75 2295.62,-164.25"/>
<text text-anchor="middle" x="2266.62" y="-150.75" font-family="Helvetica,sans-Serif" font-size="10.00">functional</text>
</a>
</g>
</g>
<!-- Node1&#45;&gt;Node3 -->
<g id="edge2_Node000001_Node000003" class="edge">
<title>Node1&#45;&gt;Node3</title>
<g id="a_edge2_Node000001_Node000003"><a xlink:title=" ">
<path fill="none" stroke="#63b8ff" d="M2014.76,-209.58C2062.52,-203.16 2153.25,-189.5 2228.62,-169.5 2230.23,-169.07 2231.87,-168.61 2233.51,-168.12"/>
<polygon fill="#63b8ff" stroke="#63b8ff" points="2234.44,-171.5 2242.87,-165.08 2232.28,-164.84 2234.44,-171.5"/>
</a>
</g>
</g>
<!-- Node4 -->
<g id="Node000004" class="node">
<title>Node4</title>
<g id="a_Node000004"><a xlink:title=" ">
<polygon fill="#e0e0e0" stroke="#999999" points="2367.38,-164.25 2313.88,-164.25 2313.88,-145.75 2367.38,-145.75 2367.38,-164.25"/>
<text text-anchor="middle" x="2340.62" y="-150.75" font-family="Helvetica,sans-Serif" font-size="10.00">iostream</text>
</a>
</g>
</g>
<!-- Node1&#45;&gt;Node4 -->
<g id="edge3_Node000001_Node000004" class="edge">
<title>Node1&#45;&gt;Node4</title>
<g id="a_edge3_Node000001_Node000004"><a xlink:title=" ">
<path fill="none" stroke="#63b8ff" d="M2014.64,-211.66C2073.61,-207.4 2200.63,-195.77 2304.62,-169.5 2306.2,-169.1 2307.81,-168.66 2309.42,-168.18"/>
<polygon fill="#63b8ff" stroke="#63b8ff" points="2310.13,-171.63 2318.5,-165.13 2307.91,-164.99 2310.13,-171.63"/>
</a>
</g>
</g>
<!-- Node5 -->
<g id="Node000005" class="node">
<title>Node5</title>
<g id="a_Node000005"><a xlink:href="config_8h.html" target="_top" xlink:title="Contains the configuration for the CGAL library.">
<polygon fill="white" stroke="#666666" points="1352.5,-104.5 1242.75,-104.5 1242.75,-75.5 1352.5,-75.5 1352.5,-104.5"/>
<text text-anchor="start" x="1250.75" y="-91" font-family="Helvetica,sans-Serif" font-size="10.00">CoverageControl/cgal</text>
<text text-anchor="middle" x="1297.62" y="-80.5" font-family="Helvetica,sans-Serif" font-size="10.00">/config.h</text>
</a>
</g>
</g>
<!-- Node1&#45;&gt;Node5 -->
<g id="edge4_Node000001_Node000005" class="edge">
<title>Node1&#45;&gt;Node5</title>
<g id="a_edge4_Node000001_Node000005"><a xlink:title=" ">
<path fill="none" stroke="#63b8ff" d="M1948.76,-209.06C1895.79,-201.4 1788.3,-185.45 1697.62,-169.5 1579.88,-148.78 1443.34,-121.22 1364.09,-104.87"/>
<polygon fill="#63b8ff" stroke="#63b8ff" points="1364.8,-101.45 1354.3,-102.85 1363.39,-108.3 1364.8,-101.45"/>
</a>
</g>
</g>
<!-- Node20 -->
<g id="Node000020" class="node">
<title>Node20</title>
<g id="a_Node000020"><a xlink:href="utilities_8h.html" target="_top" xlink:title="Contains utility functions for CGAL.">
<polygon fill="white" stroke="#666666" points="1816.5,-169.5 1706.75,-169.5 1706.75,-140.5 1816.5,-140.5 1816.5,-169.5"/>
<text text-anchor="start" x="1714.75" y="-156" font-family="Helvetica,sans-Serif" font-size="10.00">CoverageControl/cgal</text>
<text text-anchor="middle" x="1761.62" y="-145.5" font-family="Helvetica,sans-Serif" font-size="10.00">/utilities.h</text>
</a>
</g>
</g>
<!-- Node1&#45;&gt;Node20 -->
<g id="edge19_Node000001_Node000020" class="edge">
<title>Node1&#45;&gt;Node20</title>
<g id="a_edge19_Node000001_Node000020"><a xlink:title=" ">
<path fill="none" stroke="#63b8ff" d="M1948.69,-205.1C1916.37,-196.62 1866.2,-183.45 1825.96,-172.89"/>
<polygon fill="#63b8ff" stroke="#63b8ff" points="1826.92,-169.52 1816.36,-170.37 1825.14,-176.29 1826.92,-169.52"/>
</a>
</g>
</g>
<!-- Node28 -->
<g id="Node000028" class="node">
<title>Node28</title>
<g id="a_Node000028"><a xlink:href="constants_8h.html" target="_top" xlink:title="Constants for the CoverageControl library.">
<polygon fill="white" stroke="#666666" points="2220,-164.25 2077.25,-164.25 2077.25,-145.75 2220,-145.75 2220,-164.25"/>
<text text-anchor="middle" x="2148.62" y="-150.75" font-family="Helvetica,sans-Serif" font-size="10.00">CoverageControl/constants.h</text>
</a>
</g>
</g>
<!-- Node1&#45;&gt;Node28 -->
<g id="edge30_Node000001_Node000028" class="edge">
<title>Node1&#45;&gt;Node28</title>
<g id="a_edge30_Node000001_Node000028"><a xlink:title=" ">
<path fill="none" stroke="#63b8ff" d="M2006.63,-205.1C2034.79,-195.37 2080.79,-179.46 2112.78,-168.4"/>
<polygon fill="#63b8ff" stroke="#63b8ff" points="2113.72,-171.78 2122.02,-165.2 2111.43,-165.16 2113.72,-171.78"/>
</a>
</g>
</g>
<!-- Node32 -->
<g id="Node000032" class="node">
<title>Node32</title>
<g id="a_Node000032"><a xlink:href="voronoi_8h.html" target="_top" xlink:title="Class for computing Voronoi cells.">
<polygon fill="white" stroke="#666666" points="2047,-164.25 1916.25,-164.25 1916.25,-145.75 2047,-145.75 2047,-164.25"/>
<text text-anchor="middle" x="1981.62" y="-150.75" font-family="Helvetica,sans-Serif" font-size="10.00">CoverageControl/voronoi.h</text>
</a>
</g>
</g>
<!-- Node1&#45;&gt;Node32 -->
<g id="edge34_Node000001_Node000032" class="edge">
<title>Node1&#45;&gt;Node32</title>
<g id="a_edge34_Node000001_Node000032"><a xlink:title=" ">
<path fill="none" stroke="#63b8ff" d="M1981.62,-205.23C1981.62,-197.55 1981.62,-185.97 1981.62,-175.97"/>
<polygon fill="#63b8ff" stroke="#63b8ff" points="1985.13,-176.07 1981.63,-166.07 1978.13,-176.07 1985.13,-176.07"/>
</a>
</g>
</g>
<!-- Node6 -->
<g id="Node000006" class="node">
<title>Node6</title>
<g id="a_Node000006"><a xlink:title=" ">
<polygon fill="#e0e0e0" stroke="#999999" points="840.75,-29 708.5,-29 708.5,-10.5 840.75,-10.5 840.75,-29"/>
<text text-anchor="middle" x="774.62" y="-15.5" font-family="Helvetica,sans-Serif" font-size="10.00">CGAL/Arr_linear_traits_2.h</text>
</a>
</g>
</g>
<!-- Node5&#45;&gt;Node6 -->
<g id="edge5_Node000005_Node000006" class="edge">
<title>Node5&#45;&gt;Node6</title>
<g id="a_edge5_Node000005_Node000006"><a xlink:title=" ">
<path fill="none" stroke="#63b8ff" d="M1242.54,-76.96C1239.53,-76.44 1236.54,-75.94 1233.62,-75.5 1064.15,-49.77 1018.59,-68.37 849.62,-39.5 838.63,-37.62 826.86,-34.99 815.99,-32.28"/>
<polygon fill="#63b8ff" stroke="#63b8ff" points="817.08,-28.95 806.52,-29.85 815.33,-35.73 817.08,-28.95"/>
</a>
</g>
</g>
<!-- Node7 -->
<g id="Node000007" class="node">
<title>Node7</title>
<g id="a_Node000007"><a xlink:title=" ">
<polygon fill="#e0e0e0" stroke="#999999" points="978.38,-29 858.88,-29 858.88,-10.5 978.38,-10.5 978.38,-29"/>
<text text-anchor="middle" x="918.62" y="-15.5" font-family="Helvetica,sans-Serif" font-size="10.00">CGAL/Arrangement_2.h</text>
</a>
</g>
</g>
<!-- Node5&#45;&gt;Node7 -->
<g id="edge6_Node000005_Node000007" class="edge">
<title>Node5&#45;&gt;Node7</title>
<g id="a_edge6_Node000005_Node000007"><a xlink:title=" ">
<path fill="none" stroke="#63b8ff" d="M1242.51,-77.14C1239.51,-76.57 1236.53,-76.02 1233.62,-75.5 1124.41,-56.04 1095.2,-62.29 986.62,-39.5 977.34,-37.55 967.44,-35.06 958.16,-32.54"/>
<polygon fill="#63b8ff" stroke="#63b8ff" points="959.25,-29.21 948.68,-29.89 957.36,-35.95 959.25,-29.21"/>
</a>
</g>
</g>
<!-- Node8 -->
<g id="Node000008" class="node">
<title>Node8</title>
<g id="a_Node000008"><a xlink:title=" ">
<polygon fill="#e0e0e0" stroke="#999999" points="1159.12,-29 996.12,-29 996.12,-10.5 1159.12,-10.5 1159.12,-29"/>
<text text-anchor="middle" x="1077.62" y="-15.5" font-family="Helvetica,sans-Serif" font-size="10.00">CGAL/Delaunay_triangulation_2.h</text>
</a>
</g>
</g>
<!-- Node5&#45;&gt;Node8 -->
<g id="edge7_Node000005_Node000008" class="edge">
<title>Node5&#45;&gt;Node8</title>
<g id="a_edge7_Node000005_Node000008"><a xlink:title=" ">
<path fill="none" stroke="#63b8ff" d="M1252.57,-75.02C1212.41,-62.57 1154.26,-44.52 1116.2,-32.72"/>
<polygon fill="#63b8ff" stroke="#63b8ff" points="1117.59,-29.48 1107,-29.86 1115.51,-36.17 1117.59,-29.48"/>
</a>
</g>
</g>
<!-- Node9 -->
<g id="Node000009" class="node">
<title>Node9</title>
<g id="a_Node000009"><a xlink:title=" ">
<polygon fill="#e0e0e0" stroke="#999999" points="1297.75,-39.5 1177.5,-39.5 1177.5,0 1297.75,0 1297.75,-39.5"/>
<text text-anchor="start" x="1185.5" y="-26" font-family="Helvetica,sans-Serif" font-size="10.00">CGAL/Exact_predicates</text>
<text text-anchor="start" x="1185.5" y="-15.5" font-family="Helvetica,sans-Serif" font-size="10.00">_exact_constructions</text>
<text text-anchor="middle" x="1237.62" y="-5" font-family="Helvetica,sans-Serif" font-size="10.00">_kernel.h</text>
</a>
</g>
</g>
<!-- Node5&#45;&gt;Node9 -->
<g id="edge8_Node000005_Node000009" class="edge">
<title>Node5&#45;&gt;Node9</title>
<g id="a_edge8_Node000005_Node000009"><a xlink:title=" ">
<path fill="none" stroke="#63b8ff" d="M1285.48,-75.19C1278.74,-67.51 1270.09,-57.68 1262.02,-48.49"/>
<polygon fill="#63b8ff" stroke="#63b8ff" points="1264.75,-46.31 1255.52,-41.11 1259.5,-50.93 1264.75,-46.31"/>
</a>
</g>
</g>
<!-- Node10 -->
<g id="Node000010" class="node">
<title>Node10</title>
<g id="a_Node000010"><a xlink:title=" ">
<polygon fill="#e0e0e0" stroke="#999999" points="1443.5,-29 1315.75,-29 1315.75,-10.5 1443.5,-10.5 1443.5,-29"/>
<text text-anchor="middle" x="1379.62" y="-15.5" font-family="Helvetica,sans-Serif" font-size="10.00">CGAL/Partition_traits_2.h</text>
</a>
</g>
</g>
<!-- Node5&#45;&gt;Node10 -->
<g id="edge9_Node000005_Node000010" class="edge">
<title>Node5&#45;&gt;Node10</title>
<g id="a_edge9_Node000005_Node000010"><a xlink:title=" ">
<path fill="none" stroke="#63b8ff" d="M1314.22,-75.19C1327.6,-64.05 1346.44,-48.37 1360.47,-36.7"/>
<polygon fill="#63b8ff" stroke="#63b8ff" points="1362.67,-39.41 1368.12,-30.33 1358.19,-34.03 1362.67,-39.41"/>
</a>
</g>
</g>
<!-- Node11 -->
<g id="Node000011" class="node">
<title>Node11</title>
<g id="a_Node000011"><a xlink:title=" ">
<polygon fill="#e0e0e0" stroke="#999999" points="1611.75,-29 1461.5,-29 1461.5,-10.5 1611.75,-10.5 1611.75,-29"/>
<text text-anchor="middle" x="1536.62" y="-15.5" font-family="Helvetica,sans-Serif" font-size="10.00">CGAL/Polygon_with_holes_2.h</text>
</a>
</g>
</g>
<!-- Node5&#45;&gt;Node11 -->
<g id="edge10_Node000005_Node000011" class="edge">
<title>Node5&#45;&gt;Node11</title>
<g id="a_edge10_Node000005_Node000011"><a xlink:title=" ">
<path fill="none" stroke="#63b8ff" d="M1346.57,-75.02C1390.38,-62.51 1453.92,-44.37 1495.25,-32.57"/>
<polygon fill="#63b8ff" stroke="#63b8ff" points="1496.17,-35.94 1504.83,-29.83 1494.25,-29.21 1496.17,-35.94"/>
</a>
</g>
</g>
<!-- Node12 -->
<g id="Node000012" class="node">
<title>Node12</title>
<g id="a_Node000012"><a xlink:title=" ">
<polygon fill="#e0e0e0" stroke="#999999" points="1719.38,-29 1629.88,-29 1629.88,-10.5 1719.38,-10.5 1719.38,-29"/>
<text text-anchor="middle" x="1674.62" y="-15.5" font-family="Helvetica,sans-Serif" font-size="10.00">CGAL/Random.h</text>
</a>
</g>
</g>
<!-- Node5&#45;&gt;Node12 -->
<g id="edge11_Node000005_Node000012" class="edge">
<title>Node5&#45;&gt;Node12</title>
<g id="a_edge11_Node000005_Node000012"><a xlink:title=" ">
<path fill="none" stroke="#63b8ff" d="M1352.8,-83.64C1417.6,-76.63 1527.98,-62.48 1620.62,-39.5 1627.56,-37.78 1634.86,-35.55 1641.78,-33.22"/>
<polygon fill="#63b8ff" stroke="#63b8ff" points="1642.87,-36.55 1651.14,-29.93 1640.55,-29.94 1642.87,-36.55"/>
</a>
</g>
</g>
<!-- Node13 -->
<g id="Node000013" class="node">
<title>Node13</title>
<g id="a_Node000013"><a xlink:title=" ">
<polygon fill="#e0e0e0" stroke="#999999" points="1830.25,-29 1737,-29 1737,-10.5 1830.25,-10.5 1830.25,-29"/>
<text text-anchor="middle" x="1783.62" y="-15.5" font-family="Helvetica,sans-Serif" font-size="10.00">CGAL/algorithm.h</text>
</a>
</g>
</g>
<!-- Node5&#45;&gt;Node13 -->
<g id="edge12_Node000005_Node000013" class="edge">
<title>Node5&#45;&gt;Node13</title>
<g id="a_edge12_Node000005_Node000013"><a xlink:title=" ">
<path fill="none" stroke="#63b8ff" d="M1352.87,-82.97C1465.06,-70.69 1710.53,-43.57 1728.62,-39.5 1736.01,-37.84 1743.79,-35.54 1751.1,-33.12"/>
<polygon fill="#63b8ff" stroke="#63b8ff" points="1752,-36.51 1760.29,-29.92 1749.7,-29.9 1752,-36.51"/>
</a>
</g>
</g>
<!-- Node14 -->
<g id="Node000014" class="node">
<title>Node14</title>
<g id="a_Node000014"><a xlink:title=" ">
<polygon fill="#e0e0e0" stroke="#999999" points="1936.62,-29 1848.62,-29 1848.62,-10.5 1936.62,-10.5 1936.62,-29"/>
<text text-anchor="middle" x="1892.62" y="-15.5" font-family="Helvetica,sans-Serif" font-size="10.00">CGAL/centroid.h</text>
</a>
</g>
</g>
<!-- Node5&#45;&gt;Node14 -->
<g id="edge13_Node000005_Node000014" class="edge">
<title>Node5&#45;&gt;Node14</title>
<g id="a_edge13_Node000005_Node000014"><a xlink:title=" ">
<path fill="none" stroke="#63b8ff" d="M1352.84,-82.72C1374.31,-80.35 1399.1,-77.7 1421.62,-75.5 1607.21,-57.41 1657.37,-78.91 1839.62,-39.5 1846.68,-37.98 1854.08,-35.77 1861.03,-33.4"/>
<polygon fill="#63b8ff" stroke="#63b8ff" points="1862.2,-36.7 1870.41,-30 1859.82,-30.12 1862.2,-36.7"/>
</a>
</g>
</g>
<!-- Node15 -->
<g id="Node000015" class="node">
<title>Node15</title>
<g id="a_Node000015"><a xlink:title=" ">
<polygon fill="#e0e0e0" stroke="#999999" points="99.25,-29 0,-29 0,-10.5 99.25,-10.5 99.25,-29"/>
<text text-anchor="middle" x="49.62" y="-15.5" font-family="Helvetica,sans-Serif" font-size="10.00">CGAL/partition_2.h</text>
</a>
</g>
</g>
<!-- Node5&#45;&gt;Node15 -->
<g id="edge14_Node000005_Node000015" class="edge">
<title>Node5&#45;&gt;Node15</title>
<g id="a_edge14_Node000005_Node000015"><a xlink:title=" ">
<path fill="none" stroke="#63b8ff" d="M1242.57,-76.74C1239.55,-76.27 1236.56,-75.85 1233.62,-75.5 736.96,-15.64 601.68,-124.06 108.62,-39.5 100.1,-38.04 91.11,-35.64 82.79,-33.05"/>
<polygon fill="#63b8ff" stroke="#63b8ff" points="83.99,-29.76 73.39,-29.93 81.78,-36.4 83.99,-29.76"/>
</a>
</g>
</g>
<!-- Node16 -->
<g id="Node000016" class="node">
<title>Node16</title>
<g id="a_Node000016"><a xlink:title=" ">
<polygon fill="#e0e0e0" stroke="#999999" points="254,-29 117.25,-29 117.25,-10.5 254,-10.5 254,-29"/>
<text text-anchor="middle" x="185.62" y="-15.5" font-family="Helvetica,sans-Serif" font-size="10.00">CGAL/point_generators_2.h</text>
</a>
</g>
</g>
<!-- Node5&#45;&gt;Node16 -->
<g id="edge15_Node000005_Node000016" class="edge">
<title>Node5&#45;&gt;Node16</title>
<g id="a_edge15_Node000005_Node000016"><a xlink:title=" ">
<path fill="none" stroke="#63b8ff" d="M1242.57,-76.76C1239.55,-76.29 1236.56,-75.86 1233.62,-75.5 805.45,-22.79 691.02,-98.21 263.62,-39.5 251.5,-37.83 238.5,-35.1 226.66,-32.23"/>
<polygon fill="#63b8ff" stroke="#63b8ff" points="227.75,-28.9 217.2,-29.84 226.04,-35.68 227.75,-28.9"/>
</a>
</g>
</g>
<!-- Node17 -->
<g id="Node000017" class="node">
<title>Node17</title>
<g id="a_Node000017"><a xlink:title=" ">
<polygon fill="#e0e0e0" stroke="#999999" points="406.88,-29 272.38,-29 272.38,-10.5 406.88,-10.5 406.88,-29"/>
<text text-anchor="middle" x="339.62" y="-15.5" font-family="Helvetica,sans-Serif" font-size="10.00">CGAL/random_polygon_2.h</text>
</a>
</g>
</g>
<!-- Node5&#45;&gt;Node17 -->
<g id="edge16_Node000005_Node000017" class="edge">
<title>Node5&#45;&gt;Node17</title>
<g id="a_edge16_Node000005_Node000017"><a xlink:title=" ">
<path fill="none" stroke="#63b8ff" d="M1242.56,-76.79C1239.55,-76.31 1236.55,-75.87 1233.62,-75.5 872.6,-29.79 775.82,-91.34 415.62,-39.5 403.92,-37.82 391.4,-35.11 379.96,-32.27"/>
<polygon fill="#63b8ff" stroke="#63b8ff" points="380.98,-28.92 370.42,-29.8 379.22,-35.7 380.98,-28.92"/>
</a>
</g>
</g>
<!-- Node18 -->
<g id="Node000018" class="node">
<title>Node18</title>
<g id="a_Node000018"><a xlink:title=" ">
<polygon fill="#e0e0e0" stroke="#999999" points="548.25,-34.25 425,-34.25 425,-5.25 548.25,-5.25 548.25,-34.25"/>
<text text-anchor="start" x="433" y="-20.75" font-family="Helvetica,sans-Serif" font-size="10.00">CGAL/Arr_point_location</text>
<text text-anchor="middle" x="486.62" y="-10.25" font-family="Helvetica,sans-Serif" font-size="10.00">_result.h</text>
</a>
</g>
</g>
<!-- Node5&#45;&gt;Node18 -->
<g id="edge17_Node000005_Node000018" class="edge">
<title>Node5&#45;&gt;Node18</title>
<g id="a_edge17_Node000005_Node000018"><a xlink:title=" ">
<path fill="none" stroke="#63b8ff" d="M1242.56,-76.82C1239.55,-76.33 1236.55,-75.88 1233.62,-75.5 935.31,-36.33 854.86,-86.16 557.62,-39.5 553.54,-38.86 549.36,-38.08 545.16,-37.21"/>
<polygon fill="#63b8ff" stroke="#63b8ff" points="546.08,-33.83 535.56,-35.05 544.54,-40.66 546.08,-33.83"/>
</a>
</g>
</g>
<!-- Node19 -->
<g id="Node000019" class="node">
<title>Node19</title>
<g id="a_Node000019"><a xlink:title=" ">
<polygon fill="#e0e0e0" stroke="#999999" points="690.62,-34.25 566.62,-34.25 566.62,-5.25 690.62,-5.25 690.62,-34.25"/>
<text text-anchor="start" x="574.62" y="-20.75" font-family="Helvetica,sans-Serif" font-size="10.00">CGAL/Arr_batched_point</text>
<text text-anchor="middle" x="628.62" y="-10.25" font-family="Helvetica,sans-Serif" font-size="10.00">_location.h</text>
</a>
</g>
</g>
<!-- Node5&#45;&gt;Node19 -->
<g id="edge18_Node000005_Node000019" class="edge">
<title>Node5&#45;&gt;Node19</title>
<g id="a_edge18_Node000005_Node000019"><a xlink:title=" ">
<path fill="none" stroke="#63b8ff" d="M1242.55,-76.87C1239.54,-76.37 1236.55,-75.9 1233.62,-75.5 998,-42.87 934.35,-78.04 699.62,-39.5 695.61,-38.84 691.5,-38.06 687.38,-37.19"/>
<polygon fill="#63b8ff" stroke="#63b8ff" points="688.48,-33.85 677.95,-35.05 686.93,-40.67 688.48,-33.85"/>
</a>
</g>
</g>
<!-- Node20&#45;&gt;Node2 -->
<g id="edge22_Node000020_Node000002" class="edge">
<title>Node20&#45;&gt;Node2</title>
<g id="a_edge22_Node000020_Node000002"><a xlink:title=" ">
<path fill="none" stroke="#63b8ff" d="M1706.63,-154.73C1609.48,-154.73 1401.87,-148.93 1233.62,-104.5 1232.8,-104.28 1231.96,-104.04 1231.13,-103.78"/>
<polygon fill="#63b8ff" stroke="#63b8ff" points="1232.41,-100.53 1221.82,-100.25 1229.93,-107.07 1232.41,-100.53"/>
</a>
</g>
</g>
<!-- Node20&#45;&gt;Node5 -->
<g id="edge25_Node000020_Node000005" class="edge">
<title>Node20&#45;&gt;Node5</title>
<g id="a_edge25_Node000020_Node000005"><a xlink:title=" ">
<path fill="none" stroke="#63b8ff" d="M1706.58,-146.53C1620.97,-134.9 1456.21,-112.53 1364.1,-100.03"/>
<polygon fill="#63b8ff" stroke="#63b8ff" points="1364.84,-96.59 1354.46,-98.72 1363.9,-103.53 1364.84,-96.59"/>
</a>
</g>
</g>
<!-- Node21 -->
<g id="Node000021" class="node">
<title>Node21</title>
<g id="a_Node000021"><a xlink:title=" ">
<polygon fill="#e0e0e0" stroke="#999999" points="1598.75,-99.25 1430.5,-99.25 1430.5,-80.75 1598.75,-80.75 1598.75,-99.25"/>
<text text-anchor="middle" x="1514.62" y="-85.75" font-family="Helvetica,sans-Serif" font-size="10.00">CGAL/Boolean_set_operations_2.h</text>
</a>
</g>
</g>
<!-- Node20&#45;&gt;Node21 -->
<g id="edge20_Node000020_Node000021" class="edge">
<title>Node20&#45;&gt;Node21</title>
<g id="a_edge20_Node000020_Node000021"><a xlink:title=" ">
<path fill="none" stroke="#63b8ff" d="M1706.81,-140.02C1662.64,-128.75 1601.28,-113.1 1559.88,-102.54"/>
<polygon fill="#63b8ff" stroke="#63b8ff" points="1560.78,-99.16 1550.23,-100.08 1559.05,-105.94 1560.78,-99.16"/>
</a>
</g>
</g>
<!-- Node22 -->
<g id="Node000022" class="node">
<title>Node22</title>
<g id="a_Node000022"><a xlink:title=" ">
<polygon fill="#e0e0e0" stroke="#999999" points="1766,-99.25 1617.25,-99.25 1617.25,-80.75 1766,-80.75 1766,-99.25"/>
<text text-anchor="middle" x="1691.62" y="-85.75" font-family="Helvetica,sans-Serif" font-size="10.00">CGAL/Polygon_2_algorithms.h</text>
</a>
</g>
</g>
<!-- Node20&#45;&gt;Node22 -->
<g id="edge21_Node000020_Node000022" class="edge">
<title>Node20&#45;&gt;Node22</title>
<g id="a_edge21_Node000020_Node000022"><a xlink:title=" ">
<path fill="none" stroke="#63b8ff" d="M1746.09,-140.02C1735.28,-130.29 1720.85,-117.3 1709.55,-107.14"/>
<polygon fill="#63b8ff" stroke="#63b8ff" points="1712.2,-104.81 1702.42,-100.72 1707.52,-110.01 1712.2,-104.81"/>
</a>
</g>
</g>
<!-- Node23 -->
<g id="Node000023" class="node">
<title>Node23</title>
<g id="a_Node000023"><a xlink:title=" ">
<polygon fill="#e0e0e0" stroke="#999999" points="1813.03,-99.25 1784.22,-99.25 1784.22,-80.75 1813.03,-80.75 1813.03,-99.25"/>
<text text-anchor="middle" x="1798.62" y="-85.75" font-family="Helvetica,sans-Serif" font-size="10.00">list</text>
</a>
</g>
</g>
<!-- Node20&#45;&gt;Node23 -->
<g id="edge23_Node000020_Node000023" class="edge">
<title>Node20&#45;&gt;Node23</title>
<g id="a_edge23_Node000020_Node000023"><a xlink:title=" ">
<path fill="none" stroke="#63b8ff" d="M1769.84,-140.02C1775.1,-131.06 1781.98,-119.34 1787.7,-109.6"/>
<polygon fill="#63b8ff" stroke="#63b8ff" points="1790.7,-111.41 1792.75,-101.01 1784.66,-107.86 1790.7,-111.41"/>
</a>
</g>
</g>
<!-- Node24 -->
<g id="Node000024" class="node">
<title>Node24</title>
<g id="a_Node000024"><a xlink:title=" ">
<polygon fill="#e0e0e0" stroke="#999999" points="1996.75,-29 1954.5,-29 1954.5,-10.5 1996.75,-10.5 1996.75,-29"/>
<text text-anchor="middle" x="1975.62" y="-15.5" font-family="Helvetica,sans-Serif" font-size="10.00">vector</text>
</a>
</g>
</g>
<!-- Node20&#45;&gt;Node24 -->
<g id="edge24_Node000020_Node000024" class="edge">
<title>Node20&#45;&gt;Node24</title>
<g id="a_edge24_Node000020_Node000024"><a xlink:title=" ">
<path fill="none" stroke="#63b8ff" d="M1784.01,-140.09C1818.66,-118.55 1887.36,-75.84 1945.62,-39.5 1947.78,-38.15 1950.03,-36.75 1952.28,-35.35"/>
<polygon fill="#63b8ff" stroke="#63b8ff" points="1953.98,-38.41 1960.6,-30.15 1950.27,-32.48 1953.98,-38.41"/>
</a>
</g>
</g>
<!-- Node25 -->
<g id="Node000025" class="node">
<title>Node25</title>
<g id="a_Node000025"><a xlink:href="typedefs_8h.html" target="_top" xlink:title="Contains typedefs for the library.">
<polygon fill="white" stroke="#666666" points="2044.38,-99.25 1906.88,-99.25 1906.88,-80.75 2044.38,-80.75 2044.38,-99.25"/>
<text text-anchor="middle" x="1975.62" y="-85.75" font-family="Helvetica,sans-Serif" font-size="10.00">CoverageControl/typedefs.h</text>
</a>
</g>
</g>
<!-- Node20&#45;&gt;Node25 -->
<g id="edge26_Node000020_Node000025" class="edge">
<title>Node20&#45;&gt;Node25</title>
<g id="a_edge26_Node000020_Node000025"><a xlink:title=" ">
<path fill="none" stroke="#63b8ff" d="M1809.12,-140.02C1846.9,-128.9 1899.19,-113.5 1935.03,-102.95"/>
<polygon fill="#63b8ff" stroke="#63b8ff" points="1936,-106.32 1944.6,-100.13 1934.02,-99.6 1936,-106.32"/>
</a>
</g>
</g>
<!-- Node25&#45;&gt;Node24 -->
<g id="edge29_Node000025_Node000024" class="edge">
<title>Node25&#45;&gt;Node24</title>
<g id="a_edge29_Node000025_Node000024"><a xlink:title=" ">
<path fill="none" stroke="#63b8ff" d="M1975.62,-80.36C1975.62,-70.35 1975.62,-53.56 1975.62,-40.35"/>
<polygon fill="#63b8ff" stroke="#63b8ff" points="1979.13,-40.62 1975.63,-30.62 1972.13,-40.62 1979.13,-40.62"/>
</a>
</g>
</g>
<!-- Node26 -->
<g id="Node000026" class="node">
<title>Node26</title>
<g id="a_Node000026"><a xlink:title=" ">
<polygon fill="#e0e0e0" stroke="#999999" points="2146.75,-29 2074.5,-29 2074.5,-10.5 2146.75,-10.5 2146.75,-29"/>
<text text-anchor="middle" x="2110.62" y="-15.5" font-family="Helvetica,sans-Serif" font-size="10.00">Eigen/Dense</text>
</a>
</g>
</g>
<!-- Node25&#45;&gt;Node26 -->
<g id="edge27_Node000025_Node000026" class="edge">
<title>Node25&#45;&gt;Node26</title>
<g id="a_edge27_Node000025_Node000026"><a xlink:title=" ">
<path fill="none" stroke="#63b8ff" d="M1992.72,-80.36C2015.65,-68.77 2056.59,-48.07 2083.68,-34.37"/>
<polygon fill="#63b8ff" stroke="#63b8ff" points="2084.97,-37.64 2092.32,-30.01 2081.81,-31.39 2084.97,-37.64"/>
</a>
</g>
</g>
<!-- Node27 -->
<g id="Node000027" class="node">
<title>Node27</title>
<g id="a_Node000027"><a xlink:title=" ">
<polygon fill="#e0e0e0" stroke="#999999" points="2056.75,-29 2014.5,-29 2014.5,-10.5 2056.75,-10.5 2056.75,-29"/>
<text text-anchor="middle" x="2035.62" y="-15.5" font-family="Helvetica,sans-Serif" font-size="10.00">queue</text>
</a>
</g>
</g>
<!-- Node25&#45;&gt;Node27 -->
<g id="edge28_Node000025_Node000027" class="edge">
<title>Node25&#45;&gt;Node27</title>
<g id="a_edge28_Node000025_Node000027"><a xlink:title=" ">
<path fill="none" stroke="#63b8ff" d="M1983.22,-80.36C1992.65,-69.63 2008.94,-51.1 2020.86,-37.55"/>
<polygon fill="#63b8ff" stroke="#63b8ff" points="2023.3,-40.07 2027.28,-30.25 2018.04,-35.45 2023.3,-40.07"/>
</a>
</g>
</g>
<!-- Node29 -->
<g id="Node000029" class="node">
<title>Node29</title>
<g id="a_Node000029"><a xlink:title=" ">
<polygon fill="#e0e0e0" stroke="#999999" points="2176.12,-99.25 2133.12,-99.25 2133.12,-80.75 2176.12,-80.75 2176.12,-99.25"/>
<text text-anchor="middle" x="2154.62" y="-85.75" font-family="Helvetica,sans-Serif" font-size="10.00">cmath</text>
</a>
</g>
</g>
<!-- Node28&#45;&gt;Node29 -->
<g id="edge31_Node000028_Node000029" class="edge">
<title>Node28&#45;&gt;Node29</title>
<g id="a_edge31_Node000028_Node000029"><a xlink:title=" ">
<path fill="none" stroke="#63b8ff" d="M2149.43,-145.5C2150.28,-136.62 2151.64,-122.38 2152.75,-110.68"/>
<polygon fill="#63b8ff" stroke="#63b8ff" points="2156.22,-111.16 2153.69,-100.87 2149.25,-110.49 2156.22,-111.16"/>
</a>
</g>
</g>
<!-- Node30 -->
<g id="Node000030" class="node">
<title>Node30</title>
<g id="a_Node000030"><a xlink:title=" ">
<polygon fill="#e0e0e0" stroke="#999999" points="2233.25,-99.25 2194,-99.25 2194,-80.75 2233.25,-80.75 2233.25,-99.25"/>
<text text-anchor="middle" x="2213.62" y="-85.75" font-family="Helvetica,sans-Serif" font-size="10.00">limits</text>
</a>
</g>
</g>
<!-- Node28&#45;&gt;Node30 -->
<g id="edge32_Node000028_Node000030" class="edge">
<title>Node28&#45;&gt;Node30</title>
<g id="a_edge32_Node000028_Node000030"><a xlink:title=" ">
<path fill="none" stroke="#63b8ff" d="M2157.39,-145.5C2167.53,-135.68 2184.44,-119.29 2197.07,-107.05"/>
<polygon fill="#63b8ff" stroke="#63b8ff" points="2199.17,-109.89 2203.91,-100.42 2194.29,-104.86 2199.17,-109.89"/>
</a>
</g>
</g>
<!-- Node31 -->
<g id="Node000031" class="node">
<title>Node31</title>
<g id="a_Node000031"><a xlink:title=" ">
<polygon fill="#e0e0e0" stroke="#999999" points="2379.88,-99.25 2251.38,-99.25 2251.38,-80.75 2379.88,-80.75 2379.88,-99.25"/>
<text text-anchor="middle" x="2315.62" y="-85.75" font-family="Helvetica,sans-Serif" font-size="10.00">CoverageControl/Config.h</text>
</a>
</g>
</g>
<!-- Node28&#45;&gt;Node31 -->
<g id="edge33_Node000028_Node000031" class="edge">
<title>Node28&#45;&gt;Node31</title>
<g id="a_edge33_Node000028_Node000031"><a xlink:title=" ">
<path fill="none" stroke="#63b8ff" d="M2171.5,-145.37C2200.07,-134.59 2249.19,-116.06 2282.03,-103.67"/>
<polygon fill="#63b8ff" stroke="#63b8ff" points="2282.96,-107.06 2291.08,-100.26 2280.49,-100.51 2282.96,-107.06"/>
</a>
</g>
</g>
<!-- Node32&#45;&gt;Node24 -->
<g id="edge37_Node000032_Node000024" class="edge">
<title>Node32&#45;&gt;Node24</title>
<g id="a_edge37_Node000032_Node000024"><a xlink:title=" ">
<path fill="none" stroke="#63b8ff" d="M1952.76,-145.39C1933.4,-137.95 1909.38,-125.08 1897.62,-104.5 1891.23,-93.31 1891.68,-86.94 1897.62,-75.5 1900.67,-69.64 1930.27,-49.78 1952.11,-35.67"/>
<polygon fill="#63b8ff" stroke="#63b8ff" points="1953.97,-38.64 1960.49,-30.3 1950.19,-32.75 1953.97,-38.64"/>
</a>
</g>
</g>
<!-- Node32&#45;&gt;Node25 -->
<g id="edge38_Node000032_Node000025" class="edge">
<title>Node32&#45;&gt;Node25</title>
<g id="a_edge38_Node000032_Node000025"><a xlink:title=" ">
<path fill="none" stroke="#63b8ff" d="M1980.82,-145.5C1979.97,-136.62 1978.61,-122.38 1977.5,-110.68"/>
<polygon fill="#63b8ff" stroke="#63b8ff" points="1981,-110.49 1976.56,-100.87 1974.03,-111.16 1981,-110.49"/>
</a>
</g>
</g>
<!-- Node32&#45;&gt;Node29 -->
<g id="edge35_Node000032_Node000029" class="edge">
<title>Node32&#45;&gt;Node29</title>
<g id="a_edge35_Node000032_Node000029"><a xlink:title=" ">
<path fill="none" stroke="#63b8ff" d="M2008.54,-145.29C2037.26,-135.84 2084,-120.01 2123.62,-104.5 2124.1,-104.31 2124.59,-104.12 2125.07,-103.93"/>
<polygon fill="#63b8ff" stroke="#63b8ff" points="2126.08,-107.3 2133.97,-100.23 2123.4,-100.84 2126.08,-107.3"/>
</a>
</g>
</g>
<!-- Node33 -->
<g id="Node000033" class="node">
<title>Node33</title>
<g id="a_Node000033"><a xlink:title=" ">
<polygon fill="#e0e0e0" stroke="#999999" points="2114.62,-99.25 2062.62,-99.25 2062.62,-80.75 2114.62,-80.75 2114.62,-99.25"/>
<text text-anchor="middle" x="2088.62" y="-85.75" font-family="Helvetica,sans-Serif" font-size="10.00">memory</text>
</a>
</g>
</g>
<!-- Node32&#45;&gt;Node33 -->
<g id="edge36_Node000032_Node000033" class="edge">
<title>Node32&#45;&gt;Node33</title>
<g id="a_edge36_Node000032_Node000033"><a xlink:title=" ">
<path fill="none" stroke="#63b8ff" d="M1996.06,-145.5C2013.53,-135.22 2043.22,-117.74 2064.26,-105.35"/>
<polygon fill="#63b8ff" stroke="#63b8ff" points="2065.94,-108.42 2072.78,-100.33 2062.38,-102.39 2065.94,-108.42"/>
</a>
</g>
</g>
</g>
</svg>

<g id="navigator" transform="translate(0 0)" fill="#404254">
  <rect fill="#f2f5e9" fill-opacity="0.5" stroke="#606060" stroke-width=".5" x="0" y="0" width="60" height="60"/>
  <use id="zoomplus" xlink:href="#zoomPlus" x="17" y="9" onmousedown="handleZoom(evt,'in')"/>
  <use id="zoomminus" xlink:href="#zoomMin" x="42" y="9" onmousedown="handleZoom(evt,'out')"/>
  <use id="reset" xlink:href="#resetDef" x="30" y="36" onmousedown="handleReset()"/>
   <use id="arrowup" xlink:href="#arrowUp" x="0" y="0" onmousedown="handlePan(0,-1)"/>
  <use id="arrowright" xlink:href="#arrowRight" x="0" y="0" onmousedown="handlePan(1,0)"/>
  <use id="arrowdown" xlink:href="#arrowDown" x="0" y="0" onmousedown="handlePan(0,1)"/>
  <use id="arrowleft" xlink:href="#arrowLeft" x="0" y="0" onmousedown="handlePan(-1,0)"/>
</g>
<svg viewBox="0 0 15 15" width="100%" height="30px" preserveAspectRatio="xMaxYMin meet">
 <g id="arrow_out" transform="scale(0.3 0.3)">
  <a xlink:href="voronoi_8cpp__incl_org.svg" target="_base">
   <rect id="button" ry="5" rx="5" y="6" x="6" height="38" width="38"
        fill="#f2f5e9" fill-opacity="0.5" stroke="#606060" stroke-width="1.0"/>
   <path id="arrow"
     d="M 11.500037,31.436501 C 11.940474,20.09759 22.043105,11.32322 32.158766,21.979434 L 37.068811,17.246167 C 37.068811,17.246167 37.088388,32 37.088388,32 L 22.160133,31.978069 C 22.160133,31.978069 26.997745,27.140456 26.997745,27.140456 C 18.528582,18.264221 13.291696,25.230495 11.500037,31.436501 z"
     style="fill:#404040;"/>
  </a>
 </g>
</svg>

<style type='text/css'>
<![CDATA[
[data-mouse-over-selected='false'] { opacity: 0.7; }
[data-mouse-over-selected='true']  { opacity: 1.0; }
]]>
</style>
<script type="application/ecmascript"><![CDATA[
document.addEventListener('DOMContentLoaded', (event) => {
  highlightEdges();
  highlightAdjacentNodes();
});
]]></script>
</svg>
