<?xml version="1.0" encoding="UTF-8" standalone="no"?>
<!DOCTYPE svg PUBLIC "-//W3C//DTD SVG 1.1//EN"
 "http://www.w3.org/Graphics/SVG/1.1/DTD/svg11.dtd">
<!-- Generated by graphviz version 10.0.1 (0)
 -->
<!-- Title: voronoi.cpp Pages: 1 -->
<!--zoomable 232 -->

<svg id="main" version="1.1" xmlns="http://www.w3.org/2000/svg" xmlns:xlink="http://www.w3.org/1999/xlink" xml:space="preserve" onload="init(evt)">
<style type="text/css"><![CDATA[
.node, .edge {opacity: 0.7;}
.node.selected, .edge.selected {opacity: 1;}
.edge:hover path { stroke: red; }
.edge:hover polygon { stroke: red; fill: red; }
]]></style>

<defs>
  <circle id="rim" cx="0" cy="0" r="7"/>
  <circle id="rim2" cx="0" cy="0" r="3.5"/>
  <g id="zoomPlus">
    <use xlink:href="#rim" fill="#404040"><set attributeName="fill" to="#808080" begin="zoomplus.mouseover" end="zoomplus.mouseout"/></use>
    <path d="M-4,0h8M0,-4v8" fill="none" stroke="white" stroke-width="1.5" pointer-events="none"/>
  </g>
  <g id="zoomMin">
    <use xlink:href="#rim" fill="#404040"><set attributeName="fill" to="#808080" begin="zoomminus.mouseover" end="zoomminus.mouseout"/></use>
    <path d="M-4,0h8" fill="none" stroke="white" stroke-width="1.5" pointer-events="none"/>
  </g>
  <g id="arrowUp" transform="translate(30 24)">
    <use xlink:href="#rim"/>
    <path pointer-events="none" fill="none" stroke="white" stroke-width="1.5" d="M0,-3.0v7 M-2.5,-0.5L0,-3.0L2.5,-0.5"/>
  </g>
  <g id="arrowRight" transform="rotate(90) translate(36 -43)">
    <use xlink:href="#rim"/>
    <path pointer-events="none" fill="none" stroke="white" stroke-width="1.5" d="M0,-3.0v7 M-2.5,-0.5L0,-3.0L2.5,-0.5"/>
  </g>
  <g id="arrowDown" transform="rotate(180) translate(-30 -48)">
    <use xlink:href="#rim"/>
    <path pointer-events="none" fill="none" stroke="white" stroke-width="1.5" d="M0,-3.0v7 M-2.5,-0.5L0,-3.0L2.5,-0.5"/>
  </g>
  <g id="arrowLeft" transform="rotate(270) translate(-36 17)">
    <use xlink:href="#rim"/>
    <path pointer-events="none" fill="none" stroke="white" stroke-width="1.5" d="M0,-3.0v7 M-2.5,-0.5L0,-3.0L2.5,-0.5"/>
  </g>
  <g id="resetDef">
    <use xlink:href="#rim2" fill="#404040"><set attributeName="fill" to="#808080" begin="reset.mouseover" end="reset.mouseout"/></use>
  </g>
</defs>
<script type="application/ecmascript">
var viewWidth = 2439;
var viewHeight = 232;
var sectionId = 'dynsection-0';
</script>
<script type="application/ecmascript" xlink:href="svg.min.js"/>
<svg id="graph" class="graph">
<g id="viewport">
<title>voronoi.cpp</title>
<!-- Node1 -->
<g id="Node000001" class="node">
<title>Node1</title>
<g id="a_Node000001"><a xlink:title="Functions to compute Centroidal Voronoi Tessellation.">
<polygon fill="#999999" stroke="#666666" points="1332.5,-224 1267,-224 1267,-205.5 1332.5,-205.5 1332.5,-224"/>
<text text-anchor="middle" x="1299.75" y="-210.5" font-family="Helvetica,sans-Serif" font-size="10.00">voronoi.cpp</text>
</a>
</g>
</g>
<!-- Node2 -->
<g id="Node000002" class="node">
<title>Node2</title>
<g id="a_Node000002"><a xlink:title=" ">
<polygon fill="#e0e0e0" stroke="#999999" points="1033.25,-99.25 990.25,-99.25 990.25,-80.75 1033.25,-80.75 1033.25,-99.25"/>
<text text-anchor="middle" x="1011.75" y="-85.75" font-family="Helvetica,sans-Serif" font-size="10.00">omp.h</text>
</a>
</g>
</g>
<!-- Node1&#45;&gt;Node2 -->
<g id="edge1_Node000001_Node000002" class="edge">
<title>Node1&#45;&gt;Node2</title>
<g id="a_edge1_Node000001_Node000002"><a xlink:title=" ">
<path fill="none" stroke="#63b8ff" d="M1266.71,-207.12C1234.33,-200.01 1183.96,-187.28 1142.75,-169.5 1101.88,-151.87 1058.28,-123.61 1033.11,-106.24"/>
<polygon fill="#63b8ff" stroke="#63b8ff" points="1035.25,-103.46 1025.04,-100.6 1031.23,-109.2 1035.25,-103.46"/>
</a>
</g>
</g>
<!-- Node3 -->
<g id="Node000003" class="node">
<title>Node3</title>
<g id="a_Node000003"><a xlink:title=" ">
<polygon fill="#e0e0e0" stroke="#999999" points="2122.75,-164.25 2064.75,-164.25 2064.75,-145.75 2122.75,-145.75 2122.75,-164.25"/>
<text text-anchor="middle" x="2093.75" y="-150.75" font-family="Helvetica,sans-Serif" font-size="10.00">functional</text>
</a>
</g>
</g>
<!-- Node1&#45;&gt;Node3 -->
<g id="edge2_Node000001_Node000003" class="edge">
<title>Node1&#45;&gt;Node3</title>
<g id="a_edge2_Node000001_Node000003"><a xlink:title=" ">
<path fill="none" stroke="#63b8ff" d="M1332.85,-213.06C1459.63,-210.2 1914.33,-198.15 2055.75,-169.5 2057.77,-169.09 2059.83,-168.6 2061.89,-168.04"/>
<polygon fill="#63b8ff" stroke="#63b8ff" points="2062.8,-171.43 2071.3,-165.1 2060.71,-164.74 2062.8,-171.43"/>
</a>
</g>
</g>
<!-- Node4 -->
<g id="Node000004" class="node">
<title>Node4</title>
<g id="a_Node000004"><a xlink:title=" ">
<polygon fill="#e0e0e0" stroke="#999999" points="1953.5,-99.25 1900,-99.25 1900,-80.75 1953.5,-80.75 1953.5,-99.25"/>
<text text-anchor="middle" x="1926.75" y="-85.75" font-family="Helvetica,sans-Serif" font-size="10.00">iostream</text>
</a>
</g>
</g>
<!-- Node1&#45;&gt;Node4 -->
<g id="edge3_Node000001_Node000004" class="edge">
<title>Node1&#45;&gt;Node4</title>
<g id="a_edge3_Node000001_Node000004"><a xlink:title=" ">
<path fill="none" stroke="#63b8ff" d="M1332.81,-209.17C1422.56,-196.41 1678,-157.81 1885.75,-104.5 1887.6,-104.03 1889.48,-103.51 1891.38,-102.97"/>
<polygon fill="#63b8ff" stroke="#63b8ff" points="1892.2,-106.38 1900.74,-100.12 1890.16,-99.69 1892.2,-106.38"/>
</a>
</g>
</g>
<!-- Node5 -->
<g id="Node000005" class="node">
<title>Node5</title>
<g id="a_Node000005"><a xlink:title=" ">
<polygon fill="#e0e0e0" stroke="#999999" points="1080.15,-99.25 1051.35,-99.25 1051.35,-80.75 1080.15,-80.75 1080.15,-99.25"/>
<text text-anchor="middle" x="1065.75" y="-85.75" font-family="Helvetica,sans-Serif" font-size="10.00">list</text>
</a>
</g>
</g>
<!-- Node1&#45;&gt;Node5 -->
<g id="edge4_Node000001_Node000005" class="edge">
<title>Node1&#45;&gt;Node5</title>
<g id="a_edge4_Node000001_Node000005"><a xlink:title=" ">
<path fill="none" stroke="#63b8ff" d="M1278.12,-205.16C1257.43,-196.73 1225.5,-183.19 1198.75,-169.5 1159.1,-149.21 1114.91,-122.2 1088.76,-105.73"/>
<polygon fill="#63b8ff" stroke="#63b8ff" points="1090.64,-102.78 1080.32,-100.38 1086.89,-108.69 1090.64,-102.78"/>
</a>
</g>
</g>
<!-- Node6 -->
<g id="Node000006" class="node">
<title>Node6</title>
<g id="a_Node000006"><a xlink:href="config_8h.html" target="_top" xlink:title="Contains the configuration for the CGAL library.">
<polygon fill="white" stroke="#666666" points="1207.62,-104.5 1097.88,-104.5 1097.88,-75.5 1207.62,-75.5 1207.62,-104.5"/>
<text text-anchor="start" x="1105.88" y="-91" font-family="Helvetica,sans-Serif" font-size="10.00">CoverageControl/cgal</text>
<text text-anchor="middle" x="1152.75" y="-80.5" font-family="Helvetica,sans-Serif" font-size="10.00">/config.h</text>
</a>
</g>
</g>
<!-- Node1&#45;&gt;Node6 -->
<g id="edge5_Node000001_Node000006" class="edge">
<title>Node1&#45;&gt;Node6</title>
<g id="a_edge5_Node000001_Node000006"><a xlink:title=" ">
<path fill="none" stroke="#63b8ff" d="M1285.83,-205.01C1272.56,-196.47 1252.22,-182.86 1235.75,-169.5 1213.58,-151.52 1190.1,-128.95 1173.8,-112.63"/>
<polygon fill="#63b8ff" stroke="#63b8ff" points="1176.56,-110.44 1167.04,-105.8 1171.58,-115.37 1176.56,-110.44"/>
</a>
</g>
</g>
<!-- Node21 -->
<g id="Node000021" class="node">
<title>Node21</title>
<g id="a_Node000021"><a xlink:href="utilities_8h.html" target="_top" xlink:title="Contains utility functions for CGAL.">
<polygon fill="white" stroke="#666666" points="1354.62,-169.5 1244.88,-169.5 1244.88,-140.5 1354.62,-140.5 1354.62,-169.5"/>
<text text-anchor="start" x="1252.88" y="-156" font-family="Helvetica,sans-Serif" font-size="10.00">CoverageControl/cgal</text>
<text text-anchor="middle" x="1299.75" y="-145.5" font-family="Helvetica,sans-Serif" font-size="10.00">/utilities.h</text>
</a>
</g>
</g>
<!-- Node1&#45;&gt;Node21 -->
<g id="edge20_Node000001_Node000021" class="edge">
<title>Node1&#45;&gt;Node21</title>
<g id="a_edge20_Node000001_Node000021"><a xlink:title=" ">
<path fill="none" stroke="#63b8ff" d="M1299.75,-205.23C1299.75,-198.92 1299.75,-189.96 1299.75,-181.42"/>
<polygon fill="#63b8ff" stroke="#63b8ff" points="1303.25,-181.45 1299.75,-171.45 1296.25,-181.45 1303.25,-181.45"/>
</a>
</g>
</g>
<!-- Node28 -->
<g id="Node000028" class="node">
<title>Node28</title>
<g id="a_Node000028"><a xlink:href="voronoi_8h.html" target="_top" xlink:title="Class for computing Voronoi cells.">
<polygon fill="white" stroke="#666666" points="2047.12,-164.25 1916.38,-164.25 1916.38,-145.75 2047.12,-145.75 2047.12,-164.25"/>
<text text-anchor="middle" x="1981.75" y="-150.75" font-family="Helvetica,sans-Serif" font-size="10.00">CoverageControl/voronoi.h</text>
</a>
</g>
</g>
<!-- Node1&#45;&gt;Node28 -->
<g id="edge31_Node000001_Node000028" class="edge">
<title>Node1&#45;&gt;Node28</title>
<g id="a_edge31_Node000001_Node000028"><a xlink:title=" ">
<path fill="none" stroke="#63b8ff" d="M1332.64,-210.96C1436.05,-202.21 1756.45,-175.08 1904.86,-162.51"/>
<polygon fill="#63b8ff" stroke="#63b8ff" points="1904.92,-166.02 1914.59,-161.69 1904.33,-159.04 1904.92,-166.02"/>
</a>
</g>
</g>
<!-- Node7 -->
<g id="Node000007" class="node">
<title>Node7</title>
<g id="a_Node000007"><a xlink:title=" ">
<polygon fill="#e0e0e0" stroke="#999999" points="945.88,-29 813.62,-29 813.62,-10.5 945.88,-10.5 945.88,-29"/>
<text text-anchor="middle" x="879.75" y="-15.5" font-family="Helvetica,sans-Serif" font-size="10.00">CGAL/Arr_linear_traits_2.h</text>
</a>
</g>
</g>
<!-- Node6&#45;&gt;Node7 -->
<g id="edge6_Node000006_Node000007" class="edge">
<title>Node6&#45;&gt;Node7</title>
<g id="a_edge6_Node000006_Node000007"><a xlink:title=" ">
<path fill="none" stroke="#63b8ff" d="M1097.5,-75.19C1046.98,-62.56 973.11,-44.09 925.73,-32.25"/>
<polygon fill="#63b8ff" stroke="#63b8ff" points="926.6,-28.85 916.05,-29.82 924.9,-35.65 926.6,-28.85"/>
</a>
</g>
</g>
<!-- Node8 -->
<g id="Node000008" class="node">
<title>Node8</title>
<g id="a_Node000008"><a xlink:title=" ">
<polygon fill="#e0e0e0" stroke="#999999" points="1075.38,-34.25 964.12,-34.25 964.12,-5.25 1075.38,-5.25 1075.38,-34.25"/>
<text text-anchor="start" x="972.12" y="-20.75" font-family="Helvetica,sans-Serif" font-size="10.00">CGAL/Arr_walk_along</text>
<text text-anchor="middle" x="1019.75" y="-10.25" font-family="Helvetica,sans-Serif" font-size="10.00">_line_point_location.h</text>
</a>
</g>
</g>
<!-- Node6&#45;&gt;Node8 -->
<g id="edge7_Node000006_Node000008" class="edge">
<title>Node6&#45;&gt;Node8</title>
<g id="a_edge7_Node000006_Node000008"><a xlink:title=" ">
<path fill="none" stroke="#63b8ff" d="M1125.51,-75.02C1105.79,-64.9 1078.89,-51.1 1057.15,-39.94"/>
<polygon fill="#63b8ff" stroke="#63b8ff" points="1058.79,-36.85 1048.3,-35.4 1055.59,-43.08 1058.79,-36.85"/>
</a>
</g>
</g>
<!-- Node9 -->
<g id="Node000009" class="node">
<title>Node9</title>
<g id="a_Node000009"><a xlink:title=" ">
<polygon fill="#e0e0e0" stroke="#999999" points="1212.5,-29 1093,-29 1093,-10.5 1212.5,-10.5 1212.5,-29"/>
<text text-anchor="middle" x="1152.75" y="-15.5" font-family="Helvetica,sans-Serif" font-size="10.00">CGAL/Arrangement_2.h</text>
</a>
</g>
</g>
<!-- Node6&#45;&gt;Node9 -->
<g id="edge8_Node000006_Node000009" class="edge">
<title>Node6&#45;&gt;Node9</title>
<g id="a_edge8_Node000006_Node000009"><a xlink:title=" ">
<path fill="none" stroke="#63b8ff" d="M1152.75,-75.19C1152.75,-65.23 1152.75,-51.63 1152.75,-40.52"/>
<polygon fill="#63b8ff" stroke="#63b8ff" points="1156.25,-40.87 1152.75,-30.87 1149.25,-40.87 1156.25,-40.87"/>
</a>
</g>
</g>
<!-- Node10 -->
<g id="Node000010" class="node">
<title>Node10</title>
<g id="a_Node000010"><a xlink:title=" ">
<polygon fill="#e0e0e0" stroke="#999999" points="1393.25,-29 1230.25,-29 1230.25,-10.5 1393.25,-10.5 1393.25,-29"/>
<text text-anchor="middle" x="1311.75" y="-15.5" font-family="Helvetica,sans-Serif" font-size="10.00">CGAL/Delaunay_triangulation_2.h</text>
</a>
</g>
</g>
<!-- Node6&#45;&gt;Node10 -->
<g id="edge9_Node000006_Node000010" class="edge">
<title>Node6&#45;&gt;Node10</title>
<g id="a_edge9_Node000006_Node000010"><a xlink:title=" ">
<path fill="none" stroke="#63b8ff" d="M1185.31,-75.02C1213.42,-62.96 1253.72,-45.66 1281.22,-33.85"/>
<polygon fill="#63b8ff" stroke="#63b8ff" points="1282.59,-37.07 1290.4,-29.91 1279.83,-30.64 1282.59,-37.07"/>
</a>
</g>
</g>
<!-- Node11 -->
<g id="Node000011" class="node">
<title>Node11</title>
<g id="a_Node000011"><a xlink:title=" ">
<polygon fill="#e0e0e0" stroke="#999999" points="1531.88,-39.5 1411.62,-39.5 1411.62,0 1531.88,0 1531.88,-39.5"/>
<text text-anchor="start" x="1419.62" y="-26" font-family="Helvetica,sans-Serif" font-size="10.00">CGAL/Exact_predicates</text>
<text text-anchor="start" x="1419.62" y="-15.5" font-family="Helvetica,sans-Serif" font-size="10.00">_exact_constructions</text>
<text text-anchor="middle" x="1471.75" y="-5" font-family="Helvetica,sans-Serif" font-size="10.00">_kernel.h</text>
</a>
</g>
</g>
<!-- Node6&#45;&gt;Node11 -->
<g id="edge10_Node000006_Node000011" class="edge">
<title>Node6&#45;&gt;Node11</title>
<g id="a_edge10_Node000006_Node000011"><a xlink:title=" ">
<path fill="none" stroke="#63b8ff" d="M1207.9,-77.31C1210.89,-76.69 1213.86,-76.09 1216.75,-75.5 1295.4,-59.55 1318.24,-58.42 1400.34,-39.74"/>
<polygon fill="#63b8ff" stroke="#63b8ff" points="1401.05,-43.17 1410.01,-37.52 1399.48,-36.34 1401.05,-43.17"/>
</a>
</g>
</g>
<!-- Node12 -->
<g id="Node000012" class="node">
<title>Node12</title>
<g id="a_Node000012"><a xlink:title=" ">
<polygon fill="#e0e0e0" stroke="#999999" points="1677.62,-29 1549.88,-29 1549.88,-10.5 1677.62,-10.5 1677.62,-29"/>
<text text-anchor="middle" x="1613.75" y="-15.5" font-family="Helvetica,sans-Serif" font-size="10.00">CGAL/Partition_traits_2.h</text>
</a>
</g>
</g>
<!-- Node6&#45;&gt;Node12 -->
<g id="edge11_Node000006_Node000012" class="edge">
<title>Node6&#45;&gt;Node12</title>
<g id="a_edge11_Node000006_Node000012"><a xlink:title=" ">
<path fill="none" stroke="#63b8ff" d="M1207.84,-77.02C1210.85,-76.48 1213.83,-75.97 1216.75,-75.5 1359.8,-52.52 1398.23,-65.59 1540.75,-39.5 1551.24,-37.58 1562.45,-34.98 1572.86,-32.33"/>
<polygon fill="#63b8ff" stroke="#63b8ff" points="1573.53,-35.78 1582.31,-29.85 1571.75,-29.01 1573.53,-35.78"/>
</a>
</g>
</g>
<!-- Node13 -->
<g id="Node000013" class="node">
<title>Node13</title>
<g id="a_Node000013"><a xlink:title=" ">
<polygon fill="#e0e0e0" stroke="#999999" points="1845.88,-29 1695.62,-29 1695.62,-10.5 1845.88,-10.5 1845.88,-29"/>
<text text-anchor="middle" x="1770.75" y="-15.5" font-family="Helvetica,sans-Serif" font-size="10.00">CGAL/Polygon_with_holes_2.h</text>
</a>
</g>
</g>
<!-- Node6&#45;&gt;Node13 -->
<g id="edge12_Node000006_Node000013" class="edge">
<title>Node6&#45;&gt;Node13</title>
<g id="a_edge12_Node000006_Node000013"><a xlink:title=" ">
<path fill="none" stroke="#63b8ff" d="M1207.83,-76.9C1210.84,-76.39 1213.83,-75.92 1216.75,-75.5 1424.14,-45.82 1479.54,-70.4 1686.75,-39.5 1699.54,-37.59 1713.27,-34.83 1725.86,-32.02"/>
<polygon fill="#63b8ff" stroke="#63b8ff" points="1726.6,-35.44 1735.56,-29.77 1725.03,-28.62 1726.6,-35.44"/>
</a>
</g>
</g>
<!-- Node14 -->
<g id="Node000014" class="node">
<title>Node14</title>
<g id="a_Node000014"><a xlink:title=" ">
<polygon fill="#e0e0e0" stroke="#999999" points="89.5,-29 0,-29 0,-10.5 89.5,-10.5 89.5,-29"/>
<text text-anchor="middle" x="44.75" y="-15.5" font-family="Helvetica,sans-Serif" font-size="10.00">CGAL/Random.h</text>
</a>
</g>
</g>
<!-- Node6&#45;&gt;Node14 -->
<g id="edge13_Node000006_Node000014" class="edge">
<title>Node6&#45;&gt;Node14</title>
<g id="a_edge13_Node000006_Node000014"><a xlink:title=" ">
<path fill="none" stroke="#63b8ff" d="M1097.69,-76.76C1094.68,-76.29 1091.68,-75.86 1088.75,-75.5 651.3,-21.82 530.71,-121.95 97.75,-39.5 90.39,-38.1 82.67,-35.85 75.48,-33.39"/>
<polygon fill="#63b8ff" stroke="#63b8ff" points="76.75,-30.13 66.16,-29.96 74.34,-36.7 76.75,-30.13"/>
</a>
</g>
</g>
<!-- Node15 -->
<g id="Node000015" class="node">
<title>Node15</title>
<g id="a_Node000015"><a xlink:title=" ">
<polygon fill="#e0e0e0" stroke="#999999" points="200.38,-29 107.12,-29 107.12,-10.5 200.38,-10.5 200.38,-29"/>
<text text-anchor="middle" x="153.75" y="-15.5" font-family="Helvetica,sans-Serif" font-size="10.00">CGAL/algorithm.h</text>
</a>
</g>
</g>
<!-- Node6&#45;&gt;Node15 -->
<g id="edge14_Node000006_Node000015" class="edge">
<title>Node6&#45;&gt;Node15</title>
<g id="a_edge14_Node000006_Node000015"><a xlink:title=" ">
<path fill="none" stroke="#63b8ff" d="M1097.69,-76.78C1094.67,-76.3 1091.68,-75.87 1088.75,-75.5 700.78,-26.98 594.29,-110.27 209.75,-39.5 201.82,-38.04 193.48,-35.71 185.73,-33.18"/>
<polygon fill="#63b8ff" stroke="#63b8ff" points="186.94,-29.89 176.35,-29.91 184.64,-36.5 186.94,-29.89"/>
</a>
</g>
</g>
<!-- Node16 -->
<g id="Node000016" class="node">
<title>Node16</title>
<g id="a_Node000016"><a xlink:title=" ">
<polygon fill="#e0e0e0" stroke="#999999" points="306.75,-29 218.75,-29 218.75,-10.5 306.75,-10.5 306.75,-29"/>
<text text-anchor="middle" x="262.75" y="-15.5" font-family="Helvetica,sans-Serif" font-size="10.00">CGAL/centroid.h</text>
</a>
</g>
</g>
<!-- Node6&#45;&gt;Node16 -->
<g id="edge15_Node000006_Node000016" class="edge">
<title>Node6&#45;&gt;Node16</title>
<g id="a_edge15_Node000006_Node000016"><a xlink:title=" ">
<path fill="none" stroke="#63b8ff" d="M1097.69,-76.8C1094.67,-76.31 1091.68,-75.87 1088.75,-75.5 747.6,-31.87 653.27,-105.56 315.75,-39.5 308.46,-38.07 300.82,-35.84 293.68,-33.4"/>
<polygon fill="#63b8ff" stroke="#63b8ff" points="295.01,-30.16 284.42,-30.01 292.61,-36.73 295.01,-30.16"/>
</a>
</g>
</g>
<!-- Node17 -->
<g id="Node000017" class="node">
<title>Node17</title>
<g id="a_Node000017"><a xlink:title=" ">
<polygon fill="#e0e0e0" stroke="#999999" points="424.38,-29 325.12,-29 325.12,-10.5 424.38,-10.5 424.38,-29"/>
<text text-anchor="middle" x="374.75" y="-15.5" font-family="Helvetica,sans-Serif" font-size="10.00">CGAL/partition_2.h</text>
</a>
</g>
</g>
<!-- Node6&#45;&gt;Node17 -->
<g id="edge16_Node000006_Node000017" class="edge">
<title>Node6&#45;&gt;Node17</title>
<g id="a_edge16_Node000006_Node000017"><a xlink:title=" ">
<path fill="none" stroke="#63b8ff" d="M1097.68,-76.83C1094.67,-76.33 1091.68,-75.89 1088.75,-75.5 799.71,-37.3 720.52,-92.07 433.75,-39.5 425.32,-37.95 416.42,-35.55 408.15,-32.98"/>
<polygon fill="#63b8ff" stroke="#63b8ff" points="409.41,-29.71 398.82,-29.9 407.22,-36.36 409.41,-29.71"/>
</a>
</g>
</g>
<!-- Node18 -->
<g id="Node000018" class="node">
<title>Node18</title>
<g id="a_Node000018"><a xlink:title=" ">
<polygon fill="#e0e0e0" stroke="#999999" points="579.12,-29 442.38,-29 442.38,-10.5 579.12,-10.5 579.12,-29"/>
<text text-anchor="middle" x="510.75" y="-15.5" font-family="Helvetica,sans-Serif" font-size="10.00">CGAL/point_generators_2.h</text>
</a>
</g>
</g>
<!-- Node6&#45;&gt;Node18 -->
<g id="edge17_Node000006_Node000018" class="edge">
<title>Node6&#45;&gt;Node18</title>
<g id="a_edge17_Node000006_Node000018"><a xlink:title=" ">
<path fill="none" stroke="#63b8ff" d="M1097.68,-76.89C1094.66,-76.38 1091.67,-75.91 1088.75,-75.5 868.13,-44.44 808.91,-73.65 588.75,-39.5 576.98,-37.67 564.38,-34.98 552.8,-32.19"/>
<polygon fill="#63b8ff" stroke="#63b8ff" points="553.66,-28.8 543.11,-29.78 551.97,-35.59 553.66,-28.8"/>
</a>
</g>
</g>
<!-- Node19 -->
<g id="Node000019" class="node">
<title>Node19</title>
<g id="a_Node000019"><a xlink:title=" ">
<polygon fill="#e0e0e0" stroke="#999999" points="732,-29 597.5,-29 597.5,-10.5 732,-10.5 732,-29"/>
<text text-anchor="middle" x="664.75" y="-15.5" font-family="Helvetica,sans-Serif" font-size="10.00">CGAL/random_polygon_2.h</text>
</a>
</g>
</g>
<!-- Node6&#45;&gt;Node19 -->
<g id="edge18_Node000006_Node000019" class="edge">
<title>Node6&#45;&gt;Node19</title>
<g id="a_edge18_Node000006_Node000019"><a xlink:title=" ">
<path fill="none" stroke="#63b8ff" d="M1097.66,-77C1094.65,-76.46 1091.67,-75.96 1088.75,-75.5 935.13,-51.42 893.93,-66.19 740.75,-39.5 729.72,-37.58 717.92,-34.95 706.98,-32.27"/>
<polygon fill="#63b8ff" stroke="#63b8ff" points="707.99,-28.92 697.44,-29.86 706.28,-35.7 707.99,-28.92"/>
</a>
</g>
</g>
<!-- Node20 -->
<g id="Node000020" class="node">
<title>Node20</title>
<g id="a_Node000020"><a xlink:title=" ">
<polygon fill="#e0e0e0" stroke="#999999" points="795.75,-29 749.75,-29 749.75,-10.5 795.75,-10.5 795.75,-29"/>
<text text-anchor="middle" x="772.75" y="-15.5" font-family="Helvetica,sans-Serif" font-size="10.00">iterator</text>
</a>
</g>
</g>
<!-- Node6&#45;&gt;Node20 -->
<g id="edge19_Node000006_Node000020" class="edge">
<title>Node6&#45;&gt;Node20</title>
<g id="a_edge19_Node000006_Node000020"><a xlink:title=" ">
<path fill="none" stroke="#63b8ff" d="M1097.65,-77.08C1094.64,-76.52 1091.66,-75.99 1088.75,-75.5 963.29,-54.35 925.2,-80.49 804.75,-39.5 801.38,-38.35 797.98,-36.83 794.71,-35.15"/>
<polygon fill="#63b8ff" stroke="#63b8ff" points="796.66,-32.23 786.26,-30.23 793.15,-38.28 796.66,-32.23"/>
</a>
</g>
</g>
<!-- Node21&#45;&gt;Node2 -->
<g id="edge23_Node000021_Node000002" class="edge">
<title>Node21&#45;&gt;Node2</title>
<g id="a_edge23_Node000021_Node000002"><a xlink:title=" ">
<path fill="none" stroke="#63b8ff" d="M1244.49,-146.95C1191.86,-139.41 1110.78,-125.58 1042.75,-104.5 1041.95,-104.25 1041.14,-103.99 1040.33,-103.72"/>
<polygon fill="#63b8ff" stroke="#63b8ff" points="1041.86,-100.55 1031.27,-100.22 1039.34,-107.08 1041.86,-100.55"/>
</a>
</g>
</g>
<!-- Node21&#45;&gt;Node5 -->
<g id="edge25_Node000021_Node000005" class="edge">
<title>Node21&#45;&gt;Node5</title>
<g id="a_edge25_Node000021_Node000005"><a xlink:title=" ">
<path fill="none" stroke="#63b8ff" d="M1244.61,-145.74C1203.67,-138.57 1146.66,-126.39 1089.35,-103.87"/>
<polygon fill="#63b8ff" stroke="#63b8ff" points="1091.01,-100.77 1080.43,-100.27 1088.39,-107.26 1091.01,-100.77"/>
</a>
</g>
</g>
<!-- Node21&#45;&gt;Node6 -->
<g id="edge30_Node000021_Node000006" class="edge">
<title>Node21&#45;&gt;Node6</title>
<g id="a_edge30_Node000021_Node000006"><a xlink:title=" ">
<path fill="none" stroke="#63b8ff" d="M1267.13,-140.02C1246.1,-131.01 1218.52,-119.19 1195.71,-109.41"/>
<polygon fill="#63b8ff" stroke="#63b8ff" points="1197.24,-106.26 1186.67,-105.54 1194.49,-112.7 1197.24,-106.26"/>
</a>
</g>
</g>
<!-- Node22 -->
<g id="Node000022" class="node">
<title>Node22</title>
<g id="a_Node000022"><a xlink:title=" ">
<polygon fill="#e0e0e0" stroke="#999999" points="1560.88,-99.25 1392.62,-99.25 1392.62,-80.75 1560.88,-80.75 1560.88,-99.25"/>
<text text-anchor="middle" x="1476.75" y="-85.75" font-family="Helvetica,sans-Serif" font-size="10.00">CGAL/Boolean_set_operations_2.h</text>
</a>
</g>
</g>
<!-- Node21&#45;&gt;Node22 -->
<g id="edge21_Node000021_Node000022" class="edge">
<title>Node21&#45;&gt;Node22</title>
<g id="a_edge21_Node000021_Node000022"><a xlink:title=" ">
<path fill="none" stroke="#63b8ff" d="M1339.03,-140.02C1369.74,-129.09 1412.03,-114.04 1441.62,-103.5"/>
<polygon fill="#63b8ff" stroke="#63b8ff" points="1442.62,-106.86 1450.86,-100.21 1440.27,-100.27 1442.62,-106.86"/>
</a>
</g>
</g>
<!-- Node23 -->
<g id="Node000023" class="node">
<title>Node23</title>
<g id="a_Node000023"><a xlink:title=" ">
<polygon fill="#e0e0e0" stroke="#999999" points="1374.12,-99.25 1225.38,-99.25 1225.38,-80.75 1374.12,-80.75 1374.12,-99.25"/>
<text text-anchor="middle" x="1299.75" y="-85.75" font-family="Helvetica,sans-Serif" font-size="10.00">CGAL/Polygon_2_algorithms.h</text>
</a>
</g>
</g>
<!-- Node21&#45;&gt;Node23 -->
<g id="edge22_Node000021_Node000023" class="edge">
<title>Node21&#45;&gt;Node23</title>
<g id="a_edge22_Node000021_Node000023"><a xlink:title=" ">
<path fill="none" stroke="#63b8ff" d="M1299.75,-140.02C1299.75,-131.54 1299.75,-120.59 1299.75,-111.19"/>
<polygon fill="#63b8ff" stroke="#63b8ff" points="1303.25,-111.22 1299.75,-101.22 1296.25,-111.22 1303.25,-111.22"/>
</a>
</g>
</g>
<!-- Node24 -->
<g id="Node000024" class="node">
<title>Node24</title>
<g id="a_Node000024"><a xlink:title=" ">
<polygon fill="#e0e0e0" stroke="#999999" points="2055.88,-29 2013.62,-29 2013.62,-10.5 2055.88,-10.5 2055.88,-29"/>
<text text-anchor="middle" x="2034.75" y="-15.5" font-family="Helvetica,sans-Serif" font-size="10.00">vector</text>
</a>
</g>
</g>
<!-- Node21&#45;&gt;Node24 -->
<g id="edge24_Node000021_Node000024" class="edge">
<title>Node21&#45;&gt;Node24</title>
<g id="a_edge24_Node000021_Node000024"><a xlink:title=" ">
<path fill="none" stroke="#63b8ff" d="M1354.7,-150.82C1485.35,-143.01 1807.1,-122.24 1852.75,-104.5 1872.55,-96.81 1871.89,-85.29 1890.75,-75.5 1937.91,-51.02 1956.5,-61.76 2004.75,-39.5 2007.43,-38.26 2010.17,-36.83 2012.84,-35.31"/>
<polygon fill="#63b8ff" stroke="#63b8ff" points="2014.61,-38.33 2021.3,-30.12 2010.95,-32.37 2014.61,-38.33"/>
</a>
</g>
</g>
<!-- Node25 -->
<g id="Node000025" class="node">
<title>Node25</title>
<g id="a_Node000025"><a xlink:href="typedefs_8h.html" target="_top" xlink:title="Contains typedefs for the library.">
<polygon fill="white" stroke="#666666" points="1843.5,-99.25 1706,-99.25 1706,-80.75 1843.5,-80.75 1843.5,-99.25"/>
<text text-anchor="middle" x="1774.75" y="-85.75" font-family="Helvetica,sans-Serif" font-size="10.00">CoverageControl/typedefs.h</text>
</a>
</g>
</g>
<!-- Node21&#45;&gt;Node25 -->
<g id="edge26_Node000021_Node000025" class="edge">
<title>Node21&#45;&gt;Node25</title>
<g id="a_edge26_Node000021_Node000025"><a xlink:title=" ">
<path fill="none" stroke="#63b8ff" d="M1354.7,-146.71C1439.18,-135.51 1601.26,-114.01 1697.51,-101.24"/>
<polygon fill="#63b8ff" stroke="#63b8ff" points="1697.96,-104.72 1707.41,-99.93 1697.04,-97.78 1697.96,-104.72"/>
</a>
</g>
</g>
<!-- Node25&#45;&gt;Node24 -->
<g id="edge29_Node000025_Node000024" class="edge">
<title>Node25&#45;&gt;Node24</title>
<g id="a_edge29_Node000025_Node000024"><a xlink:title=" ">
<path fill="none" stroke="#63b8ff" d="M1825.05,-80.28C1882.51,-69.94 1972.72,-52.49 2004.75,-39.5 2007.64,-38.33 2010.56,-36.88 2013.39,-35.32"/>
<polygon fill="#63b8ff" stroke="#63b8ff" points="2015.02,-38.43 2021.71,-30.21 2011.36,-32.46 2015.02,-38.43"/>
</a>
</g>
</g>
<!-- Node26 -->
<g id="Node000026" class="node">
<title>Node26</title>
<g id="a_Node000026"><a xlink:title=" ">
<polygon fill="#e0e0e0" stroke="#999999" points="1935.88,-29 1863.62,-29 1863.62,-10.5 1935.88,-10.5 1935.88,-29"/>
<text text-anchor="middle" x="1899.75" y="-15.5" font-family="Helvetica,sans-Serif" font-size="10.00">Eigen/Dense</text>
</a>
</g>
</g>
<!-- Node25&#45;&gt;Node26 -->
<g id="edge27_Node000025_Node000026" class="edge">
<title>Node25&#45;&gt;Node26</title>
<g id="a_edge27_Node000025_Node000026"><a xlink:title=" ">
<path fill="none" stroke="#63b8ff" d="M1790.58,-80.36C1811.62,-68.87 1849.05,-48.43 1874.14,-34.74"/>
<polygon fill="#63b8ff" stroke="#63b8ff" points="1875.62,-37.91 1882.72,-30.05 1872.26,-31.77 1875.62,-37.91"/>
</a>
</g>
</g>
<!-- Node27 -->
<g id="Node000027" class="node">
<title>Node27</title>
<g id="a_Node000027"><a xlink:title=" ">
<polygon fill="#e0e0e0" stroke="#999999" points="1995.88,-29 1953.62,-29 1953.62,-10.5 1995.88,-10.5 1995.88,-29"/>
<text text-anchor="middle" x="1974.75" y="-15.5" font-family="Helvetica,sans-Serif" font-size="10.00">queue</text>
</a>
</g>
</g>
<!-- Node25&#45;&gt;Node27 -->
<g id="edge28_Node000025_Node000027" class="edge">
<title>Node25&#45;&gt;Node27</title>
<g id="a_edge28_Node000025_Node000027"><a xlink:title=" ">
<path fill="none" stroke="#63b8ff" d="M1816.41,-80.26C1851.53,-72.1 1902.67,-58.34 1944.75,-39.5 1947.45,-38.29 1950.19,-36.88 1952.87,-35.37"/>
<polygon fill="#63b8ff" stroke="#63b8ff" points="1954.63,-38.39 1961.33,-30.19 1950.98,-32.43 1954.63,-38.39"/>
</a>
</g>
</g>
<!-- Node28&#45;&gt;Node4 -->
<g id="edge33_Node000028_Node000004" class="edge">
<title>Node28&#45;&gt;Node4</title>
<g id="a_edge33_Node000028_Node000004"><a xlink:title=" ">
<path fill="none" stroke="#63b8ff" d="M1974.33,-145.5C1965.92,-135.87 1952,-119.92 1941.38,-107.76"/>
<polygon fill="#63b8ff" stroke="#63b8ff" points="1944.26,-105.73 1935.05,-100.5 1938.99,-110.34 1944.26,-105.73"/>
</a>
</g>
</g>
<!-- Node28&#45;&gt;Node24 -->
<g id="edge36_Node000028_Node000024" class="edge">
<title>Node28&#45;&gt;Node24</title>
<g id="a_edge36_Node000028_Node000024"><a xlink:title=" ">
<path fill="none" stroke="#63b8ff" d="M1982.9,-145.47C1985.09,-130.75 1990.57,-99.82 2000.75,-75.5 2006.26,-62.34 2014.72,-48.71 2021.82,-38.34"/>
<polygon fill="#63b8ff" stroke="#63b8ff" points="2024.5,-40.61 2027.43,-30.43 2018.79,-36.56 2024.5,-40.61"/>
</a>
</g>
</g>
<!-- Node28&#45;&gt;Node25 -->
<g id="edge42_Node000028_Node000025" class="edge">
<title>Node28&#45;&gt;Node25</title>
<g id="a_edge42_Node000028_Node000025"><a xlink:title=" ">
<path fill="none" stroke="#63b8ff" d="M1953.4,-145.37C1917.37,-134.41 1854.98,-115.42 1814.28,-103.03"/>
<polygon fill="#63b8ff" stroke="#63b8ff" points="1815.45,-99.73 1804.87,-100.17 1813.42,-106.43 1815.45,-99.73"/>
</a>
</g>
</g>
<!-- Node29 -->
<g id="Node000029" class="node">
<title>Node29</title>
<g id="a_Node000029"><a xlink:title=" ">
<polygon fill="#e0e0e0" stroke="#999999" points="2169.25,-29 2126.25,-29 2126.25,-10.5 2169.25,-10.5 2169.25,-29"/>
<text text-anchor="middle" x="2147.75" y="-15.5" font-family="Helvetica,sans-Serif" font-size="10.00">cmath</text>
</a>
</g>
</g>
<!-- Node28&#45;&gt;Node29 -->
<g id="edge32_Node000028_Node000029" class="edge">
<title>Node28&#45;&gt;Node29</title>
<g id="a_edge32_Node000028_Node000029"><a xlink:title=" ">
<path fill="none" stroke="#63b8ff" d="M2021.45,-145.26C2059.82,-136.02 2114.22,-120.59 2128.75,-104.5 2144.5,-87.06 2148.06,-59.34 2148.47,-40.62"/>
<polygon fill="#63b8ff" stroke="#63b8ff" points="2151.97,-40.81 2148.37,-30.84 2144.97,-40.88 2151.97,-40.81"/>
</a>
</g>
</g>
<!-- Node30 -->
<g id="Node000030" class="node">
<title>Node30</title>
<g id="a_Node000030"><a xlink:title=" ">
<polygon fill="#e0e0e0" stroke="#999999" points="2061.75,-99.25 2009.75,-99.25 2009.75,-80.75 2061.75,-80.75 2061.75,-99.25"/>
<text text-anchor="middle" x="2035.75" y="-85.75" font-family="Helvetica,sans-Serif" font-size="10.00">memory</text>
</a>
</g>
</g>
<!-- Node28&#45;&gt;Node30 -->
<g id="edge34_Node000028_Node000030" class="edge">
<title>Node28&#45;&gt;Node30</title>
<g id="a_edge34_Node000028_Node000030"><a xlink:title=" ">
<path fill="none" stroke="#63b8ff" d="M1989.03,-145.5C1997.29,-135.87 2010.96,-119.92 2021.39,-107.76"/>
<polygon fill="#63b8ff" stroke="#63b8ff" points="2023.75,-110.38 2027.6,-100.51 2018.43,-105.83 2023.75,-110.38"/>
</a>
</g>
</g>
<!-- Node31 -->
<g id="Node000031" class="node">
<title>Node31</title>
<g id="a_Node000031"><a xlink:title=" ">
<polygon fill="#e0e0e0" stroke="#999999" points="2119.38,-99.25 2080.12,-99.25 2080.12,-80.75 2119.38,-80.75 2119.38,-99.25"/>
<text text-anchor="middle" x="2099.75" y="-85.75" font-family="Helvetica,sans-Serif" font-size="10.00">utility</text>
</a>
</g>
</g>
<!-- Node28&#45;&gt;Node31 -->
<g id="edge35_Node000028_Node000031" class="edge">
<title>Node28&#45;&gt;Node31</title>
<g id="a_edge35_Node000028_Node000031"><a xlink:title=" ">
<path fill="none" stroke="#63b8ff" d="M1997.66,-145.5C2017.19,-135.08 2050.57,-117.26 2073.83,-104.84"/>
<polygon fill="#63b8ff" stroke="#63b8ff" points="2075.2,-108.07 2082.38,-100.28 2071.91,-101.9 2075.2,-108.07"/>
</a>
</g>
</g>
<!-- Node32 -->
<g id="Node000032" class="node">
<title>Node32</title>
<g id="a_Node000032"><a xlink:href="constants_8h.html" target="_top" xlink:title="Constants for the CoverageControl library.">
<polygon fill="white" stroke="#666666" points="2318.12,-99.25 2175.38,-99.25 2175.38,-80.75 2318.12,-80.75 2318.12,-99.25"/>
<text text-anchor="middle" x="2246.75" y="-85.75" font-family="Helvetica,sans-Serif" font-size="10.00">CoverageControl/constants.h</text>
</a>
</g>
</g>
<!-- Node28&#45;&gt;Node32 -->
<g id="edge37_Node000028_Node000032" class="edge">
<title>Node28&#45;&gt;Node32</title>
<g id="a_edge37_Node000028_Node000032"><a xlink:title=" ">
<path fill="none" stroke="#63b8ff" d="M2018.32,-145.31C2065.41,-134.11 2147.35,-114.63 2199.22,-102.3"/>
<polygon fill="#63b8ff" stroke="#63b8ff" points="2199.74,-105.77 2208.66,-100.06 2198.12,-98.96 2199.74,-105.77"/>
</a>
</g>
</g>
<!-- Node32&#45;&gt;Node29 -->
<g id="edge38_Node000032_Node000029" class="edge">
<title>Node32&#45;&gt;Node29</title>
<g id="a_edge38_Node000032_Node000029"><a xlink:title=" ">
<path fill="none" stroke="#63b8ff" d="M2234.21,-80.36C2218,-69.18 2189.48,-49.52 2169.65,-35.85"/>
<polygon fill="#63b8ff" stroke="#63b8ff" points="2171.65,-32.98 2161.43,-30.18 2167.68,-38.74 2171.65,-32.98"/>
</a>
</g>
</g>
<!-- Node33 -->
<g id="Node000033" class="node">
<title>Node33</title>
<g id="a_Node000033"><a xlink:title=" ">
<polygon fill="#e0e0e0" stroke="#999999" points="2226.38,-29 2187.12,-29 2187.12,-10.5 2226.38,-10.5 2226.38,-29"/>
<text text-anchor="middle" x="2206.75" y="-15.5" font-family="Helvetica,sans-Serif" font-size="10.00">limits</text>
</a>
</g>
</g>
<!-- Node32&#45;&gt;Node33 -->
<g id="edge39_Node000032_Node000033" class="edge">
<title>Node32&#45;&gt;Node33</title>
<g id="a_edge39_Node000032_Node000033"><a xlink:title=" ">
<path fill="none" stroke="#63b8ff" d="M2241.68,-80.36C2235.58,-69.94 2225.16,-52.17 2217.29,-38.73"/>
<polygon fill="#63b8ff" stroke="#63b8ff" points="2220.49,-37.27 2212.42,-30.42 2214.45,-40.81 2220.49,-37.27"/>
</a>
</g>
</g>
<!-- Node34 -->
<g id="Node000034" class="node">
<title>Node34</title>
<g id="a_Node000034"><a xlink:title=" ">
<polygon fill="#e0e0e0" stroke="#999999" points="2284.75,-29 2244.75,-29 2244.75,-10.5 2284.75,-10.5 2284.75,-29"/>
<text text-anchor="middle" x="2264.75" y="-15.5" font-family="Helvetica,sans-Serif" font-size="10.00">string</text>
</a>
</g>
</g>
<!-- Node32&#45;&gt;Node34 -->
<g id="edge40_Node000032_Node000034" class="edge">
<title>Node32&#45;&gt;Node34</title>
<g id="a_edge40_Node000032_Node000034"><a xlink:title=" ">
<path fill="none" stroke="#63b8ff" d="M2249.03,-80.36C2251.7,-70.25 2256.19,-53.22 2259.69,-39.94"/>
<polygon fill="#63b8ff" stroke="#63b8ff" points="2262.99,-41.14 2262.16,-30.57 2256.22,-39.35 2262.99,-41.14"/>
</a>
</g>
</g>
<!-- Node35 -->
<g id="Node000035" class="node">
<title>Node35</title>
<g id="a_Node000035"><a xlink:title=" ">
<polygon fill="#e0e0e0" stroke="#999999" points="2431,-29 2302.5,-29 2302.5,-10.5 2431,-10.5 2431,-29"/>
<text text-anchor="middle" x="2366.75" y="-15.5" font-family="Helvetica,sans-Serif" font-size="10.00">CoverageControl/Config.h</text>
</a>
</g>
</g>
<!-- Node32&#45;&gt;Node35 -->
<g id="edge41_Node000032_Node000035" class="edge">
<title>Node32&#45;&gt;Node35</title>
<g id="a_edge41_Node000032_Node000035"><a xlink:title=" ">
<path fill="none" stroke="#63b8ff" d="M2261.95,-80.36C2282.06,-68.92 2317.76,-48.61 2341.84,-34.92"/>
<polygon fill="#63b8ff" stroke="#63b8ff" points="2343.4,-38.06 2350.36,-30.07 2339.94,-31.97 2343.4,-38.06"/>
</a>
</g>
</g>
</g>
</svg>

<g id="navigator" transform="translate(0 0)" fill="#404254">
  <rect fill="#f2f5e9" fill-opacity="0.5" stroke="#606060" stroke-width=".5" x="0" y="0" width="60" height="60"/>
  <use id="zoomplus" xlink:href="#zoomPlus" x="17" y="9" onmousedown="handleZoom(evt,'in')"/>
  <use id="zoomminus" xlink:href="#zoomMin" x="42" y="9" onmousedown="handleZoom(evt,'out')"/>
  <use id="reset" xlink:href="#resetDef" x="30" y="36" onmousedown="handleReset()"/>
   <use id="arrowup" xlink:href="#arrowUp" x="0" y="0" onmousedown="handlePan(0,-1)"/>
  <use id="arrowright" xlink:href="#arrowRight" x="0" y="0" onmousedown="handlePan(1,0)"/>
  <use id="arrowdown" xlink:href="#arrowDown" x="0" y="0" onmousedown="handlePan(0,1)"/>
  <use id="arrowleft" xlink:href="#arrowLeft" x="0" y="0" onmousedown="handlePan(-1,0)"/>
</g>
<svg viewBox="0 0 15 15" width="100%" height="30px" preserveAspectRatio="xMaxYMin meet">
 <g id="arrow_out" transform="scale(0.3 0.3)">
  <a xlink:href="voronoi_8cpp__incl_org.svg" target="_base">
   <rect id="button" ry="5" rx="5" y="6" x="6" height="38" width="38"
        fill="#f2f5e9" fill-opacity="0.5" stroke="#606060" stroke-width="1.0"/>
   <path id="arrow"
     d="M 11.500037,31.436501 C 11.940474,20.09759 22.043105,11.32322 32.158766,21.979434 L 37.068811,17.246167 C 37.068811,17.246167 37.088388,32 37.088388,32 L 22.160133,31.978069 C 22.160133,31.978069 26.997745,27.140456 26.997745,27.140456 C 18.528582,18.264221 13.291696,25.230495 11.500037,31.436501 z"
     style="fill:#404040;"/>
  </a>
 </g>
</svg>

<style type='text/css'>
<![CDATA[
[data-mouse-over-selected='false'] { opacity: 0.7; }
[data-mouse-over-selected='true']  { opacity: 1.0; }
]]>
</style>
<script type="application/ecmascript"><![CDATA[
document.addEventListener('DOMContentLoaded', (event) => {
  highlightEdges();
  highlightAdjacentNodes();
});
]]></script>
</svg>
