<?xml version="1.0" encoding="UTF-8" standalone="no"?>
<!DOCTYPE svg PUBLIC "-//W3C//DTD SVG 1.1//EN"
 "http://www.w3.org/Graphics/SVG/1.1/DTD/svg11.dtd">
<!-- Generated by graphviz version 10.0.1 (0)
 -->
<!-- Title: voronoi.h Pages: 1 -->
<svg width="1001pt" height="310pt"
 viewBox="0.00 0.00 1000.50 309.50" xmlns="http://www.w3.org/2000/svg" xmlns:xlink="http://www.w3.org/1999/xlink">
<g id="graph0" class="graph" transform="scale(1 1) rotate(0) translate(4 305.5)">
<title>voronoi.h</title>
<!-- Node1 -->
<g id="Node000001" class="node">
<title>Node1</title>
<g id="a_Node000001"><a xlink:title="Class for computing Voronoi cells.">
<polygon fill="#999999" stroke="#666666" points="665.12,-301.5 610.12,-301.5 610.12,-283 665.12,-283 665.12,-301.5"/>
<text text-anchor="middle" x="637.62" y="-288" font-family="Helvetica,sans-Serif" font-size="10.00">voronoi.h</text>
</a>
</g>
</g>
<!-- Node2 -->
<g id="Node000002" class="node">
<title>Node2</title>
<g id="a_Node000002"><a xlink:href="coverage__system_8h.html" target="_top" xlink:title="The file contains the CoverageSystem class, which is the main class for the coverage control library.">
<polygon fill="white" stroke="#666666" points="604.25,-192.5 505,-192.5 505,-174 604.25,-174 604.25,-192.5"/>
<text text-anchor="middle" x="554.62" y="-179" font-family="Helvetica,sans-Serif" font-size="10.00">coverage_system.h</text>
</a>
</g>
</g>
<!-- Node1&#45;&gt;Node2 -->
<g id="edge1_Node000001_Node000002" class="edge">
<title>Node1&#45;&gt;Node2</title>
<g id="a_edge1_Node000001_Node000002"><a xlink:title=" ">
<path fill="none" stroke="#63b8ff" d="M598.87,-282.2C580.27,-275.69 559.67,-264.82 548.62,-247 538.13,-230.07 545.59,-205.5 550.78,-192.7"/>
<polygon fill="#63b8ff" stroke="#63b8ff" points="597.77,-285.52 608.36,-285.17 599.86,-278.84 597.77,-285.52"/>
</a>
</g>
</g>
<!-- Node13 -->
<g id="Node000013" class="node">
<title>Node13</title>
<g id="a_Node000013"><a xlink:href="plotter_8h.html" target="_top" xlink:title="Class to plot the map.">
<polygon fill="white" stroke="#666666" points="704.25,-247 653,-247 653,-228.5 704.25,-228.5 704.25,-247"/>
<text text-anchor="middle" x="678.62" y="-233.5" font-family="Helvetica,sans-Serif" font-size="10.00">plotter.h</text>
</a>
</g>
</g>
<!-- Node1&#45;&gt;Node13 -->
<g id="edge20_Node000001_Node000013" class="edge">
<title>Node1&#45;&gt;Node13</title>
<g id="a_edge20_Node000001_Node000013"><a xlink:title=" ">
<path fill="none" stroke="#63b8ff" d="M651.3,-273.73C658.26,-264.82 666.41,-254.4 671.98,-247.26"/>
<polygon fill="#63b8ff" stroke="#63b8ff" points="648.72,-271.35 645.33,-281.39 654.24,-275.66 648.72,-271.35"/>
</a>
</g>
</g>
<!-- Node15 -->
<g id="Node000015" class="node">
<title>Node15</title>
<g id="a_Node000015"><a xlink:href="robot__model_8h.html" target="_top" xlink:title="Class for handling the robot model.">
<polygon fill="white" stroke="#666666" points="635.38,-247 557.88,-247 557.88,-228.5 635.38,-228.5 635.38,-247"/>
<text text-anchor="middle" x="596.62" y="-233.5" font-family="Helvetica,sans-Serif" font-size="10.00">robot_model.h</text>
</a>
</g>
</g>
<!-- Node1&#45;&gt;Node15 -->
<g id="edge24_Node000001_Node000015" class="edge">
<title>Node1&#45;&gt;Node15</title>
<g id="a_edge24_Node000001_Node000015"><a xlink:title=" ">
<path fill="none" stroke="#63b8ff" d="M623.95,-273.73C616.99,-264.82 608.84,-254.4 603.27,-247.26"/>
<polygon fill="#63b8ff" stroke="#63b8ff" points="621.01,-275.66 629.92,-281.39 626.53,-271.35 621.01,-275.66"/>
</a>
</g>
</g>
<!-- Node16 -->
<g id="Node000016" class="node">
<title>Node16</title>
<g id="a_Node000016"><a xlink:href="voronoi_8cpp.html" target="_top" xlink:title="Functions to compute Centroidal Voronoi Tessellation.">
<polygon fill="white" stroke="#666666" points="787.38,-247 721.88,-247 721.88,-228.5 787.38,-228.5 787.38,-247"/>
<text text-anchor="middle" x="754.62" y="-233.5" font-family="Helvetica,sans-Serif" font-size="10.00">voronoi.cpp</text>
</a>
</g>
</g>
<!-- Node1&#45;&gt;Node16 -->
<g id="edge26_Node000001_Node000016" class="edge">
<title>Node1&#45;&gt;Node16</title>
<g id="a_edge26_Node000001_Node000016"><a xlink:title=" ">
<path fill="none" stroke="#63b8ff" d="M667.39,-277.89C688.71,-268.33 716.81,-255.72 735.28,-247.43"/>
<polygon fill="#63b8ff" stroke="#63b8ff" points="666.02,-274.67 658.33,-281.96 668.88,-281.06 666.02,-274.67"/>
</a>
</g>
</g>
<!-- Node3 -->
<g id="Node000003" class="node">
<title>Node3</title>
<g id="a_Node000003"><a xlink:href="abstract__controller_8h.html" target="_top" xlink:title="Contains the abstract class for coverage control algorithms.">
<polygon fill="white" stroke="#666666" points="474.88,-138 370.38,-138 370.38,-119.5 474.88,-119.5 474.88,-138"/>
<text text-anchor="middle" x="422.62" y="-124.5" font-family="Helvetica,sans-Serif" font-size="10.00">abstract_controller.h</text>
</a>
</g>
</g>
<!-- Node2&#45;&gt;Node3 -->
<g id="edge2_Node000002_Node000003" class="edge">
<title>Node2&#45;&gt;Node3</title>
<g id="a_edge2_Node000002_Node000003"><a xlink:title=" ">
<path fill="none" stroke="#63b8ff" d="M522.36,-169.42C498.16,-159.79 465.68,-146.87 444.45,-138.43"/>
<polygon fill="#63b8ff" stroke="#63b8ff" points="520.84,-172.58 531.42,-173.02 523.42,-166.07 520.84,-172.58"/>
</a>
</g>
</g>
<!-- Node4 -->
<g id="Node000004" class="node">
<title>Node4</title>
<g id="a_Node000004"><a xlink:href="centralized__cvt_8h.html" target="_top" xlink:title="Contains the class CentralizedCVT.">
<polygon fill="white" stroke="#666666" points="720,-78.25 631.25,-78.25 631.25,-59.75 720,-59.75 720,-78.25"/>
<text text-anchor="middle" x="675.62" y="-64.75" font-family="Helvetica,sans-Serif" font-size="10.00">centralized_cvt.h</text>
</a>
</g>
</g>
<!-- Node2&#45;&gt;Node4 -->
<g id="edge11_Node000002_Node000004" class="edge">
<title>Node2&#45;&gt;Node4</title>
<g id="a_edge11_Node000002_Node000004"><a xlink:title=" ">
<path fill="none" stroke="#63b8ff" d="M571.91,-166.21C597.93,-142.07 646.27,-97.23 666.42,-78.53"/>
<polygon fill="#63b8ff" stroke="#63b8ff" points="569.78,-163.42 564.83,-172.78 574.54,-168.55 569.78,-163.42"/>
</a>
</g>
</g>
<!-- Node5 -->
<g id="Node000005" class="node">
<title>Node5</title>
<g id="a_Node000005"><a xlink:href="clairvoyant__cvt_8h.html" target="_top" xlink:title="Clairvoyant CVT algorithm.">
<polygon fill="white" stroke="#666666" points="827,-78.25 738.25,-78.25 738.25,-59.75 827,-59.75 827,-78.25"/>
<text text-anchor="middle" x="782.62" y="-64.75" font-family="Helvetica,sans-Serif" font-size="10.00">clairvoyant_cvt.h</text>
</a>
</g>
</g>
<!-- Node2&#45;&gt;Node5 -->
<g id="edge12_Node000002_Node000005" class="edge">
<title>Node2&#45;&gt;Node5</title>
<g id="a_edge12_Node000002_Node000005"><a xlink:title=" ">
<path fill="none" stroke="#63b8ff" d="M582.32,-168.62C629.84,-145.22 725.62,-98.06 765.05,-78.65"/>
<polygon fill="#63b8ff" stroke="#63b8ff" points="580.92,-165.4 573.5,-172.96 584.01,-171.68 580.92,-165.4"/>
</a>
</g>
</g>
<!-- Node6 -->
<g id="Node000006" class="node">
<title>Node6</title>
<g id="a_Node000006"><a xlink:href="coverage__algorithm_8cpp.html" target="_top" xlink:title="Program to test the CVT&#45;based (Lloyd&#39;s) coverage control algorithms.">
<polygon fill="white" stroke="#666666" points="878,-18.5 759.25,-18.5 759.25,0 878,0 878,-18.5"/>
<text text-anchor="middle" x="818.62" y="-5" font-family="Helvetica,sans-Serif" font-size="10.00">coverage_algorithm.cpp</text>
</a>
</g>
</g>
<!-- Node2&#45;&gt;Node6 -->
<g id="edge13_Node000002_Node000006" class="edge">
<title>Node2&#45;&gt;Node6</title>
<g id="a_edge13_Node000002_Node000006"><a xlink:title=" ">
<path fill="none" stroke="#63b8ff" d="M608.26,-171.09C682.06,-154.52 808.86,-121.27 835.62,-83.5 849.81,-63.47 833.99,-33.36 824.59,-18.77"/>
<polygon fill="#63b8ff" stroke="#63b8ff" points="607.82,-167.6 598.82,-173.18 609.34,-174.44 607.82,-167.6"/>
</a>
</g>
</g>
<!-- Node7 -->
<g id="Node000007" class="node">
<title>Node7</title>
<g id="a_Node000007"><a xlink:href="decentralized__cvt_8h.html" target="_top" xlink:title="Contains the DecentralizedCVT class.">
<polygon fill="white" stroke="#666666" points="99.25,-78.25 0,-78.25 0,-59.75 99.25,-59.75 99.25,-78.25"/>
<text text-anchor="middle" x="49.62" y="-64.75" font-family="Helvetica,sans-Serif" font-size="10.00">decentralized_cvt.h</text>
</a>
</g>
</g>
<!-- Node2&#45;&gt;Node7 -->
<g id="edge15_Node000002_Node000007" class="edge">
<title>Node2&#45;&gt;Node7</title>
<g id="a_edge15_Node000002_Node000007"><a xlink:title=" ">
<path fill="none" stroke="#63b8ff" d="M493.48,-174.83C437.06,-167.43 351.14,-154.76 277.62,-138 202.72,-120.92 116.3,-92.76 74.64,-78.64"/>
<polygon fill="#63b8ff" stroke="#63b8ff" points="492.84,-178.28 503.21,-176.09 493.74,-171.34 492.84,-178.28"/>
</a>
</g>
</g>
<!-- Node8 -->
<g id="Node000008" class="node">
<title>Node8</title>
<g id="a_Node000008"><a xlink:href="near__optimal__cvt_8h.html" target="_top" xlink:title="NearOptimalCVT class Global offline oracle: has complete information about the environment....">
<polygon fill="white" stroke="#666666" points="215.5,-78.25 117.75,-78.25 117.75,-59.75 215.5,-59.75 215.5,-78.25"/>
<text text-anchor="middle" x="166.62" y="-64.75" font-family="Helvetica,sans-Serif" font-size="10.00">near_optimal_cvt.h</text>
</a>
</g>
</g>
<!-- Node2&#45;&gt;Node8 -->
<g id="edge16_Node000002_Node000008" class="edge">
<title>Node2&#45;&gt;Node8</title>
<g id="a_edge16_Node000002_Node000008"><a xlink:title=" ">
<path fill="none" stroke="#63b8ff" d="M493.23,-173.27C448.22,-165.9 385.93,-154.07 332.62,-138 277.16,-121.28 214.66,-92.96 184.63,-78.72"/>
<polygon fill="#63b8ff" stroke="#63b8ff" points="492.65,-176.72 503.08,-174.85 493.76,-169.81 492.65,-176.72"/>
</a>
</g>
</g>
<!-- Node9 -->
<g id="Node000009" class="node">
<title>Node9</title>
<g id="a_Node000009"><a xlink:href="oracle__bang__explore__exploit_8h.html" target="_top" xlink:title="First trial of oracle with exploration and exploitation. The oracle uses complete information about t...">
<polygon fill="white" stroke="#666666" points="339.25,-83.5 234,-83.5 234,-54.5 339.25,-54.5 339.25,-83.5"/>
<text text-anchor="start" x="242" y="-70" font-family="Helvetica,sans-Serif" font-size="10.00">oracle_bang_explore</text>
<text text-anchor="middle" x="286.62" y="-59.5" font-family="Helvetica,sans-Serif" font-size="10.00">_exploit.h</text>
</a>
</g>
</g>
<!-- Node2&#45;&gt;Node9 -->
<g id="edge17_Node000002_Node000009" class="edge">
<title>Node2&#45;&gt;Node9</title>
<g id="a_edge17_Node000002_Node000009"><a xlink:title=" ">
<path fill="none" stroke="#63b8ff" d="M493.35,-176.29C453.96,-170.55 402.68,-159.42 361.62,-138 335.45,-124.34 311.33,-99.32 297.84,-83.74"/>
<polygon fill="#63b8ff" stroke="#63b8ff" points="492.76,-179.74 503.14,-177.63 493.71,-172.81 492.76,-179.74"/>
</a>
</g>
</g>
<!-- Node10 -->
<g id="Node000010" class="node">
<title>Node10</title>
<g id="a_Node000010"><a xlink:href="oracle__explore__exploit_8h.html" target="_top" xlink:title="Old trial of exploration and exploitation Uses system map for exploration as well.">
<polygon fill="white" stroke="#666666" points="477.75,-78.25 357.5,-78.25 357.5,-59.75 477.75,-59.75 477.75,-78.25"/>
<text text-anchor="middle" x="417.62" y="-64.75" font-family="Helvetica,sans-Serif" font-size="10.00">oracle_explore_exploit.h</text>
</a>
</g>
</g>
<!-- Node2&#45;&gt;Node10 -->
<g id="edge18_Node000002_Node000010" class="edge">
<title>Node2&#45;&gt;Node10</title>
<g id="a_edge18_Node000002_Node000010"><a xlink:title=" ">
<path fill="none" stroke="#63b8ff" d="M537.36,-166.29C523.18,-153.36 502.46,-134.84 483.62,-119.5 465.19,-104.48 442.91,-88.13 429.53,-78.48"/>
<polygon fill="#63b8ff" stroke="#63b8ff" points="534.79,-168.68 544.52,-172.86 539.52,-163.52 534.79,-168.68"/>
</a>
</g>
</g>
<!-- Node11 -->
<g id="Node000011" class="node">
<title>Node11</title>
<g id="a_Node000011"><a xlink:href="simul__explore__exploit_8h.html" target="_top" xlink:title="Simultaneous exploration and exploitation algorithm Uses frontier&#45;based exploration with bias towards...">
<polygon fill="white" stroke="#666666" points="613.25,-78.25 496,-78.25 496,-59.75 613.25,-59.75 613.25,-78.25"/>
<text text-anchor="middle" x="554.62" y="-64.75" font-family="Helvetica,sans-Serif" font-size="10.00">simul_explore_exploit.h</text>
</a>
</g>
</g>
<!-- Node2&#45;&gt;Node11 -->
<g id="edge19_Node000002_Node000011" class="edge">
<title>Node2&#45;&gt;Node11</title>
<g id="a_edge19_Node000002_Node000011"><a xlink:title=" ">
<path fill="none" stroke="#63b8ff" d="M554.62,-162.6C554.62,-137.83 554.62,-96.34 554.62,-78.53"/>
<polygon fill="#63b8ff" stroke="#63b8ff" points="551.13,-162.3 554.63,-172.3 558.13,-162.3 551.13,-162.3"/>
</a>
</g>
</g>
<!-- Node12 -->
<g id="Node000012" class="node">
<title>Node12</title>
<g id="a_Node000012"><a xlink:href="coverage__system_8cpp.html" target="_top" xlink:title="Contains the implementation of the CoverageSystem class.">
<polygon fill="white" stroke="#666666" points="992.5,-138 882.75,-138 882.75,-119.5 992.5,-119.5 992.5,-138"/>
<text text-anchor="middle" x="937.62" y="-124.5" font-family="Helvetica,sans-Serif" font-size="10.00">coverage_system.cpp</text>
</a>
</g>
</g>
<!-- Node2&#45;&gt;Node12 -->
<g id="edge14_Node000002_Node000012" class="edge">
<title>Node2&#45;&gt;Node12</title>
<g id="a_edge14_Node000002_Node000012"><a xlink:title=" ">
<path fill="none" stroke="#63b8ff" d="M616.06,-173.83C689.57,-163.75 811.56,-147.03 882.27,-137.34"/>
<polygon fill="#63b8ff" stroke="#63b8ff" points="615.63,-170.36 606.2,-175.18 616.58,-177.29 615.63,-170.36"/>
</a>
</g>
</g>
<!-- Node3&#45;&gt;Node4 -->
<g id="edge3_Node000003_Node000004" class="edge">
<title>Node3&#45;&gt;Node4</title>
<g id="a_edge3_Node000003_Node000004"><a xlink:title=" ">
<path fill="none" stroke="#63b8ff" d="M474.89,-116.66C515.3,-107.97 572.61,-95.4 622.62,-83.5 628.91,-82.01 635.59,-80.35 642.02,-78.73"/>
<polygon fill="#63b8ff" stroke="#63b8ff" points="474.22,-113.22 465.18,-118.74 475.69,-120.07 474.22,-113.22"/>
</a>
</g>
</g>
<!-- Node3&#45;&gt;Node5 -->
<g id="edge4_Node000003_Node000005" class="edge">
<title>Node3&#45;&gt;Node5</title>
<g id="a_edge4_Node000003_Node000005"><a xlink:title=" ">
<path fill="none" stroke="#63b8ff" d="M486.33,-120.45C548.45,-112.88 645.45,-99.87 728.62,-83.5 735.55,-82.14 742.91,-80.45 749.9,-78.74"/>
<polygon fill="#63b8ff" stroke="#63b8ff" points="486.16,-116.94 476.65,-121.62 487,-123.89 486.16,-116.94"/>
</a>
</g>
</g>
<!-- Node3&#45;&gt;Node7 -->
<g id="edge6_Node000003_Node000007" class="edge">
<title>Node3&#45;&gt;Node7</title>
<g id="a_edge6_Node000003_Node000007"><a xlink:title=" ">
<path fill="none" stroke="#63b8ff" d="M358.85,-120.37C295.23,-112.64 194.81,-99.4 108.62,-83.5 101.08,-82.11 93.04,-80.41 85.4,-78.7"/>
<polygon fill="#63b8ff" stroke="#63b8ff" points="358.05,-123.8 368.4,-121.53 358.89,-116.85 358.05,-123.8"/>
</a>
</g>
</g>
<!-- Node3&#45;&gt;Node8 -->
<g id="edge7_Node000003_Node000008" class="edge">
<title>Node3&#45;&gt;Node8</title>
<g id="a_edge7_Node000003_Node000008"><a xlink:title=" ">
<path fill="none" stroke="#63b8ff" d="M372.09,-116.58C332.06,-107.71 274.74,-94.93 224.62,-83.5 217.87,-81.96 210.68,-80.3 203.74,-78.69"/>
<polygon fill="#63b8ff" stroke="#63b8ff" points="371.16,-119.96 381.68,-118.71 372.67,-113.13 371.16,-119.96"/>
</a>
</g>
</g>
<!-- Node3&#45;&gt;Node9 -->
<g id="edge8_Node000003_Node000009" class="edge">
<title>Node3&#45;&gt;Node9</title>
<g id="a_edge8_Node000003_Node000009"><a xlink:title=" ">
<path fill="none" stroke="#63b8ff" d="M391.73,-114.63C370.2,-105.49 341.52,-93.31 319.55,-83.98"/>
<polygon fill="#63b8ff" stroke="#63b8ff" points="390.3,-117.83 400.87,-118.51 393.03,-111.38 390.3,-117.83"/>
</a>
</g>
</g>
<!-- Node3&#45;&gt;Node10 -->
<g id="edge9_Node000003_Node000010" class="edge">
<title>Node3&#45;&gt;Node10</title>
<g id="a_edge9_Node000003_Node000010"><a xlink:title=" ">
<path fill="none" stroke="#63b8ff" d="M420.9,-107.83C420.03,-97.83 419.03,-86.25 418.37,-78.56"/>
<polygon fill="#63b8ff" stroke="#63b8ff" points="417.41,-108.06 421.76,-117.72 424.38,-107.46 417.41,-108.06"/>
</a>
</g>
</g>
<!-- Node3&#45;&gt;Node11 -->
<g id="edge10_Node000003_Node000011" class="edge">
<title>Node3&#45;&gt;Node11</title>
<g id="a_edge10_Node000003_Node000011"><a xlink:title=" ">
<path fill="none" stroke="#63b8ff" d="M452.81,-114.54C477.94,-103.55 513,-88.21 534.73,-78.7"/>
<polygon fill="#63b8ff" stroke="#63b8ff" points="451.53,-111.28 443.77,-118.5 454.34,-117.7 451.53,-111.28"/>
</a>
</g>
</g>
<!-- Node5&#45;&gt;Node6 -->
<g id="edge5_Node000005_Node000006" class="edge">
<title>Node5&#45;&gt;Node6</title>
<g id="a_edge5_Node000005_Node000006"><a xlink:title=" ">
<path fill="none" stroke="#63b8ff" d="M794.01,-49.73C800.47,-39.38 808.23,-26.92 813.29,-18.81"/>
<polygon fill="#63b8ff" stroke="#63b8ff" points="791.06,-47.86 788.74,-58.19 797,-51.56 791.06,-47.86"/>
</a>
</g>
</g>
<!-- Node13&#45;&gt;Node2 -->
<g id="edge22_Node000013_Node000002" class="edge">
<title>Node13&#45;&gt;Node2</title>
<g id="a_edge22_Node000013_Node000002"><a xlink:title=" ">
<path fill="none" stroke="#63b8ff" d="M647.7,-223.66C625.03,-214.06 594.89,-201.3 575.13,-192.93"/>
<polygon fill="#63b8ff" stroke="#63b8ff" points="646.18,-226.81 656.76,-227.49 648.91,-220.37 646.18,-226.81"/>
</a>
</g>
</g>
<!-- Node13&#45;&gt;Node12 -->
<g id="edge21_Node000013_Node000012" class="edge">
<title>Node13&#45;&gt;Node12</title>
<g id="a_edge21_Node000013_Node000012"><a xlink:title=" ">
<path fill="none" stroke="#63b8ff" d="M709.95,-223.81C763.54,-201.67 871.4,-157.11 916.77,-138.37"/>
<polygon fill="#63b8ff" stroke="#63b8ff" points="708.69,-220.54 700.78,-227.6 711.36,-227.01 708.69,-220.54"/>
</a>
</g>
</g>
<!-- Node14 -->
<g id="Node000014" class="node">
<title>Node14</title>
<g id="a_Node000014"><a xlink:href="plotter_8cpp.html" target="_top" xlink:title="Helper function to plot maps.">
<polygon fill="white" stroke="#666666" points="709.5,-192.5 647.75,-192.5 647.75,-174 709.5,-174 709.5,-192.5"/>
<text text-anchor="middle" x="678.62" y="-179" font-family="Helvetica,sans-Serif" font-size="10.00">plotter.cpp</text>
</a>
</g>
</g>
<!-- Node13&#45;&gt;Node14 -->
<g id="edge23_Node000013_Node000014" class="edge">
<title>Node13&#45;&gt;Node14</title>
<g id="a_edge23_Node000013_Node000014"><a xlink:title=" ">
<path fill="none" stroke="#63b8ff" d="M678.62,-216.64C678.62,-208.36 678.62,-199.21 678.62,-192.76"/>
<polygon fill="#63b8ff" stroke="#63b8ff" points="675.13,-216.57 678.63,-226.57 682.13,-216.57 675.13,-216.57"/>
</a>
</g>
</g>
<!-- Node15&#45;&gt;Node2 -->
<g id="edge25_Node000015_Node000002" class="edge">
<title>Node15&#45;&gt;Node2</title>
<g id="a_edge25_Node000015_Node000002"><a xlink:title=" ">
<path fill="none" stroke="#63b8ff" d="M582.61,-219.23C575.48,-210.32 567.14,-199.9 561.43,-192.76"/>
<polygon fill="#63b8ff" stroke="#63b8ff" points="579.76,-221.28 588.74,-226.9 585.23,-216.9 579.76,-221.28"/>
</a>
</g>
</g>
</g>
</svg>
