<?xml version="1.0" encoding="UTF-8" standalone="no"?>
<!DOCTYPE svg PUBLIC "-//W3C//DTD SVG 1.1//EN"
 "http://www.w3.org/Graphics/SVG/1.1/DTD/svg11.dtd">
<!-- Generated by graphviz version 10.0.1 (0)
 -->
<!-- Title: voronoi.h Pages: 1 -->
<svg width="1079pt" height="364pt"
 viewBox="0.00 0.00 1079.02 364.00" xmlns="http://www.w3.org/2000/svg" xmlns:xlink="http://www.w3.org/1999/xlink">
<g id="graph0" class="graph" transform="scale(1 1) rotate(0) translate(4 360)">
<title>voronoi.h</title>
<!-- Node1 -->
<g id="Node000001" class="node">
<title>Node1</title>
<g id="a_Node000001"><a xlink:title="Class for computing Voronoi cells.">
<polygon fill="#999999" stroke="#666666" points="935.77,-356 880.77,-356 880.77,-337.5 935.77,-337.5 935.77,-356"/>
<text text-anchor="middle" x="908.27" y="-342.5" font-family="Helvetica,sans-Serif" font-size="10.00">voronoi.h</text>
</a>
</g>
</g>
<!-- Node2 -->
<g id="Node000002" class="node">
<title>Node2</title>
<g id="a_Node000002"><a xlink:href="core__binds_8h.html" target="_top" xlink:title="Provides python bindings for the core CoverageControl library using pybind11.">
<polygon fill="white" stroke="#666666" points="582.02,-73 510.52,-73 510.52,-54.5 582.02,-54.5 582.02,-73"/>
<text text-anchor="middle" x="546.27" y="-59.5" font-family="Helvetica,sans-Serif" font-size="10.00">core_binds.h</text>
</a>
</g>
</g>
<!-- Node1&#45;&gt;Node2 -->
<g id="edge1_Node000001_Node000002" class="edge">
<title>Node1&#45;&gt;Node2</title>
<g id="a_edge1_Node000001_Node000002"><a xlink:title=" ">
<path fill="none" stroke="#63b8ff" d="M929.34,-330.32C938.69,-322.57 949.15,-312.49 956.27,-301.5 972.25,-276.81 977.27,-268.16 977.27,-238.75 977.27,-238.75 977.27,-238.75 977.27,-182.25 977.27,-142.33 959.62,-129.35 925.27,-109 867.77,-74.94 665.51,-67.08 582.37,-65.28"/>
<polygon fill="#63b8ff" stroke="#63b8ff" points="927.42,-327.38 921.73,-336.32 931.75,-332.88 927.42,-327.38"/>
</a>
</g>
</g>
<!-- Node4 -->
<g id="Node000004" class="node">
<title>Node4</title>
<g id="a_Node000004"><a xlink:href="coverage__system_8h.html" target="_top" xlink:title="The file contains the CoverageSystem class, which is the main class for the coverage control library.">
<polygon fill="white" stroke="#666666" points="635.89,-247 536.64,-247 536.64,-228.5 635.89,-228.5 635.89,-247"/>
<text text-anchor="middle" x="586.27" y="-233.5" font-family="Helvetica,sans-Serif" font-size="10.00">coverage_system.h</text>
</a>
</g>
</g>
<!-- Node1&#45;&gt;Node4 -->
<g id="edge3_Node000001_Node000004" class="edge">
<title>Node1&#45;&gt;Node4</title>
<g id="a_edge3_Node000001_Node000004"><a xlink:title=" ">
<path fill="none" stroke="#63b8ff" d="M871.53,-333.54C805.85,-311.72 669.85,-266.52 612.59,-247.5"/>
<polygon fill="#63b8ff" stroke="#63b8ff" points="870.16,-336.78 880.75,-336.61 872.37,-330.13 870.16,-336.78"/>
</a>
</g>
</g>
<!-- Node15 -->
<g id="Node000015" class="node">
<title>Node15</title>
<g id="a_Node000015"><a xlink:href="plotter_8h.html" target="_top" xlink:title="Class to plot the map.">
<polygon fill="white" stroke="#666666" points="848.89,-301.5 797.64,-301.5 797.64,-283 848.89,-283 848.89,-301.5"/>
<text text-anchor="middle" x="823.27" y="-288" font-family="Helvetica,sans-Serif" font-size="10.00">plotter.h</text>
</a>
</g>
</g>
<!-- Node1&#45;&gt;Node15 -->
<g id="edge31_Node000001_Node000015" class="edge">
<title>Node1&#45;&gt;Node15</title>
<g id="a_edge31_Node000001_Node000015"><a xlink:title=" ">
<path fill="none" stroke="#63b8ff" d="M884.48,-331.06C869.3,-321.68 850.13,-309.84 837.32,-301.93"/>
<polygon fill="#63b8ff" stroke="#63b8ff" points="882.6,-334.01 892.94,-336.29 886.27,-328.05 882.6,-334.01"/>
</a>
</g>
</g>
<!-- Node17 -->
<g id="Node000017" class="node">
<title>Node17</title>
<g id="a_Node000017"><a xlink:href="robot__model_8h.html" target="_top" xlink:title="Class for handling the robot model.">
<polygon fill="white" stroke="#666666" points="947.02,-301.5 869.52,-301.5 869.52,-283 947.02,-283 947.02,-301.5"/>
<text text-anchor="middle" x="908.27" y="-288" font-family="Helvetica,sans-Serif" font-size="10.00">robot_model.h</text>
</a>
</g>
</g>
<!-- Node1&#45;&gt;Node17 -->
<g id="edge35_Node000001_Node000017" class="edge">
<title>Node1&#45;&gt;Node17</title>
<g id="a_edge35_Node000001_Node000017"><a xlink:title=" ">
<path fill="none" stroke="#63b8ff" d="M908.27,-325.64C908.27,-317.36 908.27,-308.21 908.27,-301.76"/>
<polygon fill="#63b8ff" stroke="#63b8ff" points="904.77,-325.57 908.27,-335.57 911.77,-325.57 904.77,-325.57"/>
</a>
</g>
</g>
<!-- Node18 -->
<g id="Node000018" class="node">
<title>Node18</title>
<g id="a_Node000018"><a xlink:href="voronoi_8cpp.html" target="_top" xlink:title="Functions to compute Centroidal Voronoi Tessellation.">
<polygon fill="white" stroke="#666666" points="1071.02,-301.5 1005.52,-301.5 1005.52,-283 1071.02,-283 1071.02,-301.5"/>
<text text-anchor="middle" x="1038.27" y="-288" font-family="Helvetica,sans-Serif" font-size="10.00">voronoi.cpp</text>
</a>
</g>
</g>
<!-- Node1&#45;&gt;Node18 -->
<g id="edge38_Node000001_Node000018" class="edge">
<title>Node1&#45;&gt;Node18</title>
<g id="a_edge38_Node000001_Node000018"><a xlink:title=" ">
<path fill="none" stroke="#63b8ff" d="M940.37,-332.79C964.17,-323.17 995.96,-310.33 1016.77,-301.93"/>
<polygon fill="#63b8ff" stroke="#63b8ff" points="939.1,-329.52 931.14,-336.51 941.72,-336.01 939.1,-329.52"/>
</a>
</g>
</g>
<!-- Node3 -->
<g id="Node000003" class="node">
<title>Node3</title>
<g id="a_Node000003"><a xlink:href="python__binds_8cpp.html" target="_top" xlink:title="Python bindings for the CoverageControl library using pybind11 (core_binds.h)">
<polygon fill="white" stroke="#666666" points="309.52,-18.5 217.02,-18.5 217.02,0 309.52,0 309.52,-18.5"/>
<text text-anchor="middle" x="263.27" y="-5" font-family="Helvetica,sans-Serif" font-size="10.00">python_binds.cpp</text>
</a>
</g>
</g>
<!-- Node2&#45;&gt;Node3 -->
<g id="edge2_Node000002_Node000003" class="edge">
<title>Node2&#45;&gt;Node3</title>
<g id="a_edge2_Node000002_Node000003"><a xlink:title=" ">
<path fill="none" stroke="#63b8ff" d="M499.12,-54C446.63,-44.27 362.31,-28.62 309.99,-18.92"/>
<polygon fill="#63b8ff" stroke="#63b8ff" points="498.18,-57.39 508.65,-55.77 499.46,-50.51 498.18,-57.39"/>
</a>
</g>
</g>
<!-- Node4&#45;&gt;Node2 -->
<g id="edge22_Node000004_Node000002" class="edge">
<title>Node4&#45;&gt;Node2</title>
<g id="a_edge22_Node000004_Node000002"><a xlink:title=" ">
<path fill="none" stroke="#63b8ff" d="M626.31,-224.75C705.35,-200.86 874.51,-148.76 882.27,-138 889.8,-127.54 890.77,-118.69 882.27,-109 862.7,-86.69 665.29,-72.06 582.5,-66.86"/>
<polygon fill="#63b8ff" stroke="#63b8ff" points="625.34,-221.38 616.78,-227.62 627.36,-228.08 625.34,-221.38"/>
</a>
</g>
</g>
<!-- Node4&#45;&gt;Node3 -->
<g id="edge29_Node000004_Node000003" class="edge">
<title>Node4&#45;&gt;Node3</title>
<g id="a_edge29_Node000004_Node000003"><a xlink:title=" ">
<path fill="none" stroke="#63b8ff" d="M524.76,-236.2C409.31,-234.37 164.89,-226.46 88.27,-192.5 55.63,-178.04 47.85,-168.48 29.27,-138 9.5,-105.59 -13.15,-83.57 11.27,-54.5 36.97,-23.88 151.12,-14.45 216.62,-11.54"/>
<polygon fill="#63b8ff" stroke="#63b8ff" points="524.62,-239.7 534.67,-236.35 524.72,-232.7 524.62,-239.7"/>
</a>
</g>
</g>
<!-- Node5 -->
<g id="Node000005" class="node">
<title>Node5</title>
<g id="a_Node000005"><a xlink:href="abstract__controller_8h.html" target="_top" xlink:title="Contains the abstract class for coverage control algorithms.">
<polygon fill="white" stroke="#666666" points="558.52,-192.5 454.02,-192.5 454.02,-174 558.52,-174 558.52,-192.5"/>
<text text-anchor="middle" x="506.27" y="-179" font-family="Helvetica,sans-Serif" font-size="10.00">abstract_controller.h</text>
</a>
</g>
</g>
<!-- Node4&#45;&gt;Node5 -->
<g id="edge4_Node000004_Node000005" class="edge">
<title>Node4&#45;&gt;Node5</title>
<g id="a_edge4_Node000004_Node000005"><a xlink:title=" ">
<path fill="none" stroke="#63b8ff" d="M563.47,-221.79C549.24,-212.45 531.43,-200.76 519.5,-192.93"/>
<polygon fill="#63b8ff" stroke="#63b8ff" points="561.51,-224.69 571.79,-227.25 565.35,-218.84 561.51,-224.69"/>
</a>
</g>
</g>
<!-- Node6 -->
<g id="Node000006" class="node">
<title>Node6</title>
<g id="a_Node000006"><a xlink:href="centralized__cvt_8h.html" target="_top" xlink:title="Contains the class CentralizedCVT.">
<polygon fill="white" stroke="#666666" points="241.64,-132.75 152.89,-132.75 152.89,-114.25 241.64,-114.25 241.64,-132.75"/>
<text text-anchor="middle" x="197.27" y="-119.25" font-family="Helvetica,sans-Serif" font-size="10.00">centralized_cvt.h</text>
</a>
</g>
</g>
<!-- Node4&#45;&gt;Node6 -->
<g id="edge20_Node000004_Node000006" class="edge">
<title>Node4&#45;&gt;Node6</title>
<g id="a_edge20_Node000004_Node000006"><a xlink:title=" ">
<path fill="none" stroke="#63b8ff" d="M528.82,-225.73C489.28,-217.69 435.71,-205.89 389.27,-192.5 326.58,-174.43 254.52,-147.08 219.16,-133.22"/>
<polygon fill="#63b8ff" stroke="#63b8ff" points="528.12,-229.16 538.61,-227.7 529.5,-222.3 528.12,-229.16"/>
</a>
</g>
</g>
<!-- Node7 -->
<g id="Node000007" class="node">
<title>Node7</title>
<g id="a_Node000007"><a xlink:href="clairvoyant__cvt_8h.html" target="_top" xlink:title="Clairvoyant CVT algorithm.">
<polygon fill="white" stroke="#666666" points="134.64,-132.75 45.89,-132.75 45.89,-114.25 134.64,-114.25 134.64,-132.75"/>
<text text-anchor="middle" x="90.27" y="-119.25" font-family="Helvetica,sans-Serif" font-size="10.00">clairvoyant_cvt.h</text>
</a>
</g>
</g>
<!-- Node4&#45;&gt;Node7 -->
<g id="edge21_Node000004_Node000007" class="edge">
<title>Node4&#45;&gt;Node7</title>
<g id="a_edge21_Node000004_Node000007"><a xlink:title=" ">
<path fill="none" stroke="#63b8ff" d="M525.11,-228.25C472.39,-220.45 394.39,-207.81 327.27,-192.5 250.06,-174.88 160.67,-147.22 117.03,-133.23"/>
<polygon fill="#63b8ff" stroke="#63b8ff" points="524.39,-231.68 534.8,-229.66 525.41,-224.75 524.39,-231.68"/>
</a>
</g>
</g>
<!-- Node8 -->
<g id="Node000008" class="node">
<title>Node8</title>
<g id="a_Node000008"><a xlink:href="coverage__algorithm_8cpp.html" target="_top" xlink:title="Program to test the CVT&#45;based (Lloyd&#39;s) coverage control algorithms.">
<polygon fill="white" stroke="#666666" points="138.64,-73 19.89,-73 19.89,-54.5 138.64,-54.5 138.64,-73"/>
<text text-anchor="middle" x="79.27" y="-59.5" font-family="Helvetica,sans-Serif" font-size="10.00">coverage_algorithm.cpp</text>
</a>
</g>
</g>
<!-- Node4&#45;&gt;Node8 -->
<g id="edge23_Node000004_Node000008" class="edge">
<title>Node4&#45;&gt;Node8</title>
<g id="a_edge23_Node000004_Node000008"><a xlink:title=" ">
<path fill="none" stroke="#63b8ff" d="M525.04,-235.54C394.59,-231.51 96.33,-213.98 37.27,-138 20.53,-116.47 50.29,-87.56 67.81,-73.36"/>
<polygon fill="#63b8ff" stroke="#63b8ff" points="524.77,-239.04 534.87,-235.83 524.98,-232.04 524.77,-239.04"/>
</a>
</g>
</g>
<!-- Node9 -->
<g id="Node000009" class="node">
<title>Node9</title>
<g id="a_Node000009"><a xlink:href="decentralized__cvt_8h.html" target="_top" xlink:title="Contains the DecentralizedCVT class.">
<polygon fill="white" stroke="#666666" points="358.89,-132.75 259.64,-132.75 259.64,-114.25 358.89,-114.25 358.89,-132.75"/>
<text text-anchor="middle" x="309.27" y="-119.25" font-family="Helvetica,sans-Serif" font-size="10.00">decentralized_cvt.h</text>
</a>
</g>
</g>
<!-- Node4&#45;&gt;Node9 -->
<g id="edge25_Node000004_Node000009" class="edge">
<title>Node4&#45;&gt;Node9</title>
<g id="a_edge25_Node000004_Node000009"><a xlink:title=" ">
<path fill="none" stroke="#63b8ff" d="M534.67,-225.36C503.78,-217.75 464.07,-206.56 430.27,-192.5 388.88,-175.29 343.76,-147.19 322.18,-133.11"/>
<polygon fill="#63b8ff" stroke="#63b8ff" points="533.62,-228.71 544.16,-227.65 535.26,-221.9 533.62,-228.71"/>
</a>
</g>
</g>
<!-- Node10 -->
<g id="Node000010" class="node">
<title>Node10</title>
<g id="a_Node000010"><a xlink:href="near__optimal__cvt_8h.html" target="_top" xlink:title="NearOptimalCVT class Global offline oracle: has complete information about the environment....">
<polygon fill="white" stroke="#666666" points="475.14,-132.75 377.39,-132.75 377.39,-114.25 475.14,-114.25 475.14,-132.75"/>
<text text-anchor="middle" x="426.27" y="-119.25" font-family="Helvetica,sans-Serif" font-size="10.00">near_optimal_cvt.h</text>
</a>
</g>
</g>
<!-- Node4&#45;&gt;Node10 -->
<g id="edge26_Node000004_Node000010" class="edge">
<title>Node4&#45;&gt;Node10</title>
<g id="a_edge26_Node000004_Node000010"><a xlink:title=" ">
<path fill="none" stroke="#63b8ff" d="M525.1,-230.83C497.35,-225.13 466.14,-214.04 445.27,-192.5 429.23,-175.95 426.5,-147.03 426.18,-132.84"/>
<polygon fill="#63b8ff" stroke="#63b8ff" points="524.38,-234.26 534.85,-232.62 525.65,-227.37 524.38,-234.26"/>
</a>
</g>
</g>
<!-- Node11 -->
<g id="Node000011" class="node">
<title>Node11</title>
<g id="a_Node000011"><a xlink:href="oracle__bang__explore__exploit_8h.html" target="_top" xlink:title="First trial of oracle with exploration and exploitation. The oracle uses complete information about t...">
<polygon fill="white" stroke="#666666" points="598.89,-138 493.64,-138 493.64,-109 598.89,-109 598.89,-138"/>
<text text-anchor="start" x="501.64" y="-124.5" font-family="Helvetica,sans-Serif" font-size="10.00">oracle_bang_explore</text>
<text text-anchor="middle" x="546.27" y="-114" font-family="Helvetica,sans-Serif" font-size="10.00">_exploit.h</text>
</a>
</g>
</g>
<!-- Node4&#45;&gt;Node11 -->
<g id="edge27_Node000004_Node000011" class="edge">
<title>Node4&#45;&gt;Node11</title>
<g id="a_edge27_Node000004_Node000011"><a xlink:title=" ">
<path fill="none" stroke="#63b8ff" d="M580.94,-217.21C577.39,-204.74 572.44,-188.29 567.27,-174 562.81,-161.71 556.95,-148.06 552.55,-138.21"/>
<polygon fill="#63b8ff" stroke="#63b8ff" points="577.51,-217.97 583.57,-226.67 584.26,-216.1 577.51,-217.97"/>
</a>
</g>
</g>
<!-- Node12 -->
<g id="Node000012" class="node">
<title>Node12</title>
<g id="a_Node000012"><a xlink:href="oracle__explore__exploit_8h.html" target="_top" xlink:title="Old trial of exploration and exploitation Uses system map for exploration as well.">
<polygon fill="white" stroke="#666666" points="737.39,-132.75 617.14,-132.75 617.14,-114.25 737.39,-114.25 737.39,-132.75"/>
<text text-anchor="middle" x="677.27" y="-119.25" font-family="Helvetica,sans-Serif" font-size="10.00">oracle_explore_exploit.h</text>
</a>
</g>
</g>
<!-- Node4&#45;&gt;Node12 -->
<g id="edge28_Node000004_Node000012" class="edge">
<title>Node4&#45;&gt;Node12</title>
<g id="a_edge28_Node000004_Node000012"><a xlink:title=" ">
<path fill="none" stroke="#63b8ff" d="M600.31,-219.43C620.1,-195.02 655.45,-151.41 670.35,-133.03"/>
<polygon fill="#63b8ff" stroke="#63b8ff" points="597.64,-217.17 594.06,-227.14 603.08,-221.57 597.64,-217.17"/>
</a>
</g>
</g>
<!-- Node13 -->
<g id="Node000013" class="node">
<title>Node13</title>
<g id="a_Node000013"><a xlink:href="simul__explore__exploit_8h.html" target="_top" xlink:title="Simultaneous exploration and exploitation algorithm Uses frontier&#45;based exploration with bias towards...">
<polygon fill="white" stroke="#666666" points="872.89,-132.75 755.64,-132.75 755.64,-114.25 872.89,-114.25 872.89,-132.75"/>
<text text-anchor="middle" x="814.27" y="-119.25" font-family="Helvetica,sans-Serif" font-size="10.00">simul_explore_exploit.h</text>
</a>
</g>
</g>
<!-- Node4&#45;&gt;Node13 -->
<g id="edge30_Node000004_Node000013" class="edge">
<title>Node4&#45;&gt;Node13</title>
<g id="a_edge30_Node000004_Node000013"><a xlink:title=" ">
<path fill="none" stroke="#63b8ff" d="M613.96,-223.12C661.48,-199.72 757.27,-152.56 796.7,-133.15"/>
<polygon fill="#63b8ff" stroke="#63b8ff" points="612.56,-219.9 605.14,-227.46 615.65,-226.18 612.56,-219.9"/>
</a>
</g>
</g>
<!-- Node14 -->
<g id="Node000014" class="node">
<title>Node14</title>
<g id="a_Node000014"><a xlink:href="coverage__system_8cpp.html" target="_top" xlink:title="Contains the implementation of the CoverageSystem class.">
<polygon fill="white" stroke="#666666" points="911.14,-192.5 801.39,-192.5 801.39,-174 911.14,-174 911.14,-192.5"/>
<text text-anchor="middle" x="856.27" y="-179" font-family="Helvetica,sans-Serif" font-size="10.00">coverage_system.cpp</text>
</a>
</g>
</g>
<!-- Node4&#45;&gt;Node14 -->
<g id="edge24_Node000004_Node000014" class="edge">
<title>Node4&#45;&gt;Node14</title>
<g id="a_edge24_Node000004_Node000014"><a xlink:title=" ">
<path fill="none" stroke="#63b8ff" d="M642.43,-225.83C692.52,-216.09 764.91,-202.01 811.27,-193"/>
<polygon fill="#63b8ff" stroke="#63b8ff" points="641.79,-222.39 632.64,-227.73 643.13,-229.26 641.79,-222.39"/>
</a>
</g>
</g>
<!-- Node5&#45;&gt;Node6 -->
<g id="edge5_Node000005_Node000006" class="edge">
<title>Node5&#45;&gt;Node6</title>
<g id="a_edge5_Node000005_Node000006"><a xlink:title=" ">
<path fill="none" stroke="#63b8ff" d="M442.53,-172.65C390.57,-164.49 315.4,-151.9 250.27,-138 243.58,-136.57 236.46,-134.88 229.69,-133.19"/>
<polygon fill="#63b8ff" stroke="#63b8ff" points="441.66,-176.06 452.08,-174.14 442.74,-169.14 441.66,-176.06"/>
</a>
</g>
</g>
<!-- Node5&#45;&gt;Node7 -->
<g id="edge7_Node000005_Node000007" class="edge">
<title>Node5&#45;&gt;Node7</title>
<g id="a_edge7_Node000005_Node000007"><a xlink:title=" ">
<path fill="none" stroke="#63b8ff" d="M442.59,-176.86C370,-170.17 247.98,-157.23 144.27,-138 137.14,-136.68 129.56,-134.97 122.39,-133.22"/>
<polygon fill="#63b8ff" stroke="#63b8ff" points="442.02,-180.33 452.3,-177.75 442.66,-173.35 442.02,-180.33"/>
</a>
</g>
</g>
<!-- Node5&#45;&gt;Node9 -->
<g id="edge10_Node000005_Node000009" class="edge">
<title>Node5&#45;&gt;Node9</title>
<g id="a_edge10_Node000005_Node000009"><a xlink:title=" ">
<path fill="none" stroke="#63b8ff" d="M466.17,-170.49C428.45,-159.44 372.85,-143.14 338.96,-133.2"/>
<polygon fill="#63b8ff" stroke="#63b8ff" points="464.74,-173.72 475.32,-173.18 466.71,-167.01 464.74,-173.72"/>
</a>
</g>
</g>
<!-- Node5&#45;&gt;Node10 -->
<g id="edge12_Node000005_Node000010" class="edge">
<title>Node5&#45;&gt;Node10</title>
<g id="a_edge12_Node000005_Node000010"><a xlink:title=" ">
<path fill="none" stroke="#63b8ff" d="M485.43,-167.21C470.48,-156.41 450.84,-142.24 438.38,-133.25"/>
<polygon fill="#63b8ff" stroke="#63b8ff" points="483.08,-169.83 493.24,-172.84 487.18,-164.15 483.08,-169.83"/>
</a>
</g>
</g>
<!-- Node5&#45;&gt;Node11 -->
<g id="edge14_Node000005_Node000011" class="edge">
<title>Node5&#45;&gt;Node11</title>
<g id="a_edge14_Node000005_Node000011"><a xlink:title=" ">
<path fill="none" stroke="#63b8ff" d="M518.58,-164.48C524.38,-156.1 531.2,-146.26 536.62,-138.43"/>
<polygon fill="#63b8ff" stroke="#63b8ff" points="515.85,-162.27 513.03,-172.48 521.6,-166.26 515.85,-162.27"/>
</a>
</g>
</g>
<!-- Node5&#45;&gt;Node12 -->
<g id="edge16_Node000005_Node000012" class="edge">
<title>Node5&#45;&gt;Node12</title>
<g id="a_edge16_Node000005_Node000012"><a xlink:title=" ">
<path fill="none" stroke="#63b8ff" d="M542.35,-170.06C575.06,-159.02 622.45,-143.01 651.49,-133.2"/>
<polygon fill="#63b8ff" stroke="#63b8ff" points="541.66,-166.6 533.3,-173.12 543.9,-173.24 541.66,-166.6"/>
</a>
</g>
</g>
<!-- Node5&#45;&gt;Node13 -->
<g id="edge18_Node000005_Node000013" class="edge">
<title>Node5&#45;&gt;Node13</title>
<g id="a_edge18_Node000005_Node000013"><a xlink:title=" ">
<path fill="none" stroke="#63b8ff" d="M565.82,-171.5C614.41,-162.68 684.82,-149.76 746.27,-138 754.19,-136.48 762.62,-134.84 770.75,-133.23"/>
<polygon fill="#63b8ff" stroke="#63b8ff" points="565.27,-168.04 556.06,-173.27 566.52,-174.93 565.27,-168.04"/>
</a>
</g>
</g>
<!-- Node6&#45;&gt;Node2 -->
<g id="edge6_Node000006_Node000002" class="edge">
<title>Node6&#45;&gt;Node2</title>
<g id="a_edge6_Node000006_Node000002"><a xlink:title=" ">
<path fill="none" stroke="#63b8ff" d="M240.51,-111.1C243.8,-110.35 247.08,-109.64 250.27,-109 343.22,-90.26 454.08,-75.75 510.07,-68.96"/>
<polygon fill="#63b8ff" stroke="#63b8ff" points="239.76,-107.68 230.85,-113.41 241.39,-114.49 239.76,-107.68"/>
</a>
</g>
</g>
<!-- Node7&#45;&gt;Node2 -->
<g id="edge8_Node000007_Node000002" class="edge">
<title>Node7&#45;&gt;Node2</title>
<g id="a_edge8_Node000007_Node000002"><a xlink:title=" ">
<path fill="none" stroke="#63b8ff" d="M133.19,-111.21C136.92,-110.4 140.65,-109.65 144.27,-109 278.17,-85.01 439.65,-71.98 510.27,-67.07"/>
<polygon fill="#63b8ff" stroke="#63b8ff" points="132.52,-107.78 123.57,-113.44 134.1,-114.59 132.52,-107.78"/>
</a>
</g>
</g>
<!-- Node7&#45;&gt;Node8 -->
<g id="edge9_Node000007_Node000008" class="edge">
<title>Node7&#45;&gt;Node8</title>
<g id="a_edge9_Node000007_Node000008"><a xlink:title=" ">
<path fill="none" stroke="#63b8ff" d="M86.54,-102.91C84.62,-92.84 82.38,-81.08 80.9,-73.31"/>
<polygon fill="#63b8ff" stroke="#63b8ff" points="83.05,-103.32 88.36,-112.49 89.93,-102.01 83.05,-103.32"/>
</a>
</g>
</g>
<!-- Node9&#45;&gt;Node2 -->
<g id="edge11_Node000009_Node000002" class="edge">
<title>Node9&#45;&gt;Node2</title>
<g id="a_edge11_Node000009_Node000002"><a xlink:title=" ">
<path fill="none" stroke="#63b8ff" d="M356.04,-111.1C401.46,-100.04 469.42,-83.47 510.63,-73.43"/>
<polygon fill="#63b8ff" stroke="#63b8ff" points="355.36,-107.67 346.48,-113.43 357.02,-114.47 355.36,-107.67"/>
</a>
</g>
</g>
<!-- Node10&#45;&gt;Node2 -->
<g id="edge13_Node000010_Node000002" class="edge">
<title>Node10&#45;&gt;Node2</title>
<g id="a_edge13_Node000010_Node000002"><a xlink:title=" ">
<path fill="none" stroke="#63b8ff" d="M454.33,-109C477.12,-98.03 508.6,-82.88 528.18,-73.45"/>
<polygon fill="#63b8ff" stroke="#63b8ff" points="453.09,-105.71 445.6,-113.2 456.12,-112.02 453.09,-105.71"/>
</a>
</g>
</g>
<!-- Node11&#45;&gt;Node2 -->
<g id="edge15_Node000011_Node000002" class="edge">
<title>Node11&#45;&gt;Node2</title>
<g id="a_edge15_Node000011_Node000002"><a xlink:title=" ">
<path fill="none" stroke="#63b8ff" d="M546.27,-97.1C546.27,-88.61 546.27,-79.71 546.27,-73.4"/>
<polygon fill="#63b8ff" stroke="#63b8ff" points="542.77,-97.01 546.27,-107.01 549.77,-97.01 542.77,-97.01"/>
</a>
</g>
</g>
<!-- Node12&#45;&gt;Node2 -->
<g id="edge17_Node000012_Node000002" class="edge">
<title>Node12&#45;&gt;Node2</title>
<g id="a_edge17_Node000012_Node000002"><a xlink:title=" ">
<path fill="none" stroke="#63b8ff" d="M647.31,-109.29C622.37,-98.3 587.58,-82.96 566.01,-73.45"/>
<polygon fill="#63b8ff" stroke="#63b8ff" points="645.71,-112.41 656.27,-113.24 648.53,-106.01 645.71,-112.41"/>
</a>
</g>
</g>
<!-- Node13&#45;&gt;Node2 -->
<g id="edge19_Node000013_Node000002" class="edge">
<title>Node13&#45;&gt;Node2</title>
<g id="a_edge19_Node000013_Node000002"><a xlink:title=" ">
<path fill="none" stroke="#63b8ff" d="M762.68,-111.38C709.72,-99.97 628.7,-82.51 582.28,-72.51"/>
<polygon fill="#63b8ff" stroke="#63b8ff" points="761.86,-114.79 772.38,-113.47 763.34,-107.94 761.86,-114.79"/>
</a>
</g>
</g>
<!-- Node15&#45;&gt;Node4 -->
<g id="edge33_Node000015_Node000004" class="edge">
<title>Node15&#45;&gt;Node4</title>
<g id="a_edge33_Node000015_Node000004"><a xlink:title=" ">
<path fill="none" stroke="#63b8ff" d="M786.46,-283.1C742.74,-273.41 670.1,-257.32 625.38,-247.41"/>
<polygon fill="#63b8ff" stroke="#63b8ff" points="785.45,-286.46 795.98,-285.2 786.97,-279.62 785.45,-286.46"/>
</a>
</g>
</g>
<!-- Node15&#45;&gt;Node14 -->
<g id="edge32_Node000015_Node000014" class="edge">
<title>Node15&#45;&gt;Node14</title>
<g id="a_edge32_Node000015_Node000014"><a xlink:title=" ">
<path fill="none" stroke="#63b8ff" d="M828.1,-271.77C831.3,-259.32 835.73,-242.87 840.27,-228.5 844.2,-216.04 849.47,-201.87 852.86,-192.99"/>
<polygon fill="#63b8ff" stroke="#63b8ff" points="824.78,-270.64 825.73,-281.19 831.57,-272.35 824.78,-270.64"/>
</a>
</g>
</g>
<!-- Node16 -->
<g id="Node000016" class="node">
<title>Node16</title>
<g id="a_Node000016"><a xlink:href="plotter_8cpp.html" target="_top" xlink:title="Helper function to plot maps.">
<polygon fill="white" stroke="#666666" points="911.14,-247 849.39,-247 849.39,-228.5 911.14,-228.5 911.14,-247"/>
<text text-anchor="middle" x="880.27" y="-233.5" font-family="Helvetica,sans-Serif" font-size="10.00">plotter.cpp</text>
</a>
</g>
</g>
<!-- Node15&#45;&gt;Node16 -->
<g id="edge34_Node000015_Node000016" class="edge">
<title>Node15&#45;&gt;Node16</title>
<g id="a_edge34_Node000015_Node000016"><a xlink:title=" ">
<path fill="none" stroke="#63b8ff" d="M841.06,-274.86C850.99,-265.72 862.95,-254.7 871.03,-247.26"/>
<polygon fill="#63b8ff" stroke="#63b8ff" points="838.78,-272.21 833.79,-281.56 843.52,-277.35 838.78,-272.21"/>
</a>
</g>
</g>
<!-- Node17&#45;&gt;Node2 -->
<g id="edge36_Node000017_Node000002" class="edge">
<title>Node17&#45;&gt;Node2</title>
<g id="a_edge36_Node000017_Node000002"><a xlink:title=" ">
<path fill="none" stroke="#63b8ff" d="M915.2,-271.85C927.47,-233.59 947.55,-148.69 900.27,-109 852.71,-69.08 662.5,-64.55 582.26,-64.46"/>
<polygon fill="#63b8ff" stroke="#63b8ff" points="911.96,-270.49 912.07,-281.08 918.59,-272.73 911.96,-270.49"/>
</a>
</g>
</g>
<!-- Node17&#45;&gt;Node4 -->
<g id="edge37_Node000017_Node000004" class="edge">
<title>Node17&#45;&gt;Node4</title>
<g id="a_edge37_Node000017_Node000004"><a xlink:title=" ">
<path fill="none" stroke="#63b8ff" d="M858.06,-282.97C773.09,-269.06 688.15,-255.26 635.91,-246.79"/>
<polygon fill="#63b8ff" stroke="#63b8ff" points="857.31,-286.39 867.74,-284.56 858.44,-279.49 857.31,-286.39"/>
</a>
</g>
</g>
</g>
</svg>
