<?xml version="1.0" encoding="UTF-8" standalone="no"?>
<!DOCTYPE svg PUBLIC "-//W3C//DTD SVG 1.1//EN"
 "http://www.w3.org/Graphics/SVG/1.1/DTD/svg11.dtd">
<!-- Generated by graphviz version 10.0.1 (0)
 -->
<!-- Title: voronoi.cpp Pages: 1 -->
<!--zoomable 232 -->

<svg id="main" version="1.1" xmlns="http://www.w3.org/2000/svg" xmlns:xlink="http://www.w3.org/1999/xlink" xml:space="preserve" onload="init(evt)">
<style type="text/css"><![CDATA[
.node, .edge {opacity: 0.7;}
.node.selected, .edge.selected {opacity: 1;}
.edge:hover path { stroke: red; }
.edge:hover polygon { stroke: red; fill: red; }
]]></style>

<defs>
  <circle id="rim" cx="0" cy="0" r="7"/>
  <circle id="rim2" cx="0" cy="0" r="3.5"/>
  <g id="zoomPlus">
    <use xlink:href="#rim" fill="#404040"><set attributeName="fill" to="#808080" begin="zoomplus.mouseover" end="zoomplus.mouseout"/></use>
    <path d="M-4,0h8M0,-4v8" fill="none" stroke="white" stroke-width="1.5" pointer-events="none"/>
  </g>
  <g id="zoomMin">
    <use xlink:href="#rim" fill="#404040"><set attributeName="fill" to="#808080" begin="zoomminus.mouseover" end="zoomminus.mouseout"/></use>
    <path d="M-4,0h8" fill="none" stroke="white" stroke-width="1.5" pointer-events="none"/>
  </g>
  <g id="arrowUp" transform="translate(30 24)">
    <use xlink:href="#rim"/>
    <path pointer-events="none" fill="none" stroke="white" stroke-width="1.5" d="M0,-3.0v7 M-2.5,-0.5L0,-3.0L2.5,-0.5"/>
  </g>
  <g id="arrowRight" transform="rotate(90) translate(36 -43)">
    <use xlink:href="#rim"/>
    <path pointer-events="none" fill="none" stroke="white" stroke-width="1.5" d="M0,-3.0v7 M-2.5,-0.5L0,-3.0L2.5,-0.5"/>
  </g>
  <g id="arrowDown" transform="rotate(180) translate(-30 -48)">
    <use xlink:href="#rim"/>
    <path pointer-events="none" fill="none" stroke="white" stroke-width="1.5" d="M0,-3.0v7 M-2.5,-0.5L0,-3.0L2.5,-0.5"/>
  </g>
  <g id="arrowLeft" transform="rotate(270) translate(-36 17)">
    <use xlink:href="#rim"/>
    <path pointer-events="none" fill="none" stroke="white" stroke-width="1.5" d="M0,-3.0v7 M-2.5,-0.5L0,-3.0L2.5,-0.5"/>
  </g>
  <g id="resetDef">
    <use xlink:href="#rim2" fill="#404040"><set attributeName="fill" to="#808080" begin="reset.mouseover" end="reset.mouseout"/></use>
  </g>
</defs>
<script type="application/ecmascript">
var viewWidth = 2023;
var viewHeight = 232;
var sectionId = 'dynsection-0';
</script>
<script type="application/ecmascript" xlink:href="svg.min.js"/>
<svg id="graph" class="graph">
<g id="viewport">
<title>voronoi.cpp</title>
<!-- Node1 -->
<g id="Node000001" class="node">
<title>Node1</title>
<g id="a_Node000001"><a xlink:title="Functions to compute Centroidal Voronoi Tessellation.">
<polygon fill="#999999" stroke="#666666" points="1043.38,-224 977.88,-224 977.88,-205.5 1043.38,-205.5 1043.38,-224"/>
<text text-anchor="middle" x="1010.62" y="-210.5" font-family="Helvetica,sans-Serif" font-size="10.00">voronoi.cpp</text>
</a>
</g>
</g>
<!-- Node2 -->
<g id="Node000002" class="node">
<title>Node2</title>
<g id="a_Node000002"><a xlink:title=" ">
<polygon fill="#e0e0e0" stroke="#999999" points="744.12,-99.25 701.12,-99.25 701.12,-80.75 744.12,-80.75 744.12,-99.25"/>
<text text-anchor="middle" x="722.62" y="-85.75" font-family="Helvetica,sans-Serif" font-size="10.00">omp.h</text>
</a>
</g>
</g>
<!-- Node1&#45;&gt;Node2 -->
<g id="edge1_Node000001_Node000002" class="edge">
<title>Node1&#45;&gt;Node2</title>
<g id="a_edge1_Node000001_Node000002"><a xlink:title=" ">
<path fill="none" stroke="#63b8ff" d="M977.59,-207.12C945.2,-200.01 894.84,-187.28 853.62,-169.5 812.76,-151.87 769.16,-123.61 743.98,-106.24"/>
<polygon fill="#63b8ff" stroke="#63b8ff" points="746.12,-103.46 735.92,-100.6 742.11,-109.2 746.12,-103.46"/>
</a>
</g>
</g>
<!-- Node3 -->
<g id="Node000003" class="node">
<title>Node3</title>
<g id="a_Node000003"><a xlink:title=" ">
<polygon fill="#e0e0e0" stroke="#999999" points="1706.62,-164.25 1648.62,-164.25 1648.62,-145.75 1706.62,-145.75 1706.62,-164.25"/>
<text text-anchor="middle" x="1677.62" y="-150.75" font-family="Helvetica,sans-Serif" font-size="10.00">functional</text>
</a>
</g>
</g>
<!-- Node1&#45;&gt;Node3 -->
<g id="edge2_Node000001_Node000003" class="edge">
<title>Node1&#45;&gt;Node3</title>
<g id="a_edge2_Node000001_Node000003"><a xlink:title=" ">
<path fill="none" stroke="#63b8ff" d="M1043.81,-212.6C1156.52,-208.52 1524.02,-193.63 1639.62,-169.5 1641.51,-169.11 1643.43,-168.64 1645.35,-168.13"/>
<polygon fill="#63b8ff" stroke="#63b8ff" points="1646.26,-171.51 1654.77,-165.2 1644.18,-164.82 1646.26,-171.51"/>
</a>
</g>
</g>
<!-- Node4 -->
<g id="Node000004" class="node">
<title>Node4</title>
<g id="a_Node000004"><a xlink:title=" ">
<polygon fill="#e0e0e0" stroke="#999999" points="1537.38,-99.25 1483.88,-99.25 1483.88,-80.75 1537.38,-80.75 1537.38,-99.25"/>
<text text-anchor="middle" x="1510.62" y="-85.75" font-family="Helvetica,sans-Serif" font-size="10.00">iostream</text>
</a>
</g>
</g>
<!-- Node1&#45;&gt;Node4 -->
<g id="edge3_Node000001_Node000004" class="edge">
<title>Node1&#45;&gt;Node4</title>
<g id="a_edge3_Node000001_Node000004"><a xlink:title=" ">
<path fill="none" stroke="#63b8ff" d="M1043.61,-206.79C1119.24,-190.65 1310.78,-148.62 1468.62,-104.5 1470.24,-104.05 1471.88,-103.58 1473.54,-103.09"/>
<polygon fill="#63b8ff" stroke="#63b8ff" points="1474.52,-106.45 1483.06,-100.18 1472.47,-99.76 1474.52,-106.45"/>
</a>
</g>
</g>
<!-- Node5 -->
<g id="Node000005" class="node">
<title>Node5</title>
<g id="a_Node000005"><a xlink:title=" ">
<polygon fill="#e0e0e0" stroke="#999999" points="791.02,-99.25 762.23,-99.25 762.23,-80.75 791.02,-80.75 791.02,-99.25"/>
<text text-anchor="middle" x="776.62" y="-85.75" font-family="Helvetica,sans-Serif" font-size="10.00">list</text>
</a>
</g>
</g>
<!-- Node1&#45;&gt;Node5 -->
<g id="edge4_Node000001_Node000005" class="edge">
<title>Node1&#45;&gt;Node5</title>
<g id="a_edge4_Node000001_Node000005"><a xlink:title=" ">
<path fill="none" stroke="#63b8ff" d="M989,-205.16C968.31,-196.73 936.38,-183.19 909.62,-169.5 869.98,-149.21 825.78,-122.2 799.64,-105.73"/>
<polygon fill="#63b8ff" stroke="#63b8ff" points="801.52,-102.78 791.2,-100.38 797.77,-108.69 801.52,-102.78"/>
</a>
</g>
</g>
<!-- Node6 -->
<g id="Node000006" class="node">
<title>Node6</title>
<g id="a_Node000006"><a xlink:href="config_8h.html" target="_top" xlink:title="Contains the configuration for the CGAL library.">
<polygon fill="white" stroke="#666666" points="918.5,-104.5 808.75,-104.5 808.75,-75.5 918.5,-75.5 918.5,-104.5"/>
<text text-anchor="start" x="816.75" y="-91" font-family="Helvetica,sans-Serif" font-size="10.00">CoverageControl/cgal</text>
<text text-anchor="middle" x="863.62" y="-80.5" font-family="Helvetica,sans-Serif" font-size="10.00">/config.h</text>
</a>
</g>
</g>
<!-- Node1&#45;&gt;Node6 -->
<g id="edge5_Node000001_Node000006" class="edge">
<title>Node1&#45;&gt;Node6</title>
<g id="a_edge5_Node000001_Node000006"><a xlink:title=" ">
<path fill="none" stroke="#63b8ff" d="M996.71,-205.01C983.44,-196.47 963.1,-182.86 946.62,-169.5 924.45,-151.52 900.98,-128.95 884.67,-112.63"/>
<polygon fill="#63b8ff" stroke="#63b8ff" points="887.43,-110.44 877.91,-105.8 882.46,-115.37 887.43,-110.44"/>
</a>
</g>
</g>
<!-- Node17 -->
<g id="Node000017" class="node">
<title>Node17</title>
<g id="a_Node000017"><a xlink:href="utilities_8h.html" target="_top" xlink:title="Contains utility functions for CGAL.">
<polygon fill="white" stroke="#666666" points="1065.5,-169.5 955.75,-169.5 955.75,-140.5 1065.5,-140.5 1065.5,-169.5"/>
<text text-anchor="start" x="963.75" y="-156" font-family="Helvetica,sans-Serif" font-size="10.00">CoverageControl/cgal</text>
<text text-anchor="middle" x="1010.62" y="-145.5" font-family="Helvetica,sans-Serif" font-size="10.00">/utilities.h</text>
</a>
</g>
</g>
<!-- Node1&#45;&gt;Node17 -->
<g id="edge16_Node000001_Node000017" class="edge">
<title>Node1&#45;&gt;Node17</title>
<g id="a_edge16_Node000001_Node000017"><a xlink:title=" ">
<path fill="none" stroke="#63b8ff" d="M1010.62,-205.23C1010.62,-198.92 1010.62,-189.96 1010.62,-181.42"/>
<polygon fill="#63b8ff" stroke="#63b8ff" points="1014.13,-181.45 1010.63,-171.45 1007.13,-181.45 1014.13,-181.45"/>
</a>
</g>
</g>
<!-- Node24 -->
<g id="Node000024" class="node">
<title>Node24</title>
<g id="a_Node000024"><a xlink:href="voronoi_8h.html" target="_top" xlink:title="Class for computing Voronoi cells.">
<polygon fill="white" stroke="#666666" points="1631,-164.25 1500.25,-164.25 1500.25,-145.75 1631,-145.75 1631,-164.25"/>
<text text-anchor="middle" x="1565.62" y="-150.75" font-family="Helvetica,sans-Serif" font-size="10.00">CoverageControl/voronoi.h</text>
</a>
</g>
</g>
<!-- Node1&#45;&gt;Node24 -->
<g id="edge27_Node000001_Node000024" class="edge">
<title>Node1&#45;&gt;Node24</title>
<g id="a_edge27_Node000001_Node000024"><a xlink:title=" ">
<path fill="none" stroke="#63b8ff" d="M1043.68,-210.31C1130.35,-201.29 1365.93,-176.78 1488.78,-164"/>
<polygon fill="#63b8ff" stroke="#63b8ff" points="1488.85,-167.51 1498.44,-162.99 1488.13,-160.55 1488.85,-167.51"/>
</a>
</g>
</g>
<!-- Node7 -->
<g id="Node000007" class="node">
<title>Node7</title>
<g id="a_Node000007"><a xlink:title=" ">
<polygon fill="#e0e0e0" stroke="#999999" points="1319.75,-29 1187.5,-29 1187.5,-10.5 1319.75,-10.5 1319.75,-29"/>
<text text-anchor="middle" x="1253.62" y="-15.5" font-family="Helvetica,sans-Serif" font-size="10.00">CGAL/Arr_linear_traits_2.h</text>
</a>
</g>
</g>
<!-- Node6&#45;&gt;Node7 -->
<g id="edge6_Node000006_Node000007" class="edge">
<title>Node6&#45;&gt;Node7</title>
<g id="a_edge6_Node000006_Node000007"><a xlink:title=" ">
<path fill="none" stroke="#63b8ff" d="M918.74,-77.14C921.74,-76.56 924.72,-76.01 927.62,-75.5 1038.6,-55.86 1068.04,-61.2 1178.62,-39.5 1189.17,-37.43 1200.45,-34.82 1210.98,-32.22"/>
<polygon fill="#63b8ff" stroke="#63b8ff" points="1211.74,-35.63 1220.57,-29.78 1210.02,-28.85 1211.74,-35.63"/>
</a>
</g>
</g>
<!-- Node8 -->
<g id="Node000008" class="node">
<title>Node8</title>
<g id="a_Node000008"><a xlink:title=" ">
<polygon fill="#e0e0e0" stroke="#999999" points="111.25,-34.25 0,-34.25 0,-5.25 111.25,-5.25 111.25,-34.25"/>
<text text-anchor="start" x="8" y="-20.75" font-family="Helvetica,sans-Serif" font-size="10.00">CGAL/Arr_walk_along</text>
<text text-anchor="middle" x="55.62" y="-10.25" font-family="Helvetica,sans-Serif" font-size="10.00">_line_point_location.h</text>
</a>
</g>
</g>
<!-- Node6&#45;&gt;Node8 -->
<g id="edge7_Node000006_Node000008" class="edge">
<title>Node6&#45;&gt;Node8</title>
<g id="a_edge7_Node000006_Node000008"><a xlink:title=" ">
<path fill="none" stroke="#63b8ff" d="M808.56,-76.82C805.55,-76.33 802.55,-75.88 799.62,-75.5 499.55,-36.15 417.96,-90.39 119.62,-39.5 116.25,-38.92 112.81,-38.23 109.35,-37.46"/>
<polygon fill="#63b8ff" stroke="#63b8ff" points="110.35,-34.1 99.81,-35.11 108.68,-40.9 110.35,-34.1"/>
</a>
</g>
</g>
<!-- Node9 -->
<g id="Node000009" class="node">
<title>Node9</title>
<g id="a_Node000009"><a xlink:title=" ">
<polygon fill="#e0e0e0" stroke="#999999" points="248.38,-29 128.88,-29 128.88,-10.5 248.38,-10.5 248.38,-29"/>
<text text-anchor="middle" x="188.62" y="-15.5" font-family="Helvetica,sans-Serif" font-size="10.00">CGAL/Arrangement_2.h</text>
</a>
</g>
</g>
<!-- Node6&#45;&gt;Node9 -->
<g id="edge8_Node000006_Node000009" class="edge">
<title>Node6&#45;&gt;Node9</title>
<g id="a_edge8_Node000006_Node000009"><a xlink:title=" ">
<path fill="none" stroke="#63b8ff" d="M808.55,-76.87C805.54,-76.36 802.55,-75.9 799.62,-75.5 560.03,-42.46 495.1,-79.85 256.62,-39.5 246.64,-37.81 236.02,-35.26 226.21,-32.58"/>
<polygon fill="#63b8ff" stroke="#63b8ff" points="227.18,-29.21 216.6,-29.83 225.26,-35.94 227.18,-29.21"/>
</a>
</g>
</g>
<!-- Node10 -->
<g id="Node000010" class="node">
<title>Node10</title>
<g id="a_Node000010"><a xlink:title=" ">
<polygon fill="#e0e0e0" stroke="#999999" points="429.12,-29 266.12,-29 266.12,-10.5 429.12,-10.5 429.12,-29"/>
<text text-anchor="middle" x="347.62" y="-15.5" font-family="Helvetica,sans-Serif" font-size="10.00">CGAL/Delaunay_triangulation_2.h</text>
</a>
</g>
</g>
<!-- Node6&#45;&gt;Node10 -->
<g id="edge9_Node000006_Node000010" class="edge">
<title>Node6&#45;&gt;Node10</title>
<g id="a_edge9_Node000006_Node000010"><a xlink:title=" ">
<path fill="none" stroke="#63b8ff" d="M808.54,-76.98C805.53,-76.45 802.54,-75.95 799.62,-75.5 640.28,-50.82 598.02,-63.8 438.62,-39.5 424.92,-37.41 410.16,-34.61 396.6,-31.81"/>
<polygon fill="#63b8ff" stroke="#63b8ff" points="397.53,-28.43 387.02,-29.79 396.09,-35.28 397.53,-28.43"/>
</a>
</g>
</g>
<!-- Node11 -->
<g id="Node000011" class="node">
<title>Node11</title>
<g id="a_Node000011"><a xlink:title=" ">
<polygon fill="#e0e0e0" stroke="#999999" points="567.75,-39.5 447.5,-39.5 447.5,0 567.75,0 567.75,-39.5"/>
<text text-anchor="start" x="455.5" y="-26" font-family="Helvetica,sans-Serif" font-size="10.00">CGAL/Exact_predicates</text>
<text text-anchor="start" x="455.5" y="-15.5" font-family="Helvetica,sans-Serif" font-size="10.00">_exact_constructions</text>
<text text-anchor="middle" x="507.62" y="-5" font-family="Helvetica,sans-Serif" font-size="10.00">_kernel.h</text>
</a>
</g>
</g>
<!-- Node6&#45;&gt;Node11 -->
<g id="edge10_Node000006_Node000011" class="edge">
<title>Node6&#45;&gt;Node11</title>
<g id="a_edge10_Node000006_Node000011"><a xlink:title=" ">
<path fill="none" stroke="#63b8ff" d="M808.5,-77.2C805.5,-76.61 802.53,-76.04 799.62,-75.5 704.49,-57.8 676.74,-60.46 579.37,-39.98"/>
<polygon fill="#63b8ff" stroke="#63b8ff" points="580.11,-36.56 569.6,-37.89 578.65,-43.4 580.11,-36.56"/>
</a>
</g>
</g>
<!-- Node12 -->
<g id="Node000012" class="node">
<title>Node12</title>
<g id="a_Node000012"><a xlink:title=" ">
<polygon fill="#e0e0e0" stroke="#999999" points="713.5,-29 585.75,-29 585.75,-10.5 713.5,-10.5 713.5,-29"/>
<text text-anchor="middle" x="649.62" y="-15.5" font-family="Helvetica,sans-Serif" font-size="10.00">CGAL/Partition_traits_2.h</text>
</a>
</g>
</g>
<!-- Node6&#45;&gt;Node12 -->
<g id="edge11_Node000006_Node000012" class="edge">
<title>Node6&#45;&gt;Node12</title>
<g id="a_edge11_Node000006_Node000012"><a xlink:title=" ">
<path fill="none" stroke="#63b8ff" d="M819.8,-75.02C780.91,-62.62 724.65,-44.68 687.63,-32.87"/>
<polygon fill="#63b8ff" stroke="#63b8ff" points="688.82,-29.58 678.23,-29.87 686.7,-36.25 688.82,-29.58"/>
</a>
</g>
</g>
<!-- Node13 -->
<g id="Node000013" class="node">
<title>Node13</title>
<g id="a_Node000013"><a xlink:title=" ">
<polygon fill="#e0e0e0" stroke="#999999" points="881.75,-29 731.5,-29 731.5,-10.5 881.75,-10.5 881.75,-29"/>
<text text-anchor="middle" x="806.62" y="-15.5" font-family="Helvetica,sans-Serif" font-size="10.00">CGAL/Polygon_with_holes_2.h</text>
</a>
</g>
</g>
<!-- Node6&#45;&gt;Node13 -->
<g id="edge12_Node000006_Node000013" class="edge">
<title>Node6&#45;&gt;Node13</title>
<g id="a_edge12_Node000006_Node000013"><a xlink:title=" ">
<path fill="none" stroke="#63b8ff" d="M852.09,-75.19C843.14,-64.48 830.69,-49.57 821.08,-38.06"/>
<polygon fill="#63b8ff" stroke="#63b8ff" points="823.88,-35.95 814.79,-30.52 818.51,-40.44 823.88,-35.95"/>
</a>
</g>
</g>
<!-- Node14 -->
<g id="Node000014" class="node">
<title>Node14</title>
<g id="a_Node000014"><a xlink:title=" ">
<polygon fill="#e0e0e0" stroke="#999999" points="987.62,-29 899.62,-29 899.62,-10.5 987.62,-10.5 987.62,-29"/>
<text text-anchor="middle" x="943.62" y="-15.5" font-family="Helvetica,sans-Serif" font-size="10.00">CGAL/centroid.h</text>
</a>
</g>
</g>
<!-- Node6&#45;&gt;Node14 -->
<g id="edge13_Node000006_Node000014" class="edge">
<title>Node6&#45;&gt;Node14</title>
<g id="a_edge13_Node000006_Node000014"><a xlink:title=" ">
<path fill="none" stroke="#63b8ff" d="M879.81,-75.19C892.87,-64.05 911.25,-48.37 924.93,-36.7"/>
<polygon fill="#63b8ff" stroke="#63b8ff" points="927.05,-39.49 932.38,-30.34 922.5,-34.17 927.05,-39.49"/>
</a>
</g>
</g>
<!-- Node15 -->
<g id="Node000015" class="node">
<title>Node15</title>
<g id="a_Node000015"><a xlink:title=" ">
<polygon fill="#e0e0e0" stroke="#999999" points="1105.25,-29 1006,-29 1006,-10.5 1105.25,-10.5 1105.25,-29"/>
<text text-anchor="middle" x="1055.62" y="-15.5" font-family="Helvetica,sans-Serif" font-size="10.00">CGAL/partition_2.h</text>
</a>
</g>
</g>
<!-- Node6&#45;&gt;Node15 -->
<g id="edge14_Node000006_Node000015" class="edge">
<title>Node6&#45;&gt;Node15</title>
<g id="a_edge14_Node000006_Node000015"><a xlink:title=" ">
<path fill="none" stroke="#63b8ff" d="M902.94,-75.02C937.54,-62.73 987.44,-44.99 1020.67,-33.18"/>
<polygon fill="#63b8ff" stroke="#63b8ff" points="1021.57,-36.57 1029.82,-29.92 1019.23,-29.97 1021.57,-36.57"/>
</a>
</g>
</g>
<!-- Node16 -->
<g id="Node000016" class="node">
<title>Node16</title>
<g id="a_Node000016"><a xlink:title=" ">
<polygon fill="#e0e0e0" stroke="#999999" points="1169.62,-29 1123.62,-29 1123.62,-10.5 1169.62,-10.5 1169.62,-29"/>
<text text-anchor="middle" x="1146.62" y="-15.5" font-family="Helvetica,sans-Serif" font-size="10.00">iterator</text>
</a>
</g>
</g>
<!-- Node6&#45;&gt;Node16 -->
<g id="edge15_Node000006_Node000016" class="edge">
<title>Node6&#45;&gt;Node16</title>
<g id="a_edge15_Node000006_Node000016"><a xlink:title=" ">
<path fill="none" stroke="#63b8ff" d="M918.77,-77.3C921.76,-76.69 924.73,-76.08 927.62,-75.5 1010.59,-58.76 1035.42,-69.32 1114.62,-39.5 1117.79,-38.31 1121,-36.82 1124.11,-35.2"/>
<polygon fill="#63b8ff" stroke="#63b8ff" points="1125.83,-38.25 1132.74,-30.22 1122.33,-32.19 1125.83,-38.25"/>
</a>
</g>
</g>
<!-- Node17&#45;&gt;Node2 -->
<g id="edge19_Node000017_Node000002" class="edge">
<title>Node17&#45;&gt;Node2</title>
<g id="a_edge19_Node000017_Node000002"><a xlink:title=" ">
<path fill="none" stroke="#63b8ff" d="M955.37,-146.95C902.73,-139.41 821.66,-125.58 753.62,-104.5 752.83,-104.25 752.02,-103.99 751.21,-103.72"/>
<polygon fill="#63b8ff" stroke="#63b8ff" points="752.73,-100.55 742.14,-100.22 750.22,-107.08 752.73,-100.55"/>
</a>
</g>
</g>
<!-- Node17&#45;&gt;Node5 -->
<g id="edge21_Node000017_Node000005" class="edge">
<title>Node17&#45;&gt;Node5</title>
<g id="a_edge21_Node000017_Node000005"><a xlink:title=" ">
<path fill="none" stroke="#63b8ff" d="M955.48,-145.74C914.54,-138.57 857.53,-126.39 800.22,-103.87"/>
<polygon fill="#63b8ff" stroke="#63b8ff" points="801.89,-100.77 791.31,-100.27 799.27,-107.26 801.89,-100.77"/>
</a>
</g>
</g>
<!-- Node17&#45;&gt;Node6 -->
<g id="edge26_Node000017_Node000006" class="edge">
<title>Node17&#45;&gt;Node6</title>
<g id="a_edge26_Node000017_Node000006"><a xlink:title=" ">
<path fill="none" stroke="#63b8ff" d="M978,-140.02C956.97,-131.01 929.4,-119.19 906.59,-109.41"/>
<polygon fill="#63b8ff" stroke="#63b8ff" points="908.12,-106.26 897.55,-105.54 905.36,-112.7 908.12,-106.26"/>
</a>
</g>
</g>
<!-- Node18 -->
<g id="Node000018" class="node">
<title>Node18</title>
<g id="a_Node000018"><a xlink:title=" ">
<polygon fill="#e0e0e0" stroke="#999999" points="1271.75,-99.25 1103.5,-99.25 1103.5,-80.75 1271.75,-80.75 1271.75,-99.25"/>
<text text-anchor="middle" x="1187.62" y="-85.75" font-family="Helvetica,sans-Serif" font-size="10.00">CGAL/Boolean_set_operations_2.h</text>
</a>
</g>
</g>
<!-- Node17&#45;&gt;Node18 -->
<g id="edge17_Node000017_Node000018" class="edge">
<title>Node17&#45;&gt;Node18</title>
<g id="a_edge17_Node000017_Node000018"><a xlink:title=" ">
<path fill="none" stroke="#63b8ff" d="M1049.91,-140.02C1080.61,-129.09 1122.91,-114.04 1152.5,-103.5"/>
<polygon fill="#63b8ff" stroke="#63b8ff" points="1153.49,-106.86 1161.74,-100.21 1151.14,-100.27 1153.49,-106.86"/>
</a>
</g>
</g>
<!-- Node19 -->
<g id="Node000019" class="node">
<title>Node19</title>
<g id="a_Node000019"><a xlink:title=" ">
<polygon fill="#e0e0e0" stroke="#999999" points="1085,-99.25 936.25,-99.25 936.25,-80.75 1085,-80.75 1085,-99.25"/>
<text text-anchor="middle" x="1010.62" y="-85.75" font-family="Helvetica,sans-Serif" font-size="10.00">CGAL/Polygon_2_algorithms.h</text>
</a>
</g>
</g>
<!-- Node17&#45;&gt;Node19 -->
<g id="edge18_Node000017_Node000019" class="edge">
<title>Node17&#45;&gt;Node19</title>
<g id="a_edge18_Node000017_Node000019"><a xlink:title=" ">
<path fill="none" stroke="#63b8ff" d="M1010.62,-140.02C1010.62,-131.54 1010.62,-120.59 1010.62,-111.19"/>
<polygon fill="#63b8ff" stroke="#63b8ff" points="1014.13,-111.22 1010.63,-101.22 1007.13,-111.22 1014.13,-111.22"/>
</a>
</g>
</g>
<!-- Node20 -->
<g id="Node000020" class="node">
<title>Node20</title>
<g id="a_Node000020"><a xlink:title=" ">
<polygon fill="#e0e0e0" stroke="#999999" points="1529.75,-29 1487.5,-29 1487.5,-10.5 1529.75,-10.5 1529.75,-29"/>
<text text-anchor="middle" x="1508.62" y="-15.5" font-family="Helvetica,sans-Serif" font-size="10.00">vector</text>
</a>
</g>
</g>
<!-- Node17&#45;&gt;Node20 -->
<g id="edge20_Node000017_Node000020" class="edge">
<title>Node17&#45;&gt;Node20</title>
<g id="a_edge20_Node000017_Node000020"><a xlink:title=" ">
<path fill="none" stroke="#63b8ff" d="M1065.74,-152.54C1165.98,-149.08 1373.58,-137.98 1436.62,-104.5 1464.63,-89.63 1486.5,-59.02 1498.47,-39.21"/>
<polygon fill="#63b8ff" stroke="#63b8ff" points="1501.36,-41.21 1503.33,-30.8 1495.3,-37.71 1501.36,-41.21"/>
</a>
</g>
</g>
<!-- Node21 -->
<g id="Node000021" class="node">
<title>Node21</title>
<g id="a_Node000021"><a xlink:href="typedefs_8h.html" target="_top" xlink:title="Contains typedefs for the library.">
<polygon fill="white" stroke="#666666" points="1427.38,-99.25 1289.88,-99.25 1289.88,-80.75 1427.38,-80.75 1427.38,-99.25"/>
<text text-anchor="middle" x="1358.62" y="-85.75" font-family="Helvetica,sans-Serif" font-size="10.00">CoverageControl/typedefs.h</text>
</a>
</g>
</g>
<!-- Node17&#45;&gt;Node21 -->
<g id="edge22_Node000017_Node000021" class="edge">
<title>Node17&#45;&gt;Node21</title>
<g id="a_edge22_Node000017_Node000021"><a xlink:title=" ">
<path fill="none" stroke="#63b8ff" d="M1065.77,-144.02C1129.54,-132.47 1234.12,-113.54 1299.52,-101.7"/>
<polygon fill="#63b8ff" stroke="#63b8ff" points="1299.76,-105.21 1308.98,-99.99 1298.51,-98.33 1299.76,-105.21"/>
</a>
</g>
</g>
<!-- Node21&#45;&gt;Node20 -->
<g id="edge25_Node000021_Node000020" class="edge">
<title>Node21&#45;&gt;Node20</title>
<g id="a_edge25_Node000021_Node000020"><a xlink:title=" ">
<path fill="none" stroke="#63b8ff" d="M1383.07,-80.29C1407.7,-71.2 1446.56,-55.99 1478.62,-39.5 1481.07,-38.24 1483.57,-36.85 1486.04,-35.42"/>
<polygon fill="#63b8ff" stroke="#63b8ff" points="1487.78,-38.46 1494.47,-30.24 1484.12,-32.49 1487.78,-38.46"/>
</a>
</g>
</g>
<!-- Node22 -->
<g id="Node000022" class="node">
<title>Node22</title>
<g id="a_Node000022"><a xlink:title=" ">
<polygon fill="#e0e0e0" stroke="#999999" points="1469.75,-29 1397.5,-29 1397.5,-10.5 1469.75,-10.5 1469.75,-29"/>
<text text-anchor="middle" x="1433.62" y="-15.5" font-family="Helvetica,sans-Serif" font-size="10.00">Eigen/Dense</text>
</a>
</g>
</g>
<!-- Node21&#45;&gt;Node22 -->
<g id="edge23_Node000021_Node000022" class="edge">
<title>Node21&#45;&gt;Node22</title>
<g id="a_edge23_Node000021_Node000022"><a xlink:title=" ">
<path fill="none" stroke="#63b8ff" d="M1368.12,-80.36C1380.14,-69.42 1401.05,-50.39 1416.02,-36.77"/>
<polygon fill="#63b8ff" stroke="#63b8ff" points="1418.28,-39.45 1423.32,-30.13 1413.57,-34.27 1418.28,-39.45"/>
</a>
</g>
</g>
<!-- Node23 -->
<g id="Node000023" class="node">
<title>Node23</title>
<g id="a_Node000023"><a xlink:title=" ">
<polygon fill="#e0e0e0" stroke="#999999" points="1379.75,-29 1337.5,-29 1337.5,-10.5 1379.75,-10.5 1379.75,-29"/>
<text text-anchor="middle" x="1358.62" y="-15.5" font-family="Helvetica,sans-Serif" font-size="10.00">queue</text>
</a>
</g>
</g>
<!-- Node21&#45;&gt;Node23 -->
<g id="edge24_Node000021_Node000023" class="edge">
<title>Node21&#45;&gt;Node23</title>
<g id="a_edge24_Node000021_Node000023"><a xlink:title=" ">
<path fill="none" stroke="#63b8ff" d="M1358.62,-80.36C1358.62,-70.35 1358.62,-53.56 1358.62,-40.35"/>
<polygon fill="#63b8ff" stroke="#63b8ff" points="1362.13,-40.62 1358.63,-30.62 1355.13,-40.62 1362.13,-40.62"/>
</a>
</g>
</g>
<!-- Node24&#45;&gt;Node4 -->
<g id="edge29_Node000024_Node000004" class="edge">
<title>Node24&#45;&gt;Node4</title>
<g id="a_edge29_Node000024_Node000004"><a xlink:title=" ">
<path fill="none" stroke="#63b8ff" d="M1558.21,-145.5C1549.8,-135.87 1535.87,-119.92 1525.25,-107.76"/>
<polygon fill="#63b8ff" stroke="#63b8ff" points="1528.13,-105.73 1518.92,-100.5 1522.86,-110.34 1528.13,-105.73"/>
</a>
</g>
</g>
<!-- Node24&#45;&gt;Node20 -->
<g id="edge32_Node000024_Node000020" class="edge">
<title>Node24&#45;&gt;Node20</title>
<g id="a_edge32_Node000024_Node000020"><a xlink:title=" ">
<path fill="none" stroke="#63b8ff" d="M1564.6,-145.42C1562.61,-130.61 1557.42,-99.55 1546.62,-75.5 1540.59,-62.06 1531.16,-48.45 1523.2,-38.16"/>
<polygon fill="#63b8ff" stroke="#63b8ff" points="1526.13,-36.21 1517.13,-30.6 1520.67,-40.59 1526.13,-36.21"/>
</a>
</g>
</g>
<!-- Node24&#45;&gt;Node21 -->
<g id="edge38_Node000024_Node000021" class="edge">
<title>Node24&#45;&gt;Node21</title>
<g id="a_edge38_Node000024_Node000021"><a xlink:title=" ">
<path fill="none" stroke="#63b8ff" d="M1537.28,-145.37C1501.25,-134.41 1438.85,-115.42 1398.16,-103.03"/>
<polygon fill="#63b8ff" stroke="#63b8ff" points="1399.33,-99.73 1388.74,-100.17 1397.29,-106.43 1399.33,-99.73"/>
</a>
</g>
</g>
<!-- Node25 -->
<g id="Node000025" class="node">
<title>Node25</title>
<g id="a_Node000025"><a xlink:title=" ">
<polygon fill="#e0e0e0" stroke="#999999" points="1753.12,-29 1710.12,-29 1710.12,-10.5 1753.12,-10.5 1753.12,-29"/>
<text text-anchor="middle" x="1731.62" y="-15.5" font-family="Helvetica,sans-Serif" font-size="10.00">cmath</text>
</a>
</g>
</g>
<!-- Node24&#45;&gt;Node25 -->
<g id="edge28_Node000024_Node000025" class="edge">
<title>Node24&#45;&gt;Node25</title>
<g id="a_edge28_Node000024_Node000025"><a xlink:title=" ">
<path fill="none" stroke="#63b8ff" d="M1605.33,-145.26C1643.7,-136.02 1698.1,-120.59 1712.62,-104.5 1728.38,-87.06 1731.93,-59.34 1732.34,-40.62"/>
<polygon fill="#63b8ff" stroke="#63b8ff" points="1735.84,-40.81 1732.25,-30.84 1728.84,-40.88 1735.84,-40.81"/>
</a>
</g>
</g>
<!-- Node26 -->
<g id="Node000026" class="node">
<title>Node26</title>
<g id="a_Node000026"><a xlink:title=" ">
<polygon fill="#e0e0e0" stroke="#999999" points="1645.62,-99.25 1593.62,-99.25 1593.62,-80.75 1645.62,-80.75 1645.62,-99.25"/>
<text text-anchor="middle" x="1619.62" y="-85.75" font-family="Helvetica,sans-Serif" font-size="10.00">memory</text>
</a>
</g>
</g>
<!-- Node24&#45;&gt;Node26 -->
<g id="edge30_Node000024_Node000026" class="edge">
<title>Node24&#45;&gt;Node26</title>
<g id="a_edge30_Node000024_Node000026"><a xlink:title=" ">
<path fill="none" stroke="#63b8ff" d="M1572.91,-145.5C1581.17,-135.87 1594.84,-119.92 1605.26,-107.76"/>
<polygon fill="#63b8ff" stroke="#63b8ff" points="1607.62,-110.38 1611.47,-100.51 1602.31,-105.83 1607.62,-110.38"/>
</a>
</g>
</g>
<!-- Node27 -->
<g id="Node000027" class="node">
<title>Node27</title>
<g id="a_Node000027"><a xlink:title=" ">
<polygon fill="#e0e0e0" stroke="#999999" points="1703.25,-99.25 1664,-99.25 1664,-80.75 1703.25,-80.75 1703.25,-99.25"/>
<text text-anchor="middle" x="1683.62" y="-85.75" font-family="Helvetica,sans-Serif" font-size="10.00">utility</text>
</a>
</g>
</g>
<!-- Node24&#45;&gt;Node27 -->
<g id="edge31_Node000024_Node000027" class="edge">
<title>Node24&#45;&gt;Node27</title>
<g id="a_edge31_Node000024_Node000027"><a xlink:title=" ">
<path fill="none" stroke="#63b8ff" d="M1581.54,-145.5C1601.07,-135.08 1634.45,-117.26 1657.7,-104.84"/>
<polygon fill="#63b8ff" stroke="#63b8ff" points="1659.08,-108.07 1666.25,-100.28 1655.78,-101.9 1659.08,-108.07"/>
</a>
</g>
</g>
<!-- Node28 -->
<g id="Node000028" class="node">
<title>Node28</title>
<g id="a_Node000028"><a xlink:href="constants_8h.html" target="_top" xlink:title="Constants for the CoverageControl library.">
<polygon fill="white" stroke="#666666" points="1902,-99.25 1759.25,-99.25 1759.25,-80.75 1902,-80.75 1902,-99.25"/>
<text text-anchor="middle" x="1830.62" y="-85.75" font-family="Helvetica,sans-Serif" font-size="10.00">CoverageControl/constants.h</text>
</a>
</g>
</g>
<!-- Node24&#45;&gt;Node28 -->
<g id="edge33_Node000024_Node000028" class="edge">
<title>Node24&#45;&gt;Node28</title>
<g id="a_edge33_Node000024_Node000028"><a xlink:title=" ">
<path fill="none" stroke="#63b8ff" d="M1602.19,-145.31C1649.29,-134.11 1731.22,-114.63 1783.1,-102.3"/>
<polygon fill="#63b8ff" stroke="#63b8ff" points="1783.61,-105.77 1792.53,-100.06 1782,-98.96 1783.61,-105.77"/>
</a>
</g>
</g>
<!-- Node28&#45;&gt;Node25 -->
<g id="edge34_Node000028_Node000025" class="edge">
<title>Node28&#45;&gt;Node25</title>
<g id="a_edge34_Node000028_Node000025"><a xlink:title=" ">
<path fill="none" stroke="#63b8ff" d="M1818.09,-80.36C1801.87,-69.18 1773.36,-49.52 1753.53,-35.85"/>
<polygon fill="#63b8ff" stroke="#63b8ff" points="1755.53,-32.98 1745.31,-30.18 1751.55,-38.74 1755.53,-32.98"/>
</a>
</g>
</g>
<!-- Node29 -->
<g id="Node000029" class="node">
<title>Node29</title>
<g id="a_Node000029"><a xlink:title=" ">
<polygon fill="#e0e0e0" stroke="#999999" points="1810.25,-29 1771,-29 1771,-10.5 1810.25,-10.5 1810.25,-29"/>
<text text-anchor="middle" x="1790.62" y="-15.5" font-family="Helvetica,sans-Serif" font-size="10.00">limits</text>
</a>
</g>
</g>
<!-- Node28&#45;&gt;Node29 -->
<g id="edge35_Node000028_Node000029" class="edge">
<title>Node28&#45;&gt;Node29</title>
<g id="a_edge35_Node000028_Node000029"><a xlink:title=" ">
<path fill="none" stroke="#63b8ff" d="M1825.56,-80.36C1819.45,-69.94 1809.04,-52.17 1801.16,-38.73"/>
<polygon fill="#63b8ff" stroke="#63b8ff" points="1804.37,-37.27 1796.29,-30.42 1798.33,-40.81 1804.37,-37.27"/>
</a>
</g>
</g>
<!-- Node30 -->
<g id="Node000030" class="node">
<title>Node30</title>
<g id="a_Node000030"><a xlink:title=" ">
<polygon fill="#e0e0e0" stroke="#999999" points="1868.62,-29 1828.62,-29 1828.62,-10.5 1868.62,-10.5 1868.62,-29"/>
<text text-anchor="middle" x="1848.62" y="-15.5" font-family="Helvetica,sans-Serif" font-size="10.00">string</text>
</a>
</g>
</g>
<!-- Node28&#45;&gt;Node30 -->
<g id="edge36_Node000028_Node000030" class="edge">
<title>Node28&#45;&gt;Node30</title>
<g id="a_edge36_Node000028_Node000030"><a xlink:title=" ">
<path fill="none" stroke="#63b8ff" d="M1832.9,-80.36C1835.57,-70.25 1840.06,-53.22 1843.56,-39.94"/>
<polygon fill="#63b8ff" stroke="#63b8ff" points="1846.87,-41.14 1846.03,-30.57 1840.1,-39.35 1846.87,-41.14"/>
</a>
</g>
</g>
<!-- Node31 -->
<g id="Node000031" class="node">
<title>Node31</title>
<g id="a_Node000031"><a xlink:title=" ">
<polygon fill="#e0e0e0" stroke="#999999" points="2014.88,-29 1886.38,-29 1886.38,-10.5 2014.88,-10.5 2014.88,-29"/>
<text text-anchor="middle" x="1950.62" y="-15.5" font-family="Helvetica,sans-Serif" font-size="10.00">CoverageControl/Config.h</text>
</a>
</g>
</g>
<!-- Node28&#45;&gt;Node31 -->
<g id="edge37_Node000028_Node000031" class="edge">
<title>Node28&#45;&gt;Node31</title>
<g id="a_edge37_Node000028_Node000031"><a xlink:title=" ">
<path fill="none" stroke="#63b8ff" d="M1845.82,-80.36C1865.93,-68.92 1901.63,-48.61 1925.71,-34.92"/>
<polygon fill="#63b8ff" stroke="#63b8ff" points="1927.27,-38.06 1934.23,-30.07 1923.81,-31.97 1927.27,-38.06"/>
</a>
</g>
</g>
</g>
</svg>

<g id="navigator" transform="translate(0 0)" fill="#404254">
  <rect fill="#f2f5e9" fill-opacity="0.5" stroke="#606060" stroke-width=".5" x="0" y="0" width="60" height="60"/>
  <use id="zoomplus" xlink:href="#zoomPlus" x="17" y="9" onmousedown="handleZoom(evt,'in')"/>
  <use id="zoomminus" xlink:href="#zoomMin" x="42" y="9" onmousedown="handleZoom(evt,'out')"/>
  <use id="reset" xlink:href="#resetDef" x="30" y="36" onmousedown="handleReset()"/>
   <use id="arrowup" xlink:href="#arrowUp" x="0" y="0" onmousedown="handlePan(0,-1)"/>
  <use id="arrowright" xlink:href="#arrowRight" x="0" y="0" onmousedown="handlePan(1,0)"/>
  <use id="arrowdown" xlink:href="#arrowDown" x="0" y="0" onmousedown="handlePan(0,1)"/>
  <use id="arrowleft" xlink:href="#arrowLeft" x="0" y="0" onmousedown="handlePan(-1,0)"/>
</g>
<svg viewBox="0 0 15 15" width="100%" height="30px" preserveAspectRatio="xMaxYMin meet">
 <g id="arrow_out" transform="scale(0.3 0.3)">
  <a xlink:href="voronoi_8cpp__incl_org.svg" target="_base">
   <rect id="button" ry="5" rx="5" y="6" x="6" height="38" width="38"
        fill="#f2f5e9" fill-opacity="0.5" stroke="#606060" stroke-width="1.0"/>
   <path id="arrow"
     d="M 11.500037,31.436501 C 11.940474,20.09759 22.043105,11.32322 32.158766,21.979434 L 37.068811,17.246167 C 37.068811,17.246167 37.088388,32 37.088388,32 L 22.160133,31.978069 C 22.160133,31.978069 26.997745,27.140456 26.997745,27.140456 C 18.528582,18.264221 13.291696,25.230495 11.500037,31.436501 z"
     style="fill:#404040;"/>
  </a>
 </g>
</svg>

<style type='text/css'>
<![CDATA[
[data-mouse-over-selected='false'] { opacity: 0.7; }
[data-mouse-over-selected='true']  { opacity: 1.0; }
]]>
</style>
<script type="application/ecmascript"><![CDATA[
document.addEventListener('DOMContentLoaded', (event) => {
  highlightEdges();
  highlightAdjacentNodes();
});
]]></script>
</svg>
