<?xml version="1.0" encoding="UTF-8" standalone="no"?>
<!DOCTYPE svg PUBLIC "-//W3C//DTD SVG 1.1//EN"
 "http://www.w3.org/Graphics/SVG/1.1/DTD/svg11.dtd">
<!-- Generated by graphviz version 12.1.2 (0)
 -->
<!-- Title: voronoi.h Pages: 1 -->
<svg width="337pt" height="136pt"
 viewBox="0.00 0.00 336.62 135.50" xmlns="http://www.w3.org/2000/svg" xmlns:xlink="http://www.w3.org/1999/xlink">

<svg id="main" version="1.1" xmlns="http://www.w3.org/2000/svg" xmlns:xlink="http://www.w3.org/1999/xlink" xml:space="preserve">

<style type="text/css"><![CDATA[
.node, .edge {opacity: 0.7;}
.node.selected, .edge.selected {opacity: 1;}
.edge:hover path { stroke: red; }
.edge:hover polygon { stroke: red; fill: red; }
]]></style>
<script type="application/ecmascript" xlink:href="svg.min.js"/>
<svg id="graph" class="graph">
<g id="graph0" class="graph" transform="scale(1 1) rotate(0) translate(4 131.5)">
<title>voronoi.h</title>
<!-- Node1 -->
<g id="Node000001" class="node">
<title>Node1</title>
<g id="a_Node000001"><a xlink:title="Class for computing Voronoi cells.">
<polygon fill="#999999" stroke="#666666" points="142,-127.5 87,-127.5 87,-109 142,-109 142,-127.5"/>
<text text-anchor="middle" x="114.5" y="-114" font-family="Helvetica,sans-Serif" font-size="10.00">voronoi.h</text>
</a>
</g>
</g>
<!-- Node2 -->
<g id="Node000002" class="node">
<title>Node2</title>
<g id="a_Node000002"><a xlink:title=" ">
<polygon fill="#e0e0e0" stroke="#999999" points="43,-73 0,-73 0,-54.5 43,-54.5 43,-73"/>
<text text-anchor="middle" x="21.5" y="-59.5" font-family="Helvetica,sans-Serif" font-size="10.00">cmath</text>
</a>
</g>
</g>
<!-- Node1&#45;&gt;Node2 -->
<g id="edge1_Node000001_Node000002" class="edge">
<title>Node1&#45;&gt;Node2</title>
<g id="a_edge1_Node000001_Node000002"><a xlink:title=" ">
<path fill="none" stroke="#63b8ff" d="M99.14,-108.58C84.87,-100.53 63.36,-88.38 46.6,-78.92"/>
<polygon fill="#63b8ff" stroke="#63b8ff" points="48.63,-76.04 38.2,-74.18 45.19,-82.14 48.63,-76.04"/>
</a>
</g>
</g>
<!-- Node3 -->
<g id="Node000003" class="node">
<title>Node3</title>
<g id="a_Node000003"><a xlink:title=" ">
<polygon fill="#e0e0e0" stroke="#999999" points="113.5,-73 61.5,-73 61.5,-54.5 113.5,-54.5 113.5,-73"/>
<text text-anchor="middle" x="87.5" y="-59.5" font-family="Helvetica,sans-Serif" font-size="10.00">memory</text>
</a>
</g>
</g>
<!-- Node1&#45;&gt;Node3 -->
<g id="edge2_Node000001_Node000003" class="edge">
<title>Node1&#45;&gt;Node3</title>
<g id="a_edge2_Node000001_Node000003"><a xlink:title=" ">
<path fill="none" stroke="#63b8ff" d="M110.04,-108.58C106.5,-101.7 101.43,-91.84 96.99,-83.21"/>
<polygon fill="#63b8ff" stroke="#63b8ff" points="100.25,-81.9 92.57,-74.6 94.03,-85.1 100.25,-81.9"/>
</a>
</g>
</g>
<!-- Node4 -->
<g id="Node000004" class="node">
<title>Node4</title>
<g id="a_Node000004"><a xlink:title=" ">
<polygon fill="#e0e0e0" stroke="#999999" points="173.62,-18.5 131.38,-18.5 131.38,0 173.62,0 173.62,-18.5"/>
<text text-anchor="middle" x="152.5" y="-5" font-family="Helvetica,sans-Serif" font-size="10.00">vector</text>
</a>
</g>
</g>
<!-- Node1&#45;&gt;Node4 -->
<g id="edge3_Node000001_Node000004" class="edge">
<title>Node1&#45;&gt;Node4</title>
<g id="a_edge3_Node000001_Node000004"><a xlink:title=" ">
<path fill="none" stroke="#63b8ff" d="M117.48,-108.85C123.5,-91.9 137.24,-53.21 145.61,-29.65"/>
<polygon fill="#63b8ff" stroke="#63b8ff" points="148.87,-30.93 148.92,-20.33 142.28,-28.58 148.87,-30.93"/>
</a>
</g>
</g>
<!-- Node5 -->
<g id="Node000005" class="node">
<title>Node5</title>
<g id="a_Node000005"><a xlink:href="typedefs_8h.html" target="_top" xlink:title="Contains typedefs for the library.">
<polygon fill="white" stroke="#666666" points="307.25,-73 169.75,-73 169.75,-54.5 307.25,-54.5 307.25,-73"/>
<text text-anchor="middle" x="238.5" y="-59.5" font-family="Helvetica,sans-Serif" font-size="10.00">CoverageControl/typedefs.h</text>
</a>
</g>
</g>
<!-- Node1&#45;&gt;Node5 -->
<g id="edge4_Node000001_Node000005" class="edge">
<title>Node1&#45;&gt;Node5</title>
<g id="a_edge4_Node000001_Node000005"><a xlink:title=" ">
<path fill="none" stroke="#63b8ff" d="M134.98,-108.58C154.72,-100.22 184.86,-87.46 207.54,-77.86"/>
<polygon fill="#63b8ff" stroke="#63b8ff" points="208.76,-81.14 216.6,-74.02 206.03,-74.7 208.76,-81.14"/>
</a>
</g>
</g>
<!-- Node5&#45;&gt;Node4 -->
<g id="edge7_Node000005_Node000004" class="edge">
<title>Node5&#45;&gt;Node4</title>
<g id="a_edge7_Node000005_Node000004"><a xlink:title=" ">
<path fill="none" stroke="#63b8ff" d="M224.3,-54.08C211.23,-46.1 191.59,-34.11 176.15,-24.69"/>
<polygon fill="#63b8ff" stroke="#63b8ff" points="178.37,-21.94 168.01,-19.72 174.73,-27.92 178.37,-21.94"/>
</a>
</g>
</g>
<!-- Node6 -->
<g id="Node000006" class="node">
<title>Node6</title>
<g id="a_Node000006"><a xlink:title=" ">
<polygon fill="#e0e0e0" stroke="#999999" points="268.62,-18.5 196.38,-18.5 196.38,0 268.62,0 268.62,-18.5"/>
<text text-anchor="middle" x="232.5" y="-5" font-family="Helvetica,sans-Serif" font-size="10.00">Eigen/Dense</text>
</a>
</g>
</g>
<!-- Node5&#45;&gt;Node6 -->
<g id="edge5_Node000005_Node000006" class="edge">
<title>Node5&#45;&gt;Node6</title>
<g id="a_edge5_Node000005_Node000006"><a xlink:title=" ">
<path fill="none" stroke="#63b8ff" d="M237.51,-54.08C236.77,-47.58 235.72,-38.42 234.78,-30.16"/>
<polygon fill="#63b8ff" stroke="#63b8ff" points="238.26,-29.8 233.64,-20.26 231.3,-30.59 238.26,-29.8"/>
</a>
</g>
</g>
<!-- Node7 -->
<g id="Node000007" class="node">
<title>Node7</title>
<g id="a_Node000007"><a xlink:title=" ">
<polygon fill="#e0e0e0" stroke="#999999" points="328.62,-18.5 286.38,-18.5 286.38,0 328.62,0 328.62,-18.5"/>
<text text-anchor="middle" x="307.5" y="-5" font-family="Helvetica,sans-Serif" font-size="10.00">queue</text>
</a>
</g>
</g>
<!-- Node5&#45;&gt;Node7 -->
<g id="edge6_Node000005_Node000007" class="edge">
<title>Node5&#45;&gt;Node7</title>
<g id="a_edge6_Node000005_Node000007"><a xlink:title=" ">
<path fill="none" stroke="#63b8ff" d="M249.89,-54.08C260.04,-46.36 275.13,-34.88 287.31,-25.61"/>
<polygon fill="#63b8ff" stroke="#63b8ff" points="289.27,-28.52 295.11,-19.67 285.04,-22.94 289.27,-28.52"/>
</a>
</g>
</g>
</g>
</svg>
</svg>

<style type='text/css'>
<![CDATA[
[data-mouse-over-selected='false'] { opacity: 0.7; }
[data-mouse-over-selected='true']  { opacity: 1.0; }
]]>
</style>
<script type="application/ecmascript"><![CDATA[
document.addEventListener('DOMContentLoaded', (event) => {
  highlightEdges();
  highlightAdjacentNodes();
});
]]></script>
</svg>
