<?xml version="1.0" encoding="UTF-8" standalone="no"?>
<!DOCTYPE svg PUBLIC "-//W3C//DTD SVG 1.1//EN"
 "http://www.w3.org/Graphics/SVG/1.1/DTD/svg11.dtd">
<!-- Generated by graphviz version 10.0.1 (0)
 -->
<!-- Title: voronoi.h Pages: 1 -->
<svg width="595pt" height="136pt"
 viewBox="0.00 0.00 594.78 135.50" xmlns="http://www.w3.org/2000/svg" xmlns:xlink="http://www.w3.org/1999/xlink">
<g id="graph0" class="graph" transform="scale(1 1) rotate(0) translate(4 131.5)">
<title>voronoi.h</title>
<!-- Node1 -->
<g id="Node000001" class="node">
<title>Node1</title>
<g id="a_Node000001"><a xlink:title="Class for computing Voronoi cells.">
<polygon fill="#999999" stroke="#666666" points="203.16,-127.5 148.16,-127.5 148.16,-109 203.16,-109 203.16,-127.5"/>
<text text-anchor="middle" x="175.66" y="-114" font-family="Helvetica,sans-Serif" font-size="10.00">voronoi.h</text>
</a>
</g>
</g>
<!-- Node2 -->
<g id="Node000002" class="node">
<title>Node2</title>
<g id="a_Node000002"><a xlink:title=" ">
<polygon fill="#e0e0e0" stroke="#999999" points="54.16,-18.5 11.16,-18.5 11.16,0 54.16,0 54.16,-18.5"/>
<text text-anchor="middle" x="32.66" y="-5" font-family="Helvetica,sans-Serif" font-size="10.00">cmath</text>
</a>
</g>
</g>
<!-- Node1&#45;&gt;Node2 -->
<g id="edge1_Node000001_Node000002" class="edge">
<title>Node1&#45;&gt;Node2</title>
<g id="a_edge1_Node000001_Node000002"><a xlink:title=" ">
<path fill="none" stroke="#63b8ff" d="M147.85,-114.15C104.03,-108.62 22.07,-95.49 4.66,-73 -6.14,-59.05 4.88,-40.28 16.11,-26.91"/>
<polygon fill="#63b8ff" stroke="#63b8ff" points="18.48,-29.51 22.64,-19.76 13.31,-24.79 18.48,-29.51"/>
</a>
</g>
</g>
<!-- Node3 -->
<g id="Node000003" class="node">
<title>Node3</title>
<g id="a_Node000003"><a xlink:title=" ">
<polygon fill="#e0e0e0" stroke="#999999" points="67.41,-73 13.91,-73 13.91,-54.5 67.41,-54.5 67.41,-73"/>
<text text-anchor="middle" x="40.66" y="-59.5" font-family="Helvetica,sans-Serif" font-size="10.00">iostream</text>
</a>
</g>
</g>
<!-- Node1&#45;&gt;Node3 -->
<g id="edge2_Node000001_Node000003" class="edge">
<title>Node1&#45;&gt;Node3</title>
<g id="a_edge2_Node000001_Node000003"><a xlink:title=" ">
<path fill="none" stroke="#63b8ff" d="M153.36,-108.58C131.67,-100.15 98.45,-87.23 73.69,-77.6"/>
<polygon fill="#63b8ff" stroke="#63b8ff" points="74.98,-74.34 64.39,-73.98 72.44,-80.87 74.98,-74.34"/>
</a>
</g>
</g>
<!-- Node4 -->
<g id="Node000004" class="node">
<title>Node4</title>
<g id="a_Node000004"><a xlink:title=" ">
<polygon fill="#e0e0e0" stroke="#999999" points="137.66,-73 85.66,-73 85.66,-54.5 137.66,-54.5 137.66,-73"/>
<text text-anchor="middle" x="111.66" y="-59.5" font-family="Helvetica,sans-Serif" font-size="10.00">memory</text>
</a>
</g>
</g>
<!-- Node1&#45;&gt;Node4 -->
<g id="edge3_Node000001_Node000004" class="edge">
<title>Node1&#45;&gt;Node4</title>
<g id="a_edge3_Node000001_Node000004"><a xlink:title=" ">
<path fill="none" stroke="#63b8ff" d="M165.09,-108.58C155.77,-100.94 141.96,-89.61 130.72,-80.38"/>
<polygon fill="#63b8ff" stroke="#63b8ff" points="133.15,-77.85 123.2,-74.22 128.71,-83.27 133.15,-77.85"/>
</a>
</g>
</g>
<!-- Node5 -->
<g id="Node000005" class="node">
<title>Node5</title>
<g id="a_Node000005"><a xlink:title=" ">
<polygon fill="#e0e0e0" stroke="#999999" points="195.28,-73 156.03,-73 156.03,-54.5 195.28,-54.5 195.28,-73"/>
<text text-anchor="middle" x="175.66" y="-59.5" font-family="Helvetica,sans-Serif" font-size="10.00">utility</text>
</a>
</g>
</g>
<!-- Node1&#45;&gt;Node5 -->
<g id="edge4_Node000001_Node000005" class="edge">
<title>Node1&#45;&gt;Node5</title>
<g id="a_edge4_Node000001_Node000005"><a xlink:title=" ">
<path fill="none" stroke="#63b8ff" d="M175.66,-108.58C175.66,-102.08 175.66,-92.92 175.66,-84.66"/>
<polygon fill="#63b8ff" stroke="#63b8ff" points="179.16,-84.77 175.66,-74.77 172.16,-84.77 179.16,-84.77"/>
</a>
</g>
</g>
<!-- Node6 -->
<g id="Node000006" class="node">
<title>Node6</title>
<g id="a_Node000006"><a xlink:title=" ">
<polygon fill="#e0e0e0" stroke="#999999" points="431.78,-18.5 389.53,-18.5 389.53,0 431.78,0 431.78,-18.5"/>
<text text-anchor="middle" x="410.66" y="-5" font-family="Helvetica,sans-Serif" font-size="10.00">vector</text>
</a>
</g>
</g>
<!-- Node1&#45;&gt;Node6 -->
<g id="edge5_Node000001_Node000006" class="edge">
<title>Node1&#45;&gt;Node6</title>
<g id="a_edge5_Node000001_Node000006"><a xlink:title=" ">
<path fill="none" stroke="#63b8ff" d="M203.34,-116.66C242.38,-114.6 314.47,-106.17 364.66,-73 381.19,-62.07 393.89,-43.05 401.71,-28.8"/>
<polygon fill="#63b8ff" stroke="#63b8ff" points="404.78,-30.49 406.23,-20 398.55,-27.3 404.78,-30.49"/>
</a>
</g>
</g>
<!-- Node7 -->
<g id="Node000007" class="node">
<title>Node7</title>
<g id="a_Node000007"><a xlink:href="constants_8h.html" target="_top" xlink:title="Constants for the CoverageControl library.">
<polygon fill="white" stroke="#666666" points="356.03,-73 213.28,-73 213.28,-54.5 356.03,-54.5 356.03,-73"/>
<text text-anchor="middle" x="284.66" y="-59.5" font-family="Helvetica,sans-Serif" font-size="10.00">CoverageControl/constants.h</text>
</a>
</g>
</g>
<!-- Node1&#45;&gt;Node7 -->
<g id="edge6_Node000001_Node000007" class="edge">
<title>Node1&#45;&gt;Node7</title>
<g id="a_edge6_Node000001_Node000007"><a xlink:title=" ">
<path fill="none" stroke="#63b8ff" d="M193.65,-108.58C210.7,-100.37 236.55,-87.92 256.35,-78.39"/>
<polygon fill="#63b8ff" stroke="#63b8ff" points="257.78,-81.58 265.27,-74.09 254.74,-75.28 257.78,-81.58"/>
</a>
</g>
</g>
<!-- Node11 -->
<g id="Node000011" class="node">
<title>Node11</title>
<g id="a_Node000011"><a xlink:href="typedefs_8h.html" target="_top" xlink:title="Contains typedefs for the library.">
<polygon fill="white" stroke="#666666" points="549.41,-73 411.91,-73 411.91,-54.5 549.41,-54.5 549.41,-73"/>
<text text-anchor="middle" x="480.66" y="-59.5" font-family="Helvetica,sans-Serif" font-size="10.00">CoverageControl/typedefs.h</text>
</a>
</g>
</g>
<!-- Node1&#45;&gt;Node11 -->
<g id="edge11_Node000001_Node000011" class="edge">
<title>Node1&#45;&gt;Node11</title>
<g id="a_edge11_Node000001_Node000011"><a xlink:title=" ">
<path fill="none" stroke="#63b8ff" d="M203.53,-112.45C252.05,-104.1 353.1,-86.71 418.84,-75.39"/>
<polygon fill="#63b8ff" stroke="#63b8ff" points="419.13,-78.89 428.39,-73.75 417.94,-71.99 419.13,-78.89"/>
</a>
</g>
</g>
<!-- Node7&#45;&gt;Node2 -->
<g id="edge7_Node000007_Node000002" class="edge">
<title>Node7&#45;&gt;Node2</title>
<g id="a_edge7_Node000007_Node000002"><a xlink:title=" ">
<path fill="none" stroke="#63b8ff" d="M242.76,-54.02C193.04,-43.66 111.17,-26.61 65.69,-17.13"/>
<polygon fill="#63b8ff" stroke="#63b8ff" points="66.41,-13.71 55.91,-15.09 64.98,-20.56 66.41,-13.71"/>
</a>
</g>
</g>
<!-- Node8 -->
<g id="Node000008" class="node">
<title>Node8</title>
<g id="a_Node000008"><a xlink:title=" ">
<polygon fill="#e0e0e0" stroke="#999999" points="304.28,-18.5 265.03,-18.5 265.03,0 304.28,0 304.28,-18.5"/>
<text text-anchor="middle" x="284.66" y="-5" font-family="Helvetica,sans-Serif" font-size="10.00">limits</text>
</a>
</g>
</g>
<!-- Node7&#45;&gt;Node8 -->
<g id="edge8_Node000007_Node000008" class="edge">
<title>Node7&#45;&gt;Node8</title>
<g id="a_edge8_Node000007_Node000008"><a xlink:title=" ">
<path fill="none" stroke="#63b8ff" d="M284.66,-54.08C284.66,-47.58 284.66,-38.42 284.66,-30.16"/>
<polygon fill="#63b8ff" stroke="#63b8ff" points="288.16,-30.27 284.66,-20.27 281.16,-30.27 288.16,-30.27"/>
</a>
</g>
</g>
<!-- Node9 -->
<g id="Node000009" class="node">
<title>Node9</title>
<g id="a_Node000009"><a xlink:title=" ">
<polygon fill="#e0e0e0" stroke="#999999" points="362.66,-18.5 322.66,-18.5 322.66,0 362.66,0 362.66,-18.5"/>
<text text-anchor="middle" x="342.66" y="-5" font-family="Helvetica,sans-Serif" font-size="10.00">string</text>
</a>
</g>
</g>
<!-- Node7&#45;&gt;Node9 -->
<g id="edge9_Node000007_Node000009" class="edge">
<title>Node7&#45;&gt;Node9</title>
<g id="a_edge9_Node000007_Node000009"><a xlink:title=" ">
<path fill="none" stroke="#63b8ff" d="M294.23,-54.08C302.51,-46.59 314.69,-35.56 324.77,-26.44"/>
<polygon fill="#63b8ff" stroke="#63b8ff" points="327.07,-29.08 332.13,-19.77 322.37,-23.89 327.07,-29.08"/>
</a>
</g>
</g>
<!-- Node10 -->
<g id="Node000010" class="node">
<title>Node10</title>
<g id="a_Node000010"><a xlink:title=" ">
<polygon fill="#e0e0e0" stroke="#999999" points="246.91,-18.5 118.41,-18.5 118.41,0 246.91,0 246.91,-18.5"/>
<text text-anchor="middle" x="182.66" y="-5" font-family="Helvetica,sans-Serif" font-size="10.00">CoverageControl/Config.h</text>
</a>
</g>
</g>
<!-- Node7&#45;&gt;Node10 -->
<g id="edge10_Node000007_Node000010" class="edge">
<title>Node7&#45;&gt;Node10</title>
<g id="a_edge10_Node000007_Node000010"><a xlink:title=" ">
<path fill="none" stroke="#63b8ff" d="M267.81,-54.08C252.01,-45.95 228.12,-33.65 209.66,-24.15"/>
<polygon fill="#63b8ff" stroke="#63b8ff" points="211.36,-21.09 200.87,-19.62 208.16,-27.31 211.36,-21.09"/>
</a>
</g>
</g>
<!-- Node11&#45;&gt;Node6 -->
<g id="edge14_Node000011_Node000006" class="edge">
<title>Node11&#45;&gt;Node6</title>
<g id="a_edge14_Node000011_Node000006"><a xlink:title=" ">
<path fill="none" stroke="#63b8ff" d="M469.1,-54.08C458.8,-46.36 443.5,-34.88 431.13,-25.61"/>
<polygon fill="#63b8ff" stroke="#63b8ff" points="433.31,-22.87 423.21,-19.67 429.11,-28.47 433.31,-22.87"/>
</a>
</g>
</g>
<!-- Node12 -->
<g id="Node000012" class="node">
<title>Node12</title>
<g id="a_Node000012"><a xlink:title=" ">
<polygon fill="#e0e0e0" stroke="#999999" points="586.78,-18.5 514.53,-18.5 514.53,0 586.78,0 586.78,-18.5"/>
<text text-anchor="middle" x="550.66" y="-5" font-family="Helvetica,sans-Serif" font-size="10.00">Eigen/Dense</text>
</a>
</g>
</g>
<!-- Node11&#45;&gt;Node12 -->
<g id="edge12_Node000011_Node000012" class="edge">
<title>Node11&#45;&gt;Node12</title>
<g id="a_edge12_Node000011_Node000012"><a xlink:title=" ">
<path fill="none" stroke="#63b8ff" d="M492.21,-54.08C502.51,-46.36 517.81,-34.88 530.18,-25.61"/>
<polygon fill="#63b8ff" stroke="#63b8ff" points="532.2,-28.47 538.1,-19.67 528,-22.87 532.2,-28.47"/>
</a>
</g>
</g>
<!-- Node13 -->
<g id="Node000013" class="node">
<title>Node13</title>
<g id="a_Node000013"><a xlink:title=" ">
<polygon fill="#e0e0e0" stroke="#999999" points="496.78,-18.5 454.53,-18.5 454.53,0 496.78,0 496.78,-18.5"/>
<text text-anchor="middle" x="475.66" y="-5" font-family="Helvetica,sans-Serif" font-size="10.00">queue</text>
</a>
</g>
</g>
<!-- Node11&#45;&gt;Node13 -->
<g id="edge13_Node000011_Node000013" class="edge">
<title>Node11&#45;&gt;Node13</title>
<g id="a_edge13_Node000011_Node000013"><a xlink:title=" ">
<path fill="none" stroke="#63b8ff" d="M479.83,-54.08C479.21,-47.58 478.34,-38.42 477.55,-30.16"/>
<polygon fill="#63b8ff" stroke="#63b8ff" points="481.04,-29.89 476.61,-20.26 474.07,-30.55 481.04,-29.89"/>
</a>
</g>
</g>
</g>
</svg>
