<?xml version="1.0" encoding="UTF-8" standalone="no"?>
<!DOCTYPE svg PUBLIC "-//W3C//DTD SVG 1.1//EN"
 "http://www.w3.org/Graphics/SVG/1.1/DTD/svg11.dtd">
<!-- Generated by graphviz version 10.0.1 (0)
 -->
<!-- Title: world_idf.h Pages: 1 -->
<!--zoomable 201 -->

<svg id="main" version="1.1" xmlns="http://www.w3.org/2000/svg" xmlns:xlink="http://www.w3.org/1999/xlink" xml:space="preserve" onload="init(evt)">
<style type="text/css"><![CDATA[
.node, .edge {opacity: 0.7;}
.node.selected, .edge.selected {opacity: 1;}
.edge:hover path { stroke: red; }
.edge:hover polygon { stroke: red; fill: red; }
]]></style>

<defs>
  <circle id="rim" cx="0" cy="0" r="7"/>
  <circle id="rim2" cx="0" cy="0" r="3.5"/>
  <g id="zoomPlus">
    <use xlink:href="#rim" fill="#404040"><set attributeName="fill" to="#808080" begin="zoomplus.mouseover" end="zoomplus.mouseout"/></use>
    <path d="M-4,0h8M0,-4v8" fill="none" stroke="white" stroke-width="1.5" pointer-events="none"/>
  </g>
  <g id="zoomMin">
    <use xlink:href="#rim" fill="#404040"><set attributeName="fill" to="#808080" begin="zoomminus.mouseover" end="zoomminus.mouseout"/></use>
    <path d="M-4,0h8" fill="none" stroke="white" stroke-width="1.5" pointer-events="none"/>
  </g>
  <g id="arrowUp" transform="translate(30 24)">
    <use xlink:href="#rim"/>
    <path pointer-events="none" fill="none" stroke="white" stroke-width="1.5" d="M0,-3.0v7 M-2.5,-0.5L0,-3.0L2.5,-0.5"/>
  </g>
  <g id="arrowRight" transform="rotate(90) translate(36 -43)">
    <use xlink:href="#rim"/>
    <path pointer-events="none" fill="none" stroke="white" stroke-width="1.5" d="M0,-3.0v7 M-2.5,-0.5L0,-3.0L2.5,-0.5"/>
  </g>
  <g id="arrowDown" transform="rotate(180) translate(-30 -48)">
    <use xlink:href="#rim"/>
    <path pointer-events="none" fill="none" stroke="white" stroke-width="1.5" d="M0,-3.0v7 M-2.5,-0.5L0,-3.0L2.5,-0.5"/>
  </g>
  <g id="arrowLeft" transform="rotate(270) translate(-36 17)">
    <use xlink:href="#rim"/>
    <path pointer-events="none" fill="none" stroke="white" stroke-width="1.5" d="M0,-3.0v7 M-2.5,-0.5L0,-3.0L2.5,-0.5"/>
  </g>
  <g id="resetDef">
    <use xlink:href="#rim2" fill="#404040"><set attributeName="fill" to="#808080" begin="reset.mouseover" end="reset.mouseout"/></use>
  </g>
</defs>
<script type="application/ecmascript">
var viewWidth = 937;
var viewHeight = 201;
var sectionId = 'dynsection-0';
</script>
<script type="application/ecmascript" xlink:href="svg.min.js"/>
<svg id="graph" class="graph">
<g id="viewport">
<title>world_idf.h</title>
<!-- Node1 -->
<g id="Node000001" class="node">
<title>Node1</title>
<g id="a_Node000001"><a xlink:title="Contains the class for Importance Density Function (IDF) for the world.">
<polygon fill="#999999" stroke="#666666" points="464,-192.5 402.25,-192.5 402.25,-174 464,-174 464,-192.5"/>
<text text-anchor="middle" x="433.12" y="-179" font-family="Helvetica,sans-Serif" font-size="10.00">world_idf.h</text>
</a>
</g>
</g>
<!-- Node2 -->
<g id="Node000002" class="node">
<title>Node2</title>
<g id="a_Node000002"><a xlink:title=" ">
<polygon fill="#e0e0e0" stroke="#999999" points="72.25,-18.5 0,-18.5 0,0 72.25,0 72.25,-18.5"/>
<text text-anchor="middle" x="36.12" y="-5" font-family="Helvetica,sans-Serif" font-size="10.00">Eigen/Dense</text>
</a>
</g>
</g>
<!-- Node1&#45;&gt;Node2 -->
<g id="edge1_Node000001_Node000002" class="edge">
<title>Node1&#45;&gt;Node2</title>
<g id="a_edge1_Node000001_Node000002"><a xlink:title=" ">
<path fill="none" stroke="#63b8ff" d="M402,-180.97C329.39,-177.53 151.03,-166.37 99.12,-138 65.92,-119.85 59.37,-107.64 44.12,-73 38.15,-59.43 36.26,-42.72 35.8,-29.96"/>
<polygon fill="#63b8ff" stroke="#63b8ff" points="39.3,-30.26 35.73,-20.29 32.3,-30.31 39.3,-30.26"/>
</a>
</g>
</g>
<!-- Node3 -->
<g id="Node000003" class="node">
<title>Node3</title>
<g id="a_Node000003"><a xlink:title=" ">
<polygon fill="#e0e0e0" stroke="#999999" points="928.62,-132.75 879.62,-132.75 879.62,-114.25 928.62,-114.25 928.62,-132.75"/>
<text text-anchor="middle" x="904.12" y="-119.25" font-family="Helvetica,sans-Serif" font-size="10.00">fstream</text>
</a>
</g>
</g>
<!-- Node1&#45;&gt;Node3 -->
<g id="edge2_Node000001_Node000003" class="edge">
<title>Node1&#45;&gt;Node3</title>
<g id="a_edge2_Node000001_Node000003"><a xlink:title=" ">
<path fill="none" stroke="#63b8ff" d="M464.42,-181.52C536.14,-179.3 717.53,-170.64 865.12,-138 867.14,-137.56 869.19,-137.04 871.24,-136.48"/>
<polygon fill="#63b8ff" stroke="#63b8ff" points="872.14,-139.86 880.66,-133.56 870.07,-133.17 872.14,-139.86"/>
</a>
</g>
</g>
<!-- Node4 -->
<g id="Node000004" class="node">
<title>Node4</title>
<g id="a_Node000004"><a xlink:title=" ">
<polygon fill="#e0e0e0" stroke="#999999" points="359.88,-18.5 306.38,-18.5 306.38,0 359.88,0 359.88,-18.5"/>
<text text-anchor="middle" x="333.12" y="-5" font-family="Helvetica,sans-Serif" font-size="10.00">iostream</text>
</a>
</g>
</g>
<!-- Node1&#45;&gt;Node4 -->
<g id="edge3_Node000001_Node000004" class="edge">
<title>Node1&#45;&gt;Node4</title>
<g id="a_edge3_Node000001_Node000004"><a xlink:title=" ">
<path fill="none" stroke="#63b8ff" d="M401.82,-180.19C373.65,-176.49 333.75,-166.23 314.12,-138 291.17,-104.97 309.71,-55.51 322.87,-28.86"/>
<polygon fill="#63b8ff" stroke="#63b8ff" points="325.82,-30.77 327.34,-20.29 319.61,-27.53 325.82,-30.77"/>
</a>
</g>
</g>
<!-- Node5 -->
<g id="Node000005" class="node">
<title>Node5</title>
<g id="a_Node000005"><a xlink:title=" ">
<polygon fill="#e0e0e0" stroke="#999999" points="762.12,-18.5 722.12,-18.5 722.12,0 762.12,0 762.12,-18.5"/>
<text text-anchor="middle" x="742.12" y="-5" font-family="Helvetica,sans-Serif" font-size="10.00">string</text>
</a>
</g>
</g>
<!-- Node1&#45;&gt;Node5 -->
<g id="edge4_Node000001_Node000005" class="edge">
<title>Node1&#45;&gt;Node5</title>
<g id="a_edge4_Node000001_Node000005"><a xlink:title=" ">
<path fill="none" stroke="#63b8ff" d="M464.34,-179.41C508.77,-174.64 592.28,-162.99 659.12,-138 713.4,-117.72 743.12,-123.15 772.12,-73 780.78,-58.03 770.36,-40.17 759.5,-27.34"/>
<polygon fill="#63b8ff" stroke="#63b8ff" points="762.17,-25.07 752.81,-20.11 757.03,-29.82 762.17,-25.07"/>
</a>
</g>
</g>
<!-- Node6 -->
<g id="Node000006" class="node">
<title>Node6</title>
<g id="a_Node000006"><a xlink:title=" ">
<polygon fill="#e0e0e0" stroke="#999999" points="240.25,-18.5 198,-18.5 198,0 240.25,0 240.25,-18.5"/>
<text text-anchor="middle" x="219.12" y="-5" font-family="Helvetica,sans-Serif" font-size="10.00">vector</text>
</a>
</g>
</g>
<!-- Node1&#45;&gt;Node6 -->
<g id="edge5_Node000001_Node000006" class="edge">
<title>Node1&#45;&gt;Node6</title>
<g id="a_edge5_Node000001_Node000006"><a xlink:title=" ">
<path fill="none" stroke="#63b8ff" d="M401.79,-177.97C372.88,-172.7 330.03,-161.38 300.12,-138 262.82,-108.84 237.88,-57.38 226.4,-29.5"/>
<polygon fill="#63b8ff" stroke="#63b8ff" points="229.66,-28.25 222.74,-20.23 223.15,-30.81 229.66,-28.25"/>
</a>
</g>
</g>
<!-- Node7 -->
<g id="Node000007" class="node">
<title>Node7</title>
<g id="a_Node000007"><a xlink:title=" ">
<polygon fill="#e0e0e0" stroke="#999999" points="909.88,-18.5 784.38,-18.5 784.38,0 909.88,0 909.88,-18.5"/>
<text text-anchor="middle" x="847.12" y="-5" font-family="Helvetica,sans-Serif" font-size="10.00">CoverageControlConfig.h</text>
</a>
</g>
</g>
<!-- Node1&#45;&gt;Node7 -->
<g id="edge6_Node000001_Node000007" class="edge">
<title>Node1&#45;&gt;Node7</title>
<g id="a_edge6_Node000001_Node000007"><a xlink:title=" ">
<path fill="none" stroke="#63b8ff" d="M464.17,-182.86C517.62,-182.74 629.36,-177.3 713.12,-138 767.29,-112.58 813.53,-56.59 834.74,-27.92"/>
<polygon fill="#63b8ff" stroke="#63b8ff" points="837.49,-30.09 840.5,-19.93 831.81,-25.99 837.49,-30.09"/>
</a>
</g>
</g>
<!-- Node8 -->
<g id="Node000008" class="node">
<title>Node8</title>
<g id="a_Node000008"><a xlink:href="bivariate__normal__distribution_8h.html" target="_top" xlink:title="Class for Bivariate Normal Distribution.">
<polygon fill="white" stroke="#666666" points="451,-138 323.25,-138 323.25,-109 451,-109 451,-138"/>
<text text-anchor="start" x="331.25" y="-124.5" font-family="Helvetica,sans-Serif" font-size="10.00">CoverageControl/bivariate</text>
<text text-anchor="middle" x="387.12" y="-114" font-family="Helvetica,sans-Serif" font-size="10.00">_normal_distribution.h</text>
</a>
</g>
</g>
<!-- Node1&#45;&gt;Node8 -->
<g id="edge7_Node000001_Node000008" class="edge">
<title>Node1&#45;&gt;Node8</title>
<g id="a_edge7_Node000001_Node000008"><a xlink:title=" ">
<path fill="none" stroke="#63b8ff" d="M426.34,-173.73C420.79,-166.76 412.68,-156.58 405.27,-147.29"/>
<polygon fill="#63b8ff" stroke="#63b8ff" points="408.13,-145.26 399.17,-139.62 402.66,-149.62 408.13,-145.26"/>
</a>
</g>
</g>
<!-- Node10 -->
<g id="Node000010" class="node">
<title>Node10</title>
<g id="a_Node000010"><a xlink:href="constants_8h.html" target="_top" xlink:title="Constants for the CoverageControl library.">
<polygon fill="white" stroke="#666666" points="747.5,-73 604.75,-73 604.75,-54.5 747.5,-54.5 747.5,-73"/>
<text text-anchor="middle" x="676.12" y="-59.5" font-family="Helvetica,sans-Serif" font-size="10.00">CoverageControl/constants.h</text>
</a>
</g>
</g>
<!-- Node1&#45;&gt;Node10 -->
<g id="edge27_Node000001_Node000010" class="edge">
<title>Node1&#45;&gt;Node10</title>
<g id="a_edge27_Node000001_Node000010"><a xlink:title=" ">
<path fill="none" stroke="#63b8ff" d="M464.17,-182.9C506.58,-182.26 583.15,-175.44 634.12,-138 652.38,-124.59 663.9,-100.69 670.16,-83.84"/>
<polygon fill="#63b8ff" stroke="#63b8ff" points="673.43,-85.1 673.33,-74.5 666.8,-82.85 673.43,-85.1"/>
</a>
</g>
</g>
<!-- Node12 -->
<g id="Node000012" class="node">
<title>Node12</title>
<g id="a_Node000012"><a xlink:href="parameters_8h.html" target="_top" xlink:title="Contains parameters.">
<polygon fill="white" stroke="#666666" points="548.88,-73 399.38,-73 399.38,-54.5 548.88,-54.5 548.88,-73"/>
<text text-anchor="middle" x="474.12" y="-59.5" font-family="Helvetica,sans-Serif" font-size="10.00">CoverageControl/parameters.h</text>
</a>
</g>
</g>
<!-- Node1&#45;&gt;Node12 -->
<g id="edge32_Node000001_Node000012" class="edge">
<title>Node1&#45;&gt;Node12</title>
<g id="a_edge32_Node000001_Node000012"><a xlink:title=" ">
<path fill="none" stroke="#63b8ff" d="M439.71,-173.59C445.92,-165.01 455,-151.27 460.12,-138 466.9,-120.45 470.49,-99.22 472.34,-84.15"/>
<polygon fill="#63b8ff" stroke="#63b8ff" points="475.77,-84.96 473.34,-74.65 468.81,-84.23 475.77,-84.96"/>
</a>
</g>
</g>
<!-- Node14 -->
<g id="Node000014" class="node">
<title>Node14</title>
<g id="a_Node000014"><a xlink:href="typedefs_8h.html" target="_top" xlink:title="Contains typedefs for the library.">
<polygon fill="white" stroke="#666666" points="190.88,-73 53.38,-73 53.38,-54.5 190.88,-54.5 190.88,-73"/>
<text text-anchor="middle" x="122.12" y="-59.5" font-family="Helvetica,sans-Serif" font-size="10.00">CoverageControl/typedefs.h</text>
</a>
</g>
</g>
<!-- Node1&#45;&gt;Node14 -->
<g id="edge33_Node000001_Node000014" class="edge">
<title>Node1&#45;&gt;Node14</title>
<g id="a_edge33_Node000001_Node000014"><a xlink:title=" ">
<path fill="none" stroke="#63b8ff" d="M401.91,-182.92C328.42,-183.74 147.84,-181.24 110.12,-138 97.05,-123.01 104.11,-99.46 111.77,-83.13"/>
<polygon fill="#63b8ff" stroke="#63b8ff" points="114.74,-85 116.24,-74.51 108.53,-81.78 114.74,-85"/>
</a>
</g>
</g>
<!-- Node16 -->
<g id="Node000016" class="node">
<title>Node16</title>
<g id="a_Node000016"><a xlink:href="polygon__utils_8h.html" target="_top" xlink:title="Provides utilities for polygon manipulation using CGAL.">
<polygon fill="white" stroke="#666666" points="229,-138 119.25,-138 119.25,-109 229,-109 229,-138"/>
<text text-anchor="start" x="127.25" y="-124.5" font-family="Helvetica,sans-Serif" font-size="10.00">CoverageControl/cgal</text>
<text text-anchor="middle" x="174.12" y="-114" font-family="Helvetica,sans-Serif" font-size="10.00">/polygon_utils.h</text>
</a>
</g>
</g>
<!-- Node1&#45;&gt;Node16 -->
<g id="edge24_Node000001_Node000016" class="edge">
<title>Node1&#45;&gt;Node16</title>
<g id="a_edge24_Node000001_Node000016"><a xlink:title=" ">
<path fill="none" stroke="#63b8ff" d="M401.88,-175.28C362.02,-166.4 292.03,-150.79 240.13,-139.22"/>
<polygon fill="#63b8ff" stroke="#63b8ff" points="241.01,-135.83 230.49,-137.07 239.49,-142.66 241.01,-135.83"/>
</a>
</g>
</g>
<!-- Node17 -->
<g id="Node000017" class="node">
<title>Node17</title>
<g id="a_Node000017"><a xlink:href="map__utils_8h.html" target="_top" xlink:title="Utility functions for transforming maps.">
<polygon fill="white" stroke="#666666" points="625.38,-138 514.88,-138 514.88,-109 625.38,-109 625.38,-138"/>
<text text-anchor="start" x="522.88" y="-124.5" font-family="Helvetica,sans-Serif" font-size="10.00">CoverageControl/map</text>
<text text-anchor="middle" x="570.12" y="-114" font-family="Helvetica,sans-Serif" font-size="10.00">_utils.h</text>
</a>
</g>
</g>
<!-- Node1&#45;&gt;Node17 -->
<g id="edge28_Node000001_Node000017" class="edge">
<title>Node1&#45;&gt;Node17</title>
<g id="a_edge28_Node000001_Node000017"><a xlink:title=" ">
<path fill="none" stroke="#63b8ff" d="M453.64,-173.6C472.82,-165.52 502.09,-153.18 526.49,-142.89"/>
<polygon fill="#63b8ff" stroke="#63b8ff" points="527.7,-146.18 535.56,-139.07 524.98,-139.73 527.7,-146.18"/>
</a>
</g>
</g>
<!-- Node8&#45;&gt;Node4 -->
<g id="edge9_Node000008_Node000004" class="edge">
<title>Node8&#45;&gt;Node4</title>
<g id="a_edge9_Node000008_Node000004"><a xlink:title=" ">
<path fill="none" stroke="#63b8ff" d="M377.76,-108.58C371.46,-98.87 363.22,-85.46 357.12,-73 350.21,-58.87 343.92,-42.21 339.51,-29.61"/>
<polygon fill="#63b8ff" stroke="#63b8ff" points="342.92,-28.76 336.4,-20.42 336.29,-31.01 342.92,-28.76"/>
</a>
</g>
</g>
<!-- Node9 -->
<g id="Node000009" class="node">
<title>Node9</title>
<g id="a_Node000009"><a xlink:title=" ">
<polygon fill="#e0e0e0" stroke="#999999" points="581.62,-18.5 538.62,-18.5 538.62,0 581.62,0 581.62,-18.5"/>
<text text-anchor="middle" x="560.12" y="-5" font-family="Helvetica,sans-Serif" font-size="10.00">cmath</text>
</a>
</g>
</g>
<!-- Node8&#45;&gt;Node9 -->
<g id="edge8_Node000008_Node000009" class="edge">
<title>Node8&#45;&gt;Node9</title>
<g id="a_edge8_Node000008_Node000009"><a xlink:title=" ">
<path fill="none" stroke="#63b8ff" d="M383.34,-108.58C380.16,-93.53 377.86,-69.66 390.12,-54.5 398.81,-43.76 480.33,-26.06 527.25,-16.63"/>
<polygon fill="#63b8ff" stroke="#63b8ff" points="527.76,-20.1 536.89,-14.72 526.4,-13.23 527.76,-20.1"/>
</a>
</g>
</g>
<!-- Node8&#45;&gt;Node10 -->
<g id="edge10_Node000008_Node000010" class="edge">
<title>Node8&#45;&gt;Node10</title>
<g id="a_edge10_Node000008_Node000010"><a xlink:title=" ">
<path fill="none" stroke="#63b8ff" d="M451.26,-109.68C502.38,-99.47 573.16,-85.33 621.57,-75.65"/>
<polygon fill="#63b8ff" stroke="#63b8ff" points="622.16,-79.1 631.28,-73.71 620.78,-72.24 622.16,-79.1"/>
</a>
</g>
</g>
<!-- Node8&#45;&gt;Node12 -->
<g id="edge15_Node000008_Node000012" class="edge">
<title>Node8&#45;&gt;Node12</title>
<g id="a_edge15_Node000008_Node000012"><a xlink:title=" ">
<path fill="none" stroke="#63b8ff" d="M408.19,-108.52C421.33,-99.8 438.24,-88.57 451.64,-79.67"/>
<polygon fill="#63b8ff" stroke="#63b8ff" points="453.43,-82.69 459.83,-74.24 449.56,-76.86 453.43,-82.69"/>
</a>
</g>
</g>
<!-- Node8&#45;&gt;Node14 -->
<g id="edge20_Node000008_Node000014" class="edge">
<title>Node8&#45;&gt;Node14</title>
<g id="a_edge20_Node000008_Node000014"><a xlink:title=" ">
<path fill="none" stroke="#63b8ff" d="M322.98,-108.52C277,-98.5 215.89,-85.18 173.2,-75.88"/>
<polygon fill="#63b8ff" stroke="#63b8ff" points="174.22,-72.52 163.7,-73.81 172.73,-79.36 174.22,-72.52"/>
</a>
</g>
</g>
<!-- Node10&#45;&gt;Node5 -->
<g id="edge14_Node000010_Node000005" class="edge">
<title>Node10&#45;&gt;Node5</title>
<g id="a_edge14_Node000010_Node000005"><a xlink:title=" ">
<path fill="none" stroke="#63b8ff" d="M687.02,-54.08C696.63,-46.44 710.87,-35.11 722.47,-25.88"/>
<polygon fill="#63b8ff" stroke="#63b8ff" points="724.6,-28.66 730.24,-19.7 720.24,-23.19 724.6,-28.66"/>
</a>
</g>
</g>
<!-- Node10&#45;&gt;Node7 -->
<g id="edge11_Node000010_Node000007" class="edge">
<title>Node10&#45;&gt;Node7</title>
<g id="a_edge11_Node000010_Node000007"><a xlink:title=" ">
<path fill="none" stroke="#63b8ff" d="M704.36,-54.08C732.7,-45.38 776.58,-31.91 808.21,-22.2"/>
<polygon fill="#63b8ff" stroke="#63b8ff" points="808.87,-25.66 817.4,-19.38 806.81,-18.97 808.87,-25.66"/>
</a>
</g>
</g>
<!-- Node10&#45;&gt;Node9 -->
<g id="edge12_Node000010_Node000009" class="edge">
<title>Node10&#45;&gt;Node9</title>
<g id="a_edge12_Node000010_Node000009"><a xlink:title=" ">
<path fill="none" stroke="#63b8ff" d="M656.97,-54.08C638.67,-45.8 610.81,-33.19 589.67,-23.62"/>
<polygon fill="#63b8ff" stroke="#63b8ff" points="591.24,-20.49 580.69,-19.56 588.35,-26.87 591.24,-20.49"/>
</a>
</g>
</g>
<!-- Node11 -->
<g id="Node000011" class="node">
<title>Node11</title>
<g id="a_Node000011"><a xlink:title=" ">
<polygon fill="#e0e0e0" stroke="#999999" points="695.75,-18.5 656.5,-18.5 656.5,0 695.75,0 695.75,-18.5"/>
<text text-anchor="middle" x="676.12" y="-5" font-family="Helvetica,sans-Serif" font-size="10.00">limits</text>
</a>
</g>
</g>
<!-- Node10&#45;&gt;Node11 -->
<g id="edge13_Node000010_Node000011" class="edge">
<title>Node10&#45;&gt;Node11</title>
<g id="a_edge13_Node000010_Node000011"><a xlink:title=" ">
<path fill="none" stroke="#63b8ff" d="M676.12,-54.08C676.12,-47.58 676.12,-38.42 676.12,-30.16"/>
<polygon fill="#63b8ff" stroke="#63b8ff" points="679.63,-30.27 676.13,-20.27 672.63,-30.27 679.63,-30.27"/>
</a>
</g>
</g>
<!-- Node12&#45;&gt;Node4 -->
<g id="edge18_Node000012_Node000004" class="edge">
<title>Node12&#45;&gt;Node4</title>
<g id="a_edge18_Node000012_Node000004"><a xlink:title=" ">
<path fill="none" stroke="#63b8ff" d="M450.84,-54.08C427.98,-45.57 392.87,-32.49 366.93,-22.84"/>
<polygon fill="#63b8ff" stroke="#63b8ff" points="368.45,-19.67 357.86,-19.46 366.01,-26.23 368.45,-19.67"/>
</a>
</g>
</g>
<!-- Node12&#45;&gt;Node5 -->
<g id="edge19_Node000012_Node000005" class="edge">
<title>Node12&#45;&gt;Node5</title>
<g id="a_edge19_Node000012_Node000005"><a xlink:title=" ">
<path fill="none" stroke="#63b8ff" d="M521.99,-54.02C568.76,-45.38 641.95,-31.59 705.12,-18.5 706.9,-18.13 708.72,-17.75 710.56,-17.35"/>
<polygon fill="#63b8ff" stroke="#63b8ff" points="711.29,-20.78 720.31,-15.22 709.8,-13.94 711.29,-20.78"/>
</a>
</g>
</g>
<!-- Node12&#45;&gt;Node9 -->
<g id="edge16_Node000012_Node000009" class="edge">
<title>Node12&#45;&gt;Node9</title>
<g id="a_edge16_Node000012_Node000009"><a xlink:title=" ">
<path fill="none" stroke="#63b8ff" d="M488.33,-54.08C501.4,-46.1 521.04,-34.11 536.48,-24.69"/>
<polygon fill="#63b8ff" stroke="#63b8ff" points="537.9,-27.92 544.61,-19.72 534.25,-21.94 537.9,-27.92"/>
</a>
</g>
</g>
<!-- Node13 -->
<g id="Node000013" class="node">
<title>Node13</title>
<g id="a_Node000013"><a xlink:title=" ">
<polygon fill="#e0e0e0" stroke="#999999" points="503.88,-18.5 444.38,-18.5 444.38,0 503.88,0 503.88,-18.5"/>
<text text-anchor="middle" x="474.12" y="-5" font-family="Helvetica,sans-Serif" font-size="10.00">filesystem</text>
</a>
</g>
</g>
<!-- Node12&#45;&gt;Node13 -->
<g id="edge17_Node000012_Node000013" class="edge">
<title>Node12&#45;&gt;Node13</title>
<g id="a_edge17_Node000012_Node000013"><a xlink:title=" ">
<path fill="none" stroke="#63b8ff" d="M474.12,-54.08C474.12,-47.58 474.12,-38.42 474.12,-30.16"/>
<polygon fill="#63b8ff" stroke="#63b8ff" points="477.63,-30.27 474.13,-20.27 470.63,-30.27 477.63,-30.27"/>
</a>
</g>
</g>
<!-- Node14&#45;&gt;Node2 -->
<g id="edge21_Node000014_Node000002" class="edge">
<title>Node14&#45;&gt;Node2</title>
<g id="a_edge21_Node000014_Node000002"><a xlink:title=" ">
<path fill="none" stroke="#63b8ff" d="M107.92,-54.08C94.85,-46.1 75.21,-34.11 59.77,-24.69"/>
<polygon fill="#63b8ff" stroke="#63b8ff" points="62,-21.94 51.64,-19.72 58.35,-27.92 62,-21.94"/>
</a>
</g>
</g>
<!-- Node14&#45;&gt;Node6 -->
<g id="edge23_Node000014_Node000006" class="edge">
<title>Node14&#45;&gt;Node6</title>
<g id="a_edge23_Node000014_Node000006"><a xlink:title=" ">
<path fill="none" stroke="#63b8ff" d="M138.14,-54.08C153.17,-45.95 175.89,-33.65 193.44,-24.15"/>
<polygon fill="#63b8ff" stroke="#63b8ff" points="194.62,-27.49 201.75,-19.65 191.29,-21.33 194.62,-27.49"/>
</a>
</g>
</g>
<!-- Node15 -->
<g id="Node000015" class="node">
<title>Node15</title>
<g id="a_Node000015"><a xlink:title=" ">
<polygon fill="#e0e0e0" stroke="#999999" points="143.25,-18.5 101,-18.5 101,0 143.25,0 143.25,-18.5"/>
<text text-anchor="middle" x="122.12" y="-5" font-family="Helvetica,sans-Serif" font-size="10.00">queue</text>
</a>
</g>
</g>
<!-- Node14&#45;&gt;Node15 -->
<g id="edge22_Node000014_Node000015" class="edge">
<title>Node14&#45;&gt;Node15</title>
<g id="a_edge22_Node000014_Node000015"><a xlink:title=" ">
<path fill="none" stroke="#63b8ff" d="M122.12,-54.08C122.12,-47.58 122.12,-38.42 122.12,-30.16"/>
<polygon fill="#63b8ff" stroke="#63b8ff" points="125.63,-30.27 122.13,-20.27 118.63,-30.27 125.63,-30.27"/>
</a>
</g>
</g>
<!-- Node16&#45;&gt;Node6 -->
<g id="edge25_Node000016_Node000006" class="edge">
<title>Node16&#45;&gt;Node6</title>
<g id="a_edge25_Node000016_Node000006"><a xlink:title=" ">
<path fill="none" stroke="#63b8ff" d="M182.37,-108.55C187.89,-98.81 195.05,-85.4 200.12,-73 205.89,-58.94 210.81,-42.48 214.19,-29.94"/>
<polygon fill="#63b8ff" stroke="#63b8ff" points="217.54,-30.98 216.67,-20.42 210.77,-29.22 217.54,-30.98"/>
</a>
</g>
</g>
<!-- Node16&#45;&gt;Node14 -->
<g id="edge26_Node000016_Node000014" class="edge">
<title>Node16&#45;&gt;Node14</title>
<g id="a_edge26_Node000016_Node000014"><a xlink:title=" ">
<path fill="none" stroke="#63b8ff" d="M161.54,-108.52C154.3,-100.48 145.15,-90.32 137.48,-81.81"/>
<polygon fill="#63b8ff" stroke="#63b8ff" points="140.22,-79.62 130.93,-74.53 135.02,-84.3 140.22,-79.62"/>
</a>
</g>
</g>
<!-- Node17&#45;&gt;Node5 -->
<g id="edge30_Node000017_Node000005" class="edge">
<title>Node17&#45;&gt;Node5</title>
<g id="a_edge30_Node000017_Node000005"><a xlink:title=" ">
<path fill="none" stroke="#63b8ff" d="M625.82,-115.2C674.65,-107.53 740.24,-93.66 756.12,-73 765.89,-60.29 760.3,-42.09 753.5,-28.57"/>
<polygon fill="#63b8ff" stroke="#63b8ff" points="756.76,-27.22 748.8,-20.23 750.66,-30.66 756.76,-27.22"/>
</a>
</g>
</g>
<!-- Node17&#45;&gt;Node9 -->
<g id="edge29_Node000017_Node000009" class="edge">
<title>Node17&#45;&gt;Node9</title>
<g id="a_edge29_Node000017_Node000009"><a xlink:title=" ">
<path fill="none" stroke="#63b8ff" d="M568.9,-108.74C567.15,-89.07 563.92,-52.81 561.9,-30.2"/>
<polygon fill="#63b8ff" stroke="#63b8ff" points="565.41,-30.12 561.04,-20.47 558.44,-30.74 565.41,-30.12"/>
</a>
</g>
</g>
<!-- Node17&#45;&gt;Node12 -->
<g id="edge31_Node000017_Node000012" class="edge">
<title>Node17&#45;&gt;Node12</title>
<g id="a_edge31_Node000017_Node000012"><a xlink:title=" ">
<path fill="none" stroke="#63b8ff" d="M546.89,-108.52C532.1,-99.62 512.99,-88.13 498.07,-79.15"/>
<polygon fill="#63b8ff" stroke="#63b8ff" points="500.18,-76.34 489.81,-74.18 496.57,-82.34 500.18,-76.34"/>
</a>
</g>
</g>
</g>
</svg>

<g id="navigator" transform="translate(0 0)" fill="#404254">
  <rect fill="#f2f5e9" fill-opacity="0.5" stroke="#606060" stroke-width=".5" x="0" y="0" width="60" height="60"/>
  <use id="zoomplus" xlink:href="#zoomPlus" x="17" y="9" onmousedown="handleZoom(evt,'in')"/>
  <use id="zoomminus" xlink:href="#zoomMin" x="42" y="9" onmousedown="handleZoom(evt,'out')"/>
  <use id="reset" xlink:href="#resetDef" x="30" y="36" onmousedown="handleReset()"/>
   <use id="arrowup" xlink:href="#arrowUp" x="0" y="0" onmousedown="handlePan(0,-1)"/>
  <use id="arrowright" xlink:href="#arrowRight" x="0" y="0" onmousedown="handlePan(1,0)"/>
  <use id="arrowdown" xlink:href="#arrowDown" x="0" y="0" onmousedown="handlePan(0,1)"/>
  <use id="arrowleft" xlink:href="#arrowLeft" x="0" y="0" onmousedown="handlePan(-1,0)"/>
</g>
<svg viewBox="0 0 15 15" width="100%" height="30px" preserveAspectRatio="xMaxYMin meet">
 <g id="arrow_out" transform="scale(0.3 0.3)">
  <a xlink:href="world__idf_8h__incl_org.svg" target="_base">
   <rect id="button" ry="5" rx="5" y="6" x="6" height="38" width="38"
        fill="#f2f5e9" fill-opacity="0.5" stroke="#606060" stroke-width="1.0"/>
   <path id="arrow"
     d="M 11.500037,31.436501 C 11.940474,20.09759 22.043105,11.32322 32.158766,21.979434 L 37.068811,17.246167 C 37.068811,17.246167 37.088388,32 37.088388,32 L 22.160133,31.978069 C 22.160133,31.978069 26.997745,27.140456 26.997745,27.140456 C 18.528582,18.264221 13.291696,25.230495 11.500037,31.436501 z"
     style="fill:#404040;"/>
  </a>
 </g>
</svg>

<style type='text/css'>
<![CDATA[
[data-mouse-over-selected='false'] { opacity: 0.7; }
[data-mouse-over-selected='true']  { opacity: 1.0; }
]]>
</style>
<script type="application/ecmascript"><![CDATA[
document.addEventListener('DOMContentLoaded', (event) => {
  highlightEdges();
  highlightAdjacentNodes();
});
]]></script>
</svg>
