<?xml version="1.0" encoding="UTF-8" standalone="no"?>
<!DOCTYPE svg PUBLIC "-//W3C//DTD SVG 1.1//EN"
 "http://www.w3.org/Graphics/SVG/1.1/DTD/svg11.dtd">
<!-- Generated by graphviz version 12.1.2 (0)
 -->
<!-- Title: world_idf.h Pages: 1 -->
<svg width="846pt" height="201pt"
 viewBox="0.00 0.00 846.01 200.50" xmlns="http://www.w3.org/2000/svg" xmlns:xlink="http://www.w3.org/1999/xlink">
<g id="graph0" class="graph" transform="scale(1 1) rotate(0) translate(4 196.5)">
<title>world_idf.h</title>
<!-- Node1 -->
<g id="Node000001" class="node">
<title>Node1</title>
<g id="a_Node000001"><a xlink:title="Contains the class for Importance Density Function (IDF) for the world.">
<polygon fill="#999999" stroke="#666666" points="357,-192.5 295.25,-192.5 295.25,-174 357,-174 357,-192.5"/>
<text text-anchor="middle" x="326.12" y="-179" font-family="Helvetica,sans-Serif" font-size="10.00">world_idf.h</text>
</a>
</g>
</g>
<!-- Node2 -->
<g id="Node000002" class="node">
<title>Node2</title>
<g id="a_Node000002"><a xlink:title=" ">
<polygon fill="#e0e0e0" stroke="#999999" points="72.25,-18.5 0,-18.5 0,0 72.25,0 72.25,-18.5"/>
<text text-anchor="middle" x="36.12" y="-5" font-family="Helvetica,sans-Serif" font-size="10.00">Eigen/Dense</text>
</a>
</g>
</g>
<!-- Node1&#45;&gt;Node2 -->
<g id="edge1_Node000001_Node000002" class="edge">
<title>Node1&#45;&gt;Node2</title>
<g id="a_edge1_Node000001_Node000002"><a xlink:title=" ">
<path fill="none" stroke="#63b8ff" d="M294.99,-180.59C231.91,-176.68 91.71,-165.13 53.12,-138 20.07,-114.75 8.99,-94.09 17.12,-54.5 18.94,-45.7 22.58,-36.48 26.19,-28.76"/>
<polygon fill="#63b8ff" stroke="#63b8ff" points="29.19,-30.58 30.57,-20.07 22.94,-27.43 29.19,-30.58"/>
</a>
</g>
</g>
<!-- Node3 -->
<g id="Node000003" class="node">
<title>Node3</title>
<g id="a_Node000003"><a xlink:title=" ">
<polygon fill="#e0e0e0" stroke="#999999" points="87.62,-73 38.62,-73 38.62,-54.5 87.62,-54.5 87.62,-73"/>
<text text-anchor="middle" x="63.12" y="-59.5" font-family="Helvetica,sans-Serif" font-size="10.00">fstream</text>
</a>
</g>
</g>
<!-- Node1&#45;&gt;Node3 -->
<g id="edge2_Node000001_Node000003" class="edge">
<title>Node1&#45;&gt;Node3</title>
<g id="a_edge2_Node000001_Node000003"><a xlink:title=" ">
<path fill="none" stroke="#63b8ff" d="M295.01,-177.09C261.7,-170.81 207.89,-158.42 165.12,-138 133.15,-122.73 100.66,-97.32 81.2,-80.8"/>
<polygon fill="#63b8ff" stroke="#63b8ff" points="83.51,-78.18 73.66,-74.28 78.93,-83.47 83.51,-78.18"/>
</a>
</g>
</g>
<!-- Node4 -->
<g id="Node000004" class="node">
<title>Node4</title>
<g id="a_Node000004"><a xlink:title=" ">
<polygon fill="#e0e0e0" stroke="#999999" points="352.88,-73 299.38,-73 299.38,-54.5 352.88,-54.5 352.88,-73"/>
<text text-anchor="middle" x="326.12" y="-59.5" font-family="Helvetica,sans-Serif" font-size="10.00">iostream</text>
</a>
</g>
</g>
<!-- Node1&#45;&gt;Node4 -->
<g id="edge3_Node000001_Node000004" class="edge">
<title>Node1&#45;&gt;Node4</title>
<g id="a_edge3_Node000001_Node000004"><a xlink:title=" ">
<path fill="none" stroke="#63b8ff" d="M326.12,-173.8C326.12,-155.34 326.12,-111 326.12,-84.9"/>
<polygon fill="#63b8ff" stroke="#63b8ff" points="329.63,-84.95 326.13,-74.95 322.63,-84.95 329.63,-84.95"/>
</a>
</g>
</g>
<!-- Node5 -->
<g id="Node000005" class="node">
<title>Node5</title>
<g id="a_Node000005"><a xlink:title=" ">
<polygon fill="#e0e0e0" stroke="#999999" points="755.12,-73 715.12,-73 715.12,-54.5 755.12,-54.5 755.12,-73"/>
<text text-anchor="middle" x="735.12" y="-59.5" font-family="Helvetica,sans-Serif" font-size="10.00">string</text>
</a>
</g>
</g>
<!-- Node1&#45;&gt;Node5 -->
<g id="edge4_Node000001_Node000005" class="edge">
<title>Node1&#45;&gt;Node5</title>
<g id="a_edge4_Node000001_Node000005"><a xlink:title=" ">
<path fill="none" stroke="#63b8ff" d="M357.21,-182.59C412.53,-182.12 530.75,-176.25 621.12,-138 640.69,-129.72 641.47,-120.81 659.12,-109 675.26,-98.21 694.11,-87.22 709.01,-78.89"/>
<polygon fill="#63b8ff" stroke="#63b8ff" points="710.67,-81.97 717.73,-74.07 707.28,-75.85 710.67,-81.97"/>
</a>
</g>
</g>
<!-- Node6 -->
<g id="Node000006" class="node">
<title>Node6</title>
<g id="a_Node000006"><a xlink:title=" ">
<polygon fill="#e0e0e0" stroke="#999999" points="225.25,-18.5 183,-18.5 183,0 225.25,0 225.25,-18.5"/>
<text text-anchor="middle" x="204.12" y="-5" font-family="Helvetica,sans-Serif" font-size="10.00">vector</text>
</a>
</g>
</g>
<!-- Node1&#45;&gt;Node6 -->
<g id="edge5_Node000001_Node000006" class="edge">
<title>Node1&#45;&gt;Node6</title>
<g id="a_edge5_Node000001_Node000006"><a xlink:title=" ">
<path fill="none" stroke="#63b8ff" d="M295.22,-182.99C229.39,-182.6 77.44,-170.77 29.12,-73 -9.74,5.64 48.93,-47.15 171.62,-18.94"/>
<polygon fill="#63b8ff" stroke="#63b8ff" points="172.17,-22.41 181.04,-16.62 170.5,-15.61 172.17,-22.41"/>
</a>
</g>
</g>
<!-- Node7 -->
<g id="Node000007" class="node">
<title>Node7</title>
<g id="a_Node000007"><a xlink:title=" ">
<polygon fill="#e0e0e0" stroke="#999999" points="751.38,-18.5 622.88,-18.5 622.88,0 751.38,0 751.38,-18.5"/>
<text text-anchor="middle" x="687.12" y="-5" font-family="Helvetica,sans-Serif" font-size="10.00">CoverageControl/Config.h</text>
</a>
</g>
</g>
<!-- Node1&#45;&gt;Node7 -->
<g id="edge6_Node000001_Node000007" class="edge">
<title>Node1&#45;&gt;Node7</title>
<g id="a_edge6_Node000001_Node000007"><a xlink:title=" ">
<path fill="none" stroke="#63b8ff" d="M357.39,-181.88C462.05,-180.33 795.36,-172.7 827.12,-138 868.7,-92.59 774.71,-45.32 721.12,-23.16"/>
<polygon fill="#63b8ff" stroke="#63b8ff" points="722.66,-20.01 712.07,-19.51 720.04,-26.5 722.66,-20.01"/>
</a>
</g>
</g>
<!-- Node8 -->
<g id="Node000008" class="node">
<title>Node8</title>
<g id="a_Node000008"><a xlink:href="bivariate__normal__distribution_8h.html" target="_top" xlink:title="Class for Bivariate Normal Distribution.">
<polygon fill="white" stroke="#666666" points="482,-138 354.25,-138 354.25,-109 482,-109 482,-138"/>
<text text-anchor="start" x="362.25" y="-124.5" font-family="Helvetica,sans-Serif" font-size="10.00">CoverageControl/bivariate</text>
<text text-anchor="middle" x="418.12" y="-114" font-family="Helvetica,sans-Serif" font-size="10.00">_normal_distribution.h</text>
</a>
</g>
</g>
<!-- Node1&#45;&gt;Node8 -->
<g id="edge7_Node000001_Node000008" class="edge">
<title>Node1&#45;&gt;Node8</title>
<g id="a_edge7_Node000001_Node000008"><a xlink:title=" ">
<path fill="none" stroke="#63b8ff" d="M339.7,-173.73C351.95,-166.04 370.45,-154.43 386.4,-144.41"/>
<polygon fill="#63b8ff" stroke="#63b8ff" points="388.04,-147.52 394.65,-139.24 384.32,-141.59 388.04,-147.52"/>
</a>
</g>
</g>
<!-- Node12 -->
<g id="Node000012" class="node">
<title>Node12</title>
<g id="a_Node000012"><a xlink:href="typedefs_8h.html" target="_top" xlink:title="Contains typedefs for the library.">
<polygon fill="white" stroke="#666666" points="242.88,-73 105.38,-73 105.38,-54.5 242.88,-54.5 242.88,-73"/>
<text text-anchor="middle" x="174.12" y="-59.5" font-family="Helvetica,sans-Serif" font-size="10.00">CoverageControl/typedefs.h</text>
</a>
</g>
</g>
<!-- Node1&#45;&gt;Node12 -->
<g id="edge32_Node000001_Node000012" class="edge">
<title>Node1&#45;&gt;Node12</title>
<g id="a_edge32_Node000001_Node000012"><a xlink:title=" ">
<path fill="none" stroke="#63b8ff" d="M294.93,-182.53C260.65,-180.98 206.8,-172.69 179.12,-138 167.21,-123.06 167.53,-100.5 169.85,-84.36"/>
<polygon fill="#63b8ff" stroke="#63b8ff" points="173.29,-85.03 171.66,-74.56 166.4,-83.76 173.29,-85.03"/>
</a>
</g>
</g>
<!-- Node14 -->
<g id="Node000014" class="node">
<title>Node14</title>
<g id="a_Node000014"><a xlink:href="cuda__utils_8h.html" target="_top" xlink:title="Utility functions for CUDA.">
<polygon fill="white" stroke="#666666" points="612.5,-138 499.75,-138 499.75,-109 612.5,-109 612.5,-138"/>
<text text-anchor="start" x="507.75" y="-124.5" font-family="Helvetica,sans-Serif" font-size="10.00">CoverageControl/cuda</text>
<text text-anchor="middle" x="556.12" y="-114" font-family="Helvetica,sans-Serif" font-size="10.00">_utils.h</text>
</a>
</g>
</g>
<!-- Node1&#45;&gt;Node14 -->
<g id="edge17_Node000001_Node000014" class="edge">
<title>Node1&#45;&gt;Node14</title>
<g id="a_edge17_Node000001_Node000014"><a xlink:title=" ">
<path fill="none" stroke="#63b8ff" d="M357.14,-174.46C390.87,-165.99 445.79,-152.2 489.39,-141.26"/>
<polygon fill="#63b8ff" stroke="#63b8ff" points="490.19,-144.67 499.03,-138.84 488.48,-137.88 490.19,-144.67"/>
</a>
</g>
</g>
<!-- Node16 -->
<g id="Node000016" class="node">
<title>Node16</title>
<g id="a_Node000016"><a xlink:href="map__utils_8h.html" target="_top" xlink:title="Utility functions for transforming maps.">
<polygon fill="white" stroke="#666666" points="298.38,-138 187.88,-138 187.88,-109 298.38,-109 298.38,-138"/>
<text text-anchor="start" x="195.88" y="-124.5" font-family="Helvetica,sans-Serif" font-size="10.00">CoverageControl/map</text>
<text text-anchor="middle" x="243.12" y="-114" font-family="Helvetica,sans-Serif" font-size="10.00">_utils.h</text>
</a>
</g>
</g>
<!-- Node1&#45;&gt;Node16 -->
<g id="edge23_Node000001_Node000016" class="edge">
<title>Node1&#45;&gt;Node16</title>
<g id="a_edge23_Node000001_Node000016"><a xlink:title=" ">
<path fill="none" stroke="#63b8ff" d="M313.88,-173.73C303.03,-166.18 286.77,-154.86 272.56,-144.98"/>
<polygon fill="#63b8ff" stroke="#63b8ff" points="274.6,-142.14 264.39,-139.3 270.6,-147.88 274.6,-142.14"/>
</a>
</g>
</g>
<!-- Node17 -->
<g id="Node000017" class="node">
<title>Node17</title>
<g id="a_Node000017"><a xlink:href="parameters_8h.html" target="_top" xlink:title="Contains parameters.">
<polygon fill="white" stroke="#666666" points="817.88,-132.75 668.38,-132.75 668.38,-114.25 817.88,-114.25 817.88,-132.75"/>
<text text-anchor="middle" x="743.12" y="-119.25" font-family="Helvetica,sans-Serif" font-size="10.00">CoverageControl/parameters.h</text>
</a>
</g>
</g>
<!-- Node1&#45;&gt;Node17 -->
<g id="edge29_Node000001_Node000017" class="edge">
<title>Node1&#45;&gt;Node17</title>
<g id="a_edge29_Node000001_Node000017"><a xlink:title=" ">
<path fill="none" stroke="#63b8ff" d="M357.35,-178.21C415.7,-170.63 545.2,-153.61 654.12,-138 661.03,-137.01 668.23,-135.96 675.41,-134.89"/>
<polygon fill="#63b8ff" stroke="#63b8ff" points="675.78,-138.37 685.15,-133.43 674.74,-131.45 675.78,-138.37"/>
</a>
</g>
</g>
<!-- Node9 -->
<g id="Node000009" class="node">
<title>Node9</title>
<g id="a_Node000009"><a xlink:title=" ">
<polygon fill="#e0e0e0" stroke="#999999" points="460.62,-18.5 417.62,-18.5 417.62,0 460.62,0 460.62,-18.5"/>
<text text-anchor="middle" x="439.12" y="-5" font-family="Helvetica,sans-Serif" font-size="10.00">cmath</text>
</a>
</g>
</g>
<!-- Node8&#45;&gt;Node9 -->
<g id="edge8_Node000008_Node000009" class="edge">
<title>Node8&#45;&gt;Node9</title>
<g id="a_edge8_Node000008_Node000009"><a xlink:title=" ">
<path fill="none" stroke="#63b8ff" d="M420.7,-108.74C424.38,-89.07 431.16,-52.81 435.39,-30.2"/>
<polygon fill="#63b8ff" stroke="#63b8ff" points="438.82,-30.93 437.22,-20.45 431.94,-29.64 438.82,-30.93"/>
</a>
</g>
</g>
<!-- Node10 -->
<g id="Node000010" class="node">
<title>Node10</title>
<g id="a_Node000010"><a xlink:href="constants_8h.html" target="_top" xlink:title="Constants for the CoverageControl library.">
<polygon fill="white" stroke="#666666" points="589.5,-73 446.75,-73 446.75,-54.5 589.5,-54.5 589.5,-73"/>
<text text-anchor="middle" x="518.12" y="-59.5" font-family="Helvetica,sans-Serif" font-size="10.00">CoverageControl/constants.h</text>
</a>
</g>
</g>
<!-- Node8&#45;&gt;Node10 -->
<g id="edge9_Node000008_Node000010" class="edge">
<title>Node8&#45;&gt;Node10</title>
<g id="a_edge9_Node000008_Node000010"><a xlink:title=" ">
<path fill="none" stroke="#63b8ff" d="M442.33,-108.52C457.74,-99.62 477.64,-88.13 493.18,-79.15"/>
<polygon fill="#63b8ff" stroke="#63b8ff" points="494.92,-82.19 501.83,-74.16 491.42,-76.13 494.92,-82.19"/>
</a>
</g>
</g>
<!-- Node8&#45;&gt;Node12 -->
<g id="edge13_Node000008_Node000012" class="edge">
<title>Node8&#45;&gt;Node12</title>
<g id="a_edge13_Node000008_Node000012"><a xlink:title=" ">
<path fill="none" stroke="#63b8ff" d="M359.06,-108.52C317.08,-98.59 261.42,-85.41 222.16,-76.12"/>
<polygon fill="#63b8ff" stroke="#63b8ff" points="223.06,-72.73 212.52,-73.84 221.44,-79.55 223.06,-72.73"/>
</a>
</g>
</g>
<!-- Node10&#45;&gt;Node7 -->
<g id="edge12_Node000010_Node000007" class="edge">
<title>Node10&#45;&gt;Node7</title>
<g id="a_edge12_Node000010_Node000007"><a xlink:title=" ">
<path fill="none" stroke="#63b8ff" d="M546.03,-54.08C573.92,-45.42 617.03,-32.03 648.26,-22.32"/>
<polygon fill="#63b8ff" stroke="#63b8ff" points="649.22,-25.69 657.73,-19.38 647.14,-19.01 649.22,-25.69"/>
</a>
</g>
</g>
<!-- Node10&#45;&gt;Node9 -->
<g id="edge10_Node000010_Node000009" class="edge">
<title>Node10&#45;&gt;Node9</title>
<g id="a_edge10_Node000010_Node000009"><a xlink:title=" ">
<path fill="none" stroke="#63b8ff" d="M505.08,-54.08C493.3,-46.25 475.71,-34.57 461.66,-25.23"/>
<polygon fill="#63b8ff" stroke="#63b8ff" points="463.72,-22.39 453.45,-19.77 459.84,-28.22 463.72,-22.39"/>
</a>
</g>
</g>
<!-- Node11 -->
<g id="Node000011" class="node">
<title>Node11</title>
<g id="a_Node000011"><a xlink:title=" ">
<polygon fill="#e0e0e0" stroke="#999999" points="537.75,-18.5 498.5,-18.5 498.5,0 537.75,0 537.75,-18.5"/>
<text text-anchor="middle" x="518.12" y="-5" font-family="Helvetica,sans-Serif" font-size="10.00">limits</text>
</a>
</g>
</g>
<!-- Node10&#45;&gt;Node11 -->
<g id="edge11_Node000010_Node000011" class="edge">
<title>Node10&#45;&gt;Node11</title>
<g id="a_edge11_Node000010_Node000011"><a xlink:title=" ">
<path fill="none" stroke="#63b8ff" d="M518.12,-54.08C518.12,-47.58 518.12,-38.42 518.12,-30.16"/>
<polygon fill="#63b8ff" stroke="#63b8ff" points="521.63,-30.27 518.13,-20.27 514.63,-30.27 521.63,-30.27"/>
</a>
</g>
</g>
<!-- Node12&#45;&gt;Node2 -->
<g id="edge14_Node000012_Node000002" class="edge">
<title>Node12&#45;&gt;Node2</title>
<g id="a_edge14_Node000012_Node000002"><a xlink:title=" ">
<path fill="none" stroke="#63b8ff" d="M151.34,-54.08C129.06,-45.61 94.9,-32.61 69.55,-22.97"/>
<polygon fill="#63b8ff" stroke="#63b8ff" points="70.95,-19.75 60.36,-19.47 68.46,-26.3 70.95,-19.75"/>
</a>
</g>
</g>
<!-- Node12&#45;&gt;Node6 -->
<g id="edge16_Node000012_Node000006" class="edge">
<title>Node12&#45;&gt;Node6</title>
<g id="a_edge16_Node000012_Node000006"><a xlink:title=" ">
<path fill="none" stroke="#63b8ff" d="M179.08,-54.08C183.01,-47.2 188.65,-37.34 193.58,-28.71"/>
<polygon fill="#63b8ff" stroke="#63b8ff" points="196.59,-30.49 198.51,-20.07 190.51,-27.02 196.59,-30.49"/>
</a>
</g>
</g>
<!-- Node13 -->
<g id="Node000013" class="node">
<title>Node13</title>
<g id="a_Node000013"><a xlink:title=" ">
<polygon fill="#e0e0e0" stroke="#999999" points="165.25,-18.5 123,-18.5 123,0 165.25,0 165.25,-18.5"/>
<text text-anchor="middle" x="144.12" y="-5" font-family="Helvetica,sans-Serif" font-size="10.00">queue</text>
</a>
</g>
</g>
<!-- Node12&#45;&gt;Node13 -->
<g id="edge15_Node000012_Node000013" class="edge">
<title>Node12&#45;&gt;Node13</title>
<g id="a_edge15_Node000012_Node000013"><a xlink:title=" ">
<path fill="none" stroke="#63b8ff" d="M169.17,-54.08C165.24,-47.2 159.6,-37.34 154.67,-28.71"/>
<polygon fill="#63b8ff" stroke="#63b8ff" points="157.74,-27.02 149.74,-20.07 151.66,-30.49 157.74,-27.02"/>
</a>
</g>
</g>
<!-- Node14&#45;&gt;Node4 -->
<g id="edge18_Node000014_Node000004" class="edge">
<title>Node14&#45;&gt;Node4</title>
<g id="a_edge18_Node000014_Node000004"><a xlink:title=" ">
<path fill="none" stroke="#63b8ff" d="M500.45,-108.52C458.16,-97.9 401.13,-83.58 364,-74.26"/>
<polygon fill="#63b8ff" stroke="#63b8ff" points="365.17,-70.95 354.62,-71.91 363.47,-77.74 365.17,-70.95"/>
</a>
</g>
</g>
<!-- Node14&#45;&gt;Node5 -->
<g id="edge20_Node000014_Node000005" class="edge">
<title>Node14&#45;&gt;Node5</title>
<g id="a_edge20_Node000014_Node000005"><a xlink:title=" ">
<path fill="none" stroke="#63b8ff" d="M599.46,-108.52C631.79,-98.09 675.2,-84.08 704.11,-74.75"/>
<polygon fill="#63b8ff" stroke="#63b8ff" points="704.92,-78.17 713.36,-71.77 702.77,-71.51 704.92,-78.17"/>
</a>
</g>
</g>
<!-- Node14&#45;&gt;Node6 -->
<g id="edge21_Node000014_Node000006" class="edge">
<title>Node14&#45;&gt;Node6</title>
<g id="a_edge21_Node000014_Node000006"><a xlink:title=" ">
<path fill="none" stroke="#63b8ff" d="M518.81,-108.62C479.92,-94.35 417.1,-71.81 362.12,-54.5 319.05,-40.93 268.73,-27.2 236.66,-18.71"/>
<polygon fill="#63b8ff" stroke="#63b8ff" points="237.75,-15.38 227.18,-16.21 235.96,-22.14 237.75,-15.38"/>
</a>
</g>
</g>
<!-- Node14&#45;&gt;Node7 -->
<g id="edge22_Node000014_Node000007" class="edge">
<title>Node14&#45;&gt;Node7</title>
<g id="a_edge22_Node000014_Node000007"><a xlink:title=" ">
<path fill="none" stroke="#63b8ff" d="M611.62,-108.6C631.83,-101.05 653.33,-89.72 668.12,-73 678.64,-61.11 683.34,-43.56 685.44,-30.04"/>
<polygon fill="#63b8ff" stroke="#63b8ff" points="688.91,-30.47 686.58,-20.13 681.96,-29.66 688.91,-30.47"/>
</a>
</g>
</g>
<!-- Node15 -->
<g id="Node000015" class="node">
<title>Node15</title>
<g id="a_Node000015"><a xlink:title=" ">
<polygon fill="#e0e0e0" stroke="#999999" points="658.75,-73 607.5,-73 607.5,-54.5 658.75,-54.5 658.75,-73"/>
<text text-anchor="middle" x="633.12" y="-59.5" font-family="Helvetica,sans-Serif" font-size="10.00">sstream</text>
</a>
</g>
</g>
<!-- Node14&#45;&gt;Node15 -->
<g id="edge19_Node000014_Node000015" class="edge">
<title>Node14&#45;&gt;Node15</title>
<g id="a_edge19_Node000014_Node000015"><a xlink:title=" ">
<path fill="none" stroke="#63b8ff" d="M574.76,-108.52C586.17,-99.97 600.78,-89.01 612.52,-80.2"/>
<polygon fill="#63b8ff" stroke="#63b8ff" points="614.48,-83.11 620.38,-74.31 610.28,-77.51 614.48,-83.11"/>
</a>
</g>
</g>
<!-- Node16&#45;&gt;Node3 -->
<g id="edge25_Node000016_Node000003" class="edge">
<title>Node16&#45;&gt;Node3</title>
<g id="a_edge25_Node000016_Node000003"><a xlink:title=" ">
<path fill="none" stroke="#63b8ff" d="M199.55,-108.52C168.69,-98.62 127.8,-85.5 98.85,-76.21"/>
<polygon fill="#63b8ff" stroke="#63b8ff" points="100.04,-72.92 89.45,-73.2 97.91,-79.58 100.04,-72.92"/>
</a>
</g>
</g>
<!-- Node16&#45;&gt;Node4 -->
<g id="edge26_Node000016_Node000004" class="edge">
<title>Node16&#45;&gt;Node4</title>
<g id="a_edge26_Node000016_Node000004"><a xlink:title=" ">
<path fill="none" stroke="#63b8ff" d="M263.22,-108.52C275.63,-99.88 291.57,-88.79 304.3,-79.94"/>
<polygon fill="#63b8ff" stroke="#63b8ff" points="306.24,-82.85 312.45,-74.27 302.24,-77.11 306.24,-82.85"/>
</a>
</g>
</g>
<!-- Node16&#45;&gt;Node5 -->
<g id="edge27_Node000016_Node000005" class="edge">
<title>Node16&#45;&gt;Node5</title>
<g id="a_edge27_Node000016_Node000005"><a xlink:title=" ">
<path fill="none" stroke="#63b8ff" d="M298.68,-114.94C313.75,-112.94 330.05,-110.84 345.12,-109 488.51,-91.52 524.66,-89.83 668.12,-73 679.66,-71.65 692.32,-70.1 703.49,-68.72"/>
<polygon fill="#63b8ff" stroke="#63b8ff" points="703.91,-72.2 713.4,-67.49 703.04,-65.25 703.91,-72.2"/>
</a>
</g>
</g>
<!-- Node16&#45;&gt;Node9 -->
<g id="edge24_Node000016_Node000009" class="edge">
<title>Node16&#45;&gt;Node9</title>
<g id="a_edge24_Node000016_Node000009"><a xlink:title=" ">
<path fill="none" stroke="#63b8ff" d="M249.18,-108.66C256.63,-93.22 270.72,-68.57 290.12,-54.5 324.86,-29.32 373.91,-18.35 406.11,-13.65"/>
<polygon fill="#63b8ff" stroke="#63b8ff" points="406.19,-17.17 415.65,-12.39 405.27,-10.23 406.19,-17.17"/>
</a>
</g>
</g>
<!-- Node16&#45;&gt;Node12 -->
<g id="edge28_Node000016_Node000012" class="edge">
<title>Node16&#45;&gt;Node12</title>
<g id="a_edge28_Node000016_Node000012"><a xlink:title=" ">
<path fill="none" stroke="#63b8ff" d="M226.42,-108.52C216.41,-100.14 203.63,-89.45 193.22,-80.73"/>
<polygon fill="#63b8ff" stroke="#63b8ff" points="195.54,-78.11 185.62,-74.37 191.05,-83.48 195.54,-78.11"/>
</a>
</g>
</g>
<!-- Node17&#45;&gt;Node5 -->
<g id="edge31_Node000017_Node000005" class="edge">
<title>Node17&#45;&gt;Node5</title>
<g id="a_edge31_Node000017_Node000005"><a xlink:title=" ">
<path fill="none" stroke="#63b8ff" d="M741.94,-113.98C740.87,-106.22 739.24,-94.46 737.84,-84.38"/>
<polygon fill="#63b8ff" stroke="#63b8ff" points="741.36,-84.23 736.52,-74.81 734.42,-85.19 741.36,-84.23"/>
</a>
</g>
</g>
<!-- Node17&#45;&gt;Node9 -->
<g id="edge30_Node000017_Node000009" class="edge">
<title>Node17&#45;&gt;Node9</title>
<g id="a_edge30_Node000017_Node000009"><a xlink:title=" ">
<path fill="none" stroke="#63b8ff" d="M750.38,-113.9C761.33,-99.84 779.28,-71.77 764.12,-54.5 723.47,-8.18 550.09,-27.52 489.12,-18.5 483.65,-17.69 477.84,-16.78 472.2,-15.87"/>
<polygon fill="#63b8ff" stroke="#63b8ff" points="472.93,-12.44 462.5,-14.27 471.8,-19.35 472.93,-12.44"/>
</a>
</g>
</g>
</g>
</svg>
