<?xml version="1.0" encoding="UTF-8" standalone="no"?>
<!DOCTYPE svg PUBLIC "-//W3C//DTD SVG 1.1//EN"
 "http://www.w3.org/Graphics/SVG/1.1/DTD/svg11.dtd">
<!-- Generated by graphviz version 10.0.1 (0)
 -->
<!-- Title: world_idf.h Pages: 1 -->
<!--zoomable 211 -->

<svg id="main" version="1.1" xmlns="http://www.w3.org/2000/svg" xmlns:xlink="http://www.w3.org/1999/xlink" xml:space="preserve" onload="init(evt)">
<style type="text/css"><![CDATA[
.node, .edge {opacity: 0.7;}
.node.selected, .edge.selected {opacity: 1;}
.edge:hover path { stroke: red; }
.edge:hover polygon { stroke: red; fill: red; }
]]></style>

<defs>
  <circle id="rim" cx="0" cy="0" r="7"/>
  <circle id="rim2" cx="0" cy="0" r="3.5"/>
  <g id="zoomPlus">
    <use xlink:href="#rim" fill="#404040"><set attributeName="fill" to="#808080" begin="zoomplus.mouseover" end="zoomplus.mouseout"/></use>
    <path d="M-4,0h8M0,-4v8" fill="none" stroke="white" stroke-width="1.5" pointer-events="none"/>
  </g>
  <g id="zoomMin">
    <use xlink:href="#rim" fill="#404040"><set attributeName="fill" to="#808080" begin="zoomminus.mouseover" end="zoomminus.mouseout"/></use>
    <path d="M-4,0h8" fill="none" stroke="white" stroke-width="1.5" pointer-events="none"/>
  </g>
  <g id="arrowUp" transform="translate(30 24)">
    <use xlink:href="#rim"/>
    <path pointer-events="none" fill="none" stroke="white" stroke-width="1.5" d="M0,-3.0v7 M-2.5,-0.5L0,-3.0L2.5,-0.5"/>
  </g>
  <g id="arrowRight" transform="rotate(90) translate(36 -43)">
    <use xlink:href="#rim"/>
    <path pointer-events="none" fill="none" stroke="white" stroke-width="1.5" d="M0,-3.0v7 M-2.5,-0.5L0,-3.0L2.5,-0.5"/>
  </g>
  <g id="arrowDown" transform="rotate(180) translate(-30 -48)">
    <use xlink:href="#rim"/>
    <path pointer-events="none" fill="none" stroke="white" stroke-width="1.5" d="M0,-3.0v7 M-2.5,-0.5L0,-3.0L2.5,-0.5"/>
  </g>
  <g id="arrowLeft" transform="rotate(270) translate(-36 17)">
    <use xlink:href="#rim"/>
    <path pointer-events="none" fill="none" stroke="white" stroke-width="1.5" d="M0,-3.0v7 M-2.5,-0.5L0,-3.0L2.5,-0.5"/>
  </g>
  <g id="resetDef">
    <use xlink:href="#rim2" fill="#404040"><set attributeName="fill" to="#808080" begin="reset.mouseover" end="reset.mouseout"/></use>
  </g>
</defs>
<script type="application/ecmascript">
var viewWidth = 1068;
var viewHeight = 211;
var sectionId = 'dynsection-0';
</script>
<script type="application/ecmascript" xlink:href="svg.min.js"/>
<svg id="graph" class="graph">
<g id="viewport">
<title>world_idf.h</title>
<!-- Node1 -->
<g id="Node000001" class="node">
<title>Node1</title>
<g id="a_Node000001"><a xlink:title="Contains the class for Importance Density Function (IDF) for the world.">
<polygon fill="#999999" stroke="#666666" points="510,-203 448.25,-203 448.25,-184.5 510,-184.5 510,-203"/>
<text text-anchor="middle" x="479.12" y="-189.5" font-family="Helvetica,sans-Serif" font-size="10.00">world_idf.h</text>
</a>
</g>
</g>
<!-- Node2 -->
<g id="Node000002" class="node">
<title>Node2</title>
<g id="a_Node000002"><a xlink:title=" ">
<polygon fill="#e0e0e0" stroke="#999999" points="72.25,-18.5 0,-18.5 0,0 72.25,0 72.25,-18.5"/>
<text text-anchor="middle" x="36.12" y="-5" font-family="Helvetica,sans-Serif" font-size="10.00">Eigen/Dense</text>
</a>
</g>
</g>
<!-- Node1&#45;&gt;Node2 -->
<g id="edge1_Node000001_Node000002" class="edge">
<title>Node1&#45;&gt;Node2</title>
<g id="a_edge1_Node000001_Node000002"><a xlink:title=" ">
<path fill="none" stroke="#63b8ff" d="M447.91,-192.04C368.23,-189.76 159.34,-180.79 99.12,-148.5 65.77,-130.62 59.05,-118.27 44.12,-83.5 36.79,-66.42 35.21,-45.13 35.21,-29.91"/>
<polygon fill="#63b8ff" stroke="#63b8ff" points="38.69,-30.38 35.45,-20.29 31.7,-30.2 38.69,-30.38"/>
</a>
</g>
</g>
<!-- Node3 -->
<g id="Node000003" class="node">
<title>Node3</title>
<g id="a_Node000003"><a xlink:title=" ">
<polygon fill="#e0e0e0" stroke="#999999" points="1059.62,-143.25 1010.62,-143.25 1010.62,-124.75 1059.62,-124.75 1059.62,-143.25"/>
<text text-anchor="middle" x="1035.12" y="-129.75" font-family="Helvetica,sans-Serif" font-size="10.00">fstream</text>
</a>
</g>
</g>
<!-- Node1&#45;&gt;Node3 -->
<g id="edge2_Node000001_Node000003" class="edge">
<title>Node1&#45;&gt;Node3</title>
<g id="a_edge2_Node000001_Node000003"><a xlink:title=" ">
<path fill="none" stroke="#63b8ff" d="M510.4,-192.75C591.54,-192.19 815.04,-186.97 996.12,-148.5 998.14,-148.07 1000.19,-147.57 1002.25,-147.02"/>
<polygon fill="#63b8ff" stroke="#63b8ff" points="1003.14,-150.4 1011.67,-144.12 1001.09,-143.71 1003.14,-150.4"/>
</a>
</g>
</g>
<!-- Node4 -->
<g id="Node000004" class="node">
<title>Node4</title>
<g id="a_Node000004"><a xlink:title=" ">
<polygon fill="#e0e0e0" stroke="#999999" points="392.88,-18.5 339.38,-18.5 339.38,0 392.88,0 392.88,-18.5"/>
<text text-anchor="middle" x="366.12" y="-5" font-family="Helvetica,sans-Serif" font-size="10.00">iostream</text>
</a>
</g>
</g>
<!-- Node1&#45;&gt;Node4 -->
<g id="edge3_Node000001_Node000004" class="edge">
<title>Node1&#45;&gt;Node4</title>
<g id="a_edge3_Node000001_Node000004"><a xlink:title=" ">
<path fill="none" stroke="#63b8ff" d="M448.07,-188.92C404.93,-182.88 330.33,-169.62 314.12,-148.5 285.1,-110.66 325.69,-54.84 350.07,-27.13"/>
<polygon fill="#63b8ff" stroke="#63b8ff" points="352.42,-29.74 356.57,-20 347.25,-25.03 352.42,-29.74"/>
</a>
</g>
</g>
<!-- Node5 -->
<g id="Node000005" class="node">
<title>Node5</title>
<g id="a_Node000005"><a xlink:title=" ">
<polygon fill="#e0e0e0" stroke="#999999" points="827.12,-18.5 787.12,-18.5 787.12,0 827.12,0 827.12,-18.5"/>
<text text-anchor="middle" x="807.12" y="-5" font-family="Helvetica,sans-Serif" font-size="10.00">string</text>
</a>
</g>
</g>
<!-- Node1&#45;&gt;Node5 -->
<g id="edge4_Node000001_Node000005" class="edge">
<title>Node1&#45;&gt;Node5</title>
<g id="a_edge4_Node000001_Node000005"><a xlink:title=" ">
<path fill="none" stroke="#63b8ff" d="M510.4,-189.72C600.31,-180.27 856.06,-148.08 903.12,-83.5 910.72,-73.08 910.07,-65.36 903.12,-54.5 895.58,-42.72 862.98,-29.28 837.84,-20.33"/>
<polygon fill="#63b8ff" stroke="#63b8ff" points="839.3,-17.13 828.71,-17.17 837.01,-23.75 839.3,-17.13"/>
</a>
</g>
</g>
<!-- Node6 -->
<g id="Node000006" class="node">
<title>Node6</title>
<g id="a_Node000006"><a xlink:title=" ">
<polygon fill="#e0e0e0" stroke="#999999" points="259.25,-18.5 217,-18.5 217,0 259.25,0 259.25,-18.5"/>
<text text-anchor="middle" x="238.12" y="-5" font-family="Helvetica,sans-Serif" font-size="10.00">vector</text>
</a>
</g>
</g>
<!-- Node1&#45;&gt;Node6 -->
<g id="edge5_Node000001_Node000006" class="edge">
<title>Node1&#45;&gt;Node6</title>
<g id="a_edge5_Node000001_Node000006"><a xlink:title=" ">
<path fill="none" stroke="#63b8ff" d="M447.95,-193C409.05,-191.68 342.51,-183.9 300.12,-148.5 263.2,-117.67 247.39,-60.33 241.37,-30.1"/>
<polygon fill="#63b8ff" stroke="#63b8ff" points="244.85,-29.66 239.63,-20.44 237.96,-30.91 244.85,-29.66"/>
</a>
</g>
</g>
<!-- Node7 -->
<g id="Node000007" class="node">
<title>Node7</title>
<g id="a_Node000007"><a xlink:title=" ">
<polygon fill="#e0e0e0" stroke="#999999" points="973.38,-18.5 844.88,-18.5 844.88,0 973.38,0 973.38,-18.5"/>
<text text-anchor="middle" x="909.12" y="-5" font-family="Helvetica,sans-Serif" font-size="10.00">CoverageControl/Config.h</text>
</a>
</g>
</g>
<!-- Node1&#45;&gt;Node7 -->
<g id="edge6_Node000001_Node000007" class="edge">
<title>Node1&#45;&gt;Node7</title>
<g id="a_edge6_Node000001_Node000007"><a xlink:title=" ">
<path fill="none" stroke="#63b8ff" d="M510.23,-193.24C571.38,-193.24 710.76,-188.41 819.12,-148.5 868.87,-130.18 893.84,-130.09 919.12,-83.5 928.2,-66.78 923.41,-44.87 917.78,-29.38"/>
<polygon fill="#63b8ff" stroke="#63b8ff" points="921.12,-28.3 914.09,-20.38 914.64,-30.96 921.12,-28.3"/>
</a>
</g>
</g>
<!-- Node8 -->
<g id="Node000008" class="node">
<title>Node8</title>
<g id="a_Node000008"><a xlink:href="cuda__utils_8h.html" target="_top" xlink:title="Utility functions for CUDA.">
<polygon fill="white" stroke="#666666" points="717.5,-83.5 604.75,-83.5 604.75,-54.5 717.5,-54.5 717.5,-83.5"/>
<text text-anchor="start" x="612.75" y="-70" font-family="Helvetica,sans-Serif" font-size="10.00">CoverageControl/cuda</text>
<text text-anchor="middle" x="661.12" y="-59.5" font-family="Helvetica,sans-Serif" font-size="10.00">_utils.h</text>
</a>
</g>
</g>
<!-- Node1&#45;&gt;Node8 -->
<g id="edge7_Node000001_Node000008" class="edge">
<title>Node1&#45;&gt;Node8</title>
<g id="a_edge7_Node000001_Node000008"><a xlink:title=" ">
<path fill="none" stroke="#63b8ff" d="M510.32,-192.06C544.92,-189.63 600.31,-180.56 634.12,-148.5 648.75,-134.63 655.46,-112.48 658.53,-95.24"/>
<polygon fill="#63b8ff" stroke="#63b8ff" points="661.97,-95.89 659.94,-85.49 655.04,-94.89 661.97,-95.89"/>
</a>
</g>
</g>
<!-- Node11 -->
<g id="Node000011" class="node">
<title>Node11</title>
<g id="a_Node000011"><a xlink:href="bivariate__normal__distribution_8h.html" target="_top" xlink:title="Class for Bivariate Normal Distribution.">
<polygon fill="white" stroke="#666666" points="451,-148.5 323.25,-148.5 323.25,-119.5 451,-119.5 451,-148.5"/>
<text text-anchor="start" x="331.25" y="-135" font-family="Helvetica,sans-Serif" font-size="10.00">CoverageControl/bivariate</text>
<text text-anchor="middle" x="387.12" y="-124.5" font-family="Helvetica,sans-Serif" font-size="10.00">_normal_distribution.h</text>
</a>
</g>
</g>
<!-- Node1&#45;&gt;Node11 -->
<g id="edge13_Node000001_Node000011" class="edge">
<title>Node1&#45;&gt;Node11</title>
<g id="a_edge13_Node000001_Node000011"><a xlink:title=" ">
<path fill="none" stroke="#63b8ff" d="M465.55,-184.23C453.3,-176.54 434.8,-164.93 418.85,-154.91"/>
<polygon fill="#63b8ff" stroke="#63b8ff" points="420.93,-152.09 410.6,-149.74 417.21,-158.02 420.93,-152.09"/>
</a>
</g>
</g>
<!-- Node13 -->
<g id="Node000013" class="node">
<title>Node13</title>
<g id="a_Node000013"><a xlink:href="constants_8h.html" target="_top" xlink:title="Constants for the CoverageControl library.">
<polygon fill="white" stroke="#666666" points="878.5,-78.25 735.75,-78.25 735.75,-59.75 878.5,-59.75 878.5,-78.25"/>
<text text-anchor="middle" x="807.12" y="-64.75" font-family="Helvetica,sans-Serif" font-size="10.00">CoverageControl/constants.h</text>
</a>
</g>
</g>
<!-- Node1&#45;&gt;Node13 -->
<g id="edge33_Node000001_Node000013" class="edge">
<title>Node1&#45;&gt;Node13</title>
<g id="a_edge33_Node000001_Node000013"><a xlink:title=" ">
<path fill="none" stroke="#63b8ff" d="M510.49,-187.22C546.41,-180.36 606.66,-167.24 656.12,-148.5 703.12,-130.69 754.34,-101.89 783.41,-84.57"/>
<polygon fill="#63b8ff" stroke="#63b8ff" points="785.02,-87.69 791.77,-79.53 781.4,-81.69 785.02,-87.69"/>
</a>
</g>
</g>
<!-- Node14 -->
<g id="Node000014" class="node">
<title>Node14</title>
<g id="a_Node000014"><a xlink:href="parameters_8h.html" target="_top" xlink:title="Contains parameters.">
<polygon fill="white" stroke="#666666" points="548.88,-78.25 399.38,-78.25 399.38,-59.75 548.88,-59.75 548.88,-78.25"/>
<text text-anchor="middle" x="474.12" y="-64.75" font-family="Helvetica,sans-Serif" font-size="10.00">CoverageControl/parameters.h</text>
</a>
</g>
</g>
<!-- Node1&#45;&gt;Node14 -->
<g id="edge38_Node000001_Node000014" class="edge">
<title>Node1&#45;&gt;Node14</title>
<g id="a_edge38_Node000001_Node000014"><a xlink:title=" ">
<path fill="none" stroke="#63b8ff" d="M478.78,-184.31C477.99,-164.95 476.04,-116.92 474.93,-89.68"/>
<polygon fill="#63b8ff" stroke="#63b8ff" points="478.44,-89.86 474.53,-80.01 471.44,-90.14 478.44,-89.86"/>
</a>
</g>
</g>
<!-- Node16 -->
<g id="Node000016" class="node">
<title>Node16</title>
<g id="a_Node000016"><a xlink:href="typedefs_8h.html" target="_top" xlink:title="Contains typedefs for the library.">
<polygon fill="white" stroke="#666666" points="190.88,-78.25 53.38,-78.25 53.38,-59.75 190.88,-59.75 190.88,-78.25"/>
<text text-anchor="middle" x="122.12" y="-64.75" font-family="Helvetica,sans-Serif" font-size="10.00">CoverageControl/typedefs.h</text>
</a>
</g>
</g>
<!-- Node1&#45;&gt;Node16 -->
<g id="edge39_Node000001_Node000016" class="edge">
<title>Node1&#45;&gt;Node16</title>
<g id="a_edge39_Node000001_Node000016"><a xlink:title=" ">
<path fill="none" stroke="#63b8ff" d="M448.03,-191.34C363.18,-187.19 132.45,-173.66 110.12,-148.5 95.71,-132.26 103.58,-106.29 111.76,-88.71"/>
<polygon fill="#63b8ff" stroke="#63b8ff" points="114.83,-90.4 116.27,-79.9 108.6,-87.21 114.83,-90.4"/>
</a>
</g>
</g>
<!-- Node18 -->
<g id="Node000018" class="node">
<title>Node18</title>
<g id="a_Node000018"><a xlink:href="polygon__utils_8h.html" target="_top" xlink:title="Provides utilities for polygon manipulation using CGAL.">
<polygon fill="white" stroke="#666666" points="229,-148.5 119.25,-148.5 119.25,-119.5 229,-119.5 229,-148.5"/>
<text text-anchor="start" x="127.25" y="-135" font-family="Helvetica,sans-Serif" font-size="10.00">CoverageControl/cgal</text>
<text text-anchor="middle" x="174.12" y="-124.5" font-family="Helvetica,sans-Serif" font-size="10.00">/polygon_utils.h</text>
</a>
</g>
</g>
<!-- Node1&#45;&gt;Node18 -->
<g id="edge30_Node000001_Node000018" class="edge">
<title>Node1&#45;&gt;Node18</title>
<g id="a_edge30_Node000001_Node000018"><a xlink:title=" ">
<path fill="none" stroke="#63b8ff" d="M447.81,-186.96C402.59,-178.58 316.41,-162.54 243.12,-148.5 242.29,-148.34 241.46,-148.18 240.61,-148.02"/>
<polygon fill="#63b8ff" stroke="#63b8ff" points="241.45,-144.61 230.97,-146.16 240.12,-151.49 241.45,-144.61"/>
</a>
</g>
</g>
<!-- Node19 -->
<g id="Node000019" class="node">
<title>Node19</title>
<g id="a_Node000019"><a xlink:href="map__utils_8h.html" target="_top" xlink:title="Utility functions for transforming maps.">
<polygon fill="white" stroke="#666666" points="625.38,-148.5 514.88,-148.5 514.88,-119.5 625.38,-119.5 625.38,-148.5"/>
<text text-anchor="start" x="522.88" y="-135" font-family="Helvetica,sans-Serif" font-size="10.00">CoverageControl/map</text>
<text text-anchor="middle" x="570.12" y="-124.5" font-family="Helvetica,sans-Serif" font-size="10.00">_utils.h</text>
</a>
</g>
</g>
<!-- Node1&#45;&gt;Node19 -->
<g id="edge34_Node000001_Node000019" class="edge">
<title>Node1&#45;&gt;Node19</title>
<g id="a_edge34_Node000001_Node000019"><a xlink:title=" ">
<path fill="none" stroke="#63b8ff" d="M492.55,-184.23C504.67,-176.54 522.97,-164.93 538.75,-154.91"/>
<polygon fill="#63b8ff" stroke="#63b8ff" points="540.32,-158.06 546.89,-149.74 536.57,-152.15 540.32,-158.06"/>
</a>
</g>
</g>
<!-- Node8&#45;&gt;Node4 -->
<g id="edge9_Node000008_Node000004" class="edge">
<title>Node8&#45;&gt;Node4</title>
<g id="a_edge9_Node000008_Node000004"><a xlink:title=" ">
<path fill="none" stroke="#63b8ff" d="M604.6,-56.93C545.77,-45.42 455.27,-27.7 404.35,-17.73"/>
<polygon fill="#63b8ff" stroke="#63b8ff" points="405.18,-14.33 394.69,-15.84 403.83,-21.2 405.18,-14.33"/>
</a>
</g>
</g>
<!-- Node8&#45;&gt;Node6 -->
<g id="edge12_Node000008_Node000006" class="edge">
<title>Node8&#45;&gt;Node6</title>
<g id="a_edge12_Node000008_Node000006"><a xlink:title=" ">
<path fill="none" stroke="#63b8ff" d="M604.52,-60.27C514.71,-48.01 342.42,-24.49 270.7,-14.7"/>
<polygon fill="#63b8ff" stroke="#63b8ff" points="271.18,-11.23 260.8,-13.35 270.24,-18.17 271.18,-11.23"/>
</a>
</g>
</g>
<!-- Node8&#45;&gt;Node7 -->
<g id="edge8_Node000008_Node000007" class="edge">
<title>Node8&#45;&gt;Node7</title>
<g id="a_edge8_Node000008_Node000007"><a xlink:title=" ">
<path fill="none" stroke="#63b8ff" d="M717.71,-54.82C760.83,-44.78 819.58,-31.1 860.58,-21.55"/>
<polygon fill="#63b8ff" stroke="#63b8ff" points="861.22,-25 870.17,-19.32 859.64,-18.18 861.22,-25"/>
</a>
</g>
</g>
<!-- Node9 -->
<g id="Node000009" class="node">
<title>Node9</title>
<g id="a_Node000009"><a xlink:title=" ">
<polygon fill="#e0e0e0" stroke="#999999" points="756.75,-18.5 717.5,-18.5 717.5,0 756.75,0 756.75,-18.5"/>
<text text-anchor="middle" x="737.12" y="-5" font-family="Helvetica,sans-Serif" font-size="10.00">limits</text>
</a>
</g>
</g>
<!-- Node8&#45;&gt;Node9 -->
<g id="edge10_Node000008_Node000009" class="edge">
<title>Node8&#45;&gt;Node9</title>
<g id="a_edge10_Node000008_Node000009"><a xlink:title=" ">
<path fill="none" stroke="#63b8ff" d="M679.52,-54.02C690.78,-45.47 705.2,-34.51 716.79,-25.7"/>
<polygon fill="#63b8ff" stroke="#63b8ff" points="718.69,-28.66 724.53,-19.82 714.45,-23.08 718.69,-28.66"/>
</a>
</g>
</g>
<!-- Node10 -->
<g id="Node000010" class="node">
<title>Node10</title>
<g id="a_Node000010"><a xlink:title=" ">
<polygon fill="#e0e0e0" stroke="#999999" points="686.75,-18.5 635.5,-18.5 635.5,0 686.75,0 686.75,-18.5"/>
<text text-anchor="middle" x="661.12" y="-5" font-family="Helvetica,sans-Serif" font-size="10.00">sstream</text>
</a>
</g>
</g>
<!-- Node8&#45;&gt;Node10 -->
<g id="edge11_Node000008_Node000010" class="edge">
<title>Node8&#45;&gt;Node10</title>
<g id="a_edge11_Node000008_Node000010"><a xlink:title=" ">
<path fill="none" stroke="#63b8ff" d="M661.12,-54.02C661.12,-46.92 661.12,-38.17 661.12,-30.36"/>
<polygon fill="#63b8ff" stroke="#63b8ff" points="664.63,-30.42 661.13,-20.42 657.63,-30.42 664.63,-30.42"/>
</a>
</g>
</g>
<!-- Node11&#45;&gt;Node4 -->
<g id="edge15_Node000011_Node000004" class="edge">
<title>Node11&#45;&gt;Node4</title>
<g id="a_edge15_Node000011_Node000004"><a xlink:title=" ">
<path fill="none" stroke="#63b8ff" d="M375.95,-119.24C369.04,-109.81 360.8,-96.66 357.12,-83.5 352.17,-65.76 355.62,-44.85 359.59,-29.92"/>
<polygon fill="#63b8ff" stroke="#63b8ff" points="362.92,-31.02 362.45,-20.43 356.21,-29 362.92,-31.02"/>
</a>
</g>
</g>
<!-- Node12 -->
<g id="Node000012" class="node">
<title>Node12</title>
<g id="a_Node000012"><a xlink:title=" ">
<polygon fill="#e0e0e0" stroke="#999999" points="581.62,-18.5 538.62,-18.5 538.62,0 581.62,0 581.62,-18.5"/>
<text text-anchor="middle" x="560.12" y="-5" font-family="Helvetica,sans-Serif" font-size="10.00">cmath</text>
</a>
</g>
</g>
<!-- Node11&#45;&gt;Node12 -->
<g id="edge14_Node000011_Node000012" class="edge">
<title>Node11&#45;&gt;Node12</title>
<g id="a_edge14_Node000011_Node000012"><a xlink:title=" ">
<path fill="none" stroke="#63b8ff" d="M383.13,-119.1C379.12,-101.93 375.43,-72.78 390.12,-54.5 398.78,-43.74 480.31,-26.05 527.24,-16.63"/>
<polygon fill="#63b8ff" stroke="#63b8ff" points="527.75,-20.09 536.88,-14.71 526.39,-13.23 527.75,-20.09"/>
</a>
</g>
</g>
<!-- Node11&#45;&gt;Node13 -->
<g id="edge16_Node000011_Node000013" class="edge">
<title>Node11&#45;&gt;Node13</title>
<g id="a_edge16_Node000011_Node000013"><a xlink:title=" ">
<path fill="none" stroke="#63b8ff" d="M451.23,-124.03C519.44,-114.4 630.49,-98.45 726.12,-83.5 732.11,-82.56 738.34,-81.57 744.57,-80.55"/>
<polygon fill="#63b8ff" stroke="#63b8ff" points="744.93,-84.04 754.24,-78.97 743.8,-77.13 744.93,-84.04"/>
</a>
</g>
</g>
<!-- Node11&#45;&gt;Node14 -->
<g id="edge21_Node000011_Node000014" class="edge">
<title>Node11&#45;&gt;Node14</title>
<g id="a_edge21_Node000011_Node000014"><a xlink:title=" ">
<path fill="none" stroke="#63b8ff" d="M406.43,-119.02C420.26,-109 438.87,-95.53 453.08,-85.24"/>
<polygon fill="#63b8ff" stroke="#63b8ff" points="454.83,-88.29 460.88,-79.59 450.72,-82.62 454.83,-88.29"/>
</a>
</g>
</g>
<!-- Node11&#45;&gt;Node16 -->
<g id="edge26_Node000011_Node000016" class="edge">
<title>Node11&#45;&gt;Node16</title>
<g id="a_edge26_Node000011_Node000016"><a xlink:title=" ">
<path fill="none" stroke="#63b8ff" d="M328.31,-119.02C280.62,-107.68 214.25,-91.9 169.82,-81.34"/>
<polygon fill="#63b8ff" stroke="#63b8ff" points="170.76,-77.96 160.22,-79.06 169.14,-84.77 170.76,-77.96"/>
</a>
</g>
</g>
<!-- Node13&#45;&gt;Node5 -->
<g id="edge19_Node000013_Node000005" class="edge">
<title>Node13&#45;&gt;Node5</title>
<g id="a_edge19_Node000013_Node000005"><a xlink:title=" ">
<path fill="none" stroke="#63b8ff" d="M807.12,-59.48C807.12,-51.8 807.12,-40.22 807.12,-30.22"/>
<polygon fill="#63b8ff" stroke="#63b8ff" points="810.63,-30.32 807.13,-20.32 803.63,-30.32 810.63,-30.32"/>
</a>
</g>
</g>
<!-- Node13&#45;&gt;Node7 -->
<g id="edge20_Node000013_Node000007" class="edge">
<title>Node13&#45;&gt;Node7</title>
<g id="a_edge20_Node000013_Node000007"><a xlink:title=" ">
<path fill="none" stroke="#63b8ff" d="M822.18,-59.48C838.35,-50.32 864.35,-35.6 883.71,-24.64"/>
<polygon fill="#63b8ff" stroke="#63b8ff" points="885.38,-27.71 892.36,-19.74 881.93,-21.62 885.38,-27.71"/>
</a>
</g>
</g>
<!-- Node13&#45;&gt;Node9 -->
<g id="edge18_Node000013_Node000009" class="edge">
<title>Node13&#45;&gt;Node9</title>
<g id="a_edge18_Node000013_Node000009"><a xlink:title=" ">
<path fill="none" stroke="#63b8ff" d="M796.8,-59.48C786.15,-50.69 769.3,-36.79 756.21,-26"/>
<polygon fill="#63b8ff" stroke="#63b8ff" points="758.6,-23.43 748.66,-19.77 754.15,-28.83 758.6,-23.43"/>
</a>
</g>
</g>
<!-- Node13&#45;&gt;Node12 -->
<g id="edge17_Node000013_Node000012" class="edge">
<title>Node13&#45;&gt;Node12</title>
<g id="a_edge17_Node000013_Node000012"><a xlink:title=" ">
<path fill="none" stroke="#63b8ff" d="M769.88,-59.29C721.78,-48.04 638.8,-28.65 592.96,-17.93"/>
<polygon fill="#63b8ff" stroke="#63b8ff" points="593.88,-14.55 583.35,-15.68 592.29,-21.36 593.88,-14.55"/>
</a>
</g>
</g>
<!-- Node14&#45;&gt;Node4 -->
<g id="edge24_Node000014_Node000004" class="edge">
<title>Node14&#45;&gt;Node4</title>
<g id="a_edge24_Node000014_Node000004"><a xlink:title=" ">
<path fill="none" stroke="#63b8ff" d="M458.19,-59.48C440.9,-50.23 413.02,-35.33 392.47,-24.34"/>
<polygon fill="#63b8ff" stroke="#63b8ff" points="394.28,-21.34 383.81,-19.71 390.98,-27.51 394.28,-21.34"/>
</a>
</g>
</g>
<!-- Node14&#45;&gt;Node5 -->
<g id="edge25_Node000014_Node000005" class="edge">
<title>Node14&#45;&gt;Node5</title>
<g id="a_edge25_Node000014_Node000005"><a xlink:title=" ">
<path fill="none" stroke="#63b8ff" d="M528.57,-59.28C587.28,-49.76 683.46,-33.82 766.12,-18.5 769.17,-17.94 772.33,-17.33 775.49,-16.72"/>
<polygon fill="#63b8ff" stroke="#63b8ff" points="776.1,-20.16 785.23,-14.78 774.74,-13.3 776.1,-20.16"/>
</a>
</g>
</g>
<!-- Node14&#45;&gt;Node12 -->
<g id="edge22_Node000014_Node000012" class="edge">
<title>Node14&#45;&gt;Node12</title>
<g id="a_edge22_Node000014_Node000012"><a xlink:title=" ">
<path fill="none" stroke="#63b8ff" d="M486.81,-59.48C500.2,-50.49 521.57,-36.14 537.78,-25.25"/>
<polygon fill="#63b8ff" stroke="#63b8ff" points="539.49,-28.32 545.84,-19.84 535.59,-22.51 539.49,-28.32"/>
</a>
</g>
</g>
<!-- Node15 -->
<g id="Node000015" class="node">
<title>Node15</title>
<g id="a_Node000015"><a xlink:title=" ">
<polygon fill="#e0e0e0" stroke="#999999" points="503.88,-18.5 444.38,-18.5 444.38,0 503.88,0 503.88,-18.5"/>
<text text-anchor="middle" x="474.12" y="-5" font-family="Helvetica,sans-Serif" font-size="10.00">filesystem</text>
</a>
</g>
</g>
<!-- Node14&#45;&gt;Node15 -->
<g id="edge23_Node000014_Node000015" class="edge">
<title>Node14&#45;&gt;Node15</title>
<g id="a_edge23_Node000014_Node000015"><a xlink:title=" ">
<path fill="none" stroke="#63b8ff" d="M474.12,-59.48C474.12,-51.8 474.12,-40.22 474.12,-30.22"/>
<polygon fill="#63b8ff" stroke="#63b8ff" points="477.63,-30.32 474.13,-20.32 470.63,-30.32 477.63,-30.32"/>
</a>
</g>
</g>
<!-- Node16&#45;&gt;Node2 -->
<g id="edge27_Node000016_Node000002" class="edge">
<title>Node16&#45;&gt;Node2</title>
<g id="a_edge27_Node000016_Node000002"><a xlink:title=" ">
<path fill="none" stroke="#63b8ff" d="M109.44,-59.48C96.05,-50.49 74.68,-36.14 58.47,-25.25"/>
<polygon fill="#63b8ff" stroke="#63b8ff" points="60.66,-22.51 50.41,-19.84 56.76,-28.32 60.66,-22.51"/>
</a>
</g>
</g>
<!-- Node16&#45;&gt;Node6 -->
<g id="edge29_Node000016_Node000006" class="edge">
<title>Node16&#45;&gt;Node6</title>
<g id="a_edge29_Node000016_Node000006"><a xlink:title=" ">
<path fill="none" stroke="#63b8ff" d="M139.49,-59.35C158.28,-50 188.52,-34.95 210.56,-23.97"/>
<polygon fill="#63b8ff" stroke="#63b8ff" points="211.89,-27.22 219.28,-19.63 208.77,-20.95 211.89,-27.22"/>
</a>
</g>
</g>
<!-- Node17 -->
<g id="Node000017" class="node">
<title>Node17</title>
<g id="a_Node000017"><a xlink:title=" ">
<polygon fill="#e0e0e0" stroke="#999999" points="143.25,-18.5 101,-18.5 101,0 143.25,0 143.25,-18.5"/>
<text text-anchor="middle" x="122.12" y="-5" font-family="Helvetica,sans-Serif" font-size="10.00">queue</text>
</a>
</g>
</g>
<!-- Node16&#45;&gt;Node17 -->
<g id="edge28_Node000016_Node000017" class="edge">
<title>Node16&#45;&gt;Node17</title>
<g id="a_edge28_Node000016_Node000017"><a xlink:title=" ">
<path fill="none" stroke="#63b8ff" d="M122.12,-59.48C122.12,-51.8 122.12,-40.22 122.12,-30.22"/>
<polygon fill="#63b8ff" stroke="#63b8ff" points="125.63,-30.32 122.13,-20.32 118.63,-30.32 125.63,-30.32"/>
</a>
</g>
</g>
<!-- Node18&#45;&gt;Node6 -->
<g id="edge31_Node000018_Node000006" class="edge">
<title>Node18&#45;&gt;Node6</title>
<g id="a_edge31_Node000018_Node000006"><a xlink:title=" ">
<path fill="none" stroke="#63b8ff" d="M181.43,-119.14C186.65,-109.22 193.84,-95.55 200.12,-83.5 209.85,-64.88 220.9,-43.56 228.57,-28.74"/>
<polygon fill="#63b8ff" stroke="#63b8ff" points="231.51,-30.66 233,-20.17 225.29,-27.45 231.51,-30.66"/>
</a>
</g>
</g>
<!-- Node18&#45;&gt;Node16 -->
<g id="edge32_Node000018_Node000016" class="edge">
<title>Node18&#45;&gt;Node16</title>
<g id="a_edge32_Node000018_Node000016"><a xlink:title=" ">
<path fill="none" stroke="#63b8ff" d="M162.58,-119.02C154.88,-109.68 144.68,-97.32 136.45,-87.36"/>
<polygon fill="#63b8ff" stroke="#63b8ff" points="139.34,-85.36 130.27,-79.87 133.94,-89.81 139.34,-85.36"/>
</a>
</g>
</g>
<!-- Node19&#45;&gt;Node5 -->
<g id="edge36_Node000019_Node000005" class="edge">
<title>Node19&#45;&gt;Node5</title>
<g id="a_edge36_Node000019_Node000005"><a xlink:title=" ">
<path fill="none" stroke="#63b8ff" d="M625.68,-132.64C707.44,-130.81 854.12,-122.06 887.12,-83.5 895.51,-73.71 893.67,-65.6 887.12,-54.5 881.45,-44.88 857.85,-32.47 837.74,-23.24"/>
<polygon fill="#63b8ff" stroke="#63b8ff" points="839.3,-20.1 828.74,-19.22 836.44,-26.49 839.3,-20.1"/>
</a>
</g>
</g>
<!-- Node19&#45;&gt;Node12 -->
<g id="edge35_Node000019_Node000012" class="edge">
<title>Node19&#45;&gt;Node12</title>
<g id="a_edge35_Node000019_Node000012"><a xlink:title=" ">
<path fill="none" stroke="#63b8ff" d="M569.02,-119.39C567.25,-97.71 563.79,-55.19 561.74,-30.11"/>
<polygon fill="#63b8ff" stroke="#63b8ff" points="565.24,-29.97 560.94,-20.29 558.27,-30.54 565.24,-29.97"/>
</a>
</g>
</g>
<!-- Node19&#45;&gt;Node14 -->
<g id="edge37_Node000019_Node000014" class="edge">
<title>Node19&#45;&gt;Node14</title>
<g id="a_edge37_Node000019_Node000014"><a xlink:title=" ">
<path fill="none" stroke="#63b8ff" d="M548.82,-119.02C533.41,-108.91 512.63,-95.27 496.89,-84.94"/>
<polygon fill="#63b8ff" stroke="#63b8ff" points="498.94,-82.1 488.66,-79.54 495.1,-87.95 498.94,-82.1"/>
</a>
</g>
</g>
</g>
</svg>

<g id="navigator" transform="translate(0 0)" fill="#404254">
  <rect fill="#f2f5e9" fill-opacity="0.5" stroke="#606060" stroke-width=".5" x="0" y="0" width="60" height="60"/>
  <use id="zoomplus" xlink:href="#zoomPlus" x="17" y="9" onmousedown="handleZoom(evt,'in')"/>
  <use id="zoomminus" xlink:href="#zoomMin" x="42" y="9" onmousedown="handleZoom(evt,'out')"/>
  <use id="reset" xlink:href="#resetDef" x="30" y="36" onmousedown="handleReset()"/>
   <use id="arrowup" xlink:href="#arrowUp" x="0" y="0" onmousedown="handlePan(0,-1)"/>
  <use id="arrowright" xlink:href="#arrowRight" x="0" y="0" onmousedown="handlePan(1,0)"/>
  <use id="arrowdown" xlink:href="#arrowDown" x="0" y="0" onmousedown="handlePan(0,1)"/>
  <use id="arrowleft" xlink:href="#arrowLeft" x="0" y="0" onmousedown="handlePan(-1,0)"/>
</g>
<svg viewBox="0 0 15 15" width="100%" height="30px" preserveAspectRatio="xMaxYMin meet">
 <g id="arrow_out" transform="scale(0.3 0.3)">
  <a xlink:href="world__idf_8h__incl_org.svg" target="_base">
   <rect id="button" ry="5" rx="5" y="6" x="6" height="38" width="38"
        fill="#f2f5e9" fill-opacity="0.5" stroke="#606060" stroke-width="1.0"/>
   <path id="arrow"
     d="M 11.500037,31.436501 C 11.940474,20.09759 22.043105,11.32322 32.158766,21.979434 L 37.068811,17.246167 C 37.068811,17.246167 37.088388,32 37.088388,32 L 22.160133,31.978069 C 22.160133,31.978069 26.997745,27.140456 26.997745,27.140456 C 18.528582,18.264221 13.291696,25.230495 11.500037,31.436501 z"
     style="fill:#404040;"/>
  </a>
 </g>
</svg>

<style type='text/css'>
<![CDATA[
[data-mouse-over-selected='false'] { opacity: 0.7; }
[data-mouse-over-selected='true']  { opacity: 1.0; }
]]>
</style>
<script type="application/ecmascript"><![CDATA[
document.addEventListener('DOMContentLoaded', (event) => {
  highlightEdges();
  highlightAdjacentNodes();
});
]]></script>
</svg>
