<?xml version="1.0" encoding="UTF-8" standalone="no"?>
<!DOCTYPE svg PUBLIC "-//W3C//DTD SVG 1.1//EN"
 "http://www.w3.org/Graphics/SVG/1.1/DTD/svg11.dtd">
<!-- Generated by graphviz version 10.0.1 (0)
 -->
<!-- Title: world_idf.h Pages: 1 -->
<svg width="1043pt" height="364pt"
 viewBox="0.00 0.00 1043.00 364.00" xmlns="http://www.w3.org/2000/svg" xmlns:xlink="http://www.w3.org/1999/xlink">
<g id="graph0" class="graph" transform="scale(1 1) rotate(0) translate(4 360)">
<title>world_idf.h</title>
<!-- Node1 -->
<g id="Node000001" class="node">
<title>Node1</title>
<g id="a_Node000001"><a xlink:title="Contains the class for Importance Density Function (IDF) for the world.">
<polygon fill="#999999" stroke="#666666" points="528.88,-356 467.12,-356 467.12,-337.5 528.88,-337.5 528.88,-356"/>
<text text-anchor="middle" x="498" y="-342.5" font-family="Helvetica,sans-Serif" font-size="10.00">world_idf.h</text>
</a>
</g>
</g>
<!-- Node2 -->
<g id="Node000002" class="node">
<title>Node2</title>
<g id="a_Node000002"><a xlink:href="core__binds_8h.html" target="_top" xlink:title="Provides python bindings for the core CoverageControl library using pybind11.">
<polygon fill="white" stroke="#666666" points="676.75,-73 605.25,-73 605.25,-54.5 676.75,-54.5 676.75,-73"/>
<text text-anchor="middle" x="641" y="-59.5" font-family="Helvetica,sans-Serif" font-size="10.00">core_binds.h</text>
</a>
</g>
</g>
<!-- Node1&#45;&gt;Node2 -->
<g id="edge1_Node000001_Node000002" class="edge">
<title>Node1&#45;&gt;Node2</title>
<g id="a_edge1_Node000001_Node000002"><a xlink:title=" ">
<path fill="none" stroke="#63b8ff" d="M540.34,-346.28C667.13,-346.76 1035,-339.46 1035,-238.75 1035,-238.75 1035,-238.75 1035,-182.25 1035,-140.17 1011.77,-129.47 975,-109 924.47,-80.86 752.71,-69.79 677.16,-66.21"/>
<polygon fill="#63b8ff" stroke="#63b8ff" points="540.73,-342.79 530.71,-346.23 540.69,-349.79 540.73,-342.79"/>
</a>
</g>
</g>
<!-- Node4 -->
<g id="Node000004" class="node">
<title>Node4</title>
<g id="a_Node000004"><a xlink:href="coverage__algorithm_8cpp.html" target="_top" xlink:title="Program to test the CVT&#45;based (Lloyd&#39;s) coverage control algorithms.">
<polygon fill="white" stroke="#666666" points="184.38,-73 65.62,-73 65.62,-54.5 184.38,-54.5 184.38,-73"/>
<text text-anchor="middle" x="125" y="-59.5" font-family="Helvetica,sans-Serif" font-size="10.00">coverage_algorithm.cpp</text>
</a>
</g>
</g>
<!-- Node1&#45;&gt;Node4 -->
<g id="edge3_Node000001_Node000004" class="edge">
<title>Node1&#45;&gt;Node4</title>
<g id="a_edge3_Node000001_Node000004"><a xlink:title=" ">
<path fill="none" stroke="#63b8ff" d="M455.55,-345.62C335.13,-344.12 0,-331.61 0,-238.75 0,-238.75 0,-238.75 0,-182.25 0,-126.41 67.06,-89.33 102.94,-73.49"/>
<polygon fill="#63b8ff" stroke="#63b8ff" points="455.3,-349.12 465.33,-345.72 455.37,-342.12 455.3,-349.12"/>
</a>
</g>
</g>
<!-- Node5 -->
<g id="Node000005" class="node">
<title>Node5</title>
<g id="a_Node000005"><a xlink:href="coverage__system_8h.html" target="_top" xlink:title="The file contains the CoverageSystem class, which is the main class for the coverage control library.">
<polygon fill="white" stroke="#666666" points="514.62,-247 415.38,-247 415.38,-228.5 514.62,-228.5 514.62,-247"/>
<text text-anchor="middle" x="465" y="-233.5" font-family="Helvetica,sans-Serif" font-size="10.00">coverage_system.h</text>
</a>
</g>
</g>
<!-- Node1&#45;&gt;Node5 -->
<g id="edge4_Node000001_Node000005" class="edge">
<title>Node1&#45;&gt;Node5</title>
<g id="a_edge4_Node000001_Node000005"><a xlink:title=" ">
<path fill="none" stroke="#63b8ff" d="M491.84,-326.45C489.38,-318.7 486.53,-309.68 484,-301.5 478.01,-282.15 471.16,-259.37 467.55,-247.29"/>
<polygon fill="#63b8ff" stroke="#63b8ff" points="488.46,-327.37 494.83,-335.83 495.13,-325.24 488.46,-327.37"/>
</a>
</g>
</g>
<!-- Node15 -->
<g id="Node000015" class="node">
<title>Node15</title>
<g id="a_Node000015"><a xlink:href="robot__model_8h.html" target="_top" xlink:title="Class for handling the robot model.">
<polygon fill="white" stroke="#666666" points="570.75,-301.5 493.25,-301.5 493.25,-283 570.75,-283 570.75,-301.5"/>
<text text-anchor="middle" x="532" y="-288" font-family="Helvetica,sans-Serif" font-size="10.00">robot_model.h</text>
</a>
</g>
</g>
<!-- Node1&#45;&gt;Node15 -->
<g id="edge32_Node000001_Node000015" class="edge">
<title>Node1&#45;&gt;Node15</title>
<g id="a_edge32_Node000001_Node000015"><a xlink:title=" ">
<path fill="none" stroke="#63b8ff" d="M509.71,-327.66C515.4,-318.88 521.97,-308.74 526.49,-301.76"/>
<polygon fill="#63b8ff" stroke="#63b8ff" points="506.94,-325.51 504.44,-335.81 512.81,-329.32 506.94,-325.51"/>
</a>
</g>
</g>
<!-- Node3 -->
<g id="Node000003" class="node">
<title>Node3</title>
<g id="a_Node000003"><a xlink:href="python__binds_8cpp.html" target="_top" xlink:title="Python bindings for the CoverageControl library using pybind11 (core_binds.h)">
<polygon fill="white" stroke="#666666" points="385.25,-18.5 292.75,-18.5 292.75,0 385.25,0 385.25,-18.5"/>
<text text-anchor="middle" x="339" y="-5" font-family="Helvetica,sans-Serif" font-size="10.00">python_binds.cpp</text>
</a>
</g>
</g>
<!-- Node2&#45;&gt;Node3 -->
<g id="edge2_Node000002_Node000003" class="edge">
<title>Node2&#45;&gt;Node3</title>
<g id="a_edge2_Node000002_Node000003"><a xlink:title=" ">
<path fill="none" stroke="#63b8ff" d="M593.69,-54.52C536.83,-44.64 442.06,-28.17 385.55,-18.34"/>
<polygon fill="#63b8ff" stroke="#63b8ff" points="592.93,-57.95 603.38,-56.21 594.13,-51.05 592.93,-57.95"/>
</a>
</g>
</g>
<!-- Node5&#45;&gt;Node2 -->
<g id="edge23_Node000005_Node000002" class="edge">
<title>Node5&#45;&gt;Node2</title>
<g id="a_edge23_Node000005_Node000002"><a xlink:title=" ">
<path fill="none" stroke="#63b8ff" d="M526.09,-233.45C642.53,-225.73 889.22,-202.03 940,-138 948.01,-127.9 948.42,-118.76 940,-109 906.4,-70.07 748.98,-64.81 677.04,-64.49"/>
<polygon fill="#63b8ff" stroke="#63b8ff" points="526.16,-229.94 516.41,-234.07 526.61,-236.92 526.16,-229.94"/>
</a>
</g>
</g>
<!-- Node5&#45;&gt;Node3 -->
<g id="edge30_Node000005_Node000003" class="edge">
<title>Node5&#45;&gt;Node3</title>
<g id="a_edge30_Node000005_Node000003"><a xlink:title=" ">
<path fill="none" stroke="#63b8ff" d="M403.74,-232.54C324.48,-226.36 191.33,-213.25 147,-192.5 86.78,-164.31 71.26,-137.94 57,-73 55.24,-64.97 51.66,-60.75 57,-54.5 86.76,-19.71 220.43,-12.09 292.54,-10.54"/>
<polygon fill="#63b8ff" stroke="#63b8ff" points="403.28,-236.01 413.51,-233.29 403.81,-229.03 403.28,-236.01"/>
</a>
</g>
</g>
<!-- Node5&#45;&gt;Node4 -->
<g id="edge24_Node000005_Node000004" class="edge">
<title>Node5&#45;&gt;Node4</title>
<g id="a_edge24_Node000005_Node000004"><a xlink:title=" ">
<path fill="none" stroke="#63b8ff" d="M403.59,-230.33C307.05,-218.73 127.41,-190.44 95,-138 81.56,-116.26 103.49,-87.44 116.48,-73.31"/>
<polygon fill="#63b8ff" stroke="#63b8ff" points="403.09,-233.8 413.43,-231.49 403.91,-226.85 403.09,-233.8"/>
</a>
</g>
</g>
<!-- Node6 -->
<g id="Node000006" class="node">
<title>Node6</title>
<g id="a_Node000006"><a xlink:href="abstract__controller_8h.html" target="_top" xlink:title="Contains the abstract class for coverage control algorithms.">
<polygon fill="white" stroke="#666666" points="597.25,-192.5 492.75,-192.5 492.75,-174 597.25,-174 597.25,-192.5"/>
<text text-anchor="middle" x="545" y="-179" font-family="Helvetica,sans-Serif" font-size="10.00">abstract_controller.h</text>
</a>
</g>
</g>
<!-- Node5&#45;&gt;Node6 -->
<g id="edge5_Node000005_Node000006" class="edge">
<title>Node5&#45;&gt;Node6</title>
<g id="a_edge5_Node000005_Node000006"><a xlink:title=" ">
<path fill="none" stroke="#63b8ff" d="M487.8,-221.79C502.03,-212.45 519.84,-200.76 531.77,-192.93"/>
<polygon fill="#63b8ff" stroke="#63b8ff" points="485.92,-218.84 479.48,-227.25 489.76,-224.69 485.92,-218.84"/>
</a>
</g>
</g>
<!-- Node7 -->
<g id="Node000007" class="node">
<title>Node7</title>
<g id="a_Node000007"><a xlink:href="centralized__cvt_8h.html" target="_top" xlink:title="Contains the class CentralizedCVT.">
<polygon fill="white" stroke="#666666" points="573.38,-132.75 484.62,-132.75 484.62,-114.25 573.38,-114.25 573.38,-132.75"/>
<text text-anchor="middle" x="529" y="-119.25" font-family="Helvetica,sans-Serif" font-size="10.00">centralized_cvt.h</text>
</a>
</g>
</g>
<!-- Node5&#45;&gt;Node7 -->
<g id="edge21_Node000005_Node000007" class="edge">
<title>Node5&#45;&gt;Node7</title>
<g id="a_edge21_Node000005_Node000007"><a xlink:title=" ">
<path fill="none" stroke="#63b8ff" d="M468.64,-216.9C471.55,-204.09 476.42,-187.37 484,-174 493.28,-157.63 508.84,-142.16 519.01,-133"/>
<polygon fill="#63b8ff" stroke="#63b8ff" points="465.22,-216.17 466.66,-226.67 472.08,-217.57 465.22,-216.17"/>
</a>
</g>
</g>
<!-- Node8 -->
<g id="Node000008" class="node">
<title>Node8</title>
<g id="a_Node000008"><a xlink:href="clairvoyant__cvt_8h.html" target="_top" xlink:title="Clairvoyant CVT algorithm.">
<polygon fill="white" stroke="#666666" points="192.38,-132.75 103.62,-132.75 103.62,-114.25 192.38,-114.25 192.38,-132.75"/>
<text text-anchor="middle" x="148" y="-119.25" font-family="Helvetica,sans-Serif" font-size="10.00">clairvoyant_cvt.h</text>
</a>
</g>
</g>
<!-- Node5&#45;&gt;Node8 -->
<g id="edge22_Node000005_Node000008" class="edge">
<title>Node5&#45;&gt;Node8</title>
<g id="a_edge22_Node000005_Node000008"><a xlink:title=" ">
<path fill="none" stroke="#63b8ff" d="M433.71,-223.8C413.81,-215.35 387.64,-203.82 365,-192.5 349.96,-184.98 347.57,-180.34 332,-174 318.1,-168.34 231.42,-145.82 182.15,-133.2"/>
<polygon fill="#63b8ff" stroke="#63b8ff" points="432.08,-226.92 442.66,-227.57 434.8,-220.46 432.08,-226.92"/>
</a>
</g>
</g>
<!-- Node9 -->
<g id="Node000009" class="node">
<title>Node9</title>
<g id="a_Node000009"><a xlink:href="decentralized__cvt_8h.html" target="_top" xlink:title="Contains the DecentralizedCVT class.">
<polygon fill="white" stroke="#666666" points="690.62,-132.75 591.38,-132.75 591.38,-114.25 690.62,-114.25 690.62,-132.75"/>
<text text-anchor="middle" x="641" y="-119.25" font-family="Helvetica,sans-Serif" font-size="10.00">decentralized_cvt.h</text>
</a>
</g>
</g>
<!-- Node5&#45;&gt;Node9 -->
<g id="edge26_Node000005_Node000009" class="edge">
<title>Node5&#45;&gt;Node9</title>
<g id="a_edge26_Node000005_Node000009"><a xlink:title=" ">
<path fill="none" stroke="#63b8ff" d="M525.88,-228.51C552.85,-222.3 583.49,-211.45 606,-192.5 625.1,-176.42 635.02,-147.29 638.95,-132.94"/>
<polygon fill="#63b8ff" stroke="#63b8ff" points="525.51,-225.01 516.45,-230.51 526.96,-231.86 525.51,-225.01"/>
</a>
</g>
</g>
<!-- Node10 -->
<g id="Node000010" class="node">
<title>Node10</title>
<g id="a_Node000010"><a xlink:href="near__optimal__cvt_8h.html" target="_top" xlink:title="NearOptimalCVT class Global offline oracle: has complete information about the environment....">
<polygon fill="white" stroke="#666666" points="806.88,-132.75 709.12,-132.75 709.12,-114.25 806.88,-114.25 806.88,-132.75"/>
<text text-anchor="middle" x="758" y="-119.25" font-family="Helvetica,sans-Serif" font-size="10.00">near_optimal_cvt.h</text>
</a>
</g>
</g>
<!-- Node5&#45;&gt;Node10 -->
<g id="edge27_Node000005_Node000010" class="edge">
<title>Node5&#45;&gt;Node10</title>
<g id="a_edge27_Node000005_Node000010"><a xlink:title=" ">
<path fill="none" stroke="#63b8ff" d="M517.69,-225.51C550.07,-217.86 592.1,-206.57 628,-192.5 672.11,-175.21 720.75,-147.15 744.05,-133.09"/>
<polygon fill="#63b8ff" stroke="#63b8ff" points="517.09,-222.06 508.13,-227.73 518.67,-228.88 517.09,-222.06"/>
</a>
</g>
</g>
<!-- Node11 -->
<g id="Node000011" class="node">
<title>Node11</title>
<g id="a_Node000011"><a xlink:href="oracle__bang__explore__exploit_8h.html" target="_top" xlink:title="First trial of oracle with exploration and exploitation. The oracle uses complete information about t...">
<polygon fill="white" stroke="#666666" points="930.62,-138 825.38,-138 825.38,-109 930.62,-109 930.62,-138"/>
<text text-anchor="start" x="833.38" y="-124.5" font-family="Helvetica,sans-Serif" font-size="10.00">oracle_bang_explore</text>
<text text-anchor="middle" x="878" y="-114" font-family="Helvetica,sans-Serif" font-size="10.00">_exploit.h</text>
</a>
</g>
</g>
<!-- Node5&#45;&gt;Node11 -->
<g id="edge28_Node000005_Node000011" class="edge">
<title>Node5&#45;&gt;Node11</title>
<g id="a_edge28_Node000005_Node000011"><a xlink:title=" ">
<path fill="none" stroke="#63b8ff" d="M520.01,-225.79C559.91,-217.51 615.07,-205.41 663,-192.5 724.43,-175.95 794.5,-153.02 837.49,-138.47"/>
<polygon fill="#63b8ff" stroke="#63b8ff" points="519.49,-222.32 510.4,-227.77 520.9,-229.18 519.49,-222.32"/>
</a>
</g>
</g>
<!-- Node12 -->
<g id="Node000012" class="node">
<title>Node12</title>
<g id="a_Node000012"><a xlink:href="oracle__explore__exploit_8h.html" target="_top" xlink:title="Old trial of exploration and exploitation Uses system map for exploration as well.">
<polygon fill="white" stroke="#666666" points="331.12,-132.75 210.88,-132.75 210.88,-114.25 331.12,-114.25 331.12,-132.75"/>
<text text-anchor="middle" x="271" y="-119.25" font-family="Helvetica,sans-Serif" font-size="10.00">oracle_explore_exploit.h</text>
</a>
</g>
</g>
<!-- Node5&#45;&gt;Node12 -->
<g id="edge29_Node000005_Node000012" class="edge">
<title>Node5&#45;&gt;Node12</title>
<g id="a_edge29_Node000005_Node000012"><a xlink:title=" ">
<path fill="none" stroke="#63b8ff" d="M442.43,-221.9C422.36,-208.86 392.07,-189.59 365,-174 338.79,-158.9 307.58,-142.83 288.54,-133.23"/>
<polygon fill="#63b8ff" stroke="#63b8ff" points="440.38,-224.74 450.66,-227.28 444.2,-218.88 440.38,-224.74"/>
</a>
</g>
</g>
<!-- Node13 -->
<g id="Node000013" class="node">
<title>Node13</title>
<g id="a_Node000013"><a xlink:href="simul__explore__exploit_8h.html" target="_top" xlink:title="Simultaneous exploration and exploitation algorithm Uses frontier&#45;based exploration with bias towards...">
<polygon fill="white" stroke="#666666" points="466.62,-132.75 349.38,-132.75 349.38,-114.25 466.62,-114.25 466.62,-132.75"/>
<text text-anchor="middle" x="408" y="-119.25" font-family="Helvetica,sans-Serif" font-size="10.00">simul_explore_exploit.h</text>
</a>
</g>
</g>
<!-- Node5&#45;&gt;Node13 -->
<g id="edge31_Node000005_Node000013" class="edge">
<title>Node5&#45;&gt;Node13</title>
<g id="a_edge31_Node000005_Node000013"><a xlink:title=" ">
<path fill="none" stroke="#63b8ff" d="M455.53,-218.11C443.02,-193.47 421.5,-151.08 412.33,-133.03"/>
<polygon fill="#63b8ff" stroke="#63b8ff" points="452.38,-219.63 460.03,-226.96 458.62,-216.46 452.38,-219.63"/>
</a>
</g>
</g>
<!-- Node14 -->
<g id="Node000014" class="node">
<title>Node14</title>
<g id="a_Node000014"><a xlink:href="coverage__system_8cpp.html" target="_top" xlink:title="Contains the implementation of the CoverageSystem class.">
<polygon fill="white" stroke="#666666" points="322.88,-192.5 213.12,-192.5 213.12,-174 322.88,-174 322.88,-192.5"/>
<text text-anchor="middle" x="268" y="-179" font-family="Helvetica,sans-Serif" font-size="10.00">coverage_system.cpp</text>
</a>
</g>
</g>
<!-- Node5&#45;&gt;Node14 -->
<g id="edge25_Node000005_Node000014" class="edge">
<title>Node5&#45;&gt;Node14</title>
<g id="a_edge25_Node000005_Node000014"><a xlink:title=" ">
<path fill="none" stroke="#63b8ff" d="M421.65,-225.2C385.13,-215.46 333.68,-201.75 300.58,-192.93"/>
<polygon fill="#63b8ff" stroke="#63b8ff" points="420.44,-228.5 431.01,-227.69 422.25,-221.73 420.44,-228.5"/>
</a>
</g>
</g>
<!-- Node6&#45;&gt;Node7 -->
<g id="edge6_Node000006_Node000007" class="edge">
<title>Node6&#45;&gt;Node7</title>
<g id="a_edge6_Node000006_Node000007"><a xlink:title=" ">
<path fill="none" stroke="#63b8ff" d="M539.57,-162.66C536.78,-152.59 533.52,-140.83 531.37,-133.06"/>
<polygon fill="#63b8ff" stroke="#63b8ff" points="536.19,-163.57 542.24,-172.27 542.94,-161.7 536.19,-163.57"/>
</a>
</g>
</g>
<!-- Node6&#45;&gt;Node8 -->
<g id="edge8_Node000006_Node000008" class="edge">
<title>Node6&#45;&gt;Node8</title>
<g id="a_edge8_Node000006_Node000008"><a xlink:title=" ">
<path fill="none" stroke="#63b8ff" d="M481.28,-176.28C412.14,-169.27 298.69,-156.26 202,-138 194.88,-136.66 187.29,-134.94 180.13,-133.19"/>
<polygon fill="#63b8ff" stroke="#63b8ff" points="480.6,-179.73 490.9,-177.24 481.29,-172.76 480.6,-179.73"/>
</a>
</g>
</g>
<!-- Node6&#45;&gt;Node9 -->
<g id="edge11_Node000006_Node000009" class="edge">
<title>Node6&#45;&gt;Node9</title>
<g id="a_edge11_Node000006_Node000009"><a xlink:title=" ">
<path fill="none" stroke="#63b8ff" d="M568.98,-167.82C587.05,-156.96 611.23,-142.41 626.46,-133.25"/>
<polygon fill="#63b8ff" stroke="#63b8ff" points="567.23,-164.79 560.46,-172.95 570.84,-170.79 567.23,-164.79"/>
</a>
</g>
</g>
<!-- Node6&#45;&gt;Node10 -->
<g id="edge13_Node000006_Node000010" class="edge">
<title>Node6&#45;&gt;Node10</title>
<g id="a_edge13_Node000006_Node000010"><a xlink:title=" ">
<path fill="none" stroke="#63b8ff" d="M587.83,-170.64C628.62,-159.58 689.1,-143.18 725.89,-133.2"/>
<polygon fill="#63b8ff" stroke="#63b8ff" points="587.08,-167.21 578.35,-173.21 588.92,-173.97 587.08,-167.21"/>
</a>
</g>
</g>
<!-- Node6&#45;&gt;Node11 -->
<g id="edge15_Node000006_Node000011" class="edge">
<title>Node6&#45;&gt;Node11</title>
<g id="a_edge15_Node000006_Node000011"><a xlink:title=" ">
<path fill="none" stroke="#63b8ff" d="M608.93,-172.78C663.95,-164.4 745.39,-151.44 816,-138 818.92,-137.44 821.92,-136.85 824.94,-136.25"/>
<polygon fill="#63b8ff" stroke="#63b8ff" points="608.46,-169.31 599.1,-174.27 609.51,-176.23 608.46,-169.31"/>
</a>
</g>
</g>
<!-- Node6&#45;&gt;Node12 -->
<g id="edge17_Node000006_Node000012" class="edge">
<title>Node6&#45;&gt;Node12</title>
<g id="a_edge17_Node000006_Node000012"><a xlink:title=" ">
<path fill="none" stroke="#63b8ff" d="M492.59,-171.2C440.08,-160.14 360.35,-143.33 312.2,-133.18"/>
<polygon fill="#63b8ff" stroke="#63b8ff" points="491.69,-174.59 502.2,-173.23 493.14,-167.74 491.69,-174.59"/>
</a>
</g>
</g>
<!-- Node6&#45;&gt;Node13 -->
<g id="edge19_Node000006_Node000013" class="edge">
<title>Node6&#45;&gt;Node13</title>
<g id="a_edge19_Node000006_Node000013"><a xlink:title=" ">
<path fill="none" stroke="#63b8ff" d="M514.02,-169.19C487.92,-158.19 451.31,-142.76 428.65,-133.2"/>
<polygon fill="#63b8ff" stroke="#63b8ff" points="512.52,-172.36 523.1,-173.02 515.24,-165.91 512.52,-172.36"/>
</a>
</g>
</g>
<!-- Node7&#45;&gt;Node2 -->
<g id="edge7_Node000007_Node000002" class="edge">
<title>Node7&#45;&gt;Node2</title>
<g id="a_edge7_Node000007_Node000002"><a xlink:title=" ">
<path fill="none" stroke="#63b8ff" d="M555.51,-108.83C576.73,-97.89 605.85,-82.87 624.04,-73.5"/>
<polygon fill="#63b8ff" stroke="#63b8ff" points="554.16,-105.59 546.87,-113.29 557.36,-111.81 554.16,-105.59"/>
</a>
</g>
</g>
<!-- Node8&#45;&gt;Node2 -->
<g id="edge9_Node000008_Node000002" class="edge">
<title>Node8&#45;&gt;Node2</title>
<g id="a_edge9_Node000008_Node000002"><a xlink:title=" ">
<path fill="none" stroke="#63b8ff" d="M190.41,-111.29C194.31,-110.44 198.22,-109.66 202,-109 350.28,-83.13 529.58,-70.9 604.91,-66.62"/>
<polygon fill="#63b8ff" stroke="#63b8ff" points="189.96,-107.8 181.01,-113.46 191.54,-114.62 189.96,-107.8"/>
</a>
</g>
</g>
<!-- Node8&#45;&gt;Node4 -->
<g id="edge10_Node000008_Node000004" class="edge">
<title>Node8&#45;&gt;Node4</title>
<g id="a_edge10_Node000008_Node000004"><a xlink:title=" ">
<path fill="none" stroke="#63b8ff" d="M140.46,-103.57C136.39,-93.36 131.57,-81.25 128.41,-73.31"/>
<polygon fill="#63b8ff" stroke="#63b8ff" points="137.09,-104.58 144.05,-112.57 143.6,-101.99 137.09,-104.58"/>
</a>
</g>
</g>
<!-- Node9&#45;&gt;Node2 -->
<g id="edge12_Node000009_Node000002" class="edge">
<title>Node9&#45;&gt;Node2</title>
<g id="a_edge12_Node000009_Node000002"><a xlink:title=" ">
<path fill="none" stroke="#63b8ff" d="M641,-102.58C641,-92.58 641,-81 641,-73.31"/>
<polygon fill="#63b8ff" stroke="#63b8ff" points="637.5,-102.47 641,-112.47 644.5,-102.47 637.5,-102.47"/>
</a>
</g>
</g>
<!-- Node10&#45;&gt;Node2 -->
<g id="edge14_Node000010_Node000002" class="edge">
<title>Node10&#45;&gt;Node2</title>
<g id="a_edge14_Node000010_Node000002"><a xlink:title=" ">
<path fill="none" stroke="#63b8ff" d="M730.34,-108.85C708.14,-97.89 677.64,-82.83 658.64,-73.45"/>
<polygon fill="#63b8ff" stroke="#63b8ff" points="728.61,-111.9 739.13,-113.18 731.71,-105.62 728.61,-111.9"/>
</a>
</g>
</g>
<!-- Node11&#45;&gt;Node2 -->
<g id="edge16_Node000011_Node000002" class="edge">
<title>Node11&#45;&gt;Node2</title>
<g id="a_edge16_Node000011_Node000002"><a xlink:title=" ">
<path fill="none" stroke="#63b8ff" d="M813.92,-106.89C769.9,-96.16 713.08,-82.31 676.83,-73.48"/>
<polygon fill="#63b8ff" stroke="#63b8ff" points="813.09,-110.29 823.64,-109.25 814.75,-103.49 813.09,-110.29"/>
</a>
</g>
</g>
<!-- Node12&#45;&gt;Node2 -->
<g id="edge18_Node000012_Node000002" class="edge">
<title>Node12&#45;&gt;Node2</title>
<g id="a_edge18_Node000012_Node000002"><a xlink:title=" ">
<path fill="none" stroke="#63b8ff" d="M325.02,-111.68C330.08,-110.74 335.13,-109.83 340,-109 435.27,-92.69 548.15,-77.08 604.77,-69.51"/>
<polygon fill="#63b8ff" stroke="#63b8ff" points="324.67,-108.18 315.49,-113.48 325.97,-115.06 324.67,-108.18"/>
</a>
</g>
</g>
<!-- Node13&#45;&gt;Node2 -->
<g id="edge20_Node000013_Node000002" class="edge">
<title>Node13&#45;&gt;Node2</title>
<g id="a_edge20_Node000013_Node000002"><a xlink:title=" ">
<path fill="none" stroke="#63b8ff" d="M454.26,-111.03C498.92,-99.97 565.54,-83.45 605.96,-73.43"/>
<polygon fill="#63b8ff" stroke="#63b8ff" points="453.47,-107.62 444.6,-113.43 455.15,-114.42 453.47,-107.62"/>
</a>
</g>
</g>
<!-- Node15&#45;&gt;Node2 -->
<g id="edge33_Node000015_Node000002" class="edge">
<title>Node15&#45;&gt;Node2</title>
<g id="a_edge33_Node000015_Node000002"><a xlink:title=" ">
<path fill="none" stroke="#63b8ff" d="M582.47,-291.97C678.15,-290.15 883.04,-270.27 958,-138 964.35,-126.79 966.46,-118.72 958,-109 921.93,-67.55 752.43,-63.73 677.17,-64.14"/>
<polygon fill="#63b8ff" stroke="#63b8ff" points="582.55,-288.46 572.6,-292.09 582.64,-295.46 582.55,-288.46"/>
</a>
</g>
</g>
<!-- Node15&#45;&gt;Node5 -->
<g id="edge34_Node000015_Node000005" class="edge">
<title>Node15&#45;&gt;Node5</title>
<g id="a_edge34_Node000015_Node000005"><a xlink:title=" ">
<path fill="none" stroke="#63b8ff" d="M512.15,-275.7C500.28,-266.39 485.64,-254.93 475.86,-247.26"/>
<polygon fill="#63b8ff" stroke="#63b8ff" points="509.71,-278.23 519.74,-281.65 514.03,-272.72 509.71,-278.23"/>
</a>
</g>
</g>
</g>
</svg>
