<?xml version="1.0" encoding="UTF-8" standalone="no"?>
<!DOCTYPE svg PUBLIC "-//W3C//DTD SVG 1.1//EN"
 "http://www.w3.org/Graphics/SVG/1.1/DTD/svg11.dtd">
<!-- Generated by graphviz version 12.1.2 (0)
 -->
<!-- Title: world_idf.cpp Pages: 1 -->
<svg width="2933pt" height="276pt"
 viewBox="0.00 0.00 2933.37 276.00" xmlns="http://www.w3.org/2000/svg" xmlns:xlink="http://www.w3.org/1999/xlink">
<g id="graph0" class="graph" transform="scale(1 1) rotate(0) translate(4 272)">
<title>world_idf.cpp</title>
<!-- Node1 -->
<g id="Node000001" class="node">
<title>Node1</title>
<g id="a_Node000001"><a xlink:title="Contains the implementation of the WorldIDF class.">
<polygon fill="#999999" stroke="#666666" points="2600.12,-268 2527.88,-268 2527.88,-249.5 2600.12,-249.5 2600.12,-268"/>
<text text-anchor="middle" x="2564" y="-254.5" font-family="Helvetica,sans-Serif" font-size="10.00">world_idf.cpp</text>
</a>
</g>
</g>
<!-- Node2 -->
<g id="Node000002" class="node">
<title>Node2</title>
<g id="a_Node000002"><a xlink:href="config_8h.html" target="_top" xlink:title="Contains the configuration for the CGAL library.">
<polygon fill="white" stroke="#666666" points="1162.88,-213.5 1053.12,-213.5 1053.12,-184.5 1162.88,-184.5 1162.88,-213.5"/>
<text text-anchor="start" x="1061.12" y="-200" font-family="Helvetica,sans-Serif" font-size="10.00">CoverageControl/cgal</text>
<text text-anchor="middle" x="1108" y="-189.5" font-family="Helvetica,sans-Serif" font-size="10.00">/config.h</text>
</a>
</g>
</g>
<!-- Node1&#45;&gt;Node2 -->
<g id="edge1_Node000001_Node000002" class="edge">
<title>Node1&#45;&gt;Node2</title>
<g id="a_edge1_Node000001_Node000002"><a xlink:title=" ">
<path fill="none" stroke="#63b8ff" d="M2527.65,-256.31C2334.61,-248.65 1428.9,-212.73 1174.57,-202.64"/>
<polygon fill="#63b8ff" stroke="#63b8ff" points="1174.95,-199.15 1164.82,-202.25 1174.68,-206.15 1174.95,-199.15"/>
</a>
</g>
</g>
<!-- Node17 -->
<g id="Node000017" class="node">
<title>Node17</title>
<g id="a_Node000017"><a xlink:href="polygon__utils_8h.html" target="_top" xlink:title="Provides utilities for polygon manipulation using CGAL.">
<polygon fill="white" stroke="#666666" points="2902.88,-143.25 2793.12,-143.25 2793.12,-114.25 2902.88,-114.25 2902.88,-143.25"/>
<text text-anchor="start" x="2801.12" y="-129.75" font-family="Helvetica,sans-Serif" font-size="10.00">CoverageControl/cgal</text>
<text text-anchor="middle" x="2848" y="-119.25" font-family="Helvetica,sans-Serif" font-size="10.00">/polygon_utils.h</text>
</a>
</g>
</g>
<!-- Node1&#45;&gt;Node17 -->
<g id="edge16_Node000001_Node000017" class="edge">
<title>Node1&#45;&gt;Node17</title>
<g id="a_edge16_Node000001_Node000017"><a xlink:title=" ">
<path fill="none" stroke="#63b8ff" d="M2598.46,-249.01C2627.06,-241.24 2668.48,-228.75 2703,-213.5 2744.39,-195.22 2789.05,-168.21 2817.71,-149.84"/>
<polygon fill="#63b8ff" stroke="#63b8ff" points="2819.38,-152.93 2825.87,-144.55 2815.57,-147.05 2819.38,-152.93"/>
</a>
</g>
</g>
<!-- Node22 -->
<g id="Node000022" class="node">
<title>Node22</title>
<g id="a_Node000022"><a xlink:href="constants_8h.html" target="_top" xlink:title="Constants for the CoverageControl library.">
<polygon fill="white" stroke="#666666" points="2592.38,-73 2449.62,-73 2449.62,-54.5 2592.38,-54.5 2592.38,-73"/>
<text text-anchor="middle" x="2521" y="-59.5" font-family="Helvetica,sans-Serif" font-size="10.00">CoverageControl/constants.h</text>
</a>
</g>
</g>
<!-- Node1&#45;&gt;Node22 -->
<g id="edge22_Node000001_Node000022" class="edge">
<title>Node1&#45;&gt;Node22</title>
<g id="a_edge22_Node000001_Node000022"><a xlink:title=" ">
<path fill="none" stroke="#63b8ff" d="M2578.75,-249.1C2616.17,-226.08 2709.16,-161.48 2670,-109 2659.32,-94.69 2619.88,-83.35 2584.26,-75.74"/>
<polygon fill="#63b8ff" stroke="#63b8ff" points="2585.35,-72.39 2574.85,-73.8 2583.93,-79.24 2585.35,-72.39"/>
</a>
</g>
</g>
<!-- Node26 -->
<g id="Node000026" class="node">
<title>Node26</title>
<g id="a_Node000026"><a xlink:href="world__idf_8h.html" target="_top" xlink:title="Contains the class for Importance Density Function (IDF) for the world.">
<polygon fill="white" stroke="#666666" points="2445.12,-213.5 2330.88,-213.5 2330.88,-184.5 2445.12,-184.5 2445.12,-213.5"/>
<text text-anchor="start" x="2338.88" y="-200" font-family="Helvetica,sans-Serif" font-size="10.00">CoverageControl/world</text>
<text text-anchor="middle" x="2388" y="-189.5" font-family="Helvetica,sans-Serif" font-size="10.00">_idf.h</text>
</a>
</g>
</g>
<!-- Node1&#45;&gt;Node26 -->
<g id="edge26_Node000001_Node000026" class="edge">
<title>Node1&#45;&gt;Node26</title>
<g id="a_edge26_Node000001_Node000026"><a xlink:title=" ">
<path fill="none" stroke="#63b8ff" d="M2537.65,-249.1C2512.35,-240.8 2473.37,-228.01 2441.54,-217.57"/>
<polygon fill="#63b8ff" stroke="#63b8ff" points="2442.65,-214.25 2432.05,-214.45 2440.46,-220.9 2442.65,-214.25"/>
</a>
</g>
</g>
<!-- Node3 -->
<g id="Node000003" class="node">
<title>Node3</title>
<g id="a_Node000003"><a xlink:title=" ">
<polygon fill="#e0e0e0" stroke="#999999" points="274.12,-138 141.88,-138 141.88,-119.5 274.12,-119.5 274.12,-138"/>
<text text-anchor="middle" x="208" y="-124.5" font-family="Helvetica,sans-Serif" font-size="10.00">CGAL/Arr_linear_traits_2.h</text>
</a>
</g>
</g>
<!-- Node2&#45;&gt;Node3 -->
<g id="edge2_Node000002_Node000003" class="edge">
<title>Node2&#45;&gt;Node3</title>
<g id="a_edge2_Node000002_Node000003"><a xlink:title=" ">
<path fill="none" stroke="#63b8ff" d="M1053.09,-198.2C920.11,-197.93 570.55,-192.68 283,-148.5 271.56,-146.74 259.31,-144.04 248.1,-141.23"/>
<polygon fill="#63b8ff" stroke="#63b8ff" points="249.33,-137.93 238.77,-138.8 247.57,-144.71 249.33,-137.93"/>
</a>
</g>
</g>
<!-- Node4 -->
<g id="Node000004" class="node">
<title>Node4</title>
<g id="a_Node000004"><a xlink:title=" ">
<polygon fill="#e0e0e0" stroke="#999999" points="411.75,-138 292.25,-138 292.25,-119.5 411.75,-119.5 411.75,-138"/>
<text text-anchor="middle" x="352" y="-124.5" font-family="Helvetica,sans-Serif" font-size="10.00">CGAL/Arrangement_2.h</text>
</a>
</g>
</g>
<!-- Node2&#45;&gt;Node4 -->
<g id="edge3_Node000002_Node000004" class="edge">
<title>Node2&#45;&gt;Node4</title>
<g id="a_edge3_Node000002_Node000004"><a xlink:title=" ">
<path fill="none" stroke="#63b8ff" d="M1052.71,-197.71C935.3,-196.28 652.79,-188.56 420,-148.5 410.11,-146.8 399.59,-144.26 389.85,-141.61"/>
<polygon fill="#63b8ff" stroke="#63b8ff" points="390.89,-138.26 380.31,-138.89 388.97,-145 390.89,-138.26"/>
</a>
</g>
</g>
<!-- Node5 -->
<g id="Node000005" class="node">
<title>Node5</title>
<g id="a_Node000005"><a xlink:title=" ">
<polygon fill="#e0e0e0" stroke="#999999" points="592.5,-138 429.5,-138 429.5,-119.5 592.5,-119.5 592.5,-138"/>
<text text-anchor="middle" x="511" y="-124.5" font-family="Helvetica,sans-Serif" font-size="10.00">CGAL/Delaunay_triangulation_2.h</text>
</a>
</g>
</g>
<!-- Node2&#45;&gt;Node5 -->
<g id="edge4_Node000002_Node000005" class="edge">
<title>Node2&#45;&gt;Node5</title>
<g id="a_edge4_Node000002_Node000005"><a xlink:title=" ">
<path fill="none" stroke="#63b8ff" d="M1052.73,-194.51C959.45,-188.2 764.98,-173.19 602,-148.5 588.29,-146.42 573.54,-143.63 559.98,-140.83"/>
<polygon fill="#63b8ff" stroke="#63b8ff" points="560.9,-137.45 550.4,-138.81 559.46,-144.3 560.9,-137.45"/>
</a>
</g>
</g>
<!-- Node6 -->
<g id="Node000006" class="node">
<title>Node6</title>
<g id="a_Node000006"><a xlink:title=" ">
<polygon fill="#e0e0e0" stroke="#999999" points="731.12,-148.5 610.88,-148.5 610.88,-109 731.12,-109 731.12,-148.5"/>
<text text-anchor="start" x="618.88" y="-135" font-family="Helvetica,sans-Serif" font-size="10.00">CGAL/Exact_predicates</text>
<text text-anchor="start" x="618.88" y="-124.5" font-family="Helvetica,sans-Serif" font-size="10.00">_exact_constructions</text>
<text text-anchor="middle" x="671" y="-114" font-family="Helvetica,sans-Serif" font-size="10.00">_kernel.h</text>
</a>
</g>
</g>
<!-- Node2&#45;&gt;Node6 -->
<g id="edge5_Node000002_Node000006" class="edge">
<title>Node2&#45;&gt;Node6</title>
<g id="a_edge5_Node000002_Node000006"><a xlink:title=" ">
<path fill="none" stroke="#63b8ff" d="M1052.76,-192.86C982.7,-185.84 858.04,-171.65 742.61,-148.9"/>
<polygon fill="#63b8ff" stroke="#63b8ff" points="743.45,-145.49 732.96,-146.96 742.08,-152.36 743.45,-145.49"/>
</a>
</g>
</g>
<!-- Node7 -->
<g id="Node000007" class="node">
<title>Node7</title>
<g id="a_Node000007"><a xlink:title=" ">
<polygon fill="#e0e0e0" stroke="#999999" points="876.88,-138 749.12,-138 749.12,-119.5 876.88,-119.5 876.88,-138"/>
<text text-anchor="middle" x="813" y="-124.5" font-family="Helvetica,sans-Serif" font-size="10.00">CGAL/Partition_traits_2.h</text>
</a>
</g>
</g>
<!-- Node2&#45;&gt;Node7 -->
<g id="edge6_Node000002_Node000007" class="edge">
<title>Node2&#45;&gt;Node7</title>
<g id="a_edge6_Node000002_Node000007"><a xlink:title=" ">
<path fill="none" stroke="#63b8ff" d="M1052.69,-186.18C1007.71,-176.45 942.64,-162.08 886,-148.5 876.58,-146.24 866.5,-143.72 856.94,-141.28"/>
<polygon fill="#63b8ff" stroke="#63b8ff" points="858.04,-137.95 847.48,-138.85 856.29,-144.73 858.04,-137.95"/>
</a>
</g>
</g>
<!-- Node8 -->
<g id="Node000008" class="node">
<title>Node8</title>
<g id="a_Node000008"><a xlink:title=" ">
<polygon fill="#e0e0e0" stroke="#999999" points="1045.12,-138 894.88,-138 894.88,-119.5 1045.12,-119.5 1045.12,-138"/>
<text text-anchor="middle" x="970" y="-124.5" font-family="Helvetica,sans-Serif" font-size="10.00">CGAL/Polygon_with_holes_2.h</text>
</a>
</g>
</g>
<!-- Node2&#45;&gt;Node8 -->
<g id="edge7_Node000002_Node000008" class="edge">
<title>Node2&#45;&gt;Node8</title>
<g id="a_edge7_Node000002_Node000008"><a xlink:title=" ">
<path fill="none" stroke="#63b8ff" d="M1079.74,-184.02C1055.67,-172.12 1021.29,-155.12 997.46,-143.33"/>
<polygon fill="#63b8ff" stroke="#63b8ff" points="999.19,-140.28 988.68,-138.99 996.09,-146.56 999.19,-140.28"/>
</a>
</g>
</g>
<!-- Node9 -->
<g id="Node000009" class="node">
<title>Node9</title>
<g id="a_Node000009"><a xlink:title=" ">
<polygon fill="#e0e0e0" stroke="#999999" points="1152.75,-138 1063.25,-138 1063.25,-119.5 1152.75,-119.5 1152.75,-138"/>
<text text-anchor="middle" x="1108" y="-124.5" font-family="Helvetica,sans-Serif" font-size="10.00">CGAL/Random.h</text>
</a>
</g>
</g>
<!-- Node2&#45;&gt;Node9 -->
<g id="edge8_Node000002_Node000009" class="edge">
<title>Node2&#45;&gt;Node9</title>
<g id="a_edge8_Node000002_Node000009"><a xlink:title=" ">
<path fill="none" stroke="#63b8ff" d="M1108,-184.19C1108,-174.23 1108,-160.63 1108,-149.52"/>
<polygon fill="#63b8ff" stroke="#63b8ff" points="1111.5,-149.87 1108,-139.87 1104.5,-149.87 1111.5,-149.87"/>
</a>
</g>
</g>
<!-- Node10 -->
<g id="Node000010" class="node">
<title>Node10</title>
<g id="a_Node000010"><a xlink:title=" ">
<polygon fill="#e0e0e0" stroke="#999999" points="1263.62,-138 1170.38,-138 1170.38,-119.5 1263.62,-119.5 1263.62,-138"/>
<text text-anchor="middle" x="1217" y="-124.5" font-family="Helvetica,sans-Serif" font-size="10.00">CGAL/algorithm.h</text>
</a>
</g>
</g>
<!-- Node2&#45;&gt;Node10 -->
<g id="edge9_Node000002_Node000010" class="edge">
<title>Node2&#45;&gt;Node10</title>
<g id="a_edge9_Node000002_Node000010"><a xlink:title=" ">
<path fill="none" stroke="#63b8ff" d="M1130.32,-184.02C1148.82,-172.44 1175.02,-156.03 1193.77,-144.3"/>
<polygon fill="#63b8ff" stroke="#63b8ff" points="1195.42,-147.39 1202.04,-139.12 1191.7,-141.46 1195.42,-147.39"/>
</a>
</g>
</g>
<!-- Node11 -->
<g id="Node000011" class="node">
<title>Node11</title>
<g id="a_Node000011"><a xlink:title=" ">
<polygon fill="#e0e0e0" stroke="#999999" points="1370,-138 1282,-138 1282,-119.5 1370,-119.5 1370,-138"/>
<text text-anchor="middle" x="1326" y="-124.5" font-family="Helvetica,sans-Serif" font-size="10.00">CGAL/centroid.h</text>
</a>
</g>
</g>
<!-- Node2&#45;&gt;Node11 -->
<g id="edge10_Node000002_Node000011" class="edge">
<title>Node2&#45;&gt;Node11</title>
<g id="a_edge10_Node000002_Node000011"><a xlink:title=" ">
<path fill="none" stroke="#63b8ff" d="M1156.57,-184.1C1189.54,-174.5 1234.05,-161.22 1273,-148.5 1278.97,-146.55 1285.29,-144.39 1291.41,-142.26"/>
<polygon fill="#63b8ff" stroke="#63b8ff" points="1292.38,-145.63 1300.65,-139 1290.05,-139.03 1292.38,-145.63"/>
</a>
</g>
</g>
<!-- Node12 -->
<g id="Node000012" class="node">
<title>Node12</title>
<g id="a_Node000012"><a xlink:title=" ">
<polygon fill="#e0e0e0" stroke="#999999" points="1487.62,-138 1388.38,-138 1388.38,-119.5 1487.62,-119.5 1487.62,-138"/>
<text text-anchor="middle" x="1438" y="-124.5" font-family="Helvetica,sans-Serif" font-size="10.00">CGAL/partition_2.h</text>
</a>
</g>
</g>
<!-- Node2&#45;&gt;Node12 -->
<g id="edge11_Node000002_Node000012" class="edge">
<title>Node2&#45;&gt;Node12</title>
<g id="a_edge11_Node000002_Node000012"><a xlink:title=" ">
<path fill="none" stroke="#63b8ff" d="M1163.2,-190.02C1218.27,-181.57 1305.09,-166.91 1379,-148.5 1386.57,-146.61 1394.59,-144.29 1402.19,-141.93"/>
<polygon fill="#63b8ff" stroke="#63b8ff" points="1403.04,-145.33 1411.49,-138.95 1400.9,-138.67 1403.04,-145.33"/>
</a>
</g>
</g>
<!-- Node13 -->
<g id="Node000013" class="node">
<title>Node13</title>
<g id="a_Node000013"><a xlink:title=" ">
<polygon fill="#e0e0e0" stroke="#999999" points="1642.38,-138 1505.62,-138 1505.62,-119.5 1642.38,-119.5 1642.38,-138"/>
<text text-anchor="middle" x="1574" y="-124.5" font-family="Helvetica,sans-Serif" font-size="10.00">CGAL/point_generators_2.h</text>
</a>
</g>
</g>
<!-- Node2&#45;&gt;Node13 -->
<g id="edge12_Node000002_Node000013" class="edge">
<title>Node2&#45;&gt;Node13</title>
<g id="a_edge12_Node000002_Node000013"><a xlink:title=" ">
<path fill="none" stroke="#63b8ff" d="M1163.06,-192.96C1238.7,-185.59 1378.84,-170.33 1497,-148.5 1508.05,-146.46 1519.88,-143.81 1530.87,-141.16"/>
<polygon fill="#63b8ff" stroke="#63b8ff" points="1531.62,-144.57 1540.49,-138.77 1529.94,-137.78 1531.62,-144.57"/>
</a>
</g>
</g>
<!-- Node14 -->
<g id="Node000014" class="node">
<title>Node14</title>
<g id="a_Node000014"><a xlink:title=" ">
<polygon fill="#e0e0e0" stroke="#999999" points="1795.25,-138 1660.75,-138 1660.75,-119.5 1795.25,-119.5 1795.25,-138"/>
<text text-anchor="middle" x="1728" y="-124.5" font-family="Helvetica,sans-Serif" font-size="10.00">CGAL/random_polygon_2.h</text>
</a>
</g>
</g>
<!-- Node2&#45;&gt;Node14 -->
<g id="edge13_Node000002_Node000014" class="edge">
<title>Node2&#45;&gt;Node14</title>
<g id="a_edge13_Node000002_Node000014"><a xlink:title=" ">
<path fill="none" stroke="#63b8ff" d="M1163.06,-195.68C1261.53,-190.92 1474.05,-177.94 1651,-148.5 1662.4,-146.6 1674.61,-143.93 1685.87,-141.2"/>
<polygon fill="#63b8ff" stroke="#63b8ff" points="1686.43,-144.67 1695.28,-138.84 1684.73,-137.88 1686.43,-144.67"/>
</a>
</g>
</g>
<!-- Node15 -->
<g id="Node000015" class="node">
<title>Node15</title>
<g id="a_Node000015"><a xlink:title=" ">
<polygon fill="#e0e0e0" stroke="#999999" points="1936.62,-143.25 1813.38,-143.25 1813.38,-114.25 1936.62,-114.25 1936.62,-143.25"/>
<text text-anchor="start" x="1821.38" y="-129.75" font-family="Helvetica,sans-Serif" font-size="10.00">CGAL/Arr_point_location</text>
<text text-anchor="middle" x="1875" y="-119.25" font-family="Helvetica,sans-Serif" font-size="10.00">_result.h</text>
</a>
</g>
</g>
<!-- Node2&#45;&gt;Node15 -->
<g id="edge14_Node000002_Node000015" class="edge">
<title>Node2&#45;&gt;Node15</title>
<g id="a_edge14_Node000002_Node000015"><a xlink:title=" ">
<path fill="none" stroke="#63b8ff" d="M1163,-197.57C1281.16,-195.9 1567.69,-187.75 1804,-148.5 1808.01,-147.83 1812.12,-147.04 1816.25,-146.17"/>
<polygon fill="#63b8ff" stroke="#63b8ff" points="1816.69,-149.66 1825.67,-144.02 1815.14,-142.83 1816.69,-149.66"/>
</a>
</g>
</g>
<!-- Node16 -->
<g id="Node000016" class="node">
<title>Node16</title>
<g id="a_Node000016"><a xlink:title=" ">
<polygon fill="#e0e0e0" stroke="#999999" points="124,-143.25 0,-143.25 0,-114.25 124,-114.25 124,-143.25"/>
<text text-anchor="start" x="8" y="-129.75" font-family="Helvetica,sans-Serif" font-size="10.00">CGAL/Arr_batched_point</text>
<text text-anchor="middle" x="62" y="-119.25" font-family="Helvetica,sans-Serif" font-size="10.00">_location.h</text>
</a>
</g>
</g>
<!-- Node2&#45;&gt;Node16 -->
<g id="edge15_Node000002_Node000016" class="edge">
<title>Node2&#45;&gt;Node16</title>
<g id="a_edge15_Node000002_Node000016"><a xlink:title=" ">
<path fill="none" stroke="#63b8ff" d="M1052.66,-196.7C873.78,-192.26 312.3,-176.42 133,-148.5 128.92,-147.86 124.73,-147.09 120.53,-146.22"/>
<polygon fill="#63b8ff" stroke="#63b8ff" points="121.45,-142.84 110.93,-144.06 119.92,-149.67 121.45,-142.84"/>
</a>
</g>
</g>
<!-- Node18 -->
<g id="Node000018" class="node">
<title>Node18</title>
<g id="a_Node000018"><a xlink:title=" ">
<polygon fill="#e0e0e0" stroke="#999999" points="2778.12,-18.5 2735.88,-18.5 2735.88,0 2778.12,0 2778.12,-18.5"/>
<text text-anchor="middle" x="2757" y="-5" font-family="Helvetica,sans-Serif" font-size="10.00">vector</text>
</a>
</g>
</g>
<!-- Node17&#45;&gt;Node18 -->
<g id="edge17_Node000017_Node000018" class="edge">
<title>Node17&#45;&gt;Node18</title>
<g id="a_edge17_Node000017_Node000018"><a xlink:title=" ">
<path fill="none" stroke="#63b8ff" d="M2837.2,-113.81C2820.56,-92.32 2788.67,-51.14 2770.52,-27.7"/>
<polygon fill="#63b8ff" stroke="#63b8ff" points="2773.48,-25.81 2764.59,-20.05 2767.94,-30.1 2773.48,-25.81"/>
</a>
</g>
</g>
<!-- Node19 -->
<g id="Node000019" class="node">
<title>Node19</title>
<g id="a_Node000019"><a xlink:href="typedefs_8h.html" target="_top" xlink:title="Contains typedefs for the library.">
<polygon fill="white" stroke="#666666" points="2747.75,-73 2610.25,-73 2610.25,-54.5 2747.75,-54.5 2747.75,-73"/>
<text text-anchor="middle" x="2679" y="-59.5" font-family="Helvetica,sans-Serif" font-size="10.00">CoverageControl/typedefs.h</text>
</a>
</g>
</g>
<!-- Node17&#45;&gt;Node19 -->
<g id="edge18_Node000017_Node000019" class="edge">
<title>Node17&#45;&gt;Node19</title>
<g id="a_edge18_Node000017_Node000019"><a xlink:title=" ">
<path fill="none" stroke="#63b8ff" d="M2810.49,-113.77C2781.31,-102.89 2741.15,-87.92 2712.91,-77.39"/>
<polygon fill="#63b8ff" stroke="#63b8ff" points="2714.37,-74.2 2703.77,-73.98 2711.92,-80.76 2714.37,-74.2"/>
</a>
</g>
</g>
<!-- Node19&#45;&gt;Node18 -->
<g id="edge21_Node000019_Node000018" class="edge">
<title>Node19&#45;&gt;Node18</title>
<g id="a_edge21_Node000019_Node000018"><a xlink:title=" ">
<path fill="none" stroke="#63b8ff" d="M2691.88,-54.08C2703.51,-46.25 2720.87,-34.57 2734.75,-25.23"/>
<polygon fill="#63b8ff" stroke="#63b8ff" points="2736.5,-28.26 2742.85,-19.78 2732.59,-22.46 2736.5,-28.26"/>
</a>
</g>
</g>
<!-- Node20 -->
<g id="Node000020" class="node">
<title>Node20</title>
<g id="a_Node000020"><a xlink:title=" ">
<polygon fill="#e0e0e0" stroke="#999999" points="2917.12,-18.5 2844.88,-18.5 2844.88,0 2917.12,0 2917.12,-18.5"/>
<text text-anchor="middle" x="2881" y="-5" font-family="Helvetica,sans-Serif" font-size="10.00">Eigen/Dense</text>
</a>
</g>
</g>
<!-- Node19&#45;&gt;Node20 -->
<g id="edge19_Node000019_Node000020" class="edge">
<title>Node19&#45;&gt;Node20</title>
<g id="a_edge19_Node000019_Node000020"><a xlink:title=" ">
<path fill="none" stroke="#63b8ff" d="M2712.36,-54.08C2746.27,-45.27 2799.03,-31.55 2836.5,-21.82"/>
<polygon fill="#63b8ff" stroke="#63b8ff" points="2837.33,-25.22 2846.13,-19.31 2835.57,-18.44 2837.33,-25.22"/>
</a>
</g>
</g>
<!-- Node21 -->
<g id="Node000021" class="node">
<title>Node21</title>
<g id="a_Node000021"><a xlink:title=" ">
<polygon fill="#e0e0e0" stroke="#999999" points="2700.12,-18.5 2657.88,-18.5 2657.88,0 2700.12,0 2700.12,-18.5"/>
<text text-anchor="middle" x="2679" y="-5" font-family="Helvetica,sans-Serif" font-size="10.00">queue</text>
</a>
</g>
</g>
<!-- Node19&#45;&gt;Node21 -->
<g id="edge20_Node000019_Node000021" class="edge">
<title>Node19&#45;&gt;Node21</title>
<g id="a_edge20_Node000019_Node000021"><a xlink:title=" ">
<path fill="none" stroke="#63b8ff" d="M2679,-54.08C2679,-47.58 2679,-38.42 2679,-30.16"/>
<polygon fill="#63b8ff" stroke="#63b8ff" points="2682.5,-30.27 2679,-20.27 2675.5,-30.27 2682.5,-30.27"/>
</a>
</g>
</g>
<!-- Node23 -->
<g id="Node000023" class="node">
<title>Node23</title>
<g id="a_Node000023"><a xlink:title=" ">
<polygon fill="#e0e0e0" stroke="#999999" points="2424.5,-18.5 2381.5,-18.5 2381.5,0 2424.5,0 2424.5,-18.5"/>
<text text-anchor="middle" x="2403" y="-5" font-family="Helvetica,sans-Serif" font-size="10.00">cmath</text>
</a>
</g>
</g>
<!-- Node22&#45;&gt;Node23 -->
<g id="edge23_Node000022_Node000023" class="edge">
<title>Node22&#45;&gt;Node23</title>
<g id="a_edge23_Node000022_Node000023"><a xlink:title=" ">
<path fill="none" stroke="#63b8ff" d="M2501.51,-54.08C2482.81,-45.76 2454.3,-33.08 2432.76,-23.49"/>
<polygon fill="#63b8ff" stroke="#63b8ff" points="2434.46,-20.41 2423.9,-19.55 2431.61,-26.81 2434.46,-20.41"/>
</a>
</g>
</g>
<!-- Node24 -->
<g id="Node000024" class="node">
<title>Node24</title>
<g id="a_Node000024"><a xlink:title=" ">
<polygon fill="#e0e0e0" stroke="#999999" points="2540.62,-18.5 2501.38,-18.5 2501.38,0 2540.62,0 2540.62,-18.5"/>
<text text-anchor="middle" x="2521" y="-5" font-family="Helvetica,sans-Serif" font-size="10.00">limits</text>
</a>
</g>
</g>
<!-- Node22&#45;&gt;Node24 -->
<g id="edge24_Node000022_Node000024" class="edge">
<title>Node22&#45;&gt;Node24</title>
<g id="a_edge24_Node000022_Node000024"><a xlink:title=" ">
<path fill="none" stroke="#63b8ff" d="M2521,-54.08C2521,-47.58 2521,-38.42 2521,-30.16"/>
<polygon fill="#63b8ff" stroke="#63b8ff" points="2524.5,-30.27 2521,-20.27 2517.5,-30.27 2524.5,-30.27"/>
</a>
</g>
</g>
<!-- Node25 -->
<g id="Node000025" class="node">
<title>Node25</title>
<g id="a_Node000025"><a xlink:title=" ">
<polygon fill="#e0e0e0" stroke="#999999" points="2067.25,-18.5 1938.75,-18.5 1938.75,0 2067.25,0 2067.25,-18.5"/>
<text text-anchor="middle" x="2003" y="-5" font-family="Helvetica,sans-Serif" font-size="10.00">CoverageControl/Config.h</text>
</a>
</g>
</g>
<!-- Node22&#45;&gt;Node25 -->
<g id="edge25_Node000022_Node000025" class="edge">
<title>Node22&#45;&gt;Node25</title>
<g id="a_edge25_Node000022_Node000025"><a xlink:title=" ">
<path fill="none" stroke="#63b8ff" d="M2449.25,-55.48C2351.76,-45.6 2178.23,-28.01 2078.73,-17.92"/>
<polygon fill="#63b8ff" stroke="#63b8ff" points="2079.37,-14.47 2069.07,-16.95 2078.66,-21.44 2079.37,-14.47"/>
</a>
</g>
</g>
<!-- Node26&#45;&gt;Node18 -->
<g id="edge31_Node000026_Node000018" class="edge">
<title>Node26&#45;&gt;Node18</title>
<g id="a_edge31_Node000026_Node000018"><a xlink:title=" ">
<path fill="none" stroke="#63b8ff" d="M2445.62,-193.25C2521.43,-186.22 2649.88,-171.35 2691,-148.5 2729.96,-126.85 2741.33,-114.73 2757,-73 2762.17,-59.23 2761.89,-42.53 2760.46,-29.83"/>
<polygon fill="#63b8ff" stroke="#63b8ff" points="2763.97,-29.58 2759.04,-20.2 2757.04,-30.61 2763.97,-29.58"/>
</a>
</g>
</g>
<!-- Node26&#45;&gt;Node19 -->
<g id="edge52_Node000026_Node000019" class="edge">
<title>Node26&#45;&gt;Node19</title>
<g id="a_edge52_Node000026_Node000019"><a xlink:title=" ">
<path fill="none" stroke="#63b8ff" d="M2445.59,-195.83C2519.07,-191.76 2640.25,-180.31 2670,-148.5 2685.82,-131.59 2685.51,-103.54 2682.97,-84.62"/>
<polygon fill="#63b8ff" stroke="#63b8ff" points="2686.46,-84.23 2681.34,-74.95 2679.56,-85.4 2686.46,-84.23"/>
</a>
</g>
</g>
<!-- Node26&#45;&gt;Node20 -->
<g id="edge27_Node000026_Node000020" class="edge">
<title>Node26&#45;&gt;Node20</title>
<g id="a_edge27_Node000026_Node000020"><a xlink:title=" ">
<path fill="none" stroke="#63b8ff" d="M2445.4,-196.84C2574.93,-193.64 2881.06,-182.5 2912,-148.5 2942.82,-114.64 2912.43,-56.93 2893.55,-27.95"/>
<polygon fill="#63b8ff" stroke="#63b8ff" points="2896.61,-26.23 2888.1,-19.93 2890.82,-30.17 2896.61,-26.23"/>
</a>
</g>
</g>
<!-- Node26&#45;&gt;Node25 -->
<g id="edge32_Node000026_Node000025" class="edge">
<title>Node26&#45;&gt;Node25</title>
<g id="a_edge32_Node000026_Node000025"><a xlink:title=" ">
<path fill="none" stroke="#63b8ff" d="M2330.75,-195.12C2224.74,-189.2 2006.6,-174.03 1984,-148.5 1954.38,-115.02 1977.32,-57.99 1992.45,-28.74"/>
<polygon fill="#63b8ff" stroke="#63b8ff" points="1995.49,-30.47 1997.2,-20.01 1989.35,-27.13 1995.49,-30.47"/>
</a>
</g>
</g>
<!-- Node27 -->
<g id="Node000027" class="node">
<title>Node27</title>
<g id="a_Node000027"><a xlink:title=" ">
<polygon fill="#e0e0e0" stroke="#999999" points="2259.5,-73 2210.5,-73 2210.5,-54.5 2259.5,-54.5 2259.5,-73"/>
<text text-anchor="middle" x="2235" y="-59.5" font-family="Helvetica,sans-Serif" font-size="10.00">fstream</text>
</a>
</g>
</g>
<!-- Node26&#45;&gt;Node27 -->
<g id="edge28_Node000026_Node000027" class="edge">
<title>Node26&#45;&gt;Node27</title>
<g id="a_edge28_Node000026_Node000027"><a xlink:title=" ">
<path fill="none" stroke="#63b8ff" d="M2330.74,-191.49C2278.61,-184.25 2207.23,-170.56 2190,-148.5 2179.2,-134.66 2183.21,-125.19 2190,-109 2194.72,-97.75 2203.84,-87.92 2212.65,-80.39"/>
<polygon fill="#63b8ff" stroke="#63b8ff" points="2214.62,-83.3 2220.32,-74.37 2210.3,-77.79 2214.62,-83.3"/>
</a>
</g>
</g>
<!-- Node28 -->
<g id="Node000028" class="node">
<title>Node28</title>
<g id="a_Node000028"><a xlink:title=" ">
<polygon fill="#e0e0e0" stroke="#999999" points="2192.75,-73 2139.25,-73 2139.25,-54.5 2192.75,-54.5 2192.75,-73"/>
<text text-anchor="middle" x="2166" y="-59.5" font-family="Helvetica,sans-Serif" font-size="10.00">iostream</text>
</a>
</g>
</g>
<!-- Node26&#45;&gt;Node28 -->
<g id="edge29_Node000026_Node000028" class="edge">
<title>Node26&#45;&gt;Node28</title>
<g id="a_edge29_Node000026_Node000028"><a xlink:title=" ">
<path fill="none" stroke="#63b8ff" d="M2330.41,-191.58C2275.83,-184.27 2199.25,-170.41 2179,-148.5 2163.26,-131.47 2161.97,-103.66 2163.31,-84.8"/>
<polygon fill="#63b8ff" stroke="#63b8ff" points="2166.78,-85.24 2164.35,-74.92 2159.82,-84.5 2166.78,-85.24"/>
</a>
</g>
</g>
<!-- Node29 -->
<g id="Node000029" class="node">
<title>Node29</title>
<g id="a_Node000029"><a xlink:title=" ">
<polygon fill="#e0e0e0" stroke="#999999" points="2356,-73 2316,-73 2316,-54.5 2356,-54.5 2356,-73"/>
<text text-anchor="middle" x="2336" y="-59.5" font-family="Helvetica,sans-Serif" font-size="10.00">string</text>
</a>
</g>
</g>
<!-- Node26&#45;&gt;Node29 -->
<g id="edge30_Node000026_Node000029" class="edge">
<title>Node26&#45;&gt;Node29</title>
<g id="a_edge30_Node000026_Node000029"><a xlink:title=" ">
<path fill="none" stroke="#63b8ff" d="M2377.11,-184C2370.16,-174.47 2361.47,-161.3 2356,-148.5 2347.06,-127.59 2341.68,-101.95 2338.79,-84.59"/>
<polygon fill="#63b8ff" stroke="#63b8ff" points="2342.27,-84.23 2337.3,-74.87 2335.35,-85.28 2342.27,-84.23"/>
</a>
</g>
</g>
<!-- Node30 -->
<g id="Node000030" class="node">
<title>Node30</title>
<g id="a_Node000030"><a xlink:href="bivariate__normal__distribution_8h.html" target="_top" xlink:title="Class for Bivariate Normal Distribution.">
<polygon fill="white" stroke="#666666" points="2660.88,-143.25 2533.12,-143.25 2533.12,-114.25 2660.88,-114.25 2660.88,-143.25"/>
<text text-anchor="start" x="2541.12" y="-129.75" font-family="Helvetica,sans-Serif" font-size="10.00">CoverageControl/bivariate</text>
<text text-anchor="middle" x="2597" y="-119.25" font-family="Helvetica,sans-Serif" font-size="10.00">_normal_distribution.h</text>
</a>
</g>
</g>
<!-- Node26&#45;&gt;Node30 -->
<g id="edge33_Node000026_Node000030" class="edge">
<title>Node26&#45;&gt;Node30</title>
<g id="a_edge33_Node000026_Node000030"><a xlink:title=" ">
<path fill="none" stroke="#63b8ff" d="M2430.8,-184.02C2463.48,-173.35 2508.72,-158.58 2543.74,-147.14"/>
<polygon fill="#63b8ff" stroke="#63b8ff" points="2544.4,-150.61 2552.82,-144.18 2542.23,-143.95 2544.4,-150.61"/>
</a>
</g>
</g>
<!-- Node31 -->
<g id="Node000031" class="node">
<title>Node31</title>
<g id="a_Node000031"><a xlink:href="cuda__utils_8h.html" target="_top" xlink:title="Utility functions for CUDA.">
<polygon fill="white" stroke="#666666" points="2105.38,-143.25 1992.62,-143.25 1992.62,-114.25 2105.38,-114.25 2105.38,-143.25"/>
<text text-anchor="start" x="2000.62" y="-129.75" font-family="Helvetica,sans-Serif" font-size="10.00">CoverageControl/cuda</text>
<text text-anchor="middle" x="2049" y="-119.25" font-family="Helvetica,sans-Serif" font-size="10.00">_utils.h</text>
</a>
</g>
</g>
<!-- Node26&#45;&gt;Node31 -->
<g id="edge37_Node000026_Node000031" class="edge">
<title>Node26&#45;&gt;Node31</title>
<g id="a_edge37_Node000026_Node000031"><a xlink:title=" ">
<path fill="none" stroke="#63b8ff" d="M2330.53,-188.79C2275.88,-179.71 2191.49,-164.85 2119,-148.5 2116.05,-147.84 2113.04,-147.13 2110.01,-146.4"/>
<polygon fill="#63b8ff" stroke="#63b8ff" points="2110.99,-143.04 2100.44,-144.02 2109.3,-149.83 2110.99,-143.04"/>
</a>
</g>
</g>
<!-- Node33 -->
<g id="Node000033" class="node">
<title>Node33</title>
<g id="a_Node000033"><a xlink:href="map__utils_8h.html" target="_top" xlink:title="Utility functions for transforming maps.">
<polygon fill="white" stroke="#666666" points="2309.25,-143.25 2198.75,-143.25 2198.75,-114.25 2309.25,-114.25 2309.25,-143.25"/>
<text text-anchor="start" x="2206.75" y="-129.75" font-family="Helvetica,sans-Serif" font-size="10.00">CoverageControl/map</text>
<text text-anchor="middle" x="2254" y="-119.25" font-family="Helvetica,sans-Serif" font-size="10.00">_utils.h</text>
</a>
</g>
</g>
<!-- Node26&#45;&gt;Node33 -->
<g id="edge43_Node000026_Node000033" class="edge">
<title>Node26&#45;&gt;Node33</title>
<g id="a_edge43_Node000026_Node000033"><a xlink:title=" ">
<path fill="none" stroke="#63b8ff" d="M2360.56,-184.02C2340.6,-173.86 2313.34,-159.97 2291.38,-148.79"/>
<polygon fill="#63b8ff" stroke="#63b8ff" points="2293.25,-145.81 2282.75,-144.39 2290.07,-152.05 2293.25,-145.81"/>
</a>
</g>
</g>
<!-- Node34 -->
<g id="Node000034" class="node">
<title>Node34</title>
<g id="a_Node000034"><a xlink:href="parameters_8h.html" target="_top" xlink:title="Contains parameters.">
<polygon fill="white" stroke="#666666" points="2514.75,-138 2365.25,-138 2365.25,-119.5 2514.75,-119.5 2514.75,-138"/>
<text text-anchor="middle" x="2440" y="-124.5" font-family="Helvetica,sans-Serif" font-size="10.00">CoverageControl/parameters.h</text>
</a>
</g>
</g>
<!-- Node26&#45;&gt;Node34 -->
<g id="edge49_Node000026_Node000034" class="edge">
<title>Node26&#45;&gt;Node34</title>
<g id="a_edge49_Node000026_Node000034"><a xlink:title=" ">
<path fill="none" stroke="#63b8ff" d="M2398.52,-184.19C2406.6,-173.58 2417.82,-158.87 2426.55,-147.41"/>
<polygon fill="#63b8ff" stroke="#63b8ff" points="2429.25,-149.64 2432.52,-139.56 2423.68,-145.4 2429.25,-149.64"/>
</a>
</g>
</g>
<!-- Node30&#45;&gt;Node19 -->
<g id="edge36_Node000030_Node000019" class="edge">
<title>Node30&#45;&gt;Node19</title>
<g id="a_edge36_Node000030_Node000019"><a xlink:title=" ">
<path fill="none" stroke="#63b8ff" d="M2615.2,-113.77C2628.11,-103.85 2645.44,-90.54 2658.78,-80.29"/>
<polygon fill="#63b8ff" stroke="#63b8ff" points="2660.67,-83.25 2666.47,-74.38 2656.41,-77.7 2660.67,-83.25"/>
</a>
</g>
</g>
<!-- Node30&#45;&gt;Node22 -->
<g id="edge35_Node000030_Node000022" class="edge">
<title>Node30&#45;&gt;Node22</title>
<g id="a_edge35_Node000030_Node000022"><a xlink:title=" ">
<path fill="none" stroke="#63b8ff" d="M2580.13,-113.77C2568.28,-103.95 2552.42,-90.79 2540.1,-80.58"/>
<polygon fill="#63b8ff" stroke="#63b8ff" points="2542.6,-78.11 2532.67,-74.42 2538.13,-83.5 2542.6,-78.11"/>
</a>
</g>
</g>
<!-- Node30&#45;&gt;Node23 -->
<g id="edge34_Node000030_Node000023" class="edge">
<title>Node30&#45;&gt;Node23</title>
<g id="a_edge34_Node000030_Node000023"><a xlink:title=" ">
<path fill="none" stroke="#63b8ff" d="M2545.54,-113.77C2506.72,-102.48 2457.43,-86.34 2441,-73 2426.79,-61.46 2416.55,-43.1 2410.31,-29.21"/>
<polygon fill="#63b8ff" stroke="#63b8ff" points="2413.66,-28.14 2406.59,-20.24 2407.19,-30.82 2413.66,-28.14"/>
</a>
</g>
</g>
<!-- Node31&#45;&gt;Node18 -->
<g id="edge41_Node000031_Node000018" class="edge">
<title>Node31&#45;&gt;Node18</title>
<g id="a_edge41_Node000031_Node000018"><a xlink:title=" ">
<path fill="none" stroke="#63b8ff" d="M2059.25,-113.96C2073.1,-96.54 2099.6,-67.31 2130,-54.5 2248.81,-4.46 2580.95,-33.44 2709,-18.5 2714.05,-17.91 2719.38,-17.14 2724.57,-16.31"/>
<polygon fill="#63b8ff" stroke="#63b8ff" points="2724.8,-19.82 2734.07,-14.7 2723.63,-12.92 2724.8,-19.82"/>
</a>
</g>
</g>
<!-- Node31&#45;&gt;Node25 -->
<g id="edge42_Node000031_Node000025" class="edge">
<title>Node31&#45;&gt;Node25</title>
<g id="a_edge42_Node000031_Node000025"><a xlink:title=" ">
<path fill="none" stroke="#63b8ff" d="M2041.48,-114.08C2035.67,-103.18 2027.68,-87.39 2022,-73 2016.42,-58.87 2011.49,-42.41 2008.05,-29.9"/>
<polygon fill="#63b8ff" stroke="#63b8ff" points="2011.48,-29.16 2005.53,-20.39 2004.71,-30.95 2011.48,-29.16"/>
</a>
</g>
</g>
<!-- Node31&#45;&gt;Node28 -->
<g id="edge38_Node000031_Node000028" class="edge">
<title>Node31&#45;&gt;Node28</title>
<g id="a_edge38_Node000031_Node000028"><a xlink:title=" ">
<path fill="none" stroke="#63b8ff" d="M2074.97,-113.77C2094.28,-103.37 2120.53,-89.23 2139.88,-78.82"/>
<polygon fill="#63b8ff" stroke="#63b8ff" points="2141.35,-82 2148.5,-74.17 2138.03,-75.83 2141.35,-82"/>
</a>
</g>
</g>
<!-- Node31&#45;&gt;Node29 -->
<g id="edge40_Node000031_Node000029" class="edge">
<title>Node31&#45;&gt;Node29</title>
<g id="a_edge40_Node000031_Node000029"><a xlink:title=" ">
<path fill="none" stroke="#63b8ff" d="M2105.7,-115.3C2165.19,-102.25 2256.55,-82.19 2304.36,-71.7"/>
<polygon fill="#63b8ff" stroke="#63b8ff" points="2305.03,-75.13 2314.05,-69.57 2303.53,-68.29 2305.03,-75.13"/>
</a>
</g>
</g>
<!-- Node32 -->
<g id="Node000032" class="node">
<title>Node32</title>
<g id="a_Node000032"><a xlink:title=" ">
<polygon fill="#e0e0e0" stroke="#999999" points="2082.62,-73 2031.38,-73 2031.38,-54.5 2082.62,-54.5 2082.62,-73"/>
<text text-anchor="middle" x="2057" y="-59.5" font-family="Helvetica,sans-Serif" font-size="10.00">sstream</text>
</a>
</g>
</g>
<!-- Node31&#45;&gt;Node32 -->
<g id="edge39_Node000031_Node000032" class="edge">
<title>Node31&#45;&gt;Node32</title>
<g id="a_edge39_Node000031_Node000032"><a xlink:title=" ">
<path fill="none" stroke="#63b8ff" d="M2050.78,-113.77C2051.86,-105.2 2053.27,-94.09 2054.48,-84.62"/>
<polygon fill="#63b8ff" stroke="#63b8ff" points="2057.92,-85.32 2055.7,-74.96 2050.97,-84.44 2057.92,-85.32"/>
</a>
</g>
</g>
<!-- Node33&#45;&gt;Node19 -->
<g id="edge48_Node000033_Node000019" class="edge">
<title>Node33&#45;&gt;Node19</title>
<g id="a_edge48_Node000033_Node000019"><a xlink:title=" ">
<path fill="none" stroke="#63b8ff" d="M2309.51,-117.07C2324.57,-114.3 2340.89,-111.42 2356,-109 2438.55,-95.77 2533.37,-83.07 2598.81,-74.7"/>
<polygon fill="#63b8ff" stroke="#63b8ff" points="2598.89,-78.22 2608.37,-73.48 2598.01,-71.28 2598.89,-78.22"/>
</a>
</g>
</g>
<!-- Node33&#45;&gt;Node23 -->
<g id="edge44_Node000033_Node000023" class="edge">
<title>Node33&#45;&gt;Node23</title>
<g id="a_edge44_Node000033_Node000023"><a xlink:title=" ">
<path fill="none" stroke="#63b8ff" d="M2261.1,-113.96C2269.98,-97.87 2286.51,-71.35 2307,-54.5 2325.69,-39.13 2350.6,-27.86 2370.35,-20.53"/>
<polygon fill="#63b8ff" stroke="#63b8ff" points="2371.32,-23.9 2379.59,-17.28 2369,-17.3 2371.32,-23.9"/>
</a>
</g>
</g>
<!-- Node33&#45;&gt;Node27 -->
<g id="edge45_Node000033_Node000027" class="edge">
<title>Node33&#45;&gt;Node27</title>
<g id="a_edge45_Node000033_Node000027"><a xlink:title=" ">
<path fill="none" stroke="#63b8ff" d="M2249.78,-113.77C2247.17,-105.1 2243.77,-93.84 2240.9,-84.3"/>
<polygon fill="#63b8ff" stroke="#63b8ff" points="2244.3,-83.47 2238.06,-74.91 2237.6,-85.49 2244.3,-83.47"/>
</a>
</g>
</g>
<!-- Node33&#45;&gt;Node28 -->
<g id="edge46_Node000033_Node000028" class="edge">
<title>Node33&#45;&gt;Node28</title>
<g id="a_edge46_Node000033_Node000028"><a xlink:title=" ">
<path fill="none" stroke="#63b8ff" d="M2234.47,-113.77C2220.48,-103.75 2201.66,-90.28 2187.28,-79.99"/>
<polygon fill="#63b8ff" stroke="#63b8ff" points="2189.56,-77.31 2179.39,-74.34 2185.49,-83 2189.56,-77.31"/>
</a>
</g>
</g>
<!-- Node33&#45;&gt;Node29 -->
<g id="edge47_Node000033_Node000029" class="edge">
<title>Node33&#45;&gt;Node29</title>
<g id="a_edge47_Node000033_Node000029"><a xlink:title=" ">
<path fill="none" stroke="#63b8ff" d="M2272.2,-113.77C2285.11,-103.85 2302.44,-90.54 2315.78,-80.29"/>
<polygon fill="#63b8ff" stroke="#63b8ff" points="2317.67,-83.25 2323.47,-74.38 2313.41,-77.7 2317.67,-83.25"/>
</a>
</g>
</g>
<!-- Node34&#45;&gt;Node23 -->
<g id="edge50_Node000034_Node000023" class="edge">
<title>Node34&#45;&gt;Node23</title>
<g id="a_edge50_Node000034_Node000023"><a xlink:title=" ">
<path fill="none" stroke="#63b8ff" d="M2433.22,-119.05C2425.59,-108.71 2413.54,-90.65 2408,-73 2403.63,-59.07 2402.46,-42.59 2402.34,-30.02"/>
<polygon fill="#63b8ff" stroke="#63b8ff" points="2405.83,-30.16 2402.48,-20.11 2398.84,-30.06 2405.83,-30.16"/>
</a>
</g>
</g>
<!-- Node34&#45;&gt;Node29 -->
<g id="edge51_Node000034_Node000029" class="edge">
<title>Node34&#45;&gt;Node29</title>
<g id="a_edge51_Node000034_Node000029"><a xlink:title=" ">
<path fill="none" stroke="#63b8ff" d="M2425.97,-119.25C2409.07,-109.01 2380.4,-91.65 2359.96,-79.27"/>
<polygon fill="#63b8ff" stroke="#63b8ff" points="2361.8,-76.28 2351.43,-74.1 2358.17,-82.27 2361.8,-76.28"/>
</a>
</g>
</g>
</g>
</svg>
