<?xml version="1.0" encoding="UTF-8" standalone="no"?>
<!DOCTYPE svg PUBLIC "-//W3C//DTD SVG 1.1//EN"
 "http://www.w3.org/Graphics/SVG/1.1/DTD/svg11.dtd">
<!-- Generated by graphviz version 10.0.1 (0)
 -->
<!-- Title: world_idf.cpp Pages: 1 -->
<svg width="2893pt" height="287pt"
 viewBox="0.00 0.00 2893.00 286.50" xmlns="http://www.w3.org/2000/svg" xmlns:xlink="http://www.w3.org/1999/xlink">
<g id="graph0" class="graph" transform="scale(1 1) rotate(0) translate(4 282.5)">
<title>world_idf.cpp</title>
<!-- Node1 -->
<g id="Node000001" class="node">
<title>Node1</title>
<g id="a_Node000001"><a xlink:title="Contains the implementation of the WorldIDF class.">
<polygon fill="#999999" stroke="#666666" points="2405.25,-278.5 2333,-278.5 2333,-260 2405.25,-260 2405.25,-278.5"/>
<text text-anchor="middle" x="2369.12" y="-265" font-family="Helvetica,sans-Serif" font-size="10.00">world_idf.cpp</text>
</a>
</g>
</g>
<!-- Node2 -->
<g id="Node000002" class="node">
<title>Node2</title>
<g id="a_Node000002"><a xlink:href="config_8h.html" target="_top" xlink:title="Contains the configuration for the CGAL library.">
<polygon fill="white" stroke="#666666" points="1150,-224 1040.25,-224 1040.25,-195 1150,-195 1150,-224"/>
<text text-anchor="start" x="1048.25" y="-210.5" font-family="Helvetica,sans-Serif" font-size="10.00">CoverageControl/cgal</text>
<text text-anchor="middle" x="1095.12" y="-200" font-family="Helvetica,sans-Serif" font-size="10.00">/config.h</text>
</a>
</g>
</g>
<!-- Node1&#45;&gt;Node2 -->
<g id="edge1_Node000001_Node000002" class="edge">
<title>Node1&#45;&gt;Node2</title>
<g id="a_edge1_Node000001_Node000002"><a xlink:title=" ">
<path fill="none" stroke="#63b8ff" d="M2332.71,-266.6C2156.64,-258.62 1392.6,-223.98 1161.55,-213.51"/>
<polygon fill="#63b8ff" stroke="#63b8ff" points="1161.97,-210.03 1151.83,-213.07 1161.66,-217.02 1161.97,-210.03"/>
</a>
</g>
</g>
<!-- Node17 -->
<g id="Node000017" class="node">
<title>Node17</title>
<g id="a_Node000017"><a xlink:href="polygon__utils_8h.html" target="_top" xlink:title="Provides utilities for polygon manipulation using CGAL.">
<polygon fill="white" stroke="#666666" points="2885,-153.75 2775.25,-153.75 2775.25,-124.75 2885,-124.75 2885,-153.75"/>
<text text-anchor="start" x="2783.25" y="-140.25" font-family="Helvetica,sans-Serif" font-size="10.00">CoverageControl/cgal</text>
<text text-anchor="middle" x="2830.12" y="-129.75" font-family="Helvetica,sans-Serif" font-size="10.00">/polygon_utils.h</text>
</a>
</g>
</g>
<!-- Node1&#45;&gt;Node17 -->
<g id="edge16_Node000001_Node000017" class="edge">
<title>Node1&#45;&gt;Node17</title>
<g id="a_edge16_Node000001_Node000017"><a xlink:title=" ">
<path fill="none" stroke="#63b8ff" d="M2400.45,-259.55C2475.97,-238.58 2669.16,-184.94 2768.74,-157.29"/>
<polygon fill="#63b8ff" stroke="#63b8ff" points="2769.66,-160.67 2778.36,-154.62 2767.79,-153.92 2769.66,-160.67"/>
</a>
</g>
</g>
<!-- Node22 -->
<g id="Node000022" class="node">
<title>Node22</title>
<g id="a_Node000022"><a xlink:href="constants_8h.html" target="_top" xlink:title="Constants for the CoverageControl library.">
<polygon fill="white" stroke="#666666" points="2364.5,-78.25 2221.75,-78.25 2221.75,-59.75 2364.5,-59.75 2364.5,-78.25"/>
<text text-anchor="middle" x="2293.12" y="-64.75" font-family="Helvetica,sans-Serif" font-size="10.00">CoverageControl/constants.h</text>
</a>
</g>
</g>
<!-- Node1&#45;&gt;Node22 -->
<g id="edge22_Node000001_Node000022" class="edge">
<title>Node1&#45;&gt;Node22</title>
<g id="a_edge22_Node000001_Node000022"><a xlink:title=" ">
<path fill="none" stroke="#63b8ff" d="M2365.86,-259.73C2354.53,-230.19 2316.75,-131.63 2300.58,-89.44"/>
<polygon fill="#63b8ff" stroke="#63b8ff" points="2303.85,-88.21 2297.01,-80.12 2297.32,-90.71 2303.85,-88.21"/>
</a>
</g>
</g>
<!-- Node27 -->
<g id="Node000027" class="node">
<title>Node27</title>
<g id="a_Node000027"><a xlink:href="world__idf_8h.html" target="_top" xlink:title="Contains the class for Importance Density Function (IDF) for the world.">
<polygon fill="white" stroke="#666666" points="2501.25,-224 2387,-224 2387,-195 2501.25,-195 2501.25,-224"/>
<text text-anchor="start" x="2395" y="-210.5" font-family="Helvetica,sans-Serif" font-size="10.00">CoverageControl/world</text>
<text text-anchor="middle" x="2444.12" y="-200" font-family="Helvetica,sans-Serif" font-size="10.00">_idf.h</text>
</a>
</g>
</g>
<!-- Node1&#45;&gt;Node27 -->
<g id="edge27_Node000001_Node000027" class="edge">
<title>Node1&#45;&gt;Node27</title>
<g id="a_edge27_Node000001_Node000027"><a xlink:title=" ">
<path fill="none" stroke="#63b8ff" d="M2380.19,-259.73C2389.9,-252.26 2404.41,-241.08 2417.15,-231.27"/>
<polygon fill="#63b8ff" stroke="#63b8ff" points="2419.04,-234.23 2424.83,-225.36 2414.77,-228.68 2419.04,-234.23"/>
</a>
</g>
</g>
<!-- Node3 -->
<g id="Node000003" class="node">
<title>Node3</title>
<g id="a_Node000003"><a xlink:title=" ">
<polygon fill="#e0e0e0" stroke="#999999" points="132.25,-148.5 0,-148.5 0,-130 132.25,-130 132.25,-148.5"/>
<text text-anchor="middle" x="66.12" y="-135" font-family="Helvetica,sans-Serif" font-size="10.00">CGAL/Arr_linear_traits_2.h</text>
</a>
</g>
</g>
<!-- Node2&#45;&gt;Node3 -->
<g id="edge2_Node000002_Node000003" class="edge">
<title>Node2&#45;&gt;Node3</title>
<g id="a_edge2_Node000002_Node000003"><a xlink:title=" ">
<path fill="none" stroke="#63b8ff" d="M1039.76,-207.03C863.44,-202.14 316.32,-185.19 141.12,-159 129.68,-157.29 117.43,-154.6 106.22,-151.79"/>
<polygon fill="#63b8ff" stroke="#63b8ff" points="107.45,-148.5 96.89,-149.35 105.68,-155.27 107.45,-148.5"/>
</a>
</g>
</g>
<!-- Node4 -->
<g id="Node000004" class="node">
<title>Node4</title>
<g id="a_Node000004"><a xlink:title=" ">
<polygon fill="#e0e0e0" stroke="#999999" points="261.75,-153.75 150.5,-153.75 150.5,-124.75 261.75,-124.75 261.75,-153.75"/>
<text text-anchor="start" x="158.5" y="-140.25" font-family="Helvetica,sans-Serif" font-size="10.00">CGAL/Arr_walk_along</text>
<text text-anchor="middle" x="206.12" y="-129.75" font-family="Helvetica,sans-Serif" font-size="10.00">_line_point_location.h</text>
</a>
</g>
</g>
<!-- Node2&#45;&gt;Node4 -->
<g id="edge3_Node000002_Node000004" class="edge">
<title>Node2&#45;&gt;Node4</title>
<g id="a_edge3_Node000002_Node000004"><a xlink:title=" ">
<path fill="none" stroke="#63b8ff" d="M1040.02,-206.81C880.26,-201.66 418.82,-184.9 270.12,-159 266.75,-158.41 263.31,-157.71 259.85,-156.93"/>
<polygon fill="#63b8ff" stroke="#63b8ff" points="260.86,-153.57 250.31,-154.57 259.18,-160.37 260.86,-153.57"/>
</a>
</g>
</g>
<!-- Node5 -->
<g id="Node000005" class="node">
<title>Node5</title>
<g id="a_Node000005"><a xlink:title=" ">
<polygon fill="#e0e0e0" stroke="#999999" points="398.88,-148.5 279.38,-148.5 279.38,-130 398.88,-130 398.88,-148.5"/>
<text text-anchor="middle" x="339.12" y="-135" font-family="Helvetica,sans-Serif" font-size="10.00">CGAL/Arrangement_2.h</text>
</a>
</g>
</g>
<!-- Node2&#45;&gt;Node5 -->
<g id="edge4_Node000002_Node000005" class="edge">
<title>Node2&#45;&gt;Node5</title>
<g id="a_edge4_Node000002_Node000005"><a xlink:title=" ">
<path fill="none" stroke="#63b8ff" d="M1039.83,-208.21C922.43,-206.78 639.92,-199.06 407.12,-159 397.24,-157.3 386.71,-154.76 376.97,-152.11"/>
<polygon fill="#63b8ff" stroke="#63b8ff" points="378.01,-148.76 367.44,-149.39 376.09,-155.5 378.01,-148.76"/>
</a>
</g>
</g>
<!-- Node6 -->
<g id="Node000006" class="node">
<title>Node6</title>
<g id="a_Node000006"><a xlink:title=" ">
<polygon fill="#e0e0e0" stroke="#999999" points="579.62,-148.5 416.62,-148.5 416.62,-130 579.62,-130 579.62,-148.5"/>
<text text-anchor="middle" x="498.12" y="-135" font-family="Helvetica,sans-Serif" font-size="10.00">CGAL/Delaunay_triangulation_2.h</text>
</a>
</g>
</g>
<!-- Node2&#45;&gt;Node6 -->
<g id="edge5_Node000002_Node000006" class="edge">
<title>Node2&#45;&gt;Node6</title>
<g id="a_edge5_Node000002_Node000006"><a xlink:title=" ">
<path fill="none" stroke="#63b8ff" d="M1039.86,-205.01C946.57,-198.7 752.1,-183.69 589.12,-159 575.42,-156.92 560.66,-154.13 547.1,-151.33"/>
<polygon fill="#63b8ff" stroke="#63b8ff" points="548.03,-147.95 537.52,-149.31 546.58,-154.8 548.03,-147.95"/>
</a>
</g>
</g>
<!-- Node7 -->
<g id="Node000007" class="node">
<title>Node7</title>
<g id="a_Node000007"><a xlink:title=" ">
<polygon fill="#e0e0e0" stroke="#999999" points="718.25,-159 598,-159 598,-119.5 718.25,-119.5 718.25,-159"/>
<text text-anchor="start" x="606" y="-145.5" font-family="Helvetica,sans-Serif" font-size="10.00">CGAL/Exact_predicates</text>
<text text-anchor="start" x="606" y="-135" font-family="Helvetica,sans-Serif" font-size="10.00">_exact_constructions</text>
<text text-anchor="middle" x="658.12" y="-124.5" font-family="Helvetica,sans-Serif" font-size="10.00">_kernel.h</text>
</a>
</g>
</g>
<!-- Node2&#45;&gt;Node7 -->
<g id="edge6_Node000002_Node000007" class="edge">
<title>Node2&#45;&gt;Node7</title>
<g id="a_edge6_Node000002_Node000007"><a xlink:title=" ">
<path fill="none" stroke="#63b8ff" d="M1039.88,-203.36C969.82,-196.34 845.17,-182.15 729.74,-159.4"/>
<polygon fill="#63b8ff" stroke="#63b8ff" points="730.58,-155.99 720.08,-157.46 729.2,-162.86 730.58,-155.99"/>
</a>
</g>
</g>
<!-- Node8 -->
<g id="Node000008" class="node">
<title>Node8</title>
<g id="a_Node000008"><a xlink:title=" ">
<polygon fill="#e0e0e0" stroke="#999999" points="864,-148.5 736.25,-148.5 736.25,-130 864,-130 864,-148.5"/>
<text text-anchor="middle" x="800.12" y="-135" font-family="Helvetica,sans-Serif" font-size="10.00">CGAL/Partition_traits_2.h</text>
</a>
</g>
</g>
<!-- Node2&#45;&gt;Node8 -->
<g id="edge7_Node000002_Node000008" class="edge">
<title>Node2&#45;&gt;Node8</title>
<g id="a_edge7_Node000002_Node000008"><a xlink:title=" ">
<path fill="none" stroke="#63b8ff" d="M1039.82,-196.68C994.83,-186.95 929.76,-172.58 873.12,-159 863.71,-156.74 853.63,-154.22 844.06,-151.78"/>
<polygon fill="#63b8ff" stroke="#63b8ff" points="845.16,-148.45 834.6,-149.35 843.42,-155.23 845.16,-148.45"/>
</a>
</g>
</g>
<!-- Node9 -->
<g id="Node000009" class="node">
<title>Node9</title>
<g id="a_Node000009"><a xlink:title=" ">
<polygon fill="#e0e0e0" stroke="#999999" points="1032.25,-148.5 882,-148.5 882,-130 1032.25,-130 1032.25,-148.5"/>
<text text-anchor="middle" x="957.12" y="-135" font-family="Helvetica,sans-Serif" font-size="10.00">CGAL/Polygon_with_holes_2.h</text>
</a>
</g>
</g>
<!-- Node2&#45;&gt;Node9 -->
<g id="edge8_Node000002_Node000009" class="edge">
<title>Node2&#45;&gt;Node9</title>
<g id="a_edge8_Node000002_Node000009"><a xlink:title=" ">
<path fill="none" stroke="#63b8ff" d="M1066.87,-194.52C1042.8,-182.62 1008.42,-165.62 984.58,-153.83"/>
<polygon fill="#63b8ff" stroke="#63b8ff" points="986.32,-150.78 975.8,-149.49 983.21,-157.06 986.32,-150.78"/>
</a>
</g>
</g>
<!-- Node10 -->
<g id="Node000010" class="node">
<title>Node10</title>
<g id="a_Node000010"><a xlink:title=" ">
<polygon fill="#e0e0e0" stroke="#999999" points="1139.88,-148.5 1050.38,-148.5 1050.38,-130 1139.88,-130 1139.88,-148.5"/>
<text text-anchor="middle" x="1095.12" y="-135" font-family="Helvetica,sans-Serif" font-size="10.00">CGAL/Random.h</text>
</a>
</g>
</g>
<!-- Node2&#45;&gt;Node10 -->
<g id="edge9_Node000002_Node000010" class="edge">
<title>Node2&#45;&gt;Node10</title>
<g id="a_edge9_Node000002_Node000010"><a xlink:title=" ">
<path fill="none" stroke="#63b8ff" d="M1095.12,-194.69C1095.12,-184.73 1095.12,-171.13 1095.12,-160.02"/>
<polygon fill="#63b8ff" stroke="#63b8ff" points="1098.63,-160.37 1095.13,-150.37 1091.63,-160.37 1098.63,-160.37"/>
</a>
</g>
</g>
<!-- Node11 -->
<g id="Node000011" class="node">
<title>Node11</title>
<g id="a_Node000011"><a xlink:title=" ">
<polygon fill="#e0e0e0" stroke="#999999" points="1250.75,-148.5 1157.5,-148.5 1157.5,-130 1250.75,-130 1250.75,-148.5"/>
<text text-anchor="middle" x="1204.12" y="-135" font-family="Helvetica,sans-Serif" font-size="10.00">CGAL/algorithm.h</text>
</a>
</g>
</g>
<!-- Node2&#45;&gt;Node11 -->
<g id="edge10_Node000002_Node000011" class="edge">
<title>Node2&#45;&gt;Node11</title>
<g id="a_edge10_Node000002_Node000011"><a xlink:title=" ">
<path fill="none" stroke="#63b8ff" d="M1117.45,-194.52C1135.94,-182.94 1162.15,-166.53 1180.89,-154.8"/>
<polygon fill="#63b8ff" stroke="#63b8ff" points="1182.54,-157.89 1189.16,-149.62 1178.83,-151.96 1182.54,-157.89"/>
</a>
</g>
</g>
<!-- Node12 -->
<g id="Node000012" class="node">
<title>Node12</title>
<g id="a_Node000012"><a xlink:title=" ">
<polygon fill="#e0e0e0" stroke="#999999" points="1357.12,-148.5 1269.12,-148.5 1269.12,-130 1357.12,-130 1357.12,-148.5"/>
<text text-anchor="middle" x="1313.12" y="-135" font-family="Helvetica,sans-Serif" font-size="10.00">CGAL/centroid.h</text>
</a>
</g>
</g>
<!-- Node2&#45;&gt;Node12 -->
<g id="edge11_Node000002_Node000012" class="edge">
<title>Node2&#45;&gt;Node12</title>
<g id="a_edge11_Node000002_Node000012"><a xlink:title=" ">
<path fill="none" stroke="#63b8ff" d="M1143.69,-194.6C1176.66,-185 1221.18,-171.72 1260.12,-159 1266.1,-157.05 1272.42,-154.89 1278.53,-152.76"/>
<polygon fill="#63b8ff" stroke="#63b8ff" points="1279.51,-156.13 1287.77,-149.5 1277.18,-149.53 1279.51,-156.13"/>
</a>
</g>
</g>
<!-- Node13 -->
<g id="Node000013" class="node">
<title>Node13</title>
<g id="a_Node000013"><a xlink:title=" ">
<polygon fill="#e0e0e0" stroke="#999999" points="1474.75,-148.5 1375.5,-148.5 1375.5,-130 1474.75,-130 1474.75,-148.5"/>
<text text-anchor="middle" x="1425.12" y="-135" font-family="Helvetica,sans-Serif" font-size="10.00">CGAL/partition_2.h</text>
</a>
</g>
</g>
<!-- Node2&#45;&gt;Node13 -->
<g id="edge12_Node000002_Node000013" class="edge">
<title>Node2&#45;&gt;Node13</title>
<g id="a_edge12_Node000002_Node000013"><a xlink:title=" ">
<path fill="none" stroke="#63b8ff" d="M1150.32,-200.52C1205.39,-192.07 1292.22,-177.41 1366.12,-159 1373.69,-157.11 1381.71,-154.79 1389.32,-152.43"/>
<polygon fill="#63b8ff" stroke="#63b8ff" points="1390.16,-155.83 1398.62,-149.45 1388.03,-149.17 1390.16,-155.83"/>
</a>
</g>
</g>
<!-- Node14 -->
<g id="Node000014" class="node">
<title>Node14</title>
<g id="a_Node000014"><a xlink:title=" ">
<polygon fill="#e0e0e0" stroke="#999999" points="1629.5,-148.5 1492.75,-148.5 1492.75,-130 1629.5,-130 1629.5,-148.5"/>
<text text-anchor="middle" x="1561.12" y="-135" font-family="Helvetica,sans-Serif" font-size="10.00">CGAL/point_generators_2.h</text>
</a>
</g>
</g>
<!-- Node2&#45;&gt;Node14 -->
<g id="edge13_Node000002_Node000014" class="edge">
<title>Node2&#45;&gt;Node14</title>
<g id="a_edge13_Node000002_Node000014"><a xlink:title=" ">
<path fill="none" stroke="#63b8ff" d="M1150.18,-203.46C1225.83,-196.09 1365.97,-180.83 1484.12,-159 1495.17,-156.96 1507,-154.31 1518,-151.66"/>
<polygon fill="#63b8ff" stroke="#63b8ff" points="1518.75,-155.07 1527.61,-149.27 1517.06,-148.28 1518.75,-155.07"/>
</a>
</g>
</g>
<!-- Node15 -->
<g id="Node000015" class="node">
<title>Node15</title>
<g id="a_Node000015"><a xlink:title=" ">
<polygon fill="#e0e0e0" stroke="#999999" points="1782.38,-148.5 1647.88,-148.5 1647.88,-130 1782.38,-130 1782.38,-148.5"/>
<text text-anchor="middle" x="1715.12" y="-135" font-family="Helvetica,sans-Serif" font-size="10.00">CGAL/random_polygon_2.h</text>
</a>
</g>
</g>
<!-- Node2&#45;&gt;Node15 -->
<g id="edge14_Node000002_Node000015" class="edge">
<title>Node2&#45;&gt;Node15</title>
<g id="a_edge14_Node000002_Node000015"><a xlink:title=" ">
<path fill="none" stroke="#63b8ff" d="M1150.19,-206.18C1248.66,-201.42 1461.17,-188.44 1638.12,-159 1649.53,-157.1 1661.73,-154.43 1672.99,-151.7"/>
<polygon fill="#63b8ff" stroke="#63b8ff" points="1673.56,-155.17 1682.4,-149.34 1671.85,-148.38 1673.56,-155.17"/>
</a>
</g>
</g>
<!-- Node16 -->
<g id="Node000016" class="node">
<title>Node16</title>
<g id="a_Node000016"><a xlink:title=" ">
<polygon fill="#e0e0e0" stroke="#999999" points="1846.12,-148.5 1800.12,-148.5 1800.12,-130 1846.12,-130 1846.12,-148.5"/>
<text text-anchor="middle" x="1823.12" y="-135" font-family="Helvetica,sans-Serif" font-size="10.00">iterator</text>
</a>
</g>
</g>
<!-- Node2&#45;&gt;Node16 -->
<g id="edge15_Node000002_Node000016" class="edge">
<title>Node2&#45;&gt;Node16</title>
<g id="a_edge15_Node000002_Node000016"><a xlink:title=" ">
<path fill="none" stroke="#63b8ff" d="M1150.25,-207.81C1292.98,-205.5 1671.8,-195.98 1791.12,-159 1794.58,-157.93 1798.06,-156.43 1801.39,-154.73"/>
<polygon fill="#63b8ff" stroke="#63b8ff" points="1803.1,-157.78 1809.98,-149.72 1799.57,-151.74 1803.1,-157.78"/>
</a>
</g>
</g>
<!-- Node18 -->
<g id="Node000018" class="node">
<title>Node18</title>
<g id="a_Node000018"><a xlink:title=" ">
<polygon fill="#e0e0e0" stroke="#999999" points="2803.25,-18.5 2761,-18.5 2761,0 2803.25,0 2803.25,-18.5"/>
<text text-anchor="middle" x="2782.12" y="-5" font-family="Helvetica,sans-Serif" font-size="10.00">vector</text>
</a>
</g>
</g>
<!-- Node17&#45;&gt;Node18 -->
<g id="edge17_Node000017_Node000018" class="edge">
<title>Node17&#45;&gt;Node18</title>
<g id="a_edge17_Node000017_Node000018"><a xlink:title=" ">
<path fill="none" stroke="#63b8ff" d="M2827.11,-124.3C2823.25,-107.42 2815.85,-78.3 2806.12,-54.5 2802.53,-45.7 2797.66,-36.39 2793.24,-28.6"/>
<polygon fill="#63b8ff" stroke="#63b8ff" points="2796.33,-26.95 2788.25,-20.1 2790.3,-30.49 2796.33,-26.95"/>
</a>
</g>
</g>
<!-- Node19 -->
<g id="Node000019" class="node">
<title>Node19</title>
<g id="a_Node000019"><a xlink:href="typedefs_8h.html" target="_top" xlink:title="Contains typedefs for the library.">
<polygon fill="white" stroke="#666666" points="2763.88,-78.25 2626.38,-78.25 2626.38,-59.75 2763.88,-59.75 2763.88,-78.25"/>
<text text-anchor="middle" x="2695.12" y="-64.75" font-family="Helvetica,sans-Serif" font-size="10.00">CoverageControl/typedefs.h</text>
</a>
</g>
</g>
<!-- Node17&#45;&gt;Node19 -->
<g id="edge18_Node000017_Node000019" class="edge">
<title>Node17&#45;&gt;Node19</title>
<g id="a_edge18_Node000017_Node000019"><a xlink:title=" ">
<path fill="none" stroke="#63b8ff" d="M2802.48,-124.27C2779.04,-112.42 2745.61,-95.52 2722.3,-83.74"/>
<polygon fill="#63b8ff" stroke="#63b8ff" points="2723.92,-80.64 2713.42,-79.25 2720.77,-86.88 2723.92,-80.64"/>
</a>
</g>
</g>
<!-- Node19&#45;&gt;Node18 -->
<g id="edge21_Node000019_Node000018" class="edge">
<title>Node19&#45;&gt;Node18</title>
<g id="a_edge21_Node000019_Node000018"><a xlink:title=" ">
<path fill="none" stroke="#63b8ff" d="M2707.96,-59.48C2721.51,-50.49 2743.12,-36.14 2759.52,-25.25"/>
<polygon fill="#63b8ff" stroke="#63b8ff" points="2761.29,-28.28 2767.69,-19.83 2757.42,-22.45 2761.29,-28.28"/>
</a>
</g>
</g>
<!-- Node20 -->
<g id="Node000020" class="node">
<title>Node20</title>
<g id="a_Node000020"><a xlink:title=" ">
<polygon fill="#e0e0e0" stroke="#999999" points="2665.25,-18.5 2593,-18.5 2593,0 2665.25,0 2665.25,-18.5"/>
<text text-anchor="middle" x="2629.12" y="-5" font-family="Helvetica,sans-Serif" font-size="10.00">Eigen/Dense</text>
</a>
</g>
</g>
<!-- Node19&#45;&gt;Node20 -->
<g id="edge19_Node000019_Node000020" class="edge">
<title>Node19&#45;&gt;Node20</title>
<g id="a_edge19_Node000019_Node000020"><a xlink:title=" ">
<path fill="none" stroke="#63b8ff" d="M2685.39,-59.48C2675.44,-50.78 2659.77,-37.06 2647.48,-26.31"/>
<polygon fill="#63b8ff" stroke="#63b8ff" points="2649.87,-23.75 2640.04,-19.8 2645.26,-29.02 2649.87,-23.75"/>
</a>
</g>
</g>
<!-- Node21 -->
<g id="Node000021" class="node">
<title>Node21</title>
<g id="a_Node000021"><a xlink:title=" ">
<polygon fill="#e0e0e0" stroke="#999999" points="2725.25,-18.5 2683,-18.5 2683,0 2725.25,0 2725.25,-18.5"/>
<text text-anchor="middle" x="2704.12" y="-5" font-family="Helvetica,sans-Serif" font-size="10.00">queue</text>
</a>
</g>
</g>
<!-- Node19&#45;&gt;Node21 -->
<g id="edge20_Node000019_Node000021" class="edge">
<title>Node19&#45;&gt;Node21</title>
<g id="a_edge20_Node000019_Node000021"><a xlink:title=" ">
<path fill="none" stroke="#63b8ff" d="M2696.45,-59.48C2697.66,-51.72 2699.49,-39.96 2701.07,-29.88"/>
<polygon fill="#63b8ff" stroke="#63b8ff" points="2704.48,-30.72 2702.56,-20.3 2697.56,-29.64 2704.48,-30.72"/>
</a>
</g>
</g>
<!-- Node23 -->
<g id="Node000023" class="node">
<title>Node23</title>
<g id="a_Node000023"><a xlink:title=" ">
<polygon fill="#e0e0e0" stroke="#999999" points="2158.62,-18.5 2115.62,-18.5 2115.62,0 2158.62,0 2158.62,-18.5"/>
<text text-anchor="middle" x="2137.12" y="-5" font-family="Helvetica,sans-Serif" font-size="10.00">cmath</text>
</a>
</g>
</g>
<!-- Node22&#45;&gt;Node23 -->
<g id="edge23_Node000022_Node000023" class="edge">
<title>Node22&#45;&gt;Node23</title>
<g id="a_edge23_Node000022_Node000023"><a xlink:title=" ">
<path fill="none" stroke="#63b8ff" d="M2269.77,-59.35C2243.24,-49.53 2199.76,-33.44 2169.86,-22.37"/>
<polygon fill="#63b8ff" stroke="#63b8ff" points="2171.14,-19.11 2160.54,-18.92 2168.71,-25.67 2171.14,-19.11"/>
</a>
</g>
</g>
<!-- Node24 -->
<g id="Node000024" class="node">
<title>Node24</title>
<g id="a_Node000024"><a xlink:title=" ">
<polygon fill="#e0e0e0" stroke="#999999" points="2359.75,-18.5 2320.5,-18.5 2320.5,0 2359.75,0 2359.75,-18.5"/>
<text text-anchor="middle" x="2340.12" y="-5" font-family="Helvetica,sans-Serif" font-size="10.00">limits</text>
</a>
</g>
</g>
<!-- Node22&#45;&gt;Node24 -->
<g id="edge24_Node000022_Node000024" class="edge">
<title>Node22&#45;&gt;Node24</title>
<g id="a_edge24_Node000022_Node000024"><a xlink:title=" ">
<path fill="none" stroke="#63b8ff" d="M2300.06,-59.48C2306.86,-51.12 2317.44,-38.13 2326.01,-27.59"/>
<polygon fill="#63b8ff" stroke="#63b8ff" points="2328.61,-29.95 2332.21,-19.98 2323.18,-25.53 2328.61,-29.95"/>
</a>
</g>
</g>
<!-- Node25 -->
<g id="Node000025" class="node">
<title>Node25</title>
<g id="a_Node000025"><a xlink:title=" ">
<polygon fill="#e0e0e0" stroke="#999999" points="2302.12,-18.5 2262.12,-18.5 2262.12,0 2302.12,0 2302.12,-18.5"/>
<text text-anchor="middle" x="2282.12" y="-5" font-family="Helvetica,sans-Serif" font-size="10.00">string</text>
</a>
</g>
</g>
<!-- Node22&#45;&gt;Node25 -->
<g id="edge25_Node000022_Node000025" class="edge">
<title>Node22&#45;&gt;Node25</title>
<g id="a_edge25_Node000022_Node000025"><a xlink:title=" ">
<path fill="none" stroke="#63b8ff" d="M2291.5,-59.48C2290.02,-51.72 2287.78,-39.96 2285.86,-29.88"/>
<polygon fill="#63b8ff" stroke="#63b8ff" points="2289.35,-29.46 2284.04,-20.29 2282.47,-30.77 2289.35,-29.46"/>
</a>
</g>
</g>
<!-- Node26 -->
<g id="Node000026" class="node">
<title>Node26</title>
<g id="a_Node000026"><a xlink:title=" ">
<polygon fill="#e0e0e0" stroke="#999999" points="2575.38,-18.5 2446.88,-18.5 2446.88,0 2575.38,0 2575.38,-18.5"/>
<text text-anchor="middle" x="2511.12" y="-5" font-family="Helvetica,sans-Serif" font-size="10.00">CoverageControl/Config.h</text>
</a>
</g>
</g>
<!-- Node22&#45;&gt;Node26 -->
<g id="edge26_Node000022_Node000026" class="edge">
<title>Node22&#45;&gt;Node26</title>
<g id="a_edge26_Node000022_Node000026"><a xlink:title=" ">
<path fill="none" stroke="#63b8ff" d="M2325.76,-59.35C2363.41,-49.38 2425.48,-32.94 2467.3,-21.86"/>
<polygon fill="#63b8ff" stroke="#63b8ff" points="2468.03,-25.29 2476.8,-19.34 2466.24,-18.52 2468.03,-25.29"/>
</a>
</g>
</g>
<!-- Node27&#45;&gt;Node17 -->
<g id="edge51_Node000027_Node000017" class="edge">
<title>Node27&#45;&gt;Node17</title>
<g id="a_edge51_Node000027_Node000017"><a xlink:title=" ">
<path fill="none" stroke="#63b8ff" d="M2501.74,-201.45C2565.53,-193.19 2671.24,-178.17 2761.12,-159 2764.1,-158.37 2767.13,-157.68 2770.19,-156.96"/>
<polygon fill="#63b8ff" stroke="#63b8ff" points="2770.94,-160.38 2779.82,-154.6 2769.27,-153.59 2770.94,-160.38"/>
</a>
</g>
</g>
<!-- Node27&#45;&gt;Node18 -->
<g id="edge32_Node000027_Node000018" class="edge">
<title>Node27&#45;&gt;Node18</title>
<g id="a_edge32_Node000027_Node000018"><a xlink:title=" ">
<path fill="none" stroke="#63b8ff" d="M2501.66,-198.6C2576.07,-185.66 2697.24,-164.04 2706.12,-159 2745.15,-136.87 2754.67,-124.39 2773.12,-83.5 2780.79,-66.53 2782.65,-45.22 2782.83,-29.97"/>
<polygon fill="#63b8ff" stroke="#63b8ff" points="2786.33,-30.28 2782.69,-20.33 2779.33,-30.37 2786.33,-30.28"/>
</a>
</g>
</g>
<!-- Node27&#45;&gt;Node19 -->
<g id="edge58_Node000027_Node000019" class="edge">
<title>Node27&#45;&gt;Node19</title>
<g id="a_edge58_Node000027_Node000019"><a xlink:title=" ">
<path fill="none" stroke="#63b8ff" d="M2501.68,-204.23C2564.67,-198.3 2659.96,-185.19 2684.12,-159 2701.18,-140.51 2701.09,-109.92 2698.7,-89.86"/>
<polygon fill="#63b8ff" stroke="#63b8ff" points="2702.19,-89.54 2697.23,-80.18 2695.27,-90.59 2702.19,-89.54"/>
</a>
</g>
</g>
<!-- Node27&#45;&gt;Node20 -->
<g id="edge28_Node000027_Node000020" class="edge">
<title>Node27&#45;&gt;Node20</title>
<g id="a_edge28_Node000027_Node000020"><a xlink:title=" ">
<path fill="none" stroke="#63b8ff" d="M2471.94,-194.61C2487.99,-185.78 2507.93,-173.32 2523.12,-159 2565.9,-118.7 2602.29,-58.79 2619.13,-28.79"/>
<polygon fill="#63b8ff" stroke="#63b8ff" points="2622.11,-30.63 2623.87,-20.18 2615.98,-27.25 2622.11,-30.63"/>
</a>
</g>
</g>
<!-- Node27&#45;&gt;Node22 -->
<g id="edge52_Node000027_Node000022" class="edge">
<title>Node27&#45;&gt;Node22</title>
<g id="a_edge52_Node000027_Node000022"><a xlink:title=" ">
<path fill="none" stroke="#63b8ff" d="M2428.66,-194.69C2417.61,-184.8 2402.4,-171.13 2389.12,-159 2361.58,-133.84 2329.89,-104.36 2310.7,-86.44"/>
<polygon fill="#63b8ff" stroke="#63b8ff" points="2313.15,-83.94 2303.46,-79.67 2308.37,-89.06 2313.15,-83.94"/>
</a>
</g>
</g>
<!-- Node27&#45;&gt;Node25 -->
<g id="edge31_Node000027_Node000025" class="edge">
<title>Node27&#45;&gt;Node25</title>
<g id="a_edge31_Node000027_Node000025"><a xlink:title=" ">
<path fill="none" stroke="#63b8ff" d="M2441.12,-194.78C2434.08,-165.49 2413.92,-96.14 2373.12,-54.5 2356.68,-37.72 2332.58,-26.39 2313.31,-19.4"/>
<polygon fill="#63b8ff" stroke="#63b8ff" points="2314.65,-16.16 2304.05,-16.27 2312.4,-22.79 2314.65,-16.16"/>
</a>
</g>
</g>
<!-- Node27&#45;&gt;Node26 -->
<g id="edge33_Node000027_Node000026" class="edge">
<title>Node27&#45;&gt;Node26</title>
<g id="a_edge33_Node000027_Node000026"><a xlink:title=" ">
<path fill="none" stroke="#63b8ff" d="M2460.08,-194.71C2483.2,-173.55 2525.02,-130.54 2541.12,-83.5 2545.3,-71.31 2544.91,-66.82 2541.12,-54.5 2538.17,-44.88 2532.33,-35.46 2526.59,-27.81"/>
<polygon fill="#63b8ff" stroke="#63b8ff" points="2529.32,-25.62 2520.29,-20.07 2523.89,-30.04 2529.32,-25.62"/>
</a>
</g>
</g>
<!-- Node28 -->
<g id="Node000028" class="node">
<title>Node28</title>
<g id="a_Node000028"><a xlink:title=" ">
<polygon fill="#e0e0e0" stroke="#999999" points="2675.62,-148.5 2626.62,-148.5 2626.62,-130 2675.62,-130 2675.62,-148.5"/>
<text text-anchor="middle" x="2651.12" y="-135" font-family="Helvetica,sans-Serif" font-size="10.00">fstream</text>
</a>
</g>
</g>
<!-- Node27&#45;&gt;Node28 -->
<g id="edge29_Node000027_Node000028" class="edge">
<title>Node27&#45;&gt;Node28</title>
<g id="a_edge29_Node000027_Node000028"><a xlink:title=" ">
<path fill="none" stroke="#63b8ff" d="M2499.73,-194.54C2532.82,-185.64 2575.38,-173.14 2612.12,-159 2616.15,-157.45 2620.33,-155.66 2624.39,-153.8"/>
<polygon fill="#63b8ff" stroke="#63b8ff" points="2625.8,-157 2633.32,-149.54 2622.79,-150.69 2625.8,-157"/>
</a>
</g>
</g>
<!-- Node29 -->
<g id="Node000029" class="node">
<title>Node29</title>
<g id="a_Node000029"><a xlink:title=" ">
<polygon fill="#e0e0e0" stroke="#999999" points="1952.88,-18.5 1899.38,-18.5 1899.38,0 1952.88,0 1952.88,-18.5"/>
<text text-anchor="middle" x="1926.12" y="-5" font-family="Helvetica,sans-Serif" font-size="10.00">iostream</text>
</a>
</g>
</g>
<!-- Node27&#45;&gt;Node29 -->
<g id="edge30_Node000027_Node000029" class="edge">
<title>Node27&#45;&gt;Node29</title>
<g id="a_edge30_Node000027_Node000029"><a xlink:title=" ">
<path fill="none" stroke="#63b8ff" d="M2386.8,-205.84C2285.34,-200.49 2078.55,-186.52 2012.12,-159 1962.3,-138.36 1940.57,-132.07 1917.12,-83.5 1908.95,-66.56 1913.11,-44.97 1918.14,-29.63"/>
<polygon fill="#63b8ff" stroke="#63b8ff" points="1921.41,-30.88 1921.62,-20.29 1914.85,-28.44 1921.41,-30.88"/>
</a>
</g>
</g>
<!-- Node30 -->
<g id="Node000030" class="node">
<title>Node30</title>
<g id="a_Node000030"><a xlink:href="cuda__utils_8h.html" target="_top" xlink:title="Utility functions for CUDA.">
<polygon fill="white" stroke="#666666" points="2532.5,-83.5 2419.75,-83.5 2419.75,-54.5 2532.5,-54.5 2532.5,-83.5"/>
<text text-anchor="start" x="2427.75" y="-70" font-family="Helvetica,sans-Serif" font-size="10.00">CoverageControl/cuda</text>
<text text-anchor="middle" x="2476.12" y="-59.5" font-family="Helvetica,sans-Serif" font-size="10.00">_utils.h</text>
</a>
</g>
</g>
<!-- Node27&#45;&gt;Node30 -->
<g id="edge34_Node000027_Node000030" class="edge">
<title>Node27&#45;&gt;Node30</title>
<g id="a_edge34_Node000027_Node000030"><a xlink:title=" ">
<path fill="none" stroke="#63b8ff" d="M2447.31,-194.71C2452.7,-171.38 2463.69,-123.8 2470.43,-94.63"/>
<polygon fill="#63b8ff" stroke="#63b8ff" points="2473.77,-95.74 2472.61,-85.21 2466.95,-94.16 2473.77,-95.74"/>
</a>
</g>
</g>
<!-- Node32 -->
<g id="Node000032" class="node">
<title>Node32</title>
<g id="a_Node000032"><a xlink:href="bivariate__normal__distribution_8h.html" target="_top" xlink:title="Class for Bivariate Normal Distribution.">
<polygon fill="white" stroke="#666666" points="2299,-153.75 2171.25,-153.75 2171.25,-124.75 2299,-124.75 2299,-153.75"/>
<text text-anchor="start" x="2179.25" y="-140.25" font-family="Helvetica,sans-Serif" font-size="10.00">CoverageControl/bivariate</text>
<text text-anchor="middle" x="2235.12" y="-129.75" font-family="Helvetica,sans-Serif" font-size="10.00">_normal_distribution.h</text>
</a>
</g>
</g>
<!-- Node27&#45;&gt;Node32 -->
<g id="edge41_Node000027_Node000032" class="edge">
<title>Node27&#45;&gt;Node32</title>
<g id="a_edge41_Node000027_Node000032"><a xlink:title=" ">
<path fill="none" stroke="#63b8ff" d="M2401.33,-194.52C2368.64,-183.85 2323.41,-169.08 2288.38,-157.64"/>
<polygon fill="#63b8ff" stroke="#63b8ff" points="2289.9,-154.45 2279.31,-154.68 2287.72,-161.11 2289.9,-154.45"/>
</a>
</g>
</g>
<!-- Node33 -->
<g id="Node000033" class="node">
<title>Node33</title>
<g id="a_Node000033"><a xlink:href="parameters_8h.html" target="_top" xlink:title="Contains parameters.">
<polygon fill="white" stroke="#666666" points="2089.88,-78.25 1940.38,-78.25 1940.38,-59.75 2089.88,-59.75 2089.88,-78.25"/>
<text text-anchor="middle" x="2015.12" y="-64.75" font-family="Helvetica,sans-Serif" font-size="10.00">CoverageControl/parameters.h</text>
</a>
</g>
</g>
<!-- Node27&#45;&gt;Node33 -->
<g id="edge57_Node000027_Node000033" class="edge">
<title>Node27&#45;&gt;Node33</title>
<g id="a_edge57_Node000027_Node000033"><a xlink:title=" ">
<path fill="none" stroke="#63b8ff" d="M2386.91,-205.25C2280.3,-198.66 2059.7,-182.36 2034.12,-159 2015.19,-141.7 2012.63,-110.54 2013.29,-90.06"/>
<polygon fill="#63b8ff" stroke="#63b8ff" points="2016.78,-90.37 2013.93,-80.17 2009.79,-89.92 2016.78,-90.37"/>
</a>
</g>
</g>
<!-- Node35 -->
<g id="Node000035" class="node">
<title>Node35</title>
<g id="a_Node000035"><a xlink:href="map__utils_8h.html" target="_top" xlink:title="Utility functions for transforming maps.">
<polygon fill="white" stroke="#666666" points="2153.38,-153.75 2042.88,-153.75 2042.88,-124.75 2153.38,-124.75 2153.38,-153.75"/>
<text text-anchor="start" x="2050.88" y="-140.25" font-family="Helvetica,sans-Serif" font-size="10.00">CoverageControl/map</text>
<text text-anchor="middle" x="2098.12" y="-129.75" font-family="Helvetica,sans-Serif" font-size="10.00">_utils.h</text>
</a>
</g>
</g>
<!-- Node27&#45;&gt;Node35 -->
<g id="edge53_Node000027_Node000035" class="edge">
<title>Node27&#45;&gt;Node35</title>
<g id="a_edge53_Node000027_Node000035"><a xlink:title=" ">
<path fill="none" stroke="#63b8ff" d="M2386.77,-200.35C2329.52,-191.76 2239.21,-177 2162.12,-159 2159.56,-158.4 2156.94,-157.76 2154.3,-157.09"/>
<polygon fill="#63b8ff" stroke="#63b8ff" points="2155.44,-153.77 2144.87,-154.58 2153.64,-160.53 2155.44,-153.77"/>
</a>
</g>
</g>
<!-- Node30&#45;&gt;Node18 -->
<g id="edge39_Node000030_Node000018" class="edge">
<title>Node30&#45;&gt;Node18</title>
<g id="a_edge39_Node000030_Node000018"><a xlink:title=" ">
<path fill="none" stroke="#63b8ff" d="M2532.96,-57.27C2596.78,-45.23 2698.14,-26.1 2749.7,-16.37"/>
<polygon fill="#63b8ff" stroke="#63b8ff" points="2750.13,-19.85 2759.31,-14.56 2748.84,-12.97 2750.13,-19.85"/>
</a>
</g>
</g>
<!-- Node30&#45;&gt;Node24 -->
<g id="edge36_Node000030_Node000024" class="edge">
<title>Node30&#45;&gt;Node24</title>
<g id="a_edge36_Node000030_Node000024"><a xlink:title=" ">
<path fill="none" stroke="#63b8ff" d="M2443.2,-54.02C2421.11,-44.64 2392.22,-32.37 2370.65,-23.21"/>
<polygon fill="#63b8ff" stroke="#63b8ff" points="2372.07,-20.01 2361.5,-19.33 2369.34,-26.46 2372.07,-20.01"/>
</a>
</g>
</g>
<!-- Node30&#45;&gt;Node25 -->
<g id="edge38_Node000030_Node000025" class="edge">
<title>Node30&#45;&gt;Node25</title>
<g id="a_edge38_Node000030_Node000025"><a xlink:title=" ">
<path fill="none" stroke="#63b8ff" d="M2429.16,-54.02C2393.01,-43.26 2344.08,-28.69 2312.81,-19.38"/>
<polygon fill="#63b8ff" stroke="#63b8ff" points="2314.17,-16.14 2303.59,-16.64 2312.18,-22.85 2314.17,-16.14"/>
</a>
</g>
</g>
<!-- Node30&#45;&gt;Node26 -->
<g id="edge40_Node000030_Node000026" class="edge">
<title>Node30&#45;&gt;Node26</title>
<g id="a_edge40_Node000030_Node000026"><a xlink:title=" ">
<path fill="none" stroke="#63b8ff" d="M2484.6,-54.02C2489.21,-46.41 2494.98,-36.89 2499.96,-28.68"/>
<polygon fill="#63b8ff" stroke="#63b8ff" points="2502.91,-30.56 2505.1,-20.2 2496.92,-26.94 2502.91,-30.56"/>
</a>
</g>
</g>
<!-- Node30&#45;&gt;Node29 -->
<g id="edge35_Node000030_Node000029" class="edge">
<title>Node30&#45;&gt;Node29</title>
<g id="a_edge35_Node000030_Node000029"><a xlink:title=" ">
<path fill="none" stroke="#63b8ff" d="M2419.51,-60.17C2404.45,-58.2 2388.18,-56.17 2373.12,-54.5 2197.03,-34.98 2151.87,-40.94 1976.12,-18.5 1972.3,-18.01 1968.32,-17.45 1964.35,-16.85"/>
<polygon fill="#63b8ff" stroke="#63b8ff" points="1965.24,-13.45 1954.81,-15.34 1964.15,-20.36 1965.24,-13.45"/>
</a>
</g>
</g>
<!-- Node31 -->
<g id="Node000031" class="node">
<title>Node31</title>
<g id="a_Node000031"><a xlink:title=" ">
<polygon fill="#e0e0e0" stroke="#999999" points="2428.75,-18.5 2377.5,-18.5 2377.5,0 2428.75,0 2428.75,-18.5"/>
<text text-anchor="middle" x="2403.12" y="-5" font-family="Helvetica,sans-Serif" font-size="10.00">sstream</text>
</a>
</g>
</g>
<!-- Node30&#45;&gt;Node31 -->
<g id="edge37_Node000030_Node000031" class="edge">
<title>Node30&#45;&gt;Node31</title>
<g id="a_edge37_Node000030_Node000031"><a xlink:title=" ">
<path fill="none" stroke="#63b8ff" d="M2458.45,-54.02C2447.75,-45.55 2434.07,-34.73 2422.99,-25.97"/>
<polygon fill="#63b8ff" stroke="#63b8ff" points="2425.26,-23.3 2415.25,-19.84 2420.92,-28.79 2425.26,-23.3"/>
</a>
</g>
</g>
<!-- Node32&#45;&gt;Node19 -->
<g id="edge50_Node000032_Node000019" class="edge">
<title>Node32&#45;&gt;Node19</title>
<g id="a_edge50_Node000032_Node000019"><a xlink:title=" ">
<path fill="none" stroke="#63b8ff" d="M2299.09,-128.76C2384.82,-116.04 2536.45,-93.54 2625.15,-80.38"/>
<polygon fill="#63b8ff" stroke="#63b8ff" points="2625.56,-83.86 2634.94,-78.93 2624.53,-76.94 2625.56,-83.86"/>
</a>
</g>
</g>
<!-- Node32&#45;&gt;Node22 -->
<g id="edge44_Node000032_Node000022" class="edge">
<title>Node32&#45;&gt;Node22</title>
<g id="a_edge44_Node000032_Node000022"><a xlink:title=" ">
<path fill="none" stroke="#63b8ff" d="M2246.86,-124.44C2255.96,-113.73 2268.64,-98.82 2278.42,-87.31"/>
<polygon fill="#63b8ff" stroke="#63b8ff" points="2281.02,-89.65 2284.83,-79.76 2275.69,-85.12 2281.02,-89.65"/>
</a>
</g>
</g>
<!-- Node32&#45;&gt;Node23 -->
<g id="edge42_Node000032_Node000023" class="edge">
<title>Node32&#45;&gt;Node23</title>
<g id="a_edge42_Node000032_Node000023"><a xlink:title=" ">
<path fill="none" stroke="#63b8ff" d="M2224.64,-124.55C2206.76,-101.21 2170.43,-53.75 2150.66,-27.93"/>
<polygon fill="#63b8ff" stroke="#63b8ff" points="2153.53,-25.92 2144.67,-20.11 2147.97,-30.17 2153.53,-25.92"/>
</a>
</g>
</g>
<!-- Node32&#45;&gt;Node29 -->
<g id="edge43_Node000032_Node000029" class="edge">
<title>Node32&#45;&gt;Node29</title>
<g id="a_edge43_Node000032_Node000029"><a xlink:title=" ">
<path fill="none" stroke="#63b8ff" d="M2183.43,-124.31C2176.29,-122.58 2169.05,-120.92 2162.12,-119.5 2111.24,-109.03 1966.24,-121.79 1931.12,-83.5 1918.08,-69.28 1918.72,-46.26 1921.41,-29.82"/>
<polygon fill="#63b8ff" stroke="#63b8ff" points="1924.79,-30.77 1923.38,-20.27 1917.94,-29.36 1924.79,-30.77"/>
</a>
</g>
</g>
<!-- Node32&#45;&gt;Node33 -->
<g id="edge45_Node000032_Node000033" class="edge">
<title>Node32&#45;&gt;Node33</title>
<g id="a_edge45_Node000032_Node000033"><a xlink:title=" ">
<path fill="none" stroke="#63b8ff" d="M2190.07,-124.27C2149.91,-111.82 2091.76,-93.77 2053.7,-81.97"/>
<polygon fill="#63b8ff" stroke="#63b8ff" points="2055.09,-78.73 2044.5,-79.11 2053.01,-85.42 2055.09,-78.73"/>
</a>
</g>
</g>
<!-- Node33&#45;&gt;Node23 -->
<g id="edge46_Node000033_Node000023" class="edge">
<title>Node33&#45;&gt;Node23</title>
<g id="a_edge46_Node000033_Node000023"><a xlink:title=" ">
<path fill="none" stroke="#63b8ff" d="M2033.39,-59.35C2053.24,-49.96 2085.24,-34.81 2108.45,-23.82"/>
<polygon fill="#63b8ff" stroke="#63b8ff" points="2109.83,-27.04 2117.37,-19.6 2106.83,-20.72 2109.83,-27.04"/>
</a>
</g>
</g>
<!-- Node33&#45;&gt;Node25 -->
<g id="edge49_Node000033_Node000025" class="edge">
<title>Node33&#45;&gt;Node25</title>
<g id="a_edge49_Node000033_Node000025"><a xlink:title=" ">
<path fill="none" stroke="#63b8ff" d="M2055.39,-59.29C2108.82,-47.74 2202.05,-27.57 2250.64,-17.06"/>
<polygon fill="#63b8ff" stroke="#63b8ff" points="2251.19,-20.52 2260.22,-14.99 2249.71,-13.68 2251.19,-20.52"/>
</a>
</g>
</g>
<!-- Node33&#45;&gt;Node29 -->
<g id="edge48_Node000033_Node000029" class="edge">
<title>Node33&#45;&gt;Node29</title>
<g id="a_edge48_Node000033_Node000029"><a xlink:title=" ">
<path fill="none" stroke="#63b8ff" d="M2001.99,-59.48C1988.14,-50.49 1966.03,-36.14 1949.24,-25.25"/>
<polygon fill="#63b8ff" stroke="#63b8ff" points="1951.17,-22.33 1940.87,-19.82 1947.36,-28.2 1951.17,-22.33"/>
</a>
</g>
</g>
<!-- Node34 -->
<g id="Node000034" class="node">
<title>Node34</title>
<g id="a_Node000034"><a xlink:title=" ">
<polygon fill="#e0e0e0" stroke="#999999" points="2044.88,-18.5 1985.38,-18.5 1985.38,0 2044.88,0 2044.88,-18.5"/>
<text text-anchor="middle" x="2015.12" y="-5" font-family="Helvetica,sans-Serif" font-size="10.00">filesystem</text>
</a>
</g>
</g>
<!-- Node33&#45;&gt;Node34 -->
<g id="edge47_Node000033_Node000034" class="edge">
<title>Node33&#45;&gt;Node34</title>
<g id="a_edge47_Node000033_Node000034"><a xlink:title=" ">
<path fill="none" stroke="#63b8ff" d="M2015.12,-59.48C2015.12,-51.8 2015.12,-40.22 2015.12,-30.22"/>
<polygon fill="#63b8ff" stroke="#63b8ff" points="2018.63,-30.32 2015.13,-20.32 2011.63,-30.32 2018.63,-30.32"/>
</a>
</g>
</g>
<!-- Node35&#45;&gt;Node23 -->
<g id="edge54_Node000035_Node000023" class="edge">
<title>Node35&#45;&gt;Node23</title>
<g id="a_edge54_Node000035_Node000023"><a xlink:title=" ">
<path fill="none" stroke="#63b8ff" d="M2102.3,-124.55C2109.25,-101.72 2123.24,-55.83 2131.21,-29.68"/>
<polygon fill="#63b8ff" stroke="#63b8ff" points="2134.48,-30.94 2134.05,-20.35 2127.78,-28.9 2134.48,-30.94"/>
</a>
</g>
</g>
<!-- Node35&#45;&gt;Node25 -->
<g id="edge55_Node000035_Node000025" class="edge">
<title>Node35&#45;&gt;Node25</title>
<g id="a_edge55_Node000035_Node000025"><a xlink:title=" ">
<path fill="none" stroke="#63b8ff" d="M2116.61,-124.27C2139.13,-107.36 2178.47,-78.2 2213.12,-54.5 2228.01,-44.32 2245.06,-33.38 2258.49,-24.92"/>
<polygon fill="#63b8ff" stroke="#63b8ff" points="2260.06,-28.07 2266.67,-19.8 2256.34,-22.14 2260.06,-28.07"/>
</a>
</g>
</g>
<!-- Node35&#45;&gt;Node33 -->
<g id="edge56_Node000035_Node000033" class="edge">
<title>Node35&#45;&gt;Node33</title>
<g id="a_edge56_Node000035_Node000033"><a xlink:title=" ">
<path fill="none" stroke="#63b8ff" d="M2081.33,-124.44C2067.65,-113.19 2048.34,-97.32 2034.11,-85.61"/>
<polygon fill="#63b8ff" stroke="#63b8ff" points="2036.71,-83.22 2026.76,-79.57 2032.27,-88.63 2036.71,-83.22"/>
</a>
</g>
</g>
</g>
</svg>
