<?xml version="1.0" encoding="UTF-8" standalone="no"?>
<!DOCTYPE svg PUBLIC "-//W3C//DTD SVG 1.1//EN"
 "http://www.w3.org/Graphics/SVG/1.1/DTD/svg11.dtd">
<!-- Generated by graphviz version 12.1.2 (0)
 -->
<!-- Title: world_idf.h Pages: 1 -->
<svg width="1050pt" height="255pt"
 viewBox="0.00 0.00 1050.00 255.00" xmlns="http://www.w3.org/2000/svg" xmlns:xlink="http://www.w3.org/1999/xlink">
<g id="graph0" class="graph" transform="scale(1 1) rotate(0) translate(4 251)">
<title>world_idf.h</title>
<!-- Node1 -->
<g id="Node000001" class="node">
<title>Node1</title>
<g id="a_Node000001"><a xlink:title="Contains the class for Importance Density Function (IDF) for the world.">
<polygon fill="#999999" stroke="#666666" points="413.25,-247 351.5,-247 351.5,-228.5 413.25,-228.5 413.25,-247"/>
<text text-anchor="middle" x="382.38" y="-233.5" font-family="Helvetica,sans-Serif" font-size="10.00">world_idf.h</text>
</a>
</g>
</g>
<!-- Node2 -->
<g id="Node000002" class="node">
<title>Node2</title>
<g id="a_Node000002"><a xlink:href="coverage__algorithm_8cpp.html" target="_top" xlink:title="Program to test the CVT&#45;based (Lloyd&#39;s) coverage control algorithms.">
<polygon fill="white" stroke="#666666" points="118.75,-18.5 0,-18.5 0,0 118.75,0 118.75,-18.5"/>
<text text-anchor="middle" x="59.38" y="-5" font-family="Helvetica,sans-Serif" font-size="10.00">coverage_algorithm.cpp</text>
</a>
</g>
</g>
<!-- Node1&#45;&gt;Node2 -->
<g id="edge1_Node000001_Node000002" class="edge">
<title>Node1&#45;&gt;Node2</title>
<g id="a_edge1_Node000001_Node000002"><a xlink:title=" ">
<path fill="none" stroke="#63b8ff" d="M340.22,-231.15C267.74,-219 121.26,-182.8 58.38,-83.5 45.58,-63.3 52.12,-33.26 56.49,-18.73"/>
<polygon fill="#63b8ff" stroke="#63b8ff" points="339.27,-234.54 349.7,-232.66 340.37,-227.63 339.27,-234.54"/>
</a>
</g>
</g>
<!-- Node3 -->
<g id="Node000003" class="node">
<title>Node3</title>
<g id="a_Node000003"><a xlink:href="coverage__system_8h.html" target="_top" xlink:title="The file contains the CoverageSystem class, which is the main class for the coverage control library.">
<polygon fill="white" stroke="#666666" points="466,-138 366.75,-138 366.75,-119.5 466,-119.5 466,-138"/>
<text text-anchor="middle" x="416.38" y="-124.5" font-family="Helvetica,sans-Serif" font-size="10.00">coverage_system.h</text>
</a>
</g>
</g>
<!-- Node1&#45;&gt;Node3 -->
<g id="edge2_Node000001_Node000003" class="edge">
<title>Node1&#45;&gt;Node3</title>
<g id="a_edge2_Node000001_Node000003"><a xlink:title=" ">
<path fill="none" stroke="#63b8ff" d="M372.23,-217.98C366.73,-205.19 362.2,-188.09 368.38,-174 375.2,-158.43 390.51,-145.91 402.01,-138.22"/>
<polygon fill="#63b8ff" stroke="#63b8ff" points="369.08,-219.5 376.61,-226.95 375.36,-216.43 369.08,-219.5"/>
</a>
</g>
</g>
<!-- Node12 -->
<g id="Node000012" class="node">
<title>Node12</title>
<g id="a_Node000012"><a xlink:href="robot__model_8h.html" target="_top" xlink:title="Class for handling the robot model.">
<polygon fill="white" stroke="#666666" points="455.12,-192.5 377.62,-192.5 377.62,-174 455.12,-174 455.12,-192.5"/>
<text text-anchor="middle" x="416.38" y="-179" font-family="Helvetica,sans-Serif" font-size="10.00">robot_model.h</text>
</a>
</g>
</g>
<!-- Node1&#45;&gt;Node12 -->
<g id="edge13_Node000001_Node000012" class="edge">
<title>Node1&#45;&gt;Node12</title>
<g id="a_edge13_Node000001_Node000012"><a xlink:title=" ">
<path fill="none" stroke="#63b8ff" d="M394.09,-218.66C399.78,-209.88 406.34,-199.74 410.87,-192.76"/>
<polygon fill="#63b8ff" stroke="#63b8ff" points="391.31,-216.51 388.81,-226.81 397.19,-220.32 391.31,-216.51"/>
</a>
</g>
</g>
<!-- Node13 -->
<g id="Node000013" class="node">
<title>Node13</title>
<g id="a_Node000013"><a xlink:href="world__idf_8cpp.html" target="_top" xlink:title="Contains the implementation of the WorldIDF class.">
<polygon fill="white" stroke="#666666" points="545.5,-192.5 473.25,-192.5 473.25,-174 545.5,-174 545.5,-192.5"/>
<text text-anchor="middle" x="509.38" y="-179" font-family="Helvetica,sans-Serif" font-size="10.00">world_idf.cpp</text>
</a>
</g>
</g>
<!-- Node1&#45;&gt;Node13 -->
<g id="edge15_Node000001_Node000013" class="edge">
<title>Node1&#45;&gt;Node13</title>
<g id="a_edge15_Node000001_Node000013"><a xlink:title=" ">
<path fill="none" stroke="#63b8ff" d="M413.73,-223.79C436.99,-214.17 468.05,-201.33 488.37,-192.93"/>
<polygon fill="#63b8ff" stroke="#63b8ff" points="412.65,-220.45 404.75,-227.5 415.32,-226.92 412.65,-220.45"/>
</a>
</g>
</g>
<!-- Node3&#45;&gt;Node2 -->
<g id="edge6_Node000003_Node000002" class="edge">
<title>Node3&#45;&gt;Node2</title>
<g id="a_edge6_Node000003_Node000002"><a xlink:title=" ">
<path fill="none" stroke="#63b8ff" d="M354.87,-127.68C268.74,-126.29 118.23,-118.71 78.38,-83.5 59.47,-66.8 58.24,-33.95 58.8,-18.56"/>
<polygon fill="#63b8ff" stroke="#63b8ff" points="354.76,-131.18 364.81,-127.82 354.86,-124.18 354.76,-131.18"/>
</a>
</g>
</g>
<!-- Node4 -->
<g id="Node000004" class="node">
<title>Node4</title>
<g id="a_Node000004"><a xlink:href="centralized__cvt_8h.html" target="_top" xlink:title="Contains the class CentralizedCVT.">
<polygon fill="white" stroke="#666666" points="175.75,-78.25 87,-78.25 87,-59.75 175.75,-59.75 175.75,-78.25"/>
<text text-anchor="middle" x="131.38" y="-64.75" font-family="Helvetica,sans-Serif" font-size="10.00">centralized_cvt.h</text>
</a>
</g>
</g>
<!-- Node3&#45;&gt;Node4 -->
<g id="edge3_Node000003_Node000004" class="edge">
<title>Node3&#45;&gt;Node4</title>
<g id="a_edge3_Node000003_Node000004"><a xlink:title=" ">
<path fill="none" stroke="#63b8ff" d="M355.5,-117.05C308.81,-108.6 242.84,-96.18 185.38,-83.5 178.77,-82.04 171.74,-80.37 165.01,-78.72"/>
<polygon fill="#63b8ff" stroke="#63b8ff" points="354.69,-120.46 365.15,-118.78 355.93,-113.57 354.69,-120.46"/>
</a>
</g>
</g>
<!-- Node5 -->
<g id="Node000005" class="node">
<title>Node5</title>
<g id="a_Node000005"><a xlink:href="clairvoyant__cvt_8h.html" target="_top" xlink:title="Clairvoyant CVT algorithm.">
<polygon fill="white" stroke="#666666" points="282.75,-78.25 194,-78.25 194,-59.75 282.75,-59.75 282.75,-78.25"/>
<text text-anchor="middle" x="238.38" y="-64.75" font-family="Helvetica,sans-Serif" font-size="10.00">clairvoyant_cvt.h</text>
</a>
</g>
</g>
<!-- Node3&#45;&gt;Node5 -->
<g id="edge4_Node000003_Node000005" class="edge">
<title>Node3&#45;&gt;Node5</title>
<g id="a_edge4_Node000003_Node000005"><a xlink:title=" ">
<path fill="none" stroke="#63b8ff" d="M378.82,-115.56C344.77,-104.52 295.43,-88.51 265.21,-78.7"/>
<polygon fill="#63b8ff" stroke="#63b8ff" points="377.69,-118.88 388.29,-118.64 379.86,-112.22 377.69,-118.88"/>
</a>
</g>
</g>
<!-- Node6 -->
<g id="Node000006" class="node">
<title>Node6</title>
<g id="a_Node000006"><a xlink:href="coverage__system_8cpp.html" target="_top" xlink:title="Contains the implementation of the CoverageSystem class.">
<polygon fill="white" stroke="#666666" points="410.25,-78.25 300.5,-78.25 300.5,-59.75 410.25,-59.75 410.25,-78.25"/>
<text text-anchor="middle" x="355.38" y="-64.75" font-family="Helvetica,sans-Serif" font-size="10.00">coverage_system.cpp</text>
</a>
</g>
</g>
<!-- Node3&#45;&gt;Node6 -->
<g id="edge7_Node000003_Node000006" class="edge">
<title>Node3&#45;&gt;Node6</title>
<g id="a_edge7_Node000003_Node000006"><a xlink:title=" ">
<path fill="none" stroke="#63b8ff" d="M399.12,-111.41C387.83,-100.72 373.53,-87.18 364.41,-78.56"/>
<polygon fill="#63b8ff" stroke="#63b8ff" points="396.61,-113.85 406.28,-118.19 401.42,-108.77 396.61,-113.85"/>
</a>
</g>
</g>
<!-- Node7 -->
<g id="Node000007" class="node">
<title>Node7</title>
<g id="a_Node000007"><a xlink:href="decentralized__cvt_8h.html" target="_top" xlink:title="Contains the DecentralizedCVT class.">
<polygon fill="white" stroke="#666666" points="528,-78.25 428.75,-78.25 428.75,-59.75 528,-59.75 528,-78.25"/>
<text text-anchor="middle" x="478.38" y="-64.75" font-family="Helvetica,sans-Serif" font-size="10.00">decentralized_cvt.h</text>
</a>
</g>
</g>
<!-- Node3&#45;&gt;Node7 -->
<g id="edge8_Node000003_Node000007" class="edge">
<title>Node3&#45;&gt;Node7</title>
<g id="a_edge8_Node000003_Node000007"><a xlink:title=" ">
<path fill="none" stroke="#63b8ff" d="M433.91,-111.41C445.39,-100.72 459.93,-87.18 469.19,-78.56"/>
<polygon fill="#63b8ff" stroke="#63b8ff" points="431.56,-108.82 426.63,-118.2 436.33,-113.94 431.56,-108.82"/>
</a>
</g>
</g>
<!-- Node8 -->
<g id="Node000008" class="node">
<title>Node8</title>
<g id="a_Node000008"><a xlink:href="near__optimal__cvt_8h.html" target="_top" xlink:title="NearOptimalCVT class Global offline oracle: has complete information about the environment....">
<polygon fill="white" stroke="#666666" points="644.25,-78.25 546.5,-78.25 546.5,-59.75 644.25,-59.75 644.25,-78.25"/>
<text text-anchor="middle" x="595.38" y="-64.75" font-family="Helvetica,sans-Serif" font-size="10.00">near_optimal_cvt.h</text>
</a>
</g>
</g>
<!-- Node3&#45;&gt;Node8 -->
<g id="edge9_Node000003_Node000008" class="edge">
<title>Node3&#45;&gt;Node8</title>
<g id="a_edge9_Node000003_Node000008"><a xlink:title=" ">
<path fill="none" stroke="#63b8ff" d="M453.7,-115.71C487.95,-104.66 537.87,-88.55 568.39,-78.7"/>
<polygon fill="#63b8ff" stroke="#63b8ff" points="453.06,-112.24 444.61,-118.64 455.21,-118.9 453.06,-112.24"/>
</a>
</g>
</g>
<!-- Node9 -->
<g id="Node000009" class="node">
<title>Node9</title>
<g id="a_Node000009"><a xlink:href="oracle__bang__explore__exploit_8h.html" target="_top" xlink:title="First trial of oracle with exploration and exploitation. The oracle uses complete information about t...">
<polygon fill="white" stroke="#666666" points="768,-83.5 662.75,-83.5 662.75,-54.5 768,-54.5 768,-83.5"/>
<text text-anchor="start" x="670.75" y="-70" font-family="Helvetica,sans-Serif" font-size="10.00">oracle_bang_explore</text>
<text text-anchor="middle" x="715.38" y="-59.5" font-family="Helvetica,sans-Serif" font-size="10.00">_exploit.h</text>
</a>
</g>
</g>
<!-- Node3&#45;&gt;Node9 -->
<g id="edge10_Node000003_Node000009" class="edge">
<title>Node3&#45;&gt;Node9</title>
<g id="a_edge10_Node000003_Node000009"><a xlink:title=" ">
<path fill="none" stroke="#63b8ff" d="M476.6,-117.02C524.56,-108.35 593.36,-95.63 653.38,-83.5 656.29,-82.91 659.28,-82.3 662.3,-81.67"/>
<polygon fill="#63b8ff" stroke="#63b8ff" points="476.19,-113.53 466.97,-118.75 477.43,-120.42 476.19,-113.53"/>
</a>
</g>
</g>
<!-- Node10 -->
<g id="Node000010" class="node">
<title>Node10</title>
<g id="a_Node000010"><a xlink:href="oracle__explore__exploit_8h.html" target="_top" xlink:title="Old trial of exploration and exploitation Uses system map for exploration as well.">
<polygon fill="white" stroke="#666666" points="906.5,-78.25 786.25,-78.25 786.25,-59.75 906.5,-59.75 906.5,-78.25"/>
<text text-anchor="middle" x="846.38" y="-64.75" font-family="Helvetica,sans-Serif" font-size="10.00">oracle_explore_exploit.h</text>
</a>
</g>
</g>
<!-- Node3&#45;&gt;Node10 -->
<g id="edge11_Node000003_Node000010" class="edge">
<title>Node3&#45;&gt;Node10</title>
<g id="a_edge11_Node000003_Node000010"><a xlink:title=" ">
<path fill="none" stroke="#63b8ff" d="M477.56,-121.59C549.52,-114.04 672.45,-100.17 777.38,-83.5 786.18,-82.1 795.57,-80.4 804.5,-78.69"/>
<polygon fill="#63b8ff" stroke="#63b8ff" points="477.55,-118.08 467.97,-122.59 478.28,-125.04 477.55,-118.08"/>
</a>
</g>
</g>
<!-- Node11 -->
<g id="Node000011" class="node">
<title>Node11</title>
<g id="a_Node000011"><a xlink:href="simul__explore__exploit_8h.html" target="_top" xlink:title="Simultaneous exploration and exploitation algorithm Uses frontier&#45;based exploration with bias towards...">
<polygon fill="white" stroke="#666666" points="1042,-78.25 924.75,-78.25 924.75,-59.75 1042,-59.75 1042,-78.25"/>
<text text-anchor="middle" x="983.38" y="-64.75" font-family="Helvetica,sans-Serif" font-size="10.00">simul_explore_exploit.h</text>
</a>
</g>
</g>
<!-- Node3&#45;&gt;Node11 -->
<g id="edge12_Node000003_Node000011" class="edge">
<title>Node3&#45;&gt;Node11</title>
<g id="a_edge12_Node000003_Node000011"><a xlink:title=" ">
<path fill="none" stroke="#63b8ff" d="M477.47,-124.46C571.77,-118.89 758.35,-105.98 915.38,-83.5 924.43,-82.2 934.1,-80.49 943.23,-78.71"/>
<polygon fill="#63b8ff" stroke="#63b8ff" points="477.45,-120.95 467.67,-125.03 477.85,-127.94 477.45,-120.95"/>
</a>
</g>
</g>
<!-- Node5&#45;&gt;Node2 -->
<g id="edge5_Node000005_Node000002" class="edge">
<title>Node5&#45;&gt;Node2</title>
<g id="a_edge5_Node000005_Node000002"><a xlink:title=" ">
<path fill="none" stroke="#63b8ff" d="M201.05,-55.96C166.8,-44.91 116.88,-28.8 86.36,-18.95"/>
<polygon fill="#63b8ff" stroke="#63b8ff" points="199.54,-59.15 210.14,-58.89 201.69,-52.49 199.54,-59.15"/>
</a>
</g>
</g>
<!-- Node12&#45;&gt;Node3 -->
<g id="edge14_Node000012_Node000003" class="edge">
<title>Node12&#45;&gt;Node3</title>
<g id="a_edge14_Node000012_Node000003"><a xlink:title=" ">
<path fill="none" stroke="#63b8ff" d="M416.38,-162.14C416.38,-153.86 416.38,-144.71 416.38,-138.26"/>
<polygon fill="#63b8ff" stroke="#63b8ff" points="412.88,-162.07 416.38,-172.07 419.88,-162.07 412.88,-162.07"/>
</a>
</g>
</g>
</g>
</svg>
