<?xml version="1.0" encoding="UTF-8" standalone="no"?>
<!DOCTYPE svg PUBLIC "-//W3C//DTD SVG 1.1//EN"
 "http://www.w3.org/Graphics/SVG/1.1/DTD/svg11.dtd">
<!-- Generated by graphviz version 10.0.1 (0)
 -->
<!-- Title: world_idf.h Pages: 1 -->
<svg width="1068pt" height="211pt"
 viewBox="0.00 0.00 1067.62 211.00" xmlns="http://www.w3.org/2000/svg" xmlns:xlink="http://www.w3.org/1999/xlink">
<g id="graph0" class="graph" transform="scale(1 1) rotate(0) translate(4 207)">
<title>world_idf.h</title>
<!-- Node1 -->
<g id="Node000001" class="node">
<title>Node1</title>
<g id="a_Node000001"><a xlink:title="Contains the class for Importance Density Function (IDF) for the world.">
<polygon fill="#999999" stroke="#666666" points="510,-203 448.25,-203 448.25,-184.5 510,-184.5 510,-203"/>
<text text-anchor="middle" x="479.12" y="-189.5" font-family="Helvetica,sans-Serif" font-size="10.00">world_idf.h</text>
</a>
</g>
</g>
<!-- Node2 -->
<g id="Node000002" class="node">
<title>Node2</title>
<g id="a_Node000002"><a xlink:title=" ">
<polygon fill="#e0e0e0" stroke="#999999" points="72.25,-18.5 0,-18.5 0,0 72.25,0 72.25,-18.5"/>
<text text-anchor="middle" x="36.12" y="-5" font-family="Helvetica,sans-Serif" font-size="10.00">Eigen/Dense</text>
</a>
</g>
</g>
<!-- Node1&#45;&gt;Node2 -->
<g id="edge1_Node000001_Node000002" class="edge">
<title>Node1&#45;&gt;Node2</title>
<g id="a_edge1_Node000001_Node000002"><a xlink:title=" ">
<path fill="none" stroke="#63b8ff" d="M447.91,-192.04C368.23,-189.76 159.34,-180.79 99.12,-148.5 65.77,-130.62 59.05,-118.27 44.12,-83.5 36.79,-66.42 35.21,-45.13 35.21,-29.91"/>
<polygon fill="#63b8ff" stroke="#63b8ff" points="38.69,-30.38 35.45,-20.29 31.7,-30.2 38.69,-30.38"/>
</a>
</g>
</g>
<!-- Node3 -->
<g id="Node000003" class="node">
<title>Node3</title>
<g id="a_Node000003"><a xlink:title=" ">
<polygon fill="#e0e0e0" stroke="#999999" points="1059.62,-143.25 1010.62,-143.25 1010.62,-124.75 1059.62,-124.75 1059.62,-143.25"/>
<text text-anchor="middle" x="1035.12" y="-129.75" font-family="Helvetica,sans-Serif" font-size="10.00">fstream</text>
</a>
</g>
</g>
<!-- Node1&#45;&gt;Node3 -->
<g id="edge2_Node000001_Node000003" class="edge">
<title>Node1&#45;&gt;Node3</title>
<g id="a_edge2_Node000001_Node000003"><a xlink:title=" ">
<path fill="none" stroke="#63b8ff" d="M510.4,-192.75C591.54,-192.19 815.04,-186.97 996.12,-148.5 998.14,-148.07 1000.19,-147.57 1002.25,-147.02"/>
<polygon fill="#63b8ff" stroke="#63b8ff" points="1003.14,-150.4 1011.67,-144.12 1001.09,-143.71 1003.14,-150.4"/>
</a>
</g>
</g>
<!-- Node4 -->
<g id="Node000004" class="node">
<title>Node4</title>
<g id="a_Node000004"><a xlink:title=" ">
<polygon fill="#e0e0e0" stroke="#999999" points="392.88,-18.5 339.38,-18.5 339.38,0 392.88,0 392.88,-18.5"/>
<text text-anchor="middle" x="366.12" y="-5" font-family="Helvetica,sans-Serif" font-size="10.00">iostream</text>
</a>
</g>
</g>
<!-- Node1&#45;&gt;Node4 -->
<g id="edge3_Node000001_Node000004" class="edge">
<title>Node1&#45;&gt;Node4</title>
<g id="a_edge3_Node000001_Node000004"><a xlink:title=" ">
<path fill="none" stroke="#63b8ff" d="M448.07,-188.92C404.93,-182.88 330.33,-169.62 314.12,-148.5 285.1,-110.66 325.69,-54.84 350.07,-27.13"/>
<polygon fill="#63b8ff" stroke="#63b8ff" points="352.42,-29.74 356.57,-20 347.25,-25.03 352.42,-29.74"/>
</a>
</g>
</g>
<!-- Node5 -->
<g id="Node000005" class="node">
<title>Node5</title>
<g id="a_Node000005"><a xlink:title=" ">
<polygon fill="#e0e0e0" stroke="#999999" points="673.12,-18.5 633.12,-18.5 633.12,0 673.12,0 673.12,-18.5"/>
<text text-anchor="middle" x="653.12" y="-5" font-family="Helvetica,sans-Serif" font-size="10.00">string</text>
</a>
</g>
</g>
<!-- Node1&#45;&gt;Node5 -->
<g id="edge4_Node000001_Node000005" class="edge">
<title>Node1&#45;&gt;Node5</title>
<g id="a_edge4_Node000001_Node000005"><a xlink:title=" ">
<path fill="none" stroke="#63b8ff" d="M510.21,-192.8C544.82,-191.07 599.86,-182.64 630.12,-148.5 659.51,-115.35 658.73,-59.43 655.83,-29.89"/>
<polygon fill="#63b8ff" stroke="#63b8ff" points="659.33,-29.69 654.67,-20.17 652.38,-30.52 659.33,-29.69"/>
</a>
</g>
</g>
<!-- Node6 -->
<g id="Node000006" class="node">
<title>Node6</title>
<g id="a_Node000006"><a xlink:title=" ">
<polygon fill="#e0e0e0" stroke="#999999" points="259.25,-18.5 217,-18.5 217,0 259.25,0 259.25,-18.5"/>
<text text-anchor="middle" x="238.12" y="-5" font-family="Helvetica,sans-Serif" font-size="10.00">vector</text>
</a>
</g>
</g>
<!-- Node1&#45;&gt;Node6 -->
<g id="edge5_Node000001_Node000006" class="edge">
<title>Node1&#45;&gt;Node6</title>
<g id="a_edge5_Node000001_Node000006"><a xlink:title=" ">
<path fill="none" stroke="#63b8ff" d="M447.95,-193C409.05,-191.68 342.51,-183.9 300.12,-148.5 263.2,-117.67 247.39,-60.33 241.37,-30.1"/>
<polygon fill="#63b8ff" stroke="#63b8ff" points="244.85,-29.66 239.63,-20.44 237.96,-30.91 244.85,-29.66"/>
</a>
</g>
</g>
<!-- Node7 -->
<g id="Node000007" class="node">
<title>Node7</title>
<g id="a_Node000007"><a xlink:title=" ">
<polygon fill="#e0e0e0" stroke="#999999" points="956.38,-18.5 827.88,-18.5 827.88,0 956.38,0 956.38,-18.5"/>
<text text-anchor="middle" x="892.12" y="-5" font-family="Helvetica,sans-Serif" font-size="10.00">CoverageControl/Config.h</text>
</a>
</g>
</g>
<!-- Node1&#45;&gt;Node7 -->
<g id="edge6_Node000001_Node000007" class="edge">
<title>Node1&#45;&gt;Node7</title>
<g id="a_edge6_Node000001_Node000007"><a xlink:title=" ">
<path fill="none" stroke="#63b8ff" d="M510.19,-190.82C608.3,-184.01 908.36,-157.37 963.12,-83.5 970.8,-73.15 969.38,-65.77 963.12,-54.5 955.49,-40.74 941.59,-30.7 928.1,-23.69"/>
<polygon fill="#63b8ff" stroke="#63b8ff" points="929.89,-20.67 919.35,-19.56 926.9,-27 929.89,-20.67"/>
</a>
</g>
</g>
<!-- Node8 -->
<g id="Node000008" class="node">
<title>Node8</title>
<g id="a_Node000008"><a xlink:href="cuda__utils_8h.html" target="_top" xlink:title="Utility functions for CUDA.">
<polygon fill="white" stroke="#666666" points="793.5,-83.5 680.75,-83.5 680.75,-54.5 793.5,-54.5 793.5,-83.5"/>
<text text-anchor="start" x="688.75" y="-70" font-family="Helvetica,sans-Serif" font-size="10.00">CoverageControl/cuda</text>
<text text-anchor="middle" x="737.12" y="-59.5" font-family="Helvetica,sans-Serif" font-size="10.00">_utils.h</text>
</a>
</g>
</g>
<!-- Node1&#45;&gt;Node8 -->
<g id="edge7_Node000001_Node000008" class="edge">
<title>Node1&#45;&gt;Node8</title>
<g id="a_edge7_Node000001_Node000008"><a xlink:title=" ">
<path fill="none" stroke="#63b8ff" d="M510.22,-191.14C549.34,-187.89 617.42,-178.08 667.12,-148.5 690.19,-134.77 709.84,-110.93 722.4,-93.12"/>
<polygon fill="#63b8ff" stroke="#63b8ff" points="725.22,-95.19 727.93,-84.95 719.43,-91.26 725.22,-95.19"/>
</a>
</g>
</g>
<!-- Node11 -->
<g id="Node000011" class="node">
<title>Node11</title>
<g id="a_Node000011"><a xlink:href="bivariate__normal__distribution_8h.html" target="_top" xlink:title="Class for Bivariate Normal Distribution.">
<polygon fill="white" stroke="#666666" points="451,-148.5 323.25,-148.5 323.25,-119.5 451,-119.5 451,-148.5"/>
<text text-anchor="start" x="331.25" y="-135" font-family="Helvetica,sans-Serif" font-size="10.00">CoverageControl/bivariate</text>
<text text-anchor="middle" x="387.12" y="-124.5" font-family="Helvetica,sans-Serif" font-size="10.00">_normal_distribution.h</text>
</a>
</g>
</g>
<!-- Node1&#45;&gt;Node11 -->
<g id="edge14_Node000001_Node000011" class="edge">
<title>Node1&#45;&gt;Node11</title>
<g id="a_edge14_Node000001_Node000011"><a xlink:title=" ">
<path fill="none" stroke="#63b8ff" d="M465.55,-184.23C453.3,-176.54 434.8,-164.93 418.85,-154.91"/>
<polygon fill="#63b8ff" stroke="#63b8ff" points="420.93,-152.09 410.6,-149.74 417.21,-158.02 420.93,-152.09"/>
</a>
</g>
</g>
<!-- Node13 -->
<g id="Node000013" class="node">
<title>Node13</title>
<g id="a_Node000013"><a xlink:href="constants_8h.html" target="_top" xlink:title="Constants for the CoverageControl library.">
<polygon fill="white" stroke="#666666" points="954.5,-78.25 811.75,-78.25 811.75,-59.75 954.5,-59.75 954.5,-78.25"/>
<text text-anchor="middle" x="883.12" y="-64.75" font-family="Helvetica,sans-Serif" font-size="10.00">CoverageControl/constants.h</text>
</a>
</g>
</g>
<!-- Node1&#45;&gt;Node13 -->
<g id="edge34_Node000001_Node000013" class="edge">
<title>Node1&#45;&gt;Node13</title>
<g id="a_edge34_Node000001_Node000013"><a xlink:title=" ">
<path fill="none" stroke="#63b8ff" d="M510.3,-188.42C553.05,-182.04 632,-168.63 697.12,-148.5 755.24,-130.54 820.04,-100.85 855.75,-83.59"/>
<polygon fill="#63b8ff" stroke="#63b8ff" points="857.05,-86.86 864.5,-79.33 853.98,-80.56 857.05,-86.86"/>
</a>
</g>
</g>
<!-- Node14 -->
<g id="Node000014" class="node">
<title>Node14</title>
<g id="a_Node000014"><a xlink:href="parameters_8h.html" target="_top" xlink:title="Contains parameters.">
<polygon fill="white" stroke="#666666" points="548.88,-78.25 399.38,-78.25 399.38,-59.75 548.88,-59.75 548.88,-78.25"/>
<text text-anchor="middle" x="474.12" y="-64.75" font-family="Helvetica,sans-Serif" font-size="10.00">CoverageControl/parameters.h</text>
</a>
</g>
</g>
<!-- Node1&#45;&gt;Node14 -->
<g id="edge39_Node000001_Node000014" class="edge">
<title>Node1&#45;&gt;Node14</title>
<g id="a_edge39_Node000001_Node000014"><a xlink:title=" ">
<path fill="none" stroke="#63b8ff" d="M478.78,-184.31C477.99,-164.95 476.04,-116.92 474.93,-89.68"/>
<polygon fill="#63b8ff" stroke="#63b8ff" points="478.44,-89.86 474.53,-80.01 471.44,-90.14 478.44,-89.86"/>
</a>
</g>
</g>
<!-- Node16 -->
<g id="Node000016" class="node">
<title>Node16</title>
<g id="a_Node000016"><a xlink:href="typedefs_8h.html" target="_top" xlink:title="Contains typedefs for the library.">
<polygon fill="white" stroke="#666666" points="190.88,-78.25 53.38,-78.25 53.38,-59.75 190.88,-59.75 190.88,-78.25"/>
<text text-anchor="middle" x="122.12" y="-64.75" font-family="Helvetica,sans-Serif" font-size="10.00">CoverageControl/typedefs.h</text>
</a>
</g>
</g>
<!-- Node1&#45;&gt;Node16 -->
<g id="edge40_Node000001_Node000016" class="edge">
<title>Node1&#45;&gt;Node16</title>
<g id="a_edge40_Node000001_Node000016"><a xlink:title=" ">
<path fill="none" stroke="#63b8ff" d="M448.03,-191.34C363.18,-187.19 132.45,-173.66 110.12,-148.5 95.71,-132.26 103.58,-106.29 111.76,-88.71"/>
<polygon fill="#63b8ff" stroke="#63b8ff" points="114.83,-90.4 116.27,-79.9 108.6,-87.21 114.83,-90.4"/>
</a>
</g>
</g>
<!-- Node18 -->
<g id="Node000018" class="node">
<title>Node18</title>
<g id="a_Node000018"><a xlink:href="polygon__utils_8h.html" target="_top" xlink:title="Provides utilities for polygon manipulation using CGAL.">
<polygon fill="white" stroke="#666666" points="229,-148.5 119.25,-148.5 119.25,-119.5 229,-119.5 229,-148.5"/>
<text text-anchor="start" x="127.25" y="-135" font-family="Helvetica,sans-Serif" font-size="10.00">CoverageControl/cgal</text>
<text text-anchor="middle" x="174.12" y="-124.5" font-family="Helvetica,sans-Serif" font-size="10.00">/polygon_utils.h</text>
</a>
</g>
</g>
<!-- Node1&#45;&gt;Node18 -->
<g id="edge31_Node000001_Node000018" class="edge">
<title>Node1&#45;&gt;Node18</title>
<g id="a_edge31_Node000001_Node000018"><a xlink:title=" ">
<path fill="none" stroke="#63b8ff" d="M447.81,-186.96C402.59,-178.58 316.41,-162.54 243.12,-148.5 242.29,-148.34 241.46,-148.18 240.61,-148.02"/>
<polygon fill="#63b8ff" stroke="#63b8ff" points="241.45,-144.61 230.97,-146.16 240.12,-151.49 241.45,-144.61"/>
</a>
</g>
</g>
<!-- Node19 -->
<g id="Node000019" class="node">
<title>Node19</title>
<g id="a_Node000019"><a xlink:href="map__utils_8h.html" target="_top" xlink:title="Utility functions for transforming maps.">
<polygon fill="white" stroke="#666666" points="621.38,-148.5 510.88,-148.5 510.88,-119.5 621.38,-119.5 621.38,-148.5"/>
<text text-anchor="start" x="518.88" y="-135" font-family="Helvetica,sans-Serif" font-size="10.00">CoverageControl/map</text>
<text text-anchor="middle" x="566.12" y="-124.5" font-family="Helvetica,sans-Serif" font-size="10.00">_utils.h</text>
</a>
</g>
</g>
<!-- Node1&#45;&gt;Node19 -->
<g id="edge35_Node000001_Node000019" class="edge">
<title>Node1&#45;&gt;Node19</title>
<g id="a_edge35_Node000001_Node000019"><a xlink:title=" ">
<path fill="none" stroke="#63b8ff" d="M491.96,-184.23C503.44,-176.61 520.71,-165.15 535.7,-155.2"/>
<polygon fill="#63b8ff" stroke="#63b8ff" points="537.48,-158.22 543.87,-149.77 533.61,-152.39 537.48,-158.22"/>
</a>
</g>
</g>
<!-- Node8&#45;&gt;Node4 -->
<g id="edge8_Node000008_Node000004" class="edge">
<title>Node8&#45;&gt;Node4</title>
<g id="a_edge8_Node000008_Node000004"><a xlink:title=" ">
<path fill="none" stroke="#63b8ff" d="M680.37,-59.17C603.78,-47.24 469.39,-26.33 404.01,-16.15"/>
<polygon fill="#63b8ff" stroke="#63b8ff" points="404.92,-12.75 394.5,-14.67 403.84,-19.66 404.92,-12.75"/>
</a>
</g>
</g>
<!-- Node8&#45;&gt;Node5 -->
<g id="edge12_Node000008_Node000005" class="edge">
<title>Node8&#45;&gt;Node5</title>
<g id="a_edge12_Node000008_Node000005"><a xlink:title=" ">
<path fill="none" stroke="#63b8ff" d="M716.79,-54.02C704.1,-45.3 687.77,-34.07 674.83,-25.17"/>
<polygon fill="#63b8ff" stroke="#63b8ff" points="677.18,-22.54 666.96,-19.76 673.22,-28.31 677.18,-22.54"/>
</a>
</g>
</g>
<!-- Node8&#45;&gt;Node6 -->
<g id="edge11_Node000008_Node000006" class="edge">
<title>Node8&#45;&gt;Node6</title>
<g id="a_edge11_Node000008_Node000006"><a xlink:title=" ">
<path fill="none" stroke="#63b8ff" d="M680.37,-61.43C575.43,-49.29 354.19,-23.68 270.83,-14.04"/>
<polygon fill="#63b8ff" stroke="#63b8ff" points="271.4,-10.58 261.07,-12.9 270.6,-17.53 271.4,-10.58"/>
</a>
</g>
</g>
<!-- Node8&#45;&gt;Node7 -->
<g id="edge13_Node000008_Node000007" class="edge">
<title>Node8&#45;&gt;Node7</title>
<g id="a_edge13_Node000008_Node000007"><a xlink:title=" ">
<path fill="none" stroke="#63b8ff" d="M774.65,-54.02C800.13,-44.53 833.56,-32.07 858.24,-22.88"/>
<polygon fill="#63b8ff" stroke="#63b8ff" points="859.33,-26.2 867.48,-19.43 856.89,-19.64 859.33,-26.2"/>
</a>
</g>
</g>
<!-- Node9 -->
<g id="Node000009" class="node">
<title>Node9</title>
<g id="a_Node000009"><a xlink:title=" ">
<polygon fill="#e0e0e0" stroke="#999999" points="809.75,-18.5 770.5,-18.5 770.5,0 809.75,0 809.75,-18.5"/>
<text text-anchor="middle" x="790.12" y="-5" font-family="Helvetica,sans-Serif" font-size="10.00">limits</text>
</a>
</g>
</g>
<!-- Node8&#45;&gt;Node9 -->
<g id="edge9_Node000008_Node000009" class="edge">
<title>Node8&#45;&gt;Node9</title>
<g id="a_edge9_Node000008_Node000009"><a xlink:title=" ">
<path fill="none" stroke="#63b8ff" d="M749.95,-54.02C757.33,-45.98 766.66,-35.82 774.47,-27.31"/>
<polygon fill="#63b8ff" stroke="#63b8ff" points="776.98,-29.75 781.16,-20.02 771.82,-25.02 776.98,-29.75"/>
</a>
</g>
</g>
<!-- Node10 -->
<g id="Node000010" class="node">
<title>Node10</title>
<g id="a_Node000010"><a xlink:title=" ">
<polygon fill="#e0e0e0" stroke="#999999" points="752.75,-18.5 701.5,-18.5 701.5,0 752.75,0 752.75,-18.5"/>
<text text-anchor="middle" x="727.12" y="-5" font-family="Helvetica,sans-Serif" font-size="10.00">sstream</text>
</a>
</g>
</g>
<!-- Node8&#45;&gt;Node10 -->
<g id="edge10_Node000008_Node000010" class="edge">
<title>Node8&#45;&gt;Node10</title>
<g id="a_edge10_Node000008_Node000010"><a xlink:title=" ">
<path fill="none" stroke="#63b8ff" d="M734.7,-54.02C733.46,-46.83 731.92,-37.96 730.56,-30.08"/>
<polygon fill="#63b8ff" stroke="#63b8ff" points="734.04,-29.65 728.88,-20.39 727.14,-30.85 734.04,-29.65"/>
</a>
</g>
</g>
<!-- Node11&#45;&gt;Node4 -->
<g id="edge16_Node000011_Node000004" class="edge">
<title>Node11&#45;&gt;Node4</title>
<g id="a_edge16_Node000011_Node000004"><a xlink:title=" ">
<path fill="none" stroke="#63b8ff" d="M375.95,-119.24C369.04,-109.81 360.8,-96.66 357.12,-83.5 352.17,-65.76 355.62,-44.85 359.59,-29.92"/>
<polygon fill="#63b8ff" stroke="#63b8ff" points="362.92,-31.02 362.45,-20.43 356.21,-29 362.92,-31.02"/>
</a>
</g>
</g>
<!-- Node12 -->
<g id="Node000012" class="node">
<title>Node12</title>
<g id="a_Node000012"><a xlink:title=" ">
<polygon fill="#e0e0e0" stroke="#999999" points="581.62,-18.5 538.62,-18.5 538.62,0 581.62,0 581.62,-18.5"/>
<text text-anchor="middle" x="560.12" y="-5" font-family="Helvetica,sans-Serif" font-size="10.00">cmath</text>
</a>
</g>
</g>
<!-- Node11&#45;&gt;Node12 -->
<g id="edge15_Node000011_Node000012" class="edge">
<title>Node11&#45;&gt;Node12</title>
<g id="a_edge15_Node000011_Node000012"><a xlink:title=" ">
<path fill="none" stroke="#63b8ff" d="M383.13,-119.1C379.12,-101.93 375.43,-72.78 390.12,-54.5 398.78,-43.74 480.31,-26.05 527.24,-16.63"/>
<polygon fill="#63b8ff" stroke="#63b8ff" points="527.75,-20.09 536.88,-14.71 526.39,-13.23 527.75,-20.09"/>
</a>
</g>
</g>
<!-- Node11&#45;&gt;Node13 -->
<g id="edge17_Node000011_Node000013" class="edge">
<title>Node11&#45;&gt;Node13</title>
<g id="a_edge17_Node000011_Node000013"><a xlink:title=" ">
<path fill="none" stroke="#63b8ff" d="M451.37,-125.42C563.57,-112.16 785.02,-85.94 802.12,-83.5 808.54,-82.58 815.24,-81.57 821.91,-80.51"/>
<polygon fill="#63b8ff" stroke="#63b8ff" points="822.25,-84 831.56,-78.96 821.14,-77.09 822.25,-84"/>
</a>
</g>
</g>
<!-- Node11&#45;&gt;Node14 -->
<g id="edge22_Node000011_Node000014" class="edge">
<title>Node11&#45;&gt;Node14</title>
<g id="a_edge22_Node000011_Node000014"><a xlink:title=" ">
<path fill="none" stroke="#63b8ff" d="M406.43,-119.02C420.26,-109 438.87,-95.53 453.08,-85.24"/>
<polygon fill="#63b8ff" stroke="#63b8ff" points="454.83,-88.29 460.88,-79.59 450.72,-82.62 454.83,-88.29"/>
</a>
</g>
</g>
<!-- Node11&#45;&gt;Node16 -->
<g id="edge27_Node000011_Node000016" class="edge">
<title>Node11&#45;&gt;Node16</title>
<g id="a_edge27_Node000011_Node000016"><a xlink:title=" ">
<path fill="none" stroke="#63b8ff" d="M328.31,-119.02C280.62,-107.68 214.25,-91.9 169.82,-81.34"/>
<polygon fill="#63b8ff" stroke="#63b8ff" points="170.76,-77.96 160.22,-79.06 169.14,-84.77 170.76,-77.96"/>
</a>
</g>
</g>
<!-- Node13&#45;&gt;Node5 -->
<g id="edge20_Node000013_Node000005" class="edge">
<title>Node13&#45;&gt;Node5</title>
<g id="a_edge20_Node000013_Node000005"><a xlink:title=" ">
<path fill="none" stroke="#63b8ff" d="M848.69,-59.35C804.25,-48.19 727.54,-28.93 684.59,-18.15"/>
<polygon fill="#63b8ff" stroke="#63b8ff" points="685.44,-14.76 674.89,-15.72 683.74,-21.55 685.44,-14.76"/>
</a>
</g>
</g>
<!-- Node13&#45;&gt;Node7 -->
<g id="edge21_Node000013_Node000007" class="edge">
<title>Node13&#45;&gt;Node7</title>
<g id="a_edge21_Node000013_Node000007"><a xlink:title=" ">
<path fill="none" stroke="#63b8ff" d="M884.45,-59.48C885.66,-51.72 887.49,-39.96 889.07,-29.88"/>
<polygon fill="#63b8ff" stroke="#63b8ff" points="892.48,-30.72 890.56,-20.3 885.56,-29.64 892.48,-30.72"/>
</a>
</g>
</g>
<!-- Node13&#45;&gt;Node9 -->
<g id="edge19_Node000013_Node000009" class="edge">
<title>Node13&#45;&gt;Node9</title>
<g id="a_edge19_Node000013_Node000009"><a xlink:title=" ">
<path fill="none" stroke="#63b8ff" d="M869.4,-59.48C854.79,-50.4 831.39,-35.87 813.79,-24.94"/>
<polygon fill="#63b8ff" stroke="#63b8ff" points="815.84,-22.1 805.49,-19.79 812.14,-28.04 815.84,-22.1"/>
</a>
</g>
</g>
<!-- Node13&#45;&gt;Node12 -->
<g id="edge18_Node000013_Node000012" class="edge">
<title>Node13&#45;&gt;Node12</title>
<g id="a_edge18_Node000013_Node000012"><a xlink:title=" ">
<path fill="none" stroke="#63b8ff" d="M834.42,-59.29C767.95,-47.41 650.56,-26.42 593.34,-16.19"/>
<polygon fill="#63b8ff" stroke="#63b8ff" points="594.04,-12.76 583.58,-14.44 592.8,-19.65 594.04,-12.76"/>
</a>
</g>
</g>
<!-- Node14&#45;&gt;Node4 -->
<g id="edge25_Node000014_Node000004" class="edge">
<title>Node14&#45;&gt;Node4</title>
<g id="a_edge25_Node000014_Node000004"><a xlink:title=" ">
<path fill="none" stroke="#63b8ff" d="M458.19,-59.48C440.9,-50.23 413.02,-35.33 392.47,-24.34"/>
<polygon fill="#63b8ff" stroke="#63b8ff" points="394.28,-21.34 383.81,-19.71 390.98,-27.51 394.28,-21.34"/>
</a>
</g>
</g>
<!-- Node14&#45;&gt;Node5 -->
<g id="edge26_Node000014_Node000005" class="edge">
<title>Node14&#45;&gt;Node5</title>
<g id="a_edge26_Node000014_Node000005"><a xlink:title=" ">
<path fill="none" stroke="#63b8ff" d="M500.92,-59.35C533.34,-48.89 587.82,-31.32 622.05,-20.27"/>
<polygon fill="#63b8ff" stroke="#63b8ff" points="622.94,-23.67 631.38,-17.26 620.79,-17 622.94,-23.67"/>
</a>
</g>
</g>
<!-- Node14&#45;&gt;Node12 -->
<g id="edge23_Node000014_Node000012" class="edge">
<title>Node14&#45;&gt;Node12</title>
<g id="a_edge23_Node000014_Node000012"><a xlink:title=" ">
<path fill="none" stroke="#63b8ff" d="M486.81,-59.48C500.2,-50.49 521.57,-36.14 537.78,-25.25"/>
<polygon fill="#63b8ff" stroke="#63b8ff" points="539.49,-28.32 545.84,-19.84 535.59,-22.51 539.49,-28.32"/>
</a>
</g>
</g>
<!-- Node15 -->
<g id="Node000015" class="node">
<title>Node15</title>
<g id="a_Node000015"><a xlink:title=" ">
<polygon fill="#e0e0e0" stroke="#999999" points="503.88,-18.5 444.38,-18.5 444.38,0 503.88,0 503.88,-18.5"/>
<text text-anchor="middle" x="474.12" y="-5" font-family="Helvetica,sans-Serif" font-size="10.00">filesystem</text>
</a>
</g>
</g>
<!-- Node14&#45;&gt;Node15 -->
<g id="edge24_Node000014_Node000015" class="edge">
<title>Node14&#45;&gt;Node15</title>
<g id="a_edge24_Node000014_Node000015"><a xlink:title=" ">
<path fill="none" stroke="#63b8ff" d="M474.12,-59.48C474.12,-51.8 474.12,-40.22 474.12,-30.22"/>
<polygon fill="#63b8ff" stroke="#63b8ff" points="477.63,-30.32 474.13,-20.32 470.63,-30.32 477.63,-30.32"/>
</a>
</g>
</g>
<!-- Node16&#45;&gt;Node2 -->
<g id="edge28_Node000016_Node000002" class="edge">
<title>Node16&#45;&gt;Node2</title>
<g id="a_edge28_Node000016_Node000002"><a xlink:title=" ">
<path fill="none" stroke="#63b8ff" d="M109.44,-59.48C96.05,-50.49 74.68,-36.14 58.47,-25.25"/>
<polygon fill="#63b8ff" stroke="#63b8ff" points="60.66,-22.51 50.41,-19.84 56.76,-28.32 60.66,-22.51"/>
</a>
</g>
</g>
<!-- Node16&#45;&gt;Node6 -->
<g id="edge30_Node000016_Node000006" class="edge">
<title>Node16&#45;&gt;Node6</title>
<g id="a_edge30_Node000016_Node000006"><a xlink:title=" ">
<path fill="none" stroke="#63b8ff" d="M139.49,-59.35C158.28,-50 188.52,-34.95 210.56,-23.97"/>
<polygon fill="#63b8ff" stroke="#63b8ff" points="211.89,-27.22 219.28,-19.63 208.77,-20.95 211.89,-27.22"/>
</a>
</g>
</g>
<!-- Node17 -->
<g id="Node000017" class="node">
<title>Node17</title>
<g id="a_Node000017"><a xlink:title=" ">
<polygon fill="#e0e0e0" stroke="#999999" points="143.25,-18.5 101,-18.5 101,0 143.25,0 143.25,-18.5"/>
<text text-anchor="middle" x="122.12" y="-5" font-family="Helvetica,sans-Serif" font-size="10.00">queue</text>
</a>
</g>
</g>
<!-- Node16&#45;&gt;Node17 -->
<g id="edge29_Node000016_Node000017" class="edge">
<title>Node16&#45;&gt;Node17</title>
<g id="a_edge29_Node000016_Node000017"><a xlink:title=" ">
<path fill="none" stroke="#63b8ff" d="M122.12,-59.48C122.12,-51.8 122.12,-40.22 122.12,-30.22"/>
<polygon fill="#63b8ff" stroke="#63b8ff" points="125.63,-30.32 122.13,-20.32 118.63,-30.32 125.63,-30.32"/>
</a>
</g>
</g>
<!-- Node18&#45;&gt;Node6 -->
<g id="edge32_Node000018_Node000006" class="edge">
<title>Node18&#45;&gt;Node6</title>
<g id="a_edge32_Node000018_Node000006"><a xlink:title=" ">
<path fill="none" stroke="#63b8ff" d="M181.43,-119.14C186.65,-109.22 193.84,-95.55 200.12,-83.5 209.85,-64.88 220.9,-43.56 228.57,-28.74"/>
<polygon fill="#63b8ff" stroke="#63b8ff" points="231.51,-30.66 233,-20.17 225.29,-27.45 231.51,-30.66"/>
</a>
</g>
</g>
<!-- Node18&#45;&gt;Node16 -->
<g id="edge33_Node000018_Node000016" class="edge">
<title>Node18&#45;&gt;Node16</title>
<g id="a_edge33_Node000018_Node000016"><a xlink:title=" ">
<path fill="none" stroke="#63b8ff" d="M162.58,-119.02C154.88,-109.68 144.68,-97.32 136.45,-87.36"/>
<polygon fill="#63b8ff" stroke="#63b8ff" points="139.34,-85.36 130.27,-79.87 133.94,-89.81 139.34,-85.36"/>
</a>
</g>
</g>
<!-- Node19&#45;&gt;Node5 -->
<g id="edge37_Node000019_Node000005" class="edge">
<title>Node19&#45;&gt;Node5</title>
<g id="a_edge37_Node000019_Node000005"><a xlink:title=" ">
<path fill="none" stroke="#63b8ff" d="M575.77,-119.39C591.56,-97.11 622.94,-52.84 640.49,-28.08"/>
<polygon fill="#63b8ff" stroke="#63b8ff" points="643.28,-30.2 646.21,-20.01 637.57,-26.15 643.28,-30.2"/>
</a>
</g>
</g>
<!-- Node19&#45;&gt;Node12 -->
<g id="edge36_Node000019_Node000012" class="edge">
<title>Node19&#45;&gt;Node12</title>
<g id="a_edge36_Node000019_Node000012"><a xlink:title=" ">
<path fill="none" stroke="#63b8ff" d="M565.46,-119.39C564.4,-97.71 562.32,-55.19 561.1,-30.11"/>
<polygon fill="#63b8ff" stroke="#63b8ff" points="564.6,-30.11 560.62,-20.29 557.61,-30.45 564.6,-30.11"/>
</a>
</g>
</g>
<!-- Node19&#45;&gt;Node14 -->
<g id="edge38_Node000019_Node000014" class="edge">
<title>Node19&#45;&gt;Node14</title>
<g id="a_edge38_Node000019_Node000014"><a xlink:title=" ">
<path fill="none" stroke="#63b8ff" d="M545.71,-119.02C530.94,-108.91 511.02,-95.27 495.94,-84.94"/>
<polygon fill="#63b8ff" stroke="#63b8ff" points="498.32,-82.32 488.09,-79.56 494.36,-88.1 498.32,-82.32"/>
</a>
</g>
</g>
</g>
</svg>
